%FSLAX44Y44*%
%MOMM*%
G71*
G01*
G75*
G04 Layer_Color=16777215*
G04:AMPARAMS|DCode=10|XSize=0.5mm|YSize=0.6mm|CornerRadius=0.125mm|HoleSize=0mm|Usage=FLASHONLY|Rotation=0.000|XOffset=0mm|YOffset=0mm|HoleType=Round|Shape=RoundedRectangle|*
%AMROUNDEDRECTD10*
21,1,0.5000,0.3500,0,0,0.0*
21,1,0.2500,0.6000,0,0,0.0*
1,1,0.2500,0.1250,-0.1750*
1,1,0.2500,-0.1250,-0.1750*
1,1,0.2500,-0.1250,0.1750*
1,1,0.2500,0.1250,0.1750*
%
%ADD10ROUNDEDRECTD10*%
%ADD11R,0.6000X0.6000*%
%ADD12R,0.6000X0.6000*%
G04:AMPARAMS|DCode=13|XSize=0.5mm|YSize=0.6mm|CornerRadius=0.125mm|HoleSize=0mm|Usage=FLASHONLY|Rotation=270.000|XOffset=0mm|YOffset=0mm|HoleType=Round|Shape=RoundedRectangle|*
%AMROUNDEDRECTD13*
21,1,0.5000,0.3500,0,0,270.0*
21,1,0.2500,0.6000,0,0,270.0*
1,1,0.2500,-0.1750,-0.1250*
1,1,0.2500,-0.1750,0.1250*
1,1,0.2500,0.1750,0.1250*
1,1,0.2500,0.1750,-0.1250*
%
%ADD13ROUNDEDRECTD13*%
%ADD14R,1.0200X3.3000*%
%ADD15R,1.1000X2.6000*%
%ADD16R,2.6000X1.1000*%
%ADD17R,0.3050X2.6000*%
%ADD18R,3.3000X1.0200*%
%ADD19R,0.3500X0.8500*%
%ADD20R,0.8500X0.3500*%
%ADD21R,1.1000X1.4000*%
%ADD22R,1.4000X1.1000*%
%ADD23R,1.8000X1.1500*%
%ADD24R,0.4200X1.2200*%
%ADD25R,0.6000X1.8000*%
%ADD26R,1.2200X0.4200*%
%ADD27R,1.8000X0.6000*%
%ADD28C,0.3048*%
%ADD29C,0.5080*%
%ADD30C,0.2083*%
%ADD31C,0.1524*%
%ADD32C,0.1778*%
%ADD33C,0.2540*%
%ADD34C,0.2032*%
%ADD35C,8.0000*%
%ADD36C,2.2000*%
%ADD37C,1.8200*%
%ADD38C,0.4572*%
%ADD39C,0.8128*%
%ADD40C,0.4928*%
%ADD41C,0.4851*%
%ADD42C,1.0160*%
%ADD43C,4.8260*%
%ADD44C,3.2160*%
%ADD45C,2.8360*%
%ADD46C,2.1844*%
%ADD47C,1.2700*%
G04:AMPARAMS|DCode=48|XSize=1.5748mm|YSize=1.5748mm|CornerRadius=0mm|HoleSize=0mm|Usage=FLASHONLY|Rotation=0.000|XOffset=0mm|YOffset=0mm|HoleType=Round|Shape=Relief|Width=0.254mm|Gap=0.1524mm|Entries=4|*
%AMTHD48*
7,0,0,1.5748,1.2700,0.2540,45*
%
%ADD48THD48*%
G04:AMPARAMS|DCode=49|XSize=1.7272mm|YSize=1.7272mm|CornerRadius=0mm|HoleSize=0mm|Usage=FLASHONLY|Rotation=0.000|XOffset=0mm|YOffset=0mm|HoleType=Round|Shape=Relief|Width=0.254mm|Gap=0.1524mm|Entries=4|*
%AMTHD49*
7,0,0,1.7272,1.4224,0.2540,45*
%
%ADD49THD49*%
%ADD50C,1.4224*%
%ADD51R,0.4064X2.1590*%
%ADD52R,18.0340X0.5080*%
%ADD53R,1.8000X1.8000*%
%ADD54C,0.2500*%
%ADD55C,0.6000*%
%ADD56C,0.2000*%
%ADD57C,0.1000*%
%ADD58C,0.1016*%
G36*
X363410Y391478D02*
X363728Y391446D01*
X364109Y391414D01*
X364522Y391351D01*
X364966Y391287D01*
X365919Y391065D01*
X366427Y390906D01*
X366967Y390715D01*
X367475Y390493D01*
X367982Y390271D01*
X368490Y389953D01*
X368967Y389636D01*
X368998Y389604D01*
X369062Y389541D01*
X369221Y389445D01*
X369380Y389287D01*
X369570Y389096D01*
X369824Y388874D01*
X370078Y388588D01*
X370364Y388271D01*
X370649Y387921D01*
X370935Y387541D01*
X371221Y387096D01*
X371507Y386651D01*
X371792Y386143D01*
X372047Y385604D01*
X372300Y385000D01*
X372491Y384397D01*
X369316Y383635D01*
Y383667D01*
X369284Y383762D01*
X369221Y383889D01*
X369157Y384080D01*
X369062Y384302D01*
X368967Y384556D01*
X368681Y385127D01*
X368332Y385762D01*
X367919Y386398D01*
X367411Y387001D01*
X367125Y387255D01*
X366839Y387509D01*
X366808D01*
X366776Y387572D01*
X366681Y387636D01*
X366554Y387699D01*
X366395Y387794D01*
X366204Y387890D01*
X365728Y388144D01*
X365125Y388366D01*
X364426Y388557D01*
X363633Y388684D01*
X362744Y388747D01*
X362458D01*
X362267Y388715D01*
X362045D01*
X361759Y388684D01*
X361442Y388620D01*
X361093Y388588D01*
X360363Y388429D01*
X359569Y388176D01*
X358775Y387826D01*
X358394Y387636D01*
X358013Y387382D01*
X357981D01*
X357918Y387318D01*
X357822Y387255D01*
X357696Y387128D01*
X357378Y386842D01*
X356997Y386429D01*
X356553Y385921D01*
X356108Y385286D01*
X355695Y384588D01*
X355378Y383762D01*
Y383731D01*
X355346Y383667D01*
X355314Y383540D01*
X355251Y383381D01*
X355187Y383159D01*
X355124Y382905D01*
X355060Y382619D01*
X354997Y382333D01*
X354870Y381603D01*
X354743Y380810D01*
X354647Y379952D01*
X354616Y379063D01*
Y379031D01*
Y378936D01*
Y378778D01*
Y378555D01*
X354647Y378270D01*
X354679Y377952D01*
Y377603D01*
X354743Y377222D01*
X354838Y376365D01*
X354997Y375476D01*
X355219Y374523D01*
X355505Y373634D01*
Y373602D01*
X355536Y373539D01*
X355600Y373412D01*
X355695Y373253D01*
X355790Y373063D01*
X355886Y372840D01*
X356203Y372332D01*
X356616Y371761D01*
X357092Y371189D01*
X357664Y370649D01*
X358330Y370173D01*
X358362D01*
X358426Y370110D01*
X358521Y370078D01*
X358680Y369983D01*
X358839Y369919D01*
X359061Y369824D01*
X359569Y369602D01*
X360204Y369380D01*
X360902Y369221D01*
X361664Y369094D01*
X362490Y369030D01*
X362744D01*
X362934Y369062D01*
X363188Y369094D01*
X363442Y369126D01*
X363760Y369157D01*
X364077Y369221D01*
X364808Y369411D01*
X365569Y369697D01*
X365982Y369856D01*
X366363Y370078D01*
X366744Y370300D01*
X367094Y370586D01*
X367125Y370618D01*
X367189Y370649D01*
X367284Y370745D01*
X367411Y370872D01*
X367538Y371031D01*
X367729Y371253D01*
X367919Y371475D01*
X368110Y371761D01*
X368332Y372047D01*
X368554Y372396D01*
X368745Y372777D01*
X368967Y373190D01*
X369157Y373666D01*
X369348Y374142D01*
X369506Y374650D01*
X369665Y375221D01*
X372904Y374396D01*
Y374364D01*
X372840Y374237D01*
X372777Y374015D01*
X372713Y373729D01*
X372586Y373412D01*
X372427Y373031D01*
X372269Y372618D01*
X372047Y372142D01*
X371824Y371665D01*
X371539Y371157D01*
X371253Y370681D01*
X370904Y370173D01*
X370554Y369665D01*
X370141Y369189D01*
X369697Y368745D01*
X369221Y368332D01*
X369189Y368300D01*
X369094Y368237D01*
X368967Y368141D01*
X368745Y368014D01*
X368490Y367855D01*
X368173Y367665D01*
X367824Y367506D01*
X367443Y367316D01*
X366967Y367094D01*
X366490Y366935D01*
X365951Y366744D01*
X365379Y366586D01*
X364776Y366459D01*
X364141Y366363D01*
X363474Y366300D01*
X362775Y366268D01*
X362394D01*
X362109Y366300D01*
X361791Y366331D01*
X361379Y366363D01*
X360966Y366395D01*
X360490Y366459D01*
X359473Y366649D01*
X358394Y366935D01*
X357854Y367125D01*
X357314Y367347D01*
X356806Y367570D01*
X356330Y367855D01*
X356298Y367887D01*
X356235Y367919D01*
X356108Y368014D01*
X355918Y368173D01*
X355727Y368332D01*
X355473Y368522D01*
X355219Y368776D01*
X354933Y369062D01*
X354616Y369348D01*
X354330Y369697D01*
X354012Y370078D01*
X353695Y370522D01*
X353377Y370967D01*
X353092Y371443D01*
X352806Y371983D01*
X352552Y372523D01*
Y372555D01*
X352489Y372650D01*
X352425Y372840D01*
X352361Y373063D01*
X352266Y373348D01*
X352139Y373666D01*
X352044Y374047D01*
X351917Y374491D01*
X351790Y374967D01*
X351695Y375476D01*
X351568Y376015D01*
X351473Y376555D01*
X351345Y377793D01*
X351282Y379063D01*
Y379095D01*
Y379222D01*
Y379444D01*
X351314Y379698D01*
Y380047D01*
X351345Y380429D01*
X351409Y380841D01*
X351473Y381317D01*
X351536Y381825D01*
X351631Y382365D01*
X351885Y383476D01*
X352234Y384588D01*
X352457Y385159D01*
X352711Y385699D01*
X352743Y385731D01*
X352774Y385826D01*
X352869Y385985D01*
X352996Y386175D01*
X353124Y386398D01*
X353314Y386683D01*
X353536Y386969D01*
X353790Y387318D01*
X354362Y388017D01*
X355092Y388715D01*
X355918Y389414D01*
X356394Y389731D01*
X356870Y390017D01*
X356902Y390049D01*
X356997Y390080D01*
X357156Y390144D01*
X357346Y390239D01*
X357600Y390366D01*
X357886Y390493D01*
X358235Y390620D01*
X358616Y390779D01*
X359061Y390906D01*
X359505Y391033D01*
X360521Y391287D01*
X361632Y391446D01*
X362204Y391509D01*
X363157D01*
X363410Y391478D01*
D02*
G37*
G36*
X299879Y387668D02*
X296894D01*
Y391096D01*
X299879D01*
Y387668D01*
D02*
G37*
G36*
X313341Y384715D02*
X313754Y384683D01*
X314198Y384588D01*
X314706Y384492D01*
X315214Y384334D01*
X315722Y384143D01*
X315786Y384112D01*
X315944Y384048D01*
X316166Y383921D01*
X316484Y383731D01*
X316801Y383540D01*
X317119Y383286D01*
X317437Y382968D01*
X317722Y382651D01*
X317754Y382619D01*
X317817Y382492D01*
X317945Y382302D01*
X318103Y382016D01*
X318230Y381698D01*
X318389Y381317D01*
X318516Y380905D01*
X318643Y380429D01*
Y380397D01*
X318675Y380270D01*
X318706Y380047D01*
X318738Y379762D01*
X318770Y379349D01*
X318802Y378873D01*
X318834Y378270D01*
Y377539D01*
Y366681D01*
X315849D01*
Y377412D01*
Y377444D01*
Y377508D01*
Y377571D01*
Y377698D01*
X315817Y378047D01*
Y378428D01*
X315754Y378873D01*
X315690Y379317D01*
X315595Y379730D01*
X315468Y380111D01*
Y380143D01*
X315404Y380270D01*
X315309Y380429D01*
X315182Y380651D01*
X315023Y380873D01*
X314801Y381127D01*
X314547Y381349D01*
X314230Y381572D01*
X314198Y381603D01*
X314071Y381667D01*
X313881Y381762D01*
X313626Y381857D01*
X313341Y381953D01*
X312992Y382048D01*
X312579Y382111D01*
X312166Y382143D01*
X311975D01*
X311849Y382111D01*
X311467Y382080D01*
X311023Y381984D01*
X310515Y381857D01*
X309944Y381635D01*
X309372Y381317D01*
X308832Y380905D01*
X308769Y380841D01*
X308705Y380778D01*
X308610Y380651D01*
X308515Y380524D01*
X308388Y380333D01*
X308293Y380143D01*
X308165Y379889D01*
X308039Y379571D01*
X307911Y379254D01*
X307785Y378873D01*
X307689Y378460D01*
X307594Y377984D01*
X307530Y377476D01*
X307499Y376904D01*
X307467Y376301D01*
Y366681D01*
X304482D01*
Y384366D01*
X307181D01*
Y381825D01*
X307213Y381857D01*
X307276Y381953D01*
X307372Y382111D01*
X307530Y382270D01*
X307753Y382492D01*
X307975Y382746D01*
X308261Y383000D01*
X308610Y383286D01*
X308991Y383572D01*
X309404Y383826D01*
X309848Y384080D01*
X310356Y384302D01*
X310896Y384492D01*
X311467Y384619D01*
X312103Y384715D01*
X312769Y384747D01*
X313055D01*
X313341Y384715D01*
D02*
G37*
G36*
X421037Y366681D02*
X418243D01*
Y368935D01*
X418211Y368903D01*
X418179Y368808D01*
X418052Y368681D01*
X417925Y368522D01*
X417766Y368332D01*
X417544Y368110D01*
X417290Y367855D01*
X417005Y367633D01*
X416655Y367379D01*
X416306Y367125D01*
X415893Y366903D01*
X415449Y366712D01*
X414972Y366554D01*
X414433Y366427D01*
X413893Y366331D01*
X413290Y366300D01*
X413068D01*
X412940Y366331D01*
X412750D01*
X412528Y366363D01*
X412020Y366459D01*
X411417Y366586D01*
X410750Y366776D01*
X410051Y367062D01*
X409384Y367443D01*
X409353D01*
X409321Y367506D01*
X409226Y367570D01*
X409099Y367665D01*
X408781Y367919D01*
X408400Y368300D01*
X407956Y368745D01*
X407511Y369316D01*
X407067Y369951D01*
X406654Y370681D01*
Y370713D01*
X406622Y370776D01*
X406559Y370904D01*
X406495Y371062D01*
X406432Y371253D01*
X406368Y371475D01*
X406273Y371761D01*
X406178Y372078D01*
X406019Y372777D01*
X405860Y373602D01*
X405733Y374491D01*
X405701Y375476D01*
Y375507D01*
Y375602D01*
Y375729D01*
Y375920D01*
X405733Y376174D01*
Y376428D01*
X405765Y376745D01*
X405797Y377063D01*
X405924Y377825D01*
X406051Y378619D01*
X406273Y379444D01*
X406559Y380270D01*
Y380302D01*
X406590Y380365D01*
X406654Y380492D01*
X406717Y380619D01*
X406813Y380810D01*
X406940Y381000D01*
X407225Y381508D01*
X407607Y382016D01*
X408051Y382588D01*
X408591Y383096D01*
X409194Y383572D01*
X409226D01*
X409289Y383635D01*
X409384Y383667D01*
X409511Y383762D01*
X409670Y383857D01*
X409861Y383953D01*
X410369Y384175D01*
X410940Y384366D01*
X411607Y384556D01*
X412369Y384683D01*
X413163Y384747D01*
X413417D01*
X413734Y384715D01*
X414115Y384651D01*
X414560Y384588D01*
X415036Y384461D01*
X415512Y384270D01*
X415989Y384048D01*
X416052Y384016D01*
X416211Y383921D01*
X416433Y383794D01*
X416719Y383572D01*
X417036Y383318D01*
X417385Y383032D01*
X417735Y382683D01*
X418052Y382302D01*
Y391096D01*
X421037D01*
Y366681D01*
D02*
G37*
G36*
X138087Y349898D02*
X138163D01*
X138354Y349872D01*
X138570Y349834D01*
X138798Y349771D01*
X139040Y349695D01*
X139268Y349593D01*
X139281D01*
X139294Y349580D01*
X139370Y349529D01*
X139471Y349466D01*
X139611Y349364D01*
X139763Y349225D01*
X139929Y349072D01*
X140094Y348894D01*
X140246Y348679D01*
Y348666D01*
X140259Y348653D01*
X140284Y348615D01*
X140310Y348577D01*
X140373Y348450D01*
X140462Y348272D01*
X140564Y348056D01*
X140665Y347815D01*
X140754Y347523D01*
X140843Y347218D01*
Y347205D01*
X140856Y347180D01*
X140868Y347129D01*
X140881Y347066D01*
X140894Y346977D01*
X140919Y346875D01*
X140932Y346748D01*
X140957Y346608D01*
X140983Y346456D01*
X140995Y346278D01*
X141021Y346100D01*
X141033Y345885D01*
X141046Y345669D01*
X141059Y345440D01*
X141072Y345186D01*
Y344919D01*
Y344894D01*
Y344843D01*
Y344754D01*
Y344627D01*
X141059Y344487D01*
Y344322D01*
X141046Y344132D01*
X141033Y343929D01*
X140983Y343484D01*
X140919Y343014D01*
X140830Y342557D01*
X140779Y342341D01*
X140716Y342138D01*
Y342125D01*
X140703Y342087D01*
X140678Y342036D01*
X140653Y341960D01*
X140614Y341871D01*
X140564Y341770D01*
X140449Y341541D01*
X140297Y341274D01*
X140119Y341008D01*
X139903Y340741D01*
X139649Y340512D01*
X139636D01*
X139624Y340487D01*
X139573Y340462D01*
X139522Y340424D01*
X139459Y340385D01*
X139370Y340335D01*
X139281Y340284D01*
X139167Y340233D01*
X138913Y340119D01*
X138608Y340030D01*
X138265Y339966D01*
X138074Y339954D01*
X137884Y339941D01*
X137820D01*
X137744Y339954D01*
X137655D01*
X137528Y339966D01*
X137401Y339992D01*
X137249Y340030D01*
X137084Y340068D01*
X136906Y340119D01*
X136728Y340182D01*
X136538Y340271D01*
X136347Y340360D01*
X136169Y340474D01*
X135992Y340614D01*
X135827Y340766D01*
X135661Y340944D01*
X135649Y340957D01*
X135623Y341008D01*
X135573Y341071D01*
X135509Y341173D01*
X135445Y341312D01*
X135357Y341478D01*
X135280Y341668D01*
X135191Y341897D01*
X135103Y342163D01*
X135014Y342455D01*
X134925Y342773D01*
X134861Y343141D01*
X134798Y343535D01*
X134747Y343954D01*
X134722Y344424D01*
X134709Y344919D01*
Y344945D01*
Y344995D01*
Y345084D01*
Y345211D01*
X134722Y345351D01*
X134734Y345516D01*
Y345707D01*
X134760Y345910D01*
X134798Y346354D01*
X134861Y346824D01*
X134950Y347281D01*
X135001Y347497D01*
X135064Y347701D01*
Y347713D01*
X135077Y347751D01*
X135103Y347802D01*
X135128Y347878D01*
X135166Y347967D01*
X135217Y348069D01*
X135331Y348310D01*
X135484Y348564D01*
X135661Y348844D01*
X135877Y349110D01*
X136119Y349339D01*
X136131Y349352D01*
X136157Y349364D01*
X136195Y349390D01*
X136246Y349428D01*
X136309Y349466D01*
X136398Y349517D01*
X136487Y349567D01*
X136601Y349631D01*
X136855Y349733D01*
X137160Y349822D01*
X137503Y349885D01*
X137693Y349910D01*
X138011D01*
X138087Y349898D01*
D02*
G37*
G36*
X120294Y348717D02*
X114541D01*
Y345745D01*
X119926D01*
Y344589D01*
X114541D01*
Y341262D01*
X120523D01*
Y340106D01*
X113246D01*
Y349872D01*
X120294D01*
Y348717D01*
D02*
G37*
G36*
X175450Y347320D02*
X175654Y347307D01*
X175882Y347281D01*
X176136Y347243D01*
X176365Y347193D01*
X176593Y347116D01*
X176606D01*
X176619Y347104D01*
X176682Y347078D01*
X176784Y347028D01*
X176911Y346964D01*
X177051Y346888D01*
X177190Y346799D01*
X177317Y346685D01*
X177432Y346570D01*
X177444Y346558D01*
X177470Y346520D01*
X177521Y346443D01*
X177584Y346354D01*
X177648Y346240D01*
X177711Y346100D01*
X177762Y345948D01*
X177813Y345770D01*
Y345757D01*
X177825Y345707D01*
X177838Y345630D01*
X177851Y345516D01*
Y345364D01*
X177864Y345173D01*
X177876Y344945D01*
Y344665D01*
Y343065D01*
Y343052D01*
Y342989D01*
Y342913D01*
Y342798D01*
Y342671D01*
Y342519D01*
Y342354D01*
X177889Y342176D01*
Y341820D01*
X177902Y341478D01*
X177914Y341312D01*
Y341173D01*
X177927Y341059D01*
X177940Y340957D01*
Y340932D01*
X177952Y340881D01*
X177978Y340792D01*
X178003Y340690D01*
X178054Y340550D01*
X178105Y340411D01*
X178168Y340258D01*
X178244Y340106D01*
X176987D01*
X176975Y340119D01*
X176962Y340169D01*
X176924Y340246D01*
X176898Y340360D01*
X176847Y340487D01*
X176822Y340639D01*
X176784Y340804D01*
X176759Y340995D01*
X176746D01*
X176733Y340970D01*
X176695Y340944D01*
X176644Y340906D01*
X176517Y340804D01*
X176339Y340677D01*
X176149Y340550D01*
X175933Y340411D01*
X175692Y340284D01*
X175463Y340182D01*
X175450D01*
X175438Y340169D01*
X175400Y340157D01*
X175362Y340144D01*
X175235Y340106D01*
X175070Y340068D01*
X174879Y340030D01*
X174650Y339992D01*
X174409Y339966D01*
X174155Y339954D01*
X174041D01*
X173965Y339966D01*
X173863D01*
X173749Y339979D01*
X173495Y340030D01*
X173203Y340093D01*
X172910Y340195D01*
X172618Y340335D01*
X172491Y340411D01*
X172364Y340512D01*
X172352Y340525D01*
X172339Y340538D01*
X172263Y340614D01*
X172174Y340741D01*
X172060Y340906D01*
X171945Y341122D01*
X171844Y341363D01*
X171768Y341643D01*
X171755Y341795D01*
X171742Y341960D01*
Y341986D01*
Y342049D01*
X171755Y342151D01*
X171768Y342278D01*
X171793Y342417D01*
X171844Y342583D01*
X171894Y342748D01*
X171971Y342913D01*
X171983Y342938D01*
X172009Y342989D01*
X172072Y343065D01*
X172136Y343167D01*
X172225Y343268D01*
X172339Y343383D01*
X172453Y343497D01*
X172593Y343599D01*
X172606Y343611D01*
X172656Y343637D01*
X172745Y343687D01*
X172847Y343751D01*
X172974Y343814D01*
X173114Y343878D01*
X173279Y343941D01*
X173457Y343992D01*
X173469D01*
X173520Y344005D01*
X173609Y344030D01*
X173723Y344043D01*
X173876Y344081D01*
X174053Y344106D01*
X174269Y344132D01*
X174523Y344170D01*
X174536D01*
X174587Y344183D01*
X174663D01*
X174765Y344208D01*
X174879Y344221D01*
X175019Y344234D01*
X175171Y344259D01*
X175336Y344284D01*
X175679Y344348D01*
X176035Y344424D01*
X176365Y344500D01*
X176517Y344551D01*
X176657Y344589D01*
Y344602D01*
Y344627D01*
Y344665D01*
X176670Y344716D01*
Y344818D01*
Y344869D01*
Y344894D01*
Y344907D01*
Y344932D01*
Y344970D01*
Y345008D01*
X176657Y345148D01*
X176632Y345300D01*
X176581Y345478D01*
X176530Y345643D01*
X176441Y345808D01*
X176327Y345935D01*
X176301Y345948D01*
X176238Y345999D01*
X176136Y346062D01*
X175984Y346138D01*
X175781Y346215D01*
X175552Y346278D01*
X175273Y346329D01*
X174955Y346342D01*
X174816D01*
X174663Y346329D01*
X174485Y346304D01*
X174269Y346265D01*
X174066Y346215D01*
X173863Y346138D01*
X173698Y346037D01*
X173685Y346024D01*
X173634Y345986D01*
X173558Y345910D01*
X173482Y345796D01*
X173380Y345656D01*
X173291Y345478D01*
X173190Y345249D01*
X173114Y344995D01*
X171945Y345161D01*
Y345173D01*
X171958Y345199D01*
Y345237D01*
X171971Y345288D01*
X172009Y345427D01*
X172072Y345592D01*
X172136Y345783D01*
X172225Y345986D01*
X172339Y346189D01*
X172466Y346367D01*
X172479Y346393D01*
X172530Y346443D01*
X172618Y346520D01*
X172733Y346634D01*
X172885Y346748D01*
X173063Y346862D01*
X173279Y346977D01*
X173520Y347078D01*
X173533D01*
X173558Y347091D01*
X173596Y347104D01*
X173647Y347116D01*
X173711Y347142D01*
X173787Y347155D01*
X173990Y347205D01*
X174219Y347256D01*
X174498Y347294D01*
X174803Y347320D01*
X175133Y347332D01*
X175362D01*
X175450Y347320D01*
D02*
G37*
G36*
X228257Y349898D02*
X228333D01*
X228524Y349872D01*
X228740Y349834D01*
X228968Y349771D01*
X229210Y349695D01*
X229438Y349593D01*
X229451D01*
X229464Y349580D01*
X229540Y349529D01*
X229641Y349466D01*
X229781Y349364D01*
X229933Y349225D01*
X230099Y349072D01*
X230264Y348894D01*
X230416Y348679D01*
Y348666D01*
X230429Y348653D01*
X230454Y348615D01*
X230480Y348577D01*
X230543Y348450D01*
X230632Y348272D01*
X230734Y348056D01*
X230835Y347815D01*
X230924Y347523D01*
X231013Y347218D01*
Y347205D01*
X231026Y347180D01*
X231038Y347129D01*
X231051Y347066D01*
X231064Y346977D01*
X231089Y346875D01*
X231102Y346748D01*
X231127Y346608D01*
X231153Y346456D01*
X231165Y346278D01*
X231191Y346100D01*
X231203Y345885D01*
X231216Y345669D01*
X231229Y345440D01*
X231242Y345186D01*
Y344919D01*
Y344894D01*
Y344843D01*
Y344754D01*
Y344627D01*
X231229Y344487D01*
Y344322D01*
X231216Y344132D01*
X231203Y343929D01*
X231153Y343484D01*
X231089Y343014D01*
X231000Y342557D01*
X230949Y342341D01*
X230886Y342138D01*
Y342125D01*
X230873Y342087D01*
X230848Y342036D01*
X230823Y341960D01*
X230784Y341871D01*
X230734Y341770D01*
X230619Y341541D01*
X230467Y341274D01*
X230289Y341008D01*
X230073Y340741D01*
X229819Y340512D01*
X229806D01*
X229794Y340487D01*
X229743Y340462D01*
X229692Y340424D01*
X229629Y340385D01*
X229540Y340335D01*
X229451Y340284D01*
X229337Y340233D01*
X229083Y340119D01*
X228778Y340030D01*
X228435Y339966D01*
X228244Y339954D01*
X228054Y339941D01*
X227990D01*
X227914Y339954D01*
X227825D01*
X227698Y339966D01*
X227571Y339992D01*
X227419Y340030D01*
X227254Y340068D01*
X227076Y340119D01*
X226898Y340182D01*
X226708Y340271D01*
X226517Y340360D01*
X226339Y340474D01*
X226162Y340614D01*
X225996Y340766D01*
X225831Y340944D01*
X225819Y340957D01*
X225793Y341008D01*
X225742Y341071D01*
X225679Y341173D01*
X225616Y341312D01*
X225527Y341478D01*
X225450Y341668D01*
X225361Y341897D01*
X225273Y342163D01*
X225184Y342455D01*
X225095Y342773D01*
X225031Y343141D01*
X224968Y343535D01*
X224917Y343954D01*
X224892Y344424D01*
X224879Y344919D01*
Y344945D01*
Y344995D01*
Y345084D01*
Y345211D01*
X224892Y345351D01*
X224904Y345516D01*
Y345707D01*
X224930Y345910D01*
X224968Y346354D01*
X225031Y346824D01*
X225120Y347281D01*
X225171Y347497D01*
X225235Y347701D01*
Y347713D01*
X225247Y347751D01*
X225273Y347802D01*
X225298Y347878D01*
X225336Y347967D01*
X225387Y348069D01*
X225501Y348310D01*
X225654Y348564D01*
X225831Y348844D01*
X226047Y349110D01*
X226289Y349339D01*
X226301Y349352D01*
X226327Y349364D01*
X226365Y349390D01*
X226416Y349428D01*
X226479Y349466D01*
X226568Y349517D01*
X226657Y349567D01*
X226771Y349631D01*
X227025Y349733D01*
X227330Y349822D01*
X227673Y349885D01*
X227863Y349910D01*
X228181D01*
X228257Y349898D01*
D02*
G37*
G36*
X108039Y349860D02*
X108153D01*
X108293Y349847D01*
X108445Y349834D01*
X108763Y349809D01*
X109093Y349758D01*
X109410Y349695D01*
X109563Y349656D01*
X109690Y349606D01*
X109703D01*
X109715Y349593D01*
X109753Y349580D01*
X109804Y349555D01*
X109931Y349491D01*
X110084Y349390D01*
X110261Y349263D01*
X110439Y349098D01*
X110617Y348894D01*
X110782Y348666D01*
Y348653D01*
X110795Y348640D01*
X110820Y348602D01*
X110846Y348551D01*
X110909Y348412D01*
X110985Y348234D01*
X111061Y348018D01*
X111125Y347764D01*
X111176Y347485D01*
X111188Y347193D01*
Y347180D01*
Y347142D01*
Y347091D01*
X111176Y347015D01*
X111163Y346926D01*
X111150Y346824D01*
X111100Y346583D01*
X111023Y346304D01*
X110909Y346012D01*
X110833Y345872D01*
X110744Y345719D01*
X110630Y345580D01*
X110515Y345440D01*
X110503Y345427D01*
X110490Y345415D01*
X110439Y345377D01*
X110388Y345326D01*
X110312Y345275D01*
X110223Y345211D01*
X110122Y345135D01*
X110007Y345059D01*
X109868Y344983D01*
X109715Y344907D01*
X109537Y344830D01*
X109347Y344754D01*
X109144Y344691D01*
X108928Y344627D01*
X108687Y344576D01*
X108433Y344538D01*
X108458Y344526D01*
X108521Y344500D01*
X108610Y344449D01*
X108725Y344386D01*
X108979Y344221D01*
X109093Y344132D01*
X109207Y344043D01*
X109220D01*
X109233Y344018D01*
X109309Y343954D01*
X109410Y343840D01*
X109563Y343687D01*
X109728Y343510D01*
X109906Y343281D01*
X110096Y343027D01*
X110287Y342748D01*
X111976Y340106D01*
X110350D01*
X109068Y342125D01*
Y342138D01*
X109042Y342163D01*
X109017Y342214D01*
X108979Y342265D01*
X108928Y342341D01*
X108864Y342430D01*
X108737Y342621D01*
X108585Y342836D01*
X108433Y343052D01*
X108280Y343268D01*
X108128Y343459D01*
X108115Y343484D01*
X108064Y343535D01*
X108001Y343624D01*
X107912Y343713D01*
X107810Y343827D01*
X107696Y343941D01*
X107582Y344030D01*
X107467Y344119D01*
X107455Y344132D01*
X107417Y344145D01*
X107366Y344183D01*
X107290Y344221D01*
X107201Y344272D01*
X107099Y344310D01*
X106883Y344386D01*
X106870D01*
X106845Y344399D01*
X106794D01*
X106718Y344411D01*
X106616Y344424D01*
X106489D01*
X106350Y344437D01*
X104673D01*
Y340106D01*
X103378D01*
Y349872D01*
X107925D01*
X108039Y349860D01*
D02*
G37*
G36*
X286798Y384715D02*
X287211Y384683D01*
X287655Y384588D01*
X288163Y384492D01*
X288671Y384334D01*
X289179Y384143D01*
X289242Y384112D01*
X289401Y384048D01*
X289624Y383921D01*
X289941Y383731D01*
X290259Y383540D01*
X290576Y383286D01*
X290893Y382968D01*
X291179Y382651D01*
X291211Y382619D01*
X291275Y382492D01*
X291402Y382302D01*
X291560Y382016D01*
X291687Y381698D01*
X291846Y381317D01*
X291973Y380905D01*
X292100Y380429D01*
Y380397D01*
X292132Y380270D01*
X292164Y380047D01*
X292195Y379762D01*
X292227Y379349D01*
X292259Y378873D01*
X292290Y378270D01*
Y377539D01*
Y366681D01*
X289306D01*
Y377412D01*
Y377444D01*
Y377508D01*
Y377571D01*
Y377698D01*
X289274Y378047D01*
Y378428D01*
X289211Y378873D01*
X289147Y379317D01*
X289052Y379730D01*
X288925Y380111D01*
Y380143D01*
X288862Y380270D01*
X288766Y380429D01*
X288639Y380651D01*
X288480Y380873D01*
X288258Y381127D01*
X288004Y381349D01*
X287687Y381572D01*
X287655Y381603D01*
X287528Y381667D01*
X287337Y381762D01*
X287083Y381857D01*
X286798Y381953D01*
X286448Y382048D01*
X286036Y382111D01*
X285623Y382143D01*
X285432D01*
X285306Y382111D01*
X284925Y382080D01*
X284480Y381984D01*
X283972Y381857D01*
X283400Y381635D01*
X282829Y381317D01*
X282289Y380905D01*
X282226Y380841D01*
X282162Y380778D01*
X282067Y380651D01*
X281972Y380524D01*
X281845Y380333D01*
X281749Y380143D01*
X281623Y379889D01*
X281495Y379571D01*
X281369Y379254D01*
X281241Y378873D01*
X281146Y378460D01*
X281051Y377984D01*
X280987Y377476D01*
X280956Y376904D01*
X280924Y376301D01*
Y366681D01*
X277939D01*
Y384366D01*
X280638D01*
Y381825D01*
X280670Y381857D01*
X280734Y381953D01*
X280829Y382111D01*
X280987Y382270D01*
X281210Y382492D01*
X281432Y382746D01*
X281718Y383000D01*
X282067Y383286D01*
X282448Y383572D01*
X282861Y383826D01*
X283305Y384080D01*
X283813Y384302D01*
X284353Y384492D01*
X284925Y384619D01*
X285560Y384715D01*
X286226Y384747D01*
X286512D01*
X286798Y384715D01*
D02*
G37*
G36*
X238379Y382333D02*
X228822Y371126D01*
X226949Y369062D01*
X227044D01*
X227139Y369094D01*
X227457D01*
X227679Y369126D01*
X228187Y369157D01*
X228759Y369189D01*
X229394Y369221D01*
X230727Y369253D01*
X238919D01*
Y366681D01*
X223266D01*
Y369094D01*
X234506Y381984D01*
X234188D01*
X233839Y381953D01*
X233363D01*
X232854Y381921D01*
X232283D01*
X231712Y381889D01*
X223933D01*
Y384366D01*
X238379D01*
Y382333D01*
D02*
G37*
G36*
X255429D02*
X245872Y371126D01*
X243999Y369062D01*
X244094D01*
X244189Y369094D01*
X244507D01*
X244729Y369126D01*
X245237Y369157D01*
X245809Y369189D01*
X246444Y369221D01*
X247777Y369253D01*
X255968D01*
Y366681D01*
X240316D01*
Y369094D01*
X251555Y381984D01*
X251238D01*
X250889Y381953D01*
X250412D01*
X249904Y381921D01*
X249333D01*
X248761Y381889D01*
X240982D01*
Y384366D01*
X255429D01*
Y382333D01*
D02*
G37*
G36*
X213741Y384715D02*
X214027Y384683D01*
X214376Y384619D01*
X214789Y384556D01*
X215201Y384461D01*
X215646Y384334D01*
X216122Y384143D01*
X216598Y383953D01*
X217075Y383731D01*
X217583Y383445D01*
X218059Y383127D01*
X218503Y382746D01*
X218948Y382333D01*
X218980Y382302D01*
X219043Y382206D01*
X219170Y382080D01*
X219297Y381889D01*
X219456Y381635D01*
X219646Y381349D01*
X219869Y381000D01*
X220091Y380587D01*
X220282Y380111D01*
X220504Y379603D01*
X220694Y379063D01*
X220853Y378460D01*
X220980Y377793D01*
X221107Y377095D01*
X221171Y376333D01*
X221202Y375539D01*
Y375476D01*
Y375349D01*
Y375094D01*
X221171Y374745D01*
X207994D01*
Y374714D01*
Y374618D01*
X208026Y374459D01*
X208058Y374269D01*
X208090Y374015D01*
X208121Y373729D01*
X208248Y373094D01*
X208470Y372364D01*
X208756Y371634D01*
X209137Y370935D01*
X209359Y370618D01*
X209613Y370300D01*
X209645Y370269D01*
X209677Y370237D01*
X209772Y370173D01*
X209867Y370078D01*
X210217Y369824D01*
X210630Y369538D01*
X211169Y369253D01*
X211804Y369030D01*
X212535Y368840D01*
X212915Y368808D01*
X213328Y368776D01*
X213614D01*
X213900Y368808D01*
X214312Y368871D01*
X214725Y368998D01*
X215201Y369126D01*
X215678Y369348D01*
X216122Y369633D01*
X216186Y369665D01*
X216313Y369792D01*
X216535Y370014D01*
X216789Y370300D01*
X217075Y370681D01*
X217392Y371189D01*
X217710Y371761D01*
X217964Y372427D01*
X221075Y372015D01*
Y371983D01*
X221043Y371888D01*
X221012Y371761D01*
X220917Y371570D01*
X220853Y371348D01*
X220726Y371062D01*
X220472Y370459D01*
X220091Y369792D01*
X219615Y369094D01*
X219043Y368395D01*
X218377Y367792D01*
X218345D01*
X218281Y367729D01*
X218186Y367665D01*
X218027Y367570D01*
X217837Y367443D01*
X217583Y367316D01*
X217329Y367189D01*
X217011Y367062D01*
X216662Y366903D01*
X216281Y366776D01*
X215868Y366649D01*
X215424Y366522D01*
X214440Y366363D01*
X213900Y366331D01*
X213328Y366300D01*
X213169D01*
X212947Y366331D01*
X212693D01*
X212376Y366363D01*
X211995Y366427D01*
X211550Y366490D01*
X211106Y366586D01*
X210630Y366712D01*
X210121Y366871D01*
X209613Y367062D01*
X209105Y367316D01*
X208598Y367570D01*
X208090Y367887D01*
X207613Y368268D01*
X207169Y368681D01*
X207137Y368713D01*
X207073Y368808D01*
X206947Y368935D01*
X206819Y369126D01*
X206661Y369380D01*
X206470Y369665D01*
X206248Y370014D01*
X206057Y370396D01*
X205835Y370872D01*
X205613Y371348D01*
X205422Y371920D01*
X205264Y372491D01*
X205137Y373158D01*
X205010Y373825D01*
X204946Y374555D01*
X204914Y375349D01*
Y375412D01*
Y375539D01*
X204946Y375793D01*
Y376079D01*
X204978Y376460D01*
X205042Y376904D01*
X205105Y377380D01*
X205200Y377888D01*
X205327Y378428D01*
X205486Y379000D01*
X205645Y379571D01*
X205867Y380143D01*
X206153Y380714D01*
X206439Y381286D01*
X206788Y381794D01*
X207201Y382270D01*
X207232Y382302D01*
X207296Y382365D01*
X207423Y382492D01*
X207613Y382651D01*
X207836Y382841D01*
X208121Y383064D01*
X208439Y383286D01*
X208788Y383508D01*
X209201Y383731D01*
X209645Y383953D01*
X210153Y384175D01*
X210661Y384366D01*
X211233Y384524D01*
X211836Y384651D01*
X212471Y384715D01*
X213138Y384747D01*
X213487D01*
X213741Y384715D01*
D02*
G37*
G36*
X331248D02*
X331534Y384683D01*
X331883Y384619D01*
X332295Y384556D01*
X332708Y384461D01*
X333153Y384334D01*
X333629Y384143D01*
X334105Y383953D01*
X334581Y383731D01*
X335089Y383445D01*
X335566Y383127D01*
X336010Y382746D01*
X336455Y382333D01*
X336487Y382302D01*
X336550Y382206D01*
X336677Y382080D01*
X336804Y381889D01*
X336963Y381635D01*
X337153Y381349D01*
X337375Y381000D01*
X337598Y380587D01*
X337788Y380111D01*
X338010Y379603D01*
X338201Y379063D01*
X338360Y378460D01*
X338487Y377793D01*
X338614Y377095D01*
X338677Y376333D01*
X338709Y375539D01*
Y375476D01*
Y375349D01*
Y375094D01*
X338677Y374745D01*
X325501D01*
Y374714D01*
Y374618D01*
X325533Y374459D01*
X325564Y374269D01*
X325596Y374015D01*
X325628Y373729D01*
X325755Y373094D01*
X325977Y372364D01*
X326263Y371634D01*
X326644Y370935D01*
X326866Y370618D01*
X327120Y370300D01*
X327152Y370269D01*
X327184Y370237D01*
X327279Y370173D01*
X327374Y370078D01*
X327724Y369824D01*
X328136Y369538D01*
X328676Y369253D01*
X329311Y369030D01*
X330041Y368840D01*
X330422Y368808D01*
X330835Y368776D01*
X331121D01*
X331407Y368808D01*
X331819Y368871D01*
X332232Y368998D01*
X332708Y369126D01*
X333185Y369348D01*
X333629Y369633D01*
X333693Y369665D01*
X333820Y369792D01*
X334042Y370014D01*
X334296Y370300D01*
X334581Y370681D01*
X334899Y371189D01*
X335216Y371761D01*
X335471Y372427D01*
X338582Y372015D01*
Y371983D01*
X338550Y371888D01*
X338518Y371761D01*
X338423Y371570D01*
X338360Y371348D01*
X338233Y371062D01*
X337979Y370459D01*
X337598Y369792D01*
X337122Y369094D01*
X336550Y368395D01*
X335883Y367792D01*
X335852D01*
X335788Y367729D01*
X335693Y367665D01*
X335534Y367570D01*
X335344Y367443D01*
X335089Y367316D01*
X334836Y367189D01*
X334518Y367062D01*
X334169Y366903D01*
X333788Y366776D01*
X333375Y366649D01*
X332930Y366522D01*
X331946Y366363D01*
X331407Y366331D01*
X330835Y366300D01*
X330676D01*
X330454Y366331D01*
X330200D01*
X329883Y366363D01*
X329501Y366427D01*
X329057Y366490D01*
X328613Y366586D01*
X328136Y366712D01*
X327628Y366871D01*
X327120Y367062D01*
X326612Y367316D01*
X326104Y367570D01*
X325596Y367887D01*
X325120Y368268D01*
X324675Y368681D01*
X324644Y368713D01*
X324580Y368808D01*
X324453Y368935D01*
X324326Y369126D01*
X324168Y369380D01*
X323977Y369665D01*
X323755Y370014D01*
X323564Y370396D01*
X323342Y370872D01*
X323120Y371348D01*
X322929Y371920D01*
X322771Y372491D01*
X322644Y373158D01*
X322517Y373825D01*
X322453Y374555D01*
X322421Y375349D01*
Y375412D01*
Y375539D01*
X322453Y375793D01*
Y376079D01*
X322485Y376460D01*
X322548Y376904D01*
X322612Y377380D01*
X322707Y377888D01*
X322834Y378428D01*
X322993Y379000D01*
X323152Y379571D01*
X323374Y380143D01*
X323660Y380714D01*
X323945Y381286D01*
X324295Y381794D01*
X324707Y382270D01*
X324739Y382302D01*
X324803Y382365D01*
X324930Y382492D01*
X325120Y382651D01*
X325342Y382841D01*
X325628Y383064D01*
X325946Y383286D01*
X326295Y383508D01*
X326707Y383731D01*
X327152Y383953D01*
X327660Y384175D01*
X328168Y384366D01*
X328740Y384524D01*
X329343Y384651D01*
X329978Y384715D01*
X330644Y384747D01*
X330994D01*
X331248Y384715D01*
D02*
G37*
G36*
X267240D02*
X267748Y384683D01*
X268319Y384619D01*
X268954Y384524D01*
X269526Y384397D01*
X270097Y384207D01*
X270129D01*
X270161Y384175D01*
X270319Y384112D01*
X270574Y383984D01*
X270891Y383826D01*
X271240Y383635D01*
X271590Y383413D01*
X271907Y383127D01*
X272193Y382841D01*
X272225Y382810D01*
X272288Y382715D01*
X272415Y382524D01*
X272574Y382302D01*
X272733Y382016D01*
X272891Y381667D01*
X273018Y381286D01*
X273145Y380841D01*
Y380810D01*
X273177Y380682D01*
X273209Y380492D01*
X273241Y380206D01*
Y379825D01*
X273272Y379349D01*
X273304Y378778D01*
Y378079D01*
Y374078D01*
Y374047D01*
Y373888D01*
Y373698D01*
Y373412D01*
Y373094D01*
Y372713D01*
Y372300D01*
X273336Y371856D01*
Y370967D01*
X273368Y370110D01*
X273399Y369697D01*
Y369348D01*
X273431Y369062D01*
X273463Y368808D01*
Y368745D01*
X273494Y368618D01*
X273558Y368395D01*
X273622Y368141D01*
X273748Y367792D01*
X273876Y367443D01*
X274034Y367062D01*
X274225Y366681D01*
X271082D01*
X271050Y366712D01*
X271018Y366839D01*
X270923Y367030D01*
X270859Y367316D01*
X270732Y367633D01*
X270669Y368014D01*
X270574Y368427D01*
X270510Y368903D01*
X270478D01*
X270446Y368840D01*
X270351Y368776D01*
X270224Y368681D01*
X269907Y368427D01*
X269462Y368110D01*
X268986Y367792D01*
X268446Y367443D01*
X267843Y367125D01*
X267271Y366871D01*
X267240D01*
X267208Y366839D01*
X267113Y366808D01*
X267017Y366776D01*
X266700Y366681D01*
X266287Y366586D01*
X265811Y366490D01*
X265240Y366395D01*
X264636Y366331D01*
X264001Y366300D01*
X263715D01*
X263525Y366331D01*
X263271D01*
X262985Y366363D01*
X262350Y366490D01*
X261620Y366649D01*
X260890Y366903D01*
X260159Y367252D01*
X259842Y367443D01*
X259524Y367697D01*
X259493Y367729D01*
X259461Y367760D01*
X259270Y367951D01*
X259048Y368268D01*
X258762Y368681D01*
X258477Y369221D01*
X258223Y369824D01*
X258032Y370522D01*
X258001Y370904D01*
X257969Y371316D01*
Y371380D01*
Y371539D01*
X258001Y371792D01*
X258032Y372110D01*
X258096Y372459D01*
X258223Y372872D01*
X258350Y373285D01*
X258540Y373698D01*
X258572Y373761D01*
X258636Y373888D01*
X258794Y374078D01*
X258953Y374333D01*
X259175Y374586D01*
X259461Y374872D01*
X259747Y375158D01*
X260096Y375412D01*
X260128Y375444D01*
X260255Y375507D01*
X260477Y375634D01*
X260731Y375793D01*
X261049Y375952D01*
X261398Y376110D01*
X261810Y376269D01*
X262255Y376396D01*
X262287D01*
X262414Y376428D01*
X262636Y376492D01*
X262922Y376523D01*
X263303Y376618D01*
X263747Y376682D01*
X264287Y376745D01*
X264922Y376841D01*
X264954D01*
X265081Y376872D01*
X265271D01*
X265525Y376936D01*
X265811Y376968D01*
X266160Y377000D01*
X266541Y377063D01*
X266954Y377127D01*
X267811Y377285D01*
X268700Y377476D01*
X269526Y377666D01*
X269907Y377793D01*
X270256Y377888D01*
Y377920D01*
Y377984D01*
Y378079D01*
X270288Y378206D01*
Y378460D01*
Y378587D01*
Y378651D01*
Y378682D01*
Y378746D01*
Y378841D01*
Y378936D01*
X270256Y379286D01*
X270193Y379666D01*
X270065Y380111D01*
X269939Y380524D01*
X269716Y380937D01*
X269431Y381254D01*
X269367Y381286D01*
X269208Y381413D01*
X268954Y381572D01*
X268573Y381762D01*
X268065Y381953D01*
X267494Y382111D01*
X266795Y382238D01*
X266001Y382270D01*
X265652D01*
X265271Y382238D01*
X264827Y382175D01*
X264287Y382080D01*
X263779Y381953D01*
X263271Y381762D01*
X262858Y381508D01*
X262826Y381476D01*
X262700Y381381D01*
X262509Y381190D01*
X262318Y380905D01*
X262064Y380555D01*
X261842Y380111D01*
X261588Y379539D01*
X261398Y378904D01*
X258477Y379317D01*
Y379349D01*
X258508Y379412D01*
Y379508D01*
X258540Y379635D01*
X258636Y379984D01*
X258794Y380397D01*
X258953Y380873D01*
X259175Y381381D01*
X259461Y381889D01*
X259778Y382333D01*
X259810Y382397D01*
X259937Y382524D01*
X260159Y382715D01*
X260445Y383000D01*
X260826Y383286D01*
X261271Y383572D01*
X261810Y383857D01*
X262414Y384112D01*
X262446D01*
X262509Y384143D01*
X262604Y384175D01*
X262731Y384207D01*
X262890Y384270D01*
X263081Y384302D01*
X263589Y384429D01*
X264160Y384556D01*
X264858Y384651D01*
X265620Y384715D01*
X266446Y384747D01*
X267017D01*
X267240Y384715D01*
D02*
G37*
G36*
X201105Y366681D02*
X197993D01*
Y387128D01*
X190849Y366681D01*
X187960D01*
X180912Y387477D01*
Y366681D01*
X177800D01*
Y391096D01*
X182626D01*
X188405Y373793D01*
Y373761D01*
X188436Y373698D01*
X188468Y373571D01*
X188531Y373412D01*
X188595Y373190D01*
X188690Y372967D01*
X188849Y372427D01*
X189039Y371856D01*
X189230Y371253D01*
X189421Y370681D01*
X189579Y370173D01*
X189611Y370237D01*
X189674Y370427D01*
X189770Y370745D01*
X189897Y371157D01*
X190087Y371729D01*
X190310Y372396D01*
X190564Y373190D01*
X190881Y374110D01*
X196755Y391096D01*
X201105D01*
Y366681D01*
D02*
G37*
G36*
X402495Y384683D02*
X402876Y384619D01*
X403352Y384492D01*
X403892Y384334D01*
X404431Y384080D01*
X405035Y383762D01*
X403987Y381000D01*
X403923Y381032D01*
X403797Y381095D01*
X403574Y381190D01*
X403288Y381317D01*
X402971Y381445D01*
X402590Y381540D01*
X402177Y381603D01*
X401764Y381635D01*
X401606D01*
X401415Y381603D01*
X401161Y381572D01*
X400907Y381476D01*
X400590Y381381D01*
X400304Y381222D01*
X399986Y381032D01*
X399955Y381000D01*
X399860Y380937D01*
X399733Y380778D01*
X399574Y380587D01*
X399383Y380365D01*
X399193Y380079D01*
X399034Y379762D01*
X398875Y379381D01*
Y379349D01*
X398843Y379317D01*
Y379222D01*
X398812Y379095D01*
X398717Y378778D01*
X398653Y378365D01*
X398558Y377825D01*
X398462Y377253D01*
X398431Y376587D01*
X398399Y375888D01*
Y366681D01*
X395415D01*
Y384366D01*
X398113D01*
Y381667D01*
X398145Y381730D01*
X398209Y381825D01*
X398272Y381953D01*
X398494Y382270D01*
X398717Y382651D01*
X399002Y383096D01*
X399320Y383508D01*
X399669Y383857D01*
X399986Y384143D01*
X400018Y384175D01*
X400145Y384239D01*
X400336Y384334D01*
X400558Y384461D01*
X400844Y384556D01*
X401193Y384651D01*
X401542Y384715D01*
X401923Y384747D01*
X402177D01*
X402495Y384683D01*
D02*
G37*
G36*
X299879Y366681D02*
X296894D01*
Y384366D01*
X299879D01*
Y366681D01*
D02*
G37*
G36*
X384747Y384715D02*
X385255Y384683D01*
X385826Y384619D01*
X386461Y384524D01*
X387033Y384397D01*
X387604Y384207D01*
X387636D01*
X387668Y384175D01*
X387826Y384112D01*
X388080Y383984D01*
X388398Y383826D01*
X388747Y383635D01*
X389096Y383413D01*
X389414Y383127D01*
X389700Y382841D01*
X389731Y382810D01*
X389795Y382715D01*
X389922Y382524D01*
X390080Y382302D01*
X390239Y382016D01*
X390398Y381667D01*
X390525Y381286D01*
X390652Y380841D01*
Y380810D01*
X390684Y380682D01*
X390715Y380492D01*
X390747Y380206D01*
Y379825D01*
X390779Y379349D01*
X390811Y378778D01*
Y378079D01*
Y374078D01*
Y374047D01*
Y373888D01*
Y373698D01*
Y373412D01*
Y373094D01*
Y372713D01*
Y372300D01*
X390843Y371856D01*
Y370967D01*
X390874Y370110D01*
X390906Y369697D01*
Y369348D01*
X390938Y369062D01*
X390970Y368808D01*
Y368745D01*
X391001Y368618D01*
X391065Y368395D01*
X391128Y368141D01*
X391255Y367792D01*
X391382Y367443D01*
X391541Y367062D01*
X391731Y366681D01*
X388588D01*
X388557Y366712D01*
X388525Y366839D01*
X388429Y367030D01*
X388366Y367316D01*
X388239Y367633D01*
X388176Y368014D01*
X388080Y368427D01*
X388017Y368903D01*
X387985D01*
X387953Y368840D01*
X387858Y368776D01*
X387731Y368681D01*
X387413Y368427D01*
X386969Y368110D01*
X386493Y367792D01*
X385953Y367443D01*
X385350Y367125D01*
X384778Y366871D01*
X384747D01*
X384715Y366839D01*
X384619Y366808D01*
X384524Y366776D01*
X384207Y366681D01*
X383794Y366586D01*
X383318Y366490D01*
X382746Y366395D01*
X382143Y366331D01*
X381508Y366300D01*
X381222D01*
X381032Y366331D01*
X380778D01*
X380492Y366363D01*
X379857Y366490D01*
X379127Y366649D01*
X378396Y366903D01*
X377666Y367252D01*
X377349Y367443D01*
X377031Y367697D01*
X377000Y367729D01*
X376968Y367760D01*
X376777Y367951D01*
X376555Y368268D01*
X376269Y368681D01*
X375984Y369221D01*
X375729Y369824D01*
X375539Y370522D01*
X375507Y370904D01*
X375476Y371316D01*
Y371380D01*
Y371539D01*
X375507Y371792D01*
X375539Y372110D01*
X375602Y372459D01*
X375729Y372872D01*
X375857Y373285D01*
X376047Y373698D01*
X376079Y373761D01*
X376142Y373888D01*
X376301Y374078D01*
X376460Y374333D01*
X376682Y374586D01*
X376968Y374872D01*
X377253Y375158D01*
X377603Y375412D01*
X377635Y375444D01*
X377761Y375507D01*
X377984Y375634D01*
X378238Y375793D01*
X378555Y375952D01*
X378904Y376110D01*
X379317Y376269D01*
X379762Y376396D01*
X379794D01*
X379921Y376428D01*
X380143Y376492D01*
X380429Y376523D01*
X380810Y376618D01*
X381254Y376682D01*
X381794Y376745D01*
X382429Y376841D01*
X382461D01*
X382588Y376872D01*
X382778D01*
X383032Y376936D01*
X383318Y376968D01*
X383667Y377000D01*
X384048Y377063D01*
X384461Y377127D01*
X385318Y377285D01*
X386207Y377476D01*
X387033Y377666D01*
X387413Y377793D01*
X387763Y377888D01*
Y377920D01*
Y377984D01*
Y378079D01*
X387794Y378206D01*
Y378460D01*
Y378587D01*
Y378651D01*
Y378682D01*
Y378746D01*
Y378841D01*
Y378936D01*
X387763Y379286D01*
X387699Y379666D01*
X387572Y380111D01*
X387445Y380524D01*
X387223Y380937D01*
X386937Y381254D01*
X386874Y381286D01*
X386715Y381413D01*
X386461Y381572D01*
X386080Y381762D01*
X385572Y381953D01*
X385000Y382111D01*
X384302Y382238D01*
X383508Y382270D01*
X383159D01*
X382778Y382238D01*
X382333Y382175D01*
X381794Y382080D01*
X381286Y381953D01*
X380778Y381762D01*
X380365Y381508D01*
X380333Y381476D01*
X380206Y381381D01*
X380016Y381190D01*
X379825Y380905D01*
X379571Y380555D01*
X379349Y380111D01*
X379095Y379539D01*
X378904Y378904D01*
X375984Y379317D01*
Y379349D01*
X376015Y379412D01*
Y379508D01*
X376047Y379635D01*
X376142Y379984D01*
X376301Y380397D01*
X376460Y380873D01*
X376682Y381381D01*
X376968Y381889D01*
X377285Y382333D01*
X377317Y382397D01*
X377444Y382524D01*
X377666Y382715D01*
X377952Y383000D01*
X378333Y383286D01*
X378778Y383572D01*
X379317Y383857D01*
X379921Y384112D01*
X379952D01*
X380016Y384143D01*
X380111Y384175D01*
X380238Y384207D01*
X380397Y384270D01*
X380587Y384302D01*
X381095Y384429D01*
X381667Y384556D01*
X382365Y384651D01*
X383127Y384715D01*
X383953Y384747D01*
X384524D01*
X384747Y384715D01*
D02*
G37*
G36*
X198196Y347320D02*
X198399Y347307D01*
X198628Y347281D01*
X198882Y347243D01*
X199111Y347193D01*
X199339Y347116D01*
X199352D01*
X199365Y347104D01*
X199428Y347078D01*
X199530Y347028D01*
X199657Y346964D01*
X199796Y346888D01*
X199936Y346799D01*
X200063Y346685D01*
X200177Y346570D01*
X200190Y346558D01*
X200215Y346520D01*
X200266Y346443D01*
X200330Y346354D01*
X200393Y346240D01*
X200457Y346100D01*
X200508Y345948D01*
X200558Y345770D01*
Y345757D01*
X200571Y345707D01*
X200584Y345630D01*
X200597Y345516D01*
Y345364D01*
X200609Y345173D01*
X200622Y344945D01*
Y344665D01*
Y343065D01*
Y343052D01*
Y342989D01*
Y342913D01*
Y342798D01*
Y342671D01*
Y342519D01*
Y342354D01*
X200635Y342176D01*
Y341820D01*
X200647Y341478D01*
X200660Y341312D01*
Y341173D01*
X200673Y341059D01*
X200685Y340957D01*
Y340932D01*
X200698Y340881D01*
X200723Y340792D01*
X200749Y340690D01*
X200800Y340550D01*
X200851Y340411D01*
X200914Y340258D01*
X200990Y340106D01*
X199733D01*
X199720Y340119D01*
X199708Y340169D01*
X199669Y340246D01*
X199644Y340360D01*
X199593Y340487D01*
X199568Y340639D01*
X199530Y340804D01*
X199504Y340995D01*
X199492D01*
X199479Y340970D01*
X199441Y340944D01*
X199390Y340906D01*
X199263Y340804D01*
X199085Y340677D01*
X198895Y340550D01*
X198679Y340411D01*
X198438Y340284D01*
X198209Y340182D01*
X198196D01*
X198183Y340169D01*
X198145Y340157D01*
X198107Y340144D01*
X197980Y340106D01*
X197815Y340068D01*
X197625Y340030D01*
X197396Y339992D01*
X197155Y339966D01*
X196901Y339954D01*
X196786D01*
X196710Y339966D01*
X196609D01*
X196494Y339979D01*
X196240Y340030D01*
X195948Y340093D01*
X195656Y340195D01*
X195364Y340335D01*
X195237Y340411D01*
X195110Y340512D01*
X195097Y340525D01*
X195085Y340538D01*
X195009Y340614D01*
X194920Y340741D01*
X194805Y340906D01*
X194691Y341122D01*
X194589Y341363D01*
X194513Y341643D01*
X194501Y341795D01*
X194488Y341960D01*
Y341986D01*
Y342049D01*
X194501Y342151D01*
X194513Y342278D01*
X194539Y342417D01*
X194589Y342583D01*
X194640Y342748D01*
X194716Y342913D01*
X194729Y342938D01*
X194755Y342989D01*
X194818Y343065D01*
X194881Y343167D01*
X194970Y343268D01*
X195085Y343383D01*
X195199Y343497D01*
X195339Y343599D01*
X195351Y343611D01*
X195402Y343637D01*
X195491Y343687D01*
X195593Y343751D01*
X195720Y343814D01*
X195859Y343878D01*
X196024Y343941D01*
X196202Y343992D01*
X196215D01*
X196266Y344005D01*
X196355Y344030D01*
X196469Y344043D01*
X196621Y344081D01*
X196799Y344106D01*
X197015Y344132D01*
X197269Y344170D01*
X197282D01*
X197333Y344183D01*
X197409D01*
X197510Y344208D01*
X197625Y344221D01*
X197764Y344234D01*
X197917Y344259D01*
X198082Y344284D01*
X198425Y344348D01*
X198780Y344424D01*
X199111Y344500D01*
X199263Y344551D01*
X199403Y344589D01*
Y344602D01*
Y344627D01*
Y344665D01*
X199415Y344716D01*
Y344818D01*
Y344869D01*
Y344894D01*
Y344907D01*
Y344932D01*
Y344970D01*
Y345008D01*
X199403Y345148D01*
X199377Y345300D01*
X199326Y345478D01*
X199276Y345643D01*
X199187Y345808D01*
X199072Y345935D01*
X199047Y345948D01*
X198984Y345999D01*
X198882Y346062D01*
X198730Y346138D01*
X198526Y346215D01*
X198298Y346278D01*
X198018Y346329D01*
X197701Y346342D01*
X197561D01*
X197409Y346329D01*
X197231Y346304D01*
X197015Y346265D01*
X196812Y346215D01*
X196609Y346138D01*
X196444Y346037D01*
X196431Y346024D01*
X196380Y345986D01*
X196304Y345910D01*
X196228Y345796D01*
X196126Y345656D01*
X196037Y345478D01*
X195936Y345249D01*
X195859Y344995D01*
X194691Y345161D01*
Y345173D01*
X194704Y345199D01*
Y345237D01*
X194716Y345288D01*
X194755Y345427D01*
X194818Y345592D01*
X194881Y345783D01*
X194970Y345986D01*
X195085Y346189D01*
X195212Y346367D01*
X195224Y346393D01*
X195275Y346443D01*
X195364Y346520D01*
X195478Y346634D01*
X195631Y346748D01*
X195809Y346862D01*
X196024Y346977D01*
X196266Y347078D01*
X196278D01*
X196304Y347091D01*
X196342Y347104D01*
X196393Y347116D01*
X196456Y347142D01*
X196532Y347155D01*
X196736Y347205D01*
X196964Y347256D01*
X197244Y347294D01*
X197549Y347320D01*
X197879Y347332D01*
X198107D01*
X198196Y347320D01*
D02*
G37*
G36*
X126441Y340106D02*
X125095D01*
X121310Y349872D01*
X122720D01*
X125260Y342773D01*
Y342760D01*
X125273Y342735D01*
X125286Y342684D01*
X125311Y342633D01*
X125336Y342557D01*
X125362Y342468D01*
X125438Y342252D01*
X125514Y342011D01*
X125603Y341744D01*
X125692Y341452D01*
X125768Y341173D01*
Y341185D01*
X125781Y341211D01*
X125794Y341249D01*
X125806Y341312D01*
X125832Y341389D01*
X125857Y341465D01*
X125920Y341668D01*
X125997Y341909D01*
X126086Y342189D01*
X126187Y342481D01*
X126301Y342773D01*
X128943Y349872D01*
X130251D01*
X126441Y340106D01*
D02*
G37*
G36*
X170193Y343218D02*
Y343205D01*
Y343167D01*
Y343103D01*
Y343014D01*
X170180Y342913D01*
Y342798D01*
X170167Y342659D01*
X170155Y342519D01*
X170117Y342214D01*
X170066Y341897D01*
X169989Y341592D01*
X169939Y341440D01*
X169888Y341312D01*
Y341300D01*
X169875Y341287D01*
X169862Y341249D01*
X169837Y341198D01*
X169761Y341084D01*
X169659Y340932D01*
X169532Y340766D01*
X169367Y340601D01*
X169177Y340436D01*
X168948Y340284D01*
X168935D01*
X168923Y340271D01*
X168885Y340258D01*
X168834Y340233D01*
X168707Y340169D01*
X168516Y340119D01*
X168300Y340055D01*
X168046Y339992D01*
X167754Y339954D01*
X167437Y339941D01*
X167310D01*
X167221Y339954D01*
X167119Y339966D01*
X166992Y339979D01*
X166853Y340004D01*
X166713Y340030D01*
X166395Y340119D01*
X166230Y340182D01*
X166065Y340258D01*
X165900Y340335D01*
X165748Y340436D01*
X165608Y340550D01*
X165468Y340677D01*
X165456Y340690D01*
X165443Y340716D01*
X165405Y340754D01*
X165367Y340817D01*
X165316Y340893D01*
X165252Y340982D01*
X165189Y341097D01*
X165125Y341224D01*
X165075Y341376D01*
X165011Y341541D01*
X164960Y341719D01*
X164909Y341909D01*
X164871Y342125D01*
X164833Y342354D01*
X164821Y342595D01*
Y342862D01*
X165989Y343027D01*
Y343014D01*
Y342976D01*
Y342925D01*
X166002Y342849D01*
X166014Y342760D01*
X166027Y342659D01*
X166052Y342417D01*
X166103Y342163D01*
X166180Y341909D01*
X166268Y341681D01*
X166332Y341592D01*
X166395Y341503D01*
X166408Y341490D01*
X166472Y341440D01*
X166548Y341376D01*
X166675Y341300D01*
X166814Y341224D01*
X166992Y341160D01*
X167208Y341109D01*
X167437Y341097D01*
X167513D01*
X167615Y341109D01*
X167729Y341122D01*
X167856Y341147D01*
X167996Y341185D01*
X168135Y341236D01*
X168275Y341312D01*
X168288Y341325D01*
X168339Y341351D01*
X168389Y341401D01*
X168465Y341478D01*
X168554Y341567D01*
X168631Y341668D01*
X168707Y341782D01*
X168758Y341922D01*
X168770Y341935D01*
X168783Y341998D01*
X168808Y342087D01*
X168834Y342214D01*
X168859Y342392D01*
X168872Y342595D01*
X168897Y342849D01*
Y343141D01*
Y349872D01*
X170193D01*
Y343218D01*
D02*
G37*
G36*
X193015Y340106D02*
X191948D01*
Y341147D01*
X191935Y341135D01*
X191910Y341097D01*
X191859Y341033D01*
X191795Y340957D01*
X191707Y340868D01*
X191605Y340766D01*
X191491Y340665D01*
X191351Y340550D01*
X191199Y340436D01*
X191033Y340335D01*
X190843Y340233D01*
X190652Y340144D01*
X190436Y340068D01*
X190208Y340004D01*
X189954Y339966D01*
X189700Y339954D01*
X189598D01*
X189471Y339966D01*
X189319Y339979D01*
X189141Y340004D01*
X188951Y340055D01*
X188735Y340106D01*
X188531Y340182D01*
X188506Y340195D01*
X188443Y340220D01*
X188341Y340284D01*
X188227Y340347D01*
X188100Y340436D01*
X187960Y340538D01*
X187833Y340652D01*
X187719Y340779D01*
X187706Y340792D01*
X187681Y340843D01*
X187630Y340919D01*
X187579Y341033D01*
X187516Y341160D01*
X187452Y341312D01*
X187401Y341490D01*
X187350Y341681D01*
Y341693D01*
X187338Y341744D01*
X187325Y341833D01*
Y341960D01*
X187312Y342113D01*
X187300Y342303D01*
X187287Y342532D01*
Y342798D01*
Y347180D01*
X188481D01*
Y343256D01*
Y343243D01*
Y343218D01*
Y343167D01*
Y343103D01*
Y343027D01*
Y342938D01*
X188493Y342748D01*
Y342532D01*
X188506Y342328D01*
X188519Y342138D01*
X188531Y342049D01*
X188544Y341986D01*
Y341960D01*
X188570Y341909D01*
X188595Y341820D01*
X188646Y341719D01*
X188709Y341605D01*
X188798Y341478D01*
X188900Y341363D01*
X189027Y341249D01*
X189039Y341236D01*
X189090Y341211D01*
X189167Y341160D01*
X189281Y341122D01*
X189408Y341071D01*
X189560Y341020D01*
X189738Y340995D01*
X189928Y340982D01*
X190017D01*
X190132Y340995D01*
X190259Y341020D01*
X190411Y341046D01*
X190589Y341097D01*
X190767Y341160D01*
X190944Y341249D01*
X190970Y341262D01*
X191021Y341300D01*
X191110Y341363D01*
X191211Y341452D01*
X191325Y341554D01*
X191427Y341681D01*
X191529Y341833D01*
X191618Y341998D01*
X191630Y342024D01*
X191656Y342087D01*
X191681Y342201D01*
X191719Y342354D01*
X191757Y342544D01*
X191795Y342786D01*
X191808Y343065D01*
X191821Y343383D01*
Y347180D01*
X193015D01*
Y340106D01*
D02*
G37*
G36*
X205296Y347307D02*
X205448Y347281D01*
X205638Y347231D01*
X205854Y347167D01*
X206070Y347066D01*
X206311Y346939D01*
X205892Y345834D01*
X205867Y345846D01*
X205816Y345872D01*
X205727Y345910D01*
X205613Y345961D01*
X205486Y346012D01*
X205334Y346050D01*
X205168Y346075D01*
X205003Y346088D01*
X204940D01*
X204864Y346075D01*
X204762Y346062D01*
X204660Y346024D01*
X204534Y345986D01*
X204419Y345923D01*
X204292Y345846D01*
X204279Y345834D01*
X204241Y345808D01*
X204191Y345745D01*
X204127Y345669D01*
X204051Y345580D01*
X203975Y345465D01*
X203911Y345338D01*
X203848Y345186D01*
Y345173D01*
X203835Y345161D01*
Y345122D01*
X203822Y345072D01*
X203784Y344945D01*
X203759Y344780D01*
X203721Y344564D01*
X203683Y344335D01*
X203670Y344068D01*
X203657Y343789D01*
Y340106D01*
X202463D01*
Y347180D01*
X203543D01*
Y346100D01*
X203556Y346126D01*
X203581Y346164D01*
X203606Y346215D01*
X203695Y346342D01*
X203784Y346494D01*
X203899Y346672D01*
X204025Y346837D01*
X204165Y346977D01*
X204292Y347091D01*
X204305Y347104D01*
X204356Y347129D01*
X204432Y347167D01*
X204521Y347218D01*
X204635Y347256D01*
X204775Y347294D01*
X204914Y347320D01*
X205067Y347332D01*
X205168D01*
X205296Y347307D01*
D02*
G37*
G36*
X183274Y347320D02*
X183439Y347307D01*
X183617Y347269D01*
X183820Y347231D01*
X184023Y347167D01*
X184226Y347091D01*
X184252Y347078D01*
X184315Y347053D01*
X184404Y347002D01*
X184531Y346926D01*
X184658Y346850D01*
X184785Y346748D01*
X184912Y346621D01*
X185026Y346494D01*
X185039Y346481D01*
X185064Y346431D01*
X185115Y346354D01*
X185179Y346240D01*
X185229Y346113D01*
X185293Y345961D01*
X185344Y345796D01*
X185395Y345605D01*
Y345592D01*
X185407Y345542D01*
X185420Y345453D01*
X185433Y345338D01*
X185445Y345173D01*
X185458Y344983D01*
X185471Y344742D01*
Y344449D01*
Y340106D01*
X184277D01*
Y344399D01*
Y344411D01*
Y344437D01*
Y344462D01*
Y344513D01*
X184264Y344653D01*
Y344805D01*
X184239Y344983D01*
X184214Y345161D01*
X184175Y345326D01*
X184125Y345478D01*
Y345491D01*
X184099Y345542D01*
X184061Y345605D01*
X184010Y345694D01*
X183947Y345783D01*
X183858Y345885D01*
X183756Y345973D01*
X183629Y346062D01*
X183617Y346075D01*
X183566Y346100D01*
X183490Y346138D01*
X183388Y346177D01*
X183274Y346215D01*
X183134Y346253D01*
X182969Y346278D01*
X182804Y346291D01*
X182728D01*
X182677Y346278D01*
X182524Y346265D01*
X182347Y346227D01*
X182143Y346177D01*
X181915Y346088D01*
X181686Y345961D01*
X181470Y345796D01*
X181445Y345770D01*
X181420Y345745D01*
X181381Y345694D01*
X181343Y345643D01*
X181292Y345567D01*
X181254Y345491D01*
X181204Y345389D01*
X181153Y345262D01*
X181102Y345135D01*
X181051Y344983D01*
X181013Y344818D01*
X180975Y344627D01*
X180950Y344424D01*
X180937Y344195D01*
X180924Y343954D01*
Y340106D01*
X179730D01*
Y347180D01*
X180810D01*
Y346164D01*
X180823Y346177D01*
X180848Y346215D01*
X180886Y346278D01*
X180950Y346342D01*
X181038Y346431D01*
X181127Y346532D01*
X181242Y346634D01*
X181381Y346748D01*
X181534Y346862D01*
X181699Y346964D01*
X181877Y347066D01*
X182080Y347155D01*
X182296Y347231D01*
X182524Y347281D01*
X182778Y347320D01*
X183045Y347332D01*
X183159D01*
X183274Y347320D01*
D02*
G37*
G36*
X210134Y339992D02*
Y339979D01*
X210121Y339941D01*
X210096Y339877D01*
X210058Y339801D01*
X210033Y339712D01*
X209982Y339598D01*
X209893Y339357D01*
X209779Y339090D01*
X209664Y338823D01*
X209563Y338582D01*
X209512Y338480D01*
X209461Y338391D01*
X209448Y338366D01*
X209410Y338303D01*
X209334Y338188D01*
X209245Y338061D01*
X209144Y337922D01*
X209017Y337782D01*
X208877Y337642D01*
X208724Y337528D01*
X208712Y337515D01*
X208648Y337490D01*
X208572Y337439D01*
X208445Y337388D01*
X208305Y337337D01*
X208140Y337287D01*
X207950Y337261D01*
X207747Y337248D01*
X207683D01*
X207607Y337261D01*
X207518Y337274D01*
X207404Y337287D01*
X207264Y337312D01*
X207124Y337350D01*
X206972Y337401D01*
X206845Y338518D01*
X206858D01*
X206908Y338506D01*
X206985Y338480D01*
X207073Y338468D01*
X207175Y338442D01*
X207289Y338417D01*
X207518Y338404D01*
X207582D01*
X207658Y338417D01*
X207747D01*
X207962Y338468D01*
X208064Y338493D01*
X208153Y338544D01*
X208166D01*
X208191Y338569D01*
X208242Y338595D01*
X208293Y338633D01*
X208420Y338747D01*
X208547Y338912D01*
Y338925D01*
X208572Y338950D01*
X208598Y339001D01*
X208636Y339090D01*
X208686Y339217D01*
X208750Y339369D01*
X208826Y339573D01*
X208864Y339687D01*
X208915Y339814D01*
X208928Y339827D01*
X208940Y339890D01*
X208979Y339979D01*
X209029Y340106D01*
X206337Y347180D01*
X207607D01*
X209093Y343091D01*
Y343078D01*
X209105Y343052D01*
X209118Y343014D01*
X209144Y342951D01*
X209169Y342887D01*
X209194Y342798D01*
X209258Y342595D01*
X209334Y342354D01*
X209423Y342075D01*
X209512Y341770D01*
X209601Y341452D01*
Y341465D01*
X209613Y341490D01*
X209626Y341528D01*
X209639Y341592D01*
X209664Y341668D01*
X209690Y341757D01*
X209741Y341960D01*
X209817Y342201D01*
X209906Y342468D01*
X210007Y342760D01*
X210109Y343052D01*
X211620Y347180D01*
X212814D01*
X210134Y339992D01*
D02*
G37*
G36*
X165608Y361283D02*
X92456D01*
Y396684D01*
X165608D01*
Y361283D01*
D02*
G37*
G36*
X244551Y340106D02*
X243357D01*
Y347739D01*
X243332Y347726D01*
X243281Y347675D01*
X243180Y347586D01*
X243053Y347485D01*
X242887Y347358D01*
X242684Y347218D01*
X242468Y347066D01*
X242214Y346913D01*
X242202D01*
X242189Y346900D01*
X242151Y346875D01*
X242100Y346850D01*
X241960Y346773D01*
X241795Y346685D01*
X241605Y346583D01*
X241389Y346481D01*
X241173Y346380D01*
X240957Y346291D01*
Y347459D01*
X240970D01*
X241008Y347485D01*
X241059Y347510D01*
X241122Y347548D01*
X241211Y347586D01*
X241313Y347650D01*
X241554Y347777D01*
X241821Y347942D01*
X242125Y348145D01*
X242418Y348361D01*
X242710Y348602D01*
X242722Y348615D01*
X242748Y348628D01*
X242786Y348666D01*
X242837Y348717D01*
X242964Y348844D01*
X243129Y349021D01*
X243294Y349212D01*
X243472Y349440D01*
X243637Y349669D01*
X243776Y349910D01*
X244551D01*
Y340106D01*
D02*
G37*
G36*
X236969D02*
X235776D01*
Y347739D01*
X235750Y347726D01*
X235699Y347675D01*
X235598Y347586D01*
X235471Y347485D01*
X235306Y347358D01*
X235102Y347218D01*
X234886Y347066D01*
X234632Y346913D01*
X234620D01*
X234607Y346900D01*
X234569Y346875D01*
X234518Y346850D01*
X234379Y346773D01*
X234213Y346685D01*
X234023Y346583D01*
X233807Y346481D01*
X233591Y346380D01*
X233375Y346291D01*
Y347459D01*
X233388D01*
X233426Y347485D01*
X233477Y347510D01*
X233540Y347548D01*
X233629Y347586D01*
X233731Y347650D01*
X233972Y347777D01*
X234239Y347942D01*
X234544Y348145D01*
X234836Y348361D01*
X235128Y348602D01*
X235140Y348615D01*
X235166Y348628D01*
X235204Y348666D01*
X235255Y348717D01*
X235382Y348844D01*
X235547Y349021D01*
X235712Y349212D01*
X235890Y349440D01*
X236055Y349669D01*
X236195Y349910D01*
X236969D01*
Y340106D01*
D02*
G37*
G36*
X220739Y349898D02*
X220866Y349885D01*
X221005Y349872D01*
X221158Y349847D01*
X221323Y349809D01*
X221679Y349720D01*
X221856Y349656D01*
X222047Y349580D01*
X222237Y349491D01*
X222415Y349377D01*
X222580Y349263D01*
X222745Y349123D01*
X222758Y349110D01*
X222783Y349085D01*
X222822Y349047D01*
X222872Y348983D01*
X222936Y348907D01*
X223012Y348818D01*
X223076Y348717D01*
X223164Y348590D01*
X223241Y348463D01*
X223304Y348310D01*
X223444Y347980D01*
X223495Y347802D01*
X223533Y347612D01*
X223558Y347408D01*
X223571Y347193D01*
Y347167D01*
Y347091D01*
X223558Y346977D01*
X223545Y346824D01*
X223507Y346659D01*
X223469Y346456D01*
X223406Y346253D01*
X223330Y346037D01*
X223317Y346012D01*
X223279Y345935D01*
X223228Y345821D01*
X223139Y345681D01*
X223025Y345504D01*
X222885Y345300D01*
X222720Y345072D01*
X222529Y344843D01*
Y344830D01*
X222504Y344818D01*
X222466Y344780D01*
X222428Y344729D01*
X222364Y344665D01*
X222288Y344589D01*
X222199Y344500D01*
X222085Y344399D01*
X221971Y344284D01*
X221831Y344157D01*
X221679Y344005D01*
X221513Y343853D01*
X221323Y343687D01*
X221132Y343522D01*
X220904Y343332D01*
X220675Y343129D01*
X220662Y343116D01*
X220624Y343091D01*
X220574Y343040D01*
X220497Y342989D01*
X220421Y342913D01*
X220320Y342824D01*
X220104Y342633D01*
X219862Y342430D01*
X219634Y342227D01*
X219532Y342138D01*
X219443Y342049D01*
X219354Y341960D01*
X219291Y341897D01*
X219278Y341884D01*
X219240Y341846D01*
X219189Y341782D01*
X219113Y341693D01*
X219037Y341605D01*
X218948Y341490D01*
X218783Y341262D01*
X223584D01*
Y340106D01*
X217119D01*
Y340131D01*
Y340182D01*
Y340258D01*
X217132Y340373D01*
X217145Y340500D01*
X217170Y340639D01*
X217208Y340779D01*
X217259Y340932D01*
Y340944D01*
X217272Y340957D01*
X217284Y340995D01*
X217310Y341046D01*
X217360Y341173D01*
X217449Y341338D01*
X217564Y341541D01*
X217691Y341757D01*
X217856Y341986D01*
X218046Y342227D01*
X218059Y342240D01*
X218072Y342252D01*
X218110Y342290D01*
X218148Y342341D01*
X218275Y342481D01*
X218453Y342659D01*
X218669Y342875D01*
X218935Y343129D01*
X219253Y343408D01*
X219621Y343713D01*
X219634Y343726D01*
X219685Y343776D01*
X219774Y343840D01*
X219875Y343929D01*
X220002Y344043D01*
X220154Y344170D01*
X220320Y344310D01*
X220485Y344462D01*
X220840Y344792D01*
X221196Y345135D01*
X221361Y345313D01*
X221513Y345478D01*
X221653Y345630D01*
X221767Y345783D01*
X221780Y345796D01*
X221793Y345821D01*
X221818Y345859D01*
X221856Y345910D01*
X221894Y345986D01*
X221945Y346062D01*
X222059Y346253D01*
X222161Y346469D01*
X222250Y346710D01*
X222313Y346977D01*
X222339Y347104D01*
Y347231D01*
Y347243D01*
Y347269D01*
Y347294D01*
X222326Y347345D01*
X222313Y347485D01*
X222275Y347650D01*
X222212Y347840D01*
X222123Y348031D01*
X221996Y348234D01*
X221818Y348424D01*
X221793Y348450D01*
X221729Y348501D01*
X221615Y348577D01*
X221463Y348679D01*
X221272Y348767D01*
X221043Y348844D01*
X220777Y348894D01*
X220485Y348920D01*
X220396D01*
X220345Y348907D01*
X220269D01*
X220180Y348894D01*
X219989Y348856D01*
X219774Y348793D01*
X219532Y348704D01*
X219304Y348577D01*
X219100Y348399D01*
X219075Y348374D01*
X219024Y348310D01*
X218935Y348183D01*
X218846Y348031D01*
X218745Y347815D01*
X218656Y347574D01*
X218605Y347294D01*
X218580Y346964D01*
X217348Y347091D01*
Y347104D01*
X217360Y347155D01*
Y347218D01*
X217373Y347320D01*
X217399Y347434D01*
X217424Y347561D01*
X217462Y347713D01*
X217513Y347866D01*
X217627Y348209D01*
X217703Y348386D01*
X217792Y348551D01*
X217894Y348729D01*
X218008Y348894D01*
X218135Y349047D01*
X218288Y349187D01*
X218300Y349199D01*
X218326Y349212D01*
X218377Y349250D01*
X218440Y349301D01*
X218529Y349352D01*
X218631Y349415D01*
X218745Y349479D01*
X218885Y349555D01*
X219037Y349618D01*
X219202Y349682D01*
X219380Y349745D01*
X219583Y349796D01*
X219786Y349847D01*
X220015Y349885D01*
X220256Y349898D01*
X220510Y349910D01*
X220650D01*
X220739Y349898D01*
D02*
G37*
%LPC*%
G36*
X270256Y375539D02*
X270224D01*
X270193Y375507D01*
X270097Y375476D01*
X269939Y375444D01*
X269780Y375380D01*
X269557Y375317D01*
X269303Y375221D01*
X269018Y375158D01*
X268700Y375063D01*
X268351Y374967D01*
X267938Y374872D01*
X267494Y374777D01*
X267017Y374682D01*
X266509Y374586D01*
X265970Y374491D01*
X265366Y374396D01*
X265271D01*
X265208Y374364D01*
X265081D01*
X264732Y374301D01*
X264350Y374237D01*
X263938Y374142D01*
X263493Y374047D01*
X263081Y373920D01*
X262763Y373793D01*
X262731D01*
X262636Y373729D01*
X262509Y373666D01*
X262318Y373571D01*
X261938Y373253D01*
X261747Y373063D01*
X261588Y372840D01*
X261556Y372808D01*
X261525Y372745D01*
X261461Y372586D01*
X261398Y372427D01*
X261303Y372205D01*
X261239Y371983D01*
X261207Y371697D01*
X261175Y371412D01*
Y371348D01*
Y371221D01*
X261239Y370999D01*
X261303Y370713D01*
X261398Y370427D01*
X261556Y370078D01*
X261779Y369761D01*
X262064Y369443D01*
X262096Y369411D01*
X262223Y369316D01*
X262446Y369189D01*
X262731Y369062D01*
X263112Y368903D01*
X263589Y368776D01*
X264128Y368681D01*
X264732Y368649D01*
X265017D01*
X265335Y368681D01*
X265748Y368745D01*
X266224Y368840D01*
X266732Y368967D01*
X267271Y369126D01*
X267780Y369380D01*
X267811D01*
X267843Y369411D01*
X268002Y369506D01*
X268256Y369697D01*
X268542Y369919D01*
X268859Y370205D01*
X269208Y370586D01*
X269526Y370967D01*
X269780Y371443D01*
X269811Y371507D01*
X269843Y371634D01*
X269939Y371856D01*
X270034Y372205D01*
X270097Y372618D01*
X270193Y373126D01*
X270224Y373729D01*
X270256Y374428D01*
Y375539D01*
D02*
G37*
G36*
X387763D02*
X387731D01*
X387699Y375507D01*
X387604Y375476D01*
X387445Y375444D01*
X387286Y375380D01*
X387064Y375317D01*
X386810Y375221D01*
X386525Y375158D01*
X386207Y375063D01*
X385858Y374967D01*
X385445Y374872D01*
X385000Y374777D01*
X384524Y374682D01*
X384016Y374586D01*
X383476Y374491D01*
X382873Y374396D01*
X382778D01*
X382715Y374364D01*
X382588D01*
X382238Y374301D01*
X381857Y374237D01*
X381445Y374142D01*
X381000Y374047D01*
X380587Y373920D01*
X380270Y373793D01*
X380238D01*
X380143Y373729D01*
X380016Y373666D01*
X379825Y373571D01*
X379444Y373253D01*
X379254Y373063D01*
X379095Y372840D01*
X379063Y372808D01*
X379031Y372745D01*
X378968Y372586D01*
X378904Y372427D01*
X378809Y372205D01*
X378746Y371983D01*
X378714Y371697D01*
X378682Y371412D01*
Y371348D01*
Y371221D01*
X378746Y370999D01*
X378809Y370713D01*
X378904Y370427D01*
X379063Y370078D01*
X379286Y369761D01*
X379571Y369443D01*
X379603Y369411D01*
X379730Y369316D01*
X379952Y369189D01*
X380238Y369062D01*
X380619Y368903D01*
X381095Y368776D01*
X381635Y368681D01*
X382238Y368649D01*
X382524D01*
X382841Y368681D01*
X383254Y368745D01*
X383731Y368840D01*
X384239Y368967D01*
X384778Y369126D01*
X385286Y369380D01*
X385318D01*
X385350Y369411D01*
X385508Y369506D01*
X385762Y369697D01*
X386048Y369919D01*
X386366Y370205D01*
X386715Y370586D01*
X387033Y370967D01*
X387286Y371443D01*
X387318Y371507D01*
X387350Y371634D01*
X387445Y371856D01*
X387541Y372205D01*
X387604Y372618D01*
X387699Y373126D01*
X387731Y373729D01*
X387763Y374428D01*
Y375539D01*
D02*
G37*
G36*
X157226Y391192D02*
X154781D01*
X143637Y375380D01*
Y372618D01*
X154242D01*
Y366776D01*
X157226D01*
Y372618D01*
X160528D01*
Y375380D01*
X157226D01*
Y391192D01*
D02*
G37*
G36*
X109410Y391604D02*
X108458D01*
X107886Y391541D01*
X106775Y391382D01*
X105759Y391128D01*
X105315Y391001D01*
X104870Y390874D01*
X104489Y390715D01*
X104140Y390588D01*
X103854Y390462D01*
X103600Y390335D01*
X103410Y390239D01*
X103251Y390176D01*
X103156Y390144D01*
X103124Y390112D01*
X102648Y389827D01*
X102171Y389509D01*
X101346Y388811D01*
X100616Y388112D01*
X100044Y387413D01*
X99790Y387064D01*
X99568Y386778D01*
X99377Y386493D01*
X99250Y386270D01*
X99123Y386080D01*
X99028Y385921D01*
X98996Y385826D01*
X98965Y385794D01*
X98711Y385255D01*
X98489Y384683D01*
X98139Y383572D01*
X97885Y382461D01*
X97790Y381921D01*
X97726Y381413D01*
X97663Y380937D01*
X97599Y380524D01*
X97568Y380143D01*
Y379794D01*
X97536Y379539D01*
Y379317D01*
Y379190D01*
Y379159D01*
X97599Y377888D01*
X97726Y376650D01*
X97822Y376110D01*
X97949Y375571D01*
X98044Y375063D01*
X98171Y374586D01*
X98298Y374142D01*
X98393Y373761D01*
X98520Y373443D01*
X98616Y373158D01*
X98679Y372935D01*
X98743Y372745D01*
X98806Y372650D01*
Y372618D01*
X99060Y372078D01*
X99346Y371539D01*
X99632Y371062D01*
X99949Y370618D01*
X100267Y370173D01*
X100584Y369792D01*
X100870Y369443D01*
X101187Y369157D01*
X101473Y368871D01*
X101727Y368618D01*
X101981Y368427D01*
X102171Y368268D01*
X102362Y368110D01*
X102489Y368014D01*
X102552Y367982D01*
X102584Y367951D01*
X103061Y367665D01*
X103568Y367443D01*
X104108Y367220D01*
X104648Y367030D01*
X105728Y366744D01*
X106743Y366554D01*
X107220Y366490D01*
X107633Y366459D01*
X108045Y366427D01*
X108363Y366395D01*
X108649Y366363D01*
X109030D01*
X109728Y366395D01*
X110395Y366459D01*
X111030Y366554D01*
X111633Y366681D01*
X112205Y366839D01*
X112744Y367030D01*
X113221Y367189D01*
X113697Y367411D01*
X114078Y367602D01*
X114427Y367760D01*
X114745Y367951D01*
X114999Y368110D01*
X115221Y368237D01*
X115348Y368332D01*
X115443Y368395D01*
X115475Y368427D01*
X115951Y368840D01*
X116396Y369284D01*
X116808Y369761D01*
X117157Y370269D01*
X117507Y370776D01*
X117793Y371253D01*
X118078Y371761D01*
X118301Y372237D01*
X118523Y372713D01*
X118681Y373126D01*
X118840Y373507D01*
X118967Y373825D01*
X119031Y374110D01*
X119094Y374333D01*
X119158Y374459D01*
Y374491D01*
X115919Y375317D01*
X115760Y374745D01*
X115602Y374237D01*
X115411Y373761D01*
X115221Y373285D01*
X114999Y372872D01*
X114808Y372491D01*
X114586Y372142D01*
X114363Y371856D01*
X114173Y371570D01*
X113982Y371348D01*
X113792Y371126D01*
X113665Y370967D01*
X113538Y370840D01*
X113443Y370745D01*
X113379Y370713D01*
X113348Y370681D01*
X112998Y370396D01*
X112617Y370173D01*
X112236Y369951D01*
X111824Y369792D01*
X111061Y369506D01*
X110331Y369316D01*
X110014Y369253D01*
X109696Y369221D01*
X109442Y369189D01*
X109188Y369157D01*
X108998Y369126D01*
X108744D01*
X107918Y369189D01*
X107156Y369316D01*
X106458Y369475D01*
X105823Y369697D01*
X105315Y369919D01*
X105092Y370014D01*
X104934Y370078D01*
X104775Y370173D01*
X104680Y370205D01*
X104616Y370269D01*
X104585D01*
X103918Y370745D01*
X103346Y371284D01*
X102870Y371856D01*
X102457Y372427D01*
X102140Y372935D01*
X102044Y373158D01*
X101949Y373348D01*
X101854Y373507D01*
X101791Y373634D01*
X101759Y373698D01*
Y373729D01*
X101473Y374618D01*
X101251Y375571D01*
X101092Y376460D01*
X100997Y377317D01*
X100933Y377698D01*
Y378047D01*
X100901Y378365D01*
X100870Y378651D01*
Y378873D01*
Y379031D01*
Y379127D01*
Y379159D01*
X100901Y380047D01*
X100997Y380905D01*
X101124Y381698D01*
X101251Y382429D01*
X101314Y382715D01*
X101378Y383000D01*
X101441Y383254D01*
X101505Y383476D01*
X101568Y383635D01*
X101600Y383762D01*
X101632Y383826D01*
Y383857D01*
X101949Y384683D01*
X102362Y385382D01*
X102807Y386017D01*
X103251Y386525D01*
X103632Y386937D01*
X103949Y387223D01*
X104076Y387350D01*
X104172Y387413D01*
X104235Y387477D01*
X104267D01*
X104648Y387731D01*
X105029Y387921D01*
X105823Y388271D01*
X106616Y388525D01*
X107347Y388684D01*
X107696Y388715D01*
X108013Y388779D01*
X108299Y388811D01*
X108521D01*
X108712Y388842D01*
X108998D01*
X109887Y388779D01*
X110681Y388652D01*
X111379Y388461D01*
X111982Y388239D01*
X112458Y387985D01*
X112649Y387890D01*
X112808Y387794D01*
X112935Y387731D01*
X113030Y387668D01*
X113062Y387604D01*
X113094D01*
X113379Y387350D01*
X113665Y387096D01*
X114173Y386493D01*
X114586Y385858D01*
X114935Y385223D01*
X115221Y384651D01*
X115316Y384397D01*
X115411Y384175D01*
X115475Y383984D01*
X115538Y383857D01*
X115570Y383762D01*
Y383731D01*
X118745Y384492D01*
X118554Y385096D01*
X118301Y385699D01*
X118047Y386239D01*
X117761Y386747D01*
X117475Y387191D01*
X117189Y387636D01*
X116903Y388017D01*
X116618Y388366D01*
X116332Y388684D01*
X116078Y388969D01*
X115824Y389192D01*
X115633Y389382D01*
X115475Y389541D01*
X115316Y389636D01*
X115253Y389700D01*
X115221Y389731D01*
X114745Y390049D01*
X114236Y390366D01*
X113729Y390588D01*
X113221Y390811D01*
X112681Y391001D01*
X112173Y391160D01*
X111220Y391382D01*
X110776Y391446D01*
X110363Y391509D01*
X109982Y391541D01*
X109664Y391573D01*
X109410Y391604D01*
D02*
G37*
G36*
X142303Y391192D02*
X138779D01*
X133921Y384683D01*
X133509Y384143D01*
X133160Y383667D01*
X132810Y383191D01*
X132524Y382778D01*
X132302Y382429D01*
X132143Y382175D01*
X132016Y382016D01*
X131985Y381953D01*
X131731Y382365D01*
X131445Y382841D01*
X131128Y383349D01*
X130810Y383826D01*
X130524Y384270D01*
X130270Y384619D01*
X130175Y384747D01*
X130112Y384842D01*
X130080Y384905D01*
X130048Y384937D01*
X125603Y391192D01*
X121729D01*
X130048Y379444D01*
X120618Y366776D01*
X124492D01*
X130683Y375221D01*
X130842Y375444D01*
X131000Y375698D01*
X131382Y376301D01*
X131572Y376555D01*
X131699Y376777D01*
X131794Y376904D01*
X131826Y376968D01*
X132207Y376428D01*
X132366Y376174D01*
X132524Y375952D01*
X132652Y375761D01*
X132747Y375602D01*
X132810Y375507D01*
X132842Y375476D01*
X139002Y366776D01*
X142970D01*
X133858Y379571D01*
X142303Y391192D01*
D02*
G37*
G36*
X137871Y348920D02*
X137795D01*
X137732Y348907D01*
X137579Y348882D01*
X137401Y348831D01*
X137185Y348742D01*
X136969Y348615D01*
X136855Y348539D01*
X136754Y348450D01*
X136652Y348336D01*
X136550Y348209D01*
X136538Y348196D01*
X136525Y348171D01*
X136500Y348107D01*
X136461Y348031D01*
X136411Y347929D01*
X136360Y347802D01*
X136309Y347650D01*
X136246Y347459D01*
X136195Y347256D01*
X136131Y347015D01*
X136081Y346748D01*
X136042Y346443D01*
X135992Y346113D01*
X135966Y345745D01*
X135954Y345351D01*
X135941Y344919D01*
Y344907D01*
Y344894D01*
Y344818D01*
Y344691D01*
X135954Y344526D01*
Y344335D01*
X135966Y344119D01*
X135992Y343878D01*
X136017Y343611D01*
X136081Y343078D01*
X136119Y342811D01*
X136182Y342557D01*
X136246Y342303D01*
X136322Y342087D01*
X136398Y341884D01*
X136500Y341719D01*
X136512Y341706D01*
X136525Y341681D01*
X136563Y341643D01*
X136601Y341592D01*
X136715Y341465D01*
X136881Y341325D01*
X137084Y341185D01*
X137325Y341059D01*
X137452Y341008D01*
X137592Y340970D01*
X137732Y340944D01*
X137884Y340932D01*
X137960D01*
X138024Y340944D01*
X138087Y340957D01*
X138176Y340970D01*
X138366Y341033D01*
X138582Y341122D01*
X138697Y341185D01*
X138811Y341262D01*
X138938Y341351D01*
X139052Y341465D01*
X139167Y341579D01*
X139268Y341719D01*
X139281Y341732D01*
X139294Y341757D01*
X139319Y341808D01*
X139357Y341884D01*
X139395Y341973D01*
X139446Y342100D01*
X139497Y342240D01*
X139560Y342417D01*
X139611Y342621D01*
X139662Y342849D01*
X139713Y343116D01*
X139751Y343408D01*
X139789Y343738D01*
X139814Y344094D01*
X139840Y344487D01*
Y344919D01*
Y344932D01*
Y344945D01*
Y345021D01*
Y345148D01*
X139827Y345313D01*
Y345504D01*
X139814Y345719D01*
X139789Y345973D01*
X139763Y346227D01*
X139700Y346761D01*
X139649Y347028D01*
X139598Y347294D01*
X139535Y347536D01*
X139459Y347751D01*
X139370Y347955D01*
X139268Y348120D01*
Y348132D01*
X139243Y348158D01*
X139217Y348196D01*
X139167Y348247D01*
X139052Y348374D01*
X138887Y348526D01*
X138684Y348666D01*
X138443Y348793D01*
X138316Y348844D01*
X138176Y348882D01*
X138024Y348907D01*
X137871Y348920D01*
D02*
G37*
G36*
X228041D02*
X227965D01*
X227901Y348907D01*
X227749Y348882D01*
X227571Y348831D01*
X227355Y348742D01*
X227139Y348615D01*
X227025Y348539D01*
X226924Y348450D01*
X226822Y348336D01*
X226720Y348209D01*
X226708Y348196D01*
X226695Y348171D01*
X226670Y348107D01*
X226632Y348031D01*
X226581Y347929D01*
X226530Y347802D01*
X226479Y347650D01*
X226416Y347459D01*
X226365Y347256D01*
X226301Y347015D01*
X226250Y346748D01*
X226212Y346443D01*
X226162Y346113D01*
X226136Y345745D01*
X226124Y345351D01*
X226111Y344919D01*
Y344907D01*
Y344894D01*
Y344818D01*
Y344691D01*
X226124Y344526D01*
Y344335D01*
X226136Y344119D01*
X226162Y343878D01*
X226187Y343611D01*
X226250Y343078D01*
X226289Y342811D01*
X226352Y342557D01*
X226416Y342303D01*
X226492Y342087D01*
X226568Y341884D01*
X226670Y341719D01*
X226682Y341706D01*
X226695Y341681D01*
X226733Y341643D01*
X226771Y341592D01*
X226886Y341465D01*
X227051Y341325D01*
X227254Y341185D01*
X227495Y341059D01*
X227622Y341008D01*
X227762Y340970D01*
X227901Y340944D01*
X228054Y340932D01*
X228130D01*
X228194Y340944D01*
X228257Y340957D01*
X228346Y340970D01*
X228536Y341033D01*
X228752Y341122D01*
X228867Y341185D01*
X228981Y341262D01*
X229108Y341351D01*
X229222Y341465D01*
X229337Y341579D01*
X229438Y341719D01*
X229451Y341732D01*
X229464Y341757D01*
X229489Y341808D01*
X229527Y341884D01*
X229565Y341973D01*
X229616Y342100D01*
X229667Y342240D01*
X229730Y342417D01*
X229781Y342621D01*
X229832Y342849D01*
X229883Y343116D01*
X229921Y343408D01*
X229959Y343738D01*
X229984Y344094D01*
X230010Y344487D01*
Y344919D01*
Y344932D01*
Y344945D01*
Y345021D01*
Y345148D01*
X229997Y345313D01*
Y345504D01*
X229984Y345719D01*
X229959Y345973D01*
X229933Y346227D01*
X229870Y346761D01*
X229819Y347028D01*
X229768Y347294D01*
X229705Y347536D01*
X229629Y347751D01*
X229540Y347955D01*
X229438Y348120D01*
Y348132D01*
X229413Y348158D01*
X229387Y348196D01*
X229337Y348247D01*
X229222Y348374D01*
X229057Y348526D01*
X228854Y348666D01*
X228613Y348793D01*
X228486Y348844D01*
X228346Y348882D01*
X228194Y348907D01*
X228041Y348920D01*
D02*
G37*
G36*
X176657Y343649D02*
X176644D01*
X176632Y343637D01*
X176593Y343624D01*
X176530Y343611D01*
X176467Y343586D01*
X176378Y343560D01*
X176276Y343522D01*
X176162Y343497D01*
X176035Y343459D01*
X175895Y343421D01*
X175730Y343383D01*
X175552Y343344D01*
X175362Y343306D01*
X175158Y343268D01*
X174942Y343230D01*
X174701Y343192D01*
X174663D01*
X174638Y343179D01*
X174587D01*
X174447Y343154D01*
X174295Y343129D01*
X174130Y343091D01*
X173952Y343052D01*
X173787Y343002D01*
X173660Y342951D01*
X173647D01*
X173609Y342925D01*
X173558Y342900D01*
X173482Y342862D01*
X173330Y342735D01*
X173253Y342659D01*
X173190Y342570D01*
X173177Y342557D01*
X173165Y342532D01*
X173139Y342468D01*
X173114Y342405D01*
X173076Y342316D01*
X173050Y342227D01*
X173037Y342113D01*
X173025Y341998D01*
Y341973D01*
Y341922D01*
X173050Y341833D01*
X173076Y341719D01*
X173114Y341605D01*
X173177Y341465D01*
X173266Y341338D01*
X173380Y341211D01*
X173393Y341198D01*
X173444Y341160D01*
X173533Y341109D01*
X173647Y341059D01*
X173799Y340995D01*
X173990Y340944D01*
X174206Y340906D01*
X174447Y340893D01*
X174562D01*
X174688Y340906D01*
X174854Y340932D01*
X175044Y340970D01*
X175247Y341020D01*
X175463Y341084D01*
X175666Y341185D01*
X175679D01*
X175692Y341198D01*
X175755Y341236D01*
X175857Y341312D01*
X175971Y341401D01*
X176098Y341516D01*
X176238Y341668D01*
X176365Y341820D01*
X176467Y342011D01*
X176479Y342036D01*
X176492Y342087D01*
X176530Y342176D01*
X176568Y342316D01*
X176593Y342481D01*
X176632Y342684D01*
X176644Y342925D01*
X176657Y343205D01*
Y343649D01*
D02*
G37*
G36*
X199403D02*
X199390D01*
X199377Y343637D01*
X199339Y343624D01*
X199276Y343611D01*
X199212Y343586D01*
X199123Y343560D01*
X199022Y343522D01*
X198907Y343497D01*
X198780Y343459D01*
X198641Y343421D01*
X198476Y343383D01*
X198298Y343344D01*
X198107Y343306D01*
X197904Y343268D01*
X197688Y343230D01*
X197447Y343192D01*
X197409D01*
X197383Y343179D01*
X197333D01*
X197193Y343154D01*
X197041Y343129D01*
X196875Y343091D01*
X196698Y343052D01*
X196532Y343002D01*
X196406Y342951D01*
X196393D01*
X196355Y342925D01*
X196304Y342900D01*
X196228Y342862D01*
X196075Y342735D01*
X195999Y342659D01*
X195936Y342570D01*
X195923Y342557D01*
X195910Y342532D01*
X195885Y342468D01*
X195859Y342405D01*
X195821Y342316D01*
X195796Y342227D01*
X195783Y342113D01*
X195770Y341998D01*
Y341973D01*
Y341922D01*
X195796Y341833D01*
X195821Y341719D01*
X195859Y341605D01*
X195923Y341465D01*
X196012Y341338D01*
X196126Y341211D01*
X196139Y341198D01*
X196190Y341160D01*
X196278Y341109D01*
X196393Y341059D01*
X196545Y340995D01*
X196736Y340944D01*
X196952Y340906D01*
X197193Y340893D01*
X197307D01*
X197434Y340906D01*
X197599Y340932D01*
X197790Y340970D01*
X197993Y341020D01*
X198209Y341084D01*
X198412Y341185D01*
X198425D01*
X198438Y341198D01*
X198501Y341236D01*
X198603Y341312D01*
X198717Y341401D01*
X198844Y341516D01*
X198984Y341668D01*
X199111Y341820D01*
X199212Y342011D01*
X199225Y342036D01*
X199238Y342087D01*
X199276Y342176D01*
X199314Y342316D01*
X199339Y342481D01*
X199377Y342684D01*
X199390Y342925D01*
X199403Y343205D01*
Y343649D01*
D02*
G37*
G36*
X413448Y382270D02*
X413258D01*
X413131Y382238D01*
X412750Y382175D01*
X412274Y382080D01*
X411766Y381857D01*
X411194Y381572D01*
X410909Y381381D01*
X410654Y381159D01*
X410369Y380905D01*
X410115Y380619D01*
Y380587D01*
X410051Y380555D01*
X409988Y380460D01*
X409893Y380302D01*
X409797Y380143D01*
X409702Y379921D01*
X409575Y379666D01*
X409448Y379381D01*
X409321Y379031D01*
X409194Y378651D01*
X409099Y378238D01*
X409003Y377793D01*
X408908Y377285D01*
X408845Y376745D01*
X408813Y376142D01*
X408781Y375507D01*
Y375476D01*
Y375349D01*
Y375190D01*
X408813Y374936D01*
Y374682D01*
X408845Y374333D01*
X408908Y373983D01*
X408972Y373602D01*
X409131Y372777D01*
X409384Y371920D01*
X409734Y371126D01*
X409956Y370776D01*
X410210Y370427D01*
X410242Y370396D01*
X410274Y370364D01*
X410464Y370173D01*
X410782Y369919D01*
X411162Y369602D01*
X411670Y369284D01*
X412242Y369030D01*
X412909Y368840D01*
X413258Y368808D01*
X413607Y368776D01*
X413798D01*
X413925Y368808D01*
X414306Y368871D01*
X414750Y368967D01*
X415290Y369157D01*
X415830Y369443D01*
X416115Y369633D01*
X416401Y369856D01*
X416687Y370078D01*
X416941Y370364D01*
X416973Y370396D01*
X417005Y370427D01*
X417068Y370522D01*
X417163Y370649D01*
X417258Y370840D01*
X417385Y371031D01*
X417513Y371284D01*
X417640Y371570D01*
X417766Y371888D01*
X417893Y372269D01*
X418021Y372650D01*
X418116Y373094D01*
X418211Y373571D01*
X418274Y374110D01*
X418338Y374650D01*
Y375253D01*
Y375285D01*
Y375412D01*
Y375602D01*
X418306Y375857D01*
Y376142D01*
X418274Y376492D01*
X418211Y376872D01*
X418148Y377285D01*
X417989Y378143D01*
X417735Y379031D01*
X417385Y379857D01*
X417163Y380206D01*
X416909Y380555D01*
Y380587D01*
X416846Y380619D01*
X416655Y380810D01*
X416370Y381095D01*
X415957Y381413D01*
X415449Y381730D01*
X414846Y382016D01*
X414179Y382206D01*
X413829Y382238D01*
X413448Y382270D01*
D02*
G37*
G36*
X107950Y348793D02*
X104673D01*
Y345554D01*
X107658D01*
X107747Y345567D01*
X107950Y345580D01*
X108166Y345592D01*
X108407Y345630D01*
X108623Y345669D01*
X108826Y345732D01*
X108852Y345745D01*
X108915Y345770D01*
X109004Y345808D01*
X109118Y345872D01*
X109233Y345948D01*
X109360Y346050D01*
X109487Y346177D01*
X109588Y346316D01*
X109601Y346329D01*
X109626Y346393D01*
X109677Y346469D01*
X109728Y346583D01*
X109766Y346710D01*
X109817Y346862D01*
X109842Y347015D01*
X109855Y347193D01*
Y347205D01*
Y347218D01*
Y347256D01*
X109842Y347307D01*
X109830Y347434D01*
X109791Y347599D01*
X109728Y347777D01*
X109639Y347967D01*
X109512Y348158D01*
X109347Y348336D01*
X109322Y348361D01*
X109245Y348412D01*
X109131Y348475D01*
X108953Y348564D01*
X108852Y348602D01*
X108737Y348653D01*
X108610Y348691D01*
X108458Y348717D01*
X108306Y348755D01*
X108140Y348767D01*
X107950Y348793D01*
D02*
G37*
G36*
X330676Y382270D02*
X330486D01*
X330327Y382238D01*
X330168D01*
X329946Y382206D01*
X329470Y382111D01*
X328930Y381921D01*
X328327Y381667D01*
X327755Y381349D01*
X327469Y381127D01*
X327184Y380873D01*
X327120Y380810D01*
X326962Y380619D01*
X326739Y380333D01*
X326485Y379921D01*
X326199Y379381D01*
X325946Y378746D01*
X325755Y378047D01*
X325660Y377222D01*
X335534D01*
Y377253D01*
Y377317D01*
X335502Y377444D01*
X335471Y377571D01*
Y377761D01*
X335407Y377984D01*
X335312Y378460D01*
X335153Y379000D01*
X334963Y379539D01*
X334709Y380079D01*
X334391Y380524D01*
Y380555D01*
X334328Y380587D01*
X334232Y380682D01*
X334137Y380810D01*
X333820Y381063D01*
X333407Y381413D01*
X332867Y381730D01*
X332232Y381984D01*
X331502Y382206D01*
X331089Y382238D01*
X330676Y382270D01*
D02*
G37*
G36*
X213169D02*
X212979D01*
X212820Y382238D01*
X212661D01*
X212439Y382206D01*
X211963Y382111D01*
X211423Y381921D01*
X210820Y381667D01*
X210249Y381349D01*
X209963Y381127D01*
X209677Y380873D01*
X209613Y380810D01*
X209455Y380619D01*
X209233Y380333D01*
X208979Y379921D01*
X208693Y379381D01*
X208439Y378746D01*
X208248Y378047D01*
X208153Y377222D01*
X218027D01*
Y377253D01*
Y377317D01*
X217995Y377444D01*
X217964Y377571D01*
Y377761D01*
X217900Y377984D01*
X217805Y378460D01*
X217646Y379000D01*
X217456Y379539D01*
X217202Y380079D01*
X216884Y380524D01*
Y380555D01*
X216821Y380587D01*
X216726Y380682D01*
X216630Y380810D01*
X216313Y381063D01*
X215900Y381413D01*
X215360Y381730D01*
X214725Y381984D01*
X213995Y382206D01*
X213582Y382238D01*
X213169Y382270D01*
D02*
G37*
%LPD*%
G36*
X154242Y375380D02*
X146558D01*
X154242Y386398D01*
Y375380D01*
D02*
G37*
D31*
X585546Y306390D02*
Y346390D01*
Y306390D02*
X588546D01*
X585546Y346390D02*
X588546D01*
X785546Y306390D02*
Y346390D01*
X782546D02*
X785546D01*
X782546Y306390D02*
X785546D01*
X740730Y453466D02*
X780730D01*
Y456466D01*
X740730Y453466D02*
Y456466D01*
Y653466D02*
X780730D01*
X740730Y650466D02*
Y653466D01*
X780730Y650466D02*
Y653466D01*
X592648Y453720D02*
X632648D01*
Y456720D01*
X592648Y453720D02*
Y456720D01*
Y653720D02*
X632648D01*
X592648Y650720D02*
Y653720D01*
X632648Y650720D02*
Y653720D01*
X541917Y426864D02*
X540949Y426380D01*
X539982Y425412D01*
X539498Y424445D01*
Y422510D01*
X539982Y421543D01*
X540949Y420575D01*
X541917Y420092D01*
X543368Y419608D01*
X545786D01*
X547238Y420092D01*
X548205Y420575D01*
X549172Y421543D01*
X549656Y422510D01*
Y424445D01*
X549172Y425412D01*
X548205Y426380D01*
X547238Y426864D01*
X539498Y429717D02*
X549656Y436489D01*
X539498D02*
X549656Y429717D01*
X539498Y443600D02*
X546270Y438763D01*
Y446018D01*
X539498Y443600D02*
X549656D01*
X539498Y459175D02*
X549656D01*
X539498Y455789D02*
Y462561D01*
X545786Y463770D02*
Y469575D01*
X544819D01*
X543852Y469091D01*
X543368Y468607D01*
X542884Y467640D01*
Y466189D01*
X543368Y465221D01*
X544335Y464254D01*
X545786Y463770D01*
X546754D01*
X548205Y464254D01*
X549172Y465221D01*
X549656Y466189D01*
Y467640D01*
X549172Y468607D01*
X548205Y469575D01*
X544335Y477072D02*
X543368Y476589D01*
X542884Y475137D01*
Y473686D01*
X543368Y472235D01*
X544335Y471752D01*
X545303Y472235D01*
X545786Y473203D01*
X546270Y475621D01*
X546754Y476589D01*
X547721Y477072D01*
X548205D01*
X549172Y476589D01*
X549656Y475137D01*
Y473686D01*
X549172Y472235D01*
X548205Y471752D01*
X539498Y480652D02*
X547721D01*
X549172Y481135D01*
X549656Y482103D01*
Y483070D01*
X542884Y479201D02*
Y482587D01*
X544819Y492502D02*
Y496856D01*
X544335Y498307D01*
X543852Y498791D01*
X542884Y499274D01*
X541433D01*
X540466Y498791D01*
X539982Y498307D01*
X539498Y496856D01*
Y492502D01*
X549656D01*
X542884Y503966D02*
X543368Y502999D01*
X544335Y502032D01*
X545786Y501548D01*
X546754D01*
X548205Y502032D01*
X549172Y502999D01*
X549656Y503966D01*
Y505417D01*
X549172Y506385D01*
X548205Y507352D01*
X546754Y507836D01*
X545786D01*
X544335Y507352D01*
X543368Y506385D01*
X542884Y505417D01*
Y503966D01*
Y510061D02*
X549656D01*
X545786D02*
X544335Y510545D01*
X543368Y511512D01*
X542884Y512480D01*
Y513931D01*
X539498Y516301D02*
X547721D01*
X549172Y516785D01*
X549656Y517752D01*
Y518719D01*
X542884Y514850D02*
Y518236D01*
X541917Y279290D02*
X540949Y278806D01*
X539982Y277838D01*
X539498Y276871D01*
Y274936D01*
X539982Y273969D01*
X540949Y273001D01*
X541917Y272518D01*
X543368Y272034D01*
X545786D01*
X547238Y272518D01*
X548205Y273001D01*
X549172Y273969D01*
X549656Y274936D01*
Y276871D01*
X549172Y277838D01*
X548205Y278806D01*
X547238Y279290D01*
X545786D01*
Y276871D02*
Y279290D01*
X544819Y281611D02*
Y285965D01*
X544335Y287416D01*
X543852Y287900D01*
X542884Y288383D01*
X541433D01*
X540466Y287900D01*
X539982Y287416D01*
X539498Y285965D01*
Y281611D01*
X549656D01*
X539498Y290657D02*
X549656D01*
X539498Y295687D02*
X539982Y294720D01*
X540949Y293752D01*
X541917Y293269D01*
X543368Y292785D01*
X545786D01*
X547238Y293269D01*
X548205Y293752D01*
X549172Y294720D01*
X549656Y295687D01*
Y297622D01*
X549172Y298589D01*
X548205Y299557D01*
X547238Y300041D01*
X545786Y300524D01*
X543368D01*
X541917Y300041D01*
X540949Y299557D01*
X539982Y298589D01*
X539498Y297622D01*
Y295687D01*
X594722Y265936D02*
X593271Y265452D01*
X592304Y264001D01*
X591820Y261583D01*
Y260131D01*
X592304Y257713D01*
X593271Y256262D01*
X594722Y255778D01*
X595690D01*
X597141Y256262D01*
X598108Y257713D01*
X598592Y260131D01*
Y261583D01*
X598108Y264001D01*
X597141Y265452D01*
X595690Y265936D01*
X594722D01*
X611886Y264001D02*
X612853Y264485D01*
X614305Y265936D01*
Y255778D01*
X632436Y263517D02*
Y264001D01*
X632919Y264968D01*
X633403Y265452D01*
X634370Y265936D01*
X636305D01*
X637273Y265452D01*
X637757Y264968D01*
X638240Y264001D01*
Y263034D01*
X637757Y262066D01*
X636789Y260615D01*
X631952Y255778D01*
X638724D01*
X653239Y265936D02*
X658560D01*
X655658Y262066D01*
X657109D01*
X658076Y261583D01*
X658560Y261099D01*
X659044Y259648D01*
Y258680D01*
X658560Y257229D01*
X657593Y256262D01*
X656142Y255778D01*
X654690D01*
X653239Y256262D01*
X652756Y256745D01*
X652272Y257713D01*
X676921Y265936D02*
X672084Y259164D01*
X679340D01*
X676921Y265936D02*
Y255778D01*
X697701Y266190D02*
X692863D01*
X692380Y261836D01*
X692863Y262320D01*
X694314Y262804D01*
X695766D01*
X697217Y262320D01*
X698184Y261353D01*
X698668Y259902D01*
Y258934D01*
X698184Y257483D01*
X697217Y256516D01*
X695766Y256032D01*
X694314D01*
X692863Y256516D01*
X692380Y256999D01*
X691896Y257967D01*
D54*
X585386Y295642D02*
G03*
X585386Y295642I-1250J0D01*
G01*
X792728Y452056D02*
G03*
X792728Y452056I-1250J0D01*
G01*
X86052Y611300D02*
G03*
X86052Y611300I-1250J0D01*
G01*
X303476Y796466D02*
G03*
X303476Y796466I-1250J0D01*
G01*
X730152Y758732D02*
G03*
X730152Y758732I-1250J0D01*
G01*
X644646Y452310D02*
G03*
X644646Y452310I-1250J0D01*
G01*
X105644Y565170D02*
G03*
X105644Y565170I-1250J0D01*
G01*
X87238Y662340D02*
G03*
X87238Y662340I-1250J0D01*
G01*
X322560Y750590D02*
G03*
X322560Y750590I-1250J0D01*
G01*
X682752Y740156D02*
G03*
X682752Y740156I-1250J0D01*
G01*
X304518Y846668D02*
G03*
X304518Y846668I-1250J0D01*
G01*
X780430Y757800D02*
G03*
X780430Y757800I-1250J0D01*
G01*
D55*
X101538Y685340D02*
G03*
X101538Y685340I-3000J0D01*
G01*
X318818Y869668D02*
G03*
X318818Y869668I-3000J0D01*
G01*
X805180Y745250D02*
G03*
X805180Y745250I-3000J0D01*
G01*
D56*
X88552Y617800D02*
Y626800D01*
X108552Y617800D02*
Y626800D01*
X88552Y617800D02*
X108552D01*
X88552Y626800D02*
X108552D01*
X305976Y802966D02*
Y811966D01*
X325976Y802966D02*
Y811966D01*
X305976Y802966D02*
X325976D01*
X305976Y811966D02*
X325976D01*
X735402Y754982D02*
X744402D01*
X735402Y734982D02*
X744402D01*
X735402D02*
Y754982D01*
X744402Y734982D02*
Y754982D01*
X259080Y938022D02*
Y940562D01*
X252730D02*
X265430D01*
X554914Y937912D02*
Y940452D01*
X548564D02*
X561264D01*
X850697Y938059D02*
Y940599D01*
X844347D02*
X857047D01*
X138944Y580390D02*
Y585470D01*
X107944Y580390D02*
Y585470D01*
X138944D01*
X107944Y580390D02*
X138944D01*
X88538Y675340D02*
X138538D01*
X88538Y701340D02*
X138538D01*
X88538Y675340D02*
Y701340D01*
X138538Y675340D02*
Y701340D01*
X355860Y765810D02*
Y770890D01*
X324860Y765810D02*
Y770890D01*
X355860D01*
X324860Y765810D02*
X355860D01*
X696722Y705606D02*
X701802D01*
X696722Y736606D02*
X701802D01*
Y705606D02*
Y736606D01*
X696722Y705606D02*
Y736606D01*
X305818Y859668D02*
X355818D01*
X305818Y885668D02*
X355818D01*
X305818Y859668D02*
Y885668D01*
X355818Y859668D02*
Y885668D01*
X792180Y705250D02*
Y755250D01*
X818180Y705250D02*
Y755250D01*
X792180D02*
X818180D01*
X792180Y705250D02*
X818180D01*
D57*
X557530Y419100D02*
Y675640D01*
X815340D01*
Y419100D02*
Y675640D01*
X557530Y419100D02*
X815340D01*
X557530Y388620D02*
X815340D01*
Y271780D02*
Y388620D01*
X557530Y271780D02*
Y388620D01*
Y271780D02*
X815340D01*
D58*
X637073Y1002790D02*
X634703D01*
X635888D01*
Y996865D01*
X634703Y995680D01*
X633518D01*
X632333Y996865D01*
X642998Y995680D02*
Y1002790D01*
X639443Y999235D01*
X644183D01*
X341417Y1002790D02*
X339047D01*
X340232D01*
Y996865D01*
X339047Y995680D01*
X337862D01*
X336677Y996865D01*
X343787Y1001605D02*
X344972Y1002790D01*
X347341D01*
X348526Y1001605D01*
Y1000420D01*
X347341Y999235D01*
X346157D01*
X347341D01*
X348526Y998050D01*
Y996865D01*
X347341Y995680D01*
X344972D01*
X343787Y996865D01*
X44110Y1002790D02*
X41740D01*
X42925D01*
Y996865D01*
X41740Y995680D01*
X40555D01*
X39370Y996865D01*
X51220Y995680D02*
X46480D01*
X51220Y1000420D01*
Y1001605D01*
X50034Y1002790D01*
X47665D01*
X46480Y1001605D01*
X70526Y794595D02*
X69341Y795780D01*
X66971D01*
X65786Y794595D01*
Y789855D01*
X66971Y788670D01*
X69341D01*
X70526Y789855D01*
X77635Y788670D02*
X72896D01*
X77635Y793410D01*
Y794595D01*
X76451Y795780D01*
X74081D01*
X72896Y794595D01*
X70526Y784435D02*
X69341Y785620D01*
X66971D01*
X65786Y784435D01*
Y779695D01*
X66971Y778510D01*
X69341D01*
X70526Y779695D01*
X72896Y784435D02*
X74081Y785620D01*
X76451D01*
X77635Y784435D01*
Y783250D01*
X76451Y782065D01*
X75266D01*
X76451D01*
X77635Y780880D01*
Y779695D01*
X76451Y778510D01*
X74081D01*
X72896Y779695D01*
X70526Y771481D02*
X69341Y772666D01*
X66971D01*
X65786Y771481D01*
Y766741D01*
X66971Y765556D01*
X69341D01*
X70526Y766741D01*
X76451Y765556D02*
Y772666D01*
X72896Y769111D01*
X77635D01*
X70526Y753701D02*
X69341Y754886D01*
X66971D01*
X65786Y753701D01*
Y748961D01*
X66971Y747776D01*
X69341D01*
X70526Y748961D01*
X77635Y754886D02*
X72896D01*
Y751331D01*
X75266Y752516D01*
X76451D01*
X77635Y751331D01*
Y748961D01*
X76451Y747776D01*
X74081D01*
X72896Y748961D01*
X227247Y946318D02*
X226062Y945133D01*
Y942763D01*
X227247Y941578D01*
X231987D01*
X233172Y942763D01*
Y945133D01*
X231987Y946318D01*
X226062Y953428D02*
X227247Y951058D01*
X229617Y948688D01*
X231987D01*
X233172Y949873D01*
Y952243D01*
X231987Y953428D01*
X230802D01*
X229617Y952243D01*
Y948688D01*
X93389Y520360D02*
X92204Y519175D01*
Y516805D01*
X93389Y515620D01*
X98129D01*
X99314Y516805D01*
Y519175D01*
X98129Y520360D01*
X92204Y522730D02*
Y527469D01*
X93389D01*
X98129Y522730D01*
X99314D01*
X83737Y581574D02*
X82552Y580389D01*
Y578019D01*
X83737Y576834D01*
X88477D01*
X89662Y578019D01*
Y580389D01*
X88477Y581574D01*
X83737Y583944D02*
X82552Y585129D01*
Y587499D01*
X83737Y588684D01*
X84922D01*
X86107Y587499D01*
X87292Y588684D01*
X88477D01*
X89662Y587499D01*
Y585129D01*
X88477Y583944D01*
X87292D01*
X86107Y585129D01*
X84922Y583944D01*
X83737D01*
X86107Y585129D02*
Y587499D01*
X115992Y634575D02*
X114807Y635760D01*
X112437D01*
X111252Y634575D01*
Y629835D01*
X112437Y628650D01*
X114807D01*
X115992Y629835D01*
X118362D02*
X119547Y628650D01*
X121917D01*
X123102Y629835D01*
Y634575D01*
X121917Y635760D01*
X119547D01*
X118362Y634575D01*
Y633390D01*
X119547Y632205D01*
X123102D01*
X125644Y647021D02*
X124459Y648206D01*
X122089D01*
X120904Y647021D01*
Y642281D01*
X122089Y641096D01*
X124459D01*
X125644Y642281D01*
X128014Y641096D02*
X130384D01*
X129199D01*
Y648206D01*
X128014Y647021D01*
X133938D02*
X135123Y648206D01*
X137493D01*
X138678Y647021D01*
Y642281D01*
X137493Y641096D01*
X135123D01*
X133938Y642281D01*
Y647021D01*
X283886Y977983D02*
X282701Y979168D01*
X280331D01*
X279146Y977983D01*
Y973243D01*
X280331Y972058D01*
X282701D01*
X283886Y973243D01*
X286256Y972058D02*
X288626D01*
X287441D01*
Y979168D01*
X286256Y977983D01*
X292180Y972058D02*
X294550D01*
X293365D01*
Y979168D01*
X292180Y977983D01*
X283886Y968077D02*
X282701Y969262D01*
X280331D01*
X279146Y968077D01*
Y963337D01*
X280331Y962152D01*
X282701D01*
X283886Y963337D01*
X286256Y962152D02*
X288626D01*
X287441D01*
Y969262D01*
X286256Y968077D01*
X296920Y962152D02*
X292180D01*
X296920Y966892D01*
Y968077D01*
X295735Y969262D01*
X293365D01*
X292180Y968077D01*
X284140Y953599D02*
X282955Y954784D01*
X280585D01*
X279400Y953599D01*
Y948859D01*
X280585Y947674D01*
X282955D01*
X284140Y948859D01*
X286510Y947674D02*
X288880D01*
X287695D01*
Y954784D01*
X286510Y953599D01*
X292434D02*
X293619Y954784D01*
X295989D01*
X297174Y953599D01*
Y952414D01*
X295989Y951229D01*
X294804D01*
X295989D01*
X297174Y950044D01*
Y948859D01*
X295989Y947674D01*
X293619D01*
X292434Y948859D01*
X284394Y938359D02*
X283209Y939544D01*
X280839D01*
X279654Y938359D01*
Y933619D01*
X280839Y932434D01*
X283209D01*
X284394Y933619D01*
X286764Y932434D02*
X289134D01*
X287949D01*
Y939544D01*
X286764Y938359D01*
X296243Y932434D02*
Y939544D01*
X292688Y935989D01*
X297428D01*
X522395Y946318D02*
X521210Y945133D01*
Y942763D01*
X522395Y941578D01*
X527135D01*
X528320Y942763D01*
Y945133D01*
X527135Y946318D01*
X528320Y948688D02*
Y951058D01*
Y949873D01*
X521210D01*
X522395Y948688D01*
X521210Y959352D02*
Y954612D01*
X524765D01*
X523580Y956982D01*
Y958167D01*
X524765Y959352D01*
X527135D01*
X528320Y958167D01*
Y955797D01*
X527135Y954612D01*
X311321Y701970D02*
X310136Y700785D01*
Y698415D01*
X311321Y697230D01*
X316061D01*
X317246Y698415D01*
Y700785D01*
X316061Y701970D01*
X317246Y704340D02*
Y706710D01*
Y705525D01*
X310136D01*
X311321Y704340D01*
X310136Y715004D02*
X311321Y712634D01*
X313691Y710264D01*
X316061D01*
X317246Y711449D01*
Y713819D01*
X316061Y715004D01*
X314876D01*
X313691Y713819D01*
Y710264D01*
X301669Y764708D02*
X300484Y763523D01*
Y761153D01*
X301669Y759968D01*
X306409D01*
X307594Y761153D01*
Y763523D01*
X306409Y764708D01*
X307594Y767078D02*
Y769448D01*
Y768263D01*
X300484D01*
X301669Y767078D01*
X300484Y773002D02*
Y777742D01*
X301669D01*
X306409Y773002D01*
X307594D01*
X330876Y819995D02*
X329691Y821180D01*
X327321D01*
X326136Y819995D01*
Y815255D01*
X327321Y814070D01*
X329691D01*
X330876Y815255D01*
X333246Y814070D02*
X335616D01*
X334431D01*
Y821180D01*
X333246Y819995D01*
X339170D02*
X340355Y821180D01*
X342725D01*
X343910Y819995D01*
Y818810D01*
X342725Y817625D01*
X343910Y816440D01*
Y815255D01*
X342725Y814070D01*
X340355D01*
X339170Y815255D01*
Y816440D01*
X340355Y817625D01*
X339170Y818810D01*
Y819995D01*
X340355Y817625D02*
X342725D01*
X344084Y832187D02*
X342899Y833372D01*
X340529D01*
X339344Y832187D01*
Y827447D01*
X340529Y826262D01*
X342899D01*
X344084Y827447D01*
X346454Y826262D02*
X348824D01*
X347639D01*
Y833372D01*
X346454Y832187D01*
X352378Y827447D02*
X353563Y826262D01*
X355933D01*
X357118Y827447D01*
Y832187D01*
X355933Y833372D01*
X353563D01*
X352378Y832187D01*
Y831002D01*
X353563Y829817D01*
X357118D01*
X776903Y795696D02*
X775718Y794511D01*
Y792141D01*
X776903Y790956D01*
X781643D01*
X782828Y792141D01*
Y794511D01*
X781643Y795696D01*
X782828Y802805D02*
Y798066D01*
X778088Y802805D01*
X776903D01*
X775718Y801620D01*
Y799251D01*
X776903Y798066D01*
Y805175D02*
X775718Y806360D01*
Y808730D01*
X776903Y809915D01*
X781643D01*
X782828Y808730D01*
Y806360D01*
X781643Y805175D01*
X776903D01*
X786809Y795696D02*
X785624Y794511D01*
Y792141D01*
X786809Y790956D01*
X791549D01*
X792734Y792141D01*
Y794511D01*
X791549Y795696D01*
X792734Y802805D02*
Y798066D01*
X787994Y802805D01*
X786809D01*
X785624Y801620D01*
Y799251D01*
X786809Y798066D01*
X792734Y805175D02*
Y807545D01*
Y806360D01*
X785624D01*
X786809Y805175D01*
X800271Y808142D02*
X799086Y806957D01*
Y804587D01*
X800271Y803402D01*
X805011D01*
X806196Y804587D01*
Y806957D01*
X805011Y808142D01*
X806196Y815251D02*
Y810512D01*
X801456Y815251D01*
X800271D01*
X799086Y814066D01*
Y811697D01*
X800271Y810512D01*
X806196Y822361D02*
Y817621D01*
X801456Y822361D01*
X800271D01*
X799086Y821176D01*
Y818806D01*
X800271Y817621D01*
X825671Y820842D02*
X824486Y819657D01*
Y817287D01*
X825671Y816102D01*
X830411D01*
X831596Y817287D01*
Y819657D01*
X830411Y820842D01*
X831596Y827952D02*
Y823212D01*
X826856Y827952D01*
X825671D01*
X824486Y826767D01*
Y824397D01*
X825671Y823212D01*
Y830321D02*
X824486Y831506D01*
Y833876D01*
X825671Y835061D01*
X826856D01*
X828041Y833876D01*
Y832691D01*
Y833876D01*
X829226Y835061D01*
X830411D01*
X831596Y833876D01*
Y831506D01*
X830411Y830321D01*
X818051Y946318D02*
X816866Y945133D01*
Y942763D01*
X818051Y941578D01*
X822791D01*
X823976Y942763D01*
Y945133D01*
X822791Y946318D01*
X823976Y953428D02*
Y948688D01*
X819236Y953428D01*
X818051D01*
X816866Y952243D01*
Y949873D01*
X818051Y948688D01*
X823976Y959352D02*
X816866D01*
X820421Y955797D01*
Y960537D01*
X630850Y751415D02*
X629665Y752600D01*
X627295D01*
X626110Y751415D01*
Y746675D01*
X627295Y745490D01*
X629665D01*
X630850Y746675D01*
X637960Y745490D02*
X633220D01*
X637960Y750230D01*
Y751415D01*
X636774Y752600D01*
X634405D01*
X633220Y751415D01*
X645069Y752600D02*
X640329D01*
Y749045D01*
X642699Y750230D01*
X643884D01*
X645069Y749045D01*
Y746675D01*
X643884Y745490D01*
X641514D01*
X640329Y746675D01*
X694858Y760051D02*
X693673Y761236D01*
X691303D01*
X690118Y760051D01*
Y755311D01*
X691303Y754126D01*
X693673D01*
X694858Y755311D01*
X701967Y754126D02*
X697228D01*
X701967Y758866D01*
Y760051D01*
X700782Y761236D01*
X698413D01*
X697228Y760051D01*
X709077Y761236D02*
X706707Y760051D01*
X704337Y757681D01*
Y755311D01*
X705522Y754126D01*
X707892D01*
X709077Y755311D01*
Y756496D01*
X707892Y757681D01*
X704337D01*
X753447Y730082D02*
X754632Y731267D01*
Y733637D01*
X753447Y734822D01*
X748707D01*
X747522Y733637D01*
Y731267D01*
X748707Y730082D01*
X747522Y722972D02*
Y727712D01*
X752262Y722972D01*
X753447D01*
X754632Y724157D01*
Y726527D01*
X753447Y727712D01*
X754632Y720603D02*
Y715863D01*
X753447D01*
X748707Y720603D01*
X747522D01*
X764623Y717382D02*
X765808Y718567D01*
Y720937D01*
X764623Y722122D01*
X759883D01*
X758698Y720937D01*
Y718567D01*
X759883Y717382D01*
X758698Y710273D02*
Y715012D01*
X763438Y710273D01*
X764623D01*
X765808Y711458D01*
Y713827D01*
X764623Y715012D01*
Y707903D02*
X765808Y706718D01*
Y704348D01*
X764623Y703163D01*
X763438D01*
X762253Y704348D01*
X761068Y703163D01*
X759883D01*
X758698Y704348D01*
Y706718D01*
X759883Y707903D01*
X761068D01*
X762253Y706718D01*
X763438Y707903D01*
X764623D01*
X762253Y706718D02*
Y704348D01*
X249809Y1003933D02*
Y996823D01*
X253364D01*
X254549Y998008D01*
Y1002748D01*
X253364Y1003933D01*
X249809D01*
X261658Y1002748D02*
X260473Y1003933D01*
X258104D01*
X256919Y1002748D01*
Y1001563D01*
X258104Y1000378D01*
X260473D01*
X261658Y999193D01*
Y998008D01*
X260473Y996823D01*
X258104D01*
X256919Y998008D01*
X264028Y996823D02*
X266398D01*
X265213D01*
Y1003933D01*
X264028Y1002748D01*
X545643Y1003823D02*
Y996713D01*
X549198D01*
X550383Y997898D01*
Y1002638D01*
X549198Y1003823D01*
X545643D01*
X557492Y1002638D02*
X556307Y1003823D01*
X553938D01*
X552753Y1002638D01*
Y1001453D01*
X553938Y1000268D01*
X556307D01*
X557492Y999083D01*
Y997898D01*
X556307Y996713D01*
X553938D01*
X552753Y997898D01*
X564602Y996713D02*
X559862D01*
X564602Y1001453D01*
Y1002638D01*
X563417Y1003823D01*
X561047D01*
X559862Y1002638D01*
X841426Y1003970D02*
Y996860D01*
X844981D01*
X846165Y998045D01*
Y1002785D01*
X844981Y1003970D01*
X841426D01*
X853275Y1002785D02*
X852090Y1003970D01*
X849720D01*
X848535Y1002785D01*
Y1001600D01*
X849720Y1000415D01*
X852090D01*
X853275Y999230D01*
Y998045D01*
X852090Y996860D01*
X849720D01*
X848535Y998045D01*
X855645Y1002785D02*
X856830Y1003970D01*
X859200D01*
X860385Y1002785D01*
Y1001600D01*
X859200Y1000415D01*
X858015D01*
X859200D01*
X860385Y999230D01*
Y998045D01*
X859200Y996860D01*
X856830D01*
X855645Y998045D01*
X233172Y970788D02*
X226062D01*
Y974343D01*
X227247Y975528D01*
X229617D01*
X230802Y974343D01*
Y970788D01*
Y973158D02*
X233172Y975528D01*
Y977898D02*
Y980268D01*
Y979083D01*
X226062D01*
X227247Y977898D01*
X109474Y515620D02*
X102364D01*
Y519175D01*
X103549Y520360D01*
X105919D01*
X107104Y519175D01*
Y515620D01*
Y517990D02*
X109474Y520360D01*
Y527469D02*
Y522730D01*
X104734Y527469D01*
X103549D01*
X102364Y526284D01*
Y523915D01*
X103549Y522730D01*
X119634Y515620D02*
X112524D01*
Y519175D01*
X113709Y520360D01*
X116079D01*
X117264Y519175D01*
Y515620D01*
Y517990D02*
X119634Y520360D01*
X113709Y522730D02*
X112524Y523915D01*
Y526284D01*
X113709Y527469D01*
X114894D01*
X116079Y526284D01*
Y525100D01*
Y526284D01*
X117264Y527469D01*
X118449D01*
X119634Y526284D01*
Y523915D01*
X118449Y522730D01*
X129794Y515620D02*
X122684D01*
Y519175D01*
X123869Y520360D01*
X126239D01*
X127424Y519175D01*
Y515620D01*
Y517990D02*
X129794Y520360D01*
Y526284D02*
X122684D01*
X126239Y522730D01*
Y527469D01*
X528320Y970788D02*
X521210D01*
Y974343D01*
X522395Y975528D01*
X524765D01*
X525950Y974343D01*
Y970788D01*
Y973158D02*
X528320Y975528D01*
X521210Y982637D02*
Y977898D01*
X524765D01*
X523580Y980268D01*
Y981452D01*
X524765Y982637D01*
X527135D01*
X528320Y981452D01*
Y979083D01*
X527135Y977898D01*
X139954Y515620D02*
X132844D01*
Y519175D01*
X134029Y520360D01*
X136399D01*
X137584Y519175D01*
Y515620D01*
Y517990D02*
X139954Y520360D01*
X132844Y527469D02*
X134029Y525100D01*
X136399Y522730D01*
X138769D01*
X139954Y523915D01*
Y526284D01*
X138769Y527469D01*
X137584D01*
X136399Y526284D01*
Y522730D01*
X147320Y620522D02*
X140210D01*
Y624077D01*
X141395Y625262D01*
X143765D01*
X144950Y624077D01*
Y620522D01*
Y622892D02*
X147320Y625262D01*
X140210Y627632D02*
Y632371D01*
X141395D01*
X146135Y627632D01*
X147320D01*
X326900Y697230D02*
X319791D01*
Y700785D01*
X320976Y701970D01*
X323345D01*
X324530Y700785D01*
Y697230D01*
Y699600D02*
X326900Y701970D01*
X320976Y704340D02*
X319791Y705525D01*
Y707895D01*
X320976Y709080D01*
X322160D01*
X323345Y707895D01*
X324530Y709080D01*
X325715D01*
X326900Y707895D01*
Y705525D01*
X325715Y704340D01*
X324530D01*
X323345Y705525D01*
X322160Y704340D01*
X320976D01*
X323345Y705525D02*
Y707895D01*
X336296Y697230D02*
X329186D01*
Y700785D01*
X330371Y701970D01*
X332741D01*
X333926Y700785D01*
Y697230D01*
Y699600D02*
X336296Y701970D01*
X335111Y704340D02*
X336296Y705525D01*
Y707895D01*
X335111Y709080D01*
X330371D01*
X329186Y707895D01*
Y705525D01*
X330371Y704340D01*
X331556D01*
X332741Y705525D01*
Y709080D01*
X345694Y697230D02*
X338584D01*
Y700785D01*
X339769Y701970D01*
X342139D01*
X343324Y700785D01*
Y697230D01*
Y699600D02*
X345694Y701970D01*
Y704340D02*
Y706710D01*
Y705525D01*
X338584D01*
X339769Y704340D01*
Y710264D02*
X338584Y711449D01*
Y713819D01*
X339769Y715004D01*
X344509D01*
X345694Y713819D01*
Y711449D01*
X344509Y710264D01*
X339769D01*
X823976Y970788D02*
X816866D01*
Y974343D01*
X818051Y975528D01*
X820421D01*
X821606Y974343D01*
Y970788D01*
Y973158D02*
X823976Y975528D01*
Y977898D02*
Y980268D01*
Y979083D01*
X816866D01*
X818051Y977898D01*
X823976Y983822D02*
Y986192D01*
Y985007D01*
X816866D01*
X818051Y983822D01*
X626110Y735584D02*
Y742694D01*
X629665D01*
X630850Y741509D01*
Y739139D01*
X629665Y737954D01*
X626110D01*
X628480D02*
X630850Y735584D01*
X633220D02*
X635590D01*
X634405D01*
Y742694D01*
X633220Y741509D01*
X643884Y735584D02*
X639144D01*
X643884Y740324D01*
Y741509D01*
X642699Y742694D01*
X640329D01*
X639144Y741509D01*
X626110Y725424D02*
Y732534D01*
X629665D01*
X630850Y731349D01*
Y728979D01*
X629665Y727794D01*
X626110D01*
X628480D02*
X630850Y725424D01*
X633220D02*
X635590D01*
X634405D01*
Y732534D01*
X633220Y731349D01*
X639144D02*
X640329Y732534D01*
X642699D01*
X643884Y731349D01*
Y730164D01*
X642699Y728979D01*
X641514D01*
X642699D01*
X643884Y727794D01*
Y726609D01*
X642699Y725424D01*
X640329D01*
X639144Y726609D01*
X626110Y715518D02*
Y722628D01*
X629665D01*
X630850Y721443D01*
Y719073D01*
X629665Y717888D01*
X626110D01*
X628480D02*
X630850Y715518D01*
X633220D02*
X635590D01*
X634405D01*
Y722628D01*
X633220Y721443D01*
X642699Y715518D02*
Y722628D01*
X639144Y719073D01*
X643884D01*
X355092Y697230D02*
X347982D01*
Y700785D01*
X349167Y701970D01*
X351537D01*
X352722Y700785D01*
Y697230D01*
Y699600D02*
X355092Y701970D01*
Y704340D02*
Y706710D01*
Y705525D01*
X347982D01*
X349167Y704340D01*
X347982Y715004D02*
Y710264D01*
X351537D01*
X350352Y712634D01*
Y713819D01*
X351537Y715004D01*
X353907D01*
X355092Y713819D01*
Y711449D01*
X353907Y710264D01*
X364744Y805688D02*
X357634D01*
Y809243D01*
X358819Y810428D01*
X361189D01*
X362374Y809243D01*
Y805688D01*
Y808058D02*
X364744Y810428D01*
Y812798D02*
Y815168D01*
Y813983D01*
X357634D01*
X358819Y812798D01*
X357634Y823462D02*
X358819Y821092D01*
X361189Y818722D01*
X363559D01*
X364744Y819907D01*
Y822277D01*
X363559Y823462D01*
X362374D01*
X361189Y822277D01*
Y818722D01*
X626110Y705612D02*
Y712722D01*
X629665D01*
X630850Y711537D01*
Y709167D01*
X629665Y707982D01*
X626110D01*
X628480D02*
X630850Y705612D01*
X633220D02*
X635590D01*
X634405D01*
Y712722D01*
X633220Y711537D01*
X639144Y712722D02*
X643884D01*
Y711537D01*
X639144Y706797D01*
Y705612D01*
X739394Y695452D02*
Y702562D01*
X742949D01*
X744134Y701377D01*
Y699007D01*
X742949Y697822D01*
X739394D01*
X741764D02*
X744134Y695452D01*
X746504D02*
X748874D01*
X747689D01*
Y702562D01*
X746504Y701377D01*
X752428D02*
X753613Y702562D01*
X755983D01*
X757168Y701377D01*
Y700192D01*
X755983Y699007D01*
X757168Y697822D01*
Y696637D01*
X755983Y695452D01*
X753613D01*
X752428Y696637D01*
Y697822D01*
X753613Y699007D01*
X752428Y700192D01*
Y701377D01*
X753613Y699007D02*
X755983D01*
X74424Y617474D02*
X80349D01*
X81534Y618659D01*
Y621029D01*
X80349Y622214D01*
X74424D01*
X75609Y624584D02*
X74424Y625769D01*
Y628139D01*
X75609Y629324D01*
X76794D01*
X77979Y628139D01*
Y626954D01*
Y628139D01*
X79164Y629324D01*
X80349D01*
X81534Y628139D01*
Y625769D01*
X80349Y624584D01*
X76456Y675386D02*
X82381D01*
X83566Y676571D01*
Y678941D01*
X82381Y680126D01*
X76456D01*
X83566Y686050D02*
X76456D01*
X80011Y682496D01*
Y687235D01*
X292356Y801624D02*
X298281D01*
X299466Y802809D01*
Y805179D01*
X298281Y806364D01*
X292356D01*
Y813474D02*
X293541Y811104D01*
X295911Y808734D01*
X298281D01*
X299466Y809919D01*
Y812289D01*
X298281Y813474D01*
X297096D01*
X295911Y812289D01*
Y808734D01*
X734568Y768348D02*
Y762423D01*
X735753Y761238D01*
X738123D01*
X739308Y762423D01*
Y768348D01*
X741678Y767163D02*
X742863Y768348D01*
X745232D01*
X746417Y767163D01*
Y765978D01*
X745232Y764793D01*
X746417Y763608D01*
Y762423D01*
X745232Y761238D01*
X742863D01*
X741678Y762423D01*
Y763608D01*
X742863Y764793D01*
X741678Y765978D01*
Y767163D01*
X742863Y764793D02*
X745232D01*
X292864Y861568D02*
X298789D01*
X299974Y862753D01*
Y865123D01*
X298789Y866308D01*
X292864D01*
X298789Y868678D02*
X299974Y869863D01*
Y872233D01*
X298789Y873418D01*
X294049D01*
X292864Y872233D01*
Y869863D01*
X294049Y868678D01*
X295234D01*
X296419Y869863D01*
Y873418D01*
X791972Y698498D02*
Y692573D01*
X793157Y691388D01*
X795527D01*
X796712Y692573D01*
Y698498D01*
X799082Y691388D02*
X801452D01*
X800267D01*
Y698498D01*
X799082Y697313D01*
X805006D02*
X806191Y698498D01*
X808561D01*
X809746Y697313D01*
Y692573D01*
X808561Y691388D01*
X806191D01*
X805006Y692573D01*
Y697313D01*
X143766Y573786D02*
X149691D01*
X150876Y574971D01*
Y577341D01*
X149691Y578526D01*
X143766D01*
X150876Y585635D02*
Y580896D01*
X146136Y585635D01*
X144951D01*
X143766Y584450D01*
Y582081D01*
X144951Y580896D01*
X360682Y759460D02*
X366607D01*
X367792Y760645D01*
Y763015D01*
X366607Y764200D01*
X360682D01*
Y771310D02*
Y766570D01*
X364237D01*
X363052Y768940D01*
Y770125D01*
X364237Y771310D01*
X366607D01*
X367792Y770125D01*
Y767755D01*
X366607Y766570D01*
X689356Y701038D02*
Y695113D01*
X690541Y693928D01*
X692911D01*
X694096Y695113D01*
Y701038D01*
X696466D02*
X701206D01*
Y699853D01*
X696466Y695113D01*
Y693928D01*
X569722Y376174D02*
Y383284D01*
X573277D01*
X574462Y382099D01*
Y379729D01*
X573277Y378544D01*
X569722D01*
X576832Y382099D02*
X578017Y383284D01*
X580387D01*
X581572Y382099D01*
Y380914D01*
X580387Y379729D01*
X579202D01*
X580387D01*
X581572Y378544D01*
Y377359D01*
X580387Y376174D01*
X578017D01*
X576832Y377359D01*
X719836Y424180D02*
Y431290D01*
X723391D01*
X724576Y430105D01*
Y427735D01*
X723391Y426550D01*
X719836D01*
X731685Y424180D02*
X726946D01*
X731685Y428920D01*
Y430105D01*
X730500Y431290D01*
X728131D01*
X726946Y430105D01*
X571246Y424434D02*
Y431544D01*
X574801D01*
X575986Y430359D01*
Y427989D01*
X574801Y426804D01*
X571246D01*
X578356Y424434D02*
X580726D01*
X579541D01*
Y431544D01*
X578356Y430359D01*
M02*
