%FSLAX25Y25*%
%MOIN*%
G70*
G01*
G75*
G04 Layer_Physical_Order=3*
G04 Layer_Color=36540*
%ADD10C,0.00800*%
%ADD11R,0.10236X0.04331*%
%ADD12R,0.04331X0.10236*%
%ADD13R,0.06693X0.04528*%
%ADD14R,0.07087X0.07087*%
G04:AMPARAMS|DCode=15|XSize=19.69mil|YSize=23.62mil|CornerRadius=4.92mil|HoleSize=0mil|Usage=FLASHONLY|Rotation=90.000|XOffset=0mil|YOffset=0mil|HoleType=Round|Shape=RoundedRectangle|*
%AMROUNDEDRECTD15*
21,1,0.01969,0.01378,0,0,90.0*
21,1,0.00984,0.02362,0,0,90.0*
1,1,0.00984,0.00689,0.00492*
1,1,0.00984,0.00689,-0.00492*
1,1,0.00984,-0.00689,-0.00492*
1,1,0.00984,-0.00689,0.00492*
%
%ADD15ROUNDEDRECTD15*%
%ADD16R,0.04528X0.06693*%
%ADD17C,0.03937*%
%ADD18R,0.02362X0.02362*%
%ADD19C,0.01772*%
%ADD20R,0.47441X0.07874*%
%ADD21R,0.02362X0.02362*%
%ADD22R,0.02362X0.07087*%
G04:AMPARAMS|DCode=23|XSize=19.69mil|YSize=23.62mil|CornerRadius=4.92mil|HoleSize=0mil|Usage=FLASHONLY|Rotation=180.000|XOffset=0mil|YOffset=0mil|HoleType=Round|Shape=RoundedRectangle|*
%AMROUNDEDRECTD23*
21,1,0.01969,0.01378,0,0,180.0*
21,1,0.00984,0.02362,0,0,180.0*
1,1,0.00984,-0.00492,0.00689*
1,1,0.00984,0.00492,0.00689*
1,1,0.00984,0.00492,-0.00689*
1,1,0.00984,-0.00492,-0.00689*
%
%ADD23ROUNDEDRECTD23*%
%ADD24R,0.03740X0.01378*%
%ADD25R,0.01378X0.03740*%
%ADD26R,0.12992X0.12992*%
%ADD27R,0.04528X0.07087*%
%ADD28R,0.01969X0.07874*%
%ADD29R,0.14488X0.05000*%
%ADD30R,0.05512X0.03937*%
%ADD31R,0.03937X0.05512*%
%ADD32R,0.12992X0.12992*%
%ADD33R,0.05512X0.04331*%
%ADD34R,0.04331X0.05512*%
%ADD35C,0.00500*%
%ADD36C,0.01000*%
%ADD37C,0.01969*%
%ADD38C,0.01500*%
%ADD39C,0.01200*%
%ADD40C,0.00600*%
%ADD41C,0.02000*%
%ADD42C,0.03740*%
%ADD43R,0.07874X0.07874*%
%ADD44C,0.31496*%
%ADD45C,0.06496*%
%ADD46C,0.05800*%
%ADD47C,0.01940*%
%ADD48C,0.05000*%
%ADD49C,0.02598*%
%ADD50C,0.04000*%
%ADD51C,0.05740*%
%ADD52C,0.06134*%
%ADD53C,0.17000*%
%ADD54C,0.06600*%
%ADD55C,0.08102*%
%ADD56C,0.08000*%
%ADD57C,0.03969*%
%ADD58C,0.03000*%
%ADD59C,0.04800*%
%ADD60C,0.00394*%
%ADD61C,0.00400*%
G36*
X167323Y228346D02*
X153543Y214567D01*
X110236D01*
Y222441D01*
X149606D01*
Y222441D01*
X161417Y234252D01*
X162988D01*
X163096Y234207D01*
X163871Y234105D01*
X164646Y234207D01*
X164754Y234252D01*
X167323D01*
Y228346D01*
D02*
G37*
G36*
X281496D02*
X267717Y214567D01*
X224410D01*
Y222441D01*
X263779D01*
Y222441D01*
X275590Y234252D01*
X281496D01*
Y228346D01*
D02*
G37*
G36*
X291339Y272024D02*
X284696D01*
Y262150D01*
X290345D01*
X290442Y261659D01*
X289756Y261375D01*
X289136Y260899D01*
X288660Y260279D01*
X288361Y259557D01*
X288259Y258782D01*
X288361Y258007D01*
X288660Y257285D01*
X289136Y256665D01*
X289508Y256379D01*
X289347Y255906D01*
X282156D01*
X281995Y256379D01*
X282507Y256772D01*
X282967Y257371D01*
X283256Y258070D01*
X283355Y258819D01*
X283256Y259568D01*
X282967Y260266D01*
X282507Y260866D01*
X281908Y261326D01*
X281209Y261615D01*
X280460Y261714D01*
X279711Y261615D01*
X279013Y261326D01*
X278413Y260866D01*
X277953Y260266D01*
X277664Y259568D01*
X277565Y258819D01*
X277664Y258070D01*
X277953Y257371D01*
X278413Y256772D01*
X278925Y256379D01*
X278765Y255906D01*
X277599D01*
X277446Y256674D01*
X277011Y257326D01*
X276359Y257761D01*
X275590Y257914D01*
X274822Y257761D01*
X274170Y257326D01*
X273735Y256674D01*
X273582Y255906D01*
X267757D01*
X267604Y256674D01*
X267168Y257326D01*
X266517Y257761D01*
X265748Y257914D01*
X264979Y257761D01*
X264661Y257548D01*
X264274Y257866D01*
X264359Y258070D01*
X264458Y258819D01*
X264359Y259568D01*
X264070Y260266D01*
X263610Y260866D01*
X263010Y261326D01*
X262312Y261615D01*
X261563Y261714D01*
X260813Y261615D01*
X260115Y261326D01*
X259516Y260866D01*
X259056Y260266D01*
X258766Y259568D01*
X258724Y259250D01*
X258300Y259051D01*
D01*
D01*
X258300D01*
X258300Y259051D01*
X258300D01*
X257812Y259149D01*
X253543D01*
X253056Y259051D01*
X252642Y258775D01*
X249772Y255906D01*
X246103D01*
X245950Y256674D01*
X245515Y257326D01*
X244863Y257761D01*
X244094Y257914D01*
X243326Y257761D01*
X242674Y257326D01*
X242239Y256674D01*
X242183Y256393D01*
X226679D01*
X226458Y256841D01*
X226865Y257371D01*
X227154Y258070D01*
X227253Y258819D01*
X227154Y259568D01*
X226865Y260266D01*
X226405Y260866D01*
X225805Y261326D01*
X225107Y261615D01*
X224358Y261714D01*
X223609Y261615D01*
X222910Y261326D01*
X222311Y260866D01*
X221851Y260266D01*
X221562Y259568D01*
X221463Y258819D01*
X221562Y258070D01*
X221851Y257371D01*
X222258Y256841D01*
X222037Y256393D01*
X221654D01*
X221166Y256296D01*
X220752Y256019D01*
X220638Y255906D01*
X207156D01*
X206995Y256379D01*
X207507Y256772D01*
X207967Y257371D01*
X208256Y258070D01*
X208355Y258819D01*
X208256Y259568D01*
X207967Y260266D01*
X207507Y260866D01*
X206908Y261326D01*
X206209Y261615D01*
X205460Y261714D01*
X204711Y261615D01*
X204013Y261326D01*
X203413Y260866D01*
X203130Y260497D01*
X202643Y260611D01*
X202208Y261263D01*
X201556Y261698D01*
X200787Y261851D01*
X200019Y261698D01*
X199367Y261263D01*
X198932Y260611D01*
X198779Y259842D01*
X198932Y259074D01*
X199367Y258422D01*
X200019Y257987D01*
X200787Y257834D01*
X201556Y257987D01*
X202191Y258411D01*
X202295Y258364D01*
X202657Y258122D01*
X202664Y258070D01*
X202953Y257371D01*
X203413Y256772D01*
X203925Y256379D01*
X203765Y255906D01*
X192505D01*
X192456Y256403D01*
X192501Y256412D01*
X193153Y256847D01*
X193588Y257499D01*
X193741Y258268D01*
X193588Y259036D01*
X193153Y259688D01*
X192501Y260123D01*
X191732Y260276D01*
X190964Y260123D01*
X190312Y259688D01*
X189877Y259036D01*
X189724Y258268D01*
X189877Y257499D01*
X190312Y256847D01*
X190964Y256412D01*
X191008Y256403D01*
X190959Y255906D01*
X169951D01*
X169790Y256379D01*
X170302Y256772D01*
X170763Y257371D01*
X171052Y258070D01*
X171150Y258819D01*
X171052Y259568D01*
X170763Y260266D01*
X170302Y260866D01*
X169703Y261326D01*
X169005Y261615D01*
X168255Y261714D01*
X167506Y261615D01*
X166808Y261326D01*
X166209Y260866D01*
X165749Y260266D01*
X165459Y259568D01*
X165361Y258819D01*
X165459Y258070D01*
X165749Y257371D01*
X166209Y256772D01*
X166721Y256379D01*
X166560Y255906D01*
X161619D01*
X161417Y255946D01*
X161216Y255906D01*
X151053D01*
X150893Y256379D01*
X151405Y256772D01*
X151865Y257371D01*
X152154Y258070D01*
X152253Y258819D01*
X152154Y259568D01*
X151865Y260266D01*
X151405Y260866D01*
X150805Y261326D01*
X150107Y261615D01*
X149358Y261714D01*
X148609Y261615D01*
X147910Y261326D01*
X147311Y260866D01*
X146851Y260266D01*
X146562Y259568D01*
X146463Y258819D01*
X146562Y258070D01*
X146851Y257371D01*
X147311Y256772D01*
X147823Y256379D01*
X147662Y255906D01*
X140753D01*
X140551Y255946D01*
X140350Y255906D01*
X130123D01*
X129921Y255946D01*
X129720Y255906D01*
X113849D01*
X113688Y256379D01*
X114200Y256772D01*
X114660Y257371D01*
X114949Y258070D01*
X115048Y258819D01*
X114949Y259568D01*
X114660Y260266D01*
X114200Y260866D01*
X113601Y261326D01*
X112902Y261615D01*
X112153Y261714D01*
X111404Y261615D01*
X110706Y261326D01*
X110106Y260866D01*
X109646Y260266D01*
X109357Y259568D01*
X109258Y258819D01*
X109357Y258070D01*
X109646Y257371D01*
X110106Y256772D01*
X110618Y256379D01*
X110458Y255906D01*
X98627D01*
X98425Y255946D01*
X98224Y255906D01*
X94951D01*
X94790Y256379D01*
X95302Y256772D01*
X95762Y257371D01*
X96052Y258070D01*
X96150Y258819D01*
X96052Y259568D01*
X95762Y260266D01*
X95302Y260866D01*
X94703Y261326D01*
X94005Y261615D01*
X93256Y261714D01*
X92506Y261615D01*
X91808Y261326D01*
X91209Y260866D01*
X90749Y260266D01*
X90459Y259568D01*
X90361Y258819D01*
X90459Y258070D01*
X90749Y257371D01*
X91209Y256772D01*
X91721Y256379D01*
X91560Y255906D01*
X85267D01*
X85153Y256019D01*
X84740Y256296D01*
X84252Y256393D01*
X80650D01*
X80414Y256834D01*
X80596Y257105D01*
X80749Y257874D01*
X80596Y258643D01*
X80160Y259294D01*
X79509Y259730D01*
X78740Y259883D01*
X77972Y259730D01*
X77320Y259294D01*
X76885Y258643D01*
X76732Y257874D01*
X76885Y257105D01*
X77066Y256834D01*
X76830Y256393D01*
X70866D01*
Y279528D01*
X72203D01*
X72215Y279518D01*
X73249Y279090D01*
X74358Y278944D01*
X75467Y279090D01*
X76500Y279518D01*
X76513Y279528D01*
X109998D01*
X110011Y279518D01*
X111044Y279090D01*
X112153Y278944D01*
X113262Y279090D01*
X114295Y279518D01*
X114308Y279528D01*
X128305D01*
X128318Y279518D01*
X129351Y279090D01*
X130460Y278944D01*
X131569Y279090D01*
X132603Y279518D01*
X132615Y279528D01*
X166100D01*
X166113Y279518D01*
X167147Y279090D01*
X168255Y278944D01*
X169365Y279090D01*
X170398Y279518D01*
X170411Y279528D01*
X184407D01*
X184420Y279518D01*
X185454Y279090D01*
X186563Y278944D01*
X187672Y279090D01*
X188705Y279518D01*
X188718Y279528D01*
X222203D01*
X222216Y279518D01*
X223249Y279090D01*
X224358Y278944D01*
X225467Y279090D01*
X226500Y279518D01*
X226513Y279528D01*
X228594D01*
Y271992D01*
X238468D01*
Y279528D01*
X240510D01*
X240523Y279518D01*
X241556Y279090D01*
X242665Y278944D01*
X243774Y279090D01*
X244807Y279518D01*
X244820Y279528D01*
X278305D01*
X278318Y279518D01*
X279351Y279090D01*
X280460Y278944D01*
X281569Y279090D01*
X282603Y279518D01*
X282615Y279528D01*
X291339D01*
Y272024D01*
D02*
G37*
%LPC*%
G36*
X135827Y221869D02*
X135292Y221763D01*
X134839Y221460D01*
X134536Y221007D01*
X134430Y220473D01*
X134536Y219938D01*
X134839Y219485D01*
X135292Y219182D01*
X135827Y219076D01*
X136361Y219182D01*
X136815Y219485D01*
X137117Y219938D01*
X137224Y220473D01*
X137117Y221007D01*
X136815Y221460D01*
X136361Y221763D01*
X135827Y221869D01*
D02*
G37*
G36*
X139764D02*
X139229Y221763D01*
X138776Y221460D01*
X138473Y221007D01*
X138367Y220473D01*
X138473Y219938D01*
X138776Y219485D01*
X139229Y219182D01*
X139764Y219076D01*
X140298Y219182D01*
X140752Y219485D01*
X141054Y219938D01*
X141161Y220473D01*
X141054Y221007D01*
X140752Y221460D01*
X140298Y221763D01*
X139764Y221869D01*
D02*
G37*
G36*
X131890D02*
X131355Y221763D01*
X130902Y221460D01*
X130599Y221007D01*
X130493Y220473D01*
X130599Y219938D01*
X130902Y219485D01*
X131355Y219182D01*
X131890Y219076D01*
X132424Y219182D01*
X132878Y219485D01*
X133180Y219938D01*
X133287Y220473D01*
X133180Y221007D01*
X132878Y221460D01*
X132424Y221763D01*
X131890Y221869D01*
D02*
G37*
G36*
X257874Y217932D02*
X257340Y217826D01*
X256886Y217523D01*
X256584Y217070D01*
X256477Y216535D01*
X256584Y216001D01*
X256886Y215548D01*
X257340Y215245D01*
X257874Y215139D01*
X258409Y215245D01*
X258862Y215548D01*
X259165Y216001D01*
X259271Y216535D01*
X259165Y217070D01*
X258862Y217523D01*
X258409Y217826D01*
X257874Y217932D01*
D02*
G37*
G36*
X261811D02*
X261277Y217826D01*
X260823Y217523D01*
X260521Y217070D01*
X260414Y216535D01*
X260521Y216001D01*
X260823Y215548D01*
X261277Y215245D01*
X261811Y215139D01*
X262346Y215245D01*
X262799Y215548D01*
X263102Y216001D01*
X263208Y216535D01*
X263102Y217070D01*
X262799Y217523D01*
X262346Y217826D01*
X261811Y217932D01*
D02*
G37*
G36*
X250000Y221869D02*
X249465Y221763D01*
X249012Y221460D01*
X248710Y221007D01*
X248603Y220473D01*
X248710Y219938D01*
X249012Y219485D01*
X249465Y219182D01*
X250000Y219076D01*
X250535Y219182D01*
X250988Y219485D01*
X251291Y219938D01*
X251397Y220473D01*
X251291Y221007D01*
X250988Y221460D01*
X250535Y221763D01*
X250000Y221869D01*
D02*
G37*
G36*
X253937D02*
X253403Y221763D01*
X252949Y221460D01*
X252647Y221007D01*
X252540Y220473D01*
X252647Y219938D01*
X252949Y219485D01*
X253403Y219182D01*
X253937Y219076D01*
X254472Y219182D01*
X254925Y219485D01*
X255228Y219938D01*
X255334Y220473D01*
X255228Y221007D01*
X254925Y221460D01*
X254472Y221763D01*
X253937Y221869D01*
D02*
G37*
G36*
X246063D02*
X245529Y221763D01*
X245075Y221460D01*
X244773Y221007D01*
X244666Y220473D01*
X244773Y219938D01*
X245075Y219485D01*
X245529Y219182D01*
X246063Y219076D01*
X246598Y219182D01*
X247051Y219485D01*
X247354Y219938D01*
X247460Y220473D01*
X247354Y221007D01*
X247051Y221460D01*
X246598Y221763D01*
X246063Y221869D01*
D02*
G37*
G36*
X143701D02*
X143166Y221763D01*
X142713Y221460D01*
X142410Y221007D01*
X142304Y220473D01*
X142410Y219938D01*
X142713Y219485D01*
X143166Y219182D01*
X143701Y219076D01*
X144235Y219182D01*
X144689Y219485D01*
X144991Y219938D01*
X145098Y220473D01*
X144991Y221007D01*
X144689Y221460D01*
X144235Y221763D01*
X143701Y221869D01*
D02*
G37*
G36*
X147638D02*
X147103Y221763D01*
X146650Y221460D01*
X146347Y221007D01*
X146241Y220473D01*
X146347Y219938D01*
X146650Y219485D01*
X147103Y219182D01*
X147638Y219076D01*
X148172Y219182D01*
X148626Y219485D01*
X148928Y219938D01*
X149035Y220473D01*
X148928Y221007D01*
X148626Y221460D01*
X148172Y221763D01*
X147638Y221869D01*
D02*
G37*
G36*
X253937Y217932D02*
X253403Y217826D01*
X252949Y217523D01*
X252647Y217070D01*
X252540Y216535D01*
X252647Y216001D01*
X252949Y215548D01*
X253403Y215245D01*
X253937Y215139D01*
X254472Y215245D01*
X254925Y215548D01*
X255228Y216001D01*
X255334Y216535D01*
X255228Y217070D01*
X254925Y217523D01*
X254472Y217826D01*
X253937Y217932D01*
D02*
G37*
G36*
X135827D02*
X135292Y217826D01*
X134839Y217523D01*
X134536Y217070D01*
X134430Y216535D01*
X134536Y216001D01*
X134839Y215548D01*
X135292Y215245D01*
X135827Y215139D01*
X136361Y215245D01*
X136815Y215548D01*
X137117Y216001D01*
X137224Y216535D01*
X137117Y217070D01*
X136815Y217523D01*
X136361Y217826D01*
X135827Y217932D01*
D02*
G37*
G36*
X139764D02*
X139229Y217826D01*
X138776Y217523D01*
X138473Y217070D01*
X138367Y216535D01*
X138473Y216001D01*
X138776Y215548D01*
X139229Y215245D01*
X139764Y215139D01*
X140298Y215245D01*
X140752Y215548D01*
X141054Y216001D01*
X141161Y216535D01*
X141054Y217070D01*
X140752Y217523D01*
X140298Y217826D01*
X139764Y217932D01*
D02*
G37*
G36*
X131890D02*
X131355Y217826D01*
X130902Y217523D01*
X130599Y217070D01*
X130493Y216535D01*
X130599Y216001D01*
X130902Y215548D01*
X131355Y215245D01*
X131890Y215139D01*
X132424Y215245D01*
X132878Y215548D01*
X133180Y216001D01*
X133287Y216535D01*
X133180Y217070D01*
X132878Y217523D01*
X132424Y217826D01*
X131890Y217932D01*
D02*
G37*
G36*
X116142D02*
X115607Y217826D01*
X115154Y217523D01*
X114851Y217070D01*
X114745Y216535D01*
X114851Y216001D01*
X115154Y215548D01*
X115607Y215245D01*
X116142Y215139D01*
X116676Y215245D01*
X117129Y215548D01*
X117432Y216001D01*
X117538Y216535D01*
X117432Y217070D01*
X117129Y217523D01*
X116676Y217826D01*
X116142Y217932D01*
D02*
G37*
G36*
X124016D02*
X123481Y217826D01*
X123028Y217523D01*
X122725Y217070D01*
X122619Y216535D01*
X122725Y216001D01*
X123028Y215548D01*
X123481Y215245D01*
X124016Y215139D01*
X124550Y215245D01*
X125004Y215548D01*
X125306Y216001D01*
X125413Y216535D01*
X125306Y217070D01*
X125004Y217523D01*
X124550Y217826D01*
X124016Y217932D01*
D02*
G37*
G36*
X143701D02*
X143166Y217826D01*
X142713Y217523D01*
X142410Y217070D01*
X142304Y216535D01*
X142410Y216001D01*
X142713Y215548D01*
X143166Y215245D01*
X143701Y215139D01*
X144235Y215245D01*
X144689Y215548D01*
X144991Y216001D01*
X145098Y216535D01*
X144991Y217070D01*
X144689Y217523D01*
X144235Y217826D01*
X143701Y217932D01*
D02*
G37*
G36*
X246063D02*
X245529Y217826D01*
X245075Y217523D01*
X244773Y217070D01*
X244666Y216535D01*
X244773Y216001D01*
X245075Y215548D01*
X245529Y215245D01*
X246063Y215139D01*
X246598Y215245D01*
X247051Y215548D01*
X247354Y216001D01*
X247460Y216535D01*
X247354Y217070D01*
X247051Y217523D01*
X246598Y217826D01*
X246063Y217932D01*
D02*
G37*
G36*
X250000D02*
X249465Y217826D01*
X249012Y217523D01*
X248710Y217070D01*
X248603Y216535D01*
X248710Y216001D01*
X249012Y215548D01*
X249465Y215245D01*
X250000Y215139D01*
X250535Y215245D01*
X250988Y215548D01*
X251291Y216001D01*
X251397Y216535D01*
X251291Y217070D01*
X250988Y217523D01*
X250535Y217826D01*
X250000Y217932D01*
D02*
G37*
G36*
X238189D02*
X237654Y217826D01*
X237201Y217523D01*
X236899Y217070D01*
X236792Y216535D01*
X236899Y216001D01*
X237201Y215548D01*
X237654Y215245D01*
X238189Y215139D01*
X238724Y215245D01*
X239177Y215548D01*
X239480Y216001D01*
X239586Y216535D01*
X239480Y217070D01*
X239177Y217523D01*
X238724Y217826D01*
X238189Y217932D01*
D02*
G37*
G36*
X147638D02*
X147103Y217826D01*
X146650Y217523D01*
X146347Y217070D01*
X146241Y216535D01*
X146347Y216001D01*
X146650Y215548D01*
X147103Y215245D01*
X147638Y215139D01*
X148172Y215245D01*
X148626Y215548D01*
X148928Y216001D01*
X149035Y216535D01*
X148928Y217070D01*
X148626Y217523D01*
X148172Y217826D01*
X147638Y217932D01*
D02*
G37*
G36*
X230315D02*
X229780Y217826D01*
X229327Y217523D01*
X229024Y217070D01*
X228918Y216535D01*
X229024Y216001D01*
X229327Y215548D01*
X229780Y215245D01*
X230315Y215139D01*
X230849Y215245D01*
X231303Y215548D01*
X231605Y216001D01*
X231712Y216535D01*
X231605Y217070D01*
X231303Y217523D01*
X230849Y217826D01*
X230315Y217932D01*
D02*
G37*
G36*
X192074Y275296D02*
X191306Y275143D01*
X190654Y274708D01*
X190219Y274056D01*
X190066Y273287D01*
X190219Y272519D01*
X190654Y271867D01*
X191306Y271432D01*
X192074Y271279D01*
X192843Y271432D01*
X193495Y271867D01*
X193930Y272519D01*
X194083Y273287D01*
X193930Y274056D01*
X193495Y274708D01*
X192843Y275143D01*
X192074Y275296D01*
D02*
G37*
G36*
X201523D02*
X200755Y275143D01*
X200103Y274708D01*
X199668Y274056D01*
X199515Y273287D01*
X199668Y272519D01*
X200103Y271867D01*
X200755Y271432D01*
X201523Y271279D01*
X202292Y271432D01*
X202943Y271867D01*
X203379Y272519D01*
X203532Y273287D01*
X203379Y274056D01*
X202943Y274708D01*
X202292Y275143D01*
X201523Y275296D01*
D02*
G37*
G36*
X164319D02*
X163550Y275143D01*
X162898Y274708D01*
X162463Y274056D01*
X162310Y273287D01*
X162463Y272519D01*
X162898Y271867D01*
X163550Y271432D01*
X164319Y271279D01*
X165087Y271432D01*
X165739Y271867D01*
X166174Y272519D01*
X166327Y273287D01*
X166174Y274056D01*
X165739Y274708D01*
X165087Y275143D01*
X164319Y275296D01*
D02*
G37*
G36*
X145421D02*
X144652Y275143D01*
X144001Y274708D01*
X143565Y274056D01*
X143412Y273287D01*
X143565Y272519D01*
X144001Y271867D01*
X144652Y271432D01*
X145421Y271279D01*
X146189Y271432D01*
X146841Y271867D01*
X147277Y272519D01*
X147429Y273287D01*
X147277Y274056D01*
X146841Y274708D01*
X146189Y275143D01*
X145421Y275296D01*
D02*
G37*
G36*
X154870D02*
X154101Y275143D01*
X153449Y274708D01*
X153014Y274056D01*
X152861Y273287D01*
X153014Y272519D01*
X153449Y271867D01*
X154101Y271432D01*
X154870Y271279D01*
X155638Y271432D01*
X156290Y271867D01*
X156725Y272519D01*
X156878Y273287D01*
X156725Y274056D01*
X156290Y274708D01*
X155638Y275143D01*
X154870Y275296D01*
D02*
G37*
G36*
X210972D02*
X210203Y275143D01*
X209552Y274708D01*
X209116Y274056D01*
X208963Y273287D01*
X209116Y272519D01*
X209552Y271867D01*
X210203Y271432D01*
X210972Y271279D01*
X211741Y271432D01*
X212392Y271867D01*
X212828Y272519D01*
X212981Y273287D01*
X212828Y274056D01*
X212392Y274708D01*
X211741Y275143D01*
X210972Y275296D01*
D02*
G37*
G36*
X267074D02*
X266306Y275143D01*
X265654Y274708D01*
X265219Y274056D01*
X265066Y273287D01*
X265219Y272519D01*
X265654Y271867D01*
X266306Y271432D01*
X267074Y271279D01*
X267843Y271432D01*
X268495Y271867D01*
X268930Y272519D01*
X269083Y273287D01*
X268930Y274056D01*
X268495Y274708D01*
X267843Y275143D01*
X267074Y275296D01*
D02*
G37*
G36*
X276523D02*
X275755Y275143D01*
X275103Y274708D01*
X274668Y274056D01*
X274515Y273287D01*
X274668Y272519D01*
X275103Y271867D01*
X275755Y271432D01*
X276523Y271279D01*
X277292Y271432D01*
X277943Y271867D01*
X278379Y272519D01*
X278532Y273287D01*
X278379Y274056D01*
X277943Y274708D01*
X277292Y275143D01*
X276523Y275296D01*
D02*
G37*
G36*
X257626D02*
X256857Y275143D01*
X256205Y274708D01*
X255770Y274056D01*
X255617Y273287D01*
X255770Y272519D01*
X256205Y271867D01*
X256857Y271432D01*
X257626Y271279D01*
X258394Y271432D01*
X259046Y271867D01*
X259481Y272519D01*
X259634Y273287D01*
X259481Y274056D01*
X259046Y274708D01*
X258394Y275143D01*
X257626Y275296D01*
D02*
G37*
G36*
X220421D02*
X219652Y275143D01*
X219001Y274708D01*
X218565Y274056D01*
X218412Y273287D01*
X218565Y272519D01*
X219001Y271867D01*
X219652Y271432D01*
X220421Y271279D01*
X221189Y271432D01*
X221841Y271867D01*
X222277Y272519D01*
X222429Y273287D01*
X222277Y274056D01*
X221841Y274708D01*
X221189Y275143D01*
X220421Y275296D01*
D02*
G37*
G36*
X248177D02*
X247408Y275143D01*
X246757Y274708D01*
X246321Y274056D01*
X246168Y273287D01*
X246321Y272519D01*
X246757Y271867D01*
X247408Y271432D01*
X248177Y271279D01*
X248945Y271432D01*
X249597Y271867D01*
X250032Y272519D01*
X250185Y273287D01*
X250032Y274056D01*
X249597Y274708D01*
X248945Y275143D01*
X248177Y275296D01*
D02*
G37*
G36*
X135972D02*
X135203Y275143D01*
X134552Y274708D01*
X134116Y274056D01*
X133963Y273287D01*
X134116Y272519D01*
X134552Y271867D01*
X135203Y271432D01*
X135972Y271279D01*
X136741Y271432D01*
X137392Y271867D01*
X137828Y272519D01*
X137981Y273287D01*
X137828Y274056D01*
X137392Y274708D01*
X136741Y275143D01*
X135972Y275296D01*
D02*
G37*
G36*
X182366Y272024D02*
X172492D01*
Y262150D01*
X177328D01*
X177647Y261672D01*
X177211Y261021D01*
X177059Y260252D01*
X177211Y259484D01*
X177647Y258832D01*
X178298Y258397D01*
X179067Y258244D01*
X179836Y258397D01*
X180488Y258832D01*
X180923Y259484D01*
X181076Y260252D01*
X180923Y261021D01*
X180488Y261673D01*
X179836Y262108D01*
X179836Y262108D01*
X179836D01*
Y262108D01*
X179840Y262150D01*
X182366D01*
Y272024D01*
D02*
G37*
G36*
X231693Y264371D02*
X230924Y264218D01*
X230273Y263783D01*
X229837Y263131D01*
X229684Y262362D01*
X229837Y261594D01*
X230273Y260942D01*
X230924Y260507D01*
X231693Y260354D01*
X232462Y260507D01*
X233113Y260942D01*
X233549Y261594D01*
X233702Y262362D01*
X233549Y263131D01*
X233113Y263783D01*
X232462Y264218D01*
X231693Y264371D01*
D02*
G37*
G36*
X133858Y261851D02*
X133090Y261698D01*
X132438Y261263D01*
X132003Y260611D01*
X131850Y259842D01*
X132003Y259074D01*
X132438Y258422D01*
X133090Y257987D01*
X133858Y257834D01*
X134627Y257987D01*
X135279Y258422D01*
X135714Y259074D01*
X135867Y259842D01*
X135714Y260611D01*
X135279Y261263D01*
X134627Y261698D01*
X133858Y261851D01*
D02*
G37*
G36*
X257874Y221869D02*
X257340Y221763D01*
X256886Y221460D01*
X256584Y221007D01*
X256477Y220473D01*
X256584Y219938D01*
X256886Y219485D01*
X257340Y219182D01*
X257874Y219076D01*
X258409Y219182D01*
X258862Y219485D01*
X259165Y219938D01*
X259271Y220473D01*
X259165Y221007D01*
X258862Y221460D01*
X258409Y221763D01*
X257874Y221869D01*
D02*
G37*
G36*
X261811D02*
X261277Y221763D01*
X260823Y221460D01*
X260521Y221007D01*
X260414Y220473D01*
X260521Y219938D01*
X260823Y219485D01*
X261277Y219182D01*
X261811Y219076D01*
X262346Y219182D01*
X262799Y219485D01*
X263102Y219938D01*
X263208Y220473D01*
X263102Y221007D01*
X262799Y221460D01*
X262346Y221763D01*
X261811Y221869D01*
D02*
G37*
G36*
X126263Y272024D02*
X116389D01*
Y262150D01*
X126263D01*
Y272024D01*
D02*
G37*
G36*
X98767Y275296D02*
X97999Y275143D01*
X97347Y274708D01*
X96912Y274056D01*
X96759Y273287D01*
X96912Y272519D01*
X97347Y271867D01*
X97999Y271432D01*
X98767Y271279D01*
X99536Y271432D01*
X100188Y271867D01*
X100623Y272519D01*
X100776Y273287D01*
X100623Y274056D01*
X100188Y274708D01*
X99536Y275143D01*
X98767Y275296D01*
D02*
G37*
G36*
X108216D02*
X107448Y275143D01*
X106796Y274708D01*
X106360Y274056D01*
X106208Y273287D01*
X106360Y272519D01*
X106796Y271867D01*
X107448Y271432D01*
X108216Y271279D01*
X108985Y271432D01*
X109636Y271867D01*
X110072Y272519D01*
X110225Y273287D01*
X110072Y274056D01*
X109636Y274708D01*
X108985Y275143D01*
X108216Y275296D01*
D02*
G37*
G36*
X89319D02*
X88550Y275143D01*
X87898Y274708D01*
X87463Y274056D01*
X87310Y273287D01*
X87463Y272519D01*
X87898Y271867D01*
X88550Y271432D01*
X89319Y271279D01*
X90087Y271432D01*
X90739Y271867D01*
X91174Y272519D01*
X91327Y273287D01*
X91174Y274056D01*
X90739Y274708D01*
X90087Y275143D01*
X89319Y275296D01*
D02*
G37*
G36*
X76630Y269918D02*
X75862Y269765D01*
X75210Y269330D01*
X74774Y268678D01*
X74622Y267909D01*
X74774Y267141D01*
X75210Y266489D01*
X75862Y266054D01*
X76630Y265901D01*
X77399Y266054D01*
X78051Y266489D01*
X78486Y267141D01*
X78639Y267909D01*
X78486Y268678D01*
X78051Y269330D01*
X77399Y269765D01*
X76630Y269918D01*
D02*
G37*
G36*
X79870Y275296D02*
X79101Y275143D01*
X78449Y274708D01*
X78014Y274056D01*
X77861Y273287D01*
X78014Y272519D01*
X78449Y271867D01*
X79101Y271432D01*
X79870Y271279D01*
X80638Y271432D01*
X81290Y271867D01*
X81725Y272519D01*
X81878Y273287D01*
X81725Y274056D01*
X81290Y274708D01*
X80638Y275143D01*
X79870Y275296D01*
D02*
G37*
%LPD*%
D17*
X287795Y277165D02*
D03*
X279175Y232242D02*
D03*
X163871Y231194D02*
D03*
D35*
X77111Y240158D02*
X130315D01*
X73982Y243286D02*
X77111Y240158D01*
X130315D02*
X131890Y241732D01*
X154724Y238583D02*
X156693Y240551D01*
X19291Y238583D02*
X154724D01*
X7480Y250394D02*
X19291Y238583D01*
X153692Y243946D02*
X154331Y243307D01*
X131890Y241732D02*
X134104Y243946D01*
X153692D01*
X154331Y243307D02*
X172441D01*
X181496Y229134D02*
X189764D01*
X170079Y240551D02*
X181496Y229134D01*
X156693Y240551D02*
X170079D01*
X74683Y249606D02*
X94882D01*
X98819Y245669D01*
X116535D01*
X123622Y252756D01*
X74290Y250000D02*
X74683Y249606D01*
X123622Y252756D02*
X126378D01*
X97638Y244094D02*
X126772D01*
X93701Y248031D02*
X97638Y244094D01*
X76153Y248031D02*
X93701D01*
X126772Y244094D02*
X129921Y247244D01*
X73228Y245106D02*
X76153Y248031D01*
X149213Y250394D02*
X169291D01*
X129921Y247244D02*
X132677Y250000D01*
X141339D01*
X142126Y249213D01*
X148031D01*
X149213Y250394D01*
X169291D02*
X184646Y235039D01*
X141881Y252117D02*
X143701Y253937D01*
X158268D01*
X126378Y252756D02*
X127017Y252117D01*
X141881D01*
X158268Y253937D02*
X160236Y251969D01*
X174409D01*
X187795Y238583D01*
X187010Y232675D02*
X197636D01*
X203150Y238189D01*
X218504D01*
X184646Y235039D02*
X187010Y232675D01*
X218504Y238189D02*
X220472Y240158D01*
Y242913D01*
X198029Y238581D02*
X201575Y242126D01*
X209449D01*
X189247Y238581D02*
X198029D01*
X187795Y238583D02*
X189245D01*
X189247Y238581D01*
X209449Y242126D02*
X211811Y239764D01*
X197638Y241339D02*
X200000Y243701D01*
X194488Y241339D02*
X197638D01*
X200000Y243701D02*
X212598D01*
X215748D01*
X216535Y244488D01*
Y248031D01*
X218110Y249606D01*
X222047Y253543D02*
X233465D01*
X218110Y249606D02*
X222047Y253543D01*
X233465D02*
X236221Y250787D01*
X242308Y255118D02*
X243341Y254085D01*
X221654Y255118D02*
X242308D01*
X214567Y248031D02*
X221654Y255118D01*
X249755Y254085D02*
X253543Y257874D01*
X243341Y254085D02*
X249755D01*
X214567Y245669D02*
Y248031D01*
X228495Y251820D02*
X231496Y248819D01*
X218110Y245669D02*
X224261Y251820D01*
X228495D01*
X218110Y241732D02*
Y245669D01*
X231496Y248819D02*
X238976D01*
X242601Y252443D01*
X211811Y239764D02*
X216142D01*
X218110Y241732D01*
X242601Y252443D02*
X253624D01*
X254331Y253150D01*
X264505Y251181D02*
X272047D01*
X257812Y257874D02*
X264505Y251181D01*
X272047D02*
X274326Y248902D01*
X253543Y257874D02*
X257812D01*
X220472Y242913D02*
X225197Y247638D01*
X255660Y244243D02*
X257480Y246063D01*
X247307Y246000D02*
X249064Y244243D01*
X257480Y246063D02*
X275984D01*
X249064Y244243D02*
X255660D01*
X232614Y246000D02*
X247307D01*
X259055Y244094D02*
X273622D01*
X255267Y240306D02*
X259055Y244094D01*
X238415Y241900D02*
X240009Y240306D01*
X273622Y244094D02*
X275590Y242126D01*
X240009Y240306D02*
X255267D01*
X232057Y241900D02*
X238415D01*
X225197Y247638D02*
X252362D01*
X253937Y246063D01*
X57087Y255118D02*
X84252D01*
X88189Y251181D01*
X56693Y255512D02*
X57087Y255118D01*
X88189Y251181D02*
X101575D01*
X73228Y251061D02*
X74290Y250000D01*
X13268Y200394D02*
X72047D01*
X9843Y196968D02*
X13268Y200394D01*
X72047D02*
X74803Y197638D01*
X35433Y196968D02*
X39094Y193307D01*
X72047D01*
X15216Y218721D02*
X19331Y222835D01*
X69685D01*
X12795Y216142D02*
X64567D01*
X10216Y218721D02*
X12795Y216142D01*
X64567D02*
X65740Y214969D01*
X69685Y209055D02*
X72835D01*
X81103Y200787D01*
X100394D01*
X83465Y222441D02*
X102362D01*
X79921Y225984D02*
X83465Y222441D01*
X102362D02*
X104331Y220473D01*
X48819Y263386D02*
Y407480D01*
Y263386D02*
X56693Y255512D01*
X41732Y414567D02*
X48819Y407480D01*
X59055Y210236D02*
X60236Y211417D01*
X75984D01*
X84646Y202756D01*
X88189D01*
X71260Y207087D02*
X79527Y198819D01*
X65748Y207087D02*
X71260D01*
X79527Y198819D02*
X87008D01*
X74410Y190945D02*
X106299D01*
X72047Y193307D02*
X74410Y190945D01*
X106299D02*
X108268Y192913D01*
X77559Y194882D02*
X106299D01*
X74803Y197638D02*
X77559Y194882D01*
X106299D02*
X108268Y196850D01*
X110585Y194533D02*
Y197683D01*
X87008Y198819D02*
X109449D01*
X110585Y197683D01*
Y194533D02*
X112205Y192913D01*
X114173Y198819D02*
Y201969D01*
X88189Y202756D02*
X113386D01*
X114173Y201969D01*
X112205Y196850D02*
X114173Y198819D01*
X77559Y222835D02*
X81890Y218504D01*
X106299D01*
X69685Y222835D02*
X77559D01*
X106299Y218504D02*
X108268Y216535D01*
X182677Y205512D02*
X183071D01*
X187795Y200787D01*
X214567D01*
X133858Y198819D02*
X154331D01*
X164567Y209055D01*
X131890Y196850D02*
X133858Y198819D01*
X189764Y229134D02*
X195276Y223622D01*
X7480Y257716D02*
X10610Y260846D01*
X7480Y250394D02*
Y257716D01*
X195276Y219291D02*
Y223622D01*
X172441Y243307D02*
X184252Y231496D01*
X190945D02*
X197638Y224803D01*
X15610Y260846D02*
X20551Y255906D01*
X25591D01*
X38210Y243286D01*
X73982D01*
X74003Y243307D01*
X184252Y231496D02*
X190945D01*
X197638Y222047D02*
Y224803D01*
X82677Y179134D02*
X85433Y176378D01*
X144488D01*
X80315Y179134D02*
X82677D01*
X152362Y176378D02*
X175984Y200000D01*
X9843Y176969D02*
X12008Y179134D01*
X80315D01*
X144488Y176378D02*
X152362D01*
X175984Y200000D02*
X184252D01*
X185835Y198417D01*
X81102Y172047D02*
X156677D01*
X35433Y176969D02*
X36024Y176378D01*
X76772D01*
X81102Y172047D01*
X156677D02*
X175976Y191346D01*
X176772Y197244D02*
X179536Y194480D01*
X186606D01*
X180315Y198031D02*
X181693Y196653D01*
X206890D01*
X347244Y298819D02*
Y375197D01*
X339370Y383071D02*
X347244Y375197D01*
X297638Y249213D02*
X347244Y298819D01*
X349606Y247638D02*
Y408268D01*
X343307Y414567D02*
X349606Y408268D01*
X308661Y206693D02*
X349606Y247638D01*
X295669Y206693D02*
X308661D01*
X287393Y198417D02*
X295669Y206693D01*
X283063Y198417D02*
X287393D01*
X279764Y249213D02*
X297638D01*
X274326Y248902D02*
X279453D01*
X279764Y249213D01*
X197638Y222047D02*
X198819Y220866D01*
X195276Y219291D02*
X196465Y218102D01*
X74950Y233904D02*
X109888D01*
X112205Y236221D01*
X74546Y233500D02*
X74950Y233904D01*
X76683Y230664D02*
X89809D01*
X74743Y228724D02*
X76683Y230664D01*
X224758Y238144D02*
X232614Y246000D01*
X226378Y236221D02*
X232057Y241900D01*
X196500Y39900D02*
X202500D01*
X195200Y41200D02*
X196500Y39900D01*
X195200Y41200D02*
Y44700D01*
X202500Y39900D02*
X205429Y42829D01*
X182700Y76600D02*
X183600Y77500D01*
X182700Y67300D02*
Y76600D01*
Y67300D02*
X191900Y58100D01*
X184900Y72800D02*
X192100D01*
X209400Y90100D01*
X183600Y77500D02*
X191900D01*
X198900Y84500D02*
Y91700D01*
X203100Y95900D01*
X213700D01*
X191900Y77500D02*
X198900Y84500D01*
X184900Y72800D02*
X200429Y57271D01*
Y42829D02*
Y57271D01*
X191900Y48000D02*
X195200Y44700D01*
X191900Y48000D02*
Y58100D01*
D36*
X251000Y169900D02*
X251400Y169500D01*
X77700Y167900D02*
X177500D01*
X179500Y169900D01*
X75800Y169800D02*
X77700Y167900D01*
X75800Y169800D02*
X76407Y169193D01*
X178793D02*
X179500Y169900D01*
X251000D01*
D47*
X126378Y252756D02*
D03*
X129921Y247244D02*
D03*
X194488Y241339D02*
D03*
X214567Y245669D02*
D03*
X236221Y250787D02*
D03*
X254331Y253150D02*
D03*
X253937Y246063D02*
D03*
X101575Y251181D02*
D03*
X121260Y260039D02*
D03*
X69685Y209055D02*
D03*
X79921Y225984D02*
D03*
X41732Y414567D02*
D03*
X59055Y210236D02*
D03*
X65748Y207087D02*
D03*
X182677Y205512D02*
D03*
X164567Y209055D02*
D03*
X194882Y215354D02*
D03*
X176772Y197244D02*
D03*
X180315Y198031D02*
D03*
X339370Y383071D02*
D03*
X343307Y414567D02*
D03*
X265748Y232284D02*
D03*
X73228Y245106D02*
D03*
X73228Y251061D02*
D03*
X214567Y212598D02*
D03*
X74743Y228724D02*
D03*
X74546Y233500D02*
D03*
X275654Y241900D02*
D03*
Y246000D02*
D03*
X200429Y42829D02*
D03*
X76772Y262134D02*
D03*
X184842Y260394D02*
D03*
X237468Y262504D02*
D03*
X260775Y273287D02*
D03*
X263925D02*
D03*
X92468D02*
D03*
X95618D02*
D03*
X207822D02*
D03*
X204673D02*
D03*
X151720D02*
D03*
X148571D02*
D03*
X205429Y42829D02*
D03*
X10610Y260846D02*
D03*
X15610D02*
D03*
X15216Y218721D02*
D03*
X10216D02*
D03*
X35433Y196968D02*
D03*
Y176969D02*
D03*
X9843D02*
D03*
Y196968D02*
D03*
X112205Y216535D02*
D03*
X127953D02*
D03*
X116142Y220473D02*
D03*
X124016D02*
D03*
X112205Y196850D02*
D03*
X108268Y216535D02*
D03*
X112205Y220473D02*
D03*
X127953D02*
D03*
X108268Y196850D02*
D03*
X131890D02*
D03*
X112205Y192913D02*
D03*
X104331Y200787D02*
D03*
Y216535D02*
D03*
X108268Y192913D02*
D03*
X104331Y220473D02*
D03*
X100394Y200787D02*
D03*
X104331Y192913D02*
D03*
X112205Y232284D02*
D03*
Y236221D02*
D03*
X242126Y216535D02*
D03*
X226378D02*
D03*
X230315Y220473D02*
D03*
X238189D02*
D03*
X226378Y196850D02*
D03*
X242126Y220473D02*
D03*
X222441Y216535D02*
D03*
X226378Y220473D02*
D03*
X246063Y196850D02*
D03*
X222441D02*
D03*
X226378Y192913D02*
D03*
X218504Y216535D02*
D03*
X222441Y192913D02*
D03*
X246063Y224410D02*
D03*
X214567Y200787D02*
D03*
X226378Y232284D02*
D03*
Y236221D02*
D03*
X75800Y169800D02*
D03*
X179500Y169900D02*
D03*
X251400Y169800D02*
D03*
X184900Y72800D02*
D03*
X183600Y77500D02*
D03*
X209400Y90100D02*
D03*
X213700Y95900D02*
D03*
D60*
X65740Y214969D02*
X102764D01*
X104331Y216535D01*
X194882Y215354D02*
X196850D01*
X197638Y214567D01*
X206890Y196653D02*
X208260Y195283D01*
X186606Y194480D02*
X207488D01*
X175976Y191346D02*
X220071D01*
X221638Y192913D01*
X222441D01*
X265748Y230315D02*
Y232283D01*
Y229134D02*
Y230315D01*
X264567Y227953D02*
X265748Y229134D01*
X262992Y226378D02*
X264567Y227953D01*
X248031Y226378D02*
X262992D01*
X246063Y224410D02*
X248031Y226378D01*
X204716Y218906D02*
X220071D01*
X198819Y220866D02*
X202756D01*
X204716Y218906D01*
X220071D02*
X222441Y216535D01*
X196465Y218102D02*
X216937D01*
X218504Y216535D01*
X249351Y198417D02*
X283063D01*
X247784Y196850D02*
X249351Y198417D01*
X246063Y196850D02*
X247784D01*
X201173Y211032D02*
X213000D01*
X197638Y214567D02*
X201173Y211032D01*
X213000D02*
X214567Y212598D01*
X185835Y198417D02*
X206701D01*
X220874D01*
X222441Y196850D01*
X208260Y195283D02*
X224811D01*
X226378Y196850D01*
X207488Y194480D02*
X224811D01*
X226378Y192913D01*
X110585Y230664D02*
X112205Y232284D01*
X89809Y230664D02*
X110585D01*
X224758Y233904D02*
Y238144D01*
Y233904D02*
X226378Y232284D01*
X107464Y196850D02*
X108268D01*
X103527Y192913D02*
X104331D01*
X221638Y196850D02*
X222441D01*
X103527Y216535D02*
X104331D01*
D61*
X103534Y200787D02*
X104331D01*
M02*
