%FSLAX44Y44*%
%MOMM*%
G71*
G01*
G75*
G04 Layer_Color=8388736*
%ADD10C,0.2032*%
%ADD11R,1.6000X1.6000*%
%ADD12R,0.2800X0.8000*%
%ADD13R,0.8000X0.2800*%
%ADD14R,0.6000X0.6000*%
%ADD15R,0.6000X0.6000*%
%ADD16R,1.4000X1.0000*%
G04:AMPARAMS|DCode=17|XSize=0.5mm|YSize=0.6mm|CornerRadius=0.125mm|HoleSize=0mm|Usage=FLASHONLY|Rotation=0.000|XOffset=0mm|YOffset=0mm|HoleType=Round|Shape=RoundedRectangle|*
%AMROUNDEDRECTD17*
21,1,0.5000,0.3500,0,0,0.0*
21,1,0.2500,0.6000,0,0,0.0*
1,1,0.2500,0.1250,-0.1750*
1,1,0.2500,-0.1250,-0.1750*
1,1,0.2500,-0.1250,0.1750*
1,1,0.2500,0.1250,0.1750*
%
%ADD17ROUNDEDRECTD17*%
%ADD18R,2.6000X1.1000*%
G04:AMPARAMS|DCode=19|XSize=0.5mm|YSize=0.6mm|CornerRadius=0.125mm|HoleSize=0mm|Usage=FLASHONLY|Rotation=270.000|XOffset=0mm|YOffset=0mm|HoleType=Round|Shape=RoundedRectangle|*
%AMROUNDEDRECTD19*
21,1,0.5000,0.3500,0,0,270.0*
21,1,0.2500,0.6000,0,0,270.0*
1,1,0.2500,-0.1750,-0.1250*
1,1,0.2500,-0.1750,0.1250*
1,1,0.2500,0.1750,0.1250*
1,1,0.2500,0.1750,-0.1250*
%
%ADD19ROUNDEDRECTD19*%
%ADD20R,1.1000X1.3500*%
%ADD21R,1.0000X1.4000*%
%ADD22R,1.4000X1.1000*%
%ADD23R,1.1500X1.8000*%
%ADD24R,0.9500X0.3500*%
%ADD25R,0.3500X0.9500*%
%ADD26R,3.3000X3.3000*%
%ADD27R,0.6000X1.8000*%
%ADD28R,0.5000X2.0000*%
%ADD29R,1.1000X1.4000*%
%ADD30R,1.1500X1.7000*%
%ADD31R,3.3000X3.3000*%
%ADD32R,1.1000X2.6000*%
%ADD33R,1.7000X1.1500*%
%ADD34C,0.4500*%
%ADD35C,1.0000*%
%ADD36R,12.0500X2.0000*%
%ADD37R,1.8000X1.8000*%
%ADD38R,3.6800X1.2700*%
%ADD39C,0.2540*%
%ADD40C,0.1270*%
%ADD41C,0.5080*%
%ADD42C,0.1524*%
%ADD43C,0.3048*%
%ADD44C,0.5000*%
%ADD45C,1.2700*%
%ADD46C,0.3810*%
%ADD47C,1.6500*%
%ADD48C,1.4732*%
%ADD49C,1.2802*%
%ADD50C,0.9500*%
%ADD51R,2.0000X2.0000*%
%ADD52C,8.0000*%
%ADD53C,0.5080*%
%ADD54C,0.4928*%
%ADD55C,0.6600*%
%ADD56C,1.0160*%
%ADD57C,1.0080*%
%ADD58C,2.0580*%
%ADD59C,2.0320*%
%ADD60C,1.4580*%
%ADD61C,1.5580*%
%ADD62C,1.6764*%
%ADD63C,4.3180*%
%ADD64C,0.7620*%
%ADD65C,0.1000*%
%ADD66C,0.1016*%
%ADD67C,0.8380*%
%ADD68R,0.4064X2.1590*%
%ADD69R,18.0340X0.5080*%
%ADD70C,0.2500*%
%ADD71C,0.6000*%
%ADD72C,0.2000*%
%ADD73R,1.1200X1.1200*%
%ADD74R,2.3100X2.3100*%
%ADD75R,2.3100X2.3100*%
%ADD76R,1.6508X1.6508*%
%ADD77R,0.3308X0.8508*%
%ADD78R,0.8508X0.3308*%
%ADD79R,0.6508X0.6508*%
%ADD80R,0.6508X0.6508*%
%ADD81R,1.4508X1.0508*%
G04:AMPARAMS|DCode=82|XSize=0.5508mm|YSize=0.6508mm|CornerRadius=0.1504mm|HoleSize=0mm|Usage=FLASHONLY|Rotation=0.000|XOffset=0mm|YOffset=0mm|HoleType=Round|Shape=RoundedRectangle|*
%AMROUNDEDRECTD82*
21,1,0.5508,0.3500,0,0,0.0*
21,1,0.2500,0.6508,0,0,0.0*
1,1,0.3008,0.1250,-0.1750*
1,1,0.3008,-0.1250,-0.1750*
1,1,0.3008,-0.1250,0.1750*
1,1,0.3008,0.1250,0.1750*
%
%ADD82ROUNDEDRECTD82*%
%ADD83R,2.6508X1.1508*%
G04:AMPARAMS|DCode=84|XSize=0.5508mm|YSize=0.6508mm|CornerRadius=0.1504mm|HoleSize=0mm|Usage=FLASHONLY|Rotation=270.000|XOffset=0mm|YOffset=0mm|HoleType=Round|Shape=RoundedRectangle|*
%AMROUNDEDRECTD84*
21,1,0.5508,0.3500,0,0,270.0*
21,1,0.2500,0.6508,0,0,270.0*
1,1,0.3008,-0.1750,-0.1250*
1,1,0.3008,-0.1750,0.1250*
1,1,0.3008,0.1750,0.1250*
1,1,0.3008,0.1750,-0.1250*
%
%ADD84ROUNDEDRECTD84*%
%ADD85R,1.1508X1.4008*%
%ADD86R,1.0508X1.4508*%
%ADD87R,1.4508X1.1508*%
%ADD88R,1.2008X1.8508*%
%ADD89R,1.0008X0.4008*%
%ADD90R,0.4008X1.0008*%
%ADD91R,3.3508X3.3508*%
%ADD92R,0.6508X1.8508*%
%ADD93R,0.5508X2.0508*%
%ADD94R,1.1508X1.4508*%
%ADD95R,1.2008X1.7508*%
%ADD96R,3.3508X3.3508*%
%ADD97R,1.1508X2.6508*%
%ADD98R,1.7508X1.2008*%
%ADD99C,0.5008*%
%ADD100C,2.0000*%
%ADD101R,11.9992X1.9492*%
%ADD102R,1.8508X1.8508*%
%ADD103R,3.7308X1.3208*%
%ADD104C,1.0508*%
%ADD105C,1.7008*%
%ADD106C,1.5240*%
%ADD107C,0.0508*%
%ADD108C,8.0508*%
D35*
X600964Y405638D02*
D03*
X865162Y684060D02*
D03*
X783628Y799630D02*
D03*
Y772630D02*
D03*
X863482Y772550D02*
D03*
X863388Y799550D02*
D03*
X865416Y657060D02*
D03*
X742050Y546608D02*
D03*
X739782Y657306D02*
D03*
X706846Y639370D02*
D03*
X709104Y604896D02*
D03*
Y589896D02*
D03*
X583918Y371722D02*
D03*
Y386722D02*
D03*
X601258Y418750D02*
D03*
X430022Y568514D02*
D03*
X485068Y552316D02*
D03*
Y567316D02*
D03*
X483652Y613154D02*
D03*
Y598154D02*
D03*
X416232Y587232D02*
D03*
Y602232D02*
D03*
X338498Y405270D02*
D03*
X309350Y415946D02*
D03*
X277000Y359000D02*
D03*
X293000Y388000D02*
D03*
X773500Y471500D02*
D03*
Y444500D02*
D03*
X806000Y354500D02*
D03*
X883000D02*
D03*
Y327500D02*
D03*
X806000D02*
D03*
X779000Y183000D02*
D03*
X747000D02*
D03*
X724000Y232000D02*
D03*
X689500Y174500D02*
D03*
X662500D02*
D03*
X693420Y334010D02*
D03*
X693614Y307788D02*
D03*
X675500Y298106D02*
D03*
X648500D02*
D03*
X581000Y276000D02*
D03*
X554500Y275500D02*
D03*
X778000Y245000D02*
D03*
X322072Y757428D02*
D03*
X281132Y758190D02*
D03*
X249500Y735000D02*
D03*
X392318Y734640D02*
D03*
X464322Y758018D02*
D03*
X422500Y758000D02*
D03*
X589000Y785500D02*
D03*
X563000Y800500D02*
D03*
X534318Y735640D02*
D03*
X748902Y758604D02*
D03*
X678500Y736000D02*
D03*
D36*
X664469Y847400D02*
D03*
X379469D02*
D03*
D49*
X664369Y657400D02*
D03*
X712369D02*
D03*
X569869D02*
D03*
X521869D02*
D03*
X427369D02*
D03*
X379369D02*
D03*
X236869D02*
D03*
X284869D02*
D03*
D50*
X165669Y800400D02*
D03*
X308169D02*
D03*
X593169D02*
D03*
X735669Y800400D02*
D03*
D51*
X165669Y1028400D02*
D03*
Y928400D02*
D03*
X165669Y828400D02*
D03*
Y753400D02*
D03*
X165669Y703400D02*
D03*
X593169Y1028400D02*
D03*
Y928400D02*
D03*
X593169Y828400D02*
D03*
Y753400D02*
D03*
X593169Y703400D02*
D03*
X308169Y978400D02*
D03*
X735669Y678400D02*
D03*
X735669Y778400D02*
D03*
X735669Y878400D02*
D03*
Y978400D02*
D03*
X450669Y678400D02*
D03*
Y778400D02*
D03*
Y878400D02*
D03*
Y978400D02*
D03*
X308169Y878400D02*
D03*
X308169Y778400D02*
D03*
X308169Y678400D02*
D03*
D54*
X65278Y760476D02*
D03*
X775462Y958342D02*
D03*
X732282Y420370D02*
D03*
X115570Y971042D02*
D03*
X128778Y800608D02*
D03*
X109474Y823722D02*
D03*
X33020Y1035812D02*
D03*
X25400Y837184D02*
D03*
X115570Y546862D02*
D03*
X104648Y538734D02*
D03*
X744220Y477012D02*
D03*
X777494Y393192D02*
D03*
X724662Y404876D02*
D03*
X648970Y416560D02*
D03*
X784860Y965454D02*
D03*
X785114Y1036066D02*
D03*
X123190Y524256D02*
D03*
X733806Y477012D02*
D03*
X636016Y431038D02*
D03*
X268979Y342646D02*
D03*
X541782Y162052D02*
D03*
X708914Y618236D02*
D03*
Y626212D02*
D03*
X646000Y643000D02*
D03*
X620776Y627634D02*
D03*
X457962Y498856D02*
D03*
X455422Y475742D02*
D03*
X135128Y520954D02*
D03*
X806186Y527040D02*
D03*
X818388Y519938D02*
D03*
X844477D02*
D03*
X812710Y616294D02*
D03*
X806422Y540540D02*
D03*
X780170Y540140D02*
D03*
X794274Y623554D02*
D03*
X795274Y734314D02*
D03*
X804420Y819914D02*
D03*
X869696Y734060D02*
D03*
X321000Y642000D02*
D03*
X494000Y613000D02*
D03*
X849449Y44269D02*
D03*
X177000Y531000D02*
D03*
X203000Y574000D02*
D03*
X115400Y1053000D02*
D03*
X150000Y534000D02*
D03*
X167000Y526000D02*
D03*
X464000Y522000D02*
D03*
X495000Y547000D02*
D03*
X862000Y973000D02*
D03*
X872000Y1053000D02*
D03*
X642369Y776150D02*
D03*
X23000Y961276D02*
D03*
X246869Y776150D02*
D03*
X238869Y744650D02*
D03*
X230869Y776150D02*
D03*
X674369D02*
D03*
X666369Y744650D02*
D03*
X658369Y776150D02*
D03*
X531869D02*
D03*
X523869Y744650D02*
D03*
X515869Y776150D02*
D03*
X389369D02*
D03*
X381369Y744650D02*
D03*
X373369Y776150D02*
D03*
X500888Y534920D02*
D03*
X681344Y524438D02*
D03*
X778000Y819162D02*
D03*
X391922Y524256D02*
D03*
Y514256D02*
D03*
X222869Y744650D02*
D03*
X214869Y776150D02*
D03*
X206869Y744650D02*
D03*
X198869Y776150D02*
D03*
X254869D02*
D03*
X262869Y744650D02*
D03*
X270869Y776150D02*
D03*
X630369Y694150D02*
D03*
X654369D02*
D03*
X678369D02*
D03*
X702369D02*
D03*
X202869D02*
D03*
X226869D02*
D03*
X250869D02*
D03*
X274869D02*
D03*
X698369Y776150D02*
D03*
X690369Y744650D02*
D03*
X682369Y776150D02*
D03*
X626369D02*
D03*
X634369Y744650D02*
D03*
X650369D02*
D03*
X413369Y776150D02*
D03*
X405369Y744650D02*
D03*
X397369Y776150D02*
D03*
X341369D02*
D03*
X349369Y744650D02*
D03*
X357369Y776150D02*
D03*
X365369Y744650D02*
D03*
X507869D02*
D03*
X499869Y776150D02*
D03*
X491869Y744650D02*
D03*
X483869Y776150D02*
D03*
X539869D02*
D03*
X547869Y744650D02*
D03*
X555869Y776150D02*
D03*
X559869Y694150D02*
D03*
X535869D02*
D03*
X511869D02*
D03*
X487869D02*
D03*
X417369D02*
D03*
X393369D02*
D03*
X369369D02*
D03*
X345369D02*
D03*
X457724Y175504D02*
D03*
X516000Y225322D02*
D03*
X479724Y205584D02*
D03*
X535790Y191000D02*
D03*
X457000Y159750D02*
D03*
X447000D02*
D03*
X521789Y108785D02*
D03*
X700000Y265000D02*
D03*
X79254Y558034D02*
D03*
X80264Y664972D02*
D03*
X26950Y662550D02*
D03*
X39650D02*
D03*
X52350D02*
D03*
X65050D02*
D03*
X26950Y749450D02*
D03*
X39650D02*
D03*
X52350D02*
D03*
X51350Y642450D02*
D03*
X38650D02*
D03*
X25950D02*
D03*
X64050Y555550D02*
D03*
X38650D02*
D03*
X25950D02*
D03*
X90000Y500300D02*
D03*
Y474900D02*
D03*
Y449500D02*
D03*
Y424100D02*
D03*
Y398700D02*
D03*
Y373300D02*
D03*
Y347900D02*
D03*
X25000D02*
D03*
Y373300D02*
D03*
Y398700D02*
D03*
Y424100D02*
D03*
Y449500D02*
D03*
Y474900D02*
D03*
Y500300D02*
D03*
X827250Y302000D02*
D03*
X737362Y163830D02*
D03*
X788952Y364860D02*
D03*
X869122Y391526D02*
D03*
X850000Y435000D02*
D03*
X785622Y271526D02*
D03*
X785876Y255524D02*
D03*
X787146Y310388D02*
D03*
X836749Y34363D02*
D03*
X798649D02*
D03*
X754126Y34290D02*
D03*
X716099Y34363D02*
D03*
X623062Y34290D02*
D03*
X585470D02*
D03*
X540839Y34471D02*
D03*
X502920Y34290D02*
D03*
X302079Y138357D02*
D03*
X50619Y44377D02*
D03*
X69669Y44269D02*
D03*
X88719Y44523D02*
D03*
X107769Y44269D02*
D03*
X126819D02*
D03*
X152219Y44377D02*
D03*
X171269D02*
D03*
X190319Y44269D02*
D03*
X209369D02*
D03*
Y138357D02*
D03*
X107769Y138249D02*
D03*
X88719D02*
D03*
X69669D02*
D03*
X50546Y138430D02*
D03*
X64132Y74422D02*
D03*
X56156D02*
D03*
X75206Y83820D02*
D03*
X102232Y74422D02*
D03*
X94256D02*
D03*
X203832D02*
D03*
X195856D02*
D03*
X184782Y83820D02*
D03*
X176806D02*
D03*
X165732Y74422D02*
D03*
X146682Y84074D02*
D03*
X138706D02*
D03*
X269516Y74422D02*
D03*
X277492D02*
D03*
X288566Y83820D02*
D03*
X296542D02*
D03*
X307616Y74422D02*
D03*
X315592D02*
D03*
X326666Y83820D02*
D03*
X334642D02*
D03*
X83182D02*
D03*
X113306Y84074D02*
D03*
X121282D02*
D03*
X409216Y74168D02*
D03*
X417192D02*
D03*
X352066Y83566D02*
D03*
X360042D02*
D03*
X371116Y74168D02*
D03*
X379092D02*
D03*
X390166Y83820D02*
D03*
X398142D02*
D03*
X263979Y138249D02*
D03*
X283029Y138357D02*
D03*
X321129Y138249D02*
D03*
X346529Y138357D02*
D03*
X365579D02*
D03*
X403679D02*
D03*
X422729Y138249D02*
D03*
X263979Y44377D02*
D03*
X283029Y44269D02*
D03*
X302079D02*
D03*
X321129D02*
D03*
X340179Y44377D02*
D03*
X365579Y44269D02*
D03*
X384629D02*
D03*
X403679Y44377D02*
D03*
X422729Y44269D02*
D03*
X477339Y138357D02*
D03*
X496389D02*
D03*
X515439D02*
D03*
X534489D02*
D03*
X553539D02*
D03*
X578939D02*
D03*
X597989D02*
D03*
X477339Y44269D02*
D03*
X515439Y44377D02*
D03*
X553539Y44269D02*
D03*
X572589Y109039D02*
D03*
X604339D02*
D03*
X483689Y73479D02*
D03*
X521789D02*
D03*
X346529D02*
D03*
X340179Y109293D02*
D03*
X559889Y109039D02*
D03*
X566239Y138357D02*
D03*
X610689D02*
D03*
X617039Y109039D02*
D03*
X133169Y73587D02*
D03*
X126819Y108966D02*
D03*
X490039Y44269D02*
D03*
X496389Y73333D02*
D03*
X528139Y44269D02*
D03*
X534489Y73333D02*
D03*
X559889Y73225D02*
D03*
X566239Y44269D02*
D03*
X572589Y73333D02*
D03*
X578939Y44631D02*
D03*
X597989Y44377D02*
D03*
X604339Y73333D02*
D03*
X610689Y44269D02*
D03*
X617039Y73225D02*
D03*
X636089Y44377D02*
D03*
X690699Y138357D02*
D03*
X697049Y109039D02*
D03*
X709749Y138249D02*
D03*
X728799D02*
D03*
X747849D02*
D03*
X766899Y138357D02*
D03*
X773249Y109039D02*
D03*
X779599Y138357D02*
D03*
X785949Y109039D02*
D03*
X792299Y138357D02*
D03*
X811349D02*
D03*
X817699Y109039D02*
D03*
X824049Y138357D02*
D03*
X830399Y109039D02*
D03*
X690699Y44269D02*
D03*
X697049Y73333D02*
D03*
X703399Y44269D02*
D03*
X709749Y73333D02*
D03*
X728799Y44269D02*
D03*
X735149Y73333D02*
D03*
X741499Y44523D02*
D03*
X747849Y73333D02*
D03*
X766899Y44377D02*
D03*
X773249Y73333D02*
D03*
X779599Y44269D02*
D03*
X785949Y73333D02*
D03*
X792299Y44269D02*
D03*
X811349Y44377D02*
D03*
X817699Y73333D02*
D03*
X824049Y44269D02*
D03*
X830399Y73333D02*
D03*
X384629Y138357D02*
D03*
X190319Y138249D02*
D03*
X171269D02*
D03*
X152219Y138357D02*
D03*
X133169Y138103D02*
D03*
X157756Y74422D02*
D03*
X633000Y278000D02*
D03*
X687000Y217000D02*
D03*
X715678Y269524D02*
D03*
X864235Y123571D02*
D03*
X192532Y431292D02*
D03*
X455930Y431546D02*
D03*
X531876Y228854D02*
D03*
X542798Y243586D02*
D03*
X228869Y713888D02*
D03*
X239014Y693420D02*
D03*
X381514D02*
D03*
X524014D02*
D03*
X666514D02*
D03*
X371869Y714888D02*
D03*
X513869Y713888D02*
D03*
X655869D02*
D03*
X547223Y798977D02*
D03*
X405223Y797977D02*
D03*
X262223Y796977D02*
D03*
X689609Y797977D02*
D03*
X323000Y635000D02*
D03*
X775665Y628650D02*
D03*
X783641D02*
D03*
X436118Y524764D02*
D03*
D76*
X784670Y578040D02*
D03*
D77*
X777170Y593540D02*
D03*
X782170D02*
D03*
X787170D02*
D03*
X792170D02*
D03*
Y562540D02*
D03*
X787170D02*
D03*
X782170D02*
D03*
X777170D02*
D03*
D78*
X800170Y585540D02*
D03*
Y580540D02*
D03*
Y575540D02*
D03*
Y570540D02*
D03*
X769170D02*
D03*
Y575540D02*
D03*
Y580540D02*
D03*
Y585540D02*
D03*
D79*
X104822Y769366D02*
D03*
X94822D02*
D03*
X49864D02*
D03*
X59864D02*
D03*
X777670Y549040D02*
D03*
X767670D02*
D03*
X852758Y519938D02*
D03*
X862758D02*
D03*
X746708Y163576D02*
D03*
X756708D02*
D03*
X777000Y329000D02*
D03*
X787000D02*
D03*
X777000Y319000D02*
D03*
X787000D02*
D03*
X845000Y302000D02*
D03*
X835000D02*
D03*
X859000Y454000D02*
D03*
X869000D02*
D03*
X447000Y152000D02*
D03*
X457000D02*
D03*
X859000Y444000D02*
D03*
X869000D02*
D03*
X461000Y76000D02*
D03*
X471000D02*
D03*
X33000Y1045400D02*
D03*
X23000D02*
D03*
Y969400D02*
D03*
X33000D02*
D03*
X775000Y1045400D02*
D03*
X785000D02*
D03*
Y973400D02*
D03*
X775000D02*
D03*
X823388Y819912D02*
D03*
X813388D02*
D03*
X743284Y566166D02*
D03*
X753284D02*
D03*
D80*
X758190Y410290D02*
D03*
Y420290D02*
D03*
X704850Y410290D02*
D03*
Y420290D02*
D03*
X691000Y265000D02*
D03*
Y255000D02*
D03*
X782828Y704118D02*
D03*
Y694118D02*
D03*
Y724438D02*
D03*
Y714438D02*
D03*
X595000Y267000D02*
D03*
Y277000D02*
D03*
X778002Y827612D02*
D03*
Y837612D02*
D03*
X604000Y267000D02*
D03*
Y277000D02*
D03*
X80264Y672926D02*
D03*
Y682926D02*
D03*
X79254Y565984D02*
D03*
Y575984D02*
D03*
X524000Y172000D02*
D03*
Y162000D02*
D03*
X534000D02*
D03*
Y172000D02*
D03*
X497000Y162000D02*
D03*
Y172000D02*
D03*
X506984Y172132D02*
D03*
Y162132D02*
D03*
D81*
X740111Y394905D02*
D03*
Y375905D02*
D03*
X762111Y385405D02*
D03*
X687787Y394905D02*
D03*
Y375905D02*
D03*
X709787Y385405D02*
D03*
X107774Y791108D02*
D03*
Y810108D02*
D03*
X85774Y800608D02*
D03*
X56212Y790854D02*
D03*
Y809854D02*
D03*
X34212Y800354D02*
D03*
X457724Y185794D02*
D03*
X479724Y195294D02*
D03*
Y176294D02*
D03*
X461000Y99500D02*
D03*
Y118500D02*
D03*
X439000Y109000D02*
D03*
D82*
X792480Y724582D02*
D03*
Y714582D02*
D03*
X788000Y291000D02*
D03*
Y301000D02*
D03*
X715678Y250524D02*
D03*
Y260524D02*
D03*
X869696Y742014D02*
D03*
Y752014D02*
D03*
X878000Y409000D02*
D03*
Y399000D02*
D03*
X775274Y607294D02*
D03*
Y617294D02*
D03*
X784274Y607294D02*
D03*
Y617294D02*
D03*
D83*
X842518Y657060D02*
D03*
Y684060D02*
D03*
X808482Y657060D02*
D03*
Y684060D02*
D03*
X806450Y799630D02*
D03*
Y772630D02*
D03*
X831000Y471500D02*
D03*
Y444500D02*
D03*
X747000Y231500D02*
D03*
Y204500D02*
D03*
X712000Y345500D02*
D03*
Y318500D02*
D03*
X796500Y471500D02*
D03*
Y444500D02*
D03*
X779000Y231500D02*
D03*
Y204500D02*
D03*
X746000Y345500D02*
D03*
Y318500D02*
D03*
X862000Y354500D02*
D03*
Y327500D02*
D03*
X827000D02*
D03*
Y354500D02*
D03*
X840740Y799550D02*
D03*
Y772550D02*
D03*
D84*
X836186Y519928D02*
D03*
X826186D02*
D03*
X668000Y217000D02*
D03*
X678000D02*
D03*
X797670Y540540D02*
D03*
X787670D02*
D03*
X617000Y271000D02*
D03*
X627000D02*
D03*
X797670Y549540D02*
D03*
X787670D02*
D03*
X798952Y372110D02*
D03*
X788952D02*
D03*
X753284Y578358D02*
D03*
X743284D02*
D03*
X753284Y587502D02*
D03*
X743284D02*
D03*
X804274Y607294D02*
D03*
X794274D02*
D03*
X804274Y616294D02*
D03*
X794274D02*
D03*
D85*
X780170Y527040D02*
D03*
X795170D02*
D03*
D86*
X516000Y213000D02*
D03*
X525500Y191000D02*
D03*
X506500D02*
D03*
D87*
X290830Y374022D02*
D03*
Y359022D02*
D03*
X741834Y509150D02*
D03*
Y494150D02*
D03*
X430022Y539616D02*
D03*
Y554616D02*
D03*
X471170Y567316D02*
D03*
Y552316D02*
D03*
D88*
X813000Y1053400D02*
D03*
X843000D02*
D03*
X813000Y972400D02*
D03*
X843000D02*
D03*
X60000Y971400D02*
D03*
X90000D02*
D03*
X60000Y1053400D02*
D03*
X90000D02*
D03*
D89*
X727750Y291000D02*
D03*
Y284500D02*
D03*
Y278000D02*
D03*
Y271500D02*
D03*
Y265000D02*
D03*
X776250D02*
D03*
Y271500D02*
D03*
Y278000D02*
D03*
Y284500D02*
D03*
Y291000D02*
D03*
X648250Y217000D02*
D03*
Y223500D02*
D03*
Y230000D02*
D03*
Y236500D02*
D03*
Y243000D02*
D03*
X599750D02*
D03*
Y236500D02*
D03*
Y230000D02*
D03*
Y223500D02*
D03*
Y217000D02*
D03*
X859750Y411000D02*
D03*
Y404500D02*
D03*
Y398000D02*
D03*
Y391500D02*
D03*
Y385000D02*
D03*
X811250D02*
D03*
Y391500D02*
D03*
Y398000D02*
D03*
Y404500D02*
D03*
Y411000D02*
D03*
X807680Y714710D02*
D03*
Y721210D02*
D03*
Y727710D02*
D03*
Y734210D02*
D03*
Y740710D02*
D03*
X856180D02*
D03*
Y734210D02*
D03*
Y727710D02*
D03*
Y721210D02*
D03*
Y714710D02*
D03*
D90*
X739000Y253750D02*
D03*
X745500D02*
D03*
X752000D02*
D03*
X758500D02*
D03*
X765000D02*
D03*
Y302250D02*
D03*
X758500D02*
D03*
X752000D02*
D03*
X745500D02*
D03*
X739000D02*
D03*
X611000Y205750D02*
D03*
X617500D02*
D03*
X624000D02*
D03*
X630500D02*
D03*
X637000D02*
D03*
Y254250D02*
D03*
X630500D02*
D03*
X624000D02*
D03*
X617500D02*
D03*
X611000D02*
D03*
X822500Y422250D02*
D03*
X829000D02*
D03*
X835500D02*
D03*
X842000D02*
D03*
X848500D02*
D03*
Y373750D02*
D03*
X842000D02*
D03*
X835500D02*
D03*
X829000D02*
D03*
X822500D02*
D03*
X844930Y703460D02*
D03*
X838430D02*
D03*
X831930D02*
D03*
X825430D02*
D03*
X818930D02*
D03*
Y751960D02*
D03*
X825430D02*
D03*
X831930D02*
D03*
X838430D02*
D03*
X844930D02*
D03*
D91*
X752000Y278000D02*
D03*
X835500Y398000D02*
D03*
X831930Y727710D02*
D03*
D92*
X65050Y732000D02*
D03*
X52350D02*
D03*
X39650D02*
D03*
X26950D02*
D03*
X65050Y680000D02*
D03*
X52350D02*
D03*
X39650D02*
D03*
X26950D02*
D03*
X25950Y573000D02*
D03*
X38650D02*
D03*
X51350D02*
D03*
X64050D02*
D03*
X25950Y625000D02*
D03*
X38650D02*
D03*
X51350D02*
D03*
X64050D02*
D03*
D93*
X559869Y678400D02*
D03*
X487869D02*
D03*
X495869D02*
D03*
X503869D02*
D03*
X511869D02*
D03*
X519869D02*
D03*
X527869D02*
D03*
X535869D02*
D03*
X543869D02*
D03*
X551869D02*
D03*
X547869Y760400D02*
D03*
X539869D02*
D03*
X531869D02*
D03*
X523869D02*
D03*
X515869D02*
D03*
X507869D02*
D03*
X499869D02*
D03*
X491869D02*
D03*
X483869D02*
D03*
X555869Y760400D02*
D03*
X702369Y678400D02*
D03*
X630369D02*
D03*
X638369D02*
D03*
X646369D02*
D03*
X654369D02*
D03*
X662369D02*
D03*
X670369D02*
D03*
X678369D02*
D03*
X686369D02*
D03*
X694369D02*
D03*
X690369Y760400D02*
D03*
X682369D02*
D03*
X674369D02*
D03*
X666369D02*
D03*
X658369D02*
D03*
X650369D02*
D03*
X642369D02*
D03*
X634369D02*
D03*
X626369D02*
D03*
X698369Y760400D02*
D03*
X274869Y678400D02*
D03*
X202869D02*
D03*
X210869D02*
D03*
X218869D02*
D03*
X226869D02*
D03*
X234869D02*
D03*
X242869D02*
D03*
X250869D02*
D03*
X258869D02*
D03*
X266869D02*
D03*
X262869Y760400D02*
D03*
X254869D02*
D03*
X246869D02*
D03*
X238869D02*
D03*
X230869D02*
D03*
X222869D02*
D03*
X214869D02*
D03*
X206869D02*
D03*
X198869D02*
D03*
X270869Y760400D02*
D03*
X417369Y678400D02*
D03*
X345369D02*
D03*
X353369D02*
D03*
X361369D02*
D03*
X369369D02*
D03*
X377369D02*
D03*
X385369D02*
D03*
X393369D02*
D03*
X401369D02*
D03*
X409369D02*
D03*
X405369Y760400D02*
D03*
X397369D02*
D03*
X389369D02*
D03*
X381369D02*
D03*
X373369D02*
D03*
X365369D02*
D03*
X357369D02*
D03*
X349369D02*
D03*
X341369D02*
D03*
X413369Y760400D02*
D03*
D94*
X714114Y546608D02*
D03*
X729114D02*
D03*
D95*
X714214Y527050D02*
D03*
X741714D02*
D03*
D96*
X624000Y230000D02*
D03*
D97*
X554444Y223000D02*
D03*
X581444D02*
D03*
X554444Y255524D02*
D03*
X581444D02*
D03*
X662500Y196000D02*
D03*
X689500D02*
D03*
X648500Y276606D02*
D03*
X675500D02*
D03*
D98*
X309372Y402116D02*
D03*
Y374616D02*
D03*
X450088Y539462D02*
D03*
Y566962D02*
D03*
D99*
X370000Y595000D02*
D03*
Y585000D02*
D03*
Y575000D02*
D03*
Y565000D02*
D03*
Y555000D02*
D03*
Y545000D02*
D03*
Y535000D02*
D03*
Y525000D02*
D03*
Y515000D02*
D03*
Y505000D02*
D03*
Y495000D02*
D03*
Y485000D02*
D03*
Y475000D02*
D03*
Y465000D02*
D03*
X360000Y595000D02*
D03*
Y585000D02*
D03*
Y575000D02*
D03*
Y565000D02*
D03*
Y555000D02*
D03*
Y545000D02*
D03*
Y535000D02*
D03*
Y525000D02*
D03*
Y515000D02*
D03*
Y505000D02*
D03*
Y495000D02*
D03*
Y485000D02*
D03*
Y475000D02*
D03*
Y465000D02*
D03*
X350000Y595000D02*
D03*
Y585000D02*
D03*
Y575000D02*
D03*
Y565000D02*
D03*
Y555000D02*
D03*
Y545000D02*
D03*
Y535000D02*
D03*
Y525000D02*
D03*
Y515000D02*
D03*
Y505000D02*
D03*
Y495000D02*
D03*
Y485000D02*
D03*
Y475000D02*
D03*
Y465000D02*
D03*
X340000Y595000D02*
D03*
Y585000D02*
D03*
Y575000D02*
D03*
Y565000D02*
D03*
Y555000D02*
D03*
Y545000D02*
D03*
Y535000D02*
D03*
Y525000D02*
D03*
Y515000D02*
D03*
Y505000D02*
D03*
Y495000D02*
D03*
Y485000D02*
D03*
Y475000D02*
D03*
Y465000D02*
D03*
X330000Y595000D02*
D03*
Y585000D02*
D03*
Y575000D02*
D03*
Y565000D02*
D03*
Y555000D02*
D03*
Y545000D02*
D03*
Y535000D02*
D03*
Y525000D02*
D03*
Y515000D02*
D03*
Y505000D02*
D03*
Y495000D02*
D03*
Y485000D02*
D03*
Y475000D02*
D03*
Y465000D02*
D03*
X320000Y595000D02*
D03*
Y585000D02*
D03*
Y575000D02*
D03*
Y565000D02*
D03*
Y555000D02*
D03*
Y545000D02*
D03*
Y535000D02*
D03*
Y525000D02*
D03*
Y515000D02*
D03*
Y505000D02*
D03*
Y495000D02*
D03*
Y485000D02*
D03*
Y475000D02*
D03*
Y465000D02*
D03*
X310000Y595000D02*
D03*
Y585000D02*
D03*
Y575000D02*
D03*
Y565000D02*
D03*
Y555000D02*
D03*
Y545000D02*
D03*
Y535000D02*
D03*
Y525000D02*
D03*
Y515000D02*
D03*
Y505000D02*
D03*
Y495000D02*
D03*
Y485000D02*
D03*
Y475000D02*
D03*
Y465000D02*
D03*
X300000Y595000D02*
D03*
Y585000D02*
D03*
Y575000D02*
D03*
Y565000D02*
D03*
Y555000D02*
D03*
Y545000D02*
D03*
Y535000D02*
D03*
Y525000D02*
D03*
Y515000D02*
D03*
Y505000D02*
D03*
Y495000D02*
D03*
Y485000D02*
D03*
Y475000D02*
D03*
Y465000D02*
D03*
X290000Y595000D02*
D03*
Y585000D02*
D03*
Y575000D02*
D03*
Y565000D02*
D03*
Y555000D02*
D03*
Y545000D02*
D03*
Y535000D02*
D03*
Y525000D02*
D03*
Y515000D02*
D03*
Y505000D02*
D03*
Y495000D02*
D03*
Y485000D02*
D03*
Y475000D02*
D03*
Y465000D02*
D03*
X280000Y595000D02*
D03*
Y585000D02*
D03*
Y575000D02*
D03*
Y565000D02*
D03*
Y555000D02*
D03*
Y545000D02*
D03*
Y535000D02*
D03*
Y525000D02*
D03*
Y515000D02*
D03*
Y505000D02*
D03*
Y495000D02*
D03*
Y485000D02*
D03*
Y475000D02*
D03*
Y465000D02*
D03*
X270000Y595000D02*
D03*
Y585000D02*
D03*
Y575000D02*
D03*
Y565000D02*
D03*
Y555000D02*
D03*
Y545000D02*
D03*
Y535000D02*
D03*
Y525000D02*
D03*
Y515000D02*
D03*
Y505000D02*
D03*
Y495000D02*
D03*
Y485000D02*
D03*
Y475000D02*
D03*
Y465000D02*
D03*
X260000Y595000D02*
D03*
Y585000D02*
D03*
Y575000D02*
D03*
Y565000D02*
D03*
Y555000D02*
D03*
Y545000D02*
D03*
Y535000D02*
D03*
Y525000D02*
D03*
Y515000D02*
D03*
Y505000D02*
D03*
Y495000D02*
D03*
Y485000D02*
D03*
Y475000D02*
D03*
Y465000D02*
D03*
X250000Y595000D02*
D03*
Y585000D02*
D03*
Y575000D02*
D03*
Y565000D02*
D03*
Y555000D02*
D03*
Y545000D02*
D03*
Y535000D02*
D03*
Y525000D02*
D03*
Y515000D02*
D03*
Y505000D02*
D03*
Y495000D02*
D03*
Y485000D02*
D03*
Y475000D02*
D03*
Y465000D02*
D03*
X240000Y595000D02*
D03*
Y585000D02*
D03*
Y575000D02*
D03*
Y565000D02*
D03*
Y555000D02*
D03*
Y545000D02*
D03*
Y535000D02*
D03*
Y525000D02*
D03*
Y515000D02*
D03*
Y505000D02*
D03*
Y495000D02*
D03*
Y485000D02*
D03*
Y475000D02*
D03*
Y465000D02*
D03*
X530000D02*
D03*
Y475000D02*
D03*
Y485000D02*
D03*
Y495000D02*
D03*
Y505000D02*
D03*
Y515000D02*
D03*
Y525000D02*
D03*
Y535000D02*
D03*
Y545000D02*
D03*
Y555000D02*
D03*
Y565000D02*
D03*
Y575000D02*
D03*
Y585000D02*
D03*
Y595000D02*
D03*
X540000Y465000D02*
D03*
Y475000D02*
D03*
Y485000D02*
D03*
Y495000D02*
D03*
Y505000D02*
D03*
Y515000D02*
D03*
Y525000D02*
D03*
Y535000D02*
D03*
Y545000D02*
D03*
Y555000D02*
D03*
Y565000D02*
D03*
Y575000D02*
D03*
Y585000D02*
D03*
Y595000D02*
D03*
X550000Y465000D02*
D03*
Y475000D02*
D03*
Y485000D02*
D03*
Y495000D02*
D03*
Y505000D02*
D03*
Y515000D02*
D03*
Y525000D02*
D03*
Y535000D02*
D03*
Y545000D02*
D03*
Y555000D02*
D03*
Y565000D02*
D03*
Y575000D02*
D03*
Y585000D02*
D03*
Y595000D02*
D03*
X560000Y465000D02*
D03*
Y475000D02*
D03*
Y485000D02*
D03*
Y495000D02*
D03*
Y505000D02*
D03*
Y515000D02*
D03*
Y525000D02*
D03*
Y535000D02*
D03*
Y545000D02*
D03*
Y555000D02*
D03*
Y565000D02*
D03*
Y575000D02*
D03*
Y585000D02*
D03*
Y595000D02*
D03*
X570000Y465000D02*
D03*
Y475000D02*
D03*
Y485000D02*
D03*
Y495000D02*
D03*
Y505000D02*
D03*
Y515000D02*
D03*
Y525000D02*
D03*
Y535000D02*
D03*
Y545000D02*
D03*
Y555000D02*
D03*
Y565000D02*
D03*
Y575000D02*
D03*
Y585000D02*
D03*
Y595000D02*
D03*
X580000Y465000D02*
D03*
Y475000D02*
D03*
Y485000D02*
D03*
Y495000D02*
D03*
Y505000D02*
D03*
Y515000D02*
D03*
Y525000D02*
D03*
Y535000D02*
D03*
Y545000D02*
D03*
Y555000D02*
D03*
Y565000D02*
D03*
Y575000D02*
D03*
Y585000D02*
D03*
Y595000D02*
D03*
X590000Y465000D02*
D03*
Y475000D02*
D03*
Y485000D02*
D03*
Y495000D02*
D03*
Y505000D02*
D03*
Y515000D02*
D03*
Y525000D02*
D03*
Y535000D02*
D03*
Y545000D02*
D03*
Y555000D02*
D03*
Y565000D02*
D03*
Y575000D02*
D03*
Y585000D02*
D03*
Y595000D02*
D03*
X600000Y465000D02*
D03*
Y475000D02*
D03*
Y485000D02*
D03*
Y495000D02*
D03*
Y505000D02*
D03*
Y515000D02*
D03*
Y525000D02*
D03*
Y535000D02*
D03*
Y545000D02*
D03*
Y555000D02*
D03*
Y565000D02*
D03*
Y575000D02*
D03*
Y585000D02*
D03*
Y595000D02*
D03*
X610000Y465000D02*
D03*
Y475000D02*
D03*
Y485000D02*
D03*
Y495000D02*
D03*
Y505000D02*
D03*
Y515000D02*
D03*
Y525000D02*
D03*
Y535000D02*
D03*
Y545000D02*
D03*
Y555000D02*
D03*
Y565000D02*
D03*
Y575000D02*
D03*
Y585000D02*
D03*
Y595000D02*
D03*
X620000Y465000D02*
D03*
Y475000D02*
D03*
Y485000D02*
D03*
Y495000D02*
D03*
Y505000D02*
D03*
Y515000D02*
D03*
Y525000D02*
D03*
Y535000D02*
D03*
Y545000D02*
D03*
Y555000D02*
D03*
Y565000D02*
D03*
Y575000D02*
D03*
Y585000D02*
D03*
Y595000D02*
D03*
X630000Y465000D02*
D03*
Y475000D02*
D03*
Y485000D02*
D03*
Y495000D02*
D03*
Y505000D02*
D03*
Y515000D02*
D03*
Y525000D02*
D03*
Y535000D02*
D03*
Y545000D02*
D03*
Y555000D02*
D03*
Y565000D02*
D03*
Y575000D02*
D03*
Y585000D02*
D03*
Y595000D02*
D03*
X640000Y465000D02*
D03*
Y475000D02*
D03*
Y485000D02*
D03*
Y495000D02*
D03*
Y505000D02*
D03*
Y515000D02*
D03*
Y525000D02*
D03*
Y535000D02*
D03*
Y545000D02*
D03*
Y555000D02*
D03*
Y565000D02*
D03*
Y575000D02*
D03*
Y585000D02*
D03*
Y595000D02*
D03*
X650000Y465000D02*
D03*
Y475000D02*
D03*
Y485000D02*
D03*
Y495000D02*
D03*
Y505000D02*
D03*
Y515000D02*
D03*
Y525000D02*
D03*
Y535000D02*
D03*
Y545000D02*
D03*
Y555000D02*
D03*
Y565000D02*
D03*
Y575000D02*
D03*
Y585000D02*
D03*
Y595000D02*
D03*
X660000Y465000D02*
D03*
Y475000D02*
D03*
Y485000D02*
D03*
Y495000D02*
D03*
Y505000D02*
D03*
Y515000D02*
D03*
Y525000D02*
D03*
Y535000D02*
D03*
Y545000D02*
D03*
Y555000D02*
D03*
Y565000D02*
D03*
Y575000D02*
D03*
Y585000D02*
D03*
Y595000D02*
D03*
D100*
X395000Y620000D02*
D03*
X215000Y440000D02*
D03*
X505000D02*
D03*
X685000Y620000D02*
D03*
X55000Y300000D02*
D03*
X625000Y170000D02*
D03*
X875000Y950000D02*
D03*
X115000Y927000D02*
D03*
D101*
X521969Y847400D02*
D03*
X236919D02*
D03*
D102*
X825800Y539750D02*
D03*
Y565150D02*
D03*
Y590550D02*
D03*
X863300D02*
D03*
Y565150D02*
D03*
Y539750D02*
D03*
D103*
X76750Y410600D02*
D03*
Y385200D02*
D03*
Y359800D02*
D03*
Y486800D02*
D03*
Y461400D02*
D03*
Y436000D02*
D03*
Y512200D02*
D03*
X27250D02*
D03*
Y436000D02*
D03*
Y461400D02*
D03*
Y486800D02*
D03*
Y359800D02*
D03*
Y385200D02*
D03*
Y410600D02*
D03*
D104*
X427482Y513334D02*
D03*
X860298Y302006D02*
D03*
X682000Y239000D02*
D03*
X726948Y573786D02*
D03*
X775716Y163830D02*
D03*
X843534Y824230D02*
D03*
D105*
X473869Y719400D02*
D03*
X569869D02*
D03*
X616369D02*
D03*
X712369D02*
D03*
X188869D02*
D03*
X284869D02*
D03*
X331369D02*
D03*
X427369D02*
D03*
D106*
X850000Y1023800D02*
D03*
Y998400D02*
D03*
X97000Y1023800D02*
D03*
Y998400D02*
D03*
D107*
X872744Y70866D02*
D03*
X26924D02*
D03*
D108*
X63065Y881761D02*
D03*
X836965D02*
D03*
X63065Y222123D02*
D03*
X836965D02*
D03*
M02*
