M48
;Layer_Color=9474304
;FILE_FORMAT=4:4
METRIC,LZ
;TYPE=PLATED
T1F00S00C0.2540
T2F00S00C0.3300
T3F00S00C0.5000
T4F00S00C0.9500
T5F00S00C1.0500
T6F00S00C1.5500
T7F00S00C3.8100
;TYPE=NON_PLATED
T8F00S00C1.1684
T9F00S00C1.5240
%
T01
X00050619Y00044377
X00069669Y00044269
X00064132Y00074422
X00056156
X00094256
X00102232
X00133169Y00073587
X00157756Y00074422
X00165732
X00195856
X00203832
X00209369Y00044269
X00190319
X00171269Y00044377
X00152219
X00126819Y00044269
X00107769
X00088719Y00044523
X00263979Y00044377
X00283029Y00044269
X00302079
X00321129
X00340179Y00044377
X00365579Y00044269
X00384629
X00403679Y00044377
X00422729Y00044269
X00417192Y00074168
X00409216
X00379092
X00371116
X00346529Y00073479
X00315592Y00074422
X00307616
X00277492
X00269516
X00477339Y00044269
X00490039
X0050292Y0003429
X00515439Y00044377
X00528139Y00044269
X00540839Y00034471
X00553539Y00044269
X00566239
X00578939Y00044631
X0058547Y0003429
X00597989Y00044377
X00610689Y00044269
X00623062Y0003429
X00636089Y00044377
X00617039Y00073225
X00604339Y00073333
X00572589
X00559889Y00073225
X00534489Y00073333
X00521789Y00073479
X00496389Y00073333
X00483689Y00073479
X00697049Y00073333
X00709749
X00735149
X00747849
X00773249
X00785949
X00817699
X00830399
X00824049Y00044269
X00811349Y00044377
X00792299Y00044269
X00779599
X00766899Y00044377
X00754126Y0003429
X00741499Y00044523
X00728799Y00044269
X00716099Y00034363
X00703399Y00044269
X00690699
X00798649Y00034363
X00836749
X00849449Y00044269
X00830399Y00109039
X00817699
X00804999Y00108785
X00798649
X00785949Y00109039
X00773249
X00766899Y00138357
X00779599
X00792299
X00811349
X00824049
X00836749
X00843099
X00864235Y00123571
X00747849Y00138249
X00728799
X00709749
X00690699Y00138357
X00697049Y00109039
X00617039
X00604339
X00591639Y00108785
X00585289
X00572589Y00109039
X00559889
X00553539Y00138357
X00566239
X00578939
X00597989
X00610689
X00623389
X00629739
X00534489
X00515439
X00496389
X00490039Y00108785
X00483689Y00105991
X00502739Y00107007
X00509089Y00108785
X00521789
X00541782Y00162052
X0053579Y00191
X00531876Y00228854
X00516Y00225322
X00542798Y00243586
X00479724Y00205584
X00631Y00266
X00633Y00278
X007Y00265
X00715678Y00269524
X00785622Y00271526
X00785876Y00255524
X00787146Y00310388
X0082725Y00302
X00788952Y0036486
X00777494Y00393192
X00724662Y00404876
X00732282Y0042037
X00733806Y00477012
X0074422
X00665Y0047
X00655
X00645
Y0046
X00655
X00665
X00656844Y00430784
X00646938Y00429006
X00636016Y00431038
X0064897Y0041656
X00585Y0046
Y0047
X00575
X00565
X00555
X00545
X00535
Y0046
X00545
X00555
X00565
X00575
X00525
Y0047
X0085Y00435
X00869122Y00391526
X00687Y00217
X00737362Y0016383
X00457Y0015975
X00447
X00457724Y00175504
X00477339Y00138357
X00422729Y00138249
X00403679Y00138357
X00384629
X00365579
X00346529
X00321129Y00138249
X00302079Y00138357
X00283029
X00263979Y00138249
X00209369Y00138357
X00190319Y00138249
X00171269
X00152219Y00138357
X00133169Y00138103
X00107769Y00138249
X00088719
X00083182Y0008382
X00113306Y00084074
X00121282
X00138706
X00146682
X00176806Y0008382
X00184782
X00126819Y00108966
X00288566Y0008382
X00296542
X00326666
X00334642
X00352066Y00083566
X00360042
X00390166Y0008382
X00398142
X00340179Y00109293
X00268979Y00342646
X00265Y0046
X00255
X00245
Y0047
X00255
X00265
X00275
X00285
X00295
Y0046
X00285
X00275
X00235
Y0047
X00192532Y00431292
X0009Y004241
Y004495
Y004749
Y003987
Y003733
Y003479
X00355Y0046
Y0047
X00365
Y0046
X00375
Y0047
X00455422Y00475742
X0045593Y00431546
X00025Y004241
Y003987
Y003733
Y003479
Y004495
Y004749
X00050546Y0013843
X00069669Y00138249
X00075206Y0008382
X00025Y005003
X0002595Y0055555
X0003865
X0006405
X00079254Y00558034
X00080264Y00664972
X0006505Y0066255
X0005235
X0003965
X0002695
X0002595Y0064245
X0003865
X0005135
X0005235Y0074945
X0003965
X0002695
X00065278Y00760476
X000254Y00837184
X00109474Y00823722
X00128778Y00800608
X00198869Y0077615
X00214869
X00230869
X00246869
X00254869
X00270869Y0077615
X00262223Y00796977
X00262869Y0074465
X00238869
X00222869
X00206869
X00228869Y00713888
X00226869Y0069415
X00239014Y0069342
X00250869Y0069415
X00274869
X00285Y00645
Y0063
X0028Y00615
X00285Y006
X00275
Y0059
X00285
Y0058
X00275
Y0057
X00285
Y0056
Y0055
X00275
Y0056
X00265
Y0055
Y0054
X00275
X00285
X00295
Y0055
Y0056
Y0057
Y0058
Y0059
Y006
X00315
Y0059
Y0058
Y0057
Y0056
Y0055
Y0054
X00325
X00335
Y0055
X00325
Y0056
X00335
X00345
Y0055
X00355
Y0056
Y0057
X00345
X00335
X00325
Y0058
X00335
X00345
X00355
X00365
Y0057
Y0056
Y0055
Y0054
X00355
X00345
Y0052
Y0051
Y005
Y0049
X00335
X00325
Y005
Y0051
X00335
Y005
X00315
Y0051
Y0052
X00325
X00335
X00355
Y0051
Y005
Y0049
Y0048
X00345
X00335
X00325
X00315
Y0049
X00295
Y005
Y0051
Y0052
X00285
X00275
Y0051
X00285
Y005
X00275
Y0049
X00285
Y0048
X00275
X00265
Y0049
Y005
Y0051
Y0052
X00255
Y0051
Y005
Y0049
Y0048
X00295
X00365
Y0049
Y005
Y0051
Y0052
X00375
Y0051
Y005
Y0049
Y0048
X00391922Y00514256
Y00524256
X00375Y0054
Y0055
Y0056
Y0057
Y0058
Y0059
Y006
X0038Y00615
X00353
X00356108Y00626364
Y0064516
X00368Y00638
X00395Y0063
X0041Y00645
X00417369Y0069415
X00393369
X00381514Y0069342
X00369369Y0069415
X00371869Y00714888
X00365369Y0074465
X00381369
X00405369
X00413369Y0077615
X00397369Y0077615
X00389369
X00373369
X00357369
X00341369
X00349369Y0074465
X00345369Y0069415
X0034Y0066
X0033Y00645
X00321Y00642
X00323Y00635
X00325Y00615
X00325Y006
X00335
Y0059
X00325
X00355
Y006
X00255
Y0059
Y0058
Y0057
X00265
Y0058
X00245
Y0057
Y0056
Y0055
X00255
Y0056
Y0054
X00245
Y0053
X00235
Y0054
Y0055
Y0056
Y0057
Y0058
Y0059
Y006
X0023Y00615
X0022Y00625
X00205Y0064
X00194Y00643
X00186Y00637696
X00186Y0062257
X00162Y00637696
X002Y00655
X00202869Y0069415
X0025Y00645
X00255Y0063
X00257Y00615
X00203Y00574
X00193446Y0055354
X00177Y00531
X00167Y00526
X0015Y00534
X00135128Y00520954
X0012319Y00524256
X00129Y005435
X0011557Y00546862
X00104648Y00538734
X0009Y005003
X00457962Y00498856
X00464Y00522
X00436118Y00524764
X00405223Y00797977
X00483869Y0077615
X00499869
X00515869
X00531869
X00539869
X00555869Y0077615
X00547223Y00798977
X00547869Y0074465
X00523869
X00507869
X00491869
X00513869Y00713888
X00511869Y0069415
X00524014Y0069342
X00535869Y0069415
X00559869
X00545Y0064
X00535Y00635
X00545Y00624
X00547Y00614
X00545Y006
Y0059
Y0058
Y0057
Y0056
Y0055
Y0054
X00555
X00565
X00575
X00585
Y0055
Y0056
X00575
X00565
Y0055
X00575
X00555
Y0056
Y0057
X00565
X00575
X00585
Y0058
X00575
X00565
X00555
X00565Y0059
X00575
Y006
X00565
X0057Y00615
X00575Y00635
X006Y00637
X0062Y00635
X00620776Y00627634
X00615Y00615
X00615Y006
X00625
Y0059
X00615
Y0058
X00625
Y0057
X00615
Y0056
Y0055
X00625
Y0056
X00635
Y0055
X00645
Y0056
Y0057
X00635
Y0058
X00645
X00655
Y0057
Y0056
Y0055
Y0054
X00645
X00635
X00625
X00615
X00605
Y0055
Y0056
Y0057
Y0058
Y0059
Y006
X00585
Y0059
X00535Y0058
Y0057
Y0056
Y0055
Y0054
Y0053
X00525
Y0054
Y0055
Y0056
Y0057
Y0058
Y0059
Y006
X00525Y0061
X0051Y00625
X00494Y00613
X00495Y0064
X00487Y00656
X00508254Y00660908
X00487869Y0069415
X00630369
X00654369
X00666514Y0069342
X00678369Y0069415
X00702369
X007Y0065
X0069596Y00632206
X00685Y0063
X00708914Y00626212
Y00618236
X0067Y00615
X00665Y006
Y0059
X00675
X00665Y0058
Y0057
Y0056
Y0055
Y0054
Y0052
X00655
X00645
X00635
Y0051
Y005
Y0049
X00625
X00615
Y005
Y0051
X00625
Y005
X00605
Y0051
Y0052
X00615
X00625
X00645Y0051
Y005
X00655
Y0051
X00665
Y005
Y0049
X00655
X00645
Y0048
X00635
X00625
X00615
X00605
Y0049
X00585
Y005
Y0051
Y0052
X00575
X00565
Y0051
X00575
Y005
X00565
Y0049
X00575
Y0048
X00565
X00555
Y0049
Y005
Y0051
Y0052
X00545
Y0051
Y005
Y0049
Y0048
X00585
X00655
X00665
X00681344Y00524438
X00645Y0059
Y006
X00645Y00615
Y00635
X00646Y00643
X0065Y0065
X00675
X0062
X00655869Y00713888
X00650369Y0074465
X00666369
X00690369
X00698369Y0077615
X00682369Y0077615
X00674369
X00658369
X00642369
X00626369
X00634369Y0074465
X00689609Y00797977
X00778Y00819162
X0080442Y00819914
X00795274Y00734314
X00869696Y0073406
X0081271Y00616294
X00794274Y00623554
X00783641Y0062865
X00775665
X0078067Y0058204
Y0057404
X0078867
Y0058204
X0078017Y0054014
X00806422Y0054054
X00806186Y0052704
X00818388Y00519938
X00844477
X00500888Y0053492
X00495Y00547
X00775462Y00958342
X0078486Y00965454
X00785114Y01036066
X00872Y01053
X00862Y00973
X0011557Y00971042
X001154Y01053
X0003302Y01035812
X00023Y00961276
T02
X00612Y00218
Y0023
Y00242
X00624
Y0023
Y00218
X00636
Y0023
Y00242
X0074Y00266
Y00278
Y0029
X00752
X00764
Y00278
X00752
Y00266
X00764
X008235Y00386
X008355
X008475
Y00398
X008355
X008235
Y0041
X008355
X008475
X0084393Y0071571
Y0072771
Y0073971
X0083193
X0081993
Y0072771
X0083193
Y0071571
X0081993
T03
X00883Y003275
Y003545
X00860298Y00302006
X00806Y003275
Y003545
X007735Y004445
Y004715
X0069342Y0033401
X00693614Y00307788
X006755Y00298106
X006485
X00581Y00276
X005545Y002755
X00583918Y00371722
Y00386722
X00600964Y00405638
X00601258Y0041875
X00682Y00239
X00724Y00232
X00778Y00245
X00779Y00183
X00775716Y0016383
X00747Y00183
X006895Y001745
X006625
X00338498Y0040527
X0030935Y00415946
X00293Y00388
X00277Y00359
X00427482Y00513334
X00430022Y00568514
X00416232Y00587232
Y00602232
X00392318Y0073464
X004225Y00758
X00464322Y00758018
X00322072Y00757428
X00281132Y0075819
X002495Y00735
X00534318Y0073564
X00563Y008005
X00589Y007855
X006785Y00736
X0070708Y00758586
X00748902Y00758604
X00783628Y0077263
Y0079963
X00863388Y0079955
X00863482Y0077255
X00843534Y0082423
X00865162Y0068406
X00865416Y0065706
X00739782Y00657306
X00706846Y0063937
X00709104Y00604896
Y00589896
X00726948Y00573786
X0074205Y00546608
X0075477Y0050915
Y0049415
X00485068Y00552316
Y00567316
X00483652Y00598154
Y00613154
T04
X00165669Y007034
X00165669Y007534
X00165669Y008004
X00308169
X00450669Y007784
Y006784
X00427369Y006574
X00379369
X00284869
X00236869
X00521869
X00569869
X00593169Y007034
X00593169Y007534
Y008004
X00735669Y008004
X00712369Y006574
X00664369
X00450669Y008784
Y009784
T05
X00308169Y006784
X00308169Y007784
X00165669Y008284
X00593169Y008284
X00735669Y007784
X00735669Y006784
X00735669Y008784
Y009784
X00593169Y009284
Y010284
X00308169Y009784
X00308169Y008784
X00165669Y009284
Y010284
T06
X00188869Y007194
X00284869
X00331369
X00427369
X00473869
X00569869
X00616369
X00712369
T07
X00836965Y00222123
X00063065
X00836965Y00881761
X00063065
T08
X00026924Y00070866
X00872744
T09
X0085Y009984
Y010238
X00097
Y009984
M30
