%FSLAX44Y44*%
%MOMM*%
G71*
G01*
G75*
G04 Layer_Color=16711935*
%ADD10C,0.2032*%
%ADD11R,1.6000X1.6000*%
%ADD12R,0.2800X0.8000*%
%ADD13R,0.8000X0.2800*%
%ADD14R,0.6000X0.6000*%
%ADD15R,0.6000X0.6000*%
%ADD16R,1.4000X1.0000*%
G04:AMPARAMS|DCode=17|XSize=0.5mm|YSize=0.6mm|CornerRadius=0.125mm|HoleSize=0mm|Usage=FLASHONLY|Rotation=0.000|XOffset=0mm|YOffset=0mm|HoleType=Round|Shape=RoundedRectangle|*
%AMROUNDEDRECTD17*
21,1,0.5000,0.3500,0,0,0.0*
21,1,0.2500,0.6000,0,0,0.0*
1,1,0.2500,0.1250,-0.1750*
1,1,0.2500,-0.1250,-0.1750*
1,1,0.2500,-0.1250,0.1750*
1,1,0.2500,0.1250,0.1750*
%
%ADD17ROUNDEDRECTD17*%
%ADD18R,2.6000X1.1000*%
G04:AMPARAMS|DCode=19|XSize=0.5mm|YSize=0.6mm|CornerRadius=0.125mm|HoleSize=0mm|Usage=FLASHONLY|Rotation=270.000|XOffset=0mm|YOffset=0mm|HoleType=Round|Shape=RoundedRectangle|*
%AMROUNDEDRECTD19*
21,1,0.5000,0.3500,0,0,270.0*
21,1,0.2500,0.6000,0,0,270.0*
1,1,0.2500,-0.1750,-0.1250*
1,1,0.2500,-0.1750,0.1250*
1,1,0.2500,0.1750,0.1250*
1,1,0.2500,0.1750,-0.1250*
%
%ADD19ROUNDEDRECTD19*%
%ADD20R,1.1000X1.3500*%
%ADD21R,1.0000X1.4000*%
%ADD22R,1.4000X1.1000*%
%ADD23R,1.1500X1.8000*%
%ADD24R,0.9500X0.3500*%
%ADD25R,0.3500X0.9500*%
%ADD26R,3.3000X3.3000*%
%ADD27R,0.6000X1.8000*%
%ADD28R,0.5000X2.0000*%
%ADD29R,1.1000X1.4000*%
%ADD30R,1.1500X1.7000*%
%ADD31R,3.3000X3.3000*%
%ADD32R,1.1000X2.6000*%
%ADD33R,1.7000X1.1500*%
%ADD34C,0.4500*%
%ADD35C,1.0000*%
%ADD36R,12.0500X2.0000*%
%ADD37R,1.8000X1.8000*%
%ADD38R,3.6800X1.2700*%
%ADD39C,0.2540*%
%ADD40C,0.1270*%
%ADD41C,0.5080*%
%ADD42C,0.1524*%
%ADD43C,0.3048*%
%ADD44C,0.5000*%
%ADD45C,1.2700*%
%ADD46C,0.3810*%
%ADD47C,1.6500*%
%ADD48C,1.4732*%
%ADD49C,1.2802*%
%ADD50C,0.9500*%
%ADD51R,2.0000X2.0000*%
%ADD52C,8.0000*%
%ADD53C,0.5080*%
%ADD54C,0.4928*%
%ADD55C,0.6600*%
%ADD56C,1.0160*%
%ADD57C,1.0080*%
%ADD58C,2.0580*%
%ADD59C,2.0320*%
%ADD60C,1.4580*%
%ADD61C,1.5580*%
%ADD62C,1.6764*%
%ADD63C,4.3180*%
%ADD64C,0.7620*%
%ADD65C,0.1000*%
%ADD66C,0.1016*%
%ADD67C,0.8380*%
%ADD68R,0.4064X2.1590*%
%ADD69R,18.0340X0.5080*%
%ADD70C,0.2500*%
%ADD71C,0.6000*%
%ADD72C,0.2000*%
%ADD73R,1.1200X1.1200*%
%ADD74R,2.3100X2.3100*%
%ADD75R,2.3100X2.3100*%
%ADD76R,1.6508X1.6508*%
%ADD77R,0.3308X0.8508*%
%ADD78R,0.8508X0.3308*%
%ADD79R,0.6508X0.6508*%
%ADD80R,0.6508X0.6508*%
%ADD81R,1.4508X1.0508*%
G04:AMPARAMS|DCode=82|XSize=0.5508mm|YSize=0.6508mm|CornerRadius=0.1504mm|HoleSize=0mm|Usage=FLASHONLY|Rotation=0.000|XOffset=0mm|YOffset=0mm|HoleType=Round|Shape=RoundedRectangle|*
%AMROUNDEDRECTD82*
21,1,0.5508,0.3500,0,0,0.0*
21,1,0.2500,0.6508,0,0,0.0*
1,1,0.3008,0.1250,-0.1750*
1,1,0.3008,-0.1250,-0.1750*
1,1,0.3008,-0.1250,0.1750*
1,1,0.3008,0.1250,0.1750*
%
%ADD82ROUNDEDRECTD82*%
%ADD83R,2.6508X1.1508*%
G04:AMPARAMS|DCode=84|XSize=0.5508mm|YSize=0.6508mm|CornerRadius=0.1504mm|HoleSize=0mm|Usage=FLASHONLY|Rotation=270.000|XOffset=0mm|YOffset=0mm|HoleType=Round|Shape=RoundedRectangle|*
%AMROUNDEDRECTD84*
21,1,0.5508,0.3500,0,0,270.0*
21,1,0.2500,0.6508,0,0,270.0*
1,1,0.3008,-0.1750,-0.1250*
1,1,0.3008,-0.1750,0.1250*
1,1,0.3008,0.1750,0.1250*
1,1,0.3008,0.1750,-0.1250*
%
%ADD84ROUNDEDRECTD84*%
%ADD85R,1.1508X1.4008*%
%ADD86R,1.0508X1.4508*%
%ADD87R,1.4508X1.1508*%
%ADD88R,1.2008X1.8508*%
%ADD89R,1.0008X0.4008*%
%ADD90R,0.4008X1.0008*%
%ADD91R,3.3508X3.3508*%
%ADD92R,0.6508X1.8508*%
%ADD93R,0.5508X2.0508*%
%ADD94R,1.1508X1.4508*%
%ADD95R,1.2008X1.7508*%
%ADD96R,3.3508X3.3508*%
%ADD97R,1.1508X2.6508*%
%ADD98R,1.7508X1.2008*%
%ADD99C,0.5008*%
%ADD100C,2.0000*%
%ADD101R,11.9992X1.9492*%
%ADD102R,1.8508X1.8508*%
%ADD103R,3.7308X1.3208*%
%ADD104C,1.0508*%
%ADD105C,1.7008*%
%ADD106C,1.5240*%
%ADD107C,0.0508*%
%ADD108C,8.0508*%
%ADD109R,0.4572X2.2098*%
%ADD110R,18.0848X0.5588*%
D35*
X600964Y405638D02*
D03*
X865162Y684060D02*
D03*
X783628Y799630D02*
D03*
Y772630D02*
D03*
X863482Y772550D02*
D03*
X863388Y799550D02*
D03*
X865416Y657060D02*
D03*
X754770Y494150D02*
D03*
Y509150D02*
D03*
X742050Y546608D02*
D03*
X739782Y657306D02*
D03*
X706846Y639370D02*
D03*
X709104Y604896D02*
D03*
Y589896D02*
D03*
X583918Y371722D02*
D03*
Y386722D02*
D03*
X601258Y418750D02*
D03*
X430022Y568514D02*
D03*
X485068Y552316D02*
D03*
Y567316D02*
D03*
X483652Y613154D02*
D03*
Y598154D02*
D03*
X416232Y587232D02*
D03*
Y602232D02*
D03*
X338498Y405270D02*
D03*
X309350Y415946D02*
D03*
X277000Y359000D02*
D03*
X293000Y388000D02*
D03*
X773500Y471500D02*
D03*
Y444500D02*
D03*
X806000Y354500D02*
D03*
X883000D02*
D03*
Y327500D02*
D03*
X806000D02*
D03*
X779000Y183000D02*
D03*
X747000D02*
D03*
X724000Y232000D02*
D03*
X689500Y174500D02*
D03*
X662500D02*
D03*
X693420Y334010D02*
D03*
X693614Y307788D02*
D03*
X675500Y298106D02*
D03*
X648500D02*
D03*
X581000Y276000D02*
D03*
X554500Y275500D02*
D03*
X778000Y245000D02*
D03*
D49*
X664369Y657400D02*
D03*
X712369D02*
D03*
X569869D02*
D03*
X521869D02*
D03*
X427369D02*
D03*
X379369D02*
D03*
X236869D02*
D03*
X284869D02*
D03*
D50*
X165669Y800400D02*
D03*
X308169D02*
D03*
X593169D02*
D03*
X735669Y800400D02*
D03*
D51*
X165669Y1028400D02*
D03*
Y928400D02*
D03*
X165669Y828400D02*
D03*
Y753400D02*
D03*
X165669Y703400D02*
D03*
X593169Y1028400D02*
D03*
Y928400D02*
D03*
X593169Y828400D02*
D03*
Y753400D02*
D03*
X593169Y703400D02*
D03*
X308169Y978400D02*
D03*
X735669Y678400D02*
D03*
X735669Y778400D02*
D03*
X735669Y878400D02*
D03*
Y978400D02*
D03*
X450669Y678400D02*
D03*
Y778400D02*
D03*
Y878400D02*
D03*
Y978400D02*
D03*
X308169Y878400D02*
D03*
X308169Y778400D02*
D03*
X308169Y678400D02*
D03*
D53*
X780670Y582040D02*
D03*
X788670Y574040D02*
D03*
X780670D02*
D03*
X788670Y582040D02*
D03*
D54*
X65278Y760476D02*
D03*
X775462Y958342D02*
D03*
X732282Y420370D02*
D03*
X115570Y971042D02*
D03*
X128778Y800608D02*
D03*
X109474Y823722D02*
D03*
X33020Y1035812D02*
D03*
X25400Y837184D02*
D03*
X115570Y546862D02*
D03*
X104648Y538734D02*
D03*
X744220Y477012D02*
D03*
X777494Y393192D02*
D03*
X724662Y404876D02*
D03*
X648970Y416560D02*
D03*
X784860Y965454D02*
D03*
X785114Y1036066D02*
D03*
X123190Y524256D02*
D03*
X733806Y477012D02*
D03*
X636016Y431038D02*
D03*
X268979Y342646D02*
D03*
X541782Y162052D02*
D03*
X708914Y618236D02*
D03*
Y626212D02*
D03*
X646000Y643000D02*
D03*
X620776Y627634D02*
D03*
X457962Y498856D02*
D03*
X455422Y475742D02*
D03*
X135128Y520954D02*
D03*
X806186Y527040D02*
D03*
X818388Y519938D02*
D03*
X844477D02*
D03*
X812710Y616294D02*
D03*
X806422Y540540D02*
D03*
X780170Y540140D02*
D03*
X794274Y623554D02*
D03*
X795274Y734314D02*
D03*
X804420Y819914D02*
D03*
X869696Y734060D02*
D03*
X321000Y642000D02*
D03*
X494000Y613000D02*
D03*
X177000Y531000D02*
D03*
X203000Y574000D02*
D03*
X115400Y1053000D02*
D03*
X150000Y534000D02*
D03*
X167000Y526000D02*
D03*
X464000Y522000D02*
D03*
X495000Y547000D02*
D03*
X862000Y973000D02*
D03*
X872000Y1053000D02*
D03*
X642369Y776150D02*
D03*
X23000Y961276D02*
D03*
X246869Y776150D02*
D03*
X238869Y744650D02*
D03*
X230869Y776150D02*
D03*
X674369D02*
D03*
X666369Y744650D02*
D03*
X658369Y776150D02*
D03*
X531869D02*
D03*
X523869Y744650D02*
D03*
X515869Y776150D02*
D03*
X389369D02*
D03*
X381369Y744650D02*
D03*
X373369Y776150D02*
D03*
X778000Y819162D02*
D03*
X222869Y744650D02*
D03*
X214869Y776150D02*
D03*
X206869Y744650D02*
D03*
X198869Y776150D02*
D03*
X254869D02*
D03*
X262869Y744650D02*
D03*
X270869Y776150D02*
D03*
X630369Y694150D02*
D03*
X654369D02*
D03*
X678369D02*
D03*
X702369D02*
D03*
X202869D02*
D03*
X226869D02*
D03*
X250869D02*
D03*
X274869D02*
D03*
X698369Y776150D02*
D03*
X690369Y744650D02*
D03*
X682369Y776150D02*
D03*
X626369D02*
D03*
X634369Y744650D02*
D03*
X650369D02*
D03*
X413369Y776150D02*
D03*
X405369Y744650D02*
D03*
X397369Y776150D02*
D03*
X341369D02*
D03*
X349369Y744650D02*
D03*
X357369Y776150D02*
D03*
X365369Y744650D02*
D03*
X507869D02*
D03*
X499869Y776150D02*
D03*
X491869Y744650D02*
D03*
X483869Y776150D02*
D03*
X539869D02*
D03*
X547869Y744650D02*
D03*
X555869Y776150D02*
D03*
X559869Y694150D02*
D03*
X535869D02*
D03*
X511869D02*
D03*
X487869D02*
D03*
X417369D02*
D03*
X393369D02*
D03*
X369369D02*
D03*
X345369D02*
D03*
X457724Y175504D02*
D03*
X516000Y225322D02*
D03*
X479724Y205584D02*
D03*
X535790Y191000D02*
D03*
X457000Y159750D02*
D03*
X447000D02*
D03*
X700000Y265000D02*
D03*
X79254Y558034D02*
D03*
X80264Y664972D02*
D03*
X26950Y662550D02*
D03*
X39650D02*
D03*
X52350D02*
D03*
X65050D02*
D03*
X26950Y749450D02*
D03*
X39650D02*
D03*
X52350D02*
D03*
X51350Y642450D02*
D03*
X38650D02*
D03*
X25950D02*
D03*
X64050Y555550D02*
D03*
X38650D02*
D03*
X25950D02*
D03*
X90000Y500300D02*
D03*
Y474900D02*
D03*
Y449500D02*
D03*
Y424100D02*
D03*
Y398700D02*
D03*
Y373300D02*
D03*
Y347900D02*
D03*
X25000D02*
D03*
Y373300D02*
D03*
Y398700D02*
D03*
Y424100D02*
D03*
Y449500D02*
D03*
Y474900D02*
D03*
Y500300D02*
D03*
X827250Y302000D02*
D03*
X737362Y163830D02*
D03*
X788952Y364860D02*
D03*
X869122Y391526D02*
D03*
X850000Y435000D02*
D03*
X785622Y271526D02*
D03*
X785876Y255524D02*
D03*
X787146Y310388D02*
D03*
X633000Y278000D02*
D03*
X631000Y266000D02*
D03*
X687000Y217000D02*
D03*
X715678Y269524D02*
D03*
X192532Y431292D02*
D03*
X455930Y431546D02*
D03*
X531876Y228854D02*
D03*
X542798Y243586D02*
D03*
X239014Y693420D02*
D03*
X381514D02*
D03*
X524014D02*
D03*
X666514D02*
D03*
X547223Y798977D02*
D03*
X405223Y797977D02*
D03*
X262223Y796977D02*
D03*
X689609Y797977D02*
D03*
X323000Y635000D02*
D03*
X775665Y628650D02*
D03*
X783641D02*
D03*
X436118Y524764D02*
D03*
D55*
X740000Y290000D02*
D03*
X752000D02*
D03*
X764000D02*
D03*
X740000Y278000D02*
D03*
X752000D02*
D03*
X764000D02*
D03*
X740000Y266000D02*
D03*
X752000D02*
D03*
X764000D02*
D03*
X612000Y218000D02*
D03*
Y230000D02*
D03*
Y242000D02*
D03*
X624000Y218000D02*
D03*
Y230000D02*
D03*
Y242000D02*
D03*
X636000Y218000D02*
D03*
Y230000D02*
D03*
Y242000D02*
D03*
X847500Y386000D02*
D03*
X835500D02*
D03*
X823500D02*
D03*
X847500Y398000D02*
D03*
X835500D02*
D03*
X823500D02*
D03*
X847500Y410000D02*
D03*
X835500D02*
D03*
X823500D02*
D03*
X819930Y739710D02*
D03*
X831930D02*
D03*
X843930D02*
D03*
X819930Y727710D02*
D03*
X831930D02*
D03*
X843930D02*
D03*
X819930Y715710D02*
D03*
X831930D02*
D03*
X843930D02*
D03*
D79*
X118000Y497000D02*
D03*
X108000D02*
D03*
X482000Y505000D02*
D03*
X492000D02*
D03*
X482000Y526000D02*
D03*
X492000D02*
D03*
Y516000D02*
D03*
X482000D02*
D03*
X118000Y469000D02*
D03*
X108000D02*
D03*
X198000Y615000D02*
D03*
X208000D02*
D03*
X198000Y626000D02*
D03*
X208000D02*
D03*
X426826Y640588D02*
D03*
X416826D02*
D03*
X426826Y629588D02*
D03*
X416826D02*
D03*
X553000Y768000D02*
D03*
X543000D02*
D03*
X475000Y537000D02*
D03*
X485000D02*
D03*
X169000Y630696D02*
D03*
X179000D02*
D03*
X411000Y769000D02*
D03*
X401000D02*
D03*
X208000Y604000D02*
D03*
X198000D02*
D03*
X108000Y488000D02*
D03*
X118000D02*
D03*
Y479000D02*
D03*
X108000D02*
D03*
X685000Y767000D02*
D03*
X695000D02*
D03*
X169000Y615570D02*
D03*
X179000D02*
D03*
X482000Y494000D02*
D03*
X492000D02*
D03*
X259000Y768000D02*
D03*
X269000D02*
D03*
D80*
X499000Y605000D02*
D03*
Y595000D02*
D03*
X207000Y737000D02*
D03*
Y727000D02*
D03*
X361000D02*
D03*
Y737000D02*
D03*
X644000Y727000D02*
D03*
Y737000D02*
D03*
X503000Y727000D02*
D03*
Y737000D02*
D03*
X655000Y727000D02*
D03*
Y737000D02*
D03*
X676000Y792000D02*
D03*
Y802000D02*
D03*
X491000Y737000D02*
D03*
Y727000D02*
D03*
X662000Y802000D02*
D03*
Y792000D02*
D03*
X349000Y737000D02*
D03*
Y727000D02*
D03*
X373000Y738000D02*
D03*
Y728000D02*
D03*
X514000Y737000D02*
D03*
Y727000D02*
D03*
X634000Y737000D02*
D03*
Y727000D02*
D03*
X391000Y792000D02*
D03*
Y802000D02*
D03*
X378000D02*
D03*
Y792000D02*
D03*
X533000Y793000D02*
D03*
Y803000D02*
D03*
X235000Y801000D02*
D03*
Y791000D02*
D03*
X219000Y727000D02*
D03*
Y737000D02*
D03*
X248000Y791000D02*
D03*
Y801000D02*
D03*
X231000Y727000D02*
D03*
Y737000D02*
D03*
X517000Y803000D02*
D03*
Y793000D02*
D03*
D82*
X591244Y539830D02*
D03*
Y549830D02*
D03*
X619946Y484966D02*
D03*
Y494966D02*
D03*
X418000Y280000D02*
D03*
Y290000D02*
D03*
X408000Y280000D02*
D03*
Y290000D02*
D03*
X236000Y280000D02*
D03*
Y290000D02*
D03*
X398000Y280000D02*
D03*
Y290000D02*
D03*
X279908Y535004D02*
D03*
Y545004D02*
D03*
X185000Y280000D02*
D03*
Y290000D02*
D03*
X447000Y280000D02*
D03*
Y290000D02*
D03*
X579882Y484966D02*
D03*
Y494966D02*
D03*
X384770Y524176D02*
D03*
Y514176D02*
D03*
X598864Y539830D02*
D03*
Y549830D02*
D03*
X315000Y280000D02*
D03*
Y290000D02*
D03*
X487000Y280000D02*
D03*
Y290000D02*
D03*
X512000Y602000D02*
D03*
Y592000D02*
D03*
X289814Y514938D02*
D03*
Y524938D02*
D03*
X590482Y474806D02*
D03*
Y484806D02*
D03*
X467000Y280000D02*
D03*
Y290000D02*
D03*
X320061Y475060D02*
D03*
Y485060D02*
D03*
X329946Y484966D02*
D03*
Y494966D02*
D03*
X265000Y280000D02*
D03*
Y290000D02*
D03*
X579814Y574722D02*
D03*
Y564722D02*
D03*
X329946Y535004D02*
D03*
Y545004D02*
D03*
X378000Y280000D02*
D03*
Y290000D02*
D03*
X289966Y484966D02*
D03*
Y494966D02*
D03*
X305000Y280000D02*
D03*
Y290000D02*
D03*
X308864Y539830D02*
D03*
Y549830D02*
D03*
X517000Y290000D02*
D03*
Y280000D02*
D03*
X506984Y290322D02*
D03*
Y280322D02*
D03*
X308864Y570150D02*
D03*
Y560150D02*
D03*
X538000Y506000D02*
D03*
Y516000D02*
D03*
X591498Y570150D02*
D03*
Y560150D02*
D03*
X226000Y280000D02*
D03*
Y290000D02*
D03*
X221960Y602000D02*
D03*
Y592000D02*
D03*
X289814Y574722D02*
D03*
Y564722D02*
D03*
X301244Y570150D02*
D03*
Y560150D02*
D03*
X325000Y280000D02*
D03*
Y290000D02*
D03*
X388000Y280000D02*
D03*
Y290000D02*
D03*
X368000Y280000D02*
D03*
Y290000D02*
D03*
X335000Y280000D02*
D03*
Y290000D02*
D03*
X609939Y514938D02*
D03*
Y524938D02*
D03*
X320120Y515120D02*
D03*
Y525120D02*
D03*
X275000Y280000D02*
D03*
Y290000D02*
D03*
X610040Y475060D02*
D03*
Y485060D02*
D03*
X246000Y280000D02*
D03*
Y290000D02*
D03*
X358000Y280000D02*
D03*
Y290000D02*
D03*
X497000Y280000D02*
D03*
Y290000D02*
D03*
X216000Y280000D02*
D03*
Y290000D02*
D03*
X569908Y535004D02*
D03*
Y545004D02*
D03*
X619946Y575230D02*
D03*
Y565230D02*
D03*
X309880Y474806D02*
D03*
Y484806D02*
D03*
X579882Y514764D02*
D03*
Y524764D02*
D03*
X619946Y535004D02*
D03*
Y545004D02*
D03*
X300482Y474806D02*
D03*
Y484806D02*
D03*
X285000Y280000D02*
D03*
Y290000D02*
D03*
X300736Y539830D02*
D03*
Y549830D02*
D03*
X674116Y524350D02*
D03*
Y514350D02*
D03*
X600541Y514176D02*
D03*
Y504176D02*
D03*
X195000Y280000D02*
D03*
Y290000D02*
D03*
X457000Y280000D02*
D03*
Y290000D02*
D03*
X599118Y570150D02*
D03*
Y560150D02*
D03*
X309880Y515120D02*
D03*
Y505120D02*
D03*
X329946Y575230D02*
D03*
Y565230D02*
D03*
X591244Y510112D02*
D03*
Y520112D02*
D03*
X205000Y280000D02*
D03*
Y290000D02*
D03*
X300990Y510112D02*
D03*
Y520112D02*
D03*
X428000Y280000D02*
D03*
Y290000D02*
D03*
X477000Y280000D02*
D03*
Y290000D02*
D03*
X295000Y280000D02*
D03*
Y290000D02*
D03*
X599880Y474806D02*
D03*
Y484806D02*
D03*
X175000Y280000D02*
D03*
Y290000D02*
D03*
X656000Y598000D02*
D03*
Y588000D02*
D03*
X200756Y553500D02*
D03*
Y543500D02*
D03*
X248226Y505542D02*
D03*
Y515542D02*
D03*
X365000Y598000D02*
D03*
Y588000D02*
D03*
D84*
X382000Y708000D02*
D03*
X372000D02*
D03*
X666000Y707000D02*
D03*
X656000D02*
D03*
X508000Y535000D02*
D03*
X518000D02*
D03*
X239000Y707000D02*
D03*
X229000D02*
D03*
X524000D02*
D03*
X514000D02*
D03*
D87*
X469754Y613154D02*
D03*
Y598154D02*
D03*
X569214Y386722D02*
D03*
Y371722D02*
D03*
X507000Y464500D02*
D03*
Y479500D02*
D03*
X219000Y550500D02*
D03*
Y565500D02*
D03*
X576000Y785500D02*
D03*
Y800500D02*
D03*
X217000Y464500D02*
D03*
Y479500D02*
D03*
X342000Y627500D02*
D03*
Y612500D02*
D03*
X396000Y547500D02*
D03*
Y562500D02*
D03*
X397000Y604500D02*
D03*
Y589500D02*
D03*
X727040Y589896D02*
D03*
Y604896D02*
D03*
X686000Y547500D02*
D03*
Y562500D02*
D03*
X509000Y550500D02*
D03*
Y565500D02*
D03*
X633000Y626500D02*
D03*
Y611500D02*
D03*
X586454Y418850D02*
D03*
Y403850D02*
D03*
X430130Y587232D02*
D03*
Y602232D02*
D03*
X687000Y604500D02*
D03*
Y589500D02*
D03*
D94*
X596500Y616000D02*
D03*
X581500D02*
D03*
X293500Y613000D02*
D03*
X308500D02*
D03*
X407500Y721000D02*
D03*
X392500D02*
D03*
X323520Y419100D02*
D03*
X338520D02*
D03*
X264500Y722000D02*
D03*
X249500D02*
D03*
X355500Y445000D02*
D03*
X340500D02*
D03*
X549500Y722000D02*
D03*
X534500D02*
D03*
X308500Y758000D02*
D03*
X293500D02*
D03*
X693500Y723000D02*
D03*
X678500D02*
D03*
X450500Y758000D02*
D03*
X435500D02*
D03*
X734500D02*
D03*
X719500D02*
D03*
X739782Y639370D02*
D03*
X724782D02*
D03*
X645500Y445000D02*
D03*
X630500D02*
D03*
D95*
X707250Y740000D02*
D03*
X734750D02*
D03*
X281250D02*
D03*
X308750D02*
D03*
X423250D02*
D03*
X450750D02*
D03*
D98*
X449933Y587147D02*
D03*
Y614647D02*
D03*
X750916Y588980D02*
D03*
Y616480D02*
D03*
X617188Y419766D02*
D03*
Y392266D02*
D03*
X570000Y741250D02*
D03*
Y768750D02*
D03*
D100*
X875000Y950000D02*
D03*
X625000Y170000D02*
D03*
X55000Y300000D02*
D03*
X115000Y927000D02*
D03*
D104*
X427482Y513334D02*
D03*
X860298Y302006D02*
D03*
X682000Y239000D02*
D03*
X726948Y573786D02*
D03*
X775716Y163830D02*
D03*
X843534Y824230D02*
D03*
D105*
X473869Y719400D02*
D03*
X569869D02*
D03*
X616369D02*
D03*
X712369D02*
D03*
X188869D02*
D03*
X284869D02*
D03*
X331369D02*
D03*
X427369D02*
D03*
D106*
X850000Y1023800D02*
D03*
Y998400D02*
D03*
X97000Y1023800D02*
D03*
Y998400D02*
D03*
D107*
X872744Y70866D02*
D03*
X26924D02*
D03*
D108*
X63065Y881761D02*
D03*
X836965D02*
D03*
X63065Y222123D02*
D03*
X836965D02*
D03*
D109*
X56969Y58801D02*
D03*
X63319D02*
D03*
X76019D02*
D03*
X82369D02*
D03*
X95069D02*
D03*
X101419D02*
D03*
X114119D02*
D03*
X120469D02*
D03*
X139519D02*
D03*
X145869D02*
D03*
X158569D02*
D03*
X164919D02*
D03*
X177619D02*
D03*
X183969D02*
D03*
X196669D02*
D03*
X203019D02*
D03*
X56969Y123571D02*
D03*
X63319D02*
D03*
X76019D02*
D03*
X82369D02*
D03*
X95069D02*
D03*
X101419D02*
D03*
X114119D02*
D03*
X120469D02*
D03*
X139519D02*
D03*
X145869D02*
D03*
X158569D02*
D03*
X164919D02*
D03*
X177619D02*
D03*
X183969D02*
D03*
X196669D02*
D03*
X203019D02*
D03*
X270329Y58801D02*
D03*
X276679D02*
D03*
X289379D02*
D03*
X295729D02*
D03*
X308429D02*
D03*
X314779D02*
D03*
X327479D02*
D03*
X333829D02*
D03*
X352879D02*
D03*
X359229D02*
D03*
X371929D02*
D03*
X378279D02*
D03*
X390979D02*
D03*
X397329D02*
D03*
X410029D02*
D03*
X416379D02*
D03*
X270329Y123571D02*
D03*
X276679D02*
D03*
X289379D02*
D03*
X295729D02*
D03*
X308429D02*
D03*
X314779D02*
D03*
X327479D02*
D03*
X333829D02*
D03*
X352879D02*
D03*
X359229D02*
D03*
X371929D02*
D03*
X378279D02*
D03*
X390979D02*
D03*
X397329D02*
D03*
X410029D02*
D03*
X416379D02*
D03*
X483689Y58801D02*
D03*
X490039D02*
D03*
X502739D02*
D03*
X509089D02*
D03*
X521789D02*
D03*
X528139D02*
D03*
X540839D02*
D03*
X547189D02*
D03*
X566239D02*
D03*
X572589D02*
D03*
X585289D02*
D03*
X591639D02*
D03*
X604339D02*
D03*
X623389D02*
D03*
X629739D02*
D03*
X483689Y123571D02*
D03*
X490039D02*
D03*
X502739D02*
D03*
X521789D02*
D03*
X540839D02*
D03*
X547189D02*
D03*
X566239D02*
D03*
X572589D02*
D03*
X585289D02*
D03*
X591639D02*
D03*
X604339D02*
D03*
X610689D02*
D03*
X623389D02*
D03*
X629739D02*
D03*
X697049Y58801D02*
D03*
X703399D02*
D03*
X716099D02*
D03*
X722449D02*
D03*
X735149D02*
D03*
X741499D02*
D03*
X754199D02*
D03*
X760549D02*
D03*
X779599D02*
D03*
X785949D02*
D03*
X798649D02*
D03*
X804999D02*
D03*
X817699D02*
D03*
X824049D02*
D03*
X836749D02*
D03*
X843099D02*
D03*
X697049Y123571D02*
D03*
X703399D02*
D03*
X716099D02*
D03*
X722449D02*
D03*
X735149D02*
D03*
X741499D02*
D03*
X754199D02*
D03*
X760549D02*
D03*
X779599D02*
D03*
X785949D02*
D03*
X798649D02*
D03*
X804999D02*
D03*
X817699D02*
D03*
X824049D02*
D03*
X836749D02*
D03*
X843099D02*
D03*
X209369D02*
D03*
X190319D02*
D03*
X171269D02*
D03*
X152219D02*
D03*
X133169D02*
D03*
X126819D02*
D03*
X107769D02*
D03*
X88719D02*
D03*
X69669D02*
D03*
X50619D02*
D03*
X263979D02*
D03*
X283029D02*
D03*
X302079D02*
D03*
X321129D02*
D03*
X340179D02*
D03*
X346529D02*
D03*
X365579D02*
D03*
X384629D02*
D03*
X403679D02*
D03*
X422729D02*
D03*
Y58801D02*
D03*
X403679D02*
D03*
X384629D02*
D03*
X365579D02*
D03*
X346529D02*
D03*
X340179D02*
D03*
X321129D02*
D03*
X302079D02*
D03*
X283029D02*
D03*
X263979D02*
D03*
X50619D02*
D03*
X69669D02*
D03*
X88719D02*
D03*
X107769D02*
D03*
X126819D02*
D03*
X133169D02*
D03*
X152219D02*
D03*
X171269D02*
D03*
X190319D02*
D03*
X209369D02*
D03*
X477339Y123571D02*
D03*
X496389D02*
D03*
X515439D02*
D03*
X534489D02*
D03*
X553539D02*
D03*
X559889D02*
D03*
X578939D02*
D03*
X597989D02*
D03*
X617039D02*
D03*
X636089D02*
D03*
X477339Y58801D02*
D03*
X496389D02*
D03*
X515439D02*
D03*
X534489D02*
D03*
X553539D02*
D03*
X559889D02*
D03*
X578939D02*
D03*
X597989D02*
D03*
X617039D02*
D03*
X636089D02*
D03*
X849449D02*
D03*
X830399D02*
D03*
X811349D02*
D03*
X792299D02*
D03*
X773249D02*
D03*
X766899D02*
D03*
X747849D02*
D03*
X728799D02*
D03*
X709749D02*
D03*
X690699D02*
D03*
X849449Y123571D02*
D03*
X830399D02*
D03*
X811349D02*
D03*
X792299D02*
D03*
X773249D02*
D03*
X766899D02*
D03*
X747849D02*
D03*
X728799D02*
D03*
X709749D02*
D03*
X690699D02*
D03*
X610689Y58801D02*
D03*
X528139Y123571D02*
D03*
X509089D02*
D03*
D110*
X769874Y91186D02*
D03*
X556514D02*
D03*
X343154D02*
D03*
X129794D02*
D03*
M02*
