%FSLAX44Y44*%
%MOMM*%
G71*
G01*
G75*
G04 Layer_Physical_Order=3*
G04 Layer_Color=36540*
%ADD10C,0.2032*%
%ADD11R,1.6000X1.6000*%
%ADD12R,0.2800X0.8000*%
%ADD13R,0.8000X0.2800*%
%ADD14R,0.6000X0.6000*%
%ADD15R,0.6000X0.6000*%
%ADD16R,1.4000X1.0000*%
G04:AMPARAMS|DCode=17|XSize=0.5mm|YSize=0.6mm|CornerRadius=0.125mm|HoleSize=0mm|Usage=FLASHONLY|Rotation=0.000|XOffset=0mm|YOffset=0mm|HoleType=Round|Shape=RoundedRectangle|*
%AMROUNDEDRECTD17*
21,1,0.5000,0.3500,0,0,0.0*
21,1,0.2500,0.6000,0,0,0.0*
1,1,0.2500,0.1250,-0.1750*
1,1,0.2500,-0.1250,-0.1750*
1,1,0.2500,-0.1250,0.1750*
1,1,0.2500,0.1250,0.1750*
%
%ADD17ROUNDEDRECTD17*%
%ADD18R,2.6000X1.1000*%
G04:AMPARAMS|DCode=19|XSize=0.5mm|YSize=0.6mm|CornerRadius=0.125mm|HoleSize=0mm|Usage=FLASHONLY|Rotation=270.000|XOffset=0mm|YOffset=0mm|HoleType=Round|Shape=RoundedRectangle|*
%AMROUNDEDRECTD19*
21,1,0.5000,0.3500,0,0,270.0*
21,1,0.2500,0.6000,0,0,270.0*
1,1,0.2500,-0.1750,-0.1250*
1,1,0.2500,-0.1750,0.1250*
1,1,0.2500,0.1750,0.1250*
1,1,0.2500,0.1750,-0.1250*
%
%ADD19ROUNDEDRECTD19*%
%ADD20R,1.1000X1.3500*%
%ADD21R,1.0000X1.4000*%
%ADD22R,1.4000X1.1000*%
%ADD23R,1.1500X1.8000*%
%ADD24R,0.9500X0.3500*%
%ADD25R,0.3500X0.9500*%
%ADD26R,3.3000X3.3000*%
%ADD27R,0.6000X1.8000*%
%ADD28R,0.5000X2.0000*%
%ADD29R,1.1000X1.4000*%
%ADD30R,1.1500X1.7000*%
%ADD31R,3.3000X3.3000*%
%ADD32R,1.1000X2.6000*%
%ADD33R,1.7000X1.1500*%
%ADD34C,0.4500*%
%ADD35C,1.0000*%
%ADD36R,12.0500X2.0000*%
%ADD37R,1.8000X1.8000*%
%ADD38R,3.6800X1.2700*%
%ADD39C,0.2540*%
%ADD40C,0.1270*%
%ADD41C,0.5080*%
%ADD42C,0.1524*%
%ADD43C,0.3048*%
%ADD44C,0.5000*%
%ADD45C,1.2700*%
%ADD46C,0.3810*%
%ADD47C,1.6500*%
%ADD48C,1.4732*%
%ADD49C,1.2802*%
%ADD50C,0.9500*%
%ADD51R,2.0000X2.0000*%
%ADD52C,8.0000*%
%ADD53C,0.5080*%
%ADD54C,0.4928*%
%ADD55C,0.6600*%
%ADD56C,1.0160*%
%ADD57C,1.0080*%
%ADD58C,2.0580*%
%ADD59C,2.0320*%
%ADD60C,1.4580*%
%ADD61C,1.5580*%
%ADD62C,1.6764*%
%ADD63C,4.3180*%
%ADD64C,0.7620*%
%ADD65C,0.1000*%
%ADD66C,0.1016*%
G36*
X425000Y580000D02*
X390000Y545000D01*
X280000D01*
Y565000D01*
X380000D01*
Y565000D01*
X410000Y595000D01*
X413988D01*
X414264Y594886D01*
X416232Y594627D01*
X418200Y594886D01*
X418475Y595000D01*
X425000D01*
Y580000D01*
D02*
G37*
G36*
X715000D02*
X680000Y545000D01*
X570000D01*
Y565000D01*
X670000D01*
Y565000D01*
X700000Y595000D01*
X715000D01*
Y580000D01*
D02*
G37*
G36*
X775000Y750000D02*
X709309D01*
X709062Y751246D01*
X710883Y752000D01*
X712458Y753208D01*
X713666Y754783D01*
X714426Y756618D01*
X714685Y758586D01*
X714426Y760554D01*
X713666Y762389D01*
X712458Y763964D01*
X710883Y765172D01*
X709048Y765932D01*
X707080Y766191D01*
X705112Y765932D01*
X703278Y765172D01*
X701702Y763964D01*
X700494Y762389D01*
X699734Y760554D01*
X699475Y758586D01*
X699734Y756618D01*
X700494Y754783D01*
X701702Y753208D01*
X703278Y752000D01*
X705098Y751246D01*
X704851Y750000D01*
X605709D01*
Y765940D01*
X580629D01*
Y750000D01*
X426144D01*
X425896Y751246D01*
X426303Y751414D01*
X427878Y752622D01*
X429086Y754197D01*
X429846Y756032D01*
X430105Y758000D01*
X429846Y759968D01*
X429086Y761803D01*
X427878Y763378D01*
X426303Y764586D01*
X424468Y765346D01*
X422500Y765605D01*
X420532Y765346D01*
X418698Y764586D01*
X417122Y763378D01*
X415914Y761803D01*
X415154Y759968D01*
X414895Y758000D01*
X415154Y756032D01*
X415914Y754197D01*
X417122Y752622D01*
X418698Y751414D01*
X419104Y751246D01*
X418856Y750000D01*
X284317D01*
X284070Y751246D01*
X284935Y751604D01*
X286510Y752812D01*
X287718Y754388D01*
X288478Y756222D01*
X288737Y758190D01*
X288478Y760158D01*
X287718Y761992D01*
X286510Y763568D01*
X284935Y764776D01*
X283100Y765536D01*
X281132Y765795D01*
X279164Y765536D01*
X277330Y764776D01*
X275754Y763568D01*
X274546Y761992D01*
X273786Y760158D01*
X273527Y758190D01*
X273786Y756222D01*
X274546Y754388D01*
X275754Y752812D01*
X277330Y751604D01*
X278194Y751246D01*
X277946Y750000D01*
X250000D01*
Y772224D01*
X250476Y772542D01*
X251262D01*
X252917Y771437D01*
X254869Y771048D01*
X256821Y771437D01*
X258477Y772542D01*
X259583Y774198D01*
X259971Y776150D01*
X259583Y778102D01*
X258477Y779758D01*
X256821Y780863D01*
X254869Y781252D01*
X252917Y780863D01*
X251262Y779758D01*
X250476D01*
X250000Y780076D01*
Y805000D01*
X301041D01*
X301746Y803944D01*
X301067Y802303D01*
X300816Y800400D01*
X301067Y798497D01*
X301801Y796724D01*
X302970Y795201D01*
X304493Y794032D01*
X306266Y793298D01*
X308169Y793047D01*
X310072Y793298D01*
X311845Y794032D01*
X313368Y795201D01*
X314537Y796724D01*
X315271Y798497D01*
X315522Y800400D01*
X315271Y802303D01*
X314537Y804077D01*
X314992Y805000D01*
X555560D01*
X556265Y803944D01*
X555654Y802468D01*
X555395Y800500D01*
X555654Y798532D01*
X556414Y796697D01*
X557622Y795122D01*
X559197Y793914D01*
X561032Y793154D01*
X563000Y792895D01*
X564968Y793154D01*
X566802Y793914D01*
X568378Y795122D01*
X569586Y796697D01*
X570346Y798532D01*
X570605Y800500D01*
X570346Y802468D01*
X569586Y804303D01*
X569930Y805000D01*
X586041D01*
X586746Y803944D01*
X586067Y802303D01*
X585816Y800400D01*
X586067Y798497D01*
X586801Y796724D01*
X587970Y795201D01*
X589492Y794032D01*
X591266Y793298D01*
X593169Y793047D01*
X595072Y793298D01*
X596845Y794032D01*
X598368Y795201D01*
X599537Y796724D01*
X600271Y798497D01*
X600522Y800400D01*
X600271Y802303D01*
X599537Y804077D01*
X599992Y805000D01*
X728541D01*
X729246Y803944D01*
X728567Y802303D01*
X728316Y800400D01*
X728567Y798497D01*
X729301Y796724D01*
X730470Y795201D01*
X731993Y794032D01*
X733766Y793298D01*
X735669Y793047D01*
X737572Y793298D01*
X739345Y794032D01*
X740868Y795201D01*
X742037Y796724D01*
X742771Y798497D01*
X743022Y800400D01*
X742771Y802303D01*
X742037Y804077D01*
X742492Y805000D01*
X775000D01*
Y750000D01*
D02*
G37*
%LPC*%
G36*
X335000Y563548D02*
X333643Y563278D01*
X332491Y562509D01*
X331722Y561358D01*
X331452Y560000D01*
X331722Y558643D01*
X332491Y557491D01*
X333643Y556722D01*
X335000Y556452D01*
X336358Y556722D01*
X337509Y557491D01*
X338278Y558643D01*
X338548Y560000D01*
X338278Y561358D01*
X337509Y562509D01*
X336358Y563278D01*
X335000Y563548D01*
D02*
G37*
G36*
X345000D02*
X343643Y563278D01*
X342491Y562509D01*
X341722Y561358D01*
X341452Y560000D01*
X341722Y558643D01*
X342491Y557491D01*
X343643Y556722D01*
X345000Y556452D01*
X346358Y556722D01*
X347509Y557491D01*
X348278Y558643D01*
X348548Y560000D01*
X348278Y561358D01*
X347509Y562509D01*
X346358Y563278D01*
X345000Y563548D01*
D02*
G37*
G36*
X645000Y553548D02*
X643643Y553278D01*
X642491Y552509D01*
X641722Y551358D01*
X641452Y550000D01*
X641722Y548643D01*
X642491Y547491D01*
X643643Y546722D01*
X645000Y546452D01*
X646358Y546722D01*
X647509Y547491D01*
X648278Y548643D01*
X648548Y550000D01*
X648278Y551358D01*
X647509Y552509D01*
X646358Y553278D01*
X645000Y553548D01*
D02*
G37*
G36*
X655000D02*
X653643Y553278D01*
X652491Y552509D01*
X651722Y551358D01*
X651452Y550000D01*
X651722Y548643D01*
X652491Y547491D01*
X653643Y546722D01*
X655000Y546452D01*
X656358Y546722D01*
X657509Y547491D01*
X658278Y548643D01*
X658548Y550000D01*
X658278Y551358D01*
X657509Y552509D01*
X656358Y553278D01*
X655000Y553548D01*
D02*
G37*
G36*
X665000D02*
X663643Y553278D01*
X662491Y552509D01*
X661722Y551358D01*
X661452Y550000D01*
X661722Y548643D01*
X662491Y547491D01*
X663643Y546722D01*
X665000Y546452D01*
X666358Y546722D01*
X667509Y547491D01*
X668278Y548643D01*
X668548Y550000D01*
X668278Y551358D01*
X667509Y552509D01*
X666358Y553278D01*
X665000Y553548D01*
D02*
G37*
G36*
X625000Y563548D02*
X623643Y563278D01*
X622491Y562509D01*
X621722Y561358D01*
X621452Y560000D01*
X621722Y558643D01*
X622491Y557491D01*
X623643Y556722D01*
X625000Y556452D01*
X626358Y556722D01*
X627509Y557491D01*
X628278Y558643D01*
X628548Y560000D01*
X628278Y561358D01*
X627509Y562509D01*
X626358Y563278D01*
X625000Y563548D01*
D02*
G37*
G36*
X635000D02*
X633643Y563278D01*
X632491Y562509D01*
X631722Y561358D01*
X631452Y560000D01*
X631722Y558643D01*
X632491Y557491D01*
X633643Y556722D01*
X635000Y556452D01*
X636358Y556722D01*
X637509Y557491D01*
X638278Y558643D01*
X638548Y560000D01*
X638278Y561358D01*
X637509Y562509D01*
X636358Y563278D01*
X635000Y563548D01*
D02*
G37*
G36*
X375000D02*
X373643Y563278D01*
X372491Y562509D01*
X371722Y561358D01*
X371452Y560000D01*
X371722Y558643D01*
X372491Y557491D01*
X373643Y556722D01*
X375000Y556452D01*
X376358Y556722D01*
X377509Y557491D01*
X378278Y558643D01*
X378548Y560000D01*
X378278Y561358D01*
X377509Y562509D01*
X376358Y563278D01*
X375000Y563548D01*
D02*
G37*
G36*
X355000D02*
X353643Y563278D01*
X352491Y562509D01*
X351722Y561358D01*
X351452Y560000D01*
X351722Y558643D01*
X352491Y557491D01*
X353643Y556722D01*
X355000Y556452D01*
X356358Y556722D01*
X357509Y557491D01*
X358278Y558643D01*
X358548Y560000D01*
X358278Y561358D01*
X357509Y562509D01*
X356358Y563278D01*
X355000Y563548D01*
D02*
G37*
G36*
X365000D02*
X363643Y563278D01*
X362491Y562509D01*
X361722Y561358D01*
X361452Y560000D01*
X361722Y558643D01*
X362491Y557491D01*
X363643Y556722D01*
X365000Y556452D01*
X366358Y556722D01*
X367509Y557491D01*
X368278Y558643D01*
X368548Y560000D01*
X368278Y561358D01*
X367509Y562509D01*
X366358Y563278D01*
X365000Y563548D01*
D02*
G37*
G36*
X345000Y553548D02*
X343643Y553278D01*
X342491Y552509D01*
X341722Y551358D01*
X341452Y550000D01*
X341722Y548643D01*
X342491Y547491D01*
X343643Y546722D01*
X345000Y546452D01*
X346358Y546722D01*
X347509Y547491D01*
X348278Y548643D01*
X348548Y550000D01*
X348278Y551358D01*
X347509Y552509D01*
X346358Y553278D01*
X345000Y553548D01*
D02*
G37*
G36*
X355000D02*
X353643Y553278D01*
X352491Y552509D01*
X351722Y551358D01*
X351452Y550000D01*
X351722Y548643D01*
X352491Y547491D01*
X353643Y546722D01*
X355000Y546452D01*
X356358Y546722D01*
X357509Y547491D01*
X358278Y548643D01*
X358548Y550000D01*
X358278Y551358D01*
X357509Y552509D01*
X356358Y553278D01*
X355000Y553548D01*
D02*
G37*
G36*
X335000D02*
X333643Y553278D01*
X332491Y552509D01*
X331722Y551358D01*
X331452Y550000D01*
X331722Y548643D01*
X332491Y547491D01*
X333643Y546722D01*
X335000Y546452D01*
X336358Y546722D01*
X337509Y547491D01*
X338278Y548643D01*
X338548Y550000D01*
X338278Y551358D01*
X337509Y552509D01*
X336358Y553278D01*
X335000Y553548D01*
D02*
G37*
G36*
X295000D02*
X293642Y553278D01*
X292491Y552509D01*
X291722Y551358D01*
X291452Y550000D01*
X291722Y548643D01*
X292491Y547491D01*
X293642Y546722D01*
X295000Y546452D01*
X296357Y546722D01*
X297509Y547491D01*
X298278Y548643D01*
X298548Y550000D01*
X298278Y551358D01*
X297509Y552509D01*
X296357Y553278D01*
X295000Y553548D01*
D02*
G37*
G36*
X315000D02*
X313643Y553278D01*
X312491Y552509D01*
X311722Y551358D01*
X311452Y550000D01*
X311722Y548643D01*
X312491Y547491D01*
X313643Y546722D01*
X315000Y546452D01*
X316358Y546722D01*
X317509Y547491D01*
X318278Y548643D01*
X318548Y550000D01*
X318278Y551358D01*
X317509Y552509D01*
X316358Y553278D01*
X315000Y553548D01*
D02*
G37*
G36*
X365000D02*
X363643Y553278D01*
X362491Y552509D01*
X361722Y551358D01*
X361452Y550000D01*
X361722Y548643D01*
X362491Y547491D01*
X363643Y546722D01*
X365000Y546452D01*
X366358Y546722D01*
X367509Y547491D01*
X368278Y548643D01*
X368548Y550000D01*
X368278Y551358D01*
X367509Y552509D01*
X366358Y553278D01*
X365000Y553548D01*
D02*
G37*
G36*
X625000D02*
X623643Y553278D01*
X622491Y552509D01*
X621722Y551358D01*
X621452Y550000D01*
X621722Y548643D01*
X622491Y547491D01*
X623643Y546722D01*
X625000Y546452D01*
X626358Y546722D01*
X627509Y547491D01*
X628278Y548643D01*
X628548Y550000D01*
X628278Y551358D01*
X627509Y552509D01*
X626358Y553278D01*
X625000Y553548D01*
D02*
G37*
G36*
X635000D02*
X633643Y553278D01*
X632491Y552509D01*
X631722Y551358D01*
X631452Y550000D01*
X631722Y548643D01*
X632491Y547491D01*
X633643Y546722D01*
X635000Y546452D01*
X636358Y546722D01*
X637509Y547491D01*
X638278Y548643D01*
X638548Y550000D01*
X638278Y551358D01*
X637509Y552509D01*
X636358Y553278D01*
X635000Y553548D01*
D02*
G37*
G36*
X605000D02*
X603643Y553278D01*
X602491Y552509D01*
X601722Y551358D01*
X601452Y550000D01*
X601722Y548643D01*
X602491Y547491D01*
X603643Y546722D01*
X605000Y546452D01*
X606358Y546722D01*
X607509Y547491D01*
X608278Y548643D01*
X608548Y550000D01*
X608278Y551358D01*
X607509Y552509D01*
X606358Y553278D01*
X605000Y553548D01*
D02*
G37*
G36*
X375000D02*
X373643Y553278D01*
X372491Y552509D01*
X371722Y551358D01*
X371452Y550000D01*
X371722Y548643D01*
X372491Y547491D01*
X373643Y546722D01*
X375000Y546452D01*
X376358Y546722D01*
X377509Y547491D01*
X378278Y548643D01*
X378548Y550000D01*
X378278Y551358D01*
X377509Y552509D01*
X376358Y553278D01*
X375000Y553548D01*
D02*
G37*
G36*
X585000D02*
X583642Y553278D01*
X582491Y552509D01*
X581722Y551358D01*
X581452Y550000D01*
X581722Y548643D01*
X582491Y547491D01*
X583642Y546722D01*
X585000Y546452D01*
X586357Y546722D01*
X587509Y547491D01*
X588278Y548643D01*
X588548Y550000D01*
X588278Y551358D01*
X587509Y552509D01*
X586357Y553278D01*
X585000Y553548D01*
D02*
G37*
G36*
X499869Y781252D02*
X497917Y780863D01*
X496261Y779758D01*
X495155Y778102D01*
X494767Y776150D01*
X495155Y774198D01*
X496261Y772542D01*
X497917Y771437D01*
X499869Y771048D01*
X501821Y771437D01*
X503476Y772542D01*
X504582Y774198D01*
X504971Y776150D01*
X504582Y778102D01*
X503476Y779758D01*
X501821Y780863D01*
X499869Y781252D01*
D02*
G37*
G36*
X515869D02*
X513917Y780863D01*
X512262Y779758D01*
X511156Y778102D01*
X510767Y776150D01*
X511156Y774198D01*
X512262Y772542D01*
X513917Y771437D01*
X515869Y771048D01*
X517821Y771437D01*
X519477Y772542D01*
X520583Y774198D01*
X520971Y776150D01*
X520583Y778102D01*
X519477Y779758D01*
X517821Y780863D01*
X515869Y781252D01*
D02*
G37*
G36*
X483869D02*
X481917Y780863D01*
X480261Y779758D01*
X479156Y778102D01*
X478767Y776150D01*
X479156Y774198D01*
X480261Y772542D01*
X481917Y771437D01*
X483869Y771048D01*
X485821Y771437D01*
X487477Y772542D01*
X488582Y774198D01*
X488971Y776150D01*
X488582Y778102D01*
X487477Y779758D01*
X485821Y780863D01*
X483869Y781252D01*
D02*
G37*
G36*
X357369D02*
X355417Y780863D01*
X353761Y779758D01*
X352655Y778102D01*
X352267Y776150D01*
X352655Y774198D01*
X353761Y772542D01*
X355417Y771437D01*
X357369Y771048D01*
X359321Y771437D01*
X360976Y772542D01*
X362082Y774198D01*
X362471Y776150D01*
X362082Y778102D01*
X360976Y779758D01*
X359321Y780863D01*
X357369Y781252D01*
D02*
G37*
G36*
X373369D02*
X371417Y780863D01*
X369762Y779758D01*
X368656Y778102D01*
X368267Y776150D01*
X368656Y774198D01*
X369762Y772542D01*
X371417Y771437D01*
X373369Y771048D01*
X375321Y771437D01*
X376977Y772542D01*
X378083Y774198D01*
X378471Y776150D01*
X378083Y778102D01*
X376977Y779758D01*
X375321Y780863D01*
X373369Y781252D01*
D02*
G37*
G36*
X626369D02*
X624417Y780863D01*
X622761Y779758D01*
X621656Y778102D01*
X621267Y776150D01*
X621656Y774198D01*
X622761Y772542D01*
X624417Y771437D01*
X626369Y771048D01*
X628321Y771437D01*
X629977Y772542D01*
X631082Y774198D01*
X631471Y776150D01*
X631082Y778102D01*
X629977Y779758D01*
X628321Y780863D01*
X626369Y781252D01*
D02*
G37*
G36*
X539869D02*
X537917Y780863D01*
X536261Y779758D01*
X535476D01*
X533821Y780863D01*
X531869Y781252D01*
X529917Y780863D01*
X528261Y779758D01*
X527155Y778102D01*
X526767Y776150D01*
X527155Y774198D01*
X528261Y772542D01*
X529917Y771437D01*
X531869Y771048D01*
X533821Y771437D01*
X535476Y772542D01*
X536261D01*
X537917Y771437D01*
X539869Y771048D01*
X541821Y771437D01*
X543476Y772542D01*
X544582Y774198D01*
X544971Y776150D01*
X544582Y778102D01*
X543476Y779758D01*
X541821Y780863D01*
X539869Y781252D01*
D02*
G37*
G36*
X682369D02*
X680417Y780863D01*
X678762Y779758D01*
X677977D01*
X676321Y780863D01*
X674369Y781252D01*
X672417Y780863D01*
X670761Y779758D01*
X669656Y778102D01*
X669267Y776150D01*
X669656Y774198D01*
X670761Y772542D01*
X672417Y771437D01*
X674369Y771048D01*
X676321Y771437D01*
X677977Y772542D01*
X678762D01*
X680417Y771437D01*
X682369Y771048D01*
X684321Y771437D01*
X685976Y772542D01*
X687083Y774198D01*
X687471Y776150D01*
X687083Y778102D01*
X685976Y779758D01*
X684321Y780863D01*
X682369Y781252D01*
D02*
G37*
G36*
X397369D02*
X395417Y780863D01*
X393761Y779758D01*
X392976D01*
X391321Y780863D01*
X389369Y781252D01*
X387417Y780863D01*
X385761Y779758D01*
X384655Y778102D01*
X384267Y776150D01*
X384655Y774198D01*
X385761Y772542D01*
X387417Y771437D01*
X389369Y771048D01*
X391321Y771437D01*
X392976Y772542D01*
X393761D01*
X395417Y771437D01*
X397369Y771048D01*
X399321Y771437D01*
X400976Y772542D01*
X402082Y774198D01*
X402471Y776150D01*
X402082Y778102D01*
X400976Y779758D01*
X399321Y780863D01*
X397369Y781252D01*
D02*
G37*
G36*
X642369D02*
X640417Y780863D01*
X638761Y779758D01*
X637655Y778102D01*
X637267Y776150D01*
X637655Y774198D01*
X638761Y772542D01*
X640417Y771437D01*
X642369Y771048D01*
X644321Y771437D01*
X645976Y772542D01*
X647083Y774198D01*
X647471Y776150D01*
X647083Y778102D01*
X645976Y779758D01*
X644321Y780863D01*
X642369Y781252D01*
D02*
G37*
G36*
X658369D02*
X656417Y780863D01*
X654762Y779758D01*
X653655Y778102D01*
X653267Y776150D01*
X653655Y774198D01*
X654762Y772542D01*
X656417Y771437D01*
X658369Y771048D01*
X660321Y771437D01*
X661976Y772542D01*
X663083Y774198D01*
X663471Y776150D01*
X663083Y778102D01*
X661976Y779758D01*
X660321Y780863D01*
X658369Y781252D01*
D02*
G37*
G36*
X748209Y790940D02*
X723129D01*
Y765860D01*
X748209D01*
Y790940D01*
D02*
G37*
G36*
X320709Y790940D02*
X295629D01*
Y765860D01*
X320709D01*
Y790940D01*
D02*
G37*
G36*
X665000Y563548D02*
X663643Y563278D01*
X662491Y562509D01*
X661722Y561358D01*
X661452Y560000D01*
X661722Y558643D01*
X662491Y557491D01*
X663643Y556722D01*
X665000Y556452D01*
X666358Y556722D01*
X667509Y557491D01*
X668278Y558643D01*
X668548Y560000D01*
X668278Y561358D01*
X667509Y562509D01*
X666358Y563278D01*
X665000Y563548D01*
D02*
G37*
G36*
X645000D02*
X643643Y563278D01*
X642491Y562509D01*
X641722Y561358D01*
X641452Y560000D01*
X641722Y558643D01*
X642491Y557491D01*
X643643Y556722D01*
X645000Y556452D01*
X646358Y556722D01*
X647509Y557491D01*
X648278Y558643D01*
X648548Y560000D01*
X648278Y561358D01*
X647509Y562509D01*
X646358Y563278D01*
X645000Y563548D01*
D02*
G37*
G36*
X655000D02*
X653643Y563278D01*
X652491Y562509D01*
X651722Y561358D01*
X651452Y560000D01*
X651722Y558643D01*
X652491Y557491D01*
X653643Y556722D01*
X655000Y556452D01*
X656358Y556722D01*
X657509Y557491D01*
X658278Y558643D01*
X658548Y560000D01*
X658278Y561358D01*
X657509Y562509D01*
X656358Y563278D01*
X655000Y563548D01*
D02*
G37*
G36*
X463209Y790940D02*
X438129D01*
Y765860D01*
X463209D01*
Y790940D01*
D02*
G37*
G36*
X698369Y781252D02*
X696417Y780863D01*
X694762Y779758D01*
X693655Y778102D01*
X693267Y776150D01*
X693655Y774198D01*
X694762Y772542D01*
X696417Y771436D01*
X698369Y771048D01*
X700321Y771436D01*
X701976Y772542D01*
X703083Y774198D01*
X703471Y776150D01*
X703083Y778102D01*
X701976Y779758D01*
X700321Y780863D01*
X698369Y781252D01*
D02*
G37*
G36*
X341369Y781252D02*
X339417Y780863D01*
X337761Y779758D01*
X336656Y778102D01*
X336267Y776150D01*
X336656Y774198D01*
X337761Y772542D01*
X339417Y771437D01*
X341369Y771048D01*
X343321Y771437D01*
X344977Y772542D01*
X346082Y774198D01*
X346471Y776150D01*
X346082Y778102D01*
X344977Y779758D01*
X343321Y780863D01*
X341369Y781252D01*
D02*
G37*
G36*
X555869Y781252D02*
X553917Y780863D01*
X552262Y779758D01*
X551156Y778102D01*
X550767Y776150D01*
X551156Y774198D01*
X552262Y772542D01*
X553917Y771436D01*
X555869Y771048D01*
X557821Y771436D01*
X559477Y772542D01*
X560583Y774198D01*
X560971Y776150D01*
X560583Y778102D01*
X559477Y779758D01*
X557821Y780863D01*
X555869Y781252D01*
D02*
G37*
G36*
X270869D02*
X268917Y780863D01*
X267262Y779758D01*
X266155Y778102D01*
X265767Y776150D01*
X266155Y774198D01*
X267262Y772542D01*
X268917Y771436D01*
X270869Y771048D01*
X272821Y771436D01*
X274477Y772542D01*
X275583Y774198D01*
X275971Y776150D01*
X275583Y778102D01*
X274477Y779758D01*
X272821Y780863D01*
X270869Y781252D01*
D02*
G37*
G36*
X413369D02*
X411417Y780863D01*
X409762Y779758D01*
X408656Y778102D01*
X408267Y776150D01*
X408656Y774198D01*
X409762Y772542D01*
X411417Y771436D01*
X413369Y771048D01*
X415321Y771436D01*
X416977Y772542D01*
X418083Y774198D01*
X418471Y776150D01*
X418083Y778102D01*
X416977Y779758D01*
X415321Y780863D01*
X413369Y781252D01*
D02*
G37*
%LPD*%
D35*
X709104Y589896D02*
D03*
X416232Y587232D02*
D03*
X322072Y757428D02*
D03*
X464322Y758018D02*
D03*
X589000Y785500D02*
D03*
X748902Y758604D02*
D03*
D39*
X450850Y426466D02*
X455930Y431546D01*
X456438Y431038D01*
X636016D01*
X197358Y426466D02*
X450850D01*
X192532Y431292D02*
X197358Y426466D01*
X192532Y431292D02*
X194074Y429750D01*
D40*
X603030Y504986D02*
X619986D01*
X596392Y498348D02*
X603030Y504986D01*
X596392Y459486D02*
Y498348D01*
X20271Y842313D02*
X25400Y837184D01*
X20271Y842313D02*
Y920955D01*
X33020Y933704D01*
Y1035812D01*
X743712Y477520D02*
Y483108D01*
Y477520D02*
X744220Y477012D01*
X646938Y429006D02*
Y440436D01*
Y428498D02*
Y429006D01*
X656844Y430784D02*
Y440348D01*
X689327Y632211D02*
X765307D01*
X640885Y456307D02*
X656844Y440348D01*
X640885Y456307D02*
Y513545D01*
X639826Y514604D02*
X640885Y513545D01*
X602691Y514604D02*
X639826D01*
X594106Y506019D02*
X602691Y514604D01*
X594106Y501650D02*
Y506019D01*
X586740Y494284D02*
X594106Y501650D01*
X572517Y494284D02*
X586740D01*
X570993Y492760D02*
X572517Y494284D01*
X567760Y492760D02*
X570993D01*
X565000Y490000D02*
X567760Y492760D01*
X570885Y511704D02*
X575066Y515885D01*
X576704D01*
X579114Y518295D01*
Y519934D01*
X584707Y525526D01*
X670306D01*
X680212Y515620D01*
X711200D01*
X743712Y483108D01*
X630000Y457374D02*
X646938Y440436D01*
X630000Y457374D02*
Y485000D01*
X625000Y490000D02*
X630000Y485000D01*
X570819Y490000D02*
X575000D01*
X564934Y484115D02*
X570819Y490000D01*
X563295Y484115D02*
X564934D01*
X560885Y481704D02*
X563295Y484115D01*
X560885Y480066D02*
Y481704D01*
X556704Y475885D02*
X560885Y480066D01*
X455565Y475885D02*
X556704D01*
X455422Y475742D02*
X455565Y475885D01*
X620268Y495267D02*
X625000Y500000D01*
X620268Y475742D02*
Y495267D01*
X587248Y442722D02*
X620268Y475742D01*
X217932Y442722D02*
X587248D01*
X211154Y449500D02*
X217932Y442722D01*
X619986Y504986D02*
X625000Y510000D01*
X584906Y448000D02*
X596392Y459486D01*
X570885Y505885D02*
Y511704D01*
X565000Y500000D02*
X570885Y505885D01*
X179578Y549402D02*
X204470Y524510D01*
X118110Y549402D02*
X179578D01*
X115570Y546862D02*
X118110Y549402D01*
X104648Y510794D02*
Y538734D01*
Y510794D02*
X140970Y474472D01*
X204470Y524510D02*
X297180D01*
X302514Y519176D01*
Y504952D02*
Y519176D01*
Y504952D02*
X313351Y494115D01*
X326705D01*
X330819Y490000D01*
X335000D01*
X207122Y515000D02*
X288000D01*
X185122Y537000D02*
X207122Y515000D01*
X153000Y537000D02*
X185122D01*
X140970Y474472D02*
X265291D01*
X269114Y478295D01*
Y484115D01*
X275000Y490000D01*
X326898Y465328D02*
X339852Y478282D01*
X124972Y465328D02*
X326898D01*
X90000Y500300D02*
X124972Y465328D01*
X335000Y500000D02*
X339852Y495148D01*
Y478282D02*
Y495148D01*
X335000Y510000D02*
Y511770D01*
X330885Y515885D02*
X335000Y511770D01*
X330885Y515885D02*
Y525603D01*
X321818Y534670D02*
X330885Y525603D01*
X202692Y534670D02*
X321818D01*
X180086Y557276D02*
X202692Y534670D01*
X113030Y557276D02*
X180086D01*
X91948Y536194D02*
X113030Y557276D01*
X60894Y536194D02*
X91948D01*
X25000Y500300D02*
X60894Y536194D01*
X275000Y498229D02*
Y500000D01*
X270885Y494115D02*
X275000Y498229D01*
X270885Y489204D02*
Y494115D01*
X267329Y485648D02*
X270885Y489204D01*
X200406Y485648D02*
X267329D01*
X177038Y509016D02*
X200406Y485648D01*
X137922Y509016D02*
X177038D01*
X122428Y524510D02*
X137922Y509016D01*
X397775Y605536D02*
X402855Y610616D01*
X395986Y609854D02*
X401066Y614934D01*
X300667Y609854D02*
X395986D01*
X295733Y604920D02*
X300667Y609854D01*
X302456Y605536D02*
X397775D01*
X299114Y602195D02*
X302456Y605536D01*
X299114Y598296D02*
Y602195D01*
X542798Y162052D02*
Y243586D01*
X531876Y201422D02*
Y228854D01*
X509089Y178635D02*
X531876Y201422D01*
X509089Y108785D02*
Y178635D01*
X268979Y330020D02*
Y342646D01*
Y330020D02*
X369055Y229945D01*
X530785D01*
X531876Y228854D01*
X541782Y162052D02*
X542798D01*
X569976Y596331D02*
X575000Y591307D01*
X569976Y603669D02*
X576669Y610362D01*
X575000Y600000D02*
X581044Y606044D01*
X574294Y599295D02*
X575000Y600000D01*
X707085Y620065D02*
X708914Y618236D01*
X636016Y620065D02*
X707085D01*
X621995Y606044D02*
X636016Y620065D01*
X581044Y606044D02*
X621995D01*
X707085Y624383D02*
X708914Y626212D01*
X634227Y624383D02*
X707085D01*
X620207Y610362D02*
X634227Y624383D01*
X576669Y610362D02*
X620207D01*
X575000Y590000D02*
Y591307D01*
X569976Y596331D02*
Y603669D01*
X622691Y623011D02*
X630057Y630377D01*
X646915D02*
X651160Y634623D01*
X765307Y632211D02*
X776224Y643128D01*
X686915Y634623D02*
X689327Y632211D01*
X651160Y634623D02*
X686915D01*
X630057Y630377D02*
X646915D01*
X618861Y623011D02*
X622691D01*
X617872Y624000D02*
X618861Y623011D01*
X644206Y641206D02*
X646000Y643000D01*
X616206Y641206D02*
X644206D01*
X607000Y632000D02*
X616206Y641206D01*
X874014Y643128D02*
X880618Y649732D01*
X776224Y643128D02*
X874014D01*
X545000Y624000D02*
X617872D01*
X475005Y590995D02*
X491998D01*
X619787Y628623D02*
X620776Y627634D01*
X543063Y628623D02*
X619787D01*
X529120Y614680D02*
X543063Y628623D01*
X515683Y614680D02*
X529120D01*
X491998Y590995D02*
X515683Y614680D01*
X502000Y613000D02*
X509268Y620268D01*
X526806D01*
X541030Y634492D01*
X527963Y617474D02*
X542187Y631698D01*
X514474Y617474D02*
X527963D01*
X502995Y605995D02*
X514474Y617474D01*
X550418Y634492D02*
X559926Y644000D01*
X541030Y634492D02*
X550418D01*
X552196Y631698D02*
X561704Y641206D01*
X542187Y631698D02*
X552196D01*
X597408Y632000D02*
X607000D01*
X588202Y641206D02*
X597408Y632000D01*
X561704Y641206D02*
X588202D01*
X559926Y644000D02*
X593000D01*
X743712Y483108D02*
X872236D01*
X883412Y494284D01*
X872000Y1053000D02*
X883412Y1041588D01*
X880618Y649732D02*
Y954382D01*
X862000Y973000D02*
X880618Y954382D01*
X883412Y494284D02*
Y1041588D01*
X467868Y488950D02*
X471818Y485000D01*
X557136D01*
X559816Y487680D01*
Y493014D01*
X561848Y495046D01*
X570046D01*
X575000Y500000D01*
X457962Y498856D02*
X467868Y488950D01*
X472000Y515000D02*
X540000D01*
X471000D02*
X472000D01*
X540000D02*
X545000Y510000D01*
X464000Y522000D02*
X471000Y515000D01*
X537199Y524510D02*
X545283Y532594D01*
X493490Y524510D02*
X537199D01*
X454406Y563594D02*
X493490Y524510D01*
X538988Y520192D02*
X547072Y528276D01*
X491701Y520192D02*
X538988D01*
X450088Y561805D02*
X491701Y520192D01*
X90000Y449500D02*
X211154D01*
X135128Y520954D02*
X139700Y516382D01*
X177000D01*
X198382Y495000D01*
X186000Y622570D02*
X193430Y630000D01*
X186000Y637696D02*
X189696Y634000D01*
X321000Y642000D02*
X322623Y640377D01*
X443000Y640000D02*
X477000Y606000D01*
X480687Y605995D02*
X502995D01*
X477000Y606000D02*
X480682D01*
X480687Y605995D01*
X494000Y613000D02*
X502000D01*
X593000Y644000D02*
X600000Y637000D01*
X177000Y531000D02*
X185000D01*
X206000Y510000D01*
X255000D01*
X212000Y565000D02*
X260000D01*
X203000Y574000D02*
X212000Y565000D01*
X260000D02*
X265000Y560000D01*
X150000Y534000D02*
X153000Y537000D01*
X181000Y526000D02*
X202000Y505000D01*
X167000Y526000D02*
X181000D01*
X202000Y505000D02*
X221000D01*
X280885Y494115D02*
Y502115D01*
X221000Y505000D02*
X278000D01*
X280885Y502115D01*
Y494115D02*
X285000Y490000D01*
X290000Y505000D02*
Y513000D01*
X288000Y515000D02*
X290000Y513000D01*
X285000Y500000D02*
X290000Y505000D01*
X197000Y566000D02*
X208000Y555000D01*
X270000D01*
X99402Y566000D02*
X197000D01*
X270000Y555000D02*
X275000Y550000D01*
X464000Y522000D02*
X465000D01*
X187915Y617947D02*
X187968Y618000D01*
X210000Y455000D02*
X217000Y448000D01*
X30500Y455000D02*
X210000D01*
X25000Y449500D02*
X30500Y455000D01*
X217000Y448000D02*
X584906D01*
X260084Y545084D02*
X265000Y550000D01*
X213965Y545084D02*
X260084D01*
X195843Y563206D02*
X213965Y545084D01*
X101434Y563206D02*
X195843D01*
X85090Y546862D02*
X101434Y563206D01*
X25950Y555550D02*
X34638Y546862D01*
X85090D01*
X84074Y550672D02*
X99402Y566000D01*
X38650Y555550D02*
X43528Y550672D01*
X84074D01*
X109255Y617947D02*
X187915D01*
X39650Y662550D02*
X47642Y654558D01*
X72644D01*
X109255Y617947D01*
X26950Y662550D02*
X38061Y651439D01*
X71811D01*
X108097Y615153D01*
X110998D01*
X108097D02*
X186758D01*
X522986Y555244D02*
X559756D01*
X565000Y550000D01*
X515366Y562864D02*
X522986Y555244D01*
X471233Y585407D02*
X500443D01*
X515366Y562864D02*
Y574435D01*
X472503Y588201D02*
X501600D01*
X515366Y574435D01*
X500443Y585407D02*
X513080Y572770D01*
Y556101D02*
Y572770D01*
Y556101D02*
X524097Y545084D01*
X550084D01*
X555000Y550000D01*
X186758Y615153D02*
X194705Y607206D01*
X285000Y590000D02*
X290885Y595885D01*
X296704D01*
X299114Y598296D01*
X549114Y528276D02*
X549159Y528320D01*
X676667D01*
X691653Y543306D01*
X724165D01*
X781812Y600953D01*
Y627888D02*
X782574Y628650D01*
X781812Y600953D02*
Y627888D01*
X782574Y628650D02*
X783641D01*
X285000Y600000D02*
X289919Y604920D01*
X295733D01*
X674878Y532638D02*
X689864Y547624D01*
X722376D01*
X777494Y602742D01*
X775665Y628650D02*
X776732D01*
X777494Y602742D02*
Y627888D01*
X776732Y628650D02*
X777494Y627888D01*
X545338Y532638D02*
X674878D01*
X547072Y528276D02*
X549114D01*
X545283Y532594D02*
X545294D01*
X545338Y532638D01*
X307228Y642000D02*
X321000D01*
X280924Y635000D02*
X323000D01*
X279767Y637794D02*
X303022D01*
X307228Y642000D01*
X267350Y625377D02*
X279767Y637794D01*
X268507Y622583D02*
X280924Y635000D01*
X193430Y630000D02*
X241220D01*
X248637Y622583D01*
X268507D01*
X249794Y625377D02*
X267350D01*
X241171Y634000D02*
X249794Y625377D01*
X189696Y634000D02*
X241171D01*
X187915Y617947D02*
X195862Y610000D01*
X261004D01*
X276381Y625377D01*
X297209D01*
X194705Y607206D02*
X262274D01*
X277651Y622583D01*
X300511D01*
X401967Y645417D02*
X407383Y640000D01*
X443000D01*
X323000Y635000D02*
X325540Y637540D01*
X366085Y642623D02*
X400809D01*
X361002Y637540D02*
X366085Y642623D01*
X363954Y645417D02*
X401967D01*
X426212Y630428D02*
X471233Y585407D01*
X400809Y642623D02*
X407416Y636016D01*
X319256Y632206D02*
X321085Y630377D01*
X324915D01*
X307340Y629412D02*
X318099D01*
X319928Y627583D01*
X326072D01*
X328917Y630428D01*
X393085Y634623D02*
X396915D01*
X387733Y633222D02*
X391928Y637417D01*
X398072D01*
X402267Y633222D01*
X328917Y630428D02*
X351602D01*
X353177Y632003D01*
X357007D01*
X358582Y630428D01*
X350445Y633222D02*
X352020Y634797D01*
X358164D01*
X359739Y633222D01*
X387733D01*
X325540Y637540D02*
X350812D01*
X350863Y637591D01*
X359321D01*
X359372Y637540D01*
X361002D01*
X322623Y640377D02*
X349698D01*
X349705Y640385D01*
X358922D01*
X363954Y645417D01*
X300511Y622583D02*
X307340Y629412D01*
X407416Y636016D02*
X429984D01*
X304038Y632206D02*
X319256D01*
X402267Y633222D02*
X427482D01*
X327760D02*
X350445D01*
X324915Y630377D02*
X327760Y633222D01*
X401110Y630428D02*
X426212D01*
X358582D02*
X388890D01*
X393085Y634623D01*
X396915D02*
X401110Y630428D01*
X297209Y625377D02*
X304038Y632206D01*
X427482Y633222D02*
X472503Y588201D01*
X429984Y636016D02*
X475005Y590995D01*
X401066Y614934D02*
X423164D01*
X454406Y583692D01*
Y563594D02*
Y583692D01*
X402855Y610616D02*
X421375D01*
X450088Y581903D01*
Y561805D02*
Y581903D01*
D43*
X817880Y519938D02*
X818388D01*
D54*
X33020Y1035812D02*
D03*
X25400Y837184D02*
D03*
X115570Y546862D02*
D03*
X104648Y538734D02*
D03*
X744220Y477012D02*
D03*
X656844Y430784D02*
D03*
X646938Y429006D02*
D03*
X695960Y632206D02*
D03*
X123190Y524256D02*
D03*
X636016Y431038D02*
D03*
X268979Y342646D02*
D03*
X541782Y162052D02*
D03*
X708914Y618236D02*
D03*
X575000Y600000D02*
D03*
X708914Y626212D02*
D03*
X575000Y590000D02*
D03*
X646000Y643000D02*
D03*
X620776Y627634D02*
D03*
X457962Y498856D02*
D03*
X455422Y475742D02*
D03*
X135128Y520954D02*
D03*
X818388Y519938D02*
D03*
X321000Y642000D02*
D03*
X494000Y613000D02*
D03*
X545000Y624000D02*
D03*
X600000Y637000D02*
D03*
X177000Y531000D02*
D03*
X203000Y574000D02*
D03*
X150000Y534000D02*
D03*
X167000Y526000D02*
D03*
X464000Y522000D02*
D03*
X495000Y547000D02*
D03*
X862000Y973000D02*
D03*
X872000Y1053000D02*
D03*
X675000Y590000D02*
D03*
X186000Y622570D02*
D03*
X186000Y637696D02*
D03*
X545000Y540000D02*
D03*
X509089Y108785D02*
D03*
X26950Y662550D02*
D03*
X39650D02*
D03*
X38650Y555550D02*
D03*
X25950D02*
D03*
X90000Y500300D02*
D03*
Y449500D02*
D03*
X25000D02*
D03*
Y500300D02*
D03*
X285000Y550000D02*
D03*
X325000D02*
D03*
X295000Y560000D02*
D03*
X315000D02*
D03*
X285000Y500000D02*
D03*
X335000Y510000D02*
D03*
X275000Y550000D02*
D03*
X285000Y560000D02*
D03*
X325000D02*
D03*
X275000Y500000D02*
D03*
X335000D02*
D03*
X285000Y490000D02*
D03*
X265000Y510000D02*
D03*
Y550000D02*
D03*
X275000Y490000D02*
D03*
X265000Y500000D02*
D03*
X335000Y490000D02*
D03*
X265000Y560000D02*
D03*
X255000Y510000D02*
D03*
X265000Y490000D02*
D03*
X615000Y550000D02*
D03*
X575000D02*
D03*
X585000Y560000D02*
D03*
X605000D02*
D03*
X625000Y510000D02*
D03*
X575000Y500000D02*
D03*
X615000Y560000D02*
D03*
X565000Y550000D02*
D03*
X575000Y560000D02*
D03*
X625000Y500000D02*
D03*
X565000D02*
D03*
X575000Y490000D02*
D03*
X555000Y550000D02*
D03*
X625000Y490000D02*
D03*
X565000D02*
D03*
X625000Y570000D02*
D03*
X545000Y510000D02*
D03*
X192532Y431292D02*
D03*
X455930Y431546D02*
D03*
X531876Y228854D02*
D03*
X542798Y243586D02*
D03*
X547223Y798977D02*
D03*
X405223Y797977D02*
D03*
X262223Y796977D02*
D03*
X689609Y797977D02*
D03*
X323000Y635000D02*
D03*
X775665Y628650D02*
D03*
X783641D02*
D03*
X285000Y590000D02*
D03*
Y600000D02*
D03*
D65*
X198382Y495000D02*
X260000D01*
X265000Y500000D01*
X495000Y547000D02*
X500000D01*
X502000Y545000D01*
X675000Y582000D02*
Y590000D01*
X668000Y575000D02*
X675000Y582000D01*
X630000Y575000D02*
X668000D01*
X625000Y570000D02*
X630000Y575000D01*
X262959Y490000D02*
X265000D01*
X262959Y550000D02*
X265000D01*
X541020Y536020D02*
X545000Y540000D01*
X502000Y545000D02*
X510980Y536020D01*
X541020D01*
D66*
X262975Y510000D02*
X265000D01*
M02*
