%FSLAX44Y44*%
%MOMM*%
G71*
G01*
G75*
G04 Layer_Physical_Order=1*
G04 Layer_Color=255*
%ADD10C,0.2032*%
%ADD11R,1.6000X1.6000*%
%ADD12R,0.2800X0.8000*%
%ADD13R,0.8000X0.2800*%
%ADD14R,0.6000X0.6000*%
%ADD15R,0.6000X0.6000*%
%ADD16R,1.4000X1.0000*%
G04:AMPARAMS|DCode=17|XSize=0.5mm|YSize=0.6mm|CornerRadius=0.125mm|HoleSize=0mm|Usage=FLASHONLY|Rotation=0.000|XOffset=0mm|YOffset=0mm|HoleType=Round|Shape=RoundedRectangle|*
%AMROUNDEDRECTD17*
21,1,0.5000,0.3500,0,0,0.0*
21,1,0.2500,0.6000,0,0,0.0*
1,1,0.2500,0.1250,-0.1750*
1,1,0.2500,-0.1250,-0.1750*
1,1,0.2500,-0.1250,0.1750*
1,1,0.2500,0.1250,0.1750*
%
%ADD17ROUNDEDRECTD17*%
%ADD18R,2.6000X1.1000*%
G04:AMPARAMS|DCode=19|XSize=0.5mm|YSize=0.6mm|CornerRadius=0.125mm|HoleSize=0mm|Usage=FLASHONLY|Rotation=270.000|XOffset=0mm|YOffset=0mm|HoleType=Round|Shape=RoundedRectangle|*
%AMROUNDEDRECTD19*
21,1,0.5000,0.3500,0,0,270.0*
21,1,0.2500,0.6000,0,0,270.0*
1,1,0.2500,-0.1750,-0.1250*
1,1,0.2500,-0.1750,0.1250*
1,1,0.2500,0.1750,0.1250*
1,1,0.2500,0.1750,-0.1250*
%
%ADD19ROUNDEDRECTD19*%
%ADD20R,1.1000X1.3500*%
%ADD21R,1.0000X1.4000*%
%ADD22R,1.4000X1.1000*%
%ADD23R,1.1500X1.8000*%
%ADD24R,0.9500X0.3500*%
%ADD25R,0.3500X0.9500*%
%ADD26R,3.3000X3.3000*%
%ADD27R,0.6000X1.8000*%
%ADD28R,0.5000X2.0000*%
%ADD29R,1.1000X1.4000*%
%ADD30R,1.1500X1.7000*%
%ADD31R,3.3000X3.3000*%
%ADD32R,1.1000X2.6000*%
%ADD33R,1.7000X1.1500*%
%ADD34C,0.4500*%
%ADD35C,1.0000*%
%ADD36R,12.0500X2.0000*%
%ADD37R,1.8000X1.8000*%
%ADD38R,3.6800X1.2700*%
%ADD39C,0.2540*%
%ADD40C,0.1270*%
%ADD41C,0.5080*%
%ADD42C,0.1524*%
%ADD43C,0.3048*%
%ADD44C,0.5000*%
%ADD45C,1.2700*%
%ADD46C,0.3810*%
%ADD47C,1.6500*%
%ADD48C,1.4732*%
%ADD49C,1.2802*%
%ADD50C,0.9500*%
%ADD51R,2.0000X2.0000*%
%ADD52C,8.0000*%
%ADD53C,0.5080*%
%ADD54C,0.4928*%
%ADD55C,0.6600*%
G36*
X256470Y659928D02*
X256434D01*
X256855Y656736D01*
X258087Y653761D01*
X260047Y651207D01*
X260047Y651207D01*
X260187Y651067D01*
X260763Y650205D01*
X261003Y648999D01*
X261001Y648989D01*
Y643400D01*
X255785D01*
X254979Y644382D01*
X255102Y645000D01*
X254713Y646952D01*
X253608Y648607D01*
X251952Y649714D01*
X250000Y650102D01*
X248048Y649714D01*
X246392Y648607D01*
X245287Y646952D01*
X244898Y645000D01*
X245021Y644382D01*
X244216Y643400D01*
X226685D01*
X224680Y645843D01*
X222663Y649616D01*
X221421Y653710D01*
X221018Y657806D01*
X221050Y657967D01*
Y665860D01*
X256470D01*
Y659928D01*
D02*
G37*
G36*
X542109Y664636D02*
X543404Y660369D01*
X545506Y656437D01*
X548334Y652990D01*
Y652990D01*
D01*
Y652990D01*
X549811Y651162D01*
X550714Y648984D01*
X551013Y646708D01*
X551001Y646647D01*
Y643400D01*
X548746D01*
X548607Y643607D01*
X546952Y644714D01*
X545000Y645102D01*
X543048Y644714D01*
X541393Y643607D01*
X541254Y643400D01*
X530284D01*
X530235Y643464D01*
X530211Y643500D01*
X530175Y643524D01*
X528591Y644740D01*
X526706Y645520D01*
X524684Y645787D01*
X522661Y645520D01*
X520777Y644740D01*
X519192Y643524D01*
X519157Y643500D01*
X519157Y643500D01*
X519156Y643500D01*
X519057Y643400D01*
X516598D01*
X512415Y647582D01*
X512279Y647673D01*
X509668Y650855D01*
X508123Y653745D01*
X508609Y654919D01*
X509119Y655073D01*
X510000Y654898D01*
X511952Y655286D01*
X513607Y656393D01*
X514714Y658048D01*
X515102Y660000D01*
X514714Y661952D01*
X513607Y663607D01*
X512055Y664645D01*
X512424Y665860D01*
X541989D01*
X542109Y664636D01*
D02*
G37*
G36*
X760000Y643400D02*
X713258D01*
X712224Y644748D01*
X710649Y645956D01*
X708814Y646716D01*
X706846Y646975D01*
X705247Y646765D01*
X704577Y647843D01*
X704714Y648048D01*
X705102Y650000D01*
X704714Y651952D01*
X703607Y653607D01*
X701952Y654714D01*
X700000Y655102D01*
X698048Y654714D01*
X696815Y653890D01*
X695773Y654616D01*
X696200Y656393D01*
X696557Y660937D01*
X696538D01*
Y665860D01*
X707409D01*
Y690940D01*
X707409Y690940D01*
X707409D01*
X706890Y691910D01*
X707083Y692198D01*
X707471Y694150D01*
X707083Y696102D01*
X705976Y697758D01*
X704321Y698864D01*
X702369Y699252D01*
X700417Y698864D01*
X698761Y697758D01*
X697655Y696102D01*
X697267Y694150D01*
X697655Y692198D01*
X697747Y692060D01*
X697149Y690940D01*
X683589D01*
X682990Y692060D01*
X683083Y692198D01*
X683471Y694150D01*
X683083Y696102D01*
X681976Y697758D01*
X680321Y698864D01*
X678369Y699252D01*
X676417Y698864D01*
X674761Y697758D01*
X673655Y696102D01*
X673429Y694965D01*
X672214Y694596D01*
X670804Y696006D01*
X670122Y697028D01*
X668466Y698133D01*
X666514Y698522D01*
X664562Y698133D01*
X662906Y697028D01*
X662224Y696006D01*
X660572Y694354D01*
X659357Y694723D01*
X659082Y696102D01*
X657977Y697758D01*
X656321Y698864D01*
X654369Y699252D01*
X652417Y698864D01*
X650761Y697758D01*
X649656Y696102D01*
X649267Y694150D01*
X649656Y692198D01*
X649747Y692060D01*
X649149Y690940D01*
X635589D01*
X634991Y692060D01*
X635082Y692198D01*
X635471Y694150D01*
X635082Y696102D01*
X633977Y697758D01*
X632321Y698864D01*
X630369Y699252D01*
X628417Y698864D01*
X626761Y697758D01*
X625656Y696102D01*
X625267Y694150D01*
X625656Y692198D01*
X625848Y691910D01*
X625329Y690940D01*
X625329D01*
X625329Y690940D01*
Y665860D01*
X636200D01*
Y663040D01*
X636237Y662857D01*
X635791Y659474D01*
X634415Y656151D01*
X632338Y653443D01*
X632182Y653340D01*
X632164Y653358D01*
X629695Y650349D01*
X627860Y646916D01*
X626793Y643400D01*
X563626D01*
Y647043D01*
X563656D01*
X563257Y651093D01*
X562076Y654988D01*
X560157Y658577D01*
X557575Y661723D01*
X557554Y661702D01*
X557437Y661780D01*
X555610Y664161D01*
X555343Y664804D01*
X556049Y665860D01*
X564909D01*
Y690940D01*
X564909Y690940D01*
X564909D01*
X564390Y691910D01*
X564582Y692198D01*
X564971Y694150D01*
X564582Y696102D01*
X563476Y697758D01*
X561821Y698864D01*
X559869Y699252D01*
X557917Y698864D01*
X556261Y697758D01*
X555155Y696102D01*
X554767Y694150D01*
X555155Y692198D01*
X555247Y692060D01*
X554649Y690940D01*
X541089D01*
X540490Y692060D01*
X540583Y692198D01*
X540971Y694150D01*
X540583Y696102D01*
X539477Y697758D01*
X537821Y698864D01*
X535869Y699252D01*
X533917Y698864D01*
X532261Y697758D01*
X531156Y696102D01*
X530929Y694965D01*
X529714Y694596D01*
X528304Y696006D01*
X527621Y697028D01*
X525966Y698133D01*
X524014Y698522D01*
X522062Y698133D01*
X520406Y697028D01*
X519724Y696006D01*
X518072Y694354D01*
X516857Y694723D01*
X516582Y696102D01*
X515476Y697758D01*
X513821Y698864D01*
X511869Y699252D01*
X509917Y698864D01*
X508261Y697758D01*
X507155Y696102D01*
X506767Y694150D01*
X507155Y692198D01*
X507247Y692060D01*
X506649Y690940D01*
X493089D01*
X492491Y692060D01*
X492583Y692198D01*
X492971Y694150D01*
X492583Y696102D01*
X491477Y697758D01*
X489821Y698864D01*
X487869Y699252D01*
X485917Y698864D01*
X484261Y697758D01*
X483156Y696102D01*
X482767Y694150D01*
X483156Y692198D01*
X483348Y691910D01*
X482829Y690940D01*
X482829D01*
X482829Y690940D01*
Y665860D01*
X493706D01*
Y660693D01*
X493686D01*
X494044Y656149D01*
X495108Y651718D01*
X496852Y647507D01*
X498133Y645416D01*
X497218Y644536D01*
X496952Y644714D01*
X495000Y645102D01*
X493048Y644714D01*
X491393Y643607D01*
X491254Y643400D01*
X415784D01*
X414979Y644382D01*
X415102Y645000D01*
X414714Y646952D01*
X413607Y648607D01*
X411952Y649714D01*
X410000Y650102D01*
X408048Y649714D01*
X407039Y649040D01*
X406124Y649920D01*
X408452Y653718D01*
X410196Y657929D01*
X411260Y662361D01*
X411535Y665860D01*
X422409D01*
Y690940D01*
X422409Y690940D01*
X422409D01*
X421890Y691910D01*
X422082Y692198D01*
X422471Y694150D01*
X422082Y696102D01*
X420976Y697758D01*
X419321Y698864D01*
X417369Y699252D01*
X415417Y698864D01*
X413761Y697758D01*
X412655Y696102D01*
X412267Y694150D01*
X412655Y692198D01*
X412747Y692060D01*
X412149Y690940D01*
X398589D01*
X397990Y692060D01*
X398083Y692198D01*
X398471Y694150D01*
X398083Y696102D01*
X396977Y697758D01*
X395321Y698864D01*
X393369Y699252D01*
X391417Y698864D01*
X389762Y697758D01*
X388656Y696102D01*
X388429Y694965D01*
X387214Y694596D01*
X385804Y696006D01*
X385121Y697028D01*
X383466Y698133D01*
X381514Y698522D01*
X379562Y698133D01*
X377906Y697028D01*
X377224Y696006D01*
X375572Y694354D01*
X374357Y694723D01*
X374082Y696102D01*
X372976Y697758D01*
X371321Y698864D01*
X369369Y699252D01*
X367417Y698864D01*
X365761Y697758D01*
X364655Y696102D01*
X364267Y694150D01*
X364655Y692198D01*
X364747Y692060D01*
X364149Y690940D01*
X350589D01*
X349991Y692060D01*
X350083Y692198D01*
X350471Y694150D01*
X350083Y696102D01*
X348977Y697758D01*
X347321Y698864D01*
X345369Y699252D01*
X343417Y698864D01*
X341761Y697758D01*
X340656Y696102D01*
X340267Y694150D01*
X340656Y692198D01*
X340848Y691910D01*
X340329Y690940D01*
X340329D01*
X340329Y690940D01*
Y665860D01*
X340329Y665860D01*
X340329D01*
X340205Y665239D01*
X340000Y665102D01*
D01*
X338048Y664714D01*
X336393Y663607D01*
X335286Y661952D01*
X334898Y660000D01*
X335286Y658048D01*
X336393Y656393D01*
X338048Y655286D01*
X340000Y654898D01*
X341952Y655286D01*
X343387Y656245D01*
X344231Y655296D01*
X342155Y652866D01*
X339663Y648799D01*
X337838Y644392D01*
X337600Y643400D01*
X335784D01*
X334979Y644382D01*
X335102Y645000D01*
X334714Y646952D01*
X333607Y648607D01*
X331952Y649714D01*
X330000Y650102D01*
X328048Y649714D01*
X326393Y648607D01*
X325286Y646952D01*
X325194Y646486D01*
X324020Y646000D01*
X322952Y646713D01*
X321000Y647102D01*
X319048Y646713D01*
X317393Y645608D01*
X316287Y643952D01*
X316177Y643400D01*
X290784D01*
X289979Y644382D01*
X290102Y645000D01*
X289713Y646952D01*
X288608Y648607D01*
X286952Y649714D01*
X285000Y650102D01*
X283048Y649714D01*
X281392Y648607D01*
X280287Y646952D01*
X280213Y646583D01*
X279025Y646136D01*
X278098Y646847D01*
X276213Y647628D01*
X274233Y647888D01*
X274191Y647897D01*
Y647912D01*
X273802Y648073D01*
X273641Y648462D01*
X273626D01*
Y650401D01*
X273628D01*
X273342Y653307D01*
X272494Y656101D01*
X271117Y658676D01*
X269265Y660933D01*
X269266Y660934D01*
X269266Y660934D01*
X269108Y661317D01*
X269059Y661434D01*
X269059D01*
D01*
D01*
X269059D01*
X269056Y661438D01*
Y665860D01*
X279909D01*
Y690940D01*
X279909Y690940D01*
X279909D01*
X279390Y691910D01*
X279583Y692198D01*
X279971Y694150D01*
X279583Y696102D01*
X278477Y697758D01*
X276821Y698864D01*
X274869Y699252D01*
X272917Y698864D01*
X271262Y697758D01*
X270156Y696102D01*
X269767Y694150D01*
X270156Y692198D01*
X270247Y692060D01*
X269649Y690940D01*
X256089D01*
X255490Y692060D01*
X255583Y692198D01*
X255971Y694150D01*
X255583Y696102D01*
X254477Y697758D01*
X252821Y698864D01*
X250869Y699252D01*
X248917Y698864D01*
X247262Y697758D01*
X246155Y696102D01*
X245929Y694965D01*
X244714Y694596D01*
X243304Y696006D01*
X242621Y697028D01*
X240966Y698133D01*
X239014Y698522D01*
X237062Y698133D01*
X235406Y697028D01*
X234724Y696006D01*
X233072Y694354D01*
X231857Y694723D01*
X231583Y696102D01*
X230476Y697758D01*
X228821Y698864D01*
X226869Y699252D01*
X224917Y698864D01*
X223262Y697758D01*
X222155Y696102D01*
X221767Y694150D01*
X222155Y692198D01*
X222247Y692060D01*
X221649Y690940D01*
X208089D01*
X207491Y692060D01*
X207582Y692198D01*
X207971Y694150D01*
X207582Y696102D01*
X206476Y697758D01*
X204821Y698864D01*
X202869Y699252D01*
X200917Y698864D01*
X199261Y697758D01*
X198155Y696102D01*
X197767Y694150D01*
X198155Y692198D01*
X198348Y691910D01*
X197829Y690940D01*
X197829D01*
X197829Y690940D01*
Y665860D01*
X208718D01*
Y655218D01*
X208702D01*
X209046Y650850D01*
X210069Y646589D01*
X210952Y644456D01*
X210247Y643400D01*
X208746D01*
X208608Y643607D01*
X206952Y644714D01*
X205000Y645102D01*
X203048Y644714D01*
X201392Y643607D01*
X201254Y643400D01*
X199022D01*
X198713Y644952D01*
X197607Y646608D01*
X195952Y647713D01*
X194000Y648102D01*
X192048Y647713D01*
X190392Y646608D01*
X189286Y644952D01*
X188978Y643400D01*
X140000D01*
Y1053400D01*
X760000D01*
Y643400D01*
D02*
G37*
G36*
X684206Y663223D02*
X684238Y663063D01*
X683835Y658966D01*
X682593Y654872D01*
X681189Y652246D01*
X679714Y651952D01*
X678607Y653607D01*
X676952Y654714D01*
X675000Y655102D01*
X673048Y654714D01*
X671393Y653607D01*
X670286Y651952D01*
X669898Y650000D01*
X670286Y648048D01*
X671393Y646393D01*
X673048Y645286D01*
X673596Y645177D01*
X673826Y644420D01*
X673069Y643400D01*
X651714D01*
X651115Y644520D01*
X651578Y645212D01*
X651952Y645286D01*
X653607Y646393D01*
X654714Y648048D01*
X655102Y650000D01*
X654714Y651952D01*
X653607Y653607D01*
X651952Y654714D01*
X650000Y655102D01*
X648972Y654897D01*
X648119Y655838D01*
X648162Y655980D01*
X648562Y660047D01*
X648532D01*
Y665860D01*
X684206D01*
Y663223D01*
D02*
G37*
G36*
X398158Y665666D02*
X398770Y664840D01*
X397598Y660976D01*
X395639Y657311D01*
X393099Y654216D01*
X392971Y654131D01*
X392971Y654131D01*
X392971Y654131D01*
X391263Y652423D01*
X391263Y652423D01*
X385953Y647113D01*
X384683D01*
X383791Y648006D01*
X383755Y648029D01*
X382171Y649245D01*
X380286Y650026D01*
X378264Y650292D01*
X376241Y650026D01*
X374357Y649245D01*
X372772Y648029D01*
X372736Y648006D01*
X372713Y647970D01*
X371497Y646385D01*
X370716Y644501D01*
X370571Y643400D01*
X362877D01*
X362071Y644382D01*
X362226Y645160D01*
X361838Y647112D01*
X360732Y648767D01*
X359076Y649874D01*
X358043Y650079D01*
X357627Y651279D01*
X358391Y652173D01*
X360609Y655793D01*
X362233Y659715D01*
X363224Y663843D01*
X363383Y665860D01*
X397981D01*
X398158Y665666D01*
D02*
G37*
G36*
X876808Y525526D02*
X866537D01*
Y528210D01*
X874840D01*
Y551290D01*
X851760D01*
Y528210D01*
X860063D01*
Y525526D01*
X854028D01*
Y519938D01*
X851488D01*
Y525526D01*
X837456D01*
Y519928D01*
X834916D01*
Y525526D01*
X829944D01*
Y528210D01*
X837340D01*
Y551290D01*
X814797D01*
X814775Y551403D01*
X814073Y552453D01*
X815230Y553610D01*
X837340D01*
Y576690D01*
X818838D01*
X817727Y577801D01*
X817738Y577910D01*
X818838Y579010D01*
X837340D01*
Y602090D01*
X814260D01*
Y583588D01*
X814108Y583436D01*
X812800D01*
Y604520D01*
X876808D01*
Y525526D01*
D02*
G37*
%LPC*%
G36*
X342085Y718130D02*
X332639D01*
Y708684D01*
X334186Y708888D01*
X336811Y709975D01*
X339064Y711704D01*
X340794Y713958D01*
X341881Y716583D01*
X342085Y718130D01*
D02*
G37*
G36*
X484585D02*
X475139D01*
Y708684D01*
X476686Y708888D01*
X479310Y709975D01*
X481564Y711704D01*
X483294Y713958D01*
X484381Y716583D01*
X484585Y718130D01*
D02*
G37*
G36*
X472599D02*
X463153D01*
X463357Y716583D01*
X464444Y713958D01*
X466174Y711704D01*
X468427Y709975D01*
X471052Y708888D01*
X472599Y708684D01*
Y718130D01*
D02*
G37*
G36*
X438085D02*
X428639D01*
Y708684D01*
X430186Y708888D01*
X432811Y709975D01*
X435065Y711704D01*
X436794Y713958D01*
X437881Y716583D01*
X438085Y718130D01*
D02*
G37*
G36*
X426099D02*
X416653D01*
X416857Y716583D01*
X417944Y713958D01*
X419674Y711704D01*
X421927Y709975D01*
X424552Y708888D01*
X426099Y708684D01*
Y718130D01*
D02*
G37*
G36*
X723085D02*
X713639D01*
Y708684D01*
X715186Y708888D01*
X717811Y709975D01*
X720064Y711704D01*
X721794Y713958D01*
X722881Y716583D01*
X723085Y718130D01*
D02*
G37*
G36*
X711099D02*
X701653D01*
X701857Y716583D01*
X702944Y713958D01*
X704673Y711704D01*
X706927Y709975D01*
X709552Y708888D01*
X711099Y708684D01*
Y718130D01*
D02*
G37*
G36*
X513869Y718990D02*
X511917Y718602D01*
X510261Y717495D01*
X509156Y715840D01*
X508767Y713888D01*
X509156Y711936D01*
X510261Y710281D01*
X511917Y709174D01*
X513869Y708786D01*
X515821Y709174D01*
X517477Y710281D01*
X518582Y711936D01*
X518971Y713888D01*
X518582Y715840D01*
X517477Y717495D01*
X515821Y718602D01*
X513869Y718990D01*
D02*
G37*
G36*
X228869D02*
X226917Y718602D01*
X225261Y717495D01*
X224156Y715840D01*
X223767Y713888D01*
X224156Y711936D01*
X225261Y710281D01*
X226917Y709174D01*
X228869Y708786D01*
X230821Y709174D01*
X232477Y710281D01*
X233582Y711936D01*
X233971Y713888D01*
X233582Y715840D01*
X232477Y717495D01*
X230821Y718602D01*
X228869Y718990D01*
D02*
G37*
G36*
X580585Y718130D02*
X571139D01*
Y708684D01*
X572686Y708888D01*
X575311Y709975D01*
X577565Y711704D01*
X579294Y713958D01*
X580381Y716583D01*
X580585Y718130D01*
D02*
G37*
G36*
X568599D02*
X559153D01*
X559357Y716583D01*
X560444Y713958D01*
X562174Y711704D01*
X564427Y709975D01*
X567052Y708888D01*
X568599Y708684D01*
Y718130D01*
D02*
G37*
G36*
X627085D02*
X617639D01*
Y708684D01*
X619186Y708888D01*
X621810Y709975D01*
X624064Y711704D01*
X625794Y713958D01*
X626881Y716583D01*
X627085Y718130D01*
D02*
G37*
G36*
X615099D02*
X605653D01*
X605857Y716583D01*
X606944Y713958D01*
X608674Y711704D01*
X610927Y709975D01*
X613552Y708888D01*
X615099Y708684D01*
Y718130D01*
D02*
G37*
G36*
X330099D02*
X320653D01*
X320857Y716583D01*
X321944Y713958D01*
X323674Y711704D01*
X325927Y709975D01*
X328552Y708888D01*
X330099Y708684D01*
Y718130D01*
D02*
G37*
G36*
X862030Y602090D02*
X851760D01*
Y591820D01*
X862030D01*
Y602090D01*
D02*
G37*
G36*
X874840D02*
X864570D01*
Y591820D01*
X874840D01*
Y602090D01*
D02*
G37*
G36*
X620000Y655102D02*
X618048Y654714D01*
X616393Y653607D01*
X615286Y651952D01*
X614898Y650000D01*
X615286Y648048D01*
X616393Y646393D01*
X618048Y645286D01*
X620000Y644898D01*
X621952Y645286D01*
X623607Y646393D01*
X624714Y648048D01*
X625102Y650000D01*
X624714Y651952D01*
X623607Y653607D01*
X621952Y654714D01*
X620000Y655102D01*
D02*
G37*
G36*
X874840Y576690D02*
X851760D01*
Y553610D01*
X874840D01*
Y576690D01*
D02*
G37*
G36*
X862030Y589280D02*
X851760D01*
Y579010D01*
X862030D01*
Y589280D01*
D02*
G37*
G36*
X874840D02*
X864570D01*
Y579010D01*
X874840D01*
Y589280D01*
D02*
G37*
G36*
X739782Y664911D02*
X737814Y664652D01*
X735980Y663892D01*
X734404Y662683D01*
X733196Y661108D01*
X732436Y659274D01*
X732177Y657306D01*
X732436Y655337D01*
X733196Y653503D01*
X734404Y651928D01*
X735980Y650720D01*
X737814Y649960D01*
X739782Y649701D01*
X741750Y649960D01*
X743585Y650720D01*
X745160Y651928D01*
X746368Y653503D01*
X747128Y655337D01*
X747387Y657306D01*
X747128Y659274D01*
X746368Y661108D01*
X745160Y662683D01*
X743585Y663892D01*
X741750Y664652D01*
X739782Y664911D01*
D02*
G37*
G36*
X199585Y718130D02*
X190139D01*
Y708684D01*
X191686Y708888D01*
X194311Y709975D01*
X196565Y711704D01*
X198294Y713958D01*
X199381Y716583D01*
X199585Y718130D01*
D02*
G37*
G36*
X283599D02*
X274153D01*
X274357Y716583D01*
X275444Y713958D01*
X277174Y711704D01*
X279427Y709975D01*
X282052Y708888D01*
X283599Y708684D01*
Y718130D01*
D02*
G37*
G36*
X295585D02*
X286139D01*
Y708684D01*
X287686Y708888D01*
X290311Y709975D01*
X292565Y711704D01*
X294294Y713958D01*
X295381Y716583D01*
X295585Y718130D01*
D02*
G37*
G36*
X200000Y660102D02*
X198048Y659714D01*
X196392Y658607D01*
X195287Y656952D01*
X194898Y655000D01*
X195287Y653048D01*
X196392Y651393D01*
X198048Y650286D01*
X200000Y649898D01*
X201952Y650286D01*
X203608Y651393D01*
X204713Y653048D01*
X205102Y655000D01*
X204713Y656952D01*
X203608Y658607D01*
X201952Y659714D01*
X200000Y660102D01*
D02*
G37*
G36*
X487000Y661102D02*
X485048Y660714D01*
X483392Y659607D01*
X482286Y657952D01*
X481898Y656000D01*
X482286Y654048D01*
X483392Y652393D01*
X485048Y651286D01*
X487000Y650898D01*
X488952Y651286D01*
X490607Y652393D01*
X491713Y654048D01*
X492102Y656000D01*
X491713Y657952D01*
X490607Y659607D01*
X488952Y660714D01*
X487000Y661102D01*
D02*
G37*
G36*
X187599Y718130D02*
X178153D01*
X178357Y716583D01*
X179444Y713958D01*
X181173Y711704D01*
X183427Y709975D01*
X186052Y708888D01*
X187599Y708684D01*
Y718130D01*
D02*
G37*
G36*
X655869Y718990D02*
X653917Y718602D01*
X652262Y717495D01*
X651155Y715840D01*
X650767Y713888D01*
X651155Y711936D01*
X652262Y710281D01*
X653917Y709174D01*
X655869Y708786D01*
X657821Y709174D01*
X659477Y710281D01*
X660583Y711936D01*
X660971Y713888D01*
X660583Y715840D01*
X659477Y717495D01*
X657821Y718602D01*
X655869Y718990D01*
D02*
G37*
G36*
X748902Y766209D02*
X746934Y765950D01*
X745099Y765190D01*
X743524Y763982D01*
X742316Y762407D01*
X741556Y760572D01*
X741297Y758604D01*
X741556Y756636D01*
X742316Y754801D01*
X743524Y753226D01*
X745099Y752018D01*
X746934Y751258D01*
X748902Y750999D01*
X750870Y751258D01*
X752704Y752018D01*
X754280Y753226D01*
X755488Y754801D01*
X756248Y756636D01*
X756507Y758604D01*
X756248Y760572D01*
X755488Y762407D01*
X754280Y763982D01*
X752704Y765190D01*
X750870Y765950D01*
X748902Y766209D01*
D02*
G37*
G36*
X464322Y765623D02*
X462354Y765364D01*
X460519Y764604D01*
X458944Y763396D01*
X457736Y761821D01*
X456976Y759986D01*
X456717Y758018D01*
X456976Y756050D01*
X457736Y754215D01*
X458944Y752640D01*
X460519Y751432D01*
X462354Y750672D01*
X464322Y750413D01*
X466290Y750672D01*
X468125Y751432D01*
X469700Y752640D01*
X470908Y754215D01*
X471668Y756050D01*
X471927Y758018D01*
X471668Y759986D01*
X470908Y761821D01*
X469700Y763396D01*
X468125Y764604D01*
X466290Y765364D01*
X464322Y765623D01*
D02*
G37*
G36*
X254869Y781252D02*
X252917Y780863D01*
X251262Y779758D01*
X250476D01*
X248821Y780863D01*
X246869Y781252D01*
X244917Y780863D01*
X243262Y779758D01*
X242155Y778102D01*
X241767Y776150D01*
X242155Y774198D01*
X242247Y774060D01*
X241649Y772940D01*
X236089D01*
X235491Y774060D01*
X235583Y774198D01*
X235971Y776150D01*
X235583Y778102D01*
X234477Y779758D01*
X232821Y780863D01*
X230869Y781252D01*
X228917Y780863D01*
X227262Y779758D01*
X226155Y778102D01*
X225767Y776150D01*
X226155Y774198D01*
X226248Y774060D01*
X225649Y772940D01*
X220089D01*
X219491Y774060D01*
X219583Y774198D01*
X219971Y776150D01*
X219583Y778102D01*
X218477Y779758D01*
X216821Y780863D01*
X214869Y781252D01*
X212917Y780863D01*
X211262Y779758D01*
X210156Y778102D01*
X209767Y776150D01*
X210156Y774198D01*
X210247Y774060D01*
X209649Y772940D01*
X204089D01*
X203491Y774060D01*
X203582Y774198D01*
X203971Y776150D01*
X203582Y778102D01*
X202477Y779758D01*
X200821Y780863D01*
X198869Y781252D01*
X196917Y780863D01*
X195261Y779758D01*
X194156Y778102D01*
X193767Y776150D01*
X194156Y774198D01*
X194348Y773910D01*
X193829Y772940D01*
X193829D01*
X193829Y772940D01*
Y747860D01*
X201649D01*
X202247Y746740D01*
X202155Y746602D01*
X201767Y744650D01*
X202155Y742698D01*
X203262Y741042D01*
X204917Y739937D01*
X206869Y739548D01*
X208821Y739937D01*
X210476Y741042D01*
X211583Y742698D01*
X211971Y744650D01*
X211583Y746602D01*
X211491Y746740D01*
X212089Y747860D01*
X217649D01*
X218247Y746740D01*
X218155Y746602D01*
X217767Y744650D01*
X218155Y742698D01*
X219261Y741042D01*
X220917Y739937D01*
X222869Y739548D01*
X224821Y739937D01*
X226476Y741042D01*
X227582Y742698D01*
X227971Y744650D01*
X227582Y746602D01*
X227491Y746740D01*
X228089Y747860D01*
X233649D01*
X234247Y746740D01*
X234156Y746602D01*
X233767Y744650D01*
X234156Y742698D01*
X235261Y741042D01*
X236917Y739937D01*
X238869Y739548D01*
X240821Y739937D01*
X242477Y741042D01*
X243582Y742698D01*
X243971Y744650D01*
X243582Y746602D01*
X243491Y746740D01*
X244089Y747860D01*
X257649D01*
X258247Y746740D01*
X258155Y746602D01*
X257767Y744650D01*
X258155Y742698D01*
X259261Y741042D01*
X260917Y739937D01*
X262869Y739548D01*
X264821Y739937D01*
X266476Y741042D01*
X267582Y742698D01*
X267971Y744650D01*
X267582Y746602D01*
X267491Y746740D01*
X268089Y747860D01*
X275909D01*
Y751258D01*
X277048Y751820D01*
X277330Y751604D01*
X279164Y750844D01*
X281132Y750585D01*
X283100Y750844D01*
X284935Y751604D01*
X286510Y752812D01*
X287718Y754388D01*
X288478Y756222D01*
X288737Y758190D01*
X288478Y760158D01*
X287718Y761992D01*
X286510Y763568D01*
X284935Y764776D01*
X283100Y765536D01*
X281132Y765795D01*
X279164Y765536D01*
X277330Y764776D01*
X277048Y764560D01*
X275909Y765122D01*
Y772940D01*
X275909Y772940D01*
X275909D01*
X275390Y773910D01*
X275583Y774198D01*
X275971Y776150D01*
X275583Y778102D01*
X274477Y779758D01*
X272821Y780863D01*
X270869Y781252D01*
X268917Y780863D01*
X267262Y779758D01*
X266155Y778102D01*
X265767Y776150D01*
X266155Y774198D01*
X266247Y774060D01*
X265649Y772940D01*
X260089D01*
X259491Y774060D01*
X259583Y774198D01*
X259971Y776150D01*
X259583Y778102D01*
X258477Y779758D01*
X256821Y780863D01*
X254869Y781252D01*
D02*
G37*
G36*
X589000Y793105D02*
X587032Y792846D01*
X585197Y792086D01*
X583622Y790878D01*
X582414Y789303D01*
X581654Y787468D01*
X581395Y785500D01*
X581654Y783532D01*
X582414Y781697D01*
X583622Y780122D01*
X585197Y778914D01*
X587032Y778154D01*
X589000Y777895D01*
X590968Y778154D01*
X592803Y778914D01*
X594378Y780122D01*
X595586Y781697D01*
X596346Y783532D01*
X596605Y785500D01*
X596346Y787468D01*
X595586Y789303D01*
X594378Y790878D01*
X592803Y792086D01*
X590968Y792846D01*
X589000Y793105D01*
D02*
G37*
G36*
X249500Y742605D02*
X247532Y742346D01*
X245697Y741586D01*
X244122Y740378D01*
X242914Y738802D01*
X242154Y736968D01*
X241895Y735000D01*
X242154Y733032D01*
X242914Y731197D01*
X244122Y729622D01*
X245697Y728414D01*
X247532Y727654D01*
X249500Y727395D01*
X251468Y727654D01*
X253302Y728414D01*
X254878Y729622D01*
X256086Y731197D01*
X256846Y733032D01*
X257105Y735000D01*
X256846Y736968D01*
X256086Y738802D01*
X254878Y740378D01*
X253302Y741586D01*
X251468Y742346D01*
X249500Y742605D01*
D02*
G37*
G36*
X392318Y742245D02*
X390350Y741986D01*
X388516Y741226D01*
X386940Y740017D01*
X385732Y738443D01*
X384972Y736608D01*
X384713Y734640D01*
X384972Y732672D01*
X385732Y730837D01*
X386940Y729262D01*
X388516Y728054D01*
X390350Y727294D01*
X392318Y727035D01*
X394286Y727294D01*
X396120Y728054D01*
X397696Y729262D01*
X398904Y730837D01*
X399664Y732672D01*
X399923Y734640D01*
X399664Y736608D01*
X398904Y738443D01*
X397696Y740017D01*
X396120Y741226D01*
X394286Y741986D01*
X392318Y742245D01*
D02*
G37*
G36*
X322072Y765033D02*
X320104Y764774D01*
X318270Y764014D01*
X316694Y762806D01*
X315486Y761230D01*
X314726Y759396D01*
X314467Y757428D01*
X314726Y755460D01*
X315486Y753625D01*
X316694Y752050D01*
X318270Y750842D01*
X320104Y750082D01*
X322072Y749823D01*
X324040Y750082D01*
X325874Y750842D01*
X327450Y752050D01*
X328658Y753625D01*
X329418Y755460D01*
X329677Y757428D01*
X329418Y759396D01*
X328658Y761230D01*
X327450Y762806D01*
X325874Y764014D01*
X324040Y764774D01*
X322072Y765033D01*
D02*
G37*
G36*
X678500Y743605D02*
X676532Y743346D01*
X674697Y742586D01*
X673122Y741378D01*
X671914Y739802D01*
X671154Y737968D01*
X670895Y736000D01*
X671154Y734032D01*
X671914Y732197D01*
X673122Y730622D01*
X674697Y729414D01*
X676532Y728654D01*
X678500Y728395D01*
X680468Y728654D01*
X682302Y729414D01*
X683878Y730622D01*
X685086Y732197D01*
X685846Y734032D01*
X686105Y736000D01*
X685846Y737968D01*
X685086Y739802D01*
X683878Y741378D01*
X682302Y742586D01*
X680468Y743346D01*
X678500Y743605D01*
D02*
G37*
G36*
X689609Y803079D02*
X687656Y802691D01*
X686001Y801585D01*
X684895Y799930D01*
X684507Y797977D01*
X684895Y796025D01*
X686001Y794370D01*
X687656Y793264D01*
X689609Y792875D01*
X691561Y793264D01*
X693216Y794370D01*
X694322Y796025D01*
X694711Y797977D01*
X694322Y799930D01*
X693216Y801585D01*
X691561Y802691D01*
X689609Y803079D01*
D02*
G37*
G36*
X405223D02*
X403270Y802691D01*
X401615Y801585D01*
X400509Y799930D01*
X400121Y797977D01*
X400509Y796025D01*
X401615Y794370D01*
X403270Y793264D01*
X405223Y792875D01*
X407175Y793264D01*
X408830Y794370D01*
X409936Y796025D01*
X410325Y797977D01*
X409936Y799930D01*
X408830Y801585D01*
X407175Y802691D01*
X405223Y803079D01*
D02*
G37*
G36*
X547223Y804079D02*
X545270Y803691D01*
X543615Y802585D01*
X542509Y800930D01*
X542121Y798977D01*
X542509Y797025D01*
X543615Y795370D01*
X545270Y794264D01*
X547223Y793875D01*
X549175Y794264D01*
X550830Y795370D01*
X551936Y797025D01*
X552325Y798977D01*
X551936Y800930D01*
X550830Y802585D01*
X549175Y803691D01*
X547223Y804079D01*
D02*
G37*
G36*
X563000Y808105D02*
X561032Y807846D01*
X559197Y807086D01*
X557622Y805878D01*
X556414Y804303D01*
X555654Y802468D01*
X555395Y800500D01*
X555654Y798532D01*
X556414Y796697D01*
X557622Y795122D01*
X559197Y793914D01*
X561032Y793154D01*
X563000Y792895D01*
X564968Y793154D01*
X566802Y793914D01*
X568378Y795122D01*
X569586Y796697D01*
X570346Y798532D01*
X570605Y800500D01*
X570346Y802468D01*
X569586Y804303D01*
X568378Y805878D01*
X566802Y807086D01*
X564968Y807846D01*
X563000Y808105D01*
D02*
G37*
G36*
X539869Y781252D02*
X537917Y780863D01*
X536261Y779758D01*
X535476D01*
X533821Y780863D01*
X531869Y781252D01*
X529917Y780863D01*
X528261Y779758D01*
X527155Y778102D01*
X526767Y776150D01*
X527155Y774198D01*
X527247Y774060D01*
X526649Y772940D01*
X521089D01*
X520491Y774060D01*
X520583Y774198D01*
X520971Y776150D01*
X520583Y778102D01*
X519477Y779758D01*
X517821Y780863D01*
X515869Y781252D01*
X513917Y780863D01*
X512262Y779758D01*
X511156Y778102D01*
X510767Y776150D01*
X511156Y774198D01*
X511247Y774060D01*
X510649Y772940D01*
X505089D01*
X504491Y774060D01*
X504582Y774198D01*
X504971Y776150D01*
X504582Y778102D01*
X503476Y779758D01*
X501821Y780863D01*
X499869Y781252D01*
X497917Y780863D01*
X496261Y779758D01*
X495155Y778102D01*
X494767Y776150D01*
X495155Y774198D01*
X495247Y774060D01*
X494649Y772940D01*
X489089D01*
X488490Y774060D01*
X488582Y774198D01*
X488971Y776150D01*
X488582Y778102D01*
X487477Y779758D01*
X485821Y780863D01*
X483869Y781252D01*
X481917Y780863D01*
X480261Y779758D01*
X479156Y778102D01*
X478767Y776150D01*
X479156Y774198D01*
X479348Y773910D01*
X478829Y772940D01*
X478829D01*
X478829Y772940D01*
Y747860D01*
X486649D01*
X487247Y746740D01*
X487155Y746602D01*
X486767Y744650D01*
X487155Y742698D01*
X488261Y741042D01*
X489917Y739937D01*
X491869Y739548D01*
X493821Y739937D01*
X495476Y741042D01*
X496582Y742698D01*
X496971Y744650D01*
X496582Y746602D01*
X496491Y746740D01*
X497089Y747860D01*
X502649D01*
X503247Y746740D01*
X503156Y746602D01*
X502767Y744650D01*
X503156Y742698D01*
X504262Y741042D01*
X505917Y739937D01*
X507869Y739548D01*
X509821Y739937D01*
X511477Y741042D01*
X512583Y742698D01*
X512971Y744650D01*
X512583Y746602D01*
X512491Y746740D01*
X513089Y747860D01*
X518649D01*
X519247Y746740D01*
X519156Y746602D01*
X518767Y744650D01*
X519156Y742698D01*
X520261Y741042D01*
X521917Y739937D01*
X523869Y739548D01*
X525821Y739937D01*
X527279Y740910D01*
X528147Y739983D01*
X527732Y739443D01*
X526972Y737608D01*
X526713Y735640D01*
X526972Y733672D01*
X527732Y731837D01*
X528940Y730262D01*
X530516Y729054D01*
X532350Y728294D01*
X534318Y728035D01*
X536286Y728294D01*
X538120Y729054D01*
X539696Y730262D01*
X540904Y731837D01*
X541664Y733672D01*
X541923Y735640D01*
X541664Y737608D01*
X540904Y739443D01*
X539696Y741018D01*
X538120Y742226D01*
X536286Y742986D01*
X534318Y743245D01*
X532350Y742986D01*
X530516Y742226D01*
X528995Y741059D01*
X528068Y741927D01*
X528582Y742698D01*
X528971Y744650D01*
X528582Y746602D01*
X528490Y746740D01*
X529089Y747860D01*
X542649D01*
X543247Y746740D01*
X543156Y746602D01*
X542767Y744650D01*
X543156Y742698D01*
X544261Y741042D01*
X545917Y739937D01*
X547869Y739548D01*
X549821Y739937D01*
X551477Y741042D01*
X552583Y742698D01*
X552971Y744650D01*
X552583Y746602D01*
X552491Y746740D01*
X553089Y747860D01*
X560909D01*
Y772940D01*
X560909Y772940D01*
X560909D01*
X560390Y773910D01*
X560583Y774198D01*
X560971Y776150D01*
X560583Y778102D01*
X559477Y779758D01*
X557821Y780863D01*
X555869Y781252D01*
X553917Y780863D01*
X552262Y779758D01*
X551156Y778102D01*
X550767Y776150D01*
X551156Y774198D01*
X551247Y774060D01*
X550649Y772940D01*
X545089D01*
X544491Y774060D01*
X544582Y774198D01*
X544971Y776150D01*
X544582Y778102D01*
X543476Y779758D01*
X541821Y780863D01*
X539869Y781252D01*
D02*
G37*
G36*
X397369D02*
X395417Y780863D01*
X393761Y779758D01*
X392976D01*
X391321Y780863D01*
X389369Y781252D01*
X387417Y780863D01*
X385761Y779758D01*
X384655Y778102D01*
X384267Y776150D01*
X384655Y774198D01*
X384747Y774060D01*
X384149Y772940D01*
X378589D01*
X377991Y774060D01*
X378083Y774198D01*
X378471Y776150D01*
X378083Y778102D01*
X376977Y779758D01*
X375321Y780863D01*
X373369Y781252D01*
X371417Y780863D01*
X369762Y779758D01*
X368656Y778102D01*
X368267Y776150D01*
X368656Y774198D01*
X368747Y774060D01*
X368149Y772940D01*
X362589D01*
X361991Y774060D01*
X362082Y774198D01*
X362471Y776150D01*
X362082Y778102D01*
X360976Y779758D01*
X359321Y780863D01*
X357369Y781252D01*
X355417Y780863D01*
X353761Y779758D01*
X352655Y778102D01*
X352267Y776150D01*
X352655Y774198D01*
X352747Y774060D01*
X352149Y772940D01*
X346589D01*
X345990Y774060D01*
X346082Y774198D01*
X346471Y776150D01*
X346082Y778102D01*
X344977Y779758D01*
X343321Y780863D01*
X341369Y781252D01*
X339417Y780863D01*
X337761Y779758D01*
X336656Y778102D01*
X336267Y776150D01*
X336656Y774198D01*
X336848Y773910D01*
X336329Y772940D01*
X336329D01*
X336329Y772940D01*
Y747860D01*
X344149D01*
X344747Y746740D01*
X344655Y746602D01*
X344267Y744650D01*
X344655Y742698D01*
X345761Y741042D01*
X347417Y739937D01*
X349369Y739548D01*
X351321Y739937D01*
X352976Y741042D01*
X354082Y742698D01*
X354471Y744650D01*
X354082Y746602D01*
X353991Y746740D01*
X354589Y747860D01*
X360149D01*
X360747Y746740D01*
X360656Y746602D01*
X360267Y744650D01*
X360656Y742698D01*
X361762Y741042D01*
X363417Y739937D01*
X365369Y739548D01*
X367321Y739937D01*
X368977Y741042D01*
X370083Y742698D01*
X370471Y744650D01*
X370083Y746602D01*
X369991Y746740D01*
X370589Y747860D01*
X376149D01*
X376747Y746740D01*
X376656Y746602D01*
X376267Y744650D01*
X376656Y742698D01*
X377761Y741042D01*
X379417Y739937D01*
X381369Y739548D01*
X383321Y739937D01*
X384977Y741042D01*
X386082Y742698D01*
X386471Y744650D01*
X386082Y746602D01*
X385990Y746740D01*
X386589Y747860D01*
X400149D01*
X400747Y746740D01*
X400656Y746602D01*
X400267Y744650D01*
X400656Y742698D01*
X401762Y741042D01*
X403417Y739937D01*
X405369Y739548D01*
X407321Y739937D01*
X408977Y741042D01*
X410083Y742698D01*
X410471Y744650D01*
X410083Y746602D01*
X409991Y746740D01*
X410589Y747860D01*
X418409D01*
Y750390D01*
X419465Y751096D01*
X420532Y750654D01*
X422500Y750395D01*
X424468Y750654D01*
X426303Y751414D01*
X427878Y752622D01*
X429086Y754197D01*
X429846Y756032D01*
X430105Y758000D01*
X429846Y759968D01*
X429086Y761803D01*
X427878Y763378D01*
X426303Y764586D01*
X424468Y765346D01*
X422500Y765605D01*
X420532Y765346D01*
X419465Y764904D01*
X418409Y765610D01*
Y772940D01*
X418409Y772940D01*
X418409D01*
X417890Y773910D01*
X418083Y774198D01*
X418471Y776150D01*
X418083Y778102D01*
X416977Y779758D01*
X415321Y780863D01*
X413369Y781252D01*
X411417Y780863D01*
X409762Y779758D01*
X408656Y778102D01*
X408267Y776150D01*
X408656Y774198D01*
X408747Y774060D01*
X408149Y772940D01*
X402589D01*
X401991Y774060D01*
X402082Y774198D01*
X402471Y776150D01*
X402082Y778102D01*
X400976Y779758D01*
X399321Y780863D01*
X397369Y781252D01*
D02*
G37*
G36*
X262223Y802079D02*
X260270Y801691D01*
X258615Y800585D01*
X257509Y798930D01*
X257121Y796977D01*
X257509Y795025D01*
X258615Y793370D01*
X260270Y792264D01*
X262223Y791875D01*
X264175Y792264D01*
X265830Y793370D01*
X266936Y795025D01*
X267325Y796977D01*
X266936Y798930D01*
X265830Y800585D01*
X264175Y801691D01*
X262223Y802079D01*
D02*
G37*
G36*
X682369Y781252D02*
X680417Y780863D01*
X678762Y779758D01*
X677977D01*
X676321Y780863D01*
X674369Y781252D01*
X672417Y780863D01*
X670761Y779758D01*
X669656Y778102D01*
X669267Y776150D01*
X669656Y774198D01*
X669747Y774060D01*
X669149Y772940D01*
X663589D01*
X662990Y774060D01*
X663083Y774198D01*
X663471Y776150D01*
X663083Y778102D01*
X661976Y779758D01*
X660321Y780863D01*
X658369Y781252D01*
X656417Y780863D01*
X654762Y779758D01*
X653655Y778102D01*
X653267Y776150D01*
X653655Y774198D01*
X653747Y774060D01*
X653149Y772940D01*
X647589D01*
X646991Y774060D01*
X647083Y774198D01*
X647471Y776150D01*
X647083Y778102D01*
X645976Y779758D01*
X644321Y780863D01*
X642369Y781252D01*
X640417Y780863D01*
X638761Y779758D01*
X637655Y778102D01*
X637267Y776150D01*
X637655Y774198D01*
X637747Y774060D01*
X637149Y772940D01*
X631589D01*
X630990Y774060D01*
X631082Y774198D01*
X631471Y776150D01*
X631082Y778102D01*
X629977Y779758D01*
X628321Y780863D01*
X626369Y781252D01*
X624417Y780863D01*
X622761Y779758D01*
X621656Y778102D01*
X621267Y776150D01*
X621656Y774198D01*
X621847Y773910D01*
X621329Y772940D01*
X621329D01*
X621329Y772940D01*
Y747860D01*
X629149D01*
X629747Y746740D01*
X629655Y746602D01*
X629267Y744650D01*
X629655Y742698D01*
X630761Y741042D01*
X632417Y739937D01*
X634369Y739548D01*
X636321Y739937D01*
X637976Y741042D01*
X639082Y742698D01*
X639471Y744650D01*
X639082Y746602D01*
X638991Y746740D01*
X639589Y747860D01*
X645149D01*
X645747Y746740D01*
X645656Y746602D01*
X645267Y744650D01*
X645656Y742698D01*
X646761Y741042D01*
X648417Y739937D01*
X650369Y739548D01*
X652321Y739937D01*
X653977Y741042D01*
X655082Y742698D01*
X655471Y744650D01*
X655082Y746602D01*
X654990Y746740D01*
X655589Y747860D01*
X661149D01*
X661747Y746740D01*
X661656Y746602D01*
X661267Y744650D01*
X661656Y742698D01*
X662761Y741042D01*
X664417Y739937D01*
X666369Y739548D01*
X668321Y739937D01*
X669977Y741042D01*
X671083Y742698D01*
X671471Y744650D01*
X671083Y746602D01*
X670991Y746740D01*
X671589Y747860D01*
X685149D01*
X685747Y746740D01*
X685656Y746602D01*
X685267Y744650D01*
X685656Y742698D01*
X686761Y741042D01*
X688417Y739937D01*
X690369Y739548D01*
X692321Y739937D01*
X693977Y741042D01*
X695082Y742698D01*
X695471Y744650D01*
X695082Y746602D01*
X694991Y746740D01*
X695589Y747860D01*
X703409D01*
Y750802D01*
X704465Y751508D01*
X705112Y751240D01*
X707080Y750981D01*
X709048Y751240D01*
X710883Y752000D01*
X712458Y753208D01*
X713666Y754783D01*
X714426Y756618D01*
X714685Y758586D01*
X714426Y760554D01*
X713666Y762389D01*
X712458Y763964D01*
X710883Y765172D01*
X709048Y765932D01*
X707080Y766191D01*
X705112Y765932D01*
X704465Y765664D01*
X703409Y766370D01*
Y772940D01*
X703409Y772940D01*
X703409D01*
X702890Y773910D01*
X703083Y774198D01*
X703471Y776150D01*
X703083Y778102D01*
X701976Y779758D01*
X700321Y780863D01*
X698369Y781252D01*
X696417Y780863D01*
X694762Y779758D01*
X693655Y778102D01*
X693267Y776150D01*
X693655Y774198D01*
X693747Y774060D01*
X693149Y772940D01*
X687589D01*
X686991Y774060D01*
X687083Y774198D01*
X687471Y776150D01*
X687083Y778102D01*
X685976Y779758D01*
X684321Y780863D01*
X682369Y781252D01*
D02*
G37*
G36*
X713639Y730116D02*
Y720670D01*
X723085D01*
X722881Y722217D01*
X721794Y724842D01*
X720064Y727095D01*
X717811Y728825D01*
X715186Y729912D01*
X713639Y730116D01*
D02*
G37*
G36*
X330099D02*
X328552Y729912D01*
X325927Y728825D01*
X323674Y727095D01*
X321944Y724842D01*
X320857Y722217D01*
X320653Y720670D01*
X330099D01*
Y730116D01*
D02*
G37*
G36*
X286139D02*
Y720670D01*
X295585D01*
X295381Y722217D01*
X294294Y724842D01*
X292565Y727095D01*
X290311Y728825D01*
X287686Y729912D01*
X286139Y730116D01*
D02*
G37*
G36*
X426099D02*
X424552Y729912D01*
X421927Y728825D01*
X419674Y727095D01*
X417944Y724842D01*
X416857Y722217D01*
X416653Y720670D01*
X426099D01*
Y730116D01*
D02*
G37*
G36*
X332639D02*
Y720670D01*
X342085D01*
X341881Y722217D01*
X340794Y724842D01*
X339064Y727095D01*
X336811Y728825D01*
X334186Y729912D01*
X332639Y730116D01*
D02*
G37*
G36*
X187599D02*
X186052Y729912D01*
X183427Y728825D01*
X181173Y727095D01*
X179444Y724842D01*
X178357Y722217D01*
X178153Y720670D01*
X187599D01*
Y730116D01*
D02*
G37*
G36*
X371869Y719990D02*
X369917Y719602D01*
X368261Y718495D01*
X367156Y716840D01*
X366767Y714888D01*
X367156Y712936D01*
X368261Y711281D01*
X369917Y710174D01*
X371869Y709786D01*
X373821Y710174D01*
X375477Y711281D01*
X376582Y712936D01*
X376971Y714888D01*
X376582Y716840D01*
X375477Y718495D01*
X373821Y719602D01*
X371869Y719990D01*
D02*
G37*
G36*
X283599Y730116D02*
X282052Y729912D01*
X279427Y728825D01*
X277174Y727095D01*
X275444Y724842D01*
X274357Y722217D01*
X274153Y720670D01*
X283599D01*
Y730116D01*
D02*
G37*
G36*
X190139D02*
Y720670D01*
X199585D01*
X199381Y722217D01*
X198294Y724842D01*
X196565Y727095D01*
X194311Y728825D01*
X191686Y729912D01*
X190139Y730116D01*
D02*
G37*
G36*
X615099D02*
X613552Y729912D01*
X610927Y728825D01*
X608674Y727095D01*
X606944Y724842D01*
X605857Y722217D01*
X605653Y720670D01*
X615099D01*
Y730116D01*
D02*
G37*
G36*
X571139D02*
Y720670D01*
X580585D01*
X580381Y722217D01*
X579294Y724842D01*
X577565Y727095D01*
X575311Y728825D01*
X572686Y729912D01*
X571139Y730116D01*
D02*
G37*
G36*
X711099D02*
X709552Y729912D01*
X706927Y728825D01*
X704673Y727095D01*
X702944Y724842D01*
X701857Y722217D01*
X701653Y720670D01*
X711099D01*
Y730116D01*
D02*
G37*
G36*
X617639D02*
Y720670D01*
X627085D01*
X626881Y722217D01*
X625794Y724842D01*
X624064Y727095D01*
X621810Y728825D01*
X619186Y729912D01*
X617639Y730116D01*
D02*
G37*
G36*
X472599D02*
X471052Y729912D01*
X468427Y728825D01*
X466174Y727095D01*
X464444Y724842D01*
X463357Y722217D01*
X463153Y720670D01*
X472599D01*
Y730116D01*
D02*
G37*
G36*
X428639D02*
Y720670D01*
X438085D01*
X437881Y722217D01*
X436794Y724842D01*
X435065Y727095D01*
X432811Y728825D01*
X430186Y729912D01*
X428639Y730116D01*
D02*
G37*
G36*
X568599D02*
X567052Y729912D01*
X564427Y728825D01*
X562174Y727095D01*
X560444Y724842D01*
X559357Y722217D01*
X559153Y720670D01*
X568599D01*
Y730116D01*
D02*
G37*
G36*
X475139D02*
Y720670D01*
X484585D01*
X484381Y722217D01*
X483294Y724842D01*
X481564Y727095D01*
X479310Y728825D01*
X476686Y729912D01*
X475139Y730116D01*
D02*
G37*
%LPD*%
D10*
X663129Y633926D02*
G03*
X669056Y633926I2964J2964D01*
G01*
X662199Y634856D02*
G03*
X656273Y634856I-2964J-2964D01*
G01*
D02*
G03*
X656273Y628929I2964J-2964D01*
G01*
X657203Y622072D02*
G03*
X657203Y627999I-2964J2964D01*
G01*
X630000Y610362D02*
G03*
X625809Y614553I-4191J0D01*
G01*
X621437Y618744D02*
G03*
X625628Y614553I4191J0D01*
G01*
Y622935D02*
G03*
X621437Y618744I0J-4191D01*
G01*
X625809Y622935D02*
G03*
X630000Y627126I0J4191D01*
G01*
X646369Y678400D02*
G03*
X644906Y674868I3532J-3532D01*
G01*
X639826Y674882D02*
G03*
X638369Y678400I-4975J0D01*
G01*
X639872Y647893D02*
G03*
X644906Y660047I-12153J12153D01*
G01*
X639872Y647893D02*
G03*
X635373Y637032I10861J-10861D01*
G01*
X634746Y650776D02*
G03*
X630000Y639318I11458J-11458D01*
G01*
X634746Y650776D02*
G03*
X639826Y663040I-12264J12264D01*
G01*
X560000Y636524D02*
G03*
X564191Y632333I4191J0D01*
G01*
X568382Y628142D02*
G03*
X564191Y632333I-4191J0D01*
G01*
Y623951D02*
G03*
X568382Y628142I0J4191D01*
G01*
X564191Y623951D02*
G03*
X560000Y619760I0J-4191D01*
G01*
X554627Y646647D02*
G03*
X550926Y655582I-12636J0D01*
G01*
X545338Y669073D02*
G03*
X550926Y655582I19079J0D01*
G01*
X560000Y647043D02*
G03*
X554990Y659138I-17105J0D01*
G01*
X550418Y670176D02*
G03*
X554990Y659138I15610J0D01*
G01*
X526717Y634080D02*
G03*
X526717Y628153I2964J-2964D01*
G01*
X527647Y635009D02*
G03*
X527647Y640936I-2964J2964D01*
G01*
D02*
G03*
X521720Y640936I-2964J-2964D01*
G01*
X514864Y640006D02*
G03*
X520790Y640006I2964J2964D01*
G01*
X382355Y644314D02*
G03*
X388282Y644314I2964J2964D01*
G01*
X381227Y645442D02*
G03*
X375300Y645442I-2964J-2964D01*
G01*
D02*
G03*
X375300Y639515I2964J-2964D01*
G01*
X376428Y632460D02*
G03*
X376428Y638387I-2964J2964D01*
G01*
X340000Y611632D02*
G03*
X336444Y615188I-3556J0D01*
G01*
X332665Y618744D02*
G03*
X336221Y615188I3556J0D01*
G01*
Y622300D02*
G03*
X332665Y618744I0J-3556D01*
G01*
X336444Y622300D02*
G03*
X340000Y625856I0J3556D01*
G01*
X352812Y651271D02*
G03*
X345373Y633310I17960J-17960D01*
G01*
X347833Y653912D02*
G03*
X340000Y635000I18912J-18912D01*
G01*
X353060Y651518D02*
G03*
X359918Y668075I-16557J16557D01*
G01*
X347833Y653912D02*
G03*
X354838Y670822I-16911J16911D01*
G01*
X274191Y635889D02*
G03*
X270000Y631698I0J-4191D01*
G01*
X274191Y635889D02*
G03*
X278382Y640080I0J4191D01*
G01*
D02*
G03*
X274191Y644271I-4191J0D01*
G01*
X270000Y648462D02*
G03*
X274191Y644271I4191J0D01*
G01*
X239627Y631170D02*
G03*
X239627Y625243I2964J-2964D01*
G01*
X240634Y632176D02*
G03*
X240634Y638103I-2964J2964D01*
G01*
D02*
G03*
X234707Y638103I-2964J-2964D01*
G01*
X227773Y637096D02*
G03*
X233701Y637096I2964J2964D01*
G01*
X250000Y610332D02*
G03*
X246791Y618079I-10957J0D01*
G01*
X680393Y645263D02*
G03*
X687832Y663223I-17960J17960D01*
G01*
X685472Y642977D02*
G03*
X692912Y660937I-17960J17960D01*
G01*
X497332Y660693D02*
G03*
X504771Y642732I25400J0D01*
G01*
X502412Y662979D02*
G03*
X509851Y645018I25400J0D01*
G01*
X631311Y586077D02*
G03*
X635373Y595884I-9807J9807D01*
G01*
X554627D02*
G03*
X558689Y586077I13869J0D01*
G01*
X650000Y585000D02*
G03*
X655186Y597520I-12520J12520D01*
G01*
X660065Y617569D02*
G03*
X655186Y605790I11779J-11779D01*
G01*
X655523Y620392D02*
G03*
X650000Y607060I13333J-13333D01*
G01*
X534814Y597520D02*
G03*
X540000Y585000I17706J0D01*
G01*
X534814Y605790D02*
G03*
X529935Y617569I-16658J0D01*
G01*
X540000Y607060D02*
G03*
X534478Y620392I-18855J0D01*
G01*
X217424Y657967D02*
G03*
X224863Y640006I25400J0D01*
G01*
X212344Y655218D02*
G03*
X219456Y638048I24282J0D01*
G01*
X244814Y605790D02*
G03*
X239935Y617569I-16658J0D01*
G01*
X244814Y597520D02*
G03*
X250000Y585000I17706J0D01*
G01*
X260096Y659928D02*
G03*
X262636Y653796I8672J0D01*
G01*
X264627Y648989D02*
G03*
X262636Y653796I-6798J0D01*
G01*
X265430Y661434D02*
G03*
X266700Y658368I4336J0D01*
G01*
X270000Y650401D02*
G03*
X266700Y658368I-11267J0D01*
G01*
X264627Y595884D02*
G03*
X268689Y586077I13869J0D01*
G01*
X400532Y648944D02*
G03*
X407972Y666905I-17960J17960D01*
G01*
X395535Y651567D02*
G03*
X402792Y669088I-17521J17521D01*
G01*
X362752Y618784D02*
G03*
X360000Y612140I6644J-6644D01*
G01*
X367654Y616066D02*
G03*
X365186Y610108I5958J-5958D01*
G01*
X360000Y585000D02*
G03*
X365186Y597520I-12520J12520D01*
G01*
X341311Y586077D02*
G03*
X345373Y595884I-9807J9807D01*
G01*
X243840Y215972D02*
Y282840D01*
X178229Y150361D02*
X243840Y215972D01*
X248920Y213868D02*
Y280736D01*
X183359Y148307D02*
X248920Y213868D01*
X324612Y469612D02*
X330000Y475000D01*
X178229Y85242D02*
Y150361D01*
X329692Y361508D02*
Y464692D01*
X655523Y620392D02*
X657202Y622072D01*
X669056Y633926D02*
X675136Y640006D01*
X662199Y634856D02*
X663129Y633926D01*
X656273Y628929D02*
X657202Y627999D01*
X630000Y635508D02*
Y639318D01*
Y595000D02*
Y603758D01*
Y610362D01*
X625628Y614553D02*
X625809D01*
X625628Y622935D02*
X625809D01*
X630000Y627126D02*
Y631317D01*
Y635508D01*
X644906Y660047D02*
Y674868D01*
X639826Y663040D02*
Y674882D01*
X560000Y595000D02*
Y611378D01*
Y636524D02*
Y637286D01*
Y615569D02*
Y619760D01*
Y611378D02*
Y615569D01*
X554627Y635596D02*
Y646647D01*
X560000Y637286D02*
Y647043D01*
X530826Y624044D02*
X534478Y620392D01*
X526717Y628153D02*
X530826Y624044D01*
X526717Y634080D02*
X527647Y635009D01*
X520790Y640006D02*
X521720Y640936D01*
X393827Y649859D02*
X395535Y651567D01*
X388282Y644314D02*
X393827Y649859D01*
X381227Y645442D02*
X382355Y644314D01*
X375300Y639515D02*
X376428Y638387D01*
X340000Y632968D02*
Y635000D01*
Y595000D02*
Y606298D01*
Y611632D01*
X336221Y615188D02*
X336444D01*
X336221Y622300D02*
X336444D01*
X340000Y625856D02*
Y629412D01*
Y632968D01*
X352812Y651271D02*
X353060Y651518D01*
X270000Y648462D02*
Y650401D01*
Y622292D02*
Y631698D01*
X245110Y619760D02*
X246791Y618079D01*
X224863Y640006D02*
X227773Y637096D01*
X239627Y625243D02*
X245110Y619760D01*
X239627Y631170D02*
X240634Y632176D01*
X233701Y637096D02*
X234707Y638103D01*
X250000Y595000D02*
Y610332D01*
X270000Y595000D02*
Y622292D01*
X362752Y618784D02*
X376428Y632460D01*
X687832Y663223D02*
Y668782D01*
X675136Y640006D02*
X680393Y645263D01*
X692912Y660937D02*
Y669544D01*
X680544Y638048D02*
X685472Y642977D01*
X497332Y660693D02*
Y669798D01*
X504771Y642732D02*
X509456Y638048D01*
X502412Y662979D02*
Y669036D01*
X509851Y645018D02*
X514864Y640006D01*
X635373Y595884D02*
Y637032D01*
X554627Y595884D02*
Y636270D01*
X655186Y597520D02*
Y605790D01*
X650000Y595000D02*
Y607060D01*
X660065Y617569D02*
X680544Y638048D01*
X534814Y597520D02*
Y605790D01*
X540000Y595000D02*
Y607060D01*
X509456Y638048D02*
X529935Y617569D01*
X217424Y657967D02*
Y669036D01*
X212344Y667258D02*
Y670306D01*
Y655218D02*
Y667258D01*
X219456Y638048D02*
X239935Y617569D01*
X244814Y597520D02*
Y605790D01*
X260096Y659928D02*
Y669036D01*
X264627Y620602D02*
Y648989D01*
X265430Y666496D02*
Y669798D01*
Y661434D02*
Y666496D01*
X264627Y595884D02*
Y620602D01*
X340000Y585000D02*
X340003Y585003D01*
X341194Y586194D01*
X407972Y666905D02*
Y669798D01*
X394789Y643201D02*
X400532Y648944D01*
X367654Y616066D02*
X394789Y643201D01*
X365186Y597520D02*
Y598170D01*
Y597520D02*
Y610108D01*
X360000Y595000D02*
Y612140D01*
X345373Y595884D02*
Y632968D01*
X198446Y520446D02*
X244554D01*
X108712Y430712D02*
X198446Y520446D01*
X108712Y203973D02*
Y430712D01*
X200000Y515000D02*
X240000D01*
X113030Y428030D02*
X200000Y515000D01*
X113030Y202184D02*
Y428030D01*
X203778Y509778D02*
X245222D01*
X123952Y429952D02*
X203778Y509778D01*
X123952Y198385D02*
Y429952D01*
X207000Y505000D02*
X240000D01*
X128270Y426270D02*
X207000Y505000D01*
X128270Y196596D02*
Y426270D01*
X216634Y500634D02*
X244366D01*
X141986Y425986D02*
X216634Y500634D01*
X141986Y199401D02*
Y425986D01*
X217000Y495000D02*
X240000D01*
X146304Y424304D02*
X217000Y495000D01*
X146304Y197612D02*
Y424304D01*
X231706Y490000D02*
X245000D01*
X160274Y418568D02*
X231706Y490000D01*
X160274Y197623D02*
Y418568D01*
X233000Y485000D02*
X240000D01*
X164592Y416592D02*
X233000Y485000D01*
X164592Y195834D02*
Y416592D01*
X660000Y505000D02*
X665000Y500000D01*
X650000Y505000D02*
X655000Y500000D01*
X610000Y448000D02*
Y465000D01*
X556000Y394000D02*
X610000Y448000D01*
X556000Y350768D02*
Y394000D01*
X377669Y172437D02*
X556000Y350768D01*
X605000Y451000D02*
Y470000D01*
X551000Y397000D02*
X605000Y451000D01*
X551000Y351875D02*
Y397000D01*
X372539Y173413D02*
X551000Y351875D01*
X543000Y401765D02*
X600000Y458765D01*
X543000Y362903D02*
Y401765D01*
X358619Y178523D02*
X543000Y362903D01*
X600000Y458765D02*
Y465000D01*
X595000Y459872D02*
Y470000D01*
X538100Y402972D02*
X595000Y459872D01*
X538100Y364110D02*
Y402972D01*
X353489Y179499D02*
X538100Y364110D01*
X335000Y448082D02*
X348000Y435082D01*
Y353599D02*
Y435082D01*
X284734Y290333D02*
X348000Y353599D01*
X340000Y449189D02*
X352000Y437189D01*
Y351492D02*
Y437189D01*
X289052Y288544D02*
X352000Y351492D01*
X320000Y440000D02*
Y465000D01*
X215392Y335392D02*
X320000Y440000D01*
X215392Y200914D02*
Y335392D01*
X315000Y441266D02*
Y470000D01*
X211074Y337340D02*
X315000Y441266D01*
X211074Y202703D02*
Y337340D01*
X310000Y457066D02*
Y465000D01*
X187960Y335026D02*
X310000Y457066D01*
X187960Y188918D02*
Y335026D01*
X305000Y458670D02*
Y470000D01*
X183642Y337312D02*
X305000Y458670D01*
X183642Y191856D02*
Y337312D01*
X197279Y75844D02*
Y148013D01*
X284734Y235469D01*
X630000Y374476D02*
Y465000D01*
X415769Y160245D02*
X630000Y374476D01*
X415769Y75590D02*
Y160245D01*
X625000Y375583D02*
Y470000D01*
X410639Y161221D02*
X625000Y375583D01*
X410639Y75590D02*
Y161221D01*
X62709Y75844D02*
X64132Y74422D01*
X145259Y85496D02*
X146682Y84074D01*
X81759Y85242D02*
X83182Y83820D01*
X164309Y75844D02*
X165732Y74422D01*
X157756D02*
X159179Y75844D01*
X138706Y84074D02*
X140129Y85496D01*
X56156Y74422D02*
X57579Y75844D01*
X75206Y83820D02*
X76629Y85242D01*
X94256Y74422D02*
X95679Y75844D01*
X183359Y85242D02*
X184782Y83820D01*
X56156Y74422D02*
X57579D01*
X100809Y75844D02*
X102232Y74422D01*
X307616D02*
X309039D01*
X288566Y83820D02*
X289989Y85242D01*
X333219D02*
X334642Y83820D01*
X409216Y74168D02*
X410639Y75590D01*
X352066Y83566D02*
X353489D01*
X371116Y74168D02*
X372539D01*
X377669Y75590D02*
X379092Y74168D01*
X390166Y83820D02*
X391589Y85242D01*
X396719D02*
X398142Y83820D01*
X415769Y75590D02*
X417192Y74168D01*
X358619Y84988D02*
X360042Y83566D01*
X371116Y74168D02*
X372539Y75590D01*
X352066Y83566D02*
X353489Y84988D01*
X326666Y83820D02*
X328089Y85242D01*
Y142051D01*
X307616Y74422D02*
X309039Y75844D01*
X314169D02*
X315592Y74422D01*
X309039Y75844D02*
Y143979D01*
X295119Y85242D02*
X296542Y83820D01*
X289989Y85242D02*
Y145906D01*
X269516Y74422D02*
X270939Y75844D01*
X276069D02*
X277492Y74422D01*
X270939Y75844D02*
Y147834D01*
X195856Y74422D02*
X197279Y75844D01*
X176806Y83820D02*
X178229Y85242D01*
X202409Y75844D02*
X203832Y74422D01*
X113306Y84074D02*
X114729Y85496D01*
X119859D02*
X121282Y84074D01*
X285000Y470000D02*
X290000Y475000D01*
X275000Y470000D02*
X280000Y475000D01*
X360000Y505000D02*
X365000Y500000D01*
X360000Y495000D02*
X365000Y490000D01*
X285000Y460000D02*
X290000Y465000D01*
X275000Y460000D02*
X280000Y465000D01*
X370000Y505000D02*
X375000Y500000D01*
X255000Y470000D02*
X260000Y475000D01*
X360000Y485000D02*
X365000Y480000D01*
X265000Y460000D02*
X270000Y465000D01*
X370000Y495000D02*
X375000Y490000D01*
X360000Y475000D02*
X365000Y470000D01*
X370000Y485000D02*
X375000Y480000D01*
X370000Y475000D02*
X375000Y470000D01*
X575000D02*
X580000Y475000D01*
X565000Y470000D02*
X570000Y475000D01*
X650000Y495000D02*
X655000Y490000D01*
X555000Y470000D02*
X560000Y475000D01*
X575000Y460000D02*
X580000Y465000D01*
X565000Y460000D02*
X570000Y465000D01*
X650000Y485000D02*
X655000Y480000D01*
X545000Y470000D02*
X550000Y475000D01*
X555000Y460000D02*
X560000Y465000D01*
X660000Y495000D02*
X665000Y490000D01*
X650000Y475000D02*
X655000Y470000D01*
X545000Y460000D02*
X550000Y465000D01*
X660000Y485000D02*
X665000Y480000D01*
X660000Y475000D02*
X665000Y470000D01*
X265000D02*
X270000Y475000D01*
X255000Y460000D02*
X260000Y465000D01*
X62709Y75844D02*
Y151863D01*
X113030Y202184D01*
X57579Y75844D02*
Y152839D01*
X108712Y203973D01*
X81759Y85242D02*
Y150085D01*
X128270Y196596D01*
X76629Y85242D02*
Y151061D01*
X123952Y198385D01*
X100809Y75844D02*
Y152117D01*
X146304Y197612D01*
X95679Y75844D02*
Y153093D01*
X141986Y199401D01*
X119859Y85496D02*
Y151101D01*
X164592Y195834D01*
X114729Y85496D02*
Y152077D01*
X160274Y197623D01*
X145259Y85496D02*
Y146217D01*
X140129Y85496D02*
Y148342D01*
X145259Y146217D02*
X187960Y188918D01*
X140129Y148342D02*
X183642Y191856D01*
X164309Y75844D02*
Y149831D01*
X215392Y200914D01*
X159179Y75844D02*
Y150807D01*
X211074Y202703D01*
X183359Y85242D02*
Y148307D01*
X284734Y235469D02*
Y290333D01*
X202409Y75844D02*
Y147037D01*
X289052Y233680D01*
Y288544D01*
X270939Y147834D02*
X271751Y148647D01*
Y196578D01*
X431546Y458978D02*
X487568Y515000D01*
X427228Y460767D02*
X486151Y519689D01*
X276069Y75844D02*
Y194789D01*
X431546Y350266D01*
Y458978D01*
X271751Y196578D02*
X427228Y352055D01*
Y460767D01*
X289989Y145906D02*
X290801Y146719D01*
Y188704D01*
X295119Y85242D02*
Y186915D01*
X449326Y341122D01*
Y456184D01*
X290801Y188704D02*
X445008Y342911D01*
Y457973D01*
X309039Y143979D02*
X309851Y144791D01*
Y184894D01*
X314169Y75844D02*
Y183105D01*
X471932Y340868D01*
Y460502D01*
X309851Y184894D02*
X467614Y342657D01*
Y462291D01*
X328089Y142051D02*
X328901Y142863D01*
Y183116D01*
X333219Y85242D02*
Y181327D01*
X485902Y334010D01*
Y453644D01*
X328901Y183116D02*
X481584Y335799D01*
Y455433D01*
X358619Y84988D02*
Y178523D01*
X353489Y84988D02*
Y179499D01*
X372539Y75590D02*
Y173413D01*
X377669Y75590D02*
Y172437D01*
X391589Y85242D02*
Y166047D01*
X615000Y389459D01*
X396719Y85242D02*
Y165071D01*
X620000Y388352D01*
X244554Y520446D02*
X250000Y515000D01*
X245222Y509778D02*
X250000Y505000D01*
X244366Y500634D02*
X250000Y495000D01*
X245000Y490000D02*
X250000Y485000D01*
X305000Y470000D02*
X310000Y475000D01*
X315000Y470000D02*
X320000Y475000D01*
X329692Y464692D02*
X330000Y465000D01*
X335000Y470000D02*
X340000Y475000D01*
X335000Y448082D02*
Y470000D01*
X340000Y449189D02*
Y465000D01*
X485902Y453644D02*
X517258Y485000D01*
X530000D01*
X481584Y455433D02*
X516151Y490000D01*
X535000D02*
X540000Y485000D01*
X516151Y490000D02*
X535000D01*
X471932Y460502D02*
X506430Y495000D01*
X530000D01*
X467614Y462291D02*
X505323Y500000D01*
X535000D02*
X540000Y495000D01*
X505323Y500000D02*
X535000D01*
X449326Y456184D02*
X498142Y505000D01*
X530000D01*
X445008Y457973D02*
X497035Y510000D01*
X535000D02*
X540000Y505000D01*
X497035Y510000D02*
X535000D01*
X487568Y515000D02*
X530000D01*
X486151Y519689D02*
X535311D01*
X540000Y515000D01*
X595000Y470000D02*
X600000Y475000D01*
X605000Y470000D02*
X610000Y475000D01*
X620000Y388352D02*
Y465000D01*
X625000Y470000D02*
X630000Y475000D01*
X615000Y389459D02*
Y470000D01*
X620000Y475000D01*
X243840Y282840D02*
X324612Y363612D01*
Y469612D01*
X248920Y280736D02*
X329692Y361508D01*
D11*
X784670Y578040D02*
D03*
D12*
X777170Y593540D02*
D03*
X782170D02*
D03*
X787170D02*
D03*
X792170D02*
D03*
Y562540D02*
D03*
X787170D02*
D03*
X782170D02*
D03*
X777170D02*
D03*
D13*
X800170Y585540D02*
D03*
Y580540D02*
D03*
Y575540D02*
D03*
Y570540D02*
D03*
X769170D02*
D03*
Y575540D02*
D03*
Y580540D02*
D03*
Y585540D02*
D03*
D14*
X104822Y769366D02*
D03*
X94822D02*
D03*
X49864D02*
D03*
X59864D02*
D03*
X777670Y549040D02*
D03*
X767670D02*
D03*
X852758Y519938D02*
D03*
X862758D02*
D03*
X746708Y163576D02*
D03*
X756708D02*
D03*
X777000Y329000D02*
D03*
X787000D02*
D03*
X777000Y319000D02*
D03*
X787000D02*
D03*
X845000Y302000D02*
D03*
X835000D02*
D03*
X859000Y454000D02*
D03*
X869000D02*
D03*
X447000Y152000D02*
D03*
X457000D02*
D03*
X859000Y444000D02*
D03*
X869000D02*
D03*
X461000Y76000D02*
D03*
X471000D02*
D03*
X33000Y1045400D02*
D03*
X23000D02*
D03*
Y969400D02*
D03*
X33000D02*
D03*
X775000Y1045400D02*
D03*
X785000D02*
D03*
Y973400D02*
D03*
X775000D02*
D03*
X823388Y819912D02*
D03*
X813388D02*
D03*
X743284Y566166D02*
D03*
X753284D02*
D03*
D15*
X758190Y410290D02*
D03*
Y420290D02*
D03*
X704850Y410290D02*
D03*
Y420290D02*
D03*
X691000Y265000D02*
D03*
Y255000D02*
D03*
X782828Y704118D02*
D03*
Y694118D02*
D03*
Y724438D02*
D03*
Y714438D02*
D03*
X595000Y267000D02*
D03*
Y277000D02*
D03*
X778002Y827612D02*
D03*
Y837612D02*
D03*
X604000Y267000D02*
D03*
Y277000D02*
D03*
X80264Y672926D02*
D03*
Y682926D02*
D03*
X79254Y565984D02*
D03*
Y575984D02*
D03*
X524000Y172000D02*
D03*
Y162000D02*
D03*
X534000D02*
D03*
Y172000D02*
D03*
X497000Y162000D02*
D03*
Y172000D02*
D03*
X506984Y172132D02*
D03*
Y162132D02*
D03*
D16*
X740111Y394905D02*
D03*
Y375905D02*
D03*
X762111Y385405D02*
D03*
X687787Y394905D02*
D03*
Y375905D02*
D03*
X709787Y385405D02*
D03*
X107774Y791108D02*
D03*
Y810108D02*
D03*
X85774Y800608D02*
D03*
X56212Y790854D02*
D03*
Y809854D02*
D03*
X34212Y800354D02*
D03*
X457724Y185794D02*
D03*
X479724Y195294D02*
D03*
Y176294D02*
D03*
X461000Y99500D02*
D03*
Y118500D02*
D03*
X439000Y109000D02*
D03*
D17*
X792480Y724582D02*
D03*
Y714582D02*
D03*
X788000Y291000D02*
D03*
Y301000D02*
D03*
X715678Y250524D02*
D03*
Y260524D02*
D03*
X869696Y742014D02*
D03*
Y752014D02*
D03*
X878000Y409000D02*
D03*
Y399000D02*
D03*
X775274Y607294D02*
D03*
Y617294D02*
D03*
X784274Y607294D02*
D03*
Y617294D02*
D03*
D18*
X842518Y657060D02*
D03*
Y684060D02*
D03*
X808482Y657060D02*
D03*
Y684060D02*
D03*
X806450Y799630D02*
D03*
Y772630D02*
D03*
X831000Y471500D02*
D03*
Y444500D02*
D03*
X747000Y231500D02*
D03*
Y204500D02*
D03*
X712000Y345500D02*
D03*
Y318500D02*
D03*
X796500Y471500D02*
D03*
Y444500D02*
D03*
X779000Y231500D02*
D03*
Y204500D02*
D03*
X746000Y345500D02*
D03*
Y318500D02*
D03*
X862000Y354500D02*
D03*
Y327500D02*
D03*
X827000D02*
D03*
Y354500D02*
D03*
X840740Y799550D02*
D03*
Y772550D02*
D03*
D19*
X836186Y519928D02*
D03*
X826186D02*
D03*
X668000Y217000D02*
D03*
X678000D02*
D03*
X797670Y540540D02*
D03*
X787670D02*
D03*
X617000Y271000D02*
D03*
X627000D02*
D03*
X797670Y549540D02*
D03*
X787670D02*
D03*
X798952Y372110D02*
D03*
X788952D02*
D03*
X753284Y578358D02*
D03*
X743284D02*
D03*
X753284Y587502D02*
D03*
X743284D02*
D03*
X804274Y607294D02*
D03*
X794274D02*
D03*
X804274Y616294D02*
D03*
X794274D02*
D03*
D20*
X780170Y527040D02*
D03*
X795170D02*
D03*
D21*
X516000Y213000D02*
D03*
X525500Y191000D02*
D03*
X506500D02*
D03*
D22*
X290830Y374022D02*
D03*
Y359022D02*
D03*
X741834Y509150D02*
D03*
Y494150D02*
D03*
X430022Y539616D02*
D03*
Y554616D02*
D03*
X471170Y567316D02*
D03*
Y552316D02*
D03*
D23*
X813000Y1053400D02*
D03*
X843000D02*
D03*
X813000Y972400D02*
D03*
X843000D02*
D03*
X60000Y971400D02*
D03*
X90000D02*
D03*
X60000Y1053400D02*
D03*
X90000D02*
D03*
D24*
X727750Y291000D02*
D03*
Y284500D02*
D03*
Y278000D02*
D03*
Y271500D02*
D03*
Y265000D02*
D03*
X776250D02*
D03*
Y271500D02*
D03*
Y278000D02*
D03*
Y284500D02*
D03*
Y291000D02*
D03*
X648250Y217000D02*
D03*
Y223500D02*
D03*
Y230000D02*
D03*
Y236500D02*
D03*
Y243000D02*
D03*
X599750D02*
D03*
Y236500D02*
D03*
Y230000D02*
D03*
Y223500D02*
D03*
Y217000D02*
D03*
X859750Y411000D02*
D03*
Y404500D02*
D03*
Y398000D02*
D03*
Y391500D02*
D03*
Y385000D02*
D03*
X811250D02*
D03*
Y391500D02*
D03*
Y398000D02*
D03*
Y404500D02*
D03*
Y411000D02*
D03*
X807680Y714710D02*
D03*
Y721210D02*
D03*
Y727710D02*
D03*
Y734210D02*
D03*
Y740710D02*
D03*
X856180D02*
D03*
Y734210D02*
D03*
Y727710D02*
D03*
Y721210D02*
D03*
Y714710D02*
D03*
D25*
X739000Y253750D02*
D03*
X745500D02*
D03*
X752000D02*
D03*
X758500D02*
D03*
X765000D02*
D03*
Y302250D02*
D03*
X758500D02*
D03*
X752000D02*
D03*
X745500D02*
D03*
X739000D02*
D03*
X611000Y205750D02*
D03*
X617500D02*
D03*
X624000D02*
D03*
X630500D02*
D03*
X637000D02*
D03*
Y254250D02*
D03*
X630500D02*
D03*
X624000D02*
D03*
X617500D02*
D03*
X611000D02*
D03*
X822500Y422250D02*
D03*
X829000D02*
D03*
X835500D02*
D03*
X842000D02*
D03*
X848500D02*
D03*
Y373750D02*
D03*
X842000D02*
D03*
X835500D02*
D03*
X829000D02*
D03*
X822500D02*
D03*
X844930Y703460D02*
D03*
X838430D02*
D03*
X831930D02*
D03*
X825430D02*
D03*
X818930D02*
D03*
Y751960D02*
D03*
X825430D02*
D03*
X831930D02*
D03*
X838430D02*
D03*
X844930D02*
D03*
D26*
X752000Y278000D02*
D03*
X835500Y398000D02*
D03*
X831930Y727710D02*
D03*
D27*
X65050Y732000D02*
D03*
X52350D02*
D03*
X39650D02*
D03*
X26950D02*
D03*
X65050Y680000D02*
D03*
X52350D02*
D03*
X39650D02*
D03*
X26950D02*
D03*
X25950Y573000D02*
D03*
X38650D02*
D03*
X51350D02*
D03*
X64050D02*
D03*
X25950Y625000D02*
D03*
X38650D02*
D03*
X51350D02*
D03*
X64050D02*
D03*
D28*
X559869Y678400D02*
D03*
X487869D02*
D03*
X495869D02*
D03*
X503869D02*
D03*
X511869D02*
D03*
X519869D02*
D03*
X527869D02*
D03*
X535869D02*
D03*
X543869D02*
D03*
X551869D02*
D03*
X547869Y760400D02*
D03*
X539869D02*
D03*
X531869D02*
D03*
X523869D02*
D03*
X515869D02*
D03*
X507869D02*
D03*
X499869D02*
D03*
X491869D02*
D03*
X483869D02*
D03*
X555869Y760400D02*
D03*
X702369Y678400D02*
D03*
X630369D02*
D03*
X638369D02*
D03*
X646369D02*
D03*
X654369D02*
D03*
X662369D02*
D03*
X670369D02*
D03*
X678369D02*
D03*
X686369D02*
D03*
X694369D02*
D03*
X690369Y760400D02*
D03*
X682369D02*
D03*
X674369D02*
D03*
X666369D02*
D03*
X658369D02*
D03*
X650369D02*
D03*
X642369D02*
D03*
X634369D02*
D03*
X626369D02*
D03*
X698369Y760400D02*
D03*
X274869Y678400D02*
D03*
X202869D02*
D03*
X210869D02*
D03*
X218869D02*
D03*
X226869D02*
D03*
X234869D02*
D03*
X242869D02*
D03*
X250869D02*
D03*
X258869D02*
D03*
X266869D02*
D03*
X262869Y760400D02*
D03*
X254869D02*
D03*
X246869D02*
D03*
X238869D02*
D03*
X230869D02*
D03*
X222869D02*
D03*
X214869D02*
D03*
X206869D02*
D03*
X198869D02*
D03*
X270869Y760400D02*
D03*
X417369Y678400D02*
D03*
X345369D02*
D03*
X353369D02*
D03*
X361369D02*
D03*
X369369D02*
D03*
X377369D02*
D03*
X385369D02*
D03*
X393369D02*
D03*
X401369D02*
D03*
X409369D02*
D03*
X405369Y760400D02*
D03*
X397369D02*
D03*
X389369D02*
D03*
X381369D02*
D03*
X373369D02*
D03*
X365369D02*
D03*
X357369D02*
D03*
X349369D02*
D03*
X341369D02*
D03*
X413369Y760400D02*
D03*
D29*
X714114Y546608D02*
D03*
X729114D02*
D03*
D30*
X714214Y527050D02*
D03*
X741714D02*
D03*
D31*
X624000Y230000D02*
D03*
D32*
X554444Y223000D02*
D03*
X581444D02*
D03*
X554444Y255524D02*
D03*
X581444D02*
D03*
X662500Y196000D02*
D03*
X689500D02*
D03*
X648500Y276606D02*
D03*
X675500D02*
D03*
D33*
X309372Y402116D02*
D03*
Y374616D02*
D03*
X450088Y539462D02*
D03*
Y566962D02*
D03*
D34*
X370000Y595000D02*
D03*
Y585000D02*
D03*
Y575000D02*
D03*
Y565000D02*
D03*
Y555000D02*
D03*
Y545000D02*
D03*
Y535000D02*
D03*
Y525000D02*
D03*
Y515000D02*
D03*
Y505000D02*
D03*
Y495000D02*
D03*
Y485000D02*
D03*
Y475000D02*
D03*
Y465000D02*
D03*
X360000Y595000D02*
D03*
Y585000D02*
D03*
Y575000D02*
D03*
Y565000D02*
D03*
Y555000D02*
D03*
Y545000D02*
D03*
Y535000D02*
D03*
Y525000D02*
D03*
Y515000D02*
D03*
Y505000D02*
D03*
Y495000D02*
D03*
Y485000D02*
D03*
Y475000D02*
D03*
Y465000D02*
D03*
X350000Y595000D02*
D03*
Y585000D02*
D03*
Y575000D02*
D03*
Y565000D02*
D03*
Y555000D02*
D03*
Y545000D02*
D03*
Y535000D02*
D03*
Y525000D02*
D03*
Y515000D02*
D03*
Y505000D02*
D03*
Y495000D02*
D03*
Y485000D02*
D03*
Y475000D02*
D03*
Y465000D02*
D03*
X340000Y595000D02*
D03*
Y585000D02*
D03*
Y575000D02*
D03*
Y565000D02*
D03*
Y555000D02*
D03*
Y545000D02*
D03*
Y535000D02*
D03*
Y525000D02*
D03*
Y515000D02*
D03*
Y505000D02*
D03*
Y495000D02*
D03*
Y485000D02*
D03*
Y475000D02*
D03*
Y465000D02*
D03*
X330000Y595000D02*
D03*
Y585000D02*
D03*
Y575000D02*
D03*
Y565000D02*
D03*
Y555000D02*
D03*
Y545000D02*
D03*
Y535000D02*
D03*
Y525000D02*
D03*
Y515000D02*
D03*
Y505000D02*
D03*
Y495000D02*
D03*
Y485000D02*
D03*
Y475000D02*
D03*
Y465000D02*
D03*
X320000Y595000D02*
D03*
Y585000D02*
D03*
Y575000D02*
D03*
Y565000D02*
D03*
Y555000D02*
D03*
Y545000D02*
D03*
Y535000D02*
D03*
Y525000D02*
D03*
Y515000D02*
D03*
Y505000D02*
D03*
Y495000D02*
D03*
Y485000D02*
D03*
Y475000D02*
D03*
Y465000D02*
D03*
X310000Y595000D02*
D03*
Y585000D02*
D03*
Y575000D02*
D03*
Y565000D02*
D03*
Y555000D02*
D03*
Y545000D02*
D03*
Y535000D02*
D03*
Y525000D02*
D03*
Y515000D02*
D03*
Y505000D02*
D03*
Y495000D02*
D03*
Y485000D02*
D03*
Y475000D02*
D03*
Y465000D02*
D03*
X300000Y595000D02*
D03*
Y585000D02*
D03*
Y575000D02*
D03*
Y565000D02*
D03*
Y555000D02*
D03*
Y545000D02*
D03*
Y535000D02*
D03*
Y525000D02*
D03*
Y515000D02*
D03*
Y505000D02*
D03*
Y495000D02*
D03*
Y485000D02*
D03*
Y475000D02*
D03*
Y465000D02*
D03*
X290000Y595000D02*
D03*
Y585000D02*
D03*
Y575000D02*
D03*
Y565000D02*
D03*
Y555000D02*
D03*
Y545000D02*
D03*
Y535000D02*
D03*
Y525000D02*
D03*
Y515000D02*
D03*
Y505000D02*
D03*
Y495000D02*
D03*
Y485000D02*
D03*
Y475000D02*
D03*
Y465000D02*
D03*
X280000Y595000D02*
D03*
Y585000D02*
D03*
Y575000D02*
D03*
Y565000D02*
D03*
Y555000D02*
D03*
Y545000D02*
D03*
Y535000D02*
D03*
Y525000D02*
D03*
Y515000D02*
D03*
Y505000D02*
D03*
Y495000D02*
D03*
Y485000D02*
D03*
Y475000D02*
D03*
Y465000D02*
D03*
X270000Y595000D02*
D03*
Y585000D02*
D03*
Y575000D02*
D03*
Y565000D02*
D03*
Y555000D02*
D03*
Y545000D02*
D03*
Y535000D02*
D03*
Y525000D02*
D03*
Y515000D02*
D03*
Y505000D02*
D03*
Y495000D02*
D03*
Y485000D02*
D03*
Y475000D02*
D03*
Y465000D02*
D03*
X260000Y595000D02*
D03*
Y585000D02*
D03*
Y575000D02*
D03*
Y565000D02*
D03*
Y555000D02*
D03*
Y545000D02*
D03*
Y535000D02*
D03*
Y525000D02*
D03*
Y515000D02*
D03*
Y505000D02*
D03*
Y495000D02*
D03*
Y485000D02*
D03*
Y475000D02*
D03*
Y465000D02*
D03*
X250000Y595000D02*
D03*
Y585000D02*
D03*
Y575000D02*
D03*
Y565000D02*
D03*
Y555000D02*
D03*
Y545000D02*
D03*
Y535000D02*
D03*
Y525000D02*
D03*
Y515000D02*
D03*
Y505000D02*
D03*
Y495000D02*
D03*
Y485000D02*
D03*
Y475000D02*
D03*
Y465000D02*
D03*
X240000Y595000D02*
D03*
Y585000D02*
D03*
Y575000D02*
D03*
Y565000D02*
D03*
Y555000D02*
D03*
Y545000D02*
D03*
Y535000D02*
D03*
Y525000D02*
D03*
Y515000D02*
D03*
Y505000D02*
D03*
Y495000D02*
D03*
Y485000D02*
D03*
Y475000D02*
D03*
Y465000D02*
D03*
X530000D02*
D03*
Y475000D02*
D03*
Y485000D02*
D03*
Y495000D02*
D03*
Y505000D02*
D03*
Y515000D02*
D03*
Y525000D02*
D03*
Y535000D02*
D03*
Y545000D02*
D03*
Y555000D02*
D03*
Y565000D02*
D03*
Y575000D02*
D03*
Y585000D02*
D03*
Y595000D02*
D03*
X540000Y465000D02*
D03*
Y475000D02*
D03*
Y485000D02*
D03*
Y495000D02*
D03*
Y505000D02*
D03*
Y515000D02*
D03*
Y525000D02*
D03*
Y535000D02*
D03*
Y545000D02*
D03*
Y555000D02*
D03*
Y565000D02*
D03*
Y575000D02*
D03*
Y585000D02*
D03*
Y595000D02*
D03*
X550000Y465000D02*
D03*
Y475000D02*
D03*
Y485000D02*
D03*
Y495000D02*
D03*
Y505000D02*
D03*
Y515000D02*
D03*
Y525000D02*
D03*
Y535000D02*
D03*
Y545000D02*
D03*
Y555000D02*
D03*
Y565000D02*
D03*
Y575000D02*
D03*
Y585000D02*
D03*
Y595000D02*
D03*
X560000Y465000D02*
D03*
Y475000D02*
D03*
Y485000D02*
D03*
Y495000D02*
D03*
Y505000D02*
D03*
Y515000D02*
D03*
Y525000D02*
D03*
Y535000D02*
D03*
Y545000D02*
D03*
Y555000D02*
D03*
Y565000D02*
D03*
Y575000D02*
D03*
Y585000D02*
D03*
Y595000D02*
D03*
X570000Y465000D02*
D03*
Y475000D02*
D03*
Y485000D02*
D03*
Y495000D02*
D03*
Y505000D02*
D03*
Y515000D02*
D03*
Y525000D02*
D03*
Y535000D02*
D03*
Y545000D02*
D03*
Y555000D02*
D03*
Y565000D02*
D03*
Y575000D02*
D03*
Y585000D02*
D03*
Y595000D02*
D03*
X580000Y465000D02*
D03*
Y475000D02*
D03*
Y485000D02*
D03*
Y495000D02*
D03*
Y505000D02*
D03*
Y515000D02*
D03*
Y525000D02*
D03*
Y535000D02*
D03*
Y545000D02*
D03*
Y555000D02*
D03*
Y565000D02*
D03*
Y575000D02*
D03*
Y585000D02*
D03*
Y595000D02*
D03*
X590000Y465000D02*
D03*
Y475000D02*
D03*
Y485000D02*
D03*
Y495000D02*
D03*
Y505000D02*
D03*
Y515000D02*
D03*
Y525000D02*
D03*
Y535000D02*
D03*
Y545000D02*
D03*
Y555000D02*
D03*
Y565000D02*
D03*
Y575000D02*
D03*
Y585000D02*
D03*
Y595000D02*
D03*
X600000Y465000D02*
D03*
Y475000D02*
D03*
Y485000D02*
D03*
Y495000D02*
D03*
Y505000D02*
D03*
Y515000D02*
D03*
Y525000D02*
D03*
Y535000D02*
D03*
Y545000D02*
D03*
Y555000D02*
D03*
Y565000D02*
D03*
Y575000D02*
D03*
Y585000D02*
D03*
Y595000D02*
D03*
X610000Y465000D02*
D03*
Y475000D02*
D03*
Y485000D02*
D03*
Y495000D02*
D03*
Y505000D02*
D03*
Y515000D02*
D03*
Y525000D02*
D03*
Y535000D02*
D03*
Y545000D02*
D03*
Y555000D02*
D03*
Y565000D02*
D03*
Y575000D02*
D03*
Y585000D02*
D03*
Y595000D02*
D03*
X620000Y465000D02*
D03*
Y475000D02*
D03*
Y485000D02*
D03*
Y495000D02*
D03*
Y505000D02*
D03*
Y515000D02*
D03*
Y525000D02*
D03*
Y535000D02*
D03*
Y545000D02*
D03*
Y555000D02*
D03*
Y565000D02*
D03*
Y575000D02*
D03*
Y585000D02*
D03*
Y595000D02*
D03*
X630000Y465000D02*
D03*
Y475000D02*
D03*
Y485000D02*
D03*
Y495000D02*
D03*
Y505000D02*
D03*
Y515000D02*
D03*
Y525000D02*
D03*
Y535000D02*
D03*
Y545000D02*
D03*
Y555000D02*
D03*
Y565000D02*
D03*
Y575000D02*
D03*
Y585000D02*
D03*
Y595000D02*
D03*
X640000Y465000D02*
D03*
Y475000D02*
D03*
Y485000D02*
D03*
Y495000D02*
D03*
Y505000D02*
D03*
Y515000D02*
D03*
Y525000D02*
D03*
Y535000D02*
D03*
Y545000D02*
D03*
Y555000D02*
D03*
Y565000D02*
D03*
Y575000D02*
D03*
Y585000D02*
D03*
Y595000D02*
D03*
X650000Y465000D02*
D03*
Y475000D02*
D03*
Y485000D02*
D03*
Y495000D02*
D03*
Y505000D02*
D03*
Y515000D02*
D03*
Y525000D02*
D03*
Y535000D02*
D03*
Y545000D02*
D03*
Y555000D02*
D03*
Y565000D02*
D03*
Y575000D02*
D03*
Y585000D02*
D03*
Y595000D02*
D03*
X660000Y465000D02*
D03*
Y475000D02*
D03*
Y485000D02*
D03*
Y495000D02*
D03*
Y505000D02*
D03*
Y515000D02*
D03*
Y525000D02*
D03*
Y535000D02*
D03*
Y545000D02*
D03*
Y555000D02*
D03*
Y565000D02*
D03*
Y575000D02*
D03*
Y585000D02*
D03*
Y595000D02*
D03*
D35*
X395000Y620000D02*
D03*
X215000Y440000D02*
D03*
X505000D02*
D03*
X685000Y620000D02*
D03*
X55000Y300000D02*
D03*
X625000Y170000D02*
D03*
X875000Y950000D02*
D03*
X115000Y927000D02*
D03*
X427482Y513334D02*
D03*
X860298Y302006D02*
D03*
X682000Y239000D02*
D03*
X726948Y573786D02*
D03*
X775716Y163830D02*
D03*
X843534Y824230D02*
D03*
X600964Y405638D02*
D03*
X865162Y684060D02*
D03*
X783628Y799630D02*
D03*
Y772630D02*
D03*
X863482Y772550D02*
D03*
X863388Y799550D02*
D03*
X865416Y657060D02*
D03*
X754770Y494150D02*
D03*
Y509150D02*
D03*
X742050Y546608D02*
D03*
X739782Y657306D02*
D03*
X706846Y639370D02*
D03*
X709104Y604896D02*
D03*
Y589896D02*
D03*
X583918Y371722D02*
D03*
Y386722D02*
D03*
X601258Y418750D02*
D03*
X430022Y568514D02*
D03*
X485068Y552316D02*
D03*
Y567316D02*
D03*
X483652Y613154D02*
D03*
Y598154D02*
D03*
X416232Y587232D02*
D03*
Y602232D02*
D03*
X338498Y405270D02*
D03*
X309350Y415946D02*
D03*
X277000Y359000D02*
D03*
X293000Y388000D02*
D03*
X773500Y471500D02*
D03*
Y444500D02*
D03*
X806000Y354500D02*
D03*
X883000D02*
D03*
Y327500D02*
D03*
X806000D02*
D03*
X779000Y183000D02*
D03*
X747000D02*
D03*
X724000Y232000D02*
D03*
X689500Y174500D02*
D03*
X662500D02*
D03*
X693420Y334010D02*
D03*
X693614Y307788D02*
D03*
X675500Y298106D02*
D03*
X648500D02*
D03*
X581000Y276000D02*
D03*
X554500Y275500D02*
D03*
X778000Y245000D02*
D03*
X322072Y757428D02*
D03*
X281132Y758190D02*
D03*
X249500Y735000D02*
D03*
X392318Y734640D02*
D03*
X464322Y758018D02*
D03*
X422500Y758000D02*
D03*
X589000Y785500D02*
D03*
X563000Y800500D02*
D03*
X534318Y735640D02*
D03*
X707080Y758586D02*
D03*
X748902Y758604D02*
D03*
X678500Y736000D02*
D03*
D36*
X664469Y847400D02*
D03*
X521969D02*
D03*
X379469D02*
D03*
X236919D02*
D03*
D37*
X825800Y539750D02*
D03*
Y565150D02*
D03*
Y590550D02*
D03*
X863300D02*
D03*
Y565150D02*
D03*
Y539750D02*
D03*
D38*
X76750Y410600D02*
D03*
Y385200D02*
D03*
Y359800D02*
D03*
Y486800D02*
D03*
Y461400D02*
D03*
Y436000D02*
D03*
Y512200D02*
D03*
X27250D02*
D03*
Y436000D02*
D03*
Y461400D02*
D03*
Y486800D02*
D03*
Y359800D02*
D03*
Y385200D02*
D03*
Y410600D02*
D03*
D39*
X60546Y760476D02*
X65278D01*
X59864Y761158D02*
X60546Y760476D01*
X59864Y761158D02*
Y769366D01*
X94822D01*
X775000Y958804D02*
X775462Y958342D01*
X775000Y958804D02*
Y973400D01*
X23000Y961276D02*
Y969400D01*
X704850Y420290D02*
X758190D01*
X60000Y970234D02*
Y971400D01*
X33000Y1035832D02*
X33020Y1035812D01*
X724154Y404368D02*
X724662Y404876D01*
X784860Y965454D02*
X785000Y965594D01*
Y973400D01*
Y1036180D02*
X785114Y1036066D01*
X785000Y1036180D02*
Y1045400D01*
X728058Y244000D02*
X739000D01*
X727750Y244308D02*
X728058Y244000D01*
X727750Y244308D02*
Y265000D01*
X715678Y250524D02*
X727416D01*
X804274Y603360D02*
Y607294D01*
X802386Y601472D02*
X804274Y603360D01*
X795274Y601472D02*
X802386D01*
X792170Y598368D02*
X795274Y601472D01*
X792170Y593540D02*
Y598368D01*
X590000Y525000D02*
X594536Y529536D01*
X711728D01*
X714214Y527050D01*
Y545946D01*
X304718Y529718D02*
X381718D01*
X300000Y525000D02*
X304718Y529718D01*
X381718D02*
X391616Y539616D01*
X430022D02*
X430176Y539462D01*
X450088D01*
X391616Y539616D02*
X430022D01*
Y554616D02*
Y568514D01*
X450088Y566962D02*
X450442Y567316D01*
X471170D01*
Y552316D02*
X485068D01*
X471170Y567316D02*
X485068D01*
X290068Y374276D02*
X290408Y374616D01*
X793000Y1053400D02*
X813000D01*
X785000Y1045400D02*
X793000Y1053400D01*
X691000Y265000D02*
X700000D01*
X812000Y973400D02*
X813000Y972400D01*
X785000Y973400D02*
X812000D01*
X775000D02*
Y1045400D01*
X58000Y969400D02*
X60000Y971400D01*
X23000Y969400D02*
Y1045400D01*
X859750Y373750D02*
Y385000D01*
Y354750D02*
Y373750D01*
X848500D02*
X859750D01*
X788952Y364860D02*
Y372110D01*
X810748Y372000D02*
X812498Y373750D01*
X798952Y372000D02*
X810748D01*
X859750Y354750D02*
X860000Y354500D01*
X859750Y391500D02*
X859776Y391526D01*
X869122D01*
X811250Y385000D02*
X812498Y383752D01*
Y373750D02*
Y383752D01*
Y373750D02*
X822500D01*
Y352000D02*
Y373750D01*
X829000Y352000D02*
Y373750D01*
X835500Y352000D02*
Y373750D01*
X811250Y411000D02*
Y417750D01*
X815750Y422250D02*
X822500D01*
X811250Y417750D02*
X815750Y422250D01*
X776276Y271526D02*
X785622D01*
X776250Y271500D02*
X776276Y271526D01*
X727750Y297750D02*
X732250Y302250D01*
X739000D01*
X727750Y291000D02*
Y297750D01*
X666500Y200000D02*
Y207500D01*
X648250Y230000D02*
X662500D01*
X637000Y205750D02*
X662500D01*
X662500Y217000D02*
X668000D01*
X648250Y217000D02*
X662500D01*
X648250Y223500D02*
X662500D01*
Y196000D02*
Y217000D01*
Y223500D01*
Y230000D01*
X627000Y271000D02*
X630500Y267500D01*
X604250Y205750D02*
X611000D01*
X599750Y210250D02*
Y217000D01*
Y210250D02*
X604250Y205750D01*
X678000Y217000D02*
X687000D01*
X687000Y217000D01*
X648250Y236500D02*
X679500D01*
X691000Y248000D02*
Y255000D01*
X679500Y236500D02*
X682000Y239000D01*
X691000Y248000D01*
X604000Y277000D02*
X621000D01*
X627000Y271000D01*
X630500Y254250D02*
Y267500D01*
X745500Y232000D02*
Y253750D01*
X752000Y232000D02*
Y253750D01*
X739000Y232000D02*
Y253750D01*
X715678Y260524D02*
Y269524D01*
D40*
X71882Y754634D02*
X104648Y721868D01*
X57404Y754634D02*
X71882D01*
X49864Y762174D02*
X57404Y754634D01*
X90000Y971400D02*
X115570D01*
X91299Y789686D02*
X99880Y798267D01*
X126437D01*
X128778Y800608D01*
X107774Y822022D02*
X109474Y823722D01*
X107774Y810108D02*
Y822022D01*
X85774Y800608D02*
Y821612D01*
X107950Y843788D01*
Y922284D01*
X60000Y970234D02*
X107950Y922284D01*
X33000Y1035832D02*
Y1045400D01*
X104822Y788156D02*
X107774Y791108D01*
X104822Y769366D02*
Y788156D01*
X105664Y769366D02*
X112522Y762508D01*
Y549910D02*
Y762508D01*
Y549910D02*
X115570Y546862D01*
X104648Y538734D02*
Y721868D01*
X744220Y451104D02*
Y477012D01*
Y451104D02*
X765048Y430276D01*
X774192D01*
X794766Y409702D01*
Y390652D02*
Y409702D01*
X768858Y364744D02*
X794766Y390652D01*
X751272Y364744D02*
X768858D01*
X740111Y375905D02*
X751272Y364744D01*
X762111Y385405D02*
X769707D01*
X777494Y393192D01*
X724154Y389636D02*
Y404368D01*
X719923Y385405D02*
X724154Y389636D01*
X709787Y385405D02*
X719923D01*
X758190Y402590D02*
Y410290D01*
X750505Y394905D02*
X758190Y402590D01*
X740111Y394905D02*
X750505D01*
X666765Y375905D02*
X687787D01*
X648970Y393700D02*
X666765Y375905D01*
X648970Y393700D02*
Y416560D01*
X740111Y391877D02*
Y394905D01*
X708914Y360680D02*
X740111Y391877D01*
X657098Y360680D02*
X708914D01*
X642112Y375666D02*
X657098Y360680D01*
X642112Y375666D02*
Y424180D01*
X646938Y429006D01*
X687787Y394905D02*
X698435D01*
X704342Y400812D01*
Y411052D01*
X704850Y411560D01*
X656844Y425848D02*
X687787Y394905D01*
X656844Y425848D02*
Y430784D01*
X811784Y516382D02*
Y550164D01*
X806704Y555244D02*
X811784Y550164D01*
X794258Y555244D02*
X806704D01*
X811784Y516382D02*
X816610Y511556D01*
X497000Y162000D02*
X506852D01*
X506500Y191000D02*
X506984Y190516D01*
Y173016D02*
Y190516D01*
Y173016D02*
X515366Y164634D01*
X534000Y162000D02*
X534052Y162052D01*
X541782D01*
X719074Y620065D02*
X727202Y611937D01*
X710743Y620065D02*
X719074D01*
X727202Y584570D02*
Y611937D01*
X708914Y618236D02*
X710743Y620065D01*
X737014Y580771D02*
X739427Y578358D01*
X743284D01*
X727202Y584570D02*
X731001Y580771D01*
X737014D01*
X575000Y600000D02*
X580000Y595000D01*
X720863Y624383D02*
X731520Y613725D01*
X710743Y624383D02*
X720863D01*
X739427Y587502D02*
X743284D01*
X708914Y626212D02*
X710743Y624383D01*
X737014Y585089D02*
X739427Y587502D01*
X732790Y585089D02*
X737014D01*
X731520Y586359D02*
Y613725D01*
Y586359D02*
X732790Y585089D01*
X575000Y590000D02*
X580000Y585000D01*
X265000Y480000D02*
X270000Y485000D01*
X792170Y557332D02*
X794258Y555244D01*
X792170Y557332D02*
Y562540D01*
X816610Y511556D02*
X859790D01*
X862758Y514524D01*
Y519938D01*
X777170Y556952D02*
Y562540D01*
X775208Y554990D02*
X777170Y556952D01*
X769620Y554990D02*
X775208D01*
X767670Y553040D02*
X769620Y554990D01*
X767670Y549040D02*
Y553040D01*
X782170Y555348D02*
Y562540D01*
X777670Y550848D02*
X782170Y555348D01*
X777670Y549040D02*
Y550848D01*
X787270Y540140D02*
X787670Y540540D01*
X780170Y540140D02*
X787270D01*
X780170Y527040D02*
Y540140D01*
X794274Y616294D02*
Y623554D01*
X787670Y540540D02*
Y549540D01*
X787170Y550040D02*
X787670Y549540D01*
X787170Y550040D02*
Y562540D01*
X794274Y607294D02*
Y616294D01*
Y606060D02*
Y607294D01*
X787170Y598956D02*
X794274Y606060D01*
X787170Y593540D02*
Y598956D01*
X815449Y580199D02*
X825800Y590550D01*
X810300Y580199D02*
X815449D01*
X804959Y585540D02*
X810300Y580199D01*
X800170Y585540D02*
X804959D01*
X815069Y575881D02*
X825800Y565150D01*
X810300Y575881D02*
X815069D01*
X804959Y570540D02*
X810300Y575881D01*
X800170Y570540D02*
X804959D01*
X862758Y519938D02*
X863300Y520480D01*
Y539750D01*
X782170Y593540D02*
Y601487D01*
X784274Y603591D01*
Y607294D01*
X777170Y593540D02*
Y601695D01*
X775274Y603591D02*
X777170Y601695D01*
X775274Y603591D02*
Y607294D01*
X758915Y585540D02*
X769170D01*
X756953Y587502D02*
X758915Y585540D01*
X753284Y587502D02*
X756953D01*
X759135Y580540D02*
X769170D01*
X756953Y578358D02*
X759135Y580540D01*
X753284Y578358D02*
X756953D01*
X792608Y714710D02*
X807680D01*
X792480Y714582D02*
X792608Y714710D01*
X782828Y704118D02*
X789910D01*
X799338Y694690D01*
X817372D01*
X818930Y696248D01*
Y703460D01*
X782828Y704118D02*
Y714438D01*
X845250Y302000D02*
Y366750D01*
Y301750D02*
Y302000D01*
X860292D01*
X845000D02*
X845250D01*
X823722Y759968D02*
X825430Y758260D01*
Y751960D02*
Y758260D01*
X751250Y320750D02*
X752000Y320000D01*
X751250Y320750D02*
Y328250D01*
X759296Y336296D02*
X779704D01*
X751250Y328250D02*
X759296Y336296D01*
X90400Y1053000D02*
X115400D01*
X90000Y1053400D02*
X90400Y1053000D01*
X843000Y1053400D02*
X871600D01*
X861400Y972400D02*
X862000Y973000D01*
X843000Y972400D02*
X861400D01*
X642369Y760400D02*
Y776150D01*
X555000Y490000D02*
X560000Y495000D01*
X630000Y515000D02*
X635000Y510000D01*
X630000Y505000D02*
X635000Y500000D01*
X630000Y495000D02*
X635000Y490000D01*
X340000Y495000D02*
X345000Y490000D01*
X340000Y505000D02*
X345000Y500000D01*
X340000Y515000D02*
X345000Y510000D01*
X246869Y760400D02*
Y776150D01*
X238869Y744650D02*
Y760400D01*
X230869D02*
Y776150D01*
X674369Y760400D02*
Y776150D01*
X666369Y744650D02*
Y760400D01*
X658369D02*
Y776150D01*
X531869Y760400D02*
Y776150D01*
X523869Y744650D02*
Y760400D01*
X515869D02*
Y776150D01*
X389369Y760400D02*
Y776150D01*
X381369Y744650D02*
Y760400D01*
X373369D02*
Y776150D01*
X565000Y510000D02*
X570000Y515000D01*
X555000Y560000D02*
X560000Y555000D01*
X565000Y560000D02*
X570000Y555000D01*
X545000Y560000D02*
X550000Y555000D01*
X545000Y540000D02*
X550000Y535000D01*
X525000Y530000D02*
X530000Y525000D01*
X535000Y530000D02*
X540000Y525000D01*
X630000Y555000D02*
X635000Y560000D01*
X640000Y545000D02*
X645000Y550000D01*
X350000Y545000D02*
X355000Y550000D01*
X340000Y555000D02*
X345000Y560000D01*
X511869Y678400D02*
Y694150D01*
X295000Y520000D02*
X300000Y525000D01*
X477198Y99500D02*
X483689Y105991D01*
X461000Y99500D02*
X477198D01*
X41000Y1053400D02*
X60000D01*
X33000Y1045400D02*
X41000Y1053400D01*
X245000Y530000D02*
X250000Y525000D01*
X235000Y530000D02*
X240000Y525000D01*
X222869Y744650D02*
Y760400D01*
X214869D02*
Y776150D01*
X206869Y744650D02*
Y760400D01*
X198869D02*
Y776150D01*
X254869Y760400D02*
Y776150D01*
X262869Y744650D02*
Y760400D01*
X270869Y760400D02*
Y776150D01*
X630369Y678400D02*
Y694150D01*
X654369Y678400D02*
Y694150D01*
X678369Y678400D02*
Y694150D01*
X702369Y678400D02*
Y694150D01*
X202869Y678400D02*
Y694150D01*
X226869Y678400D02*
Y694150D01*
X250869Y678400D02*
Y694150D01*
X274869Y678400D02*
Y694150D01*
X698369Y760400D02*
Y776150D01*
X690369Y744650D02*
Y760400D01*
X682369D02*
Y776150D01*
X626369Y760400D02*
Y776150D01*
X634369Y744650D02*
Y760400D01*
X650369Y744650D02*
Y760400D01*
X413369Y760400D02*
Y776150D01*
X405369Y744650D02*
Y760400D01*
X397369D02*
Y776150D01*
X341369Y760400D02*
Y776150D01*
X349369Y744650D02*
Y760400D01*
X357369D02*
Y776150D01*
X365369Y744650D02*
Y760400D01*
X507869Y744650D02*
Y760400D01*
X499869D02*
Y776150D01*
X491869Y744650D02*
Y760400D01*
X483869D02*
Y776150D01*
X539869Y760400D02*
Y776150D01*
X547869Y744650D02*
Y760400D01*
X555869Y760400D02*
Y776150D01*
X559869Y678400D02*
Y694150D01*
X535869Y678400D02*
Y694150D01*
X487869Y678400D02*
Y694150D01*
X417369Y678400D02*
Y694150D01*
X393369Y678400D02*
Y694150D01*
X369369Y678400D02*
Y694150D01*
X345369Y678400D02*
Y694150D01*
X457724Y175504D02*
Y185794D01*
X516000Y213000D02*
Y223290D01*
X479724Y195294D02*
Y205584D01*
X525500Y191000D02*
X535790D01*
X534000Y172000D02*
X563838D01*
X524000D02*
X534000D01*
X563838D02*
X585289Y150549D01*
Y108785D02*
Y150549D01*
X502739Y145361D02*
X515366Y157988D01*
Y164634D01*
X502739Y108785D02*
Y145361D01*
X490039Y108785D02*
Y165039D01*
X497000Y172000D01*
X481168Y76000D02*
X483689Y73479D01*
X471000Y76000D02*
X481168D01*
X461000D02*
Y99500D01*
X439000Y144000D02*
X447000Y152000D01*
X439000Y109000D02*
Y144000D01*
X457000Y152000D02*
Y159750D01*
X447000Y152000D02*
Y159750D01*
X470843Y138357D02*
X477339D01*
X461000Y128514D02*
X470843Y138357D01*
X461000Y118500D02*
Y128514D01*
X79254Y558034D02*
Y565984D01*
X52350Y686350D02*
X59000Y693000D01*
X52350Y680000D02*
Y686350D01*
X51350Y579350D02*
X58000Y586000D01*
X51350Y573000D02*
Y579350D01*
X33000Y969400D02*
X58000D01*
X26950Y662550D02*
Y680000D01*
X39650Y662550D02*
Y680000D01*
X52350Y662550D02*
Y680000D01*
X65050Y662550D02*
Y680000D01*
X26950Y732000D02*
Y749450D01*
X39650Y732000D02*
Y749450D01*
X52350Y732000D02*
Y749450D01*
X51350Y625000D02*
Y642450D01*
X38650Y625000D02*
Y642450D01*
X25950Y625000D02*
Y642450D01*
X64050Y555550D02*
Y573000D01*
X38650Y555550D02*
Y573000D01*
X25950Y555550D02*
Y573000D01*
X90000Y500300D02*
Y511500D01*
Y474900D02*
Y486100D01*
Y449500D02*
Y460700D01*
Y424100D02*
Y435300D01*
Y398700D02*
Y409900D01*
Y373300D02*
Y384500D01*
Y347900D02*
Y359100D01*
X25000Y347900D02*
Y359100D01*
Y373300D02*
Y384500D01*
Y398700D02*
Y409900D01*
Y424100D02*
Y435300D01*
Y449500D02*
Y460700D01*
Y474900D02*
Y486100D01*
Y500300D02*
Y511500D01*
X827250Y302000D02*
X835000D01*
X842000Y370000D02*
X845250Y366750D01*
X842000Y370000D02*
Y373750D01*
X869122Y391526D02*
X869148Y391500D01*
X876000D01*
X878000Y393500D01*
Y399000D01*
X869000Y411000D02*
X871000Y409000D01*
X859750Y411000D02*
X869000D01*
X871000Y409000D02*
X878000D01*
X850000Y435000D02*
X859000Y444000D01*
X864750Y422250D02*
X869000Y426500D01*
X848500Y422250D02*
X864750D01*
X869000Y426500D02*
Y444000D01*
X869000Y444000D02*
X869000Y444000D01*
X869000Y444000D02*
Y454000D01*
X845000Y445000D02*
X854000Y454000D01*
X859000D01*
X829500Y445000D02*
X845000D01*
X779448Y265000D02*
X785876Y258572D01*
Y255270D02*
Y258572D01*
X776250Y265000D02*
X779448D01*
X787146Y301854D02*
Y318262D01*
Y301854D02*
X788000Y301000D01*
X787570Y291000D02*
X787908Y291338D01*
X787654D02*
X787908D01*
X776250Y291000D02*
X787570D01*
X779704Y336296D02*
X787000Y329000D01*
X771426Y302250D02*
X777000Y307824D01*
X765000Y302250D02*
X771426D01*
X777000Y307824D02*
Y319000D01*
X777000Y319000D01*
Y329000D01*
X310000Y525000D02*
X315000Y520000D01*
X295000Y540000D02*
X300000Y535000D01*
X310000D02*
X315000Y540000D01*
X295000Y510000D02*
X300000Y515000D01*
X285000Y520000D02*
X290000Y525000D01*
X310000Y515000D02*
X315000Y510000D01*
X320000Y525000D02*
X325000Y520000D01*
X285000Y540000D02*
X290000Y535000D01*
X295000Y550000D02*
X300000Y545000D01*
X320000Y535000D02*
X325000Y540000D01*
X310000Y545000D02*
X315000Y550000D01*
X285000Y510000D02*
X290000Y515000D01*
X320000D02*
X325000Y510000D01*
X285000Y550000D02*
X290000Y545000D01*
X320000D02*
X325000Y550000D01*
X295000Y500000D02*
X300000Y505000D01*
X310000D02*
X315000Y500000D01*
X275000Y520000D02*
X280000Y525000D01*
X275000Y540000D02*
X280000Y535000D01*
X330000Y525000D02*
X335000Y520000D01*
X330000Y535000D02*
X335000Y540000D01*
X295000Y560000D02*
X300000Y555000D01*
X310000D02*
X315000Y560000D01*
X285000Y500000D02*
X290000Y505000D01*
X275000Y510000D02*
X280000Y515000D01*
X320000Y505000D02*
X325000Y500000D01*
X330000Y515000D02*
X335000Y510000D01*
X275000Y550000D02*
X280000Y545000D01*
X285000Y560000D02*
X290000Y555000D01*
X330000Y545000D02*
X335000Y550000D01*
X320000Y555000D02*
X325000Y560000D01*
X275000Y500000D02*
X280000Y505000D01*
X295000Y490000D02*
X300000Y495000D01*
X310000D02*
X315000Y490000D01*
X330000Y505000D02*
X335000Y500000D01*
X265000Y520000D02*
X270000Y525000D01*
X265000Y540000D02*
X270000Y535000D01*
X275000Y560000D02*
X280000Y555000D01*
X340000Y525000D02*
X345000Y520000D01*
X340000Y535000D02*
X345000Y540000D01*
X330000Y555000D02*
X335000Y560000D01*
X295000Y570000D02*
X300000Y565000D01*
X310000D02*
X315000Y570000D01*
X285000Y490000D02*
X290000Y495000D01*
X265000Y510000D02*
X270000Y515000D01*
X320000Y495000D02*
X325000Y490000D01*
X265000Y550000D02*
X270000Y545000D01*
X340000D02*
X345000Y550000D01*
X285000Y570000D02*
X290000Y565000D01*
X320000D02*
X325000Y570000D01*
X275000Y490000D02*
X280000Y495000D01*
X265000Y500000D02*
X270000Y505000D01*
X330000Y495000D02*
X335000Y490000D01*
X265000Y560000D02*
X270000Y555000D01*
X275000Y570000D02*
X280000Y565000D01*
X330000D02*
X335000Y570000D01*
X295000Y480000D02*
X300000Y485000D01*
X310000D02*
X315000Y480000D01*
X255000Y520000D02*
X260000Y525000D01*
X255000Y540000D02*
X260000Y535000D01*
X350000Y525000D02*
X355000Y520000D01*
X350000Y535000D02*
X355000Y540000D01*
X295000Y580000D02*
X300000Y575000D01*
X310000D02*
X315000Y580000D01*
X285000Y480000D02*
X290000Y485000D01*
X255000Y510000D02*
X260000Y515000D01*
X320000Y485000D02*
X325000Y480000D01*
X350000Y515000D02*
X355000Y510000D01*
X255000Y550000D02*
X260000Y545000D01*
X285000Y580000D02*
X290000Y575000D01*
X320000D02*
X325000Y580000D01*
X265000Y490000D02*
X270000Y495000D01*
X265000Y570000D02*
X270000Y565000D01*
X340000D02*
X345000Y570000D01*
X275000Y480000D02*
X280000Y485000D01*
X330000D02*
X335000Y480000D01*
X255000Y500000D02*
X260000Y505000D01*
X255000Y560000D02*
X260000Y555000D01*
X350000Y505000D02*
X355000Y500000D01*
X350000Y555000D02*
X355000Y560000D01*
X275000Y580000D02*
X280000Y575000D01*
X330000D02*
X335000Y580000D01*
X295000Y470000D02*
X300000Y475000D01*
X245000Y540000D02*
X250000Y535000D01*
X360000Y525000D02*
X365000Y520000D01*
X360000Y535000D02*
X365000Y540000D01*
X295000Y590000D02*
X300000Y585000D01*
X310000D02*
X315000Y590000D01*
X255000Y490000D02*
X260000Y495000D01*
X340000Y485000D02*
X345000Y480000D01*
X350000Y495000D02*
X355000Y490000D01*
X360000Y515000D02*
X365000Y510000D01*
X245000Y550000D02*
X250000Y545000D01*
X255000Y570000D02*
X260000Y565000D01*
X350000D02*
X355000Y570000D01*
X265000Y580000D02*
X270000Y575000D01*
X340000D02*
X345000Y580000D01*
X360000Y545000D02*
X365000Y550000D01*
X320000Y585000D02*
X325000Y590000D01*
X245000Y560000D02*
X250000Y555000D01*
X360000D02*
X365000Y560000D01*
X275000Y590000D02*
X280000Y585000D01*
X330000D02*
X335000Y590000D01*
X255000Y480000D02*
X260000Y485000D01*
X350000D02*
X355000Y480000D01*
X255000Y580000D02*
X260000Y575000D01*
X350000D02*
X355000Y580000D01*
X295000Y460000D02*
X300000Y465000D01*
X235000Y540000D02*
X240000Y535000D01*
X245000Y570000D02*
X250000Y565000D01*
X370000Y525000D02*
X375000Y520000D01*
X370000Y535000D02*
X375000Y540000D01*
X360000Y565000D02*
X365000Y570000D01*
X295000Y600000D02*
X300000Y595000D01*
X310000D02*
X315000Y600000D01*
X235000Y550000D02*
X240000Y545000D01*
X370000Y515000D02*
X375000Y510000D01*
X370000Y545000D02*
X375000Y550000D01*
X320000Y595000D02*
X325000Y600000D01*
X235000Y560000D02*
X240000Y555000D01*
X275000Y600000D02*
X280000Y595000D01*
X370000Y555000D02*
X375000Y560000D01*
X330000Y595000D02*
X335000Y600000D01*
X350000Y475000D02*
X355000Y470000D01*
X245000Y580000D02*
X250000Y575000D01*
X360000D02*
X365000Y580000D01*
X350000Y585000D02*
X355000Y590000D01*
X235000Y570000D02*
X240000Y565000D01*
X370000D02*
X375000Y570000D01*
X245000Y470000D02*
X250000Y475000D01*
X350000Y465000D02*
X355000Y460000D01*
X235000Y580000D02*
X240000Y575000D01*
X370000D02*
X375000Y580000D01*
X350000Y595000D02*
X355000Y600000D01*
X245000Y460000D02*
X250000Y465000D01*
X235000Y470000D02*
X240000Y475000D01*
X360000Y465000D02*
X365000Y460000D01*
X235000Y590000D02*
X240000Y585000D01*
X370000D02*
X375000Y590000D01*
X235000Y460000D02*
X240000Y465000D01*
X370000D02*
X375000Y460000D01*
X235000Y600000D02*
X240000Y595000D01*
X370000D02*
X375000Y600000D01*
X600000Y525000D02*
X605000Y520000D01*
X585000D02*
X590000Y525000D01*
X585000Y540000D02*
X590000Y535000D01*
X600000D02*
X605000Y540000D01*
X600000Y515000D02*
X605000Y510000D01*
X610000Y525000D02*
X615000Y520000D01*
X585000Y510000D02*
X590000Y515000D01*
X575000Y520000D02*
X580000Y525000D01*
X610000Y535000D02*
X615000Y540000D01*
X600000Y545000D02*
X605000Y550000D01*
X575000Y540000D02*
X580000Y535000D01*
X585000Y550000D02*
X590000Y545000D01*
X610000Y515000D02*
X615000Y510000D01*
X575000D02*
X580000Y515000D01*
X610000Y545000D02*
X615000Y550000D01*
X575000D02*
X580000Y545000D01*
X585000Y500000D02*
X590000Y505000D01*
X600000D02*
X605000Y500000D01*
X620000Y525000D02*
X625000Y520000D01*
X620000Y535000D02*
X625000Y540000D01*
X565000Y520000D02*
X570000Y525000D01*
X565000Y540000D02*
X570000Y535000D01*
X585000Y560000D02*
X590000Y555000D01*
X600000D02*
X605000Y560000D01*
X610000Y505000D02*
X615000Y500000D01*
X620000Y515000D02*
X625000Y510000D01*
X575000Y500000D02*
X580000Y505000D01*
X620000Y545000D02*
X625000Y550000D01*
X610000Y555000D02*
X615000Y560000D01*
X565000Y550000D02*
X570000Y545000D01*
X575000Y560000D02*
X580000Y555000D01*
X620000Y505000D02*
X625000Y500000D01*
X585000Y490000D02*
X590000Y495000D01*
X600000D02*
X605000Y490000D01*
X565000Y500000D02*
X570000Y505000D01*
X630000Y525000D02*
X635000Y520000D01*
X630000Y535000D02*
X635000Y540000D01*
X620000Y555000D02*
X625000Y560000D01*
X555000Y520000D02*
X560000Y525000D01*
X555000Y540000D02*
X560000Y535000D01*
X585000Y570000D02*
X590000Y565000D01*
X600000D02*
X605000Y570000D01*
X610000Y495000D02*
X615000Y490000D01*
X575000D02*
X580000Y495000D01*
X555000Y510000D02*
X560000Y515000D01*
X555000Y550000D02*
X560000Y545000D01*
X630000D02*
X635000Y550000D01*
X575000Y570000D02*
X580000Y565000D01*
X610000D02*
X615000Y570000D01*
X620000Y495000D02*
X625000Y490000D01*
X565000D02*
X570000Y495000D01*
X555000Y500000D02*
X560000Y505000D01*
X565000Y570000D02*
X570000Y565000D01*
X620000D02*
X625000Y570000D01*
X585000Y480000D02*
X590000Y485000D01*
X600000D02*
X605000Y480000D01*
X640000Y525000D02*
X645000Y520000D01*
X640000Y535000D02*
X645000Y540000D01*
X545000Y520000D02*
X550000Y525000D01*
X585000Y580000D02*
X590000Y575000D01*
X600000D02*
X605000Y580000D01*
X610000Y485000D02*
X615000Y480000D01*
X640000Y515000D02*
X645000Y510000D01*
X575000Y480000D02*
X580000Y485000D01*
X545000Y510000D02*
X550000Y515000D01*
X575000Y580000D02*
X580000Y575000D01*
X610000D02*
X615000Y580000D01*
X630000Y565000D02*
X635000Y570000D01*
X555000D02*
X560000Y565000D01*
X565000Y480000D02*
X570000Y485000D01*
X620000D02*
X625000Y480000D01*
X640000Y505000D02*
X645000Y500000D01*
X640000Y555000D02*
X645000Y560000D01*
X545000Y500000D02*
X550000Y505000D01*
X565000Y580000D02*
X570000Y575000D01*
X620000D02*
X625000Y580000D01*
X585000Y470000D02*
X590000Y475000D01*
X650000Y525000D02*
X655000Y520000D01*
X650000Y535000D02*
X655000Y540000D01*
X535000D02*
X540000Y535000D01*
X585000Y590000D02*
X590000Y585000D01*
X600000D02*
X605000Y590000D01*
X630000Y485000D02*
X635000Y480000D01*
X640000Y495000D02*
X645000Y490000D01*
X650000Y515000D02*
X655000Y510000D01*
X555000Y480000D02*
X560000Y485000D01*
X545000Y490000D02*
X550000Y495000D01*
X650000Y545000D02*
X655000Y550000D01*
X545000Y570000D02*
X550000Y565000D01*
X640000D02*
X645000Y570000D01*
X555000Y580000D02*
X560000Y575000D01*
X630000D02*
X635000Y580000D01*
X610000Y585000D02*
X615000Y590000D01*
X535000Y550000D02*
X540000Y545000D01*
X650000Y555000D02*
X655000Y560000D01*
X535000D02*
X540000Y555000D01*
X565000Y590000D02*
X570000Y585000D01*
X620000D02*
X625000Y590000D01*
X545000Y480000D02*
X550000Y485000D01*
X640000D02*
X645000Y480000D01*
X640000Y575000D02*
X645000Y580000D01*
X545000D02*
X550000Y575000D01*
X585000Y460000D02*
X590000Y465000D01*
X660000Y525000D02*
X665000Y520000D01*
X660000Y535000D02*
X665000Y540000D01*
X650000Y565000D02*
X655000Y570000D01*
X525000Y540000D02*
X530000Y535000D01*
X535000Y570000D02*
X540000Y565000D01*
X585000Y600000D02*
X590000Y595000D01*
X600000D02*
X605000Y600000D01*
X660000Y515000D02*
X665000Y510000D01*
X660000Y545000D02*
X665000Y550000D01*
X525000D02*
X530000Y545000D01*
X610000Y595000D02*
X615000Y600000D01*
X660000Y555000D02*
X665000Y560000D01*
X620000Y595000D02*
X625000Y600000D01*
X525000Y560000D02*
X530000Y555000D01*
X565000Y600000D02*
X570000Y595000D01*
X640000Y475000D02*
X645000Y470000D01*
X650000Y575000D02*
X655000Y580000D01*
X640000Y585000D02*
X645000Y590000D01*
X535000Y580000D02*
X540000Y575000D01*
X545000Y590000D02*
X550000Y585000D01*
X660000Y565000D02*
X665000Y570000D01*
X525000D02*
X530000Y565000D01*
X535000Y470000D02*
X540000Y475000D01*
X640000Y465000D02*
X645000Y460000D01*
X660000Y575000D02*
X665000Y580000D01*
X640000Y595000D02*
X645000Y600000D01*
X525000Y580000D02*
X530000Y575000D01*
X545000Y600000D02*
X550000Y595000D01*
X650000Y465000D02*
X655000Y460000D01*
X535000D02*
X540000Y465000D01*
X525000Y470000D02*
X530000Y475000D01*
X660000Y585000D02*
X665000Y590000D01*
X525000D02*
X530000Y585000D01*
X660000Y465000D02*
X665000Y460000D01*
X525000D02*
X530000Y465000D01*
X660000Y595000D02*
X665000Y600000D01*
X525000D02*
X530000Y595000D01*
X255000Y590000D02*
X260000Y585000D01*
X255000Y600000D02*
X260000Y595000D01*
X581000Y276000D02*
X594000D01*
X595000Y277000D01*
Y267000D02*
X595000Y267000D01*
X604000D01*
X595000Y260000D02*
Y267000D01*
X599750Y243000D02*
Y255250D01*
X595000Y260000D02*
X599750Y255250D01*
X611000Y254250D02*
Y261000D01*
X617000Y267000D02*
Y271000D01*
X611000Y261000D02*
X617000Y267000D01*
X637000Y254250D02*
Y274000D01*
X633000Y278000D02*
X637000Y274000D01*
X758500Y245500D02*
Y253750D01*
Y245500D02*
X763000Y241000D01*
X763000Y186000D02*
X763000Y186000D01*
Y241000D01*
X545000Y550000D02*
X550000Y545000D01*
X775274Y617294D02*
Y621117D01*
X777615Y623458D01*
Y626872D01*
X784274Y617294D02*
Y621117D01*
X781933Y623458D02*
X784274Y621117D01*
X781933Y623458D02*
Y626872D01*
X285000Y590000D02*
X290000Y585000D01*
X285000Y600000D02*
X290000Y595000D01*
X775837Y628650D02*
X777615Y626872D01*
X781933D02*
X783711Y628650D01*
X59000Y693000D02*
X75858D01*
X80264Y688594D01*
Y682926D02*
Y688594D01*
Y664972D02*
Y672926D01*
X58000Y586000D02*
X74654D01*
X79254Y581400D01*
Y575984D02*
Y581400D01*
X823722Y759968D02*
Y819912D01*
X839216D01*
X843534Y824230D01*
X737362Y163830D02*
X746454D01*
X756708Y163576D02*
X775462D01*
X763000Y163592D02*
Y186000D01*
X743284Y566166D02*
Y569548D01*
X745998Y572262D01*
X758444D01*
X761722Y575540D01*
X769170D01*
X762818Y570540D02*
X769170D01*
X758444Y566166D02*
X762818Y570540D01*
X753284Y566166D02*
X758444D01*
X49864Y762174D02*
Y769366D01*
Y775288D01*
X56212Y781636D01*
Y790854D01*
Y800784D02*
Y809854D01*
Y800784D02*
X58420Y798576D01*
X68326D01*
X77216Y789686D01*
X91299D01*
X25400Y820928D02*
Y837184D01*
Y820928D02*
X34212Y812116D01*
Y800354D02*
Y812116D01*
D41*
X842518Y684060D02*
X865162D01*
X783628Y772630D02*
X806450D01*
X840740Y772550D02*
X863482D01*
X808482Y684060D02*
X832104D01*
X648500Y276606D02*
Y298106D01*
X675500Y276606D02*
Y298106D01*
X806000Y354500D02*
X829000D01*
X806000Y327500D02*
X829000D01*
X796500Y471500D02*
X797000Y471000D01*
X829500D01*
X773500Y471500D02*
X796500D01*
X773500Y444500D02*
X796500D01*
X797000Y445000D01*
X829500D01*
X860000Y327500D02*
X883000D01*
X860000Y354500D02*
X883000D01*
X693614Y307788D02*
X704088Y318262D01*
X693420Y334010D02*
X703894Y344484D01*
X705164Y345500D02*
X712000D01*
X743500D01*
X712000Y318500D02*
X742500D01*
X581500Y222500D02*
Y254000D01*
X555000Y222000D02*
Y253500D01*
X554500Y254000D02*
X555000Y253500D01*
X554500Y254000D02*
Y275500D01*
X581000Y254500D02*
Y276000D01*
X662500Y174500D02*
Y196000D01*
X662000Y196500D02*
X662500Y196000D01*
X689500Y174500D02*
Y196000D01*
X689000Y196500D02*
X689500Y196000D01*
X747000Y183000D02*
Y204500D01*
X779000Y183000D02*
Y204500D01*
X724000Y232000D02*
X745500D01*
X755784Y837612D02*
X778002D01*
D42*
X541782Y133096D02*
Y162052D01*
X521789Y113103D02*
X541782Y133096D01*
X521789Y108785D02*
Y113103D01*
X492706Y176294D02*
X497000Y172000D01*
X479724Y176294D02*
X492706D01*
X509089Y118691D02*
X524000Y133602D01*
X509089Y108785D02*
Y118691D01*
X524000Y133602D02*
Y162000D01*
X496389Y138357D02*
Y161389D01*
D43*
X836186Y525544D02*
X840486Y529844D01*
X836186Y519928D02*
Y525544D01*
X795170Y527040D02*
X806186D01*
X818388Y519938D02*
X818398Y519928D01*
X826186D01*
X844477Y519938D02*
X852758D01*
X836196D02*
X844477D01*
X804274Y616294D02*
X812710D01*
X797670Y540540D02*
X806422D01*
X797670D02*
Y549540D01*
X825800Y520314D02*
X826186Y519928D01*
X825800Y520314D02*
Y539750D01*
X804274Y607294D02*
Y616294D01*
X792336Y724438D02*
Y731884D01*
X794662Y734210D02*
X807680D01*
X792336Y731884D02*
X794662Y734210D01*
X782828Y724438D02*
X792336D01*
X786600Y684060D02*
X808482D01*
X782828Y687832D02*
X786600Y684060D01*
X782828Y687832D02*
Y694118D01*
X804420Y819914D02*
X813391D01*
X869696Y734060D02*
Y742014D01*
X831930Y751960D02*
Y769446D01*
X835034Y772550D02*
X840740D01*
X831930Y769446D02*
X835034Y772550D01*
X807680Y751800D02*
Y771400D01*
Y751800D02*
X818770D01*
X807680Y740710D02*
Y751800D01*
X838430Y751960D02*
Y770240D01*
X844930Y751960D02*
Y768360D01*
Y686472D02*
Y703460D01*
X838430Y688148D02*
Y703460D01*
X831930Y684234D02*
X832104Y684060D01*
X831930Y684234D02*
Y703460D01*
X856180Y740710D02*
Y751906D01*
X844930Y751960D02*
X869642D01*
X844930Y703460D02*
X845010Y703380D01*
X856180D01*
Y714710D01*
X778000Y819162D02*
Y827112D01*
X829000Y422250D02*
Y440000D01*
X835500Y422250D02*
Y440000D01*
X822500Y422250D02*
Y439070D01*
X739000Y302250D02*
Y319070D01*
X752000Y302250D02*
Y320000D01*
X745500Y302250D02*
Y320000D01*
X581914Y223500D02*
X599750D01*
X581660Y230000D02*
X599750D01*
X648500Y243250D02*
Y276606D01*
X648250Y243000D02*
X648500Y243250D01*
X582930Y217000D02*
X599750D01*
X765000Y253750D02*
X769250D01*
X778000Y245000D01*
Y231500D02*
Y245000D01*
X239014Y693420D02*
X240030D01*
X242869Y690581D01*
Y678400D02*
Y690581D01*
X234869Y678400D02*
Y690291D01*
X237998Y693420D01*
X239014D01*
X380498D02*
X381514D01*
X377369Y690291D02*
X380498Y693420D01*
X377369Y678400D02*
Y690291D01*
X385369Y678400D02*
Y690581D01*
X382530Y693420D02*
X385369Y690581D01*
X381514Y693420D02*
X382530D01*
X522998D02*
X524014D01*
X519869Y690291D02*
X522998Y693420D01*
X519869Y678400D02*
Y690291D01*
X527869Y678400D02*
Y690581D01*
X525030Y693420D02*
X527869Y690581D01*
X524014Y693420D02*
X525030D01*
X665498D02*
X666514D01*
X662369Y690291D02*
X665498Y693420D01*
X662369Y678400D02*
Y690291D01*
X670369Y678400D02*
Y690581D01*
X667530Y693420D02*
X670369Y690581D01*
X666514Y693420D02*
X667530D01*
D44*
X783628Y799630D02*
X806450D01*
X840740Y799550D02*
X863388D01*
X842518Y657060D02*
X865416D01*
X808482D02*
X842518D01*
X741834Y509150D02*
Y526322D01*
Y494150D02*
X754770D01*
X741834Y509150D02*
X754770D01*
X729114Y546608D02*
X742050D01*
D45*
X309372Y402116D02*
Y415946D01*
X292608Y376136D02*
Y387350D01*
X290830Y374616D02*
X314452D01*
D46*
X277000Y359022D02*
X290830D01*
Y374022D02*
Y374616D01*
X290408D02*
X290830D01*
Y385830D02*
X293000Y388000D01*
D47*
X473869Y719400D02*
D03*
X569869D02*
D03*
X616369D02*
D03*
X712369D02*
D03*
X188869D02*
D03*
X284869D02*
D03*
X331369D02*
D03*
X427369D02*
D03*
D48*
X850000Y1023800D02*
D03*
Y998400D02*
D03*
X97000Y1023800D02*
D03*
Y998400D02*
D03*
D49*
X664369Y657400D02*
D03*
X712369D02*
D03*
X569869D02*
D03*
X521869D02*
D03*
X427369D02*
D03*
X379369D02*
D03*
X236869D02*
D03*
X284869D02*
D03*
D50*
X165669Y800400D02*
D03*
X308169D02*
D03*
X593169D02*
D03*
X735669Y800400D02*
D03*
D51*
X165669Y1028400D02*
D03*
Y928400D02*
D03*
X165669Y828400D02*
D03*
Y753400D02*
D03*
X165669Y703400D02*
D03*
X593169Y1028400D02*
D03*
Y928400D02*
D03*
X593169Y828400D02*
D03*
Y753400D02*
D03*
X593169Y703400D02*
D03*
X308169Y978400D02*
D03*
X735669Y678400D02*
D03*
X735669Y778400D02*
D03*
X735669Y878400D02*
D03*
Y978400D02*
D03*
X450669Y678400D02*
D03*
Y778400D02*
D03*
Y878400D02*
D03*
Y978400D02*
D03*
X308169Y878400D02*
D03*
X308169Y778400D02*
D03*
X308169Y678400D02*
D03*
D52*
X63065Y881761D02*
D03*
X836965D02*
D03*
X63065Y222123D02*
D03*
X836965D02*
D03*
D53*
X780670Y582040D02*
D03*
X788670Y574040D02*
D03*
X780670D02*
D03*
X788670Y582040D02*
D03*
D54*
X65278Y760476D02*
D03*
X775462Y958342D02*
D03*
X732282Y420370D02*
D03*
X115570Y971042D02*
D03*
X128778Y800608D02*
D03*
X109474Y823722D02*
D03*
X33020Y1035812D02*
D03*
X25400Y837184D02*
D03*
X115570Y546862D02*
D03*
X104648Y538734D02*
D03*
X744220Y477012D02*
D03*
X777494Y393192D02*
D03*
X724662Y404876D02*
D03*
X656844Y430784D02*
D03*
X646938Y429006D02*
D03*
X648970Y416560D02*
D03*
X695960Y632206D02*
D03*
X784860Y965454D02*
D03*
X785114Y1036066D02*
D03*
X123190Y524256D02*
D03*
X245000Y460000D02*
D03*
X255000D02*
D03*
X265000D02*
D03*
X275000D02*
D03*
X733806Y477012D02*
D03*
X636016Y431038D02*
D03*
X268979Y342646D02*
D03*
X541782Y162052D02*
D03*
X708914Y618236D02*
D03*
X575000Y600000D02*
D03*
X708914Y626212D02*
D03*
X575000Y590000D02*
D03*
X646000Y643000D02*
D03*
X645000Y635000D02*
D03*
X620776Y627634D02*
D03*
X457962Y498856D02*
D03*
X455422Y475742D02*
D03*
X135128Y520954D02*
D03*
X265000Y480000D02*
D03*
X353000Y615000D02*
D03*
X380000D02*
D03*
X220000Y625000D02*
D03*
X325000Y615000D02*
D03*
X257000D02*
D03*
X280000D02*
D03*
X806186Y527040D02*
D03*
X818388Y519938D02*
D03*
X844477D02*
D03*
X812710Y616294D02*
D03*
X806422Y540540D02*
D03*
X780170Y540140D02*
D03*
X794274Y623554D02*
D03*
X795274Y734314D02*
D03*
X804420Y819914D02*
D03*
X869696Y734060D02*
D03*
X321000Y642000D02*
D03*
X494000Y613000D02*
D03*
X545000Y624000D02*
D03*
X600000Y637000D02*
D03*
X200000Y655000D02*
D03*
X340000Y660000D02*
D03*
X508254Y660908D02*
D03*
X487000Y656000D02*
D03*
X620000Y650000D02*
D03*
X700000D02*
D03*
X685000Y630000D02*
D03*
X670000Y615000D02*
D03*
X650000Y650000D02*
D03*
X675000D02*
D03*
X645000Y615000D02*
D03*
X620000Y635000D02*
D03*
X615000Y615000D02*
D03*
X575000Y635000D02*
D03*
X570000Y615000D02*
D03*
X545000Y640000D02*
D03*
X535000Y635000D02*
D03*
X547000Y614000D02*
D03*
X495000Y640000D02*
D03*
X510000Y625000D02*
D03*
X525000Y610000D02*
D03*
X410000Y645000D02*
D03*
X395000Y630000D02*
D03*
X330000Y645000D02*
D03*
X205000Y640000D02*
D03*
X230000Y615000D02*
D03*
X285000Y645000D02*
D03*
X250000D02*
D03*
X849449Y44269D02*
D03*
X177000Y531000D02*
D03*
X203000Y574000D02*
D03*
X115400Y1053000D02*
D03*
X150000Y534000D02*
D03*
X167000Y526000D02*
D03*
X464000Y522000D02*
D03*
X495000Y547000D02*
D03*
X862000Y973000D02*
D03*
X872000Y1053000D02*
D03*
X675000Y590000D02*
D03*
X642369Y776150D02*
D03*
X555000Y490000D02*
D03*
X635000Y510000D02*
D03*
Y500000D02*
D03*
Y490000D02*
D03*
X345000D02*
D03*
Y500000D02*
D03*
Y510000D02*
D03*
X23000Y961276D02*
D03*
X246869Y776150D02*
D03*
X238869Y744650D02*
D03*
X230869Y776150D02*
D03*
X674369D02*
D03*
X666369Y744650D02*
D03*
X658369Y776150D02*
D03*
X531869D02*
D03*
X523869Y744650D02*
D03*
X515869Y776150D02*
D03*
X389369D02*
D03*
X381369Y744650D02*
D03*
X373369Y776150D02*
D03*
X186000Y622570D02*
D03*
X186000Y637696D02*
D03*
X162000D02*
D03*
X194000Y643000D02*
D03*
X500888Y534920D02*
D03*
X565000Y510000D02*
D03*
X555000Y560000D02*
D03*
X565000D02*
D03*
X545000D02*
D03*
Y540000D02*
D03*
X525000Y530000D02*
D03*
X535000D02*
D03*
X635000Y560000D02*
D03*
X645000Y550000D02*
D03*
X355000D02*
D03*
X345000Y560000D02*
D03*
X681344Y524438D02*
D03*
X193446Y553540D02*
D03*
X665000Y500000D02*
D03*
X655000D02*
D03*
X509089Y108785D02*
D03*
X665000Y490000D02*
D03*
X778000Y819162D02*
D03*
X391922Y524256D02*
D03*
Y514256D02*
D03*
X245000Y530000D02*
D03*
X235000D02*
D03*
X222869Y744650D02*
D03*
X214869Y776150D02*
D03*
X206869Y744650D02*
D03*
X198869Y776150D02*
D03*
X254869D02*
D03*
X262869Y744650D02*
D03*
X270869Y776150D02*
D03*
X630369Y694150D02*
D03*
X654369D02*
D03*
X678369D02*
D03*
X702369D02*
D03*
X202869D02*
D03*
X226869D02*
D03*
X250869D02*
D03*
X274869D02*
D03*
X698369Y776150D02*
D03*
X690369Y744650D02*
D03*
X682369Y776150D02*
D03*
X626369D02*
D03*
X634369Y744650D02*
D03*
X650369D02*
D03*
X413369Y776150D02*
D03*
X405369Y744650D02*
D03*
X397369Y776150D02*
D03*
X341369D02*
D03*
X349369Y744650D02*
D03*
X357369Y776150D02*
D03*
X365369Y744650D02*
D03*
X507869D02*
D03*
X499869Y776150D02*
D03*
X491869Y744650D02*
D03*
X483869Y776150D02*
D03*
X539869D02*
D03*
X547869Y744650D02*
D03*
X555869Y776150D02*
D03*
X559869Y694150D02*
D03*
X535869D02*
D03*
X511869D02*
D03*
X487869D02*
D03*
X417369D02*
D03*
X393369D02*
D03*
X369369D02*
D03*
X345369D02*
D03*
X457724Y175504D02*
D03*
X516000Y225322D02*
D03*
X479724Y205584D02*
D03*
X535790Y191000D02*
D03*
X457000Y159750D02*
D03*
X447000D02*
D03*
X521789Y108785D02*
D03*
X502739Y107007D02*
D03*
X490039Y108785D02*
D03*
X483689Y105991D02*
D03*
X700000Y265000D02*
D03*
X79254Y558034D02*
D03*
X80264Y664972D02*
D03*
X26950Y662550D02*
D03*
X39650D02*
D03*
X52350D02*
D03*
X65050D02*
D03*
X26950Y749450D02*
D03*
X39650D02*
D03*
X52350D02*
D03*
X51350Y642450D02*
D03*
X38650D02*
D03*
X25950D02*
D03*
X64050Y555550D02*
D03*
X38650D02*
D03*
X25950D02*
D03*
X90000Y500300D02*
D03*
Y474900D02*
D03*
Y449500D02*
D03*
Y424100D02*
D03*
Y398700D02*
D03*
Y373300D02*
D03*
Y347900D02*
D03*
X25000D02*
D03*
Y373300D02*
D03*
Y398700D02*
D03*
Y424100D02*
D03*
Y449500D02*
D03*
Y474900D02*
D03*
Y500300D02*
D03*
X129000Y543500D02*
D03*
X827250Y302000D02*
D03*
X737362Y163830D02*
D03*
X788952Y364860D02*
D03*
X869122Y391526D02*
D03*
X850000Y435000D02*
D03*
X785622Y271526D02*
D03*
X785876Y255524D02*
D03*
X787146Y310388D02*
D03*
X836749Y34363D02*
D03*
X798649D02*
D03*
X754126Y34290D02*
D03*
X716099Y34363D02*
D03*
X623062Y34290D02*
D03*
X585470D02*
D03*
X540839Y34471D02*
D03*
X502920Y34290D02*
D03*
X302079Y138357D02*
D03*
X50619Y44377D02*
D03*
X69669Y44269D02*
D03*
X88719Y44523D02*
D03*
X107769Y44269D02*
D03*
X126819D02*
D03*
X152219Y44377D02*
D03*
X171269D02*
D03*
X190319Y44269D02*
D03*
X209369D02*
D03*
Y138357D02*
D03*
X107769Y138249D02*
D03*
X88719D02*
D03*
X69669D02*
D03*
X50546Y138430D02*
D03*
X64132Y74422D02*
D03*
X56156D02*
D03*
X75206Y83820D02*
D03*
X102232Y74422D02*
D03*
X94256D02*
D03*
X203832D02*
D03*
X195856D02*
D03*
X184782Y83820D02*
D03*
X176806D02*
D03*
X165732Y74422D02*
D03*
X146682Y84074D02*
D03*
X138706D02*
D03*
X269516Y74422D02*
D03*
X277492D02*
D03*
X288566Y83820D02*
D03*
X296542D02*
D03*
X307616Y74422D02*
D03*
X315592D02*
D03*
X326666Y83820D02*
D03*
X334642D02*
D03*
X83182D02*
D03*
X113306Y84074D02*
D03*
X121282D02*
D03*
X409216Y74168D02*
D03*
X417192D02*
D03*
X352066Y83566D02*
D03*
X360042D02*
D03*
X371116Y74168D02*
D03*
X379092D02*
D03*
X390166Y83820D02*
D03*
X398142D02*
D03*
X263979Y138249D02*
D03*
X283029Y138357D02*
D03*
X321129Y138249D02*
D03*
X346529Y138357D02*
D03*
X365579D02*
D03*
X403679D02*
D03*
X422729Y138249D02*
D03*
X263979Y44377D02*
D03*
X283029Y44269D02*
D03*
X302079D02*
D03*
X321129D02*
D03*
X340179Y44377D02*
D03*
X365579Y44269D02*
D03*
X384629D02*
D03*
X403679Y44377D02*
D03*
X422729Y44269D02*
D03*
X477339Y138357D02*
D03*
X496389D02*
D03*
X515439D02*
D03*
X534489D02*
D03*
X553539D02*
D03*
X578939D02*
D03*
X597989D02*
D03*
X477339Y44269D02*
D03*
X515439Y44377D02*
D03*
X553539Y44269D02*
D03*
X572589Y109039D02*
D03*
X604339D02*
D03*
X483689Y73479D02*
D03*
X521789D02*
D03*
X346529D02*
D03*
X340179Y109293D02*
D03*
X559889Y109039D02*
D03*
X566239Y138357D02*
D03*
X610689D02*
D03*
X617039Y109039D02*
D03*
X133169Y73587D02*
D03*
X126819Y108966D02*
D03*
X490039Y44269D02*
D03*
X496389Y73333D02*
D03*
X528139Y44269D02*
D03*
X534489Y73333D02*
D03*
X559889Y73225D02*
D03*
X566239Y44269D02*
D03*
X572589Y73333D02*
D03*
X578939Y44631D02*
D03*
X597989Y44377D02*
D03*
X604339Y73333D02*
D03*
X610689Y44269D02*
D03*
X617039Y73225D02*
D03*
X636089Y44377D02*
D03*
X690699Y138357D02*
D03*
X697049Y109039D02*
D03*
X709749Y138249D02*
D03*
X728799D02*
D03*
X747849D02*
D03*
X766899Y138357D02*
D03*
X773249Y109039D02*
D03*
X779599Y138357D02*
D03*
X785949Y109039D02*
D03*
X792299Y138357D02*
D03*
X811349D02*
D03*
X817699Y109039D02*
D03*
X824049Y138357D02*
D03*
X830399Y109039D02*
D03*
X690699Y44269D02*
D03*
X697049Y73333D02*
D03*
X703399Y44269D02*
D03*
X709749Y73333D02*
D03*
X728799Y44269D02*
D03*
X735149Y73333D02*
D03*
X741499Y44523D02*
D03*
X747849Y73333D02*
D03*
X766899Y44377D02*
D03*
X773249Y73333D02*
D03*
X779599Y44269D02*
D03*
X785949Y73333D02*
D03*
X792299Y44269D02*
D03*
X811349Y44377D02*
D03*
X817699Y73333D02*
D03*
X824049Y44269D02*
D03*
X830399Y73333D02*
D03*
X384629Y138357D02*
D03*
X190319Y138249D02*
D03*
X171269D02*
D03*
X152219Y138357D02*
D03*
X133169Y138103D02*
D03*
X295000Y520000D02*
D03*
X315000D02*
D03*
X295000Y540000D02*
D03*
X315000D02*
D03*
X295000Y510000D02*
D03*
X285000Y520000D02*
D03*
X315000Y510000D02*
D03*
X325000Y520000D02*
D03*
X285000Y540000D02*
D03*
X295000Y550000D02*
D03*
X325000Y540000D02*
D03*
X315000Y550000D02*
D03*
X285000Y510000D02*
D03*
X325000D02*
D03*
X285000Y550000D02*
D03*
X325000D02*
D03*
X295000Y500000D02*
D03*
X315000D02*
D03*
X275000Y520000D02*
D03*
Y540000D02*
D03*
X335000Y520000D02*
D03*
Y540000D02*
D03*
X295000Y560000D02*
D03*
X315000D02*
D03*
X285000Y500000D02*
D03*
X275000Y510000D02*
D03*
X325000Y500000D02*
D03*
X335000Y510000D02*
D03*
X275000Y550000D02*
D03*
X285000Y560000D02*
D03*
X335000Y550000D02*
D03*
X325000Y560000D02*
D03*
X275000Y500000D02*
D03*
X295000Y490000D02*
D03*
X315000D02*
D03*
X335000Y500000D02*
D03*
X265000Y520000D02*
D03*
Y540000D02*
D03*
X275000Y560000D02*
D03*
X345000Y520000D02*
D03*
Y540000D02*
D03*
X335000Y560000D02*
D03*
X295000Y570000D02*
D03*
X315000D02*
D03*
X285000Y490000D02*
D03*
X265000Y510000D02*
D03*
X325000Y490000D02*
D03*
X265000Y550000D02*
D03*
X345000D02*
D03*
X285000Y570000D02*
D03*
X325000D02*
D03*
X275000Y490000D02*
D03*
X265000Y500000D02*
D03*
X335000Y490000D02*
D03*
X265000Y560000D02*
D03*
X275000Y570000D02*
D03*
X335000D02*
D03*
X295000Y480000D02*
D03*
X315000D02*
D03*
X255000Y520000D02*
D03*
Y540000D02*
D03*
X355000Y520000D02*
D03*
Y540000D02*
D03*
X295000Y580000D02*
D03*
X315000D02*
D03*
X285000Y480000D02*
D03*
X255000Y510000D02*
D03*
X325000Y480000D02*
D03*
X355000Y510000D02*
D03*
X255000Y550000D02*
D03*
X285000Y580000D02*
D03*
X325000D02*
D03*
X265000Y490000D02*
D03*
Y570000D02*
D03*
X345000D02*
D03*
X275000Y480000D02*
D03*
X335000D02*
D03*
X255000Y500000D02*
D03*
Y560000D02*
D03*
X355000Y500000D02*
D03*
Y560000D02*
D03*
X275000Y580000D02*
D03*
X335000D02*
D03*
X295000Y470000D02*
D03*
X245000Y540000D02*
D03*
X365000Y520000D02*
D03*
Y540000D02*
D03*
X295000Y590000D02*
D03*
X315000D02*
D03*
X255000Y490000D02*
D03*
X345000Y480000D02*
D03*
X355000Y490000D02*
D03*
X365000Y510000D02*
D03*
X245000Y550000D02*
D03*
X255000Y570000D02*
D03*
X355000D02*
D03*
X265000Y580000D02*
D03*
X345000D02*
D03*
X365000Y550000D02*
D03*
X325000Y590000D02*
D03*
X245000Y560000D02*
D03*
X365000Y500000D02*
D03*
Y560000D02*
D03*
X275000Y590000D02*
D03*
X335000D02*
D03*
X255000Y480000D02*
D03*
X355000D02*
D03*
X255000Y580000D02*
D03*
X355000D02*
D03*
X295000Y460000D02*
D03*
X365000Y490000D02*
D03*
X235000Y540000D02*
D03*
X245000Y570000D02*
D03*
X375000Y520000D02*
D03*
Y540000D02*
D03*
X365000Y570000D02*
D03*
X295000Y600000D02*
D03*
X315000D02*
D03*
X235000Y550000D02*
D03*
X375000Y510000D02*
D03*
Y550000D02*
D03*
X325000Y600000D02*
D03*
X375000Y500000D02*
D03*
X235000Y560000D02*
D03*
X275000Y600000D02*
D03*
X375000Y560000D02*
D03*
X335000Y600000D02*
D03*
X255000Y470000D02*
D03*
X355000D02*
D03*
X365000Y480000D02*
D03*
X245000Y580000D02*
D03*
X365000D02*
D03*
X355000Y590000D02*
D03*
X235000Y570000D02*
D03*
X375000Y490000D02*
D03*
Y570000D02*
D03*
X245000Y470000D02*
D03*
X365000D02*
D03*
X355000Y460000D02*
D03*
X375000Y480000D02*
D03*
X235000Y580000D02*
D03*
X375000D02*
D03*
X355000Y600000D02*
D03*
X235000Y470000D02*
D03*
X365000Y460000D02*
D03*
X375000Y470000D02*
D03*
X235000Y590000D02*
D03*
X375000D02*
D03*
X235000Y460000D02*
D03*
X375000D02*
D03*
X235000Y600000D02*
D03*
X375000D02*
D03*
X605000Y520000D02*
D03*
X585000D02*
D03*
Y540000D02*
D03*
X605000D02*
D03*
Y510000D02*
D03*
X615000Y520000D02*
D03*
X585000Y510000D02*
D03*
X575000Y520000D02*
D03*
X615000Y540000D02*
D03*
X605000Y550000D02*
D03*
X575000Y540000D02*
D03*
X585000Y550000D02*
D03*
X615000Y510000D02*
D03*
X575000D02*
D03*
X615000Y550000D02*
D03*
X575000D02*
D03*
X585000Y500000D02*
D03*
X605000D02*
D03*
X625000Y520000D02*
D03*
Y540000D02*
D03*
X565000Y520000D02*
D03*
Y540000D02*
D03*
X585000Y560000D02*
D03*
X605000D02*
D03*
X615000Y500000D02*
D03*
X625000Y510000D02*
D03*
X575000Y500000D02*
D03*
X625000Y550000D02*
D03*
X615000Y560000D02*
D03*
X565000Y550000D02*
D03*
X575000Y560000D02*
D03*
X625000Y500000D02*
D03*
X585000Y490000D02*
D03*
X605000D02*
D03*
X565000Y500000D02*
D03*
X635000Y520000D02*
D03*
Y540000D02*
D03*
X625000Y560000D02*
D03*
X555000Y520000D02*
D03*
Y540000D02*
D03*
X585000Y570000D02*
D03*
X605000D02*
D03*
X615000Y490000D02*
D03*
X575000D02*
D03*
X555000Y510000D02*
D03*
Y550000D02*
D03*
X635000D02*
D03*
X575000Y570000D02*
D03*
X615000D02*
D03*
X625000Y490000D02*
D03*
X565000D02*
D03*
X555000Y500000D02*
D03*
X565000Y570000D02*
D03*
X625000D02*
D03*
X585000Y480000D02*
D03*
X605000D02*
D03*
X645000Y520000D02*
D03*
Y540000D02*
D03*
X545000Y520000D02*
D03*
X585000Y580000D02*
D03*
X605000D02*
D03*
X615000Y480000D02*
D03*
X645000Y510000D02*
D03*
X575000Y480000D02*
D03*
X545000Y510000D02*
D03*
X575000Y580000D02*
D03*
X615000D02*
D03*
X635000Y570000D02*
D03*
X555000D02*
D03*
X565000Y480000D02*
D03*
X625000D02*
D03*
X645000Y500000D02*
D03*
Y560000D02*
D03*
X545000Y500000D02*
D03*
X565000Y580000D02*
D03*
X625000D02*
D03*
X585000Y470000D02*
D03*
X655000Y520000D02*
D03*
Y540000D02*
D03*
X535000D02*
D03*
X585000Y590000D02*
D03*
X605000D02*
D03*
X635000Y480000D02*
D03*
X645000Y490000D02*
D03*
X655000Y510000D02*
D03*
X575000Y470000D02*
D03*
X555000Y480000D02*
D03*
X545000Y490000D02*
D03*
X655000Y550000D02*
D03*
X545000Y570000D02*
D03*
X645000D02*
D03*
X555000Y580000D02*
D03*
X635000D02*
D03*
X615000Y590000D02*
D03*
X535000Y550000D02*
D03*
X565000Y470000D02*
D03*
X655000Y560000D02*
D03*
X535000D02*
D03*
X565000Y590000D02*
D03*
X625000D02*
D03*
X545000Y480000D02*
D03*
X645000D02*
D03*
Y580000D02*
D03*
X545000D02*
D03*
X655000Y490000D02*
D03*
X585000Y460000D02*
D03*
X555000Y470000D02*
D03*
X665000Y520000D02*
D03*
Y540000D02*
D03*
X655000Y570000D02*
D03*
X525000Y540000D02*
D03*
X535000Y570000D02*
D03*
X585000Y600000D02*
D03*
X605000D02*
D03*
X575000Y460000D02*
D03*
X665000Y510000D02*
D03*
Y550000D02*
D03*
X525000D02*
D03*
X615000Y600000D02*
D03*
X565000Y460000D02*
D03*
X665000Y560000D02*
D03*
X625000Y600000D02*
D03*
X525000Y560000D02*
D03*
X565000Y600000D02*
D03*
X645000Y470000D02*
D03*
X655000Y480000D02*
D03*
X545000Y470000D02*
D03*
X655000Y580000D02*
D03*
X645000Y590000D02*
D03*
X535000Y580000D02*
D03*
X545000Y590000D02*
D03*
X555000Y460000D02*
D03*
X665000Y570000D02*
D03*
X525000D02*
D03*
X655000Y470000D02*
D03*
X535000D02*
D03*
X545000Y460000D02*
D03*
X645000D02*
D03*
X665000Y480000D02*
D03*
Y580000D02*
D03*
X645000Y600000D02*
D03*
X525000Y580000D02*
D03*
X545000Y600000D02*
D03*
X655000Y460000D02*
D03*
X665000Y470000D02*
D03*
X535000Y460000D02*
D03*
X525000Y470000D02*
D03*
X665000Y590000D02*
D03*
X525000D02*
D03*
X665000Y460000D02*
D03*
X525000D02*
D03*
X665000Y600000D02*
D03*
X525000D02*
D03*
X285000Y470000D02*
D03*
Y460000D02*
D03*
X275000Y470000D02*
D03*
X265000D02*
D03*
X157756Y74422D02*
D03*
X255000Y590000D02*
D03*
Y600000D02*
D03*
X633000Y278000D02*
D03*
X631000Y266000D02*
D03*
X687000Y217000D02*
D03*
X715678Y269524D02*
D03*
X585289Y108785D02*
D03*
X591639D02*
D03*
X623389Y138357D02*
D03*
X629739D02*
D03*
X804999Y108785D02*
D03*
X798649D02*
D03*
X836749Y138357D02*
D03*
X843099D02*
D03*
X864235Y123571D02*
D03*
X192532Y431292D02*
D03*
X455930Y431546D02*
D03*
X531876Y228854D02*
D03*
X542798Y243586D02*
D03*
X228869Y713888D02*
D03*
X239014Y693420D02*
D03*
X381514D02*
D03*
X524014D02*
D03*
X666514D02*
D03*
X371869Y714888D02*
D03*
X513869Y713888D02*
D03*
X655869D02*
D03*
X547223Y798977D02*
D03*
X405223Y797977D02*
D03*
X262223Y796977D02*
D03*
X689609Y797977D02*
D03*
X545000Y550000D02*
D03*
X285000Y630000D02*
D03*
X255000D02*
D03*
X323000Y635000D02*
D03*
X775665Y628650D02*
D03*
X783641D02*
D03*
X285000Y590000D02*
D03*
Y600000D02*
D03*
X436118Y524764D02*
D03*
X368000Y638000D02*
D03*
X356108Y626364D02*
D03*
Y645160D02*
D03*
D55*
X740000Y290000D02*
D03*
X752000D02*
D03*
X764000D02*
D03*
X740000Y278000D02*
D03*
X752000D02*
D03*
X764000D02*
D03*
X740000Y266000D02*
D03*
X752000D02*
D03*
X764000D02*
D03*
X612000Y218000D02*
D03*
Y230000D02*
D03*
Y242000D02*
D03*
X624000Y218000D02*
D03*
Y230000D02*
D03*
Y242000D02*
D03*
X636000Y218000D02*
D03*
Y230000D02*
D03*
Y242000D02*
D03*
X847500Y386000D02*
D03*
X835500D02*
D03*
X823500D02*
D03*
X847500Y398000D02*
D03*
X835500D02*
D03*
X823500D02*
D03*
X847500Y410000D02*
D03*
X835500D02*
D03*
X823500D02*
D03*
X819930Y739710D02*
D03*
X831930D02*
D03*
X843930D02*
D03*
X819930Y727710D02*
D03*
X831930D02*
D03*
X843930D02*
D03*
X819930Y715710D02*
D03*
X831930D02*
D03*
X843930D02*
D03*
M02*
