%FSLAX44Y44*%
%MOMM*%
G71*
G01*
G75*
G04 Layer_Color=8421504*
%ADD10C,0.2032*%
%ADD11R,1.6000X1.6000*%
%ADD12R,0.2800X0.8000*%
%ADD13R,0.8000X0.2800*%
%ADD14R,0.6000X0.6000*%
%ADD15R,0.6000X0.6000*%
%ADD16R,1.4000X1.0000*%
G04:AMPARAMS|DCode=17|XSize=0.5mm|YSize=0.6mm|CornerRadius=0.125mm|HoleSize=0mm|Usage=FLASHONLY|Rotation=0.000|XOffset=0mm|YOffset=0mm|HoleType=Round|Shape=RoundedRectangle|*
%AMROUNDEDRECTD17*
21,1,0.5000,0.3500,0,0,0.0*
21,1,0.2500,0.6000,0,0,0.0*
1,1,0.2500,0.1250,-0.1750*
1,1,0.2500,-0.1250,-0.1750*
1,1,0.2500,-0.1250,0.1750*
1,1,0.2500,0.1250,0.1750*
%
%ADD17ROUNDEDRECTD17*%
%ADD18R,2.6000X1.1000*%
G04:AMPARAMS|DCode=19|XSize=0.5mm|YSize=0.6mm|CornerRadius=0.125mm|HoleSize=0mm|Usage=FLASHONLY|Rotation=270.000|XOffset=0mm|YOffset=0mm|HoleType=Round|Shape=RoundedRectangle|*
%AMROUNDEDRECTD19*
21,1,0.5000,0.3500,0,0,270.0*
21,1,0.2500,0.6000,0,0,270.0*
1,1,0.2500,-0.1750,-0.1250*
1,1,0.2500,-0.1750,0.1250*
1,1,0.2500,0.1750,0.1250*
1,1,0.2500,0.1750,-0.1250*
%
%ADD19ROUNDEDRECTD19*%
%ADD20R,1.1000X1.3500*%
%ADD21R,1.0000X1.4000*%
%ADD22R,1.4000X1.1000*%
%ADD23R,1.1500X1.8000*%
%ADD24R,0.9500X0.3500*%
%ADD25R,0.3500X0.9500*%
%ADD26R,3.3000X3.3000*%
%ADD27R,0.6000X1.8000*%
%ADD28R,0.5000X2.0000*%
%ADD29R,1.1000X1.4000*%
%ADD30R,1.1500X1.7000*%
%ADD31R,3.3000X3.3000*%
%ADD32R,1.1000X2.6000*%
%ADD33R,1.7000X1.1500*%
%ADD34C,0.4500*%
%ADD35C,1.0000*%
%ADD36R,12.0500X2.0000*%
%ADD37R,1.8000X1.8000*%
%ADD38R,3.6800X1.2700*%
%ADD39C,0.2540*%
%ADD40C,0.1270*%
%ADD41C,0.5080*%
%ADD42C,0.1524*%
%ADD43C,0.3048*%
%ADD44C,0.5000*%
%ADD45C,1.2700*%
%ADD46C,0.3810*%
%ADD47C,1.6500*%
%ADD48C,1.4732*%
%ADD49C,1.2802*%
%ADD50C,0.9500*%
%ADD51R,2.0000X2.0000*%
%ADD52C,8.0000*%
%ADD53C,0.5080*%
%ADD54C,0.4928*%
%ADD55C,0.6600*%
%ADD56C,1.0160*%
%ADD57C,1.0080*%
%ADD58C,2.0580*%
%ADD59C,2.0320*%
%ADD60C,1.4580*%
%ADD61C,1.5580*%
%ADD62C,1.6764*%
%ADD63C,4.3180*%
%ADD64C,0.7620*%
%ADD65C,0.1000*%
%ADD66C,0.1016*%
%ADD67C,0.8380*%
%ADD68R,0.4064X2.1590*%
%ADD69R,18.0340X0.5080*%
%ADD70C,0.2500*%
%ADD71C,0.6000*%
%ADD72C,0.2000*%
%ADD73R,1.1200X1.1200*%
%ADD74R,2.3100X2.3100*%
%ADD75R,2.3100X2.3100*%
D12*
X777170Y593540D02*
D03*
X782170D02*
D03*
X787170D02*
D03*
X792170D02*
D03*
Y562540D02*
D03*
X787170D02*
D03*
X782170D02*
D03*
X777170D02*
D03*
D13*
X800170Y585540D02*
D03*
Y580540D02*
D03*
Y575540D02*
D03*
Y570540D02*
D03*
X769170D02*
D03*
Y575540D02*
D03*
Y580540D02*
D03*
Y585540D02*
D03*
D14*
X104822Y769366D02*
D03*
X94822D02*
D03*
X49864D02*
D03*
X59864D02*
D03*
X777670Y549040D02*
D03*
X767670D02*
D03*
X852758Y519938D02*
D03*
X862758D02*
D03*
X746708Y163576D02*
D03*
X756708D02*
D03*
X777000Y329000D02*
D03*
X787000D02*
D03*
X777000Y319000D02*
D03*
X787000D02*
D03*
X845000Y302000D02*
D03*
X835000D02*
D03*
X859000Y454000D02*
D03*
X869000D02*
D03*
X447000Y152000D02*
D03*
X457000D02*
D03*
X859000Y444000D02*
D03*
X869000D02*
D03*
X461000Y76000D02*
D03*
X471000D02*
D03*
X33000Y1045400D02*
D03*
X23000D02*
D03*
Y969400D02*
D03*
X33000D02*
D03*
X775000Y1045400D02*
D03*
X785000D02*
D03*
Y973400D02*
D03*
X775000D02*
D03*
X823388Y819912D02*
D03*
X813388D02*
D03*
X743284Y566166D02*
D03*
X753284D02*
D03*
D15*
X758190Y410290D02*
D03*
Y420290D02*
D03*
X704850Y410290D02*
D03*
Y420290D02*
D03*
X691000Y265000D02*
D03*
Y255000D02*
D03*
X782828Y704118D02*
D03*
Y694118D02*
D03*
Y724438D02*
D03*
Y714438D02*
D03*
X595000Y267000D02*
D03*
Y277000D02*
D03*
X778002Y827612D02*
D03*
Y837612D02*
D03*
X604000Y267000D02*
D03*
Y277000D02*
D03*
X80264Y672926D02*
D03*
Y682926D02*
D03*
X79254Y565984D02*
D03*
Y575984D02*
D03*
X524000Y172000D02*
D03*
Y162000D02*
D03*
X534000D02*
D03*
Y172000D02*
D03*
X497000Y162000D02*
D03*
Y172000D02*
D03*
X506984Y172132D02*
D03*
Y162132D02*
D03*
D16*
X740111Y394905D02*
D03*
Y375905D02*
D03*
X762111Y385405D02*
D03*
X687787Y394905D02*
D03*
Y375905D02*
D03*
X709787Y385405D02*
D03*
X107774Y791108D02*
D03*
Y810108D02*
D03*
X85774Y800608D02*
D03*
X56212Y790854D02*
D03*
Y809854D02*
D03*
X34212Y800354D02*
D03*
X457724Y185794D02*
D03*
X479724Y195294D02*
D03*
Y176294D02*
D03*
X461000Y99500D02*
D03*
Y118500D02*
D03*
X439000Y109000D02*
D03*
D17*
X792480Y724582D02*
D03*
Y714582D02*
D03*
X788000Y291000D02*
D03*
Y301000D02*
D03*
X715678Y250524D02*
D03*
Y260524D02*
D03*
X869696Y742014D02*
D03*
Y752014D02*
D03*
X878000Y409000D02*
D03*
Y399000D02*
D03*
X775274Y607294D02*
D03*
Y617294D02*
D03*
X784274Y607294D02*
D03*
Y617294D02*
D03*
D18*
X842518Y657060D02*
D03*
Y684060D02*
D03*
X808482Y657060D02*
D03*
Y684060D02*
D03*
X806450Y799630D02*
D03*
Y772630D02*
D03*
X831000Y471500D02*
D03*
Y444500D02*
D03*
X747000Y231500D02*
D03*
Y204500D02*
D03*
X712000Y345500D02*
D03*
Y318500D02*
D03*
X796500Y471500D02*
D03*
Y444500D02*
D03*
X779000Y231500D02*
D03*
Y204500D02*
D03*
X746000Y345500D02*
D03*
Y318500D02*
D03*
X862000Y354500D02*
D03*
Y327500D02*
D03*
X827000D02*
D03*
Y354500D02*
D03*
X840740Y799550D02*
D03*
Y772550D02*
D03*
D19*
X836186Y519928D02*
D03*
X826186D02*
D03*
X668000Y217000D02*
D03*
X678000D02*
D03*
X797670Y540540D02*
D03*
X787670D02*
D03*
X617000Y271000D02*
D03*
X627000D02*
D03*
X797670Y549540D02*
D03*
X787670D02*
D03*
X798952Y372110D02*
D03*
X788952D02*
D03*
X753284Y578358D02*
D03*
X743284D02*
D03*
X753284Y587502D02*
D03*
X743284D02*
D03*
X804274Y607294D02*
D03*
X794274D02*
D03*
X804274Y616294D02*
D03*
X794274D02*
D03*
D20*
X780170Y527040D02*
D03*
X795170D02*
D03*
D21*
X516000Y213000D02*
D03*
X525500Y191000D02*
D03*
X506500D02*
D03*
D22*
X290830Y374022D02*
D03*
Y359022D02*
D03*
X741834Y509150D02*
D03*
Y494150D02*
D03*
X430022Y539616D02*
D03*
Y554616D02*
D03*
X471170Y567316D02*
D03*
Y552316D02*
D03*
D23*
X813000Y1053400D02*
D03*
X843000D02*
D03*
X813000Y972400D02*
D03*
X843000D02*
D03*
X60000Y971400D02*
D03*
X90000D02*
D03*
X60000Y1053400D02*
D03*
X90000D02*
D03*
D24*
X727750Y291000D02*
D03*
Y284500D02*
D03*
Y278000D02*
D03*
Y271500D02*
D03*
Y265000D02*
D03*
X776250D02*
D03*
Y271500D02*
D03*
Y278000D02*
D03*
Y284500D02*
D03*
Y291000D02*
D03*
X648250Y217000D02*
D03*
Y223500D02*
D03*
Y230000D02*
D03*
Y236500D02*
D03*
Y243000D02*
D03*
X599750D02*
D03*
Y236500D02*
D03*
Y230000D02*
D03*
Y223500D02*
D03*
Y217000D02*
D03*
X859750Y411000D02*
D03*
Y404500D02*
D03*
Y398000D02*
D03*
Y391500D02*
D03*
Y385000D02*
D03*
X811250D02*
D03*
Y391500D02*
D03*
Y398000D02*
D03*
Y404500D02*
D03*
Y411000D02*
D03*
X807680Y714710D02*
D03*
Y721210D02*
D03*
Y727710D02*
D03*
Y734210D02*
D03*
Y740710D02*
D03*
X856180D02*
D03*
Y734210D02*
D03*
Y727710D02*
D03*
Y721210D02*
D03*
Y714710D02*
D03*
D25*
X739000Y253750D02*
D03*
X745500D02*
D03*
X752000D02*
D03*
X758500D02*
D03*
X765000D02*
D03*
Y302250D02*
D03*
X758500D02*
D03*
X752000D02*
D03*
X745500D02*
D03*
X739000D02*
D03*
X611000Y205750D02*
D03*
X617500D02*
D03*
X624000D02*
D03*
X630500D02*
D03*
X637000D02*
D03*
Y254250D02*
D03*
X630500D02*
D03*
X624000D02*
D03*
X617500D02*
D03*
X611000D02*
D03*
X822500Y422250D02*
D03*
X829000D02*
D03*
X835500D02*
D03*
X842000D02*
D03*
X848500D02*
D03*
Y373750D02*
D03*
X842000D02*
D03*
X835500D02*
D03*
X829000D02*
D03*
X822500D02*
D03*
X844930Y703460D02*
D03*
X838430D02*
D03*
X831930D02*
D03*
X825430D02*
D03*
X818930D02*
D03*
Y751960D02*
D03*
X825430D02*
D03*
X831930D02*
D03*
X838430D02*
D03*
X844930D02*
D03*
D27*
X65050Y732000D02*
D03*
X52350D02*
D03*
X39650D02*
D03*
X26950D02*
D03*
X65050Y680000D02*
D03*
X52350D02*
D03*
X39650D02*
D03*
X26950D02*
D03*
X25950Y573000D02*
D03*
X38650D02*
D03*
X51350D02*
D03*
X64050D02*
D03*
X25950Y625000D02*
D03*
X38650D02*
D03*
X51350D02*
D03*
X64050D02*
D03*
D28*
X559869Y678400D02*
D03*
X487869D02*
D03*
X495869D02*
D03*
X503869D02*
D03*
X511869D02*
D03*
X519869D02*
D03*
X527869D02*
D03*
X535869D02*
D03*
X543869D02*
D03*
X551869D02*
D03*
X547869Y760400D02*
D03*
X539869D02*
D03*
X531869D02*
D03*
X523869D02*
D03*
X515869D02*
D03*
X507869D02*
D03*
X499869D02*
D03*
X491869D02*
D03*
X483869D02*
D03*
X555869Y760400D02*
D03*
X702369Y678400D02*
D03*
X630369D02*
D03*
X638369D02*
D03*
X646369D02*
D03*
X654369D02*
D03*
X662369D02*
D03*
X670369D02*
D03*
X678369D02*
D03*
X686369D02*
D03*
X694369D02*
D03*
X690369Y760400D02*
D03*
X682369D02*
D03*
X674369D02*
D03*
X666369D02*
D03*
X658369D02*
D03*
X650369D02*
D03*
X642369D02*
D03*
X634369D02*
D03*
X626369D02*
D03*
X698369Y760400D02*
D03*
X274869Y678400D02*
D03*
X202869D02*
D03*
X210869D02*
D03*
X218869D02*
D03*
X226869D02*
D03*
X234869D02*
D03*
X242869D02*
D03*
X250869D02*
D03*
X258869D02*
D03*
X266869D02*
D03*
X262869Y760400D02*
D03*
X254869D02*
D03*
X246869D02*
D03*
X238869D02*
D03*
X230869D02*
D03*
X222869D02*
D03*
X214869D02*
D03*
X206869D02*
D03*
X198869D02*
D03*
X270869Y760400D02*
D03*
X417369Y678400D02*
D03*
X345369D02*
D03*
X353369D02*
D03*
X361369D02*
D03*
X369369D02*
D03*
X377369D02*
D03*
X385369D02*
D03*
X393369D02*
D03*
X401369D02*
D03*
X409369D02*
D03*
X405369Y760400D02*
D03*
X397369D02*
D03*
X389369D02*
D03*
X381369D02*
D03*
X373369D02*
D03*
X365369D02*
D03*
X357369D02*
D03*
X349369D02*
D03*
X341369D02*
D03*
X413369Y760400D02*
D03*
D29*
X714114Y546608D02*
D03*
X729114D02*
D03*
D30*
X714214Y527050D02*
D03*
X741714D02*
D03*
D32*
X554444Y223000D02*
D03*
X581444D02*
D03*
X554444Y255524D02*
D03*
X581444D02*
D03*
X662500Y196000D02*
D03*
X689500D02*
D03*
X648500Y276606D02*
D03*
X675500D02*
D03*
D33*
X309372Y402116D02*
D03*
Y374616D02*
D03*
X450088Y539462D02*
D03*
Y566962D02*
D03*
D34*
X370000Y595000D02*
D03*
Y585000D02*
D03*
Y575000D02*
D03*
Y565000D02*
D03*
Y555000D02*
D03*
Y545000D02*
D03*
Y535000D02*
D03*
Y525000D02*
D03*
Y515000D02*
D03*
Y505000D02*
D03*
Y495000D02*
D03*
Y485000D02*
D03*
Y475000D02*
D03*
Y465000D02*
D03*
X360000Y595000D02*
D03*
Y585000D02*
D03*
Y575000D02*
D03*
Y565000D02*
D03*
Y555000D02*
D03*
Y545000D02*
D03*
Y535000D02*
D03*
Y525000D02*
D03*
Y515000D02*
D03*
Y505000D02*
D03*
Y495000D02*
D03*
Y485000D02*
D03*
Y475000D02*
D03*
Y465000D02*
D03*
X350000Y595000D02*
D03*
Y585000D02*
D03*
Y575000D02*
D03*
Y565000D02*
D03*
Y555000D02*
D03*
Y545000D02*
D03*
Y535000D02*
D03*
Y525000D02*
D03*
Y515000D02*
D03*
Y505000D02*
D03*
Y495000D02*
D03*
Y485000D02*
D03*
Y475000D02*
D03*
Y465000D02*
D03*
X340000Y595000D02*
D03*
Y585000D02*
D03*
Y575000D02*
D03*
Y565000D02*
D03*
Y555000D02*
D03*
Y545000D02*
D03*
Y535000D02*
D03*
Y525000D02*
D03*
Y515000D02*
D03*
Y505000D02*
D03*
Y495000D02*
D03*
Y485000D02*
D03*
Y475000D02*
D03*
Y465000D02*
D03*
X330000Y595000D02*
D03*
Y585000D02*
D03*
Y575000D02*
D03*
Y565000D02*
D03*
Y555000D02*
D03*
Y545000D02*
D03*
Y535000D02*
D03*
Y525000D02*
D03*
Y515000D02*
D03*
Y505000D02*
D03*
Y495000D02*
D03*
Y485000D02*
D03*
Y475000D02*
D03*
Y465000D02*
D03*
X320000Y595000D02*
D03*
Y585000D02*
D03*
Y575000D02*
D03*
Y565000D02*
D03*
Y555000D02*
D03*
Y545000D02*
D03*
Y535000D02*
D03*
Y525000D02*
D03*
Y515000D02*
D03*
Y505000D02*
D03*
Y495000D02*
D03*
Y485000D02*
D03*
Y475000D02*
D03*
Y465000D02*
D03*
X310000Y595000D02*
D03*
Y585000D02*
D03*
Y575000D02*
D03*
Y565000D02*
D03*
Y555000D02*
D03*
Y545000D02*
D03*
Y535000D02*
D03*
Y525000D02*
D03*
Y515000D02*
D03*
Y505000D02*
D03*
Y495000D02*
D03*
Y485000D02*
D03*
Y475000D02*
D03*
Y465000D02*
D03*
X300000Y595000D02*
D03*
Y585000D02*
D03*
Y575000D02*
D03*
Y565000D02*
D03*
Y555000D02*
D03*
Y545000D02*
D03*
Y535000D02*
D03*
Y525000D02*
D03*
Y515000D02*
D03*
Y505000D02*
D03*
Y495000D02*
D03*
Y485000D02*
D03*
Y475000D02*
D03*
Y465000D02*
D03*
X290000Y595000D02*
D03*
Y585000D02*
D03*
Y575000D02*
D03*
Y565000D02*
D03*
Y555000D02*
D03*
Y545000D02*
D03*
Y535000D02*
D03*
Y525000D02*
D03*
Y515000D02*
D03*
Y505000D02*
D03*
Y495000D02*
D03*
Y485000D02*
D03*
Y475000D02*
D03*
Y465000D02*
D03*
X280000Y595000D02*
D03*
Y585000D02*
D03*
Y575000D02*
D03*
Y565000D02*
D03*
Y555000D02*
D03*
Y545000D02*
D03*
Y535000D02*
D03*
Y525000D02*
D03*
Y515000D02*
D03*
Y505000D02*
D03*
Y495000D02*
D03*
Y485000D02*
D03*
Y475000D02*
D03*
Y465000D02*
D03*
X270000Y595000D02*
D03*
Y585000D02*
D03*
Y575000D02*
D03*
Y565000D02*
D03*
Y555000D02*
D03*
Y545000D02*
D03*
Y535000D02*
D03*
Y525000D02*
D03*
Y515000D02*
D03*
Y505000D02*
D03*
Y495000D02*
D03*
Y485000D02*
D03*
Y475000D02*
D03*
Y465000D02*
D03*
X260000Y595000D02*
D03*
Y585000D02*
D03*
Y575000D02*
D03*
Y565000D02*
D03*
Y555000D02*
D03*
Y545000D02*
D03*
Y535000D02*
D03*
Y525000D02*
D03*
Y515000D02*
D03*
Y505000D02*
D03*
Y495000D02*
D03*
Y485000D02*
D03*
Y475000D02*
D03*
Y465000D02*
D03*
X250000Y595000D02*
D03*
Y585000D02*
D03*
Y575000D02*
D03*
Y565000D02*
D03*
Y555000D02*
D03*
Y545000D02*
D03*
Y535000D02*
D03*
Y525000D02*
D03*
Y515000D02*
D03*
Y505000D02*
D03*
Y495000D02*
D03*
Y485000D02*
D03*
Y475000D02*
D03*
Y465000D02*
D03*
X240000Y595000D02*
D03*
Y585000D02*
D03*
Y575000D02*
D03*
Y565000D02*
D03*
Y555000D02*
D03*
Y545000D02*
D03*
Y535000D02*
D03*
Y525000D02*
D03*
Y515000D02*
D03*
Y505000D02*
D03*
Y495000D02*
D03*
Y485000D02*
D03*
Y475000D02*
D03*
Y465000D02*
D03*
X530000D02*
D03*
Y475000D02*
D03*
Y485000D02*
D03*
Y495000D02*
D03*
Y505000D02*
D03*
Y515000D02*
D03*
Y525000D02*
D03*
Y535000D02*
D03*
Y545000D02*
D03*
Y555000D02*
D03*
Y565000D02*
D03*
Y575000D02*
D03*
Y585000D02*
D03*
Y595000D02*
D03*
X540000Y465000D02*
D03*
Y475000D02*
D03*
Y485000D02*
D03*
Y495000D02*
D03*
Y505000D02*
D03*
Y515000D02*
D03*
Y525000D02*
D03*
Y535000D02*
D03*
Y545000D02*
D03*
Y555000D02*
D03*
Y565000D02*
D03*
Y575000D02*
D03*
Y585000D02*
D03*
Y595000D02*
D03*
X550000Y465000D02*
D03*
Y475000D02*
D03*
Y485000D02*
D03*
Y495000D02*
D03*
Y505000D02*
D03*
Y515000D02*
D03*
Y525000D02*
D03*
Y535000D02*
D03*
Y545000D02*
D03*
Y555000D02*
D03*
Y565000D02*
D03*
Y575000D02*
D03*
Y585000D02*
D03*
Y595000D02*
D03*
X560000Y465000D02*
D03*
Y475000D02*
D03*
Y485000D02*
D03*
Y495000D02*
D03*
Y505000D02*
D03*
Y515000D02*
D03*
Y525000D02*
D03*
Y535000D02*
D03*
Y545000D02*
D03*
Y555000D02*
D03*
Y565000D02*
D03*
Y575000D02*
D03*
Y585000D02*
D03*
Y595000D02*
D03*
X570000Y465000D02*
D03*
Y475000D02*
D03*
Y485000D02*
D03*
Y495000D02*
D03*
Y505000D02*
D03*
Y515000D02*
D03*
Y525000D02*
D03*
Y535000D02*
D03*
Y545000D02*
D03*
Y555000D02*
D03*
Y565000D02*
D03*
Y575000D02*
D03*
Y585000D02*
D03*
Y595000D02*
D03*
X580000Y465000D02*
D03*
Y475000D02*
D03*
Y485000D02*
D03*
Y495000D02*
D03*
Y505000D02*
D03*
Y515000D02*
D03*
Y525000D02*
D03*
Y535000D02*
D03*
Y545000D02*
D03*
Y555000D02*
D03*
Y565000D02*
D03*
Y575000D02*
D03*
Y585000D02*
D03*
Y595000D02*
D03*
X590000Y465000D02*
D03*
Y475000D02*
D03*
Y485000D02*
D03*
Y495000D02*
D03*
Y505000D02*
D03*
Y515000D02*
D03*
Y525000D02*
D03*
Y535000D02*
D03*
Y545000D02*
D03*
Y555000D02*
D03*
Y565000D02*
D03*
Y575000D02*
D03*
Y585000D02*
D03*
Y595000D02*
D03*
X600000Y465000D02*
D03*
Y475000D02*
D03*
Y485000D02*
D03*
Y495000D02*
D03*
Y505000D02*
D03*
Y515000D02*
D03*
Y525000D02*
D03*
Y535000D02*
D03*
Y545000D02*
D03*
Y555000D02*
D03*
Y565000D02*
D03*
Y575000D02*
D03*
Y585000D02*
D03*
Y595000D02*
D03*
X610000Y465000D02*
D03*
Y475000D02*
D03*
Y485000D02*
D03*
Y495000D02*
D03*
Y505000D02*
D03*
Y515000D02*
D03*
Y525000D02*
D03*
Y535000D02*
D03*
Y545000D02*
D03*
Y555000D02*
D03*
Y565000D02*
D03*
Y575000D02*
D03*
Y585000D02*
D03*
Y595000D02*
D03*
X620000Y465000D02*
D03*
Y475000D02*
D03*
Y485000D02*
D03*
Y495000D02*
D03*
Y505000D02*
D03*
Y515000D02*
D03*
Y525000D02*
D03*
Y535000D02*
D03*
Y545000D02*
D03*
Y555000D02*
D03*
Y565000D02*
D03*
Y575000D02*
D03*
Y585000D02*
D03*
Y595000D02*
D03*
X630000Y465000D02*
D03*
Y475000D02*
D03*
Y485000D02*
D03*
Y495000D02*
D03*
Y505000D02*
D03*
Y515000D02*
D03*
Y525000D02*
D03*
Y535000D02*
D03*
Y545000D02*
D03*
Y555000D02*
D03*
Y565000D02*
D03*
Y575000D02*
D03*
Y585000D02*
D03*
Y595000D02*
D03*
X640000Y465000D02*
D03*
Y475000D02*
D03*
Y485000D02*
D03*
Y495000D02*
D03*
Y505000D02*
D03*
Y515000D02*
D03*
Y525000D02*
D03*
Y535000D02*
D03*
Y545000D02*
D03*
Y555000D02*
D03*
Y565000D02*
D03*
Y575000D02*
D03*
Y585000D02*
D03*
Y595000D02*
D03*
X650000Y465000D02*
D03*
Y475000D02*
D03*
Y485000D02*
D03*
Y495000D02*
D03*
Y505000D02*
D03*
Y515000D02*
D03*
Y525000D02*
D03*
Y535000D02*
D03*
Y545000D02*
D03*
Y555000D02*
D03*
Y565000D02*
D03*
Y575000D02*
D03*
Y585000D02*
D03*
Y595000D02*
D03*
X660000Y465000D02*
D03*
Y475000D02*
D03*
Y485000D02*
D03*
Y495000D02*
D03*
Y505000D02*
D03*
Y515000D02*
D03*
Y525000D02*
D03*
Y535000D02*
D03*
Y545000D02*
D03*
Y555000D02*
D03*
Y565000D02*
D03*
Y575000D02*
D03*
Y585000D02*
D03*
Y595000D02*
D03*
D35*
X55000Y300000D02*
D03*
X625000Y170000D02*
D03*
X875000Y950000D02*
D03*
X115000Y927000D02*
D03*
D36*
X664469Y847400D02*
D03*
X521969D02*
D03*
X379469D02*
D03*
X236919D02*
D03*
D37*
X825800Y539750D02*
D03*
Y565150D02*
D03*
Y590550D02*
D03*
X863300D02*
D03*
Y565150D02*
D03*
Y539750D02*
D03*
D38*
X76750Y410600D02*
D03*
Y385200D02*
D03*
Y359800D02*
D03*
Y486800D02*
D03*
Y461400D02*
D03*
Y436000D02*
D03*
Y512200D02*
D03*
X27250D02*
D03*
Y436000D02*
D03*
Y461400D02*
D03*
Y486800D02*
D03*
Y359800D02*
D03*
Y385200D02*
D03*
Y410600D02*
D03*
D73*
X784670Y578040D02*
D03*
D74*
X752000Y278000D02*
D03*
X835500Y398000D02*
D03*
X831930Y727710D02*
D03*
D75*
X624000Y230000D02*
D03*
M02*
