%FSLAX44Y44*%
%MOMM*%
G71*
G01*
G75*
G04 Layer_Physical_Order=8*
G04 Layer_Color=16711680*
%ADD10C,0.2032*%
%ADD11R,1.6000X1.6000*%
%ADD12R,0.2800X0.8000*%
%ADD13R,0.8000X0.2800*%
%ADD14R,0.6000X0.6000*%
%ADD15R,0.6000X0.6000*%
%ADD16R,1.4000X1.0000*%
G04:AMPARAMS|DCode=17|XSize=0.5mm|YSize=0.6mm|CornerRadius=0.125mm|HoleSize=0mm|Usage=FLASHONLY|Rotation=0.000|XOffset=0mm|YOffset=0mm|HoleType=Round|Shape=RoundedRectangle|*
%AMROUNDEDRECTD17*
21,1,0.5000,0.3500,0,0,0.0*
21,1,0.2500,0.6000,0,0,0.0*
1,1,0.2500,0.1250,-0.1750*
1,1,0.2500,-0.1250,-0.1750*
1,1,0.2500,-0.1250,0.1750*
1,1,0.2500,0.1250,0.1750*
%
%ADD17ROUNDEDRECTD17*%
%ADD18R,2.6000X1.1000*%
G04:AMPARAMS|DCode=19|XSize=0.5mm|YSize=0.6mm|CornerRadius=0.125mm|HoleSize=0mm|Usage=FLASHONLY|Rotation=270.000|XOffset=0mm|YOffset=0mm|HoleType=Round|Shape=RoundedRectangle|*
%AMROUNDEDRECTD19*
21,1,0.5000,0.3500,0,0,270.0*
21,1,0.2500,0.6000,0,0,270.0*
1,1,0.2500,-0.1750,-0.1250*
1,1,0.2500,-0.1750,0.1250*
1,1,0.2500,0.1750,0.1250*
1,1,0.2500,0.1750,-0.1250*
%
%ADD19ROUNDEDRECTD19*%
%ADD20R,1.1000X1.3500*%
%ADD21R,1.0000X1.4000*%
%ADD22R,1.4000X1.1000*%
%ADD23R,1.1500X1.8000*%
%ADD24R,0.9500X0.3500*%
%ADD25R,0.3500X0.9500*%
%ADD26R,3.3000X3.3000*%
%ADD27R,0.6000X1.8000*%
%ADD28R,0.5000X2.0000*%
%ADD29R,1.1000X1.4000*%
%ADD30R,1.1500X1.7000*%
%ADD31R,3.3000X3.3000*%
%ADD32R,1.1000X2.6000*%
%ADD33R,1.7000X1.1500*%
%ADD34C,0.4500*%
%ADD35C,1.0000*%
%ADD36R,12.0500X2.0000*%
%ADD37R,1.8000X1.8000*%
%ADD38R,3.6800X1.2700*%
%ADD39C,0.2540*%
%ADD40C,0.1270*%
%ADD41C,0.5080*%
%ADD42C,0.1524*%
%ADD43C,0.3048*%
%ADD44C,0.5000*%
%ADD45C,1.2700*%
%ADD46C,0.3810*%
%ADD47C,1.6500*%
%ADD48C,1.4732*%
%ADD49C,1.2802*%
%ADD50C,0.9500*%
%ADD51R,2.0000X2.0000*%
%ADD52C,8.0000*%
%ADD53C,0.5080*%
%ADD54C,0.4928*%
%ADD55C,0.6600*%
%ADD56C,1.0160*%
%ADD57C,1.0080*%
%ADD58C,2.0580*%
%ADD59C,2.0320*%
%ADD60C,1.4580*%
%ADD61C,1.5580*%
%ADD62C,1.6764*%
%ADD63C,4.3180*%
%ADD64C,0.7620*%
%ADD65C,0.1000*%
%ADD66C,0.1016*%
%ADD67C,0.8380*%
%ADD68R,0.4064X2.1590*%
%ADD69R,18.0340X0.5080*%
D10*
X250190Y418857D02*
Y465190D01*
X182159Y344719D02*
X255524Y418084D01*
X177841Y346508D02*
X250190Y418857D01*
X177841Y296552D02*
Y346508D01*
X182159Y296552D02*
Y344719D01*
Y296552D02*
X185000Y293711D01*
X260504Y393328D02*
Y465504D01*
X250190Y465190D02*
X255000Y470000D01*
X265176Y391185D02*
Y459823D01*
X202159Y328168D02*
X265176Y391185D01*
X260504Y393328D02*
X260858Y392974D01*
X197841Y329957D02*
X260858Y392974D01*
X197841Y296552D02*
Y329957D01*
X202159Y296552D02*
Y328168D01*
Y296552D02*
X205000Y293711D01*
X255000Y460000D02*
X255524Y459476D01*
Y418084D02*
Y459476D01*
X270504Y458131D02*
Y465504D01*
Y458131D02*
X270510Y458125D01*
Y373899D02*
Y458125D01*
X260504Y465504D02*
X265000Y470000D01*
X274828Y372110D02*
Y459828D01*
X226000Y323282D02*
X274828Y372110D01*
X221682Y325071D02*
X270510Y373899D01*
X221682Y295682D02*
Y325071D01*
X226000Y290000D02*
Y323282D01*
X280416Y381584D02*
Y465416D01*
X270504Y465504D02*
X275000Y470000D01*
X284734Y383000D02*
Y459734D01*
Y383000D02*
X295000Y372734D01*
X280416Y381584D02*
X290000Y372000D01*
Y360999D02*
Y372000D01*
X295000Y349000D02*
Y372734D01*
X290000Y350000D02*
Y360999D01*
X236000Y296000D02*
X290000Y350000D01*
X246000Y300000D02*
X295000Y349000D01*
X246000Y290000D02*
Y300000D01*
X193446Y553540D02*
X200756D01*
X574553Y410574D02*
Y459553D01*
X540407Y376428D02*
X574553Y410574D01*
X503174Y376428D02*
X540407D01*
X570230Y413251D02*
Y465230D01*
X537725Y380746D02*
X570230Y413251D01*
X501385Y380746D02*
X537725D01*
X410639Y136079D02*
Y161221D01*
X507000Y257583D01*
Y280000D01*
X517000Y261476D02*
Y280000D01*
X415769Y160245D02*
X517000Y261476D01*
X415769Y136079D02*
Y160245D01*
X410029Y135469D02*
X410639Y136079D01*
X410029Y123571D02*
Y135469D01*
X416379Y123571D02*
Y135469D01*
X415769Y136079D02*
X416379Y135469D01*
X659698Y504698D02*
X690129D01*
X655000Y500000D02*
X659698Y504698D01*
X690129D02*
X716280Y478547D01*
X665000Y500000D02*
X688720D01*
X711962Y476758D01*
X517000Y290000D02*
X526974Y299974D01*
X627792Y304292D02*
X711962Y388462D01*
Y476758D01*
X526974Y299974D02*
X629974D01*
X716280Y386280D01*
Y478547D01*
X511231Y294569D02*
X520954Y304292D01*
X627792D01*
X511231Y294231D02*
Y294569D01*
X507000Y290000D02*
X511231Y294231D01*
X236000Y290000D02*
Y296000D01*
X539750Y455930D02*
Y464750D01*
X520446Y436626D02*
X539750Y455930D01*
X485545Y436626D02*
X520446D01*
X521716Y432308D02*
X545000Y455592D01*
X487333Y432308D02*
X521716D01*
X655000Y470000D02*
X659496Y474496D01*
X670283D01*
X681736Y463042D01*
X660301Y495300D02*
X686319D01*
X655000Y490000D02*
X660301Y495300D01*
X686319D02*
X703072Y478547D01*
X570230Y465230D02*
X575000Y470000D01*
X574734Y459734D02*
X575000Y460000D01*
X564828Y459828D02*
X565000Y460000D01*
X555000D02*
X555176Y459823D01*
X545000Y460000D02*
X545524Y459476D01*
X703072Y392572D02*
Y478547D01*
X627746Y317246D02*
X703072Y392572D01*
X508000Y317246D02*
X627746D01*
X698754Y394432D02*
Y476758D01*
X625886Y321564D02*
X698754Y394432D01*
X506211Y321564D02*
X625886D01*
X196669Y135634D02*
X197279Y136244D01*
X295119Y136079D02*
X295729Y135469D01*
Y123571D02*
Y135469D01*
X289379D02*
X289989Y136079D01*
X289379Y123571D02*
Y135469D01*
X314169Y136079D02*
X314779Y135469D01*
Y123571D02*
Y135469D01*
X308429D02*
X309039Y136079D01*
X308429Y123571D02*
Y135469D01*
X202409Y136244D02*
X203019Y135634D01*
Y123571D02*
Y135634D01*
X196669Y123571D02*
Y135634D01*
X114729Y71309D02*
Y82652D01*
X62709Y73000D02*
X64132Y74422D01*
X56156D02*
X57579Y73000D01*
X62709Y71309D02*
Y73000D01*
Y71309D02*
X63319Y70699D01*
Y58801D02*
Y70699D01*
X57579Y71309D02*
Y73000D01*
X56969Y70699D02*
X57579Y71309D01*
X56969Y58801D02*
Y70699D01*
X81759Y82398D02*
X83182Y83820D01*
X75206D02*
X76629Y82398D01*
X81759Y71309D02*
Y82398D01*
Y71309D02*
X82369Y70699D01*
Y58801D02*
Y70699D01*
X76629Y71309D02*
Y82398D01*
X76019Y70699D02*
X76629Y71309D01*
X76019Y58801D02*
Y70699D01*
X100809Y73000D02*
X102232Y74422D01*
X94256D02*
X95679Y73000D01*
X100809Y71309D02*
Y73000D01*
Y71309D02*
X101419Y70699D01*
Y58801D02*
Y70699D01*
X95679Y71309D02*
Y73000D01*
X95069Y70699D02*
X95679Y71309D01*
X95069Y58801D02*
Y70699D01*
X119859Y82652D02*
X121282Y84074D01*
X113306D02*
X114729Y82652D01*
X119859Y71309D02*
Y82652D01*
Y71309D02*
X120469Y70699D01*
Y58801D02*
Y70699D01*
X114119D02*
X114729Y71309D01*
X114119Y58801D02*
Y70699D01*
X202409Y73000D02*
X203832Y74422D01*
X195856D02*
X197279Y73000D01*
X202409Y71309D02*
Y73000D01*
Y71309D02*
X203019Y70699D01*
Y58801D02*
Y70699D01*
X197279Y71309D02*
Y73000D01*
X196669Y70699D02*
X197279Y71309D01*
X196669Y58801D02*
Y70699D01*
X183359Y82398D02*
X184782Y83820D01*
X176806D02*
X178229Y82398D01*
X183359Y71309D02*
Y82398D01*
Y71309D02*
X183969Y70699D01*
Y58801D02*
Y70699D01*
X178229Y71309D02*
Y82398D01*
X177619Y70699D02*
X178229Y71309D01*
X177619Y58801D02*
Y70699D01*
X164309Y73000D02*
X165732Y74422D01*
X157756D02*
X159179Y73000D01*
X164309Y71309D02*
Y73000D01*
Y71309D02*
X164919Y70699D01*
Y58801D02*
Y70699D01*
X159179Y71309D02*
Y73000D01*
X158569Y70699D02*
X159179Y71309D01*
X158569Y58801D02*
Y70699D01*
X145259Y82652D02*
X146682Y84074D01*
X138706D02*
X140129Y82652D01*
X145259Y71309D02*
Y82652D01*
Y71309D02*
X145869Y70699D01*
Y58801D02*
Y70699D01*
X140129Y71309D02*
Y82652D01*
X139519Y70699D02*
X140129Y71309D01*
X139519Y58801D02*
Y70699D01*
X270329Y58801D02*
Y70699D01*
X270939Y71309D01*
Y73000D01*
X276679Y58801D02*
Y70699D01*
X276069Y71309D02*
X276679Y70699D01*
X276069Y71309D02*
Y73000D01*
X269516Y74422D02*
X270939Y73000D01*
X276069D02*
X277492Y74422D01*
X289379Y58801D02*
Y70699D01*
X289989Y71309D01*
Y82398D01*
X295729Y58801D02*
Y70699D01*
X295119Y71309D02*
X295729Y70699D01*
X295119Y71309D02*
Y82398D01*
X288566Y83820D02*
X289989Y82398D01*
X295119D02*
X296542Y83820D01*
X308429Y58801D02*
Y70699D01*
X309039Y71309D01*
Y73000D01*
X314779Y58801D02*
Y70699D01*
X314169Y71309D02*
X314779Y70699D01*
X314169Y71309D02*
Y73000D01*
X307616Y74422D02*
X309039Y73000D01*
X314169D02*
X315592Y74422D01*
X327479Y58801D02*
Y70699D01*
X328089Y71309D01*
Y82398D01*
X333829Y58801D02*
Y70699D01*
X333219Y71309D02*
X333829Y70699D01*
X333219Y71309D02*
Y82398D01*
X326666Y83820D02*
X328089Y82398D01*
X333219D02*
X334642Y83820D01*
X410029Y58801D02*
Y70699D01*
X410639Y71309D01*
Y72746D01*
X416379Y58801D02*
Y70699D01*
X415769Y71309D02*
X416379Y70699D01*
X415769Y71309D02*
Y72746D01*
X409216Y74168D02*
X410639Y72746D01*
X415769D02*
X417192Y74168D01*
X101419Y123571D02*
Y135634D01*
X100809Y136244D02*
X101419Y135634D01*
X82369Y123571D02*
Y135634D01*
X81759Y136244D02*
X82369Y135634D01*
X62709Y135869D02*
X62944Y135634D01*
X63319Y123571D02*
Y135634D01*
X62944D02*
X63319D01*
X56969Y123571D02*
Y135634D01*
X57579Y136244D01*
X76019Y123571D02*
Y135634D01*
X76629Y136244D01*
X371929Y123571D02*
Y135469D01*
X372539Y136079D01*
X378279Y123571D02*
Y135469D01*
X377669Y136079D02*
X378279Y135469D01*
X390979Y123571D02*
Y135469D01*
X391589Y136079D01*
X352879Y58801D02*
Y70699D01*
X353489Y71309D01*
Y82144D01*
X359229Y58801D02*
Y70699D01*
X358619Y71309D02*
X359229Y70699D01*
X358619Y71309D02*
Y82144D01*
X352066Y83566D02*
X353489Y82144D01*
X358619D02*
X360042Y83566D01*
X371929Y58801D02*
Y70699D01*
X372539Y71309D01*
Y72746D01*
X378279Y58801D02*
Y70699D01*
X377669Y71309D02*
X378279Y70699D01*
X377669Y71309D02*
Y72746D01*
X371116Y74168D02*
X372539Y72746D01*
X377669D02*
X379092Y74168D01*
X390979Y58801D02*
Y70699D01*
X391589Y71309D01*
Y82398D01*
X397329Y58801D02*
Y70699D01*
X396719Y71309D02*
X397329Y70699D01*
X396719Y71309D02*
Y82398D01*
X390166Y83820D02*
X391589Y82398D01*
X396719D02*
X398142Y83820D01*
X352879Y135469D02*
X353489Y136079D01*
X352879Y123571D02*
Y135469D01*
X358619Y136079D02*
X359229Y135469D01*
Y123571D02*
Y135469D01*
X397329Y123571D02*
Y135469D01*
X396719Y136079D02*
X397329Y135469D01*
X276069Y136079D02*
Y143764D01*
Y136079D02*
X276679Y135469D01*
Y123571D02*
Y135469D01*
X270329Y123571D02*
Y135469D01*
X270939Y136079D01*
Y145889D01*
X333829Y123571D02*
Y134801D01*
X333248Y135382D02*
X333829Y134801D01*
X327479Y123571D02*
Y134693D01*
X328168Y135382D01*
X177619Y135634D02*
X178229Y136244D01*
X177619Y123571D02*
Y135634D01*
X178308Y136323D01*
X183969Y123571D02*
Y135634D01*
X164919Y123571D02*
Y135634D01*
X164309Y136244D02*
X164919Y135634D01*
X158569Y123571D02*
Y135634D01*
X159179Y136244D01*
X145869Y123571D02*
Y135634D01*
X145259Y136244D02*
X145869Y135634D01*
X183359Y136244D02*
X183969Y135634D01*
X139519Y123571D02*
Y135201D01*
X140208Y135890D01*
X95069Y135634D02*
X95679Y136244D01*
X95069Y123571D02*
Y135634D01*
X114119Y123571D02*
Y135469D01*
X114729Y136079D01*
X120469Y123571D02*
Y135469D01*
X119859Y136079D02*
X120469Y135469D01*
X175000Y280000D02*
X175006Y279994D01*
X295000Y275188D02*
Y280000D01*
X57579Y136244D02*
Y146733D01*
X175006Y264160D01*
Y279994D01*
X62709Y135869D02*
Y145757D01*
X185000Y268048D01*
Y280000D01*
X76629Y136244D02*
Y144955D01*
X195000Y263326D01*
Y280000D01*
X81759Y136244D02*
Y143979D01*
X205000Y267220D01*
Y280000D01*
X95679Y136244D02*
Y143431D01*
X216000Y263752D01*
Y280000D01*
X100809Y136244D02*
Y142455D01*
X226000Y267645D01*
Y280000D01*
X119859Y136079D02*
Y143735D01*
X246000Y269876D01*
Y280000D01*
X236000Y265983D02*
Y280000D01*
X114729Y144711D02*
X236000Y265983D01*
X114729Y136079D02*
Y144711D01*
X145259Y136244D02*
Y150593D01*
X274666Y280000D01*
X275000D01*
X265000Y276441D02*
Y280000D01*
X140208Y151649D02*
X265000Y276441D01*
X140208Y135890D02*
Y151649D01*
X159179Y136244D02*
Y141907D01*
X285000Y267728D01*
Y280000D01*
X164309Y136244D02*
Y140931D01*
X289318Y265940D01*
Y269506D01*
X295000Y275188D01*
X315000Y274112D02*
Y280000D01*
X178308Y136323D02*
Y140462D01*
X305000Y267154D01*
Y280000D01*
X183359Y136244D02*
Y139407D01*
X309318Y265366D01*
Y268430D01*
X315000Y274112D01*
X368000Y270000D02*
Y280000D01*
X270967Y146304D02*
Y174701D01*
X358000Y261734D01*
Y280000D01*
X276098Y143793D02*
Y173725D01*
X362318Y259946D01*
Y264318D01*
X368000Y270000D01*
X408000Y259000D02*
Y280000D01*
X314169Y136079D02*
Y165169D01*
X408000Y259000D01*
X398000Y257000D02*
Y280000D01*
X309039Y136079D02*
Y168039D01*
X398000Y257000D01*
X333248Y135382D02*
Y165608D01*
X428000Y260360D01*
Y280000D01*
X418000Y256467D02*
Y280000D01*
X328168Y166635D02*
X418000Y256467D01*
X328168Y135382D02*
Y166635D01*
X358619Y136079D02*
Y167103D01*
X457000Y265484D01*
Y280000D01*
X447000Y261591D02*
Y280000D01*
X353489Y168079D02*
X447000Y261591D01*
X353489Y136079D02*
Y168079D01*
X377669Y136079D02*
Y164563D01*
X477000Y263894D01*
Y280000D01*
X467000Y260001D02*
Y280000D01*
X372539Y165539D02*
X467000Y260001D01*
X372539Y136079D02*
Y165539D01*
X396719Y136079D02*
Y162023D01*
X497000Y262304D01*
Y280000D01*
X487000Y258411D02*
Y280000D01*
X391589Y162999D02*
X487000Y258411D01*
X391589Y136079D02*
Y162999D01*
X175000Y290000D02*
Y293711D01*
X177841Y296552D01*
X185000Y290000D02*
Y293711D01*
X216000Y290000D02*
X221682Y295682D01*
X195000Y290000D02*
Y293711D01*
X197841Y296552D01*
X205000Y290000D02*
Y293711D01*
X265000Y460000D02*
X265176Y459823D01*
X274828Y459828D02*
X275000Y460000D01*
X284734Y459734D02*
X285000Y460000D01*
X280416Y465416D02*
X285000Y470000D01*
X365000Y500000D02*
X370461Y505460D01*
X365000Y490000D02*
X370047Y495046D01*
X365000Y480000D02*
X370140Y485140D01*
X365000Y470000D02*
X370234Y475234D01*
X370047Y495046D02*
X393457D01*
X370140Y485140D02*
X387615D01*
X370234Y475234D02*
X381000D01*
X270682Y295682D02*
Y316921D01*
X265000Y290000D02*
X270682Y295682D01*
Y316921D02*
X386080Y432319D01*
X275000Y290000D02*
Y315132D01*
X390398Y430530D01*
X285000Y290000D02*
Y293711D01*
X287841Y296552D01*
X295000Y290000D02*
Y293711D01*
X292159Y296552D02*
X295000Y293711D01*
X287841Y296552D02*
Y312998D01*
X400812Y425969D01*
X292159Y296552D02*
Y311209D01*
X405130Y424180D01*
X305000Y290000D02*
Y293711D01*
X307841Y296552D01*
X315000Y290000D02*
Y293711D01*
X312159Y296552D02*
X315000Y293711D01*
X312159Y296552D02*
Y309118D01*
X420116Y417075D01*
X307841Y310907D02*
X415798Y418863D01*
X307841Y296552D02*
Y310907D01*
X325000Y290000D02*
Y293711D01*
X327841Y296552D01*
X335000Y290000D02*
Y293711D01*
X332159Y296552D02*
X335000Y293711D01*
X332159Y296552D02*
Y307340D01*
X439674Y414855D01*
X327841Y309129D02*
X435356Y416643D01*
X327841Y296552D02*
Y309129D01*
X435356Y416643D02*
Y464312D01*
X439674Y414855D02*
Y466101D01*
X415798Y418863D02*
Y466598D01*
X420116Y417075D02*
Y468387D01*
X393457Y495046D02*
X420116Y468387D01*
X387615Y485140D02*
X405130Y467625D01*
X400812Y425969D02*
Y465836D01*
X405130Y424180D02*
Y467625D01*
X375000Y470000D02*
X379884D01*
X386080Y432319D02*
Y463804D01*
X379884Y470000D02*
X386080Y463804D01*
X381000Y475234D02*
X390398Y465836D01*
Y430530D02*
Y465836D01*
X386648Y480000D02*
X400812Y465836D01*
X375000Y480000D02*
X386648D01*
X392396Y490000D02*
X415798Y466598D01*
X375000Y490000D02*
X392396D01*
X399668Y500000D02*
X435356Y464312D01*
X375000Y500000D02*
X399668D01*
X370461Y505460D02*
X400315D01*
X439674Y466101D01*
X358000Y290000D02*
Y293711D01*
X360841Y296552D01*
X368000Y290000D02*
Y293711D01*
X365159Y296552D02*
X368000Y293711D01*
X365159Y296552D02*
Y310134D01*
X487333Y432308D01*
X360841Y311923D02*
X485545Y436626D01*
X360841Y296552D02*
Y311923D01*
X388000Y290000D02*
X391193Y293193D01*
Y309405D01*
X386875Y298875D02*
Y311194D01*
X492241Y416560D02*
X521970D01*
X391193Y309405D02*
X494030Y412242D01*
X378000Y290000D02*
X386875Y298875D01*
Y311194D02*
X492241Y416560D01*
X408000Y290000D02*
Y293711D01*
X414274Y299985D01*
Y309626D01*
X498602Y393954D01*
X409956Y311415D02*
X496813Y398272D01*
X398000Y290000D02*
X409956Y301956D01*
Y311415D01*
X436118Y298118D02*
Y309372D01*
X503174Y376428D01*
X431800Y311161D02*
X501385Y380746D01*
X428000Y290000D02*
X436118Y298118D01*
X418000Y290000D02*
X431800Y303800D01*
Y311161D01*
X457000Y290000D02*
Y293711D01*
X464312Y301023D01*
Y316484D01*
X500634Y352806D01*
X459994Y318273D02*
X498845Y357124D01*
X447000Y290000D02*
X459994Y302994D01*
Y318273D01*
X498845Y357124D02*
X601218D01*
X500634Y352806D02*
X603007D01*
X477000Y290000D02*
X480347Y293347D01*
Y307373D01*
X476029Y299029D02*
Y309162D01*
X467000Y290000D02*
X476029Y299029D01*
Y309162D02*
X505957Y339090D01*
X623062D01*
X480347Y307373D02*
X507746Y334772D01*
X624851D01*
X497000Y306246D02*
X508000Y317246D01*
X492682Y295682D02*
Y308035D01*
X497000Y290000D02*
Y306246D01*
X487000Y290000D02*
X492682Y295682D01*
Y308035D02*
X506211Y321564D01*
X685512Y490000D02*
X698754Y476758D01*
X677732Y480000D02*
X687578Y470154D01*
X623062Y339090D02*
X687578Y403606D01*
Y470154D01*
X624851Y334772D02*
X691896Y401817D01*
Y471943D01*
X601218Y357124D02*
X677418Y433324D01*
X603007Y352806D02*
X681736Y431535D01*
X496813Y398272D02*
X533400D01*
X498602Y393954D02*
X535189D01*
X494030Y412242D02*
X523759D01*
X677418Y433324D02*
Y457582D01*
X665000Y470000D02*
X677418Y457582D01*
X681736Y431535D02*
Y463042D01*
X665000Y480000D02*
X677732D01*
X678953Y484886D02*
X691896Y471943D01*
X655000Y480000D02*
X659886Y484886D01*
X678953D01*
X665000Y490000D02*
X685512D01*
X545000Y455592D02*
Y460000D01*
X539750Y464750D02*
X545000Y470000D01*
X523759Y412242D02*
X555000Y443483D01*
Y460000D01*
X521970Y416560D02*
X549656Y444246D01*
Y464656D02*
X555000Y470000D01*
X549656Y444246D02*
Y464656D01*
X535189Y393954D02*
X565000Y423765D01*
Y460000D01*
X533400Y398272D02*
X559816Y424688D01*
Y464816D02*
X565000Y470000D01*
X559816Y424688D02*
Y464816D01*
X574553Y459553D02*
X575000Y460000D01*
X289989Y136079D02*
Y175181D01*
X378000Y263192D01*
Y280000D01*
X295119Y136079D02*
Y173127D01*
X388000Y266008D01*
Y280000D01*
X335000Y272008D02*
Y280000D01*
X325000Y266580D02*
Y280000D01*
X330080Y264476D02*
Y267088D01*
X335000Y272008D01*
X207296Y143361D02*
X208965D01*
X330080Y264476D01*
X205192Y148441D02*
X206861D01*
X325000Y266580D01*
X197279Y140527D02*
X205192Y148441D01*
X202409Y136244D02*
Y138474D01*
X207296Y143361D01*
X197279Y136244D02*
Y140527D01*
D14*
X118000Y497000D02*
D03*
X108000D02*
D03*
X482000Y505000D02*
D03*
X492000D02*
D03*
X482000Y526000D02*
D03*
X492000D02*
D03*
Y516000D02*
D03*
X482000D02*
D03*
X118000Y469000D02*
D03*
X108000D02*
D03*
X198000Y615000D02*
D03*
X208000D02*
D03*
X198000Y626000D02*
D03*
X208000D02*
D03*
X426826Y640588D02*
D03*
X416826D02*
D03*
X426826Y629588D02*
D03*
X416826D02*
D03*
X553000Y768000D02*
D03*
X543000D02*
D03*
X475000Y537000D02*
D03*
X485000D02*
D03*
X169000Y630696D02*
D03*
X179000D02*
D03*
X411000Y769000D02*
D03*
X401000D02*
D03*
X208000Y604000D02*
D03*
X198000D02*
D03*
X108000Y488000D02*
D03*
X118000D02*
D03*
Y479000D02*
D03*
X108000D02*
D03*
X685000Y767000D02*
D03*
X695000D02*
D03*
X169000Y615570D02*
D03*
X179000D02*
D03*
X482000Y494000D02*
D03*
X492000D02*
D03*
X259000Y768000D02*
D03*
X269000D02*
D03*
D15*
X499000Y605000D02*
D03*
Y595000D02*
D03*
X207000Y737000D02*
D03*
Y727000D02*
D03*
X361000D02*
D03*
Y737000D02*
D03*
X644000Y727000D02*
D03*
Y737000D02*
D03*
X503000Y727000D02*
D03*
Y737000D02*
D03*
X655000Y727000D02*
D03*
Y737000D02*
D03*
X676000Y792000D02*
D03*
Y802000D02*
D03*
X491000Y737000D02*
D03*
Y727000D02*
D03*
X662000Y802000D02*
D03*
Y792000D02*
D03*
X349000Y737000D02*
D03*
Y727000D02*
D03*
X373000Y738000D02*
D03*
Y728000D02*
D03*
X514000Y737000D02*
D03*
Y727000D02*
D03*
X634000Y737000D02*
D03*
Y727000D02*
D03*
X391000Y792000D02*
D03*
Y802000D02*
D03*
X378000D02*
D03*
Y792000D02*
D03*
X533000Y793000D02*
D03*
Y803000D02*
D03*
X235000Y801000D02*
D03*
Y791000D02*
D03*
X219000Y727000D02*
D03*
Y737000D02*
D03*
X248000Y791000D02*
D03*
Y801000D02*
D03*
X231000Y727000D02*
D03*
Y737000D02*
D03*
X517000Y803000D02*
D03*
Y793000D02*
D03*
D17*
X591244Y539830D02*
D03*
Y549830D02*
D03*
X619946Y484966D02*
D03*
Y494966D02*
D03*
X418000Y280000D02*
D03*
Y290000D02*
D03*
X408000Y280000D02*
D03*
Y290000D02*
D03*
X236000Y280000D02*
D03*
Y290000D02*
D03*
X398000Y280000D02*
D03*
Y290000D02*
D03*
X279908Y535004D02*
D03*
Y545004D02*
D03*
X185000Y280000D02*
D03*
Y290000D02*
D03*
X447000Y280000D02*
D03*
Y290000D02*
D03*
X579882Y484966D02*
D03*
Y494966D02*
D03*
X384770Y524176D02*
D03*
Y514176D02*
D03*
X598864Y539830D02*
D03*
Y549830D02*
D03*
X315000Y280000D02*
D03*
Y290000D02*
D03*
X487000Y280000D02*
D03*
Y290000D02*
D03*
X512000Y602000D02*
D03*
Y592000D02*
D03*
X289814Y514938D02*
D03*
Y524938D02*
D03*
X590482Y474806D02*
D03*
Y484806D02*
D03*
X467000Y280000D02*
D03*
Y290000D02*
D03*
X320061Y475060D02*
D03*
Y485060D02*
D03*
X329946Y484966D02*
D03*
Y494966D02*
D03*
X265000Y280000D02*
D03*
Y290000D02*
D03*
X579814Y574722D02*
D03*
Y564722D02*
D03*
X329946Y535004D02*
D03*
Y545004D02*
D03*
X378000Y280000D02*
D03*
Y290000D02*
D03*
X289966Y484966D02*
D03*
Y494966D02*
D03*
X305000Y280000D02*
D03*
Y290000D02*
D03*
X308864Y539830D02*
D03*
Y549830D02*
D03*
X517000Y290000D02*
D03*
Y280000D02*
D03*
X506984Y290322D02*
D03*
Y280322D02*
D03*
X308864Y570150D02*
D03*
Y560150D02*
D03*
X538000Y506000D02*
D03*
Y516000D02*
D03*
X591498Y570150D02*
D03*
Y560150D02*
D03*
X226000Y280000D02*
D03*
Y290000D02*
D03*
X221960Y602000D02*
D03*
Y592000D02*
D03*
X289814Y574722D02*
D03*
Y564722D02*
D03*
X301244Y570150D02*
D03*
Y560150D02*
D03*
X325000Y280000D02*
D03*
Y290000D02*
D03*
X388000Y280000D02*
D03*
Y290000D02*
D03*
X368000Y280000D02*
D03*
Y290000D02*
D03*
X335000Y280000D02*
D03*
Y290000D02*
D03*
X609939Y514938D02*
D03*
Y524938D02*
D03*
X320120Y515120D02*
D03*
Y525120D02*
D03*
X275000Y280000D02*
D03*
Y290000D02*
D03*
X610040Y475060D02*
D03*
Y485060D02*
D03*
X246000Y280000D02*
D03*
Y290000D02*
D03*
X358000Y280000D02*
D03*
Y290000D02*
D03*
X497000Y280000D02*
D03*
Y290000D02*
D03*
X216000Y280000D02*
D03*
Y290000D02*
D03*
X569908Y535004D02*
D03*
Y545004D02*
D03*
X619946Y575230D02*
D03*
Y565230D02*
D03*
X309880Y474806D02*
D03*
Y484806D02*
D03*
X579882Y514764D02*
D03*
Y524764D02*
D03*
X619946Y535004D02*
D03*
Y545004D02*
D03*
X300482Y474806D02*
D03*
Y484806D02*
D03*
X285000Y280000D02*
D03*
Y290000D02*
D03*
X300736Y539830D02*
D03*
Y549830D02*
D03*
X674116Y524350D02*
D03*
Y514350D02*
D03*
X600541Y514176D02*
D03*
Y504176D02*
D03*
X195000Y280000D02*
D03*
Y290000D02*
D03*
X457000Y280000D02*
D03*
Y290000D02*
D03*
X599118Y570150D02*
D03*
Y560150D02*
D03*
X309880Y515120D02*
D03*
Y505120D02*
D03*
X329946Y575230D02*
D03*
Y565230D02*
D03*
X591244Y510112D02*
D03*
Y520112D02*
D03*
X205000Y280000D02*
D03*
Y290000D02*
D03*
X300990Y510112D02*
D03*
Y520112D02*
D03*
X428000Y280000D02*
D03*
Y290000D02*
D03*
X477000Y280000D02*
D03*
Y290000D02*
D03*
X295000Y280000D02*
D03*
Y290000D02*
D03*
X599880Y474806D02*
D03*
Y484806D02*
D03*
X175000Y280000D02*
D03*
Y290000D02*
D03*
X656000Y598000D02*
D03*
Y588000D02*
D03*
X200756Y553500D02*
D03*
Y543500D02*
D03*
X248226Y505542D02*
D03*
Y515542D02*
D03*
X365000Y598000D02*
D03*
Y588000D02*
D03*
D19*
X382000Y708000D02*
D03*
X372000D02*
D03*
X666000Y707000D02*
D03*
X656000D02*
D03*
X508000Y535000D02*
D03*
X518000D02*
D03*
X239000Y707000D02*
D03*
X229000D02*
D03*
X524000D02*
D03*
X514000D02*
D03*
D22*
X469754Y613154D02*
D03*
Y598154D02*
D03*
X569214Y386722D02*
D03*
Y371722D02*
D03*
X507000Y464500D02*
D03*
Y479500D02*
D03*
X219000Y550500D02*
D03*
Y565500D02*
D03*
X576000Y785500D02*
D03*
Y800500D02*
D03*
X217000Y464500D02*
D03*
Y479500D02*
D03*
X342000Y627500D02*
D03*
Y612500D02*
D03*
X396000Y547500D02*
D03*
Y562500D02*
D03*
X397000Y604500D02*
D03*
Y589500D02*
D03*
X727040Y589896D02*
D03*
Y604896D02*
D03*
X686000Y547500D02*
D03*
Y562500D02*
D03*
X509000Y550500D02*
D03*
Y565500D02*
D03*
X633000Y626500D02*
D03*
Y611500D02*
D03*
X586454Y418850D02*
D03*
Y403850D02*
D03*
X430130Y587232D02*
D03*
Y602232D02*
D03*
X687000Y604500D02*
D03*
Y589500D02*
D03*
D29*
X596500Y616000D02*
D03*
X581500D02*
D03*
X293500Y613000D02*
D03*
X308500D02*
D03*
X407500Y721000D02*
D03*
X392500D02*
D03*
X323520Y419100D02*
D03*
X338520D02*
D03*
X264500Y722000D02*
D03*
X249500D02*
D03*
X355500Y445000D02*
D03*
X340500D02*
D03*
X549500Y722000D02*
D03*
X534500D02*
D03*
X308500Y758000D02*
D03*
X293500D02*
D03*
X693500Y723000D02*
D03*
X678500D02*
D03*
X450500Y758000D02*
D03*
X435500D02*
D03*
X734500D02*
D03*
X719500D02*
D03*
X739782Y639370D02*
D03*
X724782D02*
D03*
X645500Y445000D02*
D03*
X630500D02*
D03*
D30*
X707250Y740000D02*
D03*
X734750D02*
D03*
X281250D02*
D03*
X308750D02*
D03*
X423250D02*
D03*
X450750D02*
D03*
D33*
X449933Y587147D02*
D03*
Y614647D02*
D03*
X750916Y588980D02*
D03*
Y616480D02*
D03*
X617188Y419766D02*
D03*
Y392266D02*
D03*
X570000Y741250D02*
D03*
Y768750D02*
D03*
D35*
X875000Y950000D02*
D03*
X625000Y170000D02*
D03*
X55000Y300000D02*
D03*
X115000Y927000D02*
D03*
X427482Y513334D02*
D03*
X860298Y302006D02*
D03*
X682000Y239000D02*
D03*
X726948Y573786D02*
D03*
X775716Y163830D02*
D03*
X843534Y824230D02*
D03*
X600964Y405638D02*
D03*
X865162Y684060D02*
D03*
X783628Y799630D02*
D03*
Y772630D02*
D03*
X863482Y772550D02*
D03*
X863388Y799550D02*
D03*
X865416Y657060D02*
D03*
X754770Y494150D02*
D03*
Y509150D02*
D03*
X742050Y546608D02*
D03*
X739782Y657306D02*
D03*
X706846Y639370D02*
D03*
X709104Y604896D02*
D03*
Y589896D02*
D03*
X583918Y371722D02*
D03*
Y386722D02*
D03*
X601258Y418750D02*
D03*
X430022Y568514D02*
D03*
X485068Y552316D02*
D03*
Y567316D02*
D03*
X483652Y613154D02*
D03*
Y598154D02*
D03*
X416232Y587232D02*
D03*
Y602232D02*
D03*
X338498Y405270D02*
D03*
X309350Y415946D02*
D03*
X277000Y359000D02*
D03*
X293000Y388000D02*
D03*
X773500Y471500D02*
D03*
Y444500D02*
D03*
X806000Y354500D02*
D03*
X883000D02*
D03*
Y327500D02*
D03*
X806000D02*
D03*
X779000Y183000D02*
D03*
X747000D02*
D03*
X724000Y232000D02*
D03*
X689500Y174500D02*
D03*
X662500D02*
D03*
X693420Y334010D02*
D03*
X693614Y307788D02*
D03*
X675500Y298106D02*
D03*
X648500D02*
D03*
X581000Y276000D02*
D03*
X554500Y275500D02*
D03*
X778000Y245000D02*
D03*
X322072Y757428D02*
D03*
X281132Y758190D02*
D03*
X249500Y735000D02*
D03*
X392318Y734640D02*
D03*
X464322Y758018D02*
D03*
X422500Y758000D02*
D03*
X589000Y785500D02*
D03*
X563000Y800500D02*
D03*
X534318Y735640D02*
D03*
X707080Y758586D02*
D03*
X748902Y758604D02*
D03*
X678500Y736000D02*
D03*
D39*
X600040Y404968D02*
X600964Y404044D01*
X598922Y403850D02*
X600040Y404968D01*
X586454Y403850D02*
X598922D01*
X600964Y404044D02*
Y408178D01*
X777494Y393192D02*
Y393446D01*
X118392Y532892D02*
X129000Y543500D01*
X86708Y532892D02*
X118392D01*
X696468Y514350D02*
X733806Y477012D01*
X674116Y514350D02*
X696468D01*
X456184Y431292D02*
Y445184D01*
X649858Y514858D02*
X673608D01*
X332000Y603000D02*
X335000Y600000D01*
X332000Y603000D02*
Y619000D01*
X340500Y627500D01*
X342000D01*
X293500Y601500D02*
X295000Y600000D01*
X293500Y601500D02*
Y613000D01*
X169000Y543500D02*
X200756D01*
X129000D02*
X169000D01*
X456184Y445184D02*
X526540Y515540D01*
X202050Y542206D02*
X227206D01*
X200756Y543500D02*
X202050Y542206D01*
X250000Y545000D02*
X255000Y550000D01*
X230000Y545000D02*
X250000D01*
X259750Y538533D02*
Y545250D01*
X255000Y550000D02*
X259750Y545250D01*
X227206Y542206D02*
X230000Y545000D01*
X526540Y515540D02*
X538226D01*
X634464Y529536D02*
X640250Y523750D01*
X573905Y531000D02*
X614536D01*
X645000Y510000D02*
Y510500D01*
X640250Y515250D02*
X645000Y510500D01*
X640250Y515250D02*
Y523750D01*
X616000Y529536D02*
X634464D01*
X614536Y531000D02*
X616000Y529536D01*
X548064Y529718D02*
X572623D01*
X539749Y538033D02*
X548064Y529718D01*
X572623D02*
X573905Y531000D01*
X536717Y535000D02*
X539749Y538033D01*
Y544750D01*
X545000Y550000D01*
X518000Y535000D02*
X536717D01*
X500968D02*
X508000D01*
X285000Y529000D02*
X287000Y531000D01*
X269283Y529000D02*
X285000D01*
X259750Y538533D02*
X269283Y529000D01*
X674232Y524358D02*
X681264D01*
X287000Y531000D02*
X324000D01*
X327000Y528000D01*
X348300D01*
X325000Y510000D02*
Y510240D01*
X320120Y515120D02*
X325000Y510240D01*
X315000Y520000D02*
X320120Y525120D01*
X309880Y505120D02*
X315000Y500000D01*
X309880Y515120D02*
X315000Y510000D01*
X610062Y514938D02*
X615000Y510000D01*
X600541Y504176D02*
X604717Y500000D01*
X600541Y514176D02*
X604717Y510000D01*
X605000Y520000D02*
X609176Y524176D01*
X706846Y639370D02*
X724782D01*
X709104Y604896D02*
X727040D01*
X750000Y589896D02*
X750916Y588980D01*
X569214Y371722D02*
X583918D01*
X586454Y418850D02*
X586554Y418750D01*
X469754Y598154D02*
X483652D01*
X416232Y602232D02*
X430130D01*
X468261Y614647D02*
X469754Y613154D01*
X192278Y431292D02*
Y491744D01*
X391842Y514176D02*
X391922Y514256D01*
X384810Y514176D02*
X391842D01*
X384810Y524176D02*
X391842D01*
X255000Y520002D02*
Y520004D01*
X252686Y520002D02*
X255000D01*
X248226Y515542D02*
X252686Y520002D01*
X248226Y505542D02*
X253766Y500002D01*
X543766Y500000D02*
X545000D01*
X538226Y505540D02*
X543766Y500000D01*
X538226Y515540D02*
X542686Y520000D01*
X545000D01*
X620230Y575230D02*
X625000Y580000D01*
X619946Y575230D02*
X620230D01*
X330230D02*
X335000Y580000D01*
X329946Y575230D02*
X330230D01*
X585149Y560150D02*
X591498D01*
X585000Y560000D02*
X585149Y560150D01*
Y570150D02*
X591498D01*
X585000Y570000D02*
X585149Y570150D01*
X598864D02*
X604851D01*
X605000Y570000D01*
X598864Y560150D02*
X604851D01*
X605000Y560000D01*
X615000D02*
Y560284D01*
X619946Y565230D01*
X615000Y550000D02*
X619946Y545055D01*
Y545004D02*
Y545055D01*
X615000Y539950D02*
Y540000D01*
Y539950D02*
X619946Y535004D01*
X575000Y579536D02*
X579814Y574722D01*
X575000Y579536D02*
Y580000D01*
X575092Y560000D02*
X579814Y564722D01*
X575000Y560000D02*
X575092D01*
X569908Y545004D02*
X570004D01*
X575000Y550000D01*
X569908Y535004D02*
X570004D01*
X575000Y540000D01*
X585676Y470000D02*
X590482Y474806D01*
X585000Y470000D02*
X585676D01*
X590193Y484806D02*
X590482D01*
X585000Y490000D02*
X590193Y484806D01*
X580068Y485068D02*
Y485220D01*
X575000Y480000D02*
X580068Y485068D01*
X599880Y484806D02*
X605000Y489926D01*
Y490000D01*
X599880Y474806D02*
X605000Y479926D01*
Y480000D01*
X610040Y475060D02*
X610061D01*
X615000Y480000D01*
X610040Y485060D02*
X610061D01*
X615000Y490000D01*
X619946Y484966D02*
X624912Y480000D01*
X625000D01*
X615000Y499912D02*
X619946Y494966D01*
X615000Y499912D02*
Y500000D01*
X604859Y509858D02*
X605000Y510000D01*
X604859Y519858D02*
X605000Y520000D01*
X585112Y520112D02*
X591244D01*
X585000Y520000D02*
X585112Y520112D01*
Y510112D02*
X591244D01*
X585000Y510000D02*
X585112Y510112D01*
X575638Y510000D02*
X579814Y514176D01*
X575000Y510000D02*
X575638D01*
Y520000D02*
X579814Y524176D01*
X575000Y520000D02*
X575638D01*
X580068Y495220D02*
X580220D01*
X585000Y500000D01*
X545000Y520000D02*
Y520002D01*
X598864Y549830D02*
X604830D01*
X585170D02*
X591244D01*
X585170Y539830D02*
X591244D01*
X598864D02*
X604830D01*
X314830D02*
X315000Y540000D01*
X308864Y539830D02*
X314830D01*
X295000Y540000D02*
X295170Y539830D01*
X301244D01*
X295000Y550000D02*
X295170Y549830D01*
X301244D01*
X314830D02*
X315000Y550000D01*
X308864Y549830D02*
X314830D01*
X255000Y539686D02*
Y540000D01*
Y520000D02*
Y520002D01*
X290220Y495220D02*
X295000Y500000D01*
X290068Y495220D02*
X290220D01*
X285000Y520000D02*
X285638D01*
X289814Y524176D01*
X285000Y510000D02*
X285638D01*
X289814Y514176D01*
X295000Y510000D02*
X295112Y510112D01*
X301244D01*
X295000Y520000D02*
X295112Y520112D01*
X301244D01*
X314858Y519858D02*
X315000Y520000D01*
X314858Y509858D02*
X315000Y510000D01*
X325000Y499912D02*
Y500000D01*
Y499912D02*
X329946Y494966D01*
X334912Y480000D02*
X335000D01*
X329946Y484966D02*
X334912Y480000D01*
X320061Y485060D02*
X325000Y490000D01*
X320040Y485060D02*
X320061D01*
Y475060D02*
X325000Y480000D01*
X320040Y475060D02*
X320061D01*
X315000Y479926D02*
Y480000D01*
X309880Y474806D02*
X315000Y479926D01*
Y489926D02*
Y490000D01*
X309880Y484806D02*
X315000Y489926D01*
X285000Y480000D02*
X290068Y485068D01*
Y485220D01*
X295000Y490000D02*
X300194Y484806D01*
X300482D01*
X295000Y470000D02*
X295676D01*
X300482Y474806D01*
X280004Y535004D02*
X285000Y540000D01*
X279908Y535004D02*
X280004D01*
Y545004D02*
X285000Y550000D01*
X279908Y545004D02*
X280004D01*
X285000Y560000D02*
X285092D01*
X289814Y564722D01*
X285000Y579536D02*
Y580000D01*
Y579536D02*
X289814Y574722D01*
X325000Y539950D02*
X329946Y535004D01*
X325000Y539950D02*
Y540000D01*
X329946Y545004D02*
Y545055D01*
X325000Y550000D02*
X329946Y545055D01*
X325000Y560284D02*
X329946Y565230D01*
X325000Y560000D02*
Y560284D01*
X314851Y560150D02*
X315000Y560000D01*
X308864Y560150D02*
X314851D01*
Y570150D02*
X315000Y570000D01*
X308864Y570150D02*
X314851D01*
X295000Y570000D02*
X295149Y570150D01*
X301498D01*
X295000Y560000D02*
X295149Y560150D01*
X301498D01*
X235000Y530000D02*
X235000Y530000D01*
X664369Y657400D02*
X712369D01*
X521869D02*
X569869D01*
X379369D02*
X427369D01*
X236869D02*
X284869D01*
X645000Y510000D02*
X649858Y514858D01*
X64050Y555550D02*
X86708Y532892D01*
X349750Y515250D02*
X355000Y510000D01*
X349750Y515250D02*
Y526550D01*
X348300Y528000D02*
X349750Y526550D01*
X216328Y515794D02*
X247904D01*
X192278Y491744D02*
X216328Y515794D01*
X355000Y510000D02*
X355501D01*
X360250Y514749D01*
X384236D02*
X384810Y514176D01*
X360250Y514749D02*
X384236D01*
X229000Y707000D02*
Y714519D01*
X372000Y708000D02*
Y715519D01*
X514000Y707000D02*
Y714519D01*
X656000Y707000D02*
Y714519D01*
D40*
X452628Y646430D02*
X473202Y667004D01*
X422668Y646430D02*
X452628D01*
X416826Y640588D02*
X422668Y646430D01*
X724662Y404876D02*
Y440944D01*
X777494Y393446D02*
X878078Y494030D01*
Y780542D01*
X875538Y783082D02*
X878078Y780542D01*
X856234Y783082D02*
X875538D01*
X793496Y845820D02*
X856234Y783082D01*
X793496Y845820D02*
Y1027684D01*
X785114Y1036066D02*
X793496Y1027684D01*
X784860Y819404D02*
X800862Y803402D01*
Y543052D02*
Y803402D01*
X765706Y507896D02*
X800862Y543052D01*
X724662Y440944D02*
X765706Y481988D01*
Y507896D01*
X784860Y819404D02*
Y965454D01*
X726948Y570948D02*
Y573786D01*
X570885Y604885D02*
X578000Y612000D01*
X220000Y615000D02*
X226000Y621000D01*
X261000D01*
X270885Y611115D01*
X780170Y540140D02*
X787282D01*
X794274Y547132D01*
Y623554D01*
X416826Y640588D02*
X417773D01*
X416826Y629588D02*
Y640588D01*
X191000Y600000D02*
Y639462D01*
Y600000D02*
X203000Y588000D01*
X203915Y647623D02*
X209623Y641915D01*
X192085Y647623D02*
X203915D01*
X208000Y626000D02*
X209623Y627623D01*
Y641915D01*
X189377Y644915D02*
X192085Y647623D01*
X189377Y641085D02*
Y644915D01*
Y641085D02*
X191000Y639462D01*
X203000Y574000D02*
Y588000D01*
X208000Y615000D02*
X220000D01*
X432414Y635000D02*
X512000D01*
X521000Y605000D02*
X551000D01*
X426826Y640588D02*
X432414Y635000D01*
X512000D02*
X517000Y630000D01*
Y609000D02*
Y630000D01*
Y609000D02*
X521000Y605000D01*
X551000D02*
X555000Y601000D01*
X492000Y624000D02*
X499000Y617000D01*
Y605000D02*
Y617000D01*
X422414Y624000D02*
X492000D01*
X490811Y595189D02*
Y609811D01*
X494000Y613000D01*
X475000Y579378D02*
X490811Y595189D01*
X496000Y592000D02*
X499000Y595000D01*
X416826Y629588D02*
X422414Y624000D01*
X664000Y598000D02*
X666000Y600000D01*
X656000Y598000D02*
X664000D01*
X356000Y600000D02*
X358000Y598000D01*
X365000D01*
X621000Y604001D02*
Y620000D01*
X628000Y627000D01*
X621000Y604001D02*
X625000Y600000D01*
X630000Y607000D02*
X633000Y610000D01*
X630000Y600820D02*
Y607000D01*
X340000Y612000D02*
X341000Y613000D01*
X340000Y575000D02*
Y612000D01*
X578000Y612000D02*
Y613000D01*
X280000Y575000D02*
Y583000D01*
X275000Y570000D02*
X280000Y575000D01*
Y583000D02*
X282000Y585000D01*
X299000D01*
X308500Y594500D01*
Y613000D01*
X426000Y630000D02*
X497000D01*
X508000Y619000D01*
Y617999D02*
Y619000D01*
Y608000D02*
Y617999D01*
X46000Y614000D02*
Y656200D01*
X54000Y543000D02*
X76000Y521000D01*
Y452000D02*
Y521000D01*
Y452000D02*
X104000Y424000D01*
Y361900D02*
Y424000D01*
X39650Y662550D02*
X46000Y656200D01*
Y614000D02*
X54000Y606000D01*
Y543000D02*
Y606000D01*
X90000Y347900D02*
X104000Y361900D01*
X9000Y363900D02*
Y644600D01*
X26950Y662550D01*
X9000Y363900D02*
X25000Y347900D01*
X46000Y419700D02*
Y517000D01*
X25950Y537050D02*
X46000Y517000D01*
X25000Y398700D02*
X46000Y419700D01*
X25950Y537050D02*
Y555550D01*
X87300Y398700D02*
X90000D01*
X66000Y420000D02*
X87300Y398700D01*
X66000Y420000D02*
Y512000D01*
X38650Y539350D02*
X66000Y512000D01*
X38650Y539350D02*
Y555550D01*
X475000Y537000D02*
Y579378D01*
X495000Y547000D02*
X496000Y548000D01*
Y592000D01*
X378000Y748019D02*
X381369Y744650D01*
X378000Y748019D02*
Y792000D01*
X391000Y784000D02*
Y792000D01*
X389369Y782369D02*
X391000Y784000D01*
X389369Y776150D02*
Y782369D01*
X248000Y801000D02*
X248000Y801000D01*
X241000Y801000D02*
X248000D01*
X235000Y801000D02*
X241000D01*
X241000Y763000D02*
Y801000D01*
X241000Y801000D01*
X235492Y748027D02*
Y790508D01*
Y748027D02*
X238869Y744650D01*
X235000Y791000D02*
X235492Y790508D01*
X246869Y789869D02*
X248000Y791000D01*
X246869Y776150D02*
Y789869D01*
X662992Y748027D02*
Y791008D01*
Y748027D02*
X666369Y744650D01*
X662000Y792000D02*
X662992Y791008D01*
X674369Y783369D02*
X676000Y785000D01*
X674369Y776150D02*
Y783369D01*
X676000Y785000D02*
Y792000D01*
X527000Y773000D02*
Y797000D01*
Y773000D02*
X534000Y766000D01*
X527000Y797000D02*
X533000Y803000D01*
X517000Y793000D02*
X523869Y786131D01*
Y744650D02*
Y786131D01*
X531869Y791869D02*
X533000Y793000D01*
X531869Y776150D02*
Y791869D01*
X517000Y803000D02*
X533000D01*
X385000Y802000D02*
X385000Y802000D01*
X378000Y802000D02*
X385000D01*
X385000D02*
X391000D01*
X385000Y802000D02*
X385000Y802000D01*
X385000Y783000D02*
Y802000D01*
X382000Y780000D02*
X385000Y783000D01*
X382000Y753265D02*
Y780000D01*
X690162Y534162D02*
X726948Y570948D01*
X407000Y515000D02*
X417000Y505000D01*
X440000D01*
X451000Y516000D01*
X392000Y515000D02*
X407000D01*
X451000Y516000D02*
X482000D01*
X169000Y543500D02*
Y615570D01*
X482000Y516000D02*
Y526000D01*
Y505000D02*
Y516000D01*
Y494000D02*
Y505000D01*
X179000Y615570D02*
X186000Y622570D01*
X179000Y630696D02*
X186000Y637696D01*
X162000D02*
X169000Y630696D01*
X198000Y626000D02*
Y639000D01*
Y615000D02*
Y626000D01*
Y604000D02*
Y615000D01*
X194000Y643000D02*
X198000Y639000D01*
X108000Y488000D02*
Y497000D01*
Y479000D02*
Y488000D01*
Y469000D02*
Y479000D01*
X265123Y526877D02*
X270000Y522000D01*
X211446Y520446D02*
X241693D01*
X160000Y469000D02*
X211446Y520446D01*
X275000Y510000D02*
Y510000D01*
X270000Y515000D02*
X275000Y510000D01*
X270000Y515000D02*
Y522000D01*
X248123Y526877D02*
X265123D01*
X241693Y520446D02*
X248123Y526877D01*
X208223Y525223D02*
X240222D01*
X162000Y479000D02*
X208223Y525223D01*
X118000Y479000D02*
X162000D01*
X203000Y530000D02*
X235000D01*
X161000Y488000D02*
X203000Y530000D01*
X118000Y488000D02*
X161000D01*
X196000Y535000D02*
X250000D01*
X158000Y497000D02*
X196000Y535000D01*
X118000Y497000D02*
X158000D01*
X240222Y525223D02*
X245000Y530000D01*
X208000Y586000D02*
Y604000D01*
Y615000D02*
X208000Y615000D01*
X270885Y564115D02*
Y611115D01*
Y564115D02*
X275000Y560000D01*
X219000Y575000D02*
X256000D01*
X260000Y571000D01*
Y565000D02*
Y571000D01*
X208000Y586000D02*
X219000Y575000D01*
X255000Y560000D02*
X260000Y565000D01*
X250000Y535000D02*
X255000Y540000D01*
X222000Y592000D02*
X228114Y585885D01*
X532000Y555000D02*
X540000D01*
X518000Y542000D02*
X521000Y545000D01*
X498000Y542000D02*
X518000D01*
X492000Y536000D02*
X498000Y542000D01*
X540000Y555000D02*
X545000Y560000D01*
X530000Y553000D02*
X532000Y555000D01*
X530000Y549000D02*
Y553000D01*
X526000Y545000D02*
X530000Y549000D01*
X521000Y545000D02*
X526000D01*
X492000Y526000D02*
Y536000D01*
Y516000D02*
X506000Y530000D01*
X560000Y565000D02*
Y587000D01*
X555000Y592000D02*
X560000Y587000D01*
X555000Y592000D02*
Y601000D01*
X560000Y565000D02*
X565000Y560000D01*
X505000Y585000D02*
Y605000D01*
Y585000D02*
X516000Y574000D01*
X546885Y574115D02*
X550000Y571000D01*
Y565000D02*
Y571000D01*
X505000Y605000D02*
X508000Y608000D01*
X516000Y574000D02*
X523180D01*
X523295Y574115D01*
X546885D01*
X550000Y565000D02*
X555000Y560000D01*
X539000Y526000D02*
X559000D01*
X532689Y519689D02*
X539000Y526000D01*
X521689Y519689D02*
X532689D01*
X498000Y496000D02*
X521689Y519689D01*
X560000Y515000D02*
X565000Y510000D01*
X560000Y515000D02*
Y525000D01*
X559000Y526000D02*
X560000Y525000D01*
X492000Y496000D02*
X498000D01*
X527999Y523000D02*
X535000Y530000D01*
X508000Y523000D02*
X527999D01*
X492000Y507000D02*
X508000Y523000D01*
X506000Y530000D02*
X525000D01*
X501004Y534420D02*
X501084Y534500D01*
X118000Y469000D02*
X160000D01*
X90000Y474900D02*
X95900Y469000D01*
X108000D01*
X485000Y552248D02*
X485068Y552316D01*
X485000Y537000D02*
Y552248D01*
X485068Y552316D02*
X486000Y551384D01*
X681148Y524858D02*
X681228Y524938D01*
X609939Y514938D02*
X610062D01*
X391842Y524176D02*
X391922Y524256D01*
X672500Y547500D02*
X686000D01*
X665000Y540000D02*
X672500Y547500D01*
X684385Y564115D02*
X686000Y562500D01*
X650885Y564115D02*
X684385D01*
X645000Y570000D02*
X650885Y564115D01*
X665000Y570000D02*
X666000D01*
X685500Y589500D01*
X669500Y604500D02*
X687000D01*
X665000Y600000D02*
X669500Y604500D01*
X660000Y575000D02*
Y582000D01*
X655000Y570000D02*
X660000Y575000D01*
X655000Y587000D02*
X660000Y582000D01*
X645000Y600000D02*
X645000Y600000D01*
X630000Y575000D02*
X635000Y570000D01*
X630000Y575000D02*
Y600820D01*
X585000Y600000D02*
X598500Y613501D01*
X565000Y570000D02*
X570885Y575885D01*
Y604885D01*
X512000Y602000D02*
X523000D01*
X525000Y600000D01*
X512000Y592000D02*
X518115Y585885D01*
X546115D01*
X550000Y582000D01*
X509000Y565500D02*
X540499D01*
X545000Y570000D01*
X509000Y550500D02*
X524500D01*
X525000Y550000D01*
X507000Y464500D02*
X520499D01*
X525000Y460000D01*
X507000Y479500D02*
X544500D01*
X545000Y480000D01*
X645500Y445000D02*
Y459500D01*
X645000Y460000D02*
X645500Y459500D01*
X630500Y445000D02*
Y465499D01*
X645000Y480000D01*
X585000Y460000D02*
X585000Y460000D01*
X295000Y460000D02*
X295000Y460000D01*
X340500Y465499D02*
X355000Y480000D01*
X340500Y445000D02*
Y465499D01*
X355000Y460000D02*
X355500Y459500D01*
Y445000D02*
Y459500D01*
X254500Y479500D02*
X255000Y480000D01*
X217000Y479500D02*
X254500D01*
X230499Y464500D02*
X235000Y460000D01*
X217000Y464500D02*
X230499D01*
X234500Y550500D02*
X235000Y550000D01*
X219000Y550500D02*
X234500D01*
X250499Y565500D02*
X255000Y570000D01*
X219000Y565500D02*
X250499D01*
X256115Y585885D02*
X260000Y582000D01*
X228114Y585885D02*
X256115D01*
X233000Y602000D02*
X235000Y600000D01*
X222000Y602000D02*
X233000D01*
X340000Y575000D02*
X345000Y570000D01*
X355000Y600000D02*
X355000Y600000D01*
X365000Y587000D02*
X370000Y582000D01*
X365000Y570000D02*
X370000Y575000D01*
Y582000D01*
X375000Y600000D02*
X379500Y604500D01*
X397000D01*
X376000Y570000D02*
X395500Y589500D01*
X375000Y570000D02*
X376000D01*
X395500Y589500D02*
X397000D01*
X355000Y570000D02*
X360885Y564115D01*
X394385D01*
X396000Y562500D01*
X375000Y540000D02*
X382500Y547500D01*
X396000D01*
X260000Y578962D02*
Y582000D01*
Y578962D02*
X265000Y573962D01*
Y570000D02*
Y573962D01*
X555000Y570000D02*
Y575554D01*
X553295Y575885D02*
X554669D01*
X555000Y575554D01*
X550000Y579181D02*
X553295Y575885D01*
X550000Y579181D02*
Y582000D01*
X406654Y534162D02*
X427482Y513334D01*
X350774Y536956D02*
X353568Y534162D01*
X350774Y536956D02*
Y555774D01*
X355000Y560000D01*
X353568Y534162D02*
X406654D01*
X642620D02*
X690162D01*
X640334Y536448D02*
X642620Y534162D01*
X640334Y536448D02*
Y555334D01*
X645000Y560000D01*
X254869Y776150D02*
X256360D01*
X259080Y773430D01*
Y768080D02*
Y773430D01*
X259000Y768000D02*
X259080Y768080D01*
X269000Y768000D02*
Y774281D01*
X270869Y776150D01*
X207000Y737000D02*
Y744519D01*
X206869Y744650D02*
X207000Y744519D01*
X219000Y737000D02*
Y740781D01*
X222869Y744650D01*
X242341Y733323D02*
Y739972D01*
X244348Y741979D01*
X241000Y763000D02*
X244348Y759652D01*
X207000Y727000D02*
X236018D01*
X242341Y733323D01*
X244348Y741979D02*
Y759652D01*
X397369Y772631D02*
Y776150D01*
Y772631D02*
X401000Y769000D01*
X231000Y737000D02*
Y776019D01*
X230869Y776150D02*
X231000Y776019D01*
X349000Y737000D02*
Y744281D01*
X349369Y744650D01*
X361000Y737000D02*
X365369Y741369D01*
Y744650D01*
X373000Y738000D02*
X373369Y738369D01*
Y776150D01*
X349000Y727000D02*
X372000D01*
X382000Y753265D02*
X385992Y749273D01*
Y740992D02*
Y749273D01*
X372000Y727000D02*
X385992Y740992D01*
X491000Y737000D02*
Y743781D01*
X491869Y744650D01*
X491000Y727000D02*
X514000D01*
X503000Y737000D02*
Y742522D01*
X505128Y744650D02*
X507869D01*
X503000Y742522D02*
X505128Y744650D01*
X514000Y737000D02*
Y774281D01*
X515869Y776150D01*
X514000Y727000D02*
X534000Y747000D01*
Y766000D01*
X543000Y768000D02*
Y773019D01*
X539869Y776150D02*
X543000Y773019D01*
X634000Y737000D02*
Y744281D01*
X634369Y744650D01*
X644000Y737000D02*
X650369Y743369D01*
Y744650D01*
X634000Y727000D02*
X655000D01*
Y737000D02*
Y772781D01*
X658369Y776150D01*
X655000Y727000D02*
X658090D01*
X670992Y739902D01*
Y769696D01*
X669036Y771652D02*
X670992Y769696D01*
X669036Y801746D02*
X669290Y802000D01*
X669036Y771652D02*
Y801746D01*
X685000Y767000D02*
Y773519D01*
X682369Y776150D02*
X685000Y773519D01*
X533000Y803000D02*
X543200D01*
X547223Y798977D01*
X401200Y802000D02*
X405223Y797977D01*
X391000Y802000D02*
X401200D01*
X258200Y801000D02*
X262223Y796977D01*
X248000Y801000D02*
X258200D01*
X685586Y802000D02*
X689609Y797977D01*
X662000Y802000D02*
X685586D01*
X473202Y667004D02*
Y697230D01*
X491000Y715028D01*
Y727000D01*
X436118Y524764D02*
X441706Y530352D01*
X472714D01*
X475000Y532638D01*
Y537000D01*
D41*
X818388Y519938D02*
X824992Y526542D01*
Y674624D01*
X834428Y684060D01*
X865162D01*
X750916Y616480D02*
Y628236D01*
X739782Y639370D02*
X750916Y628236D01*
X739782Y639370D02*
Y657306D01*
X709104Y589896D02*
X727040D01*
X750000D01*
X469754Y613154D02*
X483652D01*
X416232Y587232D02*
X430130D01*
X430215Y587147D02*
X449933D01*
Y614647D02*
X468261D01*
X309072Y757428D02*
X322072D01*
X308500Y758000D02*
X309072Y757428D01*
X308500Y740250D02*
Y758000D01*
Y740250D02*
X308750Y740000D01*
X281132Y758190D02*
X294132D01*
X281250Y738750D02*
Y740000D01*
X264500Y722000D02*
X281250Y738750D01*
X249500Y722000D02*
Y735000D01*
X407000Y722000D02*
X423750Y738750D01*
Y740000D01*
X549500Y722000D02*
X566250Y738750D01*
X392318Y721640D02*
Y734640D01*
X450750Y740840D02*
X451000Y740590D01*
X450750Y740840D02*
Y758590D01*
X451322Y758018D01*
X464322D01*
X422500Y758000D02*
X435500D01*
X576000Y785500D02*
X589000D01*
X563000Y800500D02*
X576000D01*
X570000Y779500D02*
X576000Y785500D01*
X570000Y768750D02*
Y779500D01*
X534318Y722640D02*
Y735640D01*
X707080Y758586D02*
X720080D01*
X735902Y758604D02*
X748902D01*
X735330Y759176D02*
X735902Y758604D01*
X735330Y741426D02*
Y759176D01*
X692000Y722000D02*
X708750Y738750D01*
X678500Y723000D02*
Y736000D01*
D42*
X521789Y108785D02*
Y123571D01*
X509089Y108785D02*
Y123571D01*
X502739Y108785D02*
Y123571D01*
X490039Y108785D02*
Y123571D01*
X483689Y108785D02*
Y123571D01*
X760549D02*
Y135469D01*
X302079Y123571D02*
Y138357D01*
X50619Y44377D02*
Y58801D01*
X69669Y44269D02*
Y58801D01*
X88719Y44523D02*
Y58801D01*
X107769Y44269D02*
Y58801D01*
X126819Y44269D02*
Y58801D01*
X152219Y44377D02*
Y58801D01*
X171269Y44377D02*
Y58801D01*
X190319Y44269D02*
Y58801D01*
X209369Y44269D02*
Y58801D01*
X126819Y94161D02*
X129794Y91186D01*
X209369Y123571D02*
Y138357D01*
X190319Y123571D02*
Y138249D01*
X152219Y123571D02*
Y138357D01*
X107769Y123571D02*
Y138249D01*
X88719Y123571D02*
Y138249D01*
X69669Y123571D02*
Y138249D01*
X50546Y138430D02*
X50619Y138357D01*
Y123571D02*
Y138357D01*
X263979Y123571D02*
Y138249D01*
X283029Y123571D02*
Y138357D01*
X321129Y123571D02*
Y138249D01*
X346529Y123571D02*
Y138357D01*
X365579Y123571D02*
Y138357D01*
X384629Y123571D02*
Y138357D01*
X403679Y123571D02*
Y138357D01*
X422729Y123571D02*
Y138249D01*
X263979Y44377D02*
Y58801D01*
X283029Y44269D02*
Y58801D01*
X302079Y44269D02*
Y58801D01*
X321129Y44269D02*
Y58801D01*
X340179Y44377D02*
Y58801D01*
X365579Y44269D02*
Y58801D01*
X384629Y44269D02*
Y58801D01*
X403679Y44377D02*
Y58801D01*
X422729Y44269D02*
Y58801D01*
X477339Y123571D02*
Y138357D01*
X496389Y123571D02*
Y138357D01*
X515439Y123571D02*
Y138357D01*
X534489Y123571D02*
Y138357D01*
X553539Y123571D02*
Y138357D01*
X578939Y123571D02*
Y138357D01*
X597989Y123571D02*
Y138357D01*
X477339Y44269D02*
Y58801D01*
X515439Y44377D02*
Y58801D01*
X553539Y44269D02*
Y58801D01*
X572589Y109039D02*
Y123571D01*
X604339Y109039D02*
Y123571D01*
X483689Y58801D02*
Y73479D01*
X521789Y58801D02*
Y73479D01*
X346529Y58801D02*
Y73479D01*
X340179Y109293D02*
Y123571D01*
X559889Y109039D02*
Y123571D01*
X566239D02*
Y138357D01*
X610689Y123571D02*
Y138357D01*
X617039Y109039D02*
Y123571D01*
X133169Y58801D02*
Y73587D01*
X126819Y108966D02*
Y123571D01*
X490039Y44269D02*
Y58801D01*
X496389D02*
Y73333D01*
X528139Y44269D02*
Y58801D01*
X534489D02*
Y73333D01*
X559889Y58801D02*
Y73225D01*
X566239Y44269D02*
Y58801D01*
X572589D02*
Y73333D01*
X578939Y44631D02*
Y58801D01*
X597989Y44377D02*
Y58801D01*
X604339D02*
Y73333D01*
X610689Y44269D02*
Y58801D01*
X617039D02*
Y73225D01*
X636089Y44377D02*
Y58801D01*
X690699Y123571D02*
Y138357D01*
X697049Y109039D02*
Y123571D01*
X709749D02*
Y138249D01*
X728799Y123571D02*
Y138249D01*
X747849Y123571D02*
Y138249D01*
X766899Y123571D02*
Y138357D01*
X773249Y109039D02*
Y123571D01*
X779599D02*
Y138357D01*
X785949Y109039D02*
Y123571D01*
X792299D02*
Y138357D01*
X811349Y123571D02*
Y138357D01*
X817699Y109039D02*
Y123571D01*
X824049D02*
Y138357D01*
X830399Y109039D02*
Y123571D01*
X690699Y44269D02*
Y58801D01*
X697049D02*
Y73333D01*
X703399Y44269D02*
Y58801D01*
X709749D02*
Y73333D01*
X728799Y44269D02*
Y58801D01*
X735149D02*
Y73333D01*
X741499Y44523D02*
Y58801D01*
X747849D02*
Y73333D01*
X766899Y44377D02*
Y58801D01*
X773249D02*
Y73333D01*
X779599Y44269D02*
Y58801D01*
X785949D02*
Y73333D01*
X792299Y44269D02*
Y58801D01*
X811349Y44377D02*
Y58801D01*
X817699D02*
Y73333D01*
X824049Y44269D02*
Y58801D01*
X830399D02*
Y73333D01*
X849449Y44269D02*
Y58801D01*
X171269Y123571D02*
Y138249D01*
X133169Y123571D02*
Y138103D01*
X559889Y94561D02*
Y109039D01*
X556514Y91186D02*
X559889Y94561D01*
X340179Y94161D02*
Y109293D01*
Y94161D02*
X343154Y91186D01*
X420370D01*
X422729Y93545D01*
Y123571D01*
X126819Y94161D02*
Y108966D01*
X53848Y91186D02*
X129794D01*
X50619Y94415D02*
X53848Y91186D01*
X50619Y94415D02*
Y123571D01*
X129794Y91186D02*
X206502D01*
X209369Y94053D01*
Y123571D01*
X267462Y91186D02*
X343154D01*
X263979Y94669D02*
X267462Y91186D01*
X263979Y94669D02*
Y123571D01*
X482092Y91186D02*
X556514D01*
X479806D02*
X556514D01*
X477339Y93653D02*
X479806Y91186D01*
X477339Y93653D02*
Y123571D01*
X556514Y91186D02*
X632206D01*
X636089Y95069D01*
Y123571D01*
X769874Y91186D02*
X773249Y94561D01*
Y109039D01*
X694182Y91186D02*
X769874D01*
X690699Y94669D02*
X694182Y91186D01*
X690699Y94669D02*
Y123571D01*
X769874Y91186D02*
X847344D01*
X849449Y93291D01*
Y123571D01*
X585289Y108785D02*
Y123571D01*
X591639Y108785D02*
Y123571D01*
X623389D02*
Y138357D01*
X629739Y123571D02*
Y138357D01*
X804999Y108785D02*
Y123571D01*
X798649Y108785D02*
Y123571D01*
X836749D02*
Y138357D01*
X843099Y123571D02*
Y138357D01*
X849449Y123571D02*
X864235D01*
X411000Y769000D02*
X413369Y771369D01*
Y776150D01*
X553000Y768000D02*
Y773281D01*
X555869Y776150D01*
X695000Y767000D02*
Y772781D01*
X698369Y776150D01*
D43*
X811286Y527040D02*
X818388Y519938D01*
X806186Y527040D02*
X811286D01*
X430130Y587232D02*
X430215Y587147D01*
X836749Y34363D02*
Y58801D01*
X843099D01*
X798649Y34363D02*
Y58801D01*
X804999D01*
X754126Y34290D02*
X754199Y34363D01*
Y58801D01*
X760549D01*
X716099Y34363D02*
Y58801D01*
X722449D01*
X623062Y34290D02*
Y58474D01*
X623389Y58801D01*
X629739D01*
X585289Y34471D02*
X585470Y34290D01*
X585289Y34471D02*
Y58801D01*
X591639D01*
X540839Y34471D02*
Y58801D01*
X547189D01*
X502739Y34471D02*
Y58801D01*
Y34471D02*
X502920Y34290D01*
X502739Y58801D02*
X509089D01*
X239000Y693434D02*
Y707000D01*
Y693434D02*
X239014Y693420D01*
X239000Y707000D02*
X252848D01*
X264500Y718652D01*
Y722000D01*
X407000Y718652D02*
Y722000D01*
X395348Y707000D02*
X407000Y718652D01*
X381500Y707000D02*
X395348D01*
X381500Y693434D02*
X381514Y693420D01*
X381500Y693434D02*
Y707000D01*
X549500Y718652D02*
Y722000D01*
X537848Y707000D02*
X549500Y718652D01*
X524000Y707000D02*
X537848D01*
X524000Y693434D02*
X524014Y693420D01*
X524000Y693434D02*
Y707000D01*
X680348D02*
X692000Y718652D01*
X666500Y707000D02*
X680348D01*
X666500Y693434D02*
X666514Y693420D01*
X666500Y693434D02*
Y707000D01*
X692000Y718652D02*
Y722000D01*
D45*
X601266Y392266D02*
X620522D01*
X583918Y386722D02*
X611124Y386588D01*
X569214Y386722D02*
X583918D01*
X586554Y418750D02*
X601258D01*
X615156D01*
X312504Y419100D02*
X323520D01*
D46*
X338520Y405270D02*
Y419100D01*
D47*
X473869Y719400D02*
D03*
X569869D02*
D03*
X616369D02*
D03*
X712369D02*
D03*
X188869D02*
D03*
X284869D02*
D03*
X331369D02*
D03*
X427369D02*
D03*
D48*
X850000Y1023800D02*
D03*
Y998400D02*
D03*
X97000Y1023800D02*
D03*
Y998400D02*
D03*
D49*
X664369Y657400D02*
D03*
X712369D02*
D03*
X569869D02*
D03*
X521869D02*
D03*
X427369D02*
D03*
X379369D02*
D03*
X236869D02*
D03*
X284869D02*
D03*
D50*
X165669Y800400D02*
D03*
X308169D02*
D03*
X593169D02*
D03*
X735669Y800400D02*
D03*
D51*
X165669Y1028400D02*
D03*
Y928400D02*
D03*
X165669Y828400D02*
D03*
Y753400D02*
D03*
X165669Y703400D02*
D03*
X593169Y1028400D02*
D03*
Y928400D02*
D03*
X593169Y828400D02*
D03*
Y753400D02*
D03*
X593169Y703400D02*
D03*
X308169Y978400D02*
D03*
X735669Y678400D02*
D03*
X735669Y778400D02*
D03*
X735669Y878400D02*
D03*
Y978400D02*
D03*
X450669Y678400D02*
D03*
Y778400D02*
D03*
Y878400D02*
D03*
Y978400D02*
D03*
X308169Y878400D02*
D03*
X308169Y778400D02*
D03*
X308169Y678400D02*
D03*
D52*
X63065Y881761D02*
D03*
X836965D02*
D03*
X63065Y222123D02*
D03*
X836965D02*
D03*
D53*
X780670Y582040D02*
D03*
X788670Y574040D02*
D03*
X780670D02*
D03*
X788670Y582040D02*
D03*
D54*
X65278Y760476D02*
D03*
X775462Y958342D02*
D03*
X732282Y420370D02*
D03*
X115570Y971042D02*
D03*
X128778Y800608D02*
D03*
X109474Y823722D02*
D03*
X33020Y1035812D02*
D03*
X25400Y837184D02*
D03*
X115570Y546862D02*
D03*
X104648Y538734D02*
D03*
X744220Y477012D02*
D03*
X777494Y393192D02*
D03*
X724662Y404876D02*
D03*
X656844Y430784D02*
D03*
X646938Y429006D02*
D03*
X648970Y416560D02*
D03*
X695960Y632206D02*
D03*
X784860Y965454D02*
D03*
X785114Y1036066D02*
D03*
X123190Y524256D02*
D03*
X245000Y460000D02*
D03*
X255000D02*
D03*
X265000D02*
D03*
X275000D02*
D03*
X733806Y477012D02*
D03*
X636016Y431038D02*
D03*
X268979Y342646D02*
D03*
X541782Y162052D02*
D03*
X708914Y618236D02*
D03*
X575000Y600000D02*
D03*
X708914Y626212D02*
D03*
X575000Y590000D02*
D03*
X646000Y643000D02*
D03*
X645000Y635000D02*
D03*
X620776Y627634D02*
D03*
X457962Y498856D02*
D03*
X455422Y475742D02*
D03*
X135128Y520954D02*
D03*
X265000Y480000D02*
D03*
X353000Y615000D02*
D03*
X380000D02*
D03*
X220000Y625000D02*
D03*
X325000Y615000D02*
D03*
X257000D02*
D03*
X280000D02*
D03*
X806186Y527040D02*
D03*
X818388Y519938D02*
D03*
X844477D02*
D03*
X812710Y616294D02*
D03*
X806422Y540540D02*
D03*
X780170Y540140D02*
D03*
X794274Y623554D02*
D03*
X795274Y734314D02*
D03*
X804420Y819914D02*
D03*
X869696Y734060D02*
D03*
X321000Y642000D02*
D03*
X494000Y613000D02*
D03*
X545000Y624000D02*
D03*
X600000Y637000D02*
D03*
X200000Y655000D02*
D03*
X340000Y660000D02*
D03*
X508254Y660908D02*
D03*
X487000Y656000D02*
D03*
X620000Y650000D02*
D03*
X700000D02*
D03*
X685000Y630000D02*
D03*
X670000Y615000D02*
D03*
X650000Y650000D02*
D03*
X675000D02*
D03*
X645000Y615000D02*
D03*
X620000Y635000D02*
D03*
X615000Y615000D02*
D03*
X575000Y635000D02*
D03*
X570000Y615000D02*
D03*
X545000Y640000D02*
D03*
X535000Y635000D02*
D03*
X547000Y614000D02*
D03*
X495000Y640000D02*
D03*
X510000Y625000D02*
D03*
X525000Y610000D02*
D03*
X410000Y645000D02*
D03*
X395000Y630000D02*
D03*
X330000Y645000D02*
D03*
X205000Y640000D02*
D03*
X230000Y615000D02*
D03*
X285000Y645000D02*
D03*
X250000D02*
D03*
X849449Y44269D02*
D03*
X177000Y531000D02*
D03*
X203000Y574000D02*
D03*
X115400Y1053000D02*
D03*
X150000Y534000D02*
D03*
X167000Y526000D02*
D03*
X464000Y522000D02*
D03*
X495000Y547000D02*
D03*
X862000Y973000D02*
D03*
X872000Y1053000D02*
D03*
X675000Y590000D02*
D03*
X642369Y776150D02*
D03*
X555000Y490000D02*
D03*
X635000Y510000D02*
D03*
Y500000D02*
D03*
Y490000D02*
D03*
X345000D02*
D03*
Y500000D02*
D03*
Y510000D02*
D03*
X23000Y961276D02*
D03*
X246869Y776150D02*
D03*
X238869Y744650D02*
D03*
X230869Y776150D02*
D03*
X674369D02*
D03*
X666369Y744650D02*
D03*
X658369Y776150D02*
D03*
X531869D02*
D03*
X523869Y744650D02*
D03*
X515869Y776150D02*
D03*
X389369D02*
D03*
X381369Y744650D02*
D03*
X373369Y776150D02*
D03*
X186000Y622570D02*
D03*
X186000Y637696D02*
D03*
X162000D02*
D03*
X194000Y643000D02*
D03*
X500888Y534920D02*
D03*
X565000Y510000D02*
D03*
X555000Y560000D02*
D03*
X565000D02*
D03*
X545000D02*
D03*
Y540000D02*
D03*
X525000Y530000D02*
D03*
X535000D02*
D03*
X635000Y560000D02*
D03*
X645000Y550000D02*
D03*
X355000D02*
D03*
X345000Y560000D02*
D03*
X681344Y524438D02*
D03*
X193446Y553540D02*
D03*
X665000Y500000D02*
D03*
X655000D02*
D03*
X509089Y108785D02*
D03*
X665000Y490000D02*
D03*
X778000Y819162D02*
D03*
X391922Y524256D02*
D03*
Y514256D02*
D03*
X245000Y530000D02*
D03*
X235000D02*
D03*
X222869Y744650D02*
D03*
X214869Y776150D02*
D03*
X206869Y744650D02*
D03*
X198869Y776150D02*
D03*
X254869D02*
D03*
X262869Y744650D02*
D03*
X270869Y776150D02*
D03*
X630369Y694150D02*
D03*
X654369D02*
D03*
X678369D02*
D03*
X702369D02*
D03*
X202869D02*
D03*
X226869D02*
D03*
X250869D02*
D03*
X274869D02*
D03*
X698369Y776150D02*
D03*
X690369Y744650D02*
D03*
X682369Y776150D02*
D03*
X626369D02*
D03*
X634369Y744650D02*
D03*
X650369D02*
D03*
X413369Y776150D02*
D03*
X405369Y744650D02*
D03*
X397369Y776150D02*
D03*
X341369D02*
D03*
X349369Y744650D02*
D03*
X357369Y776150D02*
D03*
X365369Y744650D02*
D03*
X507869D02*
D03*
X499869Y776150D02*
D03*
X491869Y744650D02*
D03*
X483869Y776150D02*
D03*
X539869D02*
D03*
X547869Y744650D02*
D03*
X555869Y776150D02*
D03*
X559869Y694150D02*
D03*
X535869D02*
D03*
X511869D02*
D03*
X487869D02*
D03*
X417369D02*
D03*
X393369D02*
D03*
X369369D02*
D03*
X345369D02*
D03*
X457724Y175504D02*
D03*
X516000Y225322D02*
D03*
X479724Y205584D02*
D03*
X535790Y191000D02*
D03*
X457000Y159750D02*
D03*
X447000D02*
D03*
X521789Y108785D02*
D03*
X502739Y107007D02*
D03*
X490039Y108785D02*
D03*
X483689Y105991D02*
D03*
X700000Y265000D02*
D03*
X79254Y558034D02*
D03*
X80264Y664972D02*
D03*
X26950Y662550D02*
D03*
X39650D02*
D03*
X52350D02*
D03*
X65050D02*
D03*
X26950Y749450D02*
D03*
X39650D02*
D03*
X52350D02*
D03*
X51350Y642450D02*
D03*
X38650D02*
D03*
X25950D02*
D03*
X64050Y555550D02*
D03*
X38650D02*
D03*
X25950D02*
D03*
X90000Y500300D02*
D03*
Y474900D02*
D03*
Y449500D02*
D03*
Y424100D02*
D03*
Y398700D02*
D03*
Y373300D02*
D03*
Y347900D02*
D03*
X25000D02*
D03*
Y373300D02*
D03*
Y398700D02*
D03*
Y424100D02*
D03*
Y449500D02*
D03*
Y474900D02*
D03*
Y500300D02*
D03*
X129000Y543500D02*
D03*
X827250Y302000D02*
D03*
X737362Y163830D02*
D03*
X788952Y364860D02*
D03*
X869122Y391526D02*
D03*
X850000Y435000D02*
D03*
X785622Y271526D02*
D03*
X785876Y255524D02*
D03*
X787146Y310388D02*
D03*
X836749Y34363D02*
D03*
X798649D02*
D03*
X754126Y34290D02*
D03*
X716099Y34363D02*
D03*
X623062Y34290D02*
D03*
X585470D02*
D03*
X540839Y34471D02*
D03*
X502920Y34290D02*
D03*
X302079Y138357D02*
D03*
X50619Y44377D02*
D03*
X69669Y44269D02*
D03*
X88719Y44523D02*
D03*
X107769Y44269D02*
D03*
X126819D02*
D03*
X152219Y44377D02*
D03*
X171269D02*
D03*
X190319Y44269D02*
D03*
X209369D02*
D03*
Y138357D02*
D03*
X107769Y138249D02*
D03*
X88719D02*
D03*
X69669D02*
D03*
X50546Y138430D02*
D03*
X64132Y74422D02*
D03*
X56156D02*
D03*
X75206Y83820D02*
D03*
X102232Y74422D02*
D03*
X94256D02*
D03*
X203832D02*
D03*
X195856D02*
D03*
X184782Y83820D02*
D03*
X176806D02*
D03*
X165732Y74422D02*
D03*
X146682Y84074D02*
D03*
X138706D02*
D03*
X269516Y74422D02*
D03*
X277492D02*
D03*
X288566Y83820D02*
D03*
X296542D02*
D03*
X307616Y74422D02*
D03*
X315592D02*
D03*
X326666Y83820D02*
D03*
X334642D02*
D03*
X83182D02*
D03*
X113306Y84074D02*
D03*
X121282D02*
D03*
X409216Y74168D02*
D03*
X417192D02*
D03*
X352066Y83566D02*
D03*
X360042D02*
D03*
X371116Y74168D02*
D03*
X379092D02*
D03*
X390166Y83820D02*
D03*
X398142D02*
D03*
X263979Y138249D02*
D03*
X283029Y138357D02*
D03*
X321129Y138249D02*
D03*
X346529Y138357D02*
D03*
X365579D02*
D03*
X403679D02*
D03*
X422729Y138249D02*
D03*
X263979Y44377D02*
D03*
X283029Y44269D02*
D03*
X302079D02*
D03*
X321129D02*
D03*
X340179Y44377D02*
D03*
X365579Y44269D02*
D03*
X384629D02*
D03*
X403679Y44377D02*
D03*
X422729Y44269D02*
D03*
X477339Y138357D02*
D03*
X496389D02*
D03*
X515439D02*
D03*
X534489D02*
D03*
X553539D02*
D03*
X578939D02*
D03*
X597989D02*
D03*
X477339Y44269D02*
D03*
X515439Y44377D02*
D03*
X553539Y44269D02*
D03*
X572589Y109039D02*
D03*
X604339D02*
D03*
X483689Y73479D02*
D03*
X521789D02*
D03*
X346529D02*
D03*
X340179Y109293D02*
D03*
X559889Y109039D02*
D03*
X566239Y138357D02*
D03*
X610689D02*
D03*
X617039Y109039D02*
D03*
X133169Y73587D02*
D03*
X126819Y108966D02*
D03*
X490039Y44269D02*
D03*
X496389Y73333D02*
D03*
X528139Y44269D02*
D03*
X534489Y73333D02*
D03*
X559889Y73225D02*
D03*
X566239Y44269D02*
D03*
X572589Y73333D02*
D03*
X578939Y44631D02*
D03*
X597989Y44377D02*
D03*
X604339Y73333D02*
D03*
X610689Y44269D02*
D03*
X617039Y73225D02*
D03*
X636089Y44377D02*
D03*
X690699Y138357D02*
D03*
X697049Y109039D02*
D03*
X709749Y138249D02*
D03*
X728799D02*
D03*
X747849D02*
D03*
X766899Y138357D02*
D03*
X773249Y109039D02*
D03*
X779599Y138357D02*
D03*
X785949Y109039D02*
D03*
X792299Y138357D02*
D03*
X811349D02*
D03*
X817699Y109039D02*
D03*
X824049Y138357D02*
D03*
X830399Y109039D02*
D03*
X690699Y44269D02*
D03*
X697049Y73333D02*
D03*
X703399Y44269D02*
D03*
X709749Y73333D02*
D03*
X728799Y44269D02*
D03*
X735149Y73333D02*
D03*
X741499Y44523D02*
D03*
X747849Y73333D02*
D03*
X766899Y44377D02*
D03*
X773249Y73333D02*
D03*
X779599Y44269D02*
D03*
X785949Y73333D02*
D03*
X792299Y44269D02*
D03*
X811349Y44377D02*
D03*
X817699Y73333D02*
D03*
X824049Y44269D02*
D03*
X830399Y73333D02*
D03*
X384629Y138357D02*
D03*
X190319Y138249D02*
D03*
X171269D02*
D03*
X152219Y138357D02*
D03*
X133169Y138103D02*
D03*
X295000Y520000D02*
D03*
X315000D02*
D03*
X295000Y540000D02*
D03*
X315000D02*
D03*
X295000Y510000D02*
D03*
X285000Y520000D02*
D03*
X315000Y510000D02*
D03*
X325000Y520000D02*
D03*
X285000Y540000D02*
D03*
X295000Y550000D02*
D03*
X325000Y540000D02*
D03*
X315000Y550000D02*
D03*
X285000Y510000D02*
D03*
X325000D02*
D03*
X285000Y550000D02*
D03*
X325000D02*
D03*
X295000Y500000D02*
D03*
X315000D02*
D03*
X275000Y520000D02*
D03*
Y540000D02*
D03*
X335000Y520000D02*
D03*
Y540000D02*
D03*
X295000Y560000D02*
D03*
X315000D02*
D03*
X285000Y500000D02*
D03*
X275000Y510000D02*
D03*
X325000Y500000D02*
D03*
X335000Y510000D02*
D03*
X275000Y550000D02*
D03*
X285000Y560000D02*
D03*
X335000Y550000D02*
D03*
X325000Y560000D02*
D03*
X275000Y500000D02*
D03*
X295000Y490000D02*
D03*
X315000D02*
D03*
X335000Y500000D02*
D03*
X265000Y520000D02*
D03*
Y540000D02*
D03*
X275000Y560000D02*
D03*
X345000Y520000D02*
D03*
Y540000D02*
D03*
X335000Y560000D02*
D03*
X295000Y570000D02*
D03*
X315000D02*
D03*
X285000Y490000D02*
D03*
X265000Y510000D02*
D03*
X325000Y490000D02*
D03*
X265000Y550000D02*
D03*
X345000D02*
D03*
X285000Y570000D02*
D03*
X325000D02*
D03*
X275000Y490000D02*
D03*
X265000Y500000D02*
D03*
X335000Y490000D02*
D03*
X265000Y560000D02*
D03*
X275000Y570000D02*
D03*
X335000D02*
D03*
X295000Y480000D02*
D03*
X315000D02*
D03*
X255000Y520000D02*
D03*
Y540000D02*
D03*
X355000Y520000D02*
D03*
Y540000D02*
D03*
X295000Y580000D02*
D03*
X315000D02*
D03*
X285000Y480000D02*
D03*
X255000Y510000D02*
D03*
X325000Y480000D02*
D03*
X355000Y510000D02*
D03*
X255000Y550000D02*
D03*
X285000Y580000D02*
D03*
X325000D02*
D03*
X265000Y490000D02*
D03*
Y570000D02*
D03*
X345000D02*
D03*
X275000Y480000D02*
D03*
X335000D02*
D03*
X255000Y500000D02*
D03*
Y560000D02*
D03*
X355000Y500000D02*
D03*
Y560000D02*
D03*
X275000Y580000D02*
D03*
X335000D02*
D03*
X295000Y470000D02*
D03*
X245000Y540000D02*
D03*
X365000Y520000D02*
D03*
Y540000D02*
D03*
X295000Y590000D02*
D03*
X315000D02*
D03*
X255000Y490000D02*
D03*
X345000Y480000D02*
D03*
X355000Y490000D02*
D03*
X365000Y510000D02*
D03*
X245000Y550000D02*
D03*
X255000Y570000D02*
D03*
X355000D02*
D03*
X265000Y580000D02*
D03*
X345000D02*
D03*
X365000Y550000D02*
D03*
X325000Y590000D02*
D03*
X245000Y560000D02*
D03*
X365000Y500000D02*
D03*
Y560000D02*
D03*
X275000Y590000D02*
D03*
X335000D02*
D03*
X255000Y480000D02*
D03*
X355000D02*
D03*
X255000Y580000D02*
D03*
X355000D02*
D03*
X295000Y460000D02*
D03*
X365000Y490000D02*
D03*
X235000Y540000D02*
D03*
X245000Y570000D02*
D03*
X375000Y520000D02*
D03*
Y540000D02*
D03*
X365000Y570000D02*
D03*
X295000Y600000D02*
D03*
X315000D02*
D03*
X235000Y550000D02*
D03*
X375000Y510000D02*
D03*
Y550000D02*
D03*
X325000Y600000D02*
D03*
X375000Y500000D02*
D03*
X235000Y560000D02*
D03*
X275000Y600000D02*
D03*
X375000Y560000D02*
D03*
X335000Y600000D02*
D03*
X255000Y470000D02*
D03*
X355000D02*
D03*
X365000Y480000D02*
D03*
X245000Y580000D02*
D03*
X365000D02*
D03*
X355000Y590000D02*
D03*
X235000Y570000D02*
D03*
X375000Y490000D02*
D03*
Y570000D02*
D03*
X245000Y470000D02*
D03*
X365000D02*
D03*
X355000Y460000D02*
D03*
X375000Y480000D02*
D03*
X235000Y580000D02*
D03*
X375000D02*
D03*
X355000Y600000D02*
D03*
X235000Y470000D02*
D03*
X365000Y460000D02*
D03*
X375000Y470000D02*
D03*
X235000Y590000D02*
D03*
X375000D02*
D03*
X235000Y460000D02*
D03*
X375000D02*
D03*
X235000Y600000D02*
D03*
X375000D02*
D03*
X605000Y520000D02*
D03*
X585000D02*
D03*
Y540000D02*
D03*
X605000D02*
D03*
Y510000D02*
D03*
X615000Y520000D02*
D03*
X585000Y510000D02*
D03*
X575000Y520000D02*
D03*
X615000Y540000D02*
D03*
X605000Y550000D02*
D03*
X575000Y540000D02*
D03*
X585000Y550000D02*
D03*
X615000Y510000D02*
D03*
X575000D02*
D03*
X615000Y550000D02*
D03*
X575000D02*
D03*
X585000Y500000D02*
D03*
X605000D02*
D03*
X625000Y520000D02*
D03*
Y540000D02*
D03*
X565000Y520000D02*
D03*
Y540000D02*
D03*
X585000Y560000D02*
D03*
X605000D02*
D03*
X615000Y500000D02*
D03*
X625000Y510000D02*
D03*
X575000Y500000D02*
D03*
X625000Y550000D02*
D03*
X615000Y560000D02*
D03*
X565000Y550000D02*
D03*
X575000Y560000D02*
D03*
X625000Y500000D02*
D03*
X585000Y490000D02*
D03*
X605000D02*
D03*
X565000Y500000D02*
D03*
X635000Y520000D02*
D03*
Y540000D02*
D03*
X625000Y560000D02*
D03*
X555000Y520000D02*
D03*
Y540000D02*
D03*
X585000Y570000D02*
D03*
X605000D02*
D03*
X615000Y490000D02*
D03*
X575000D02*
D03*
X555000Y510000D02*
D03*
Y550000D02*
D03*
X635000D02*
D03*
X575000Y570000D02*
D03*
X615000D02*
D03*
X625000Y490000D02*
D03*
X565000D02*
D03*
X555000Y500000D02*
D03*
X565000Y570000D02*
D03*
X625000D02*
D03*
X585000Y480000D02*
D03*
X605000D02*
D03*
X645000Y520000D02*
D03*
Y540000D02*
D03*
X545000Y520000D02*
D03*
X585000Y580000D02*
D03*
X605000D02*
D03*
X615000Y480000D02*
D03*
X645000Y510000D02*
D03*
X575000Y480000D02*
D03*
X545000Y510000D02*
D03*
X575000Y580000D02*
D03*
X615000D02*
D03*
X635000Y570000D02*
D03*
X555000D02*
D03*
X565000Y480000D02*
D03*
X625000D02*
D03*
X645000Y500000D02*
D03*
Y560000D02*
D03*
X545000Y500000D02*
D03*
X565000Y580000D02*
D03*
X625000D02*
D03*
X585000Y470000D02*
D03*
X655000Y520000D02*
D03*
Y540000D02*
D03*
X535000D02*
D03*
X585000Y590000D02*
D03*
X605000D02*
D03*
X635000Y480000D02*
D03*
X645000Y490000D02*
D03*
X655000Y510000D02*
D03*
X575000Y470000D02*
D03*
X555000Y480000D02*
D03*
X545000Y490000D02*
D03*
X655000Y550000D02*
D03*
X545000Y570000D02*
D03*
X645000D02*
D03*
X555000Y580000D02*
D03*
X635000D02*
D03*
X615000Y590000D02*
D03*
X535000Y550000D02*
D03*
X565000Y470000D02*
D03*
X655000Y560000D02*
D03*
X535000D02*
D03*
X565000Y590000D02*
D03*
X625000D02*
D03*
X545000Y480000D02*
D03*
X645000D02*
D03*
Y580000D02*
D03*
X545000D02*
D03*
X655000Y490000D02*
D03*
X585000Y460000D02*
D03*
X555000Y470000D02*
D03*
X665000Y520000D02*
D03*
Y540000D02*
D03*
X655000Y570000D02*
D03*
X525000Y540000D02*
D03*
X535000Y570000D02*
D03*
X585000Y600000D02*
D03*
X605000D02*
D03*
X575000Y460000D02*
D03*
X665000Y510000D02*
D03*
Y550000D02*
D03*
X525000D02*
D03*
X615000Y600000D02*
D03*
X565000Y460000D02*
D03*
X665000Y560000D02*
D03*
X625000Y600000D02*
D03*
X525000Y560000D02*
D03*
X565000Y600000D02*
D03*
X645000Y470000D02*
D03*
X655000Y480000D02*
D03*
X545000Y470000D02*
D03*
X655000Y580000D02*
D03*
X645000Y590000D02*
D03*
X535000Y580000D02*
D03*
X545000Y590000D02*
D03*
X555000Y460000D02*
D03*
X665000Y570000D02*
D03*
X525000D02*
D03*
X655000Y470000D02*
D03*
X535000D02*
D03*
X545000Y460000D02*
D03*
X645000D02*
D03*
X665000Y480000D02*
D03*
Y580000D02*
D03*
X645000Y600000D02*
D03*
X525000Y580000D02*
D03*
X545000Y600000D02*
D03*
X655000Y460000D02*
D03*
X665000Y470000D02*
D03*
X535000Y460000D02*
D03*
X525000Y470000D02*
D03*
X665000Y590000D02*
D03*
X525000D02*
D03*
X665000Y460000D02*
D03*
X525000D02*
D03*
X665000Y600000D02*
D03*
X525000D02*
D03*
X285000Y470000D02*
D03*
Y460000D02*
D03*
X275000Y470000D02*
D03*
X265000D02*
D03*
X157756Y74422D02*
D03*
X255000Y590000D02*
D03*
Y600000D02*
D03*
X633000Y278000D02*
D03*
X631000Y266000D02*
D03*
X687000Y217000D02*
D03*
X715678Y269524D02*
D03*
X585289Y108785D02*
D03*
X591639D02*
D03*
X623389Y138357D02*
D03*
X629739D02*
D03*
X804999Y108785D02*
D03*
X798649D02*
D03*
X836749Y138357D02*
D03*
X843099D02*
D03*
X864235Y123571D02*
D03*
X192532Y431292D02*
D03*
X455930Y431546D02*
D03*
X531876Y228854D02*
D03*
X542798Y243586D02*
D03*
X228869Y713888D02*
D03*
X239014Y693420D02*
D03*
X381514D02*
D03*
X524014D02*
D03*
X666514D02*
D03*
X371869Y714888D02*
D03*
X513869Y713888D02*
D03*
X655869D02*
D03*
X547223Y798977D02*
D03*
X405223Y797977D02*
D03*
X262223Y796977D02*
D03*
X689609Y797977D02*
D03*
X545000Y550000D02*
D03*
X285000Y630000D02*
D03*
X255000D02*
D03*
X323000Y635000D02*
D03*
X775665Y628650D02*
D03*
X783641D02*
D03*
X285000Y590000D02*
D03*
Y600000D02*
D03*
X436118Y524764D02*
D03*
X368000Y638000D02*
D03*
X356108Y626364D02*
D03*
Y645160D02*
D03*
D55*
X740000Y290000D02*
D03*
X752000D02*
D03*
X764000D02*
D03*
X740000Y278000D02*
D03*
X752000D02*
D03*
X764000D02*
D03*
X740000Y266000D02*
D03*
X752000D02*
D03*
X764000D02*
D03*
X612000Y218000D02*
D03*
Y230000D02*
D03*
Y242000D02*
D03*
X624000Y218000D02*
D03*
Y230000D02*
D03*
Y242000D02*
D03*
X636000Y218000D02*
D03*
Y230000D02*
D03*
Y242000D02*
D03*
X847500Y386000D02*
D03*
X835500D02*
D03*
X823500D02*
D03*
X847500Y398000D02*
D03*
X835500D02*
D03*
X823500D02*
D03*
X847500Y410000D02*
D03*
X835500D02*
D03*
X823500D02*
D03*
X819930Y739710D02*
D03*
X831930D02*
D03*
X843930D02*
D03*
X819930Y727710D02*
D03*
X831930D02*
D03*
X843930D02*
D03*
X819930Y715710D02*
D03*
X831930D02*
D03*
X843930D02*
D03*
D68*
X56969Y58801D02*
D03*
X63319D02*
D03*
X76019D02*
D03*
X82369D02*
D03*
X95069D02*
D03*
X101419D02*
D03*
X114119D02*
D03*
X120469D02*
D03*
X139519D02*
D03*
X145869D02*
D03*
X158569D02*
D03*
X164919D02*
D03*
X177619D02*
D03*
X183969D02*
D03*
X196669D02*
D03*
X203019D02*
D03*
X56969Y123571D02*
D03*
X63319D02*
D03*
X76019D02*
D03*
X82369D02*
D03*
X95069D02*
D03*
X101419D02*
D03*
X114119D02*
D03*
X120469D02*
D03*
X139519D02*
D03*
X145869D02*
D03*
X158569D02*
D03*
X164919D02*
D03*
X177619D02*
D03*
X183969D02*
D03*
X196669D02*
D03*
X203019D02*
D03*
X270329Y58801D02*
D03*
X276679D02*
D03*
X289379D02*
D03*
X295729D02*
D03*
X308429D02*
D03*
X314779D02*
D03*
X327479D02*
D03*
X333829D02*
D03*
X352879D02*
D03*
X359229D02*
D03*
X371929D02*
D03*
X378279D02*
D03*
X390979D02*
D03*
X397329D02*
D03*
X410029D02*
D03*
X416379D02*
D03*
X270329Y123571D02*
D03*
X276679D02*
D03*
X289379D02*
D03*
X295729D02*
D03*
X308429D02*
D03*
X314779D02*
D03*
X327479D02*
D03*
X333829D02*
D03*
X352879D02*
D03*
X359229D02*
D03*
X371929D02*
D03*
X378279D02*
D03*
X390979D02*
D03*
X397329D02*
D03*
X410029D02*
D03*
X416379D02*
D03*
X483689Y58801D02*
D03*
X490039D02*
D03*
X502739D02*
D03*
X509089D02*
D03*
X521789D02*
D03*
X528139D02*
D03*
X540839D02*
D03*
X547189D02*
D03*
X566239D02*
D03*
X572589D02*
D03*
X585289D02*
D03*
X591639D02*
D03*
X604339D02*
D03*
X623389D02*
D03*
X629739D02*
D03*
X483689Y123571D02*
D03*
X490039D02*
D03*
X502739D02*
D03*
X521789D02*
D03*
X540839D02*
D03*
X547189D02*
D03*
X566239D02*
D03*
X572589D02*
D03*
X585289D02*
D03*
X591639D02*
D03*
X604339D02*
D03*
X610689D02*
D03*
X623389D02*
D03*
X629739D02*
D03*
X697049Y58801D02*
D03*
X703399D02*
D03*
X716099D02*
D03*
X722449D02*
D03*
X735149D02*
D03*
X741499D02*
D03*
X754199D02*
D03*
X760549D02*
D03*
X779599D02*
D03*
X785949D02*
D03*
X798649D02*
D03*
X804999D02*
D03*
X817699D02*
D03*
X824049D02*
D03*
X836749D02*
D03*
X843099D02*
D03*
X697049Y123571D02*
D03*
X703399D02*
D03*
X716099D02*
D03*
X722449D02*
D03*
X735149D02*
D03*
X741499D02*
D03*
X754199D02*
D03*
X760549D02*
D03*
X779599D02*
D03*
X785949D02*
D03*
X798649D02*
D03*
X804999D02*
D03*
X817699D02*
D03*
X824049D02*
D03*
X836749D02*
D03*
X843099D02*
D03*
X209369D02*
D03*
X190319D02*
D03*
X171269D02*
D03*
X152219D02*
D03*
X133169D02*
D03*
X126819D02*
D03*
X107769D02*
D03*
X88719D02*
D03*
X69669D02*
D03*
X50619D02*
D03*
X263979D02*
D03*
X283029D02*
D03*
X302079D02*
D03*
X321129D02*
D03*
X340179D02*
D03*
X346529D02*
D03*
X365579D02*
D03*
X384629D02*
D03*
X403679D02*
D03*
X422729D02*
D03*
Y58801D02*
D03*
X403679D02*
D03*
X384629D02*
D03*
X365579D02*
D03*
X346529D02*
D03*
X340179D02*
D03*
X321129D02*
D03*
X302079D02*
D03*
X283029D02*
D03*
X263979D02*
D03*
X50619D02*
D03*
X69669D02*
D03*
X88719D02*
D03*
X107769D02*
D03*
X126819D02*
D03*
X133169D02*
D03*
X152219D02*
D03*
X171269D02*
D03*
X190319D02*
D03*
X209369D02*
D03*
X477339Y123571D02*
D03*
X496389D02*
D03*
X515439D02*
D03*
X534489D02*
D03*
X553539D02*
D03*
X559889D02*
D03*
X578939D02*
D03*
X597989D02*
D03*
X617039D02*
D03*
X636089D02*
D03*
X477339Y58801D02*
D03*
X496389D02*
D03*
X515439D02*
D03*
X534489D02*
D03*
X553539D02*
D03*
X559889D02*
D03*
X578939D02*
D03*
X597989D02*
D03*
X617039D02*
D03*
X636089D02*
D03*
X849449D02*
D03*
X830399D02*
D03*
X811349D02*
D03*
X792299D02*
D03*
X773249D02*
D03*
X766899D02*
D03*
X747849D02*
D03*
X728799D02*
D03*
X709749D02*
D03*
X690699D02*
D03*
X849449Y123571D02*
D03*
X830399D02*
D03*
X811349D02*
D03*
X792299D02*
D03*
X773249D02*
D03*
X766899D02*
D03*
X747849D02*
D03*
X728799D02*
D03*
X709749D02*
D03*
X690699D02*
D03*
X610689Y58801D02*
D03*
X528139Y123571D02*
D03*
X509089D02*
D03*
D69*
X769874Y91186D02*
D03*
X556514D02*
D03*
X343154D02*
D03*
X129794D02*
D03*
M02*
