M48
;Layer_Color=9474304
;FILE_FORMAT=4:4
METRIC,LZ
;TYPE=PLATED
T1F00S00C0.2540
T2F00S00C0.4064
T3F00S00C3.8100
;TYPE=NON_PLATED
T4F00S00C1.1684
T5F00S00C1.8200
T6F00S00C2.2000
%
T01
X00050619Y00044377
X00069669Y00044269
X00064132Y00074422
X00056156
X00094256
X00102232
X00133169Y00073587
X00157756Y00074422
X00165732
X00195856
X00203832
X00209369Y00044269
X00190319
X00171269Y00044377
X00152219
X00126819Y00044269
X00107769
X00088719Y00044523
X00263979Y00044377
X00283029Y00044269
X00302079
X00321129
X00340179Y00044377
X00365579Y00044269
X00384629
X00403679Y00044377
X00422729Y00044269
X00417192Y00074168
X00409216
X00379092
X00371116
X00346529Y00073479
X00315592Y00074422
X00307616
X00277492
X00269516
X00477339Y00044269
X00490039
X0050292Y0003429
X00515439Y00044377
X00528139Y00044269
X00540839Y00034471
X00553539Y00044269
X00566239
X00578939Y00044631
X0058547Y0003429
X00597989Y00044377
X00610689Y00044269
X00623062Y0003429
X00636089Y00044377
X00617039Y00073225
X00604339Y00073333
X00572589
X00559889Y00073225
X00534489Y00073333
X00521789Y00073479
X00496389Y00073333
X00483689Y00073479
X00697049Y00073333
X00709749
X00735149
X00747849
X00773249
X00785949
X00817699
X00830399
X00824049Y00044269
X00811349Y00044377
X00792299Y00044269
X00779599
X00766899Y00044377
X00754126Y0003429
X00741499Y00044523
X00728799Y00044269
X00716099Y00034363
X00703399Y00044269
X00690699
X00798649Y00034363
X00836749
X00849449Y00044269
X00830399Y00109039
X00817699
X00785949
X00773249
X00766899Y00138357
X00779599
X00792299
X00811349
X00824049
X00849449
X00747849Y00138249
X00728799
X00709749
X00690699Y00138357
X00697049Y00109039
X00617039
X00604339
X00572589
X00559889
X00553539Y00138357
X00566239
X00578939
X00597989
X00610689
X00534489
X00515439
X00496389
X00595376Y00277368
X00615546Y00277218
X00635546Y00277152
X00655546Y0027734
X00675546Y00277528
X00695546Y00277462
X00695452Y00372872
X00675546Y00372778
X00655546Y00372844
X00635546Y00372834
X00615546Y00372768
X00595546Y00372788
X00715546Y00372844
X00735546Y00372834
X00755546Y00372722
X00775546Y00372788
X00754126Y00225806
X00477339Y00138357
X00422729Y00138249
X00403679Y00138357
X00384629
X00365579
X00346529
X00321129Y00138249
X00302079Y00138357
X00283029
X00263979Y00138249
X00209369Y00138357
X00190319Y00138249
X00171269
X00152219Y00138357
X00133169Y00138103
X00107769Y00138249
X00088719
X00083182Y0008382
X00113306Y00084074
X00121282
X00138706
X00146682
X00176806Y0008382
X00184782
X00126819Y00108966
X00288566Y0008382
X00296542
X00326666
X00334642
X00352066Y00083566
X00360042
X00390166Y0008382
X00398142
X00340179Y00109293
X00075206Y0008382
X00069669Y00138249
X00050546Y0013843
X00082042Y00743712
X0011938Y0077343
X00106934Y00790956
X00123364Y0062222
X00123364Y0061222
X00126746Y0060579
X0013335
X00094568Y0058793
X00094568Y0057793
X00098552Y00561848
Y00537464
X00115824Y00537464
X00133604
X00315214Y00722122
X00332486Y00722122
X00350266
X00315214Y0074676
X00312754Y00763604
X00312754Y00773604
X00343662Y0079121
X0035052Y00790956
X00340534Y00797386
X00340534Y00807386
X00653034Y00746506
X00653034Y00729234
Y00711454
X00677418Y00746506
X00694262Y00749888
X00704262Y00749888
X0072192Y00717856
X00721966Y00711356
X00730076Y00719916
X00740156Y00719836
X00713402Y00643466
X00713232Y0062499
Y00616854
X0071327Y00603466
X00713232Y0058485
Y00576951
X00713326Y00563466
X00713232Y0054485
Y00536951
X0071326Y00523466
X00713232Y0050485
Y00496951
X00660372Y0052372
X0066024Y0056372
X00660362Y0060372
X0066023Y0064372
X0056405
X00563626Y00604266
X00563974Y0056372
X00563908Y0052372
X008082Y00523466
X00808068Y00563466
X0080819Y00603466
X00808228Y00643382
X00788924Y00784352
X00779526Y00784352
X00797814Y0079629
X00846533Y00770177
X00832122Y00962864
X00831868Y00992074
X00802665Y00993902
X00795045
X00791286Y01003555
X00776209Y01003569
X00772439Y00993902
X00764819
X00757453Y00987044
X00749833
X00746208Y01003344
X00731342Y01003357
X00716209Y01003371
X00701209Y01003469
X00686209Y01003399
X00780059Y00987044
X00787679
X00806209Y01003795
X00536194Y0099187
X00536626Y00962584
X00507492Y00993902
X00499364
X00495553Y01003809
X00480553Y01003315
X00483946Y00987044
X00491566
X00511048Y01003554
X00477012Y00993902
X00468884
X00462026Y00987044
X00453955Y00987
X00450552Y01003344
X00435635Y01003357
X00420553Y01003483
X00405553Y01003385
X00390553Y01003455
X00325044Y00974776
X0033528Y00957326
X00299974Y00927862
X002413Y00962914
X00240538Y0099187
X00211582Y00993902
X00203447Y00994
X00199898Y01003224
X00184912Y010033
X00181422Y00994
X00173447
X00166553Y00987
X00158578
X00154711Y010033
X00139643Y01003357
X00124638Y01003275
X00109643Y01003385
X00094488Y010033
X00188447Y00987
X00196422
X00214884Y010033
T02
X00653288Y00147828
X00674116
X00703326Y00150622
X00674116Y002032
X00653288
X006604Y00464058
X00713232Y0046355
X00808312Y00463466
X00563964Y0046372
X00459994Y002032
X00439166
Y00147574
X00459994
X00333756Y00829056
X00305054
X0013081Y00754126
Y00733552
X00115824Y00644144
X00087376
X0056403Y0048372
X0066025
X00713336Y00483466
X00808332
X00762Y00727964
Y00756158
X00818134Y00809752
X00838454
X0035052Y00917448
Y00938022
T03
X00837765Y00222123
X00063065
X00837765Y00881761
X00063573
T04
X00026924Y00070866
X00872744
T05
X00523053Y01061547
X00673709Y01061548
X00818709Y01061547
X00378053Y01061548
X00227143Y01061547
X00082143Y01061548
T06
X00555053Y01041548
X00641709
X00850709
X00346053
X00259143
X00050143
M30
