%FSLAX44Y44*%
%MOMM*%
G71*
G01*
G75*
G04 Layer_Color=16711935*
G04:AMPARAMS|DCode=10|XSize=0.5mm|YSize=0.6mm|CornerRadius=0.125mm|HoleSize=0mm|Usage=FLASHONLY|Rotation=0.000|XOffset=0mm|YOffset=0mm|HoleType=Round|Shape=RoundedRectangle|*
%AMROUNDEDRECTD10*
21,1,0.5000,0.3500,0,0,0.0*
21,1,0.2500,0.6000,0,0,0.0*
1,1,0.2500,0.1250,-0.1750*
1,1,0.2500,-0.1250,-0.1750*
1,1,0.2500,-0.1250,0.1750*
1,1,0.2500,0.1250,0.1750*
%
%ADD10ROUNDEDRECTD10*%
%ADD11R,0.6000X0.6000*%
%ADD12R,0.6000X0.6000*%
G04:AMPARAMS|DCode=13|XSize=0.5mm|YSize=0.6mm|CornerRadius=0.125mm|HoleSize=0mm|Usage=FLASHONLY|Rotation=270.000|XOffset=0mm|YOffset=0mm|HoleType=Round|Shape=RoundedRectangle|*
%AMROUNDEDRECTD13*
21,1,0.5000,0.3500,0,0,270.0*
21,1,0.2500,0.6000,0,0,270.0*
1,1,0.2500,-0.1750,-0.1250*
1,1,0.2500,-0.1750,0.1250*
1,1,0.2500,0.1750,0.1250*
1,1,0.2500,0.1750,-0.1250*
%
%ADD13ROUNDEDRECTD13*%
%ADD14R,1.0200X3.3000*%
%ADD15R,1.1000X2.6000*%
%ADD16R,2.6000X1.1000*%
%ADD17R,0.3050X2.6000*%
%ADD18R,3.3000X1.0200*%
%ADD19R,0.3500X0.8500*%
%ADD20R,0.8500X0.3500*%
%ADD21R,1.1000X1.4000*%
%ADD22R,1.4000X1.1000*%
%ADD23R,1.8000X1.1500*%
%ADD24R,0.4200X1.2200*%
%ADD25R,0.6000X1.8000*%
%ADD26R,1.2200X0.4200*%
%ADD27R,1.8000X0.6000*%
%ADD28C,0.3048*%
%ADD29C,0.5080*%
%ADD30C,0.2083*%
%ADD31C,0.1524*%
%ADD32C,0.1778*%
%ADD33C,0.2540*%
%ADD34C,0.2032*%
%ADD35C,8.0000*%
%ADD36C,2.2000*%
%ADD37C,1.8200*%
%ADD38C,0.4572*%
%ADD39C,0.8128*%
%ADD40C,0.4928*%
%ADD41C,0.4851*%
%ADD42C,1.0160*%
%ADD43C,4.8260*%
%ADD44C,3.2160*%
%ADD45C,2.8360*%
%ADD46C,2.1844*%
%ADD47C,1.2700*%
G04:AMPARAMS|DCode=48|XSize=1.5748mm|YSize=1.5748mm|CornerRadius=0mm|HoleSize=0mm|Usage=FLASHONLY|Rotation=0.000|XOffset=0mm|YOffset=0mm|HoleType=Round|Shape=Relief|Width=0.254mm|Gap=0.1524mm|Entries=4|*
%AMTHD48*
7,0,0,1.5748,1.2700,0.2540,45*
%
%ADD48THD48*%
G04:AMPARAMS|DCode=49|XSize=1.7272mm|YSize=1.7272mm|CornerRadius=0mm|HoleSize=0mm|Usage=FLASHONLY|Rotation=0.000|XOffset=0mm|YOffset=0mm|HoleType=Round|Shape=Relief|Width=0.254mm|Gap=0.1524mm|Entries=4|*
%AMTHD49*
7,0,0,1.7272,1.4224,0.2540,45*
%
%ADD49THD49*%
%ADD50C,1.4224*%
%ADD51R,0.4064X2.1590*%
%ADD52R,18.0340X0.5080*%
%ADD53R,1.8000X1.8000*%
%ADD54C,0.2500*%
%ADD55C,0.6000*%
%ADD56C,0.2000*%
%ADD57C,0.1000*%
%ADD58C,0.1016*%
G04:AMPARAMS|DCode=59|XSize=0.7032mm|YSize=0.8032mm|CornerRadius=0.1758mm|HoleSize=0mm|Usage=FLASHONLY|Rotation=0.000|XOffset=0mm|YOffset=0mm|HoleType=Round|Shape=RoundedRectangle|*
%AMROUNDEDRECTD59*
21,1,0.7032,0.4516,0,0,0.0*
21,1,0.3516,0.8032,0,0,0.0*
1,1,0.3516,0.1758,-0.2258*
1,1,0.3516,-0.1758,-0.2258*
1,1,0.3516,-0.1758,0.2258*
1,1,0.3516,0.1758,0.2258*
%
%ADD59ROUNDEDRECTD59*%
%ADD60R,0.8032X0.8032*%
%ADD61R,0.8032X0.8032*%
G04:AMPARAMS|DCode=62|XSize=0.7032mm|YSize=0.8032mm|CornerRadius=0.1758mm|HoleSize=0mm|Usage=FLASHONLY|Rotation=270.000|XOffset=0mm|YOffset=0mm|HoleType=Round|Shape=RoundedRectangle|*
%AMROUNDEDRECTD62*
21,1,0.7032,0.4516,0,0,270.0*
21,1,0.3516,0.8032,0,0,270.0*
1,1,0.3516,-0.2258,-0.1758*
1,1,0.3516,-0.2258,0.1758*
1,1,0.3516,0.2258,0.1758*
1,1,0.3516,0.2258,-0.1758*
%
%ADD62ROUNDEDRECTD62*%
%ADD63R,1.2232X3.5032*%
%ADD64R,1.3032X2.8032*%
%ADD65R,2.8032X1.3032*%
%ADD66R,0.5082X2.8032*%
%ADD67R,3.5032X1.2232*%
%ADD68R,0.5532X1.0532*%
%ADD69R,1.0532X0.5532*%
%ADD70R,1.3032X1.6032*%
%ADD71R,1.6032X1.3032*%
%ADD72R,2.0032X1.3532*%
%ADD73R,0.6232X1.4232*%
%ADD74R,0.8032X2.0032*%
%ADD75R,1.4232X0.6232*%
%ADD76R,2.0032X0.8032*%
%ADD77C,8.2032*%
%ADD78C,2.4032*%
%ADD79C,2.0232*%
%ADD80C,0.2032*%
%ADD81C,0.6604*%
%ADD82C,1.0160*%
%ADD83C,0.6960*%
%ADD84C,0.6883*%
%ADD85R,0.6096X2.3622*%
%ADD86R,18.2372X0.7112*%
%ADD87R,2.0032X2.0032*%
D65*
X449580Y189014D02*
D03*
Y162014D02*
D03*
X663702Y189014D02*
D03*
Y162014D02*
D03*
D77*
X63573Y881761D02*
D03*
X837765D02*
D03*
X63065Y222123D02*
D03*
X837765D02*
D03*
D78*
X346053Y1041548D02*
D03*
X555053D02*
D03*
X641709D02*
D03*
X850709D02*
D03*
X50143D02*
D03*
X259143D02*
D03*
D79*
X378053Y1061548D02*
D03*
X523053Y1061547D02*
D03*
X673709Y1061548D02*
D03*
X818709Y1061547D02*
D03*
X82143Y1061548D02*
D03*
X227143Y1061547D02*
D03*
D80*
X872744Y70866D02*
D03*
X26924D02*
D03*
D81*
X686209Y1003399D02*
D03*
X701209Y1003469D02*
D03*
X716209Y1003371D02*
D03*
X731342Y1003357D02*
D03*
X836749Y34363D02*
D03*
X798649D02*
D03*
X754126Y34290D02*
D03*
X716099Y34363D02*
D03*
X623062Y34290D02*
D03*
X585470D02*
D03*
X540839Y34471D02*
D03*
X502920Y34290D02*
D03*
X106934Y790956D02*
D03*
X82042Y743712D02*
D03*
X754126Y225806D02*
D03*
X595546Y372788D02*
D03*
X615546Y372768D02*
D03*
X635546Y372834D02*
D03*
X655546Y372844D02*
D03*
X675546Y372778D02*
D03*
X695452Y372872D02*
D03*
X715546Y372844D02*
D03*
X735546Y372834D02*
D03*
X755546Y372722D02*
D03*
X775546Y372788D02*
D03*
X713260Y523466D02*
D03*
X808200D02*
D03*
X808068Y563466D02*
D03*
X713326D02*
D03*
X808190Y603466D02*
D03*
X808228Y643382D02*
D03*
X713270Y603466D02*
D03*
X713402Y643466D02*
D03*
X660372Y523720D02*
D03*
X660240Y563720D02*
D03*
X660362Y603720D02*
D03*
X660230Y643720D02*
D03*
X563908Y523720D02*
D03*
X563974Y563720D02*
D03*
X564050Y643720D02*
D03*
X302079Y138357D02*
D03*
X50619Y44377D02*
D03*
X69669Y44269D02*
D03*
X88719Y44523D02*
D03*
X107769Y44269D02*
D03*
X126819D02*
D03*
X152219Y44377D02*
D03*
X171269D02*
D03*
X190319Y44269D02*
D03*
X209369D02*
D03*
Y138357D02*
D03*
X107769Y138249D02*
D03*
X88719D02*
D03*
X69669D02*
D03*
X50546Y138430D02*
D03*
X806209Y1003795D02*
D03*
X495553Y1003809D02*
D03*
X480553Y1003315D02*
D03*
X139643Y1003357D02*
D03*
X511048Y1003554D02*
D03*
X435635Y1003357D02*
D03*
X450552Y1003344D02*
D03*
X420553Y1003483D02*
D03*
X405553Y1003385D02*
D03*
X390553Y1003455D02*
D03*
X109643Y1003385D02*
D03*
X124638Y1003275D02*
D03*
X154711Y1003300D02*
D03*
X184912D02*
D03*
X263979Y138249D02*
D03*
X283029Y138357D02*
D03*
X321129Y138249D02*
D03*
X346529Y138357D02*
D03*
X365579D02*
D03*
X403679D02*
D03*
X422729Y138249D02*
D03*
X263979Y44377D02*
D03*
X283029Y44269D02*
D03*
X302079D02*
D03*
X321129D02*
D03*
X340179Y44377D02*
D03*
X365579Y44269D02*
D03*
X384629D02*
D03*
X403679Y44377D02*
D03*
X422729Y44269D02*
D03*
X477339Y138357D02*
D03*
X496389D02*
D03*
X515439D02*
D03*
X534489D02*
D03*
X553539D02*
D03*
X578939D02*
D03*
X597989D02*
D03*
X477339Y44269D02*
D03*
X515439Y44377D02*
D03*
X553539Y44269D02*
D03*
X572589Y109039D02*
D03*
X604339D02*
D03*
X483689Y73479D02*
D03*
X521789D02*
D03*
X346529D02*
D03*
X340179Y109293D02*
D03*
X559889Y109039D02*
D03*
X566239Y138357D02*
D03*
X610689D02*
D03*
X617039Y109039D02*
D03*
X133169Y73587D02*
D03*
X126819Y108966D02*
D03*
X490039Y44269D02*
D03*
X496389Y73333D02*
D03*
X528139Y44269D02*
D03*
X534489Y73333D02*
D03*
X559889Y73225D02*
D03*
X566239Y44269D02*
D03*
X572589Y73333D02*
D03*
X578939Y44631D02*
D03*
X597989Y44377D02*
D03*
X604339Y73333D02*
D03*
X610689Y44269D02*
D03*
X617039Y73225D02*
D03*
X636089Y44377D02*
D03*
X690699Y138357D02*
D03*
X697049Y109039D02*
D03*
X709749Y138249D02*
D03*
X728799D02*
D03*
X747849D02*
D03*
X766899Y138357D02*
D03*
X773249Y109039D02*
D03*
X779599Y138357D02*
D03*
X785949Y109039D02*
D03*
X792299Y138357D02*
D03*
X811349D02*
D03*
X817699Y109039D02*
D03*
X824049Y138357D02*
D03*
X830399Y109039D02*
D03*
X849449Y138357D02*
D03*
X690699Y44269D02*
D03*
X697049Y73333D02*
D03*
X703399Y44269D02*
D03*
X709749Y73333D02*
D03*
X728799Y44269D02*
D03*
X735149Y73333D02*
D03*
X741499Y44523D02*
D03*
X747849Y73333D02*
D03*
X766899Y44377D02*
D03*
X773249Y73333D02*
D03*
X779599Y44269D02*
D03*
X785949Y73333D02*
D03*
X792299Y44269D02*
D03*
X811349Y44377D02*
D03*
X817699Y73333D02*
D03*
X824049Y44269D02*
D03*
X830399Y73333D02*
D03*
X849449Y44269D02*
D03*
X595376Y277368D02*
D03*
X615546Y277218D02*
D03*
X635546Y277152D02*
D03*
X655546Y277340D02*
D03*
X675546Y277528D02*
D03*
X695546Y277462D02*
D03*
X123364Y622220D02*
D03*
X123364Y612220D02*
D03*
X94568Y587930D02*
D03*
X94568Y577930D02*
D03*
X115824Y537464D02*
D03*
X98552Y537464D02*
D03*
X133604Y537464D02*
D03*
X126746Y605790D02*
D03*
X98552Y561848D02*
D03*
X133350Y605790D02*
D03*
X315214Y722122D02*
D03*
X332486Y722122D02*
D03*
X312754Y773604D02*
D03*
X312754Y763604D02*
D03*
X340534Y797386D02*
D03*
X340534Y807386D02*
D03*
X335280Y957326D02*
D03*
X119380Y773430D02*
D03*
X325044Y974776D02*
D03*
X350266Y722122D02*
D03*
X343662Y791210D02*
D03*
X350520Y790956D02*
D03*
X315214Y746760D02*
D03*
X797814Y796290D02*
D03*
X779526Y784352D02*
D03*
X788924Y784352D02*
D03*
X730076Y719916D02*
D03*
X740156Y719836D02*
D03*
X653034Y746506D02*
D03*
X704262Y749888D02*
D03*
X694262Y749888D02*
D03*
X653034Y711454D02*
D03*
X721920Y717856D02*
D03*
X721966Y711356D02*
D03*
X677418Y746506D02*
D03*
X240538Y991870D02*
D03*
X241300Y962914D02*
D03*
X536194Y991870D02*
D03*
X536626Y962584D02*
D03*
X831868Y992074D02*
D03*
X832122Y962864D02*
D03*
X846533Y770177D02*
D03*
X299974Y927862D02*
D03*
X776209Y1003569D02*
D03*
X563626Y604266D02*
D03*
X384629Y138357D02*
D03*
X791286Y1003555D02*
D03*
X746208Y1003344D02*
D03*
X802665Y993902D02*
D03*
X795045D02*
D03*
X787679Y987044D02*
D03*
X780059D02*
D03*
X772439Y993902D02*
D03*
X764819D02*
D03*
X749833Y987044D02*
D03*
X757453D02*
D03*
X483946D02*
D03*
X491566D02*
D03*
X190319Y138249D02*
D03*
X171269D02*
D03*
X152219Y138357D02*
D03*
X133169Y138103D02*
D03*
X199898Y1003224D02*
D03*
X214884Y1003300D02*
D03*
X653034Y729234D02*
D03*
D82*
X653288Y147828D02*
D03*
X674116D02*
D03*
Y203200D02*
D03*
X653288D02*
D03*
X459994Y147574D02*
D03*
X439166D02*
D03*
X459994Y203200D02*
D03*
X439166D02*
D03*
X703326Y150622D02*
D03*
X563964Y463720D02*
D03*
X564030Y483720D02*
D03*
X808312Y463466D02*
D03*
X808332Y483466D02*
D03*
X713232Y463550D02*
D03*
X660400Y464058D02*
D03*
X660250Y483720D02*
D03*
X713336Y483466D02*
D03*
X115824Y644144D02*
D03*
X87376D02*
D03*
X130810Y754126D02*
D03*
Y733552D02*
D03*
X333756Y829056D02*
D03*
X305054D02*
D03*
X350520Y938022D02*
D03*
Y917448D02*
D03*
X838454Y809752D02*
D03*
X818134D02*
D03*
X762000Y727964D02*
D03*
Y756158D02*
D03*
D83*
X713232Y624990D02*
D03*
X507492Y993902D02*
D03*
X499364D02*
D03*
X94488Y1003300D02*
D03*
X64132Y74422D02*
D03*
X56156D02*
D03*
X75206Y83820D02*
D03*
X102232Y74422D02*
D03*
X94256D02*
D03*
X203832D02*
D03*
X195856D02*
D03*
X184782Y83820D02*
D03*
X176806D02*
D03*
X165732Y74422D02*
D03*
X157756D02*
D03*
X146682Y84074D02*
D03*
X138706D02*
D03*
X269516Y74422D02*
D03*
X277492D02*
D03*
X288566Y83820D02*
D03*
X296542D02*
D03*
X307616Y74422D02*
D03*
X315592D02*
D03*
X326666Y83820D02*
D03*
X334642D02*
D03*
X83182D02*
D03*
X113306Y84074D02*
D03*
X121282D02*
D03*
X409216Y74168D02*
D03*
X417192D02*
D03*
X352066Y83566D02*
D03*
X360042D02*
D03*
X371116Y74168D02*
D03*
X379092D02*
D03*
X390166Y83820D02*
D03*
X398142D02*
D03*
X713232Y616854D02*
D03*
X468884Y993902D02*
D03*
X477012D02*
D03*
X462026Y987044D02*
D03*
X453955Y987000D02*
D03*
X188447D02*
D03*
X196422D02*
D03*
X181422Y994000D02*
D03*
X173447D02*
D03*
X158578Y987000D02*
D03*
X166553D02*
D03*
X211582Y993902D02*
D03*
X203447Y994000D02*
D03*
D84*
X713232Y544850D02*
D03*
Y536951D02*
D03*
Y504850D02*
D03*
Y496951D02*
D03*
Y584850D02*
D03*
Y576951D02*
D03*
D85*
X56969Y58801D02*
D03*
X63319D02*
D03*
X76019D02*
D03*
X82369D02*
D03*
X95069D02*
D03*
X101419D02*
D03*
X114119D02*
D03*
X120469D02*
D03*
X139519D02*
D03*
X145869D02*
D03*
X158569D02*
D03*
X164919D02*
D03*
X177619D02*
D03*
X183969D02*
D03*
X196669D02*
D03*
X203019D02*
D03*
X56969Y123571D02*
D03*
X63319D02*
D03*
X76019D02*
D03*
X82369D02*
D03*
X95069D02*
D03*
X101419D02*
D03*
X114119D02*
D03*
X120469D02*
D03*
X139519D02*
D03*
X145869D02*
D03*
X158569D02*
D03*
X164919D02*
D03*
X177619D02*
D03*
X183969D02*
D03*
X196669D02*
D03*
X203019D02*
D03*
X270329Y58801D02*
D03*
X276679D02*
D03*
X289379D02*
D03*
X295729D02*
D03*
X308429D02*
D03*
X314779D02*
D03*
X327479D02*
D03*
X333829D02*
D03*
X352879D02*
D03*
X359229D02*
D03*
X371929D02*
D03*
X378279D02*
D03*
X390979D02*
D03*
X397329D02*
D03*
X410029D02*
D03*
X416379D02*
D03*
X270329Y123571D02*
D03*
X276679D02*
D03*
X289379D02*
D03*
X295729D02*
D03*
X308429D02*
D03*
X314779D02*
D03*
X327479D02*
D03*
X333829D02*
D03*
X352879D02*
D03*
X359229D02*
D03*
X371929D02*
D03*
X378279D02*
D03*
X390979D02*
D03*
X397329D02*
D03*
X410029D02*
D03*
X416379D02*
D03*
X483689Y58801D02*
D03*
X490039D02*
D03*
X502739D02*
D03*
X509089D02*
D03*
X521789D02*
D03*
X528139D02*
D03*
X540839D02*
D03*
X547189D02*
D03*
X566239D02*
D03*
X572589D02*
D03*
X585289D02*
D03*
X591639D02*
D03*
X604339D02*
D03*
X623389D02*
D03*
X629739D02*
D03*
X483689Y123571D02*
D03*
X490039D02*
D03*
X502739D02*
D03*
X521789D02*
D03*
X540839D02*
D03*
X547189D02*
D03*
X566239D02*
D03*
X572589D02*
D03*
X585289D02*
D03*
X591639D02*
D03*
X604339D02*
D03*
X610689D02*
D03*
X623389D02*
D03*
X629739D02*
D03*
X697049Y58801D02*
D03*
X703399D02*
D03*
X716099D02*
D03*
X722449D02*
D03*
X735149D02*
D03*
X741499D02*
D03*
X754199D02*
D03*
X760549D02*
D03*
X779599D02*
D03*
X785949D02*
D03*
X798649D02*
D03*
X804999D02*
D03*
X817699D02*
D03*
X824049D02*
D03*
X836749D02*
D03*
X843099D02*
D03*
X697049Y123571D02*
D03*
X703399D02*
D03*
X716099D02*
D03*
X722449D02*
D03*
X735149D02*
D03*
X741499D02*
D03*
X754199D02*
D03*
X760549D02*
D03*
X779599D02*
D03*
X785949D02*
D03*
X798649D02*
D03*
X804999D02*
D03*
X817699D02*
D03*
X824049D02*
D03*
X836749D02*
D03*
X843099D02*
D03*
X209369D02*
D03*
X190319D02*
D03*
X171269D02*
D03*
X152219D02*
D03*
X133169D02*
D03*
X126819D02*
D03*
X107769D02*
D03*
X88719D02*
D03*
X69669D02*
D03*
X50619D02*
D03*
X263979D02*
D03*
X283029D02*
D03*
X302079D02*
D03*
X321129D02*
D03*
X340179D02*
D03*
X346529D02*
D03*
X365579D02*
D03*
X384629D02*
D03*
X403679D02*
D03*
X422729D02*
D03*
Y58801D02*
D03*
X403679D02*
D03*
X384629D02*
D03*
X365579D02*
D03*
X346529D02*
D03*
X340179D02*
D03*
X321129D02*
D03*
X302079D02*
D03*
X283029D02*
D03*
X263979D02*
D03*
X50619D02*
D03*
X69669D02*
D03*
X88719D02*
D03*
X107769D02*
D03*
X126819D02*
D03*
X133169D02*
D03*
X152219D02*
D03*
X171269D02*
D03*
X190319D02*
D03*
X209369D02*
D03*
X477339Y123571D02*
D03*
X496389D02*
D03*
X515439D02*
D03*
X534489D02*
D03*
X553539D02*
D03*
X559889D02*
D03*
X578939D02*
D03*
X597989D02*
D03*
X617039D02*
D03*
X636089D02*
D03*
X477339Y58801D02*
D03*
X496389D02*
D03*
X515439D02*
D03*
X534489D02*
D03*
X553539D02*
D03*
X559889D02*
D03*
X578939D02*
D03*
X597989D02*
D03*
X617039D02*
D03*
X636089D02*
D03*
X849449D02*
D03*
X830399D02*
D03*
X811349D02*
D03*
X792299D02*
D03*
X773249D02*
D03*
X766899D02*
D03*
X747849D02*
D03*
X728799D02*
D03*
X709749D02*
D03*
X690699D02*
D03*
X849449Y123571D02*
D03*
X830399D02*
D03*
X811349D02*
D03*
X792299D02*
D03*
X773249D02*
D03*
X766899D02*
D03*
X747849D02*
D03*
X728799D02*
D03*
X709749D02*
D03*
X690699D02*
D03*
X610689Y58801D02*
D03*
X528139Y123571D02*
D03*
X509089D02*
D03*
D86*
X769874Y91186D02*
D03*
X556514D02*
D03*
X343154D02*
D03*
X129794D02*
D03*
D87*
X704342Y205948D02*
D03*
X729742D02*
D03*
X755142D02*
D03*
Y168448D02*
D03*
X729742D02*
D03*
X704342D02*
D03*
M02*
