%FSLAX44Y44*%
%MOMM*%
G71*
G01*
G75*
G04 Layer_Color=16777215*
G04:AMPARAMS|DCode=10|XSize=0.5mm|YSize=0.6mm|CornerRadius=0.125mm|HoleSize=0mm|Usage=FLASHONLY|Rotation=0.000|XOffset=0mm|YOffset=0mm|HoleType=Round|Shape=RoundedRectangle|*
%AMROUNDEDRECTD10*
21,1,0.5000,0.3500,0,0,0.0*
21,1,0.2500,0.6000,0,0,0.0*
1,1,0.2500,0.1250,-0.1750*
1,1,0.2500,-0.1250,-0.1750*
1,1,0.2500,-0.1250,0.1750*
1,1,0.2500,0.1250,0.1750*
%
%ADD10ROUNDEDRECTD10*%
%ADD11R,0.6000X0.6000*%
%ADD12R,0.6000X0.6000*%
G04:AMPARAMS|DCode=13|XSize=0.5mm|YSize=0.6mm|CornerRadius=0.125mm|HoleSize=0mm|Usage=FLASHONLY|Rotation=270.000|XOffset=0mm|YOffset=0mm|HoleType=Round|Shape=RoundedRectangle|*
%AMROUNDEDRECTD13*
21,1,0.5000,0.3500,0,0,270.0*
21,1,0.2500,0.6000,0,0,270.0*
1,1,0.2500,-0.1750,-0.1250*
1,1,0.2500,-0.1750,0.1250*
1,1,0.2500,0.1750,0.1250*
1,1,0.2500,0.1750,-0.1250*
%
%ADD13ROUNDEDRECTD13*%
%ADD14R,1.0200X3.3000*%
%ADD15R,1.1000X2.6000*%
%ADD16R,2.6000X1.1000*%
%ADD17R,0.3050X2.6000*%
%ADD18R,3.3000X1.0200*%
%ADD19R,0.3500X0.8500*%
%ADD20R,0.8500X0.3500*%
%ADD21R,1.1000X1.4000*%
%ADD22R,1.4000X1.1000*%
%ADD23R,1.8000X1.1500*%
%ADD24R,0.4200X1.2200*%
%ADD25R,0.6000X1.8000*%
%ADD26R,1.2200X0.4200*%
%ADD27R,1.8000X0.6000*%
%ADD28C,0.3048*%
%ADD29C,0.5080*%
%ADD30C,0.2083*%
%ADD31C,0.1524*%
%ADD32C,0.1778*%
%ADD33C,0.2540*%
%ADD34C,0.2032*%
%ADD35C,8.0000*%
%ADD36C,2.2000*%
%ADD37C,1.8200*%
%ADD38C,0.4572*%
%ADD39C,0.8128*%
%ADD40C,0.4928*%
%ADD41C,0.4851*%
%ADD42C,1.0160*%
%ADD43C,4.8260*%
%ADD44C,3.2160*%
%ADD45C,2.8360*%
%ADD46C,2.1844*%
%ADD47C,1.2700*%
G04:AMPARAMS|DCode=48|XSize=1.5748mm|YSize=1.5748mm|CornerRadius=0mm|HoleSize=0mm|Usage=FLASHONLY|Rotation=0.000|XOffset=0mm|YOffset=0mm|HoleType=Round|Shape=Relief|Width=0.254mm|Gap=0.1524mm|Entries=4|*
%AMTHD48*
7,0,0,1.5748,1.2700,0.2540,45*
%
%ADD48THD48*%
G04:AMPARAMS|DCode=49|XSize=1.7272mm|YSize=1.7272mm|CornerRadius=0mm|HoleSize=0mm|Usage=FLASHONLY|Rotation=0.000|XOffset=0mm|YOffset=0mm|HoleType=Round|Shape=Relief|Width=0.254mm|Gap=0.1524mm|Entries=4|*
%AMTHD49*
7,0,0,1.7272,1.4224,0.2540,45*
%
%ADD49THD49*%
%ADD50C,1.4224*%
%ADD51R,0.4064X2.1590*%
%ADD52R,18.0340X0.5080*%
%ADD53R,1.8000X1.8000*%
%ADD54C,0.2500*%
%ADD55C,0.6000*%
%ADD56C,0.2000*%
%ADD57C,0.1000*%
%ADD58C,0.1016*%
G04:AMPARAMS|DCode=59|XSize=0.7032mm|YSize=0.8032mm|CornerRadius=0.1758mm|HoleSize=0mm|Usage=FLASHONLY|Rotation=0.000|XOffset=0mm|YOffset=0mm|HoleType=Round|Shape=RoundedRectangle|*
%AMROUNDEDRECTD59*
21,1,0.7032,0.4516,0,0,0.0*
21,1,0.3516,0.8032,0,0,0.0*
1,1,0.3516,0.1758,-0.2258*
1,1,0.3516,-0.1758,-0.2258*
1,1,0.3516,-0.1758,0.2258*
1,1,0.3516,0.1758,0.2258*
%
%ADD59ROUNDEDRECTD59*%
%ADD60R,0.8032X0.8032*%
%ADD61R,0.8032X0.8032*%
G04:AMPARAMS|DCode=62|XSize=0.7032mm|YSize=0.8032mm|CornerRadius=0.1758mm|HoleSize=0mm|Usage=FLASHONLY|Rotation=270.000|XOffset=0mm|YOffset=0mm|HoleType=Round|Shape=RoundedRectangle|*
%AMROUNDEDRECTD62*
21,1,0.7032,0.4516,0,0,270.0*
21,1,0.3516,0.8032,0,0,270.0*
1,1,0.3516,-0.2258,-0.1758*
1,1,0.3516,-0.2258,0.1758*
1,1,0.3516,0.2258,0.1758*
1,1,0.3516,0.2258,-0.1758*
%
%ADD62ROUNDEDRECTD62*%
%ADD63R,1.2232X3.5032*%
%ADD64R,1.3032X2.8032*%
%ADD65R,2.8032X1.3032*%
%ADD66R,0.5082X2.8032*%
%ADD67R,3.5032X1.2232*%
%ADD68R,0.5532X1.0532*%
%ADD69R,1.0532X0.5532*%
%ADD70R,1.3032X1.6032*%
%ADD71R,1.6032X1.3032*%
%ADD72R,2.0032X1.3532*%
%ADD73R,0.6232X1.4232*%
%ADD74R,0.8032X2.0032*%
%ADD75R,1.4232X0.6232*%
%ADD76R,2.0032X0.8032*%
%ADD77C,8.2032*%
%ADD78C,2.4032*%
%ADD79C,2.0232*%
%ADD80C,0.2032*%
%ADD81C,0.6604*%
%ADD82C,1.0160*%
%ADD83C,0.6960*%
%ADD84C,0.6883*%
%ADD85R,0.6096X2.3622*%
%ADD86R,18.2372X0.7112*%
%ADD87R,2.0032X2.0032*%
D54*
X17994Y32766D02*
G03*
X17994Y32766I-1250J0D01*
G01*
X687832Y221488D02*
G03*
X687832Y221488I-1250J0D01*
G01*
D56*
X12954Y40386D02*
X886714D01*
Y141986D01*
X12954D02*
X886714D01*
X12954Y40386D02*
Y141986D01*
X690372Y217678D02*
X769112D01*
X690372Y156718D02*
Y217678D01*
X769112Y156718D02*
Y217678D01*
X690372Y156718D02*
X769112D01*
D58*
X769366Y230376D02*
Y224451D01*
X768181Y223266D01*
X765811D01*
X764626Y224451D01*
Y230376D01*
X762256Y223266D02*
X759886D01*
X761071D01*
Y230376D01*
X762256Y229191D01*
X882482Y154684D02*
X884852D01*
X883667D01*
Y148759D01*
X884852Y147574D01*
X886037D01*
X887222Y148759D01*
X880112Y147574D02*
X877742D01*
X878927D01*
Y154684D01*
X880112Y153499D01*
X426044Y189147D02*
X427229Y187962D01*
X429599D01*
X430784Y189147D01*
Y193887D01*
X429599Y195072D01*
X427229D01*
X426044Y193887D01*
X423674Y189147D02*
X422489Y187962D01*
X420120D01*
X418935Y189147D01*
Y190332D01*
X420120Y191517D01*
X421304D01*
X420120D01*
X418935Y192702D01*
Y193887D01*
X420120Y195072D01*
X422489D01*
X423674Y193887D01*
X416565Y189147D02*
X415380Y187962D01*
X413010D01*
X411825Y189147D01*
Y193887D01*
X413010Y195072D01*
X415380D01*
X416565Y193887D01*
Y189147D01*
X640420Y193885D02*
X641605Y195070D01*
X643975D01*
X645160Y193885D01*
Y189145D01*
X643975Y187960D01*
X641605D01*
X640420Y189145D01*
X633311Y187960D02*
X638050D01*
X633311Y192700D01*
Y193885D01*
X634496Y195070D01*
X636865D01*
X638050Y193885D01*
X630941Y189145D02*
X629756Y187960D01*
X627386D01*
X626201Y189145D01*
Y193885D01*
X627386Y195070D01*
X629756D01*
X630941Y193885D01*
Y192700D01*
X629756Y191515D01*
X626201D01*
M02*
