%FSLAX44Y44*%
%MOMM*%
G71*
G01*
G75*
G04 Layer_Physical_Order=6*
G04 Layer_Color=16711680*
G04:AMPARAMS|DCode=10|XSize=0.5mm|YSize=0.6mm|CornerRadius=0.125mm|HoleSize=0mm|Usage=FLASHONLY|Rotation=0.000|XOffset=0mm|YOffset=0mm|HoleType=Round|Shape=RoundedRectangle|*
%AMROUNDEDRECTD10*
21,1,0.5000,0.3500,0,0,0.0*
21,1,0.2500,0.6000,0,0,0.0*
1,1,0.2500,0.1250,-0.1750*
1,1,0.2500,-0.1250,-0.1750*
1,1,0.2500,-0.1250,0.1750*
1,1,0.2500,0.1250,0.1750*
%
%ADD10ROUNDEDRECTD10*%
%ADD11R,0.6000X0.6000*%
%ADD12R,0.6000X0.6000*%
G04:AMPARAMS|DCode=13|XSize=0.5mm|YSize=0.6mm|CornerRadius=0.125mm|HoleSize=0mm|Usage=FLASHONLY|Rotation=270.000|XOffset=0mm|YOffset=0mm|HoleType=Round|Shape=RoundedRectangle|*
%AMROUNDEDRECTD13*
21,1,0.5000,0.3500,0,0,270.0*
21,1,0.2500,0.6000,0,0,270.0*
1,1,0.2500,-0.1750,-0.1250*
1,1,0.2500,-0.1750,0.1250*
1,1,0.2500,0.1750,0.1250*
1,1,0.2500,0.1750,-0.1250*
%
%ADD13ROUNDEDRECTD13*%
%ADD14R,1.0200X3.3000*%
%ADD15R,1.1000X2.6000*%
%ADD16R,2.6000X1.1000*%
%ADD17R,0.3050X2.6000*%
%ADD18R,3.3000X1.0200*%
%ADD19R,0.3500X0.8500*%
%ADD20R,0.8500X0.3500*%
%ADD21R,1.1000X1.4000*%
%ADD22R,1.4000X1.1000*%
%ADD23R,1.8000X1.1500*%
%ADD24R,0.4200X1.2200*%
%ADD25R,0.6000X1.8000*%
%ADD26R,1.2200X0.4200*%
%ADD27R,1.8000X0.6000*%
%ADD28C,0.3048*%
%ADD29C,0.5080*%
%ADD30C,0.2083*%
%ADD31C,0.1524*%
%ADD32C,0.1778*%
%ADD33C,0.2540*%
%ADD34C,0.2032*%
%ADD35C,8.0000*%
%ADD36C,2.2000*%
%ADD37C,1.8200*%
%ADD38C,0.4572*%
%ADD39C,0.8128*%
%ADD40C,0.4928*%
%ADD41C,0.4851*%
%ADD42C,1.0160*%
%ADD43C,4.8260*%
%ADD44C,3.2160*%
%ADD45C,2.8360*%
%ADD46C,2.1844*%
%ADD47C,1.2700*%
G04:AMPARAMS|DCode=48|XSize=1.5748mm|YSize=1.5748mm|CornerRadius=0mm|HoleSize=0mm|Usage=FLASHONLY|Rotation=0.000|XOffset=0mm|YOffset=0mm|HoleType=Round|Shape=Relief|Width=0.254mm|Gap=0.1524mm|Entries=4|*
%AMTHD48*
7,0,0,1.5748,1.2700,0.2540,45*
%
%ADD48THD48*%
G04:AMPARAMS|DCode=49|XSize=1.7272mm|YSize=1.7272mm|CornerRadius=0mm|HoleSize=0mm|Usage=FLASHONLY|Rotation=0.000|XOffset=0mm|YOffset=0mm|HoleType=Round|Shape=Relief|Width=0.254mm|Gap=0.1524mm|Entries=4|*
%AMTHD49*
7,0,0,1.7272,1.4224,0.2540,45*
%
%ADD49THD49*%
%ADD50C,1.4224*%
%ADD51R,0.4064X2.1590*%
%ADD52R,18.0340X0.5080*%
%ADD53R,1.8000X1.8000*%
D16*
X449580Y189014D02*
D03*
Y162014D02*
D03*
X663702Y189014D02*
D03*
Y162014D02*
D03*
D28*
X836749Y34363D02*
Y58801D01*
X843099D01*
X798649Y34363D02*
Y58801D01*
X804999D01*
X754126Y34290D02*
X754199Y34363D01*
Y58801D01*
X760549D01*
X716099Y34363D02*
Y58801D01*
X722449D01*
X623062Y34290D02*
Y58474D01*
X623389Y58801D01*
X629739D01*
X585289Y34471D02*
X585470Y34290D01*
X585289Y34471D02*
Y58801D01*
X591639D01*
X540839Y34471D02*
Y58801D01*
X547189D01*
X502739Y34471D02*
Y58801D01*
Y34471D02*
X502920Y34290D01*
X502739Y58801D02*
X509089D01*
X754126Y205948D02*
Y225806D01*
D29*
X653288Y147828D02*
Y156464D01*
X674116Y147828D02*
Y156464D01*
X668566Y162014D02*
X674116Y156464D01*
X663702Y162014D02*
X668566D01*
X653288Y156464D02*
X658838Y162014D01*
X663702D01*
X674116Y194310D02*
Y203200D01*
X668820Y189014D02*
X674116Y194310D01*
X663702Y189014D02*
X668820D01*
X653288Y194310D02*
Y203200D01*
Y194310D02*
X658584Y189014D01*
X663702D01*
X459994Y147574D02*
Y156718D01*
X454698Y162014D02*
X459994Y156718D01*
X449580Y162014D02*
X454698D01*
X439166Y147574D02*
Y156718D01*
X444462Y162014D01*
X449580D01*
X459994Y194310D02*
Y203200D01*
X454698Y189014D02*
X459994Y194310D01*
X449580Y189014D02*
X454698D01*
X439166Y194310D02*
Y203200D01*
Y194310D02*
X444462Y189014D01*
X449580D01*
X703326Y150622D02*
Y168448D01*
D30*
X202409Y136244D02*
Y140543D01*
X498447Y994000D02*
X500888Y991559D01*
X197279Y136244D02*
Y142669D01*
X196669Y135634D02*
X197279Y136244D01*
X711848Y583466D02*
X713232Y584850D01*
X711848Y578335D02*
X713232Y576951D01*
X559916Y583466D02*
X711848D01*
Y543466D02*
X713232Y544850D01*
X711848Y538335D02*
X713232Y536951D01*
X534356Y543466D02*
X711848D01*
X536482Y538335D02*
X711848D01*
X781304Y965598D02*
Y985799D01*
X295119Y136079D02*
X295729Y135469D01*
Y123571D02*
Y135469D01*
X289379D02*
X289989Y136079D01*
X289379Y123571D02*
Y135469D01*
X314169Y136079D02*
X314779Y135469D01*
Y123571D02*
Y135469D01*
X308429D02*
X309039Y136079D01*
X308429Y123571D02*
Y135469D01*
X506019Y992429D02*
X507492Y993902D01*
X468884D02*
X469869Y992917D01*
X476758Y993902D02*
X477012D01*
X475914Y993058D02*
X476758Y993902D01*
X202409Y136244D02*
X203019Y135634D01*
Y123571D02*
Y135634D01*
X453955Y987000D02*
X454869Y986086D01*
X461466Y987044D02*
X462026D01*
X499364Y993902D02*
Y993941D01*
X499305Y994000D02*
X499364Y993941D01*
X498447Y994000D02*
X499305D01*
X196669Y123571D02*
Y135634D01*
X114729Y71309D02*
Y82652D01*
X62709Y73000D02*
X64132Y74422D01*
X56156D02*
X57579Y73000D01*
X62709Y71309D02*
Y73000D01*
Y71309D02*
X63319Y70699D01*
Y58801D02*
Y70699D01*
X57579Y71309D02*
Y73000D01*
X56969Y70699D02*
X57579Y71309D01*
X56969Y58801D02*
Y70699D01*
X81759Y82398D02*
X83182Y83820D01*
X75206D02*
X76629Y82398D01*
X81759Y71309D02*
Y82398D01*
Y71309D02*
X82369Y70699D01*
Y58801D02*
Y70699D01*
X76629Y71309D02*
Y82398D01*
X76019Y70699D02*
X76629Y71309D01*
X76019Y58801D02*
Y70699D01*
X100809Y73000D02*
X102232Y74422D01*
X94256D02*
X95679Y73000D01*
X100809Y71309D02*
Y73000D01*
Y71309D02*
X101419Y70699D01*
Y58801D02*
Y70699D01*
X95679Y71309D02*
Y73000D01*
X95069Y70699D02*
X95679Y71309D01*
X95069Y58801D02*
Y70699D01*
X119859Y82652D02*
X121282Y84074D01*
X113306D02*
X114729Y82652D01*
X119859Y71309D02*
Y82652D01*
Y71309D02*
X120469Y70699D01*
Y58801D02*
Y70699D01*
X114119D02*
X114729Y71309D01*
X114119Y58801D02*
Y70699D01*
X202409Y73000D02*
X203832Y74422D01*
X195856D02*
X197279Y73000D01*
X202409Y71309D02*
Y73000D01*
Y71309D02*
X203019Y70699D01*
Y58801D02*
Y70699D01*
X197279Y71309D02*
Y73000D01*
X196669Y70699D02*
X197279Y71309D01*
X196669Y58801D02*
Y70699D01*
X183359Y82398D02*
X184782Y83820D01*
X176806D02*
X178229Y82398D01*
X183359Y71309D02*
Y82398D01*
Y71309D02*
X183969Y70699D01*
Y58801D02*
Y70699D01*
X178229Y71309D02*
Y82398D01*
X177619Y70699D02*
X178229Y71309D01*
X177619Y58801D02*
Y70699D01*
X164309Y73000D02*
X165732Y74422D01*
X157756D02*
X159179Y73000D01*
X164309Y71309D02*
Y73000D01*
Y71309D02*
X164919Y70699D01*
Y58801D02*
Y70699D01*
X159179Y71309D02*
Y73000D01*
X158569Y70699D02*
X159179Y71309D01*
X158569Y58801D02*
Y70699D01*
X145259Y82652D02*
X146682Y84074D01*
X138706D02*
X140129Y82652D01*
X145259Y71309D02*
Y82652D01*
Y71309D02*
X145869Y70699D01*
Y58801D02*
Y70699D01*
X140129Y71309D02*
Y82652D01*
X139519Y70699D02*
X140129Y71309D01*
X139519Y58801D02*
Y70699D01*
X270329Y58801D02*
Y70699D01*
X270939Y71309D01*
Y73000D01*
X276679Y58801D02*
Y70699D01*
X276069Y71309D02*
X276679Y70699D01*
X276069Y71309D02*
Y73000D01*
X269516Y74422D02*
X270939Y73000D01*
X276069D02*
X277492Y74422D01*
X289379Y58801D02*
Y70699D01*
X289989Y71309D01*
Y82398D01*
X295729Y58801D02*
Y70699D01*
X295119Y71309D02*
X295729Y70699D01*
X295119Y71309D02*
Y82398D01*
X288566Y83820D02*
X289989Y82398D01*
X295119D02*
X296542Y83820D01*
X308429Y58801D02*
Y70699D01*
X309039Y71309D01*
Y73000D01*
X314779Y58801D02*
Y70699D01*
X314169Y71309D02*
X314779Y70699D01*
X314169Y71309D02*
Y73000D01*
X307616Y74422D02*
X309039Y73000D01*
X314169D02*
X315592Y74422D01*
X327479Y58801D02*
Y70699D01*
X328089Y71309D01*
Y82398D01*
X333829Y58801D02*
Y70699D01*
X333219Y71309D02*
X333829Y70699D01*
X333219Y71309D02*
Y82398D01*
X326666Y83820D02*
X328089Y82398D01*
X333219D02*
X334642Y83820D01*
X410029Y58801D02*
Y70699D01*
X410639Y71309D01*
Y72746D01*
X416379Y58801D02*
Y70699D01*
X415769Y71309D02*
X416379Y70699D01*
X415769Y71309D02*
Y72746D01*
X409216Y74168D02*
X410639Y72746D01*
X415769D02*
X417192Y74168D01*
X101419Y123571D02*
Y135634D01*
X100809Y136244D02*
X101419Y135634D01*
X82369Y123571D02*
Y135634D01*
X81759Y136244D02*
X82369Y135634D01*
X62709Y135869D02*
X62944Y135634D01*
X63319Y123571D02*
Y135634D01*
X62944D02*
X63319D01*
X56969Y123571D02*
Y135634D01*
X57579Y136244D01*
X76019Y123571D02*
Y135634D01*
X76629Y136244D01*
X100809D02*
Y144000D01*
X371929Y123571D02*
Y135469D01*
X372539Y136079D01*
X378279Y123571D02*
Y135469D01*
X377669Y136079D02*
X378279Y135469D01*
X390979Y123571D02*
Y135469D01*
X391589Y136079D01*
X352879Y58801D02*
Y70699D01*
X353489Y71309D01*
Y82144D01*
X359229Y58801D02*
Y70699D01*
X358619Y71309D02*
X359229Y70699D01*
X358619Y71309D02*
Y82144D01*
X352066Y83566D02*
X353489Y82144D01*
X358619D02*
X360042Y83566D01*
X371929Y58801D02*
Y70699D01*
X372539Y71309D01*
Y72746D01*
X378279Y58801D02*
Y70699D01*
X377669Y71309D02*
X378279Y70699D01*
X377669Y71309D02*
Y72746D01*
X371116Y74168D02*
X372539Y72746D01*
X377669D02*
X379092Y74168D01*
X390979Y58801D02*
Y70699D01*
X391589Y71309D01*
Y82398D01*
X397329Y58801D02*
Y70699D01*
X396719Y71309D02*
X397329Y70699D01*
X396719Y71309D02*
Y82398D01*
X390166Y83820D02*
X391589Y82398D01*
X396719D02*
X398142Y83820D01*
X711848Y498335D02*
X713232Y496951D01*
X510922Y498335D02*
X711848D01*
Y503466D02*
X713232Y504850D01*
X508797Y503466D02*
X711848D01*
X529699Y538335D02*
X535432D01*
X527574Y543466D02*
X535432D01*
X548363Y578335D02*
X562041D01*
X546238Y583466D02*
X559916D01*
X562041Y578335D02*
X711848D01*
X585476Y623466D02*
X711708D01*
X713232Y624990D01*
X352879Y135469D02*
X353489Y136079D01*
X352879Y123571D02*
Y135469D01*
X587601Y618335D02*
X711751D01*
X713232Y616854D01*
X358619Y136079D02*
X359229Y135469D01*
Y123571D02*
Y135469D01*
X566519Y618335D02*
X587601D01*
X564394Y623466D02*
X585476D01*
X314169Y136079D02*
Y143764D01*
X309039Y136079D02*
Y145889D01*
X415769Y403183D02*
X510922Y498335D01*
X415769Y136079D02*
Y403183D01*
Y136079D02*
X416379Y135469D01*
Y123571D02*
Y135469D01*
X410029Y123571D02*
Y135469D01*
X410639Y136079D01*
Y405308D01*
X508797Y503466D01*
X397329Y123571D02*
Y135469D01*
X396719Y136079D02*
X397329Y135469D01*
X396719Y136079D02*
Y405355D01*
X529699Y538335D01*
X391589Y136079D02*
Y407481D01*
X527574Y543466D01*
X377669Y136079D02*
Y407641D01*
X548363Y578335D01*
X372539Y136079D02*
Y409767D01*
X546238Y583466D01*
X358619Y136079D02*
Y410435D01*
X566519Y618335D01*
X353489Y136079D02*
Y412561D01*
X564394Y623466D01*
X801421Y992657D02*
X802665Y993902D01*
X780059Y987044D02*
X781304Y985799D01*
X786435Y963473D02*
Y985799D01*
X756209D02*
X757453Y987044D01*
X276069Y136079D02*
Y143764D01*
Y136079D02*
X276679Y135469D01*
Y123571D02*
Y135469D01*
X749833Y987044D02*
X751078Y985799D01*
X270329Y123571D02*
Y135469D01*
X795045Y993902D02*
X796290Y992657D01*
X314169Y143764D02*
X328930Y158525D01*
X309039Y145889D02*
X323799Y160650D01*
X786435Y985799D02*
X787679Y987044D01*
X781304Y948580D02*
Y965598D01*
X786435Y946455D02*
Y963473D01*
X323799Y160650D02*
Y491075D01*
X781304Y948580D01*
X328930Y158525D02*
Y488950D01*
X786435Y946455D01*
X328168Y144041D02*
X338633Y154506D01*
X333248Y141865D02*
X343764Y152380D01*
X796290Y942588D02*
Y992657D01*
X338633Y484931D02*
X796290Y942588D01*
X338633Y154506D02*
Y484931D01*
X801421Y940463D02*
Y992657D01*
X343764Y482806D02*
X801421Y940463D01*
X343764Y152380D02*
Y482806D01*
X289989Y148401D02*
X308792Y167204D01*
Y497046D01*
X313923Y165079D02*
Y494921D01*
X771195Y963219D02*
Y992657D01*
X772439Y993902D01*
X766064Y965344D02*
Y992657D01*
X764819Y993902D02*
X766064Y992657D01*
X289989Y136079D02*
Y148401D01*
X308792Y497046D02*
X766064Y954318D01*
Y965344D01*
X295119Y136079D02*
Y146275D01*
X313923Y165079D01*
Y494921D02*
X771195Y952193D01*
Y963219D01*
X756209Y958185D02*
Y985799D01*
X299089Y501065D02*
X756209Y958185D01*
X751078Y960310D02*
Y985799D01*
X293958Y503190D02*
X751078Y960310D01*
X270329Y135469D02*
X270939Y136079D01*
Y145889D01*
X276098Y143793D02*
Y148232D01*
X270967Y146304D02*
Y150357D01*
X299089Y171223D02*
Y501065D01*
X276098Y148232D02*
X299089Y171223D01*
X293958Y173348D02*
Y503190D01*
X270967Y150357D02*
X293958Y173348D01*
X333829Y123571D02*
Y134801D01*
X333248Y135382D02*
X333829Y134801D01*
X333248Y135382D02*
Y141865D01*
X327479Y123571D02*
Y134693D01*
X328168Y135382D01*
Y144041D01*
X500888Y731098D02*
Y991559D01*
X279125Y509334D02*
X500888Y731098D01*
X279125Y224515D02*
Y509334D01*
X506019Y728972D02*
Y992429D01*
X284256Y507209D02*
X506019Y728972D01*
X284256Y222390D02*
Y507209D01*
X269422Y228534D02*
Y513353D01*
X490271Y734202D01*
X264291Y230659D02*
Y515479D01*
X485140Y736328D01*
X177619Y135634D02*
X178229Y136244D01*
X177619Y123571D02*
Y135634D01*
X178308Y136323D01*
X249458Y236902D02*
Y521623D01*
X254588Y234776D02*
Y519498D01*
X249458Y521623D02*
X470306Y742472D01*
X254588Y519498D02*
X475437Y740347D01*
X490271Y734202D02*
Y982218D01*
X490322Y982269D01*
Y985799D01*
X491027Y986505D01*
X485140Y736328D02*
Y985850D01*
X484917Y986073D02*
X485140Y985850D01*
X475437Y992327D02*
X477012Y993902D01*
X475437Y740347D02*
Y992327D01*
X468884Y993902D02*
X470306Y992480D01*
Y742472D02*
Y992480D01*
X234624Y243150D02*
Y527767D01*
X455422Y748565D01*
X239755Y241025D02*
Y525642D01*
X460553Y746440D01*
Y986398D01*
X460604Y986449D01*
X455422Y748565D02*
Y985533D01*
X453955Y987000D02*
X455422Y985533D01*
X183969Y123571D02*
Y135634D01*
X164919Y123571D02*
Y135634D01*
X164309Y136244D02*
X164919Y135634D01*
X158569Y123571D02*
Y135634D01*
X159179Y136244D01*
X145869Y123571D02*
Y135634D01*
X145259Y136244D02*
X145869Y135634D01*
X164309Y136244D02*
Y144497D01*
X159179Y136244D02*
Y146623D01*
X202409Y140543D02*
X284256Y222390D01*
X197279Y142669D02*
X279125Y224515D01*
X183359Y136244D02*
X183969Y135634D01*
X183359Y136244D02*
Y142471D01*
X178308Y136323D02*
Y144676D01*
X183359Y142471D02*
X269422Y228534D01*
X178308Y144676D02*
X264291Y230659D01*
X164309Y144497D02*
X254588Y234776D01*
X159179Y146623D02*
X249458Y236902D01*
X145259Y136244D02*
Y146529D01*
X239755Y241025D01*
X139519Y123571D02*
Y135201D01*
X140208Y135890D01*
Y148734D01*
X234624Y243150D01*
X100809Y144000D02*
X209804Y252995D01*
Y925212D01*
X195072Y939944D02*
X209804Y925212D01*
X195072Y939944D02*
Y985650D01*
X195568Y986145D01*
X189941Y937819D02*
Y984214D01*
Y937819D02*
X204673Y923087D01*
Y255120D02*
Y923087D01*
X95679Y146125D02*
X204673Y255120D01*
X95679Y136244D02*
Y146125D01*
X95069Y135634D02*
X95679Y136244D01*
X95069Y123571D02*
Y135634D01*
X189869Y984286D02*
X189941Y984214D01*
X189869Y984286D02*
Y985578D01*
X189301Y986145D02*
X189869Y985578D01*
X76629Y136244D02*
Y148147D01*
X189840Y261358D01*
Y916943D01*
X174701Y932081D02*
X189840Y916943D01*
X81759Y136244D02*
Y146021D01*
X194970Y259232D01*
Y919068D01*
X179832Y934206D02*
X194970Y919068D01*
X173447Y994000D02*
X174701Y992746D01*
Y932081D02*
Y992746D01*
X179832Y992410D02*
X181422Y994000D01*
X179832Y934206D02*
Y992410D01*
X57579Y136244D02*
Y150179D01*
X175006Y267606D01*
X62709Y135869D02*
Y148053D01*
X180137Y265481D01*
Y912924D01*
X175006Y267606D02*
Y910798D01*
X159715Y926089D02*
X175006Y910798D01*
X164846Y928214D02*
X180137Y912924D01*
X164846Y985293D02*
X166553Y987000D01*
X164846Y928214D02*
Y985293D01*
X158578Y987000D02*
X159715Y985862D01*
Y926089D02*
Y985862D01*
X114119Y123571D02*
Y135469D01*
X114729Y136079D01*
X120469Y123571D02*
Y135469D01*
X119859Y136079D02*
X120469Y135469D01*
X114729Y136079D02*
Y144083D01*
X219456Y248810D01*
X119859Y136079D02*
Y141957D01*
X224587Y246685D01*
X219456Y248810D02*
Y930148D01*
X204724Y944880D02*
X219456Y930148D01*
X224587Y246685D02*
Y932273D01*
X210058Y946802D02*
X224587Y932273D01*
X210058Y992378D02*
X211582Y993902D01*
X210058Y946802D02*
Y992378D01*
X203447Y994000D02*
X204724Y992723D01*
Y944880D02*
Y992723D01*
D31*
X754199Y167505D02*
X755142Y168448D01*
X754199Y123571D02*
Y167505D01*
X760549Y135469D02*
Y147139D01*
Y123571D02*
Y135469D01*
Y147139D02*
X772160Y158750D01*
Y175514D01*
X766318Y181356D02*
X772160Y175514D01*
X742650Y181356D02*
X766318D01*
X729742Y168448D02*
X742650Y181356D01*
X648462Y230378D02*
X695546Y277462D01*
X609092Y230378D02*
X648462D01*
X528139Y149425D02*
X609092Y230378D01*
X528139Y123571D02*
Y149425D01*
X632714Y234696D02*
X675546Y277528D01*
X606044Y234696D02*
X632714D01*
X521789Y150441D02*
X606044Y234696D01*
X521789Y123571D02*
Y150441D01*
X617220Y239014D02*
X655546Y277340D01*
X604012Y239014D02*
X617220D01*
X509089Y144091D02*
X604012Y239014D01*
X509089Y123571D02*
Y144091D01*
X302079Y123571D02*
Y138357D01*
X50619Y44377D02*
Y58801D01*
X69669Y44269D02*
Y58801D01*
X88719Y44523D02*
Y58801D01*
X107769Y44269D02*
Y58801D01*
X126819Y44269D02*
Y58801D01*
X152219Y44377D02*
Y58801D01*
X171269Y44377D02*
Y58801D01*
X190319Y44269D02*
Y58801D01*
X209369Y44269D02*
Y58801D01*
X126819Y94161D02*
X129794Y91186D01*
X209369Y123571D02*
Y138357D01*
X190319Y123571D02*
Y138249D01*
X152219Y123571D02*
Y138357D01*
X107769Y123571D02*
Y138249D01*
X88719Y123571D02*
Y138249D01*
X69669Y123571D02*
Y138249D01*
X50546Y138430D02*
X50619Y138357D01*
Y123571D02*
Y138357D01*
X791286Y1003478D02*
Y1003555D01*
X731323Y1003357D02*
X731342D01*
X435610Y1003332D02*
X435635Y1003357D01*
X214884Y1003046D02*
Y1003300D01*
X154711Y1003224D02*
Y1003300D01*
X263979Y123571D02*
Y138249D01*
X283029Y123571D02*
Y138357D01*
X321129Y123571D02*
Y138249D01*
X346529Y123571D02*
Y138357D01*
X365579Y123571D02*
Y138357D01*
X384629Y123571D02*
Y138357D01*
X403679Y123571D02*
Y138357D01*
X422729Y123571D02*
Y138249D01*
X263979Y44377D02*
Y58801D01*
X283029Y44269D02*
Y58801D01*
X302079Y44269D02*
Y58801D01*
X321129Y44269D02*
Y58801D01*
X340179Y44377D02*
Y58801D01*
X365579Y44269D02*
Y58801D01*
X384629Y44269D02*
Y58801D01*
X403679Y44377D02*
Y58801D01*
X422729Y44269D02*
Y58801D01*
X477339Y123571D02*
Y138357D01*
X496389Y123571D02*
Y138357D01*
X515439Y123571D02*
Y138357D01*
X534489Y123571D02*
Y138357D01*
X553539Y123571D02*
Y138357D01*
X578939Y123571D02*
Y138357D01*
X597989Y123571D02*
Y138357D01*
X477339Y44269D02*
Y58801D01*
X515439Y44377D02*
Y58801D01*
X553539Y44269D02*
Y58801D01*
X572589Y109039D02*
Y123571D01*
X604339Y109039D02*
Y123571D01*
X483689Y58801D02*
Y73479D01*
X521789Y58801D02*
Y73479D01*
X346529Y58801D02*
Y73479D01*
X340179Y109293D02*
Y123571D01*
X559889Y109039D02*
Y123571D01*
X566239D02*
Y138357D01*
X610689Y123571D02*
Y138357D01*
X617039Y109039D02*
Y123571D01*
X133169Y58801D02*
Y73587D01*
X126819Y108966D02*
Y123571D01*
X490039Y44269D02*
Y58801D01*
X496389D02*
Y73333D01*
X528139Y44269D02*
Y58801D01*
X534489D02*
Y73333D01*
X559889Y58801D02*
Y73225D01*
X566239Y44269D02*
Y58801D01*
X572589D02*
Y73333D01*
X578939Y44631D02*
Y58801D01*
X597989Y44377D02*
Y58801D01*
X604339D02*
Y73333D01*
X610689Y44269D02*
Y58801D01*
X617039D02*
Y73225D01*
X636089Y44377D02*
Y58801D01*
X690699Y123571D02*
Y138357D01*
X697049Y109039D02*
Y123571D01*
X709749D02*
Y138249D01*
X728799Y123571D02*
Y138249D01*
X747849Y123571D02*
Y138249D01*
X766899Y123571D02*
Y138357D01*
X773249Y109039D02*
Y123571D01*
X779599D02*
Y138357D01*
X785949Y109039D02*
Y123571D01*
X792299D02*
Y138357D01*
X811349Y123571D02*
Y138357D01*
X817699Y109039D02*
Y123571D01*
X824049D02*
Y138357D01*
X830399Y109039D02*
Y123571D01*
X849449D02*
Y138357D01*
X690699Y44269D02*
Y58801D01*
X697049D02*
Y73333D01*
X703399Y44269D02*
Y58801D01*
X709749D02*
Y73333D01*
X728799Y44269D02*
Y58801D01*
X735149D02*
Y73333D01*
X741499Y44523D02*
Y58801D01*
X747849D02*
Y73333D01*
X766899Y44377D02*
Y58801D01*
X773249D02*
Y73333D01*
X779599Y44269D02*
Y58801D01*
X785949D02*
Y73333D01*
X792299Y44269D02*
Y58801D01*
X811349Y44377D02*
Y58801D01*
X817699D02*
Y73333D01*
X824049Y44269D02*
Y58801D01*
X830399D02*
Y73333D01*
X849449Y44269D02*
Y58801D01*
X483689Y123571D02*
Y165681D01*
X595376Y277368D01*
X490039Y123571D02*
Y151711D01*
X615546Y277218D01*
X502739Y123571D02*
Y144345D01*
X635546Y277152D01*
X171269Y123571D02*
Y138249D01*
X133169Y123571D02*
Y138103D01*
X559889Y94561D02*
Y109039D01*
X556514Y91186D02*
X559889Y94561D01*
X340179Y94161D02*
Y109293D01*
Y94161D02*
X343154Y91186D01*
X420370D01*
X422729Y93545D01*
Y123571D01*
X126819Y94161D02*
Y108966D01*
X53848Y91186D02*
X129794D01*
X50619Y94415D02*
X53848Y91186D01*
X50619Y94415D02*
Y123571D01*
X129794Y91186D02*
X206502D01*
X209369Y94053D01*
Y123571D01*
X267462Y91186D02*
X343154D01*
X263979Y94669D02*
X267462Y91186D01*
X263979Y94669D02*
Y123571D01*
X482092Y91186D02*
X556514D01*
X479806D02*
X556514D01*
X477339Y93653D02*
X479806Y91186D01*
X477339Y93653D02*
Y123571D01*
X556514Y91186D02*
X632206D01*
X636089Y95069D01*
Y123571D01*
X769874Y91186D02*
X773249Y94561D01*
Y109039D01*
X694182Y91186D02*
X769874D01*
X690699Y94669D02*
X694182Y91186D01*
X690699Y94669D02*
Y123571D01*
X769874Y91186D02*
X847344D01*
X849449Y93291D01*
Y123571D01*
D35*
X63573Y881761D02*
D03*
X837765D02*
D03*
X63065Y222123D02*
D03*
X837765D02*
D03*
D36*
X346053Y1041548D02*
D03*
X555053D02*
D03*
X641709D02*
D03*
X850709D02*
D03*
X50143D02*
D03*
X259143D02*
D03*
D37*
X378053Y1061548D02*
D03*
X523053Y1061547D02*
D03*
X673709Y1061548D02*
D03*
X818709Y1061547D02*
D03*
X82143Y1061548D02*
D03*
X227143Y1061547D02*
D03*
D38*
X686209Y1003399D02*
D03*
X701209Y1003469D02*
D03*
X716209Y1003371D02*
D03*
X731342Y1003357D02*
D03*
X836749Y34363D02*
D03*
X798649D02*
D03*
X754126Y34290D02*
D03*
X716099Y34363D02*
D03*
X623062Y34290D02*
D03*
X585470D02*
D03*
X540839Y34471D02*
D03*
X502920Y34290D02*
D03*
X106934Y790956D02*
D03*
X82042Y743712D02*
D03*
X754126Y225806D02*
D03*
X595546Y372788D02*
D03*
X615546Y372768D02*
D03*
X635546Y372834D02*
D03*
X655546Y372844D02*
D03*
X675546Y372778D02*
D03*
X695452Y372872D02*
D03*
X715546Y372844D02*
D03*
X735546Y372834D02*
D03*
X755546Y372722D02*
D03*
X775546Y372788D02*
D03*
X713260Y523466D02*
D03*
X808200D02*
D03*
X808068Y563466D02*
D03*
X713326D02*
D03*
X808190Y603466D02*
D03*
X808228Y643382D02*
D03*
X713270Y603466D02*
D03*
X713402Y643466D02*
D03*
X660372Y523720D02*
D03*
X660240Y563720D02*
D03*
X660362Y603720D02*
D03*
X660230Y643720D02*
D03*
X563908Y523720D02*
D03*
X563974Y563720D02*
D03*
X564050Y643720D02*
D03*
X302079Y138357D02*
D03*
X50619Y44377D02*
D03*
X69669Y44269D02*
D03*
X88719Y44523D02*
D03*
X107769Y44269D02*
D03*
X126819D02*
D03*
X152219Y44377D02*
D03*
X171269D02*
D03*
X190319Y44269D02*
D03*
X209369D02*
D03*
Y138357D02*
D03*
X107769Y138249D02*
D03*
X88719D02*
D03*
X69669D02*
D03*
X50546Y138430D02*
D03*
X806209Y1003795D02*
D03*
X495553Y1003809D02*
D03*
X480553Y1003315D02*
D03*
X139643Y1003357D02*
D03*
X511048Y1003554D02*
D03*
X435635Y1003357D02*
D03*
X450552Y1003344D02*
D03*
X420553Y1003483D02*
D03*
X405553Y1003385D02*
D03*
X390553Y1003455D02*
D03*
X109643Y1003385D02*
D03*
X124638Y1003275D02*
D03*
X154711Y1003300D02*
D03*
X184912D02*
D03*
X263979Y138249D02*
D03*
X283029Y138357D02*
D03*
X321129Y138249D02*
D03*
X346529Y138357D02*
D03*
X365579D02*
D03*
X403679D02*
D03*
X422729Y138249D02*
D03*
X263979Y44377D02*
D03*
X283029Y44269D02*
D03*
X302079D02*
D03*
X321129D02*
D03*
X340179Y44377D02*
D03*
X365579Y44269D02*
D03*
X384629D02*
D03*
X403679Y44377D02*
D03*
X422729Y44269D02*
D03*
X477339Y138357D02*
D03*
X496389D02*
D03*
X515439D02*
D03*
X534489D02*
D03*
X553539D02*
D03*
X578939D02*
D03*
X597989D02*
D03*
X477339Y44269D02*
D03*
X515439Y44377D02*
D03*
X553539Y44269D02*
D03*
X572589Y109039D02*
D03*
X604339D02*
D03*
X483689Y73479D02*
D03*
X521789D02*
D03*
X346529D02*
D03*
X340179Y109293D02*
D03*
X559889Y109039D02*
D03*
X566239Y138357D02*
D03*
X610689D02*
D03*
X617039Y109039D02*
D03*
X133169Y73587D02*
D03*
X126819Y108966D02*
D03*
X490039Y44269D02*
D03*
X496389Y73333D02*
D03*
X528139Y44269D02*
D03*
X534489Y73333D02*
D03*
X559889Y73225D02*
D03*
X566239Y44269D02*
D03*
X572589Y73333D02*
D03*
X578939Y44631D02*
D03*
X597989Y44377D02*
D03*
X604339Y73333D02*
D03*
X610689Y44269D02*
D03*
X617039Y73225D02*
D03*
X636089Y44377D02*
D03*
X690699Y138357D02*
D03*
X697049Y109039D02*
D03*
X709749Y138249D02*
D03*
X728799D02*
D03*
X747849D02*
D03*
X766899Y138357D02*
D03*
X773249Y109039D02*
D03*
X779599Y138357D02*
D03*
X785949Y109039D02*
D03*
X792299Y138357D02*
D03*
X811349D02*
D03*
X817699Y109039D02*
D03*
X824049Y138357D02*
D03*
X830399Y109039D02*
D03*
X849449Y138357D02*
D03*
X690699Y44269D02*
D03*
X697049Y73333D02*
D03*
X703399Y44269D02*
D03*
X709749Y73333D02*
D03*
X728799Y44269D02*
D03*
X735149Y73333D02*
D03*
X741499Y44523D02*
D03*
X747849Y73333D02*
D03*
X766899Y44377D02*
D03*
X773249Y73333D02*
D03*
X779599Y44269D02*
D03*
X785949Y73333D02*
D03*
X792299Y44269D02*
D03*
X811349Y44377D02*
D03*
X817699Y73333D02*
D03*
X824049Y44269D02*
D03*
X830399Y73333D02*
D03*
X849449Y44269D02*
D03*
X595376Y277368D02*
D03*
X615546Y277218D02*
D03*
X635546Y277152D02*
D03*
X655546Y277340D02*
D03*
X675546Y277528D02*
D03*
X695546Y277462D02*
D03*
X123364Y622220D02*
D03*
X123364Y612220D02*
D03*
X94568Y587930D02*
D03*
X94568Y577930D02*
D03*
X115824Y537464D02*
D03*
X98552Y537464D02*
D03*
X133604Y537464D02*
D03*
X126746Y605790D02*
D03*
X98552Y561848D02*
D03*
X133350Y605790D02*
D03*
X315214Y722122D02*
D03*
X332486Y722122D02*
D03*
X312754Y773604D02*
D03*
X312754Y763604D02*
D03*
X340534Y797386D02*
D03*
X340534Y807386D02*
D03*
X335280Y957326D02*
D03*
X119380Y773430D02*
D03*
X325044Y974776D02*
D03*
X350266Y722122D02*
D03*
X343662Y791210D02*
D03*
X350520Y790956D02*
D03*
X315214Y746760D02*
D03*
X797814Y796290D02*
D03*
X779526Y784352D02*
D03*
X788924Y784352D02*
D03*
X730076Y719916D02*
D03*
X740156Y719836D02*
D03*
X653034Y746506D02*
D03*
X704262Y749888D02*
D03*
X694262Y749888D02*
D03*
X653034Y711454D02*
D03*
X721920Y717856D02*
D03*
X721966Y711356D02*
D03*
X677418Y746506D02*
D03*
X240538Y991870D02*
D03*
X241300Y962914D02*
D03*
X536194Y991870D02*
D03*
X536626Y962584D02*
D03*
X831868Y992074D02*
D03*
X832122Y962864D02*
D03*
X846533Y770177D02*
D03*
X299974Y927862D02*
D03*
X776209Y1003569D02*
D03*
X563626Y604266D02*
D03*
X384629Y138357D02*
D03*
X791286Y1003555D02*
D03*
X746208Y1003344D02*
D03*
X802665Y993902D02*
D03*
X795045D02*
D03*
X787679Y987044D02*
D03*
X780059D02*
D03*
X772439Y993902D02*
D03*
X764819D02*
D03*
X749833Y987044D02*
D03*
X757453D02*
D03*
X483946D02*
D03*
X491566D02*
D03*
X190319Y138249D02*
D03*
X171269D02*
D03*
X152219Y138357D02*
D03*
X133169Y138103D02*
D03*
X199898Y1003224D02*
D03*
X214884Y1003300D02*
D03*
X653034Y729234D02*
D03*
D39*
X653288Y147828D02*
D03*
X674116D02*
D03*
Y203200D02*
D03*
X653288D02*
D03*
X459994Y147574D02*
D03*
X439166D02*
D03*
X459994Y203200D02*
D03*
X439166D02*
D03*
X703326Y150622D02*
D03*
X563964Y463720D02*
D03*
X564030Y483720D02*
D03*
X808312Y463466D02*
D03*
X808332Y483466D02*
D03*
X713232Y463550D02*
D03*
X660400Y464058D02*
D03*
X660250Y483720D02*
D03*
X713336Y483466D02*
D03*
X115824Y644144D02*
D03*
X87376D02*
D03*
X130810Y754126D02*
D03*
Y733552D02*
D03*
X333756Y829056D02*
D03*
X305054D02*
D03*
X350520Y938022D02*
D03*
Y917448D02*
D03*
X838454Y809752D02*
D03*
X818134D02*
D03*
X762000Y727964D02*
D03*
Y756158D02*
D03*
D40*
X713232Y624990D02*
D03*
X507492Y993902D02*
D03*
X499364D02*
D03*
X94488Y1003300D02*
D03*
X64132Y74422D02*
D03*
X56156D02*
D03*
X75206Y83820D02*
D03*
X102232Y74422D02*
D03*
X94256D02*
D03*
X203832D02*
D03*
X195856D02*
D03*
X184782Y83820D02*
D03*
X176806D02*
D03*
X165732Y74422D02*
D03*
X157756D02*
D03*
X146682Y84074D02*
D03*
X138706D02*
D03*
X269516Y74422D02*
D03*
X277492D02*
D03*
X288566Y83820D02*
D03*
X296542D02*
D03*
X307616Y74422D02*
D03*
X315592D02*
D03*
X326666Y83820D02*
D03*
X334642D02*
D03*
X83182D02*
D03*
X113306Y84074D02*
D03*
X121282D02*
D03*
X409216Y74168D02*
D03*
X417192D02*
D03*
X352066Y83566D02*
D03*
X360042D02*
D03*
X371116Y74168D02*
D03*
X379092D02*
D03*
X390166Y83820D02*
D03*
X398142D02*
D03*
X713232Y616854D02*
D03*
X468884Y993902D02*
D03*
X477012D02*
D03*
X462026Y987044D02*
D03*
X453955Y987000D02*
D03*
X188447D02*
D03*
X196422D02*
D03*
X181422Y994000D02*
D03*
X173447D02*
D03*
X158578Y987000D02*
D03*
X166553D02*
D03*
X211582Y993902D02*
D03*
X203447Y994000D02*
D03*
D41*
X713232Y544850D02*
D03*
Y536951D02*
D03*
Y504850D02*
D03*
Y496951D02*
D03*
Y584850D02*
D03*
Y576951D02*
D03*
D51*
X56969Y58801D02*
D03*
X63319D02*
D03*
X76019D02*
D03*
X82369D02*
D03*
X95069D02*
D03*
X101419D02*
D03*
X114119D02*
D03*
X120469D02*
D03*
X139519D02*
D03*
X145869D02*
D03*
X158569D02*
D03*
X164919D02*
D03*
X177619D02*
D03*
X183969D02*
D03*
X196669D02*
D03*
X203019D02*
D03*
X56969Y123571D02*
D03*
X63319D02*
D03*
X76019D02*
D03*
X82369D02*
D03*
X95069D02*
D03*
X101419D02*
D03*
X114119D02*
D03*
X120469D02*
D03*
X139519D02*
D03*
X145869D02*
D03*
X158569D02*
D03*
X164919D02*
D03*
X177619D02*
D03*
X183969D02*
D03*
X196669D02*
D03*
X203019D02*
D03*
X270329Y58801D02*
D03*
X276679D02*
D03*
X289379D02*
D03*
X295729D02*
D03*
X308429D02*
D03*
X314779D02*
D03*
X327479D02*
D03*
X333829D02*
D03*
X352879D02*
D03*
X359229D02*
D03*
X371929D02*
D03*
X378279D02*
D03*
X390979D02*
D03*
X397329D02*
D03*
X410029D02*
D03*
X416379D02*
D03*
X270329Y123571D02*
D03*
X276679D02*
D03*
X289379D02*
D03*
X295729D02*
D03*
X308429D02*
D03*
X314779D02*
D03*
X327479D02*
D03*
X333829D02*
D03*
X352879D02*
D03*
X359229D02*
D03*
X371929D02*
D03*
X378279D02*
D03*
X390979D02*
D03*
X397329D02*
D03*
X410029D02*
D03*
X416379D02*
D03*
X483689Y58801D02*
D03*
X490039D02*
D03*
X502739D02*
D03*
X509089D02*
D03*
X521789D02*
D03*
X528139D02*
D03*
X540839D02*
D03*
X547189D02*
D03*
X566239D02*
D03*
X572589D02*
D03*
X585289D02*
D03*
X591639D02*
D03*
X604339D02*
D03*
X623389D02*
D03*
X629739D02*
D03*
X483689Y123571D02*
D03*
X490039D02*
D03*
X502739D02*
D03*
X521789D02*
D03*
X540839D02*
D03*
X547189D02*
D03*
X566239D02*
D03*
X572589D02*
D03*
X585289D02*
D03*
X591639D02*
D03*
X604339D02*
D03*
X610689D02*
D03*
X623389D02*
D03*
X629739D02*
D03*
X697049Y58801D02*
D03*
X703399D02*
D03*
X716099D02*
D03*
X722449D02*
D03*
X735149D02*
D03*
X741499D02*
D03*
X754199D02*
D03*
X760549D02*
D03*
X779599D02*
D03*
X785949D02*
D03*
X798649D02*
D03*
X804999D02*
D03*
X817699D02*
D03*
X824049D02*
D03*
X836749D02*
D03*
X843099D02*
D03*
X697049Y123571D02*
D03*
X703399D02*
D03*
X716099D02*
D03*
X722449D02*
D03*
X735149D02*
D03*
X741499D02*
D03*
X754199D02*
D03*
X760549D02*
D03*
X779599D02*
D03*
X785949D02*
D03*
X798649D02*
D03*
X804999D02*
D03*
X817699D02*
D03*
X824049D02*
D03*
X836749D02*
D03*
X843099D02*
D03*
X209369D02*
D03*
X190319D02*
D03*
X171269D02*
D03*
X152219D02*
D03*
X133169D02*
D03*
X126819D02*
D03*
X107769D02*
D03*
X88719D02*
D03*
X69669D02*
D03*
X50619D02*
D03*
X263979D02*
D03*
X283029D02*
D03*
X302079D02*
D03*
X321129D02*
D03*
X340179D02*
D03*
X346529D02*
D03*
X365579D02*
D03*
X384629D02*
D03*
X403679D02*
D03*
X422729D02*
D03*
Y58801D02*
D03*
X403679D02*
D03*
X384629D02*
D03*
X365579D02*
D03*
X346529D02*
D03*
X340179D02*
D03*
X321129D02*
D03*
X302079D02*
D03*
X283029D02*
D03*
X263979D02*
D03*
X50619D02*
D03*
X69669D02*
D03*
X88719D02*
D03*
X107769D02*
D03*
X126819D02*
D03*
X133169D02*
D03*
X152219D02*
D03*
X171269D02*
D03*
X190319D02*
D03*
X209369D02*
D03*
X477339Y123571D02*
D03*
X496389D02*
D03*
X515439D02*
D03*
X534489D02*
D03*
X553539D02*
D03*
X559889D02*
D03*
X578939D02*
D03*
X597989D02*
D03*
X617039D02*
D03*
X636089D02*
D03*
X477339Y58801D02*
D03*
X496389D02*
D03*
X515439D02*
D03*
X534489D02*
D03*
X553539D02*
D03*
X559889D02*
D03*
X578939D02*
D03*
X597989D02*
D03*
X617039D02*
D03*
X636089D02*
D03*
X849449D02*
D03*
X830399D02*
D03*
X811349D02*
D03*
X792299D02*
D03*
X773249D02*
D03*
X766899D02*
D03*
X747849D02*
D03*
X728799D02*
D03*
X709749D02*
D03*
X690699D02*
D03*
X849449Y123571D02*
D03*
X830399D02*
D03*
X811349D02*
D03*
X792299D02*
D03*
X773249D02*
D03*
X766899D02*
D03*
X747849D02*
D03*
X728799D02*
D03*
X709749D02*
D03*
X690699D02*
D03*
X610689Y58801D02*
D03*
X528139Y123571D02*
D03*
X509089D02*
D03*
D52*
X769874Y91186D02*
D03*
X556514D02*
D03*
X343154D02*
D03*
X129794D02*
D03*
D53*
X704342Y205948D02*
D03*
X729742D02*
D03*
X755142D02*
D03*
Y168448D02*
D03*
X729742D02*
D03*
X704342D02*
D03*
M02*
