%FSLAX44Y44*%
%MOMM*%
G71*
G01*
G75*
G04 Layer_Color=65535*
%ADD10C,0.2032*%
%ADD11R,1.6000X1.6000*%
%ADD12R,0.2800X0.8000*%
%ADD13R,0.8000X0.2800*%
%ADD14R,0.6000X0.6000*%
%ADD15R,0.6000X0.6000*%
%ADD16R,1.4000X1.0000*%
G04:AMPARAMS|DCode=17|XSize=0.5mm|YSize=0.6mm|CornerRadius=0.125mm|HoleSize=0mm|Usage=FLASHONLY|Rotation=0.000|XOffset=0mm|YOffset=0mm|HoleType=Round|Shape=RoundedRectangle|*
%AMROUNDEDRECTD17*
21,1,0.5000,0.3500,0,0,0.0*
21,1,0.2500,0.6000,0,0,0.0*
1,1,0.2500,0.1250,-0.1750*
1,1,0.2500,-0.1250,-0.1750*
1,1,0.2500,-0.1250,0.1750*
1,1,0.2500,0.1250,0.1750*
%
%ADD17ROUNDEDRECTD17*%
%ADD18R,2.6000X1.1000*%
G04:AMPARAMS|DCode=19|XSize=0.5mm|YSize=0.6mm|CornerRadius=0.125mm|HoleSize=0mm|Usage=FLASHONLY|Rotation=270.000|XOffset=0mm|YOffset=0mm|HoleType=Round|Shape=RoundedRectangle|*
%AMROUNDEDRECTD19*
21,1,0.5000,0.3500,0,0,270.0*
21,1,0.2500,0.6000,0,0,270.0*
1,1,0.2500,-0.1750,-0.1250*
1,1,0.2500,-0.1750,0.1250*
1,1,0.2500,0.1750,0.1250*
1,1,0.2500,0.1750,-0.1250*
%
%ADD19ROUNDEDRECTD19*%
%ADD20R,1.1000X1.3500*%
%ADD21R,1.0000X1.4000*%
%ADD22R,1.4000X1.1000*%
%ADD23R,1.1500X1.8000*%
%ADD24R,0.9500X0.3500*%
%ADD25R,0.3500X0.9500*%
%ADD26R,3.3000X3.3000*%
%ADD27R,0.6000X1.8000*%
%ADD28R,0.5000X2.0000*%
%ADD29R,1.1000X1.4000*%
%ADD30R,1.1500X1.7000*%
%ADD31R,3.3000X3.3000*%
%ADD32R,1.1000X2.6000*%
%ADD33R,1.7000X1.1500*%
%ADD34C,0.4500*%
%ADD35C,1.0000*%
%ADD36R,12.0500X2.0000*%
%ADD37R,1.8000X1.8000*%
%ADD38R,3.6800X1.2700*%
%ADD39C,0.2540*%
%ADD40C,0.1270*%
%ADD41C,0.5080*%
%ADD42C,0.1524*%
%ADD43C,0.3048*%
%ADD44C,0.5000*%
%ADD45C,1.2700*%
%ADD46C,0.3810*%
%ADD47C,1.6500*%
%ADD48C,1.4732*%
%ADD49C,1.2802*%
%ADD50C,0.9500*%
%ADD51R,2.0000X2.0000*%
%ADD52C,8.0000*%
%ADD53C,0.5080*%
%ADD54C,0.4928*%
%ADD55C,0.6600*%
%ADD56C,1.0160*%
%ADD57C,1.0080*%
%ADD58C,2.0580*%
%ADD59C,2.0320*%
%ADD60C,1.4580*%
%ADD61C,1.5580*%
%ADD62C,1.6764*%
%ADD63C,4.3180*%
%ADD64C,0.7620*%
%ADD65C,0.1000*%
%ADD66C,0.1016*%
%ADD67C,0.8380*%
%ADD68R,0.4064X2.1590*%
%ADD69R,18.0340X0.5080*%
%ADD70C,0.2500*%
%ADD71C,0.6000*%
%ADD72C,0.2000*%
G36*
X179462Y268949D02*
X173697D01*
Y265975D01*
X179096D01*
Y264819D01*
X173697D01*
Y261506D01*
X179688D01*
Y260350D01*
X172400D01*
Y270105D01*
X179462D01*
Y268949D01*
D02*
G37*
G36*
X198381Y260350D02*
X197182D01*
Y267976D01*
X197168Y267962D01*
X197098Y267906D01*
X197013Y267821D01*
X196872Y267723D01*
X196717Y267596D01*
X196520Y267455D01*
X196294Y267300D01*
X196040Y267145D01*
X196026D01*
X196012Y267131D01*
X195928Y267074D01*
X195787Y267004D01*
X195618Y266919D01*
X195420Y266821D01*
X195209Y266722D01*
X194997Y266623D01*
X194786Y266539D01*
Y267694D01*
X194800D01*
X194828Y267723D01*
X194884Y267737D01*
X194955Y267779D01*
X195040Y267821D01*
X195138Y267878D01*
X195378Y268019D01*
X195660Y268174D01*
X195942Y268371D01*
X196238Y268597D01*
X196534Y268836D01*
X196548Y268850D01*
X196562Y268865D01*
X196604Y268907D01*
X196661Y268949D01*
X196787Y269090D01*
X196957Y269259D01*
X197126Y269457D01*
X197309Y269682D01*
X197464Y269908D01*
X197605Y270147D01*
X198381D01*
Y260350D01*
D02*
G37*
G36*
X239205Y267568D02*
X239417Y267554D01*
X239657Y267525D01*
X239896Y267483D01*
X240136Y267427D01*
X240361Y267356D01*
X240389Y267342D01*
X240460Y267314D01*
X240559Y267272D01*
X240686Y267215D01*
X240826Y267131D01*
X240968Y267046D01*
X241094Y266933D01*
X241207Y266821D01*
X241221Y266806D01*
X241250Y266764D01*
X241292Y266694D01*
X241348Y266609D01*
X241419Y266482D01*
X241475Y266355D01*
X241531Y266200D01*
X241574Y266017D01*
Y266003D01*
X241588Y265961D01*
X241602Y265876D01*
X241616Y265763D01*
Y265608D01*
X241630Y265425D01*
X241644Y265185D01*
Y264917D01*
Y263310D01*
Y263296D01*
Y263240D01*
Y263155D01*
Y263043D01*
Y262916D01*
Y262761D01*
X241658Y262422D01*
Y262070D01*
X241672Y261717D01*
X241686Y261562D01*
Y261421D01*
X241701Y261294D01*
X241715Y261196D01*
Y261182D01*
X241729Y261125D01*
X241743Y261041D01*
X241785Y260928D01*
X241813Y260801D01*
X241870Y260660D01*
X241940Y260505D01*
X242011Y260350D01*
X240756D01*
X240742Y260364D01*
X240728Y260420D01*
X240700Y260491D01*
X240657Y260604D01*
X240615Y260731D01*
X240587Y260886D01*
X240559Y261055D01*
X240530Y261238D01*
X240516D01*
X240502Y261210D01*
X240418Y261139D01*
X240291Y261041D01*
X240122Y260914D01*
X239910Y260787D01*
X239699Y260646D01*
X239473Y260519D01*
X239234Y260420D01*
X239205Y260406D01*
X239121Y260392D01*
X238994Y260350D01*
X238839Y260308D01*
X238641Y260265D01*
X238416Y260237D01*
X238162Y260209D01*
X237908Y260195D01*
X237796D01*
X237711Y260209D01*
X237612D01*
X237500Y260223D01*
X237246Y260265D01*
X236964Y260336D01*
X236654Y260435D01*
X236372Y260576D01*
X236118Y260759D01*
X236090Y260787D01*
X236019Y260858D01*
X235921Y260984D01*
X235808Y261154D01*
X235695Y261365D01*
X235597Y261605D01*
X235526Y261901D01*
X235512Y262042D01*
X235498Y262211D01*
Y262239D01*
Y262295D01*
X235512Y262394D01*
X235526Y262521D01*
X235554Y262676D01*
X235597Y262831D01*
X235653Y263000D01*
X235723Y263155D01*
X235737Y263169D01*
X235766Y263226D01*
X235822Y263310D01*
X235893Y263409D01*
X235977Y263522D01*
X236090Y263635D01*
X236203Y263747D01*
X236344Y263846D01*
X236358Y263860D01*
X236414Y263888D01*
X236485Y263945D01*
X236597Y264001D01*
X236724Y264058D01*
X236879Y264128D01*
X237034Y264184D01*
X237218Y264241D01*
X237232D01*
X237288Y264255D01*
X237373Y264283D01*
X237486Y264297D01*
X237626Y264325D01*
X237810Y264354D01*
X238021Y264396D01*
X238275Y264424D01*
X238289D01*
X238346Y264438D01*
X238416D01*
X238515Y264452D01*
X238627Y264466D01*
X238768Y264494D01*
X238923Y264509D01*
X239093Y264537D01*
X239431Y264607D01*
X239797Y264678D01*
X240122Y264762D01*
X240277Y264805D01*
X240418Y264847D01*
Y264861D01*
Y264889D01*
X240432Y264974D01*
Y265072D01*
Y265129D01*
Y265157D01*
Y265171D01*
Y265185D01*
Y265270D01*
X240418Y265411D01*
X240389Y265566D01*
X240347Y265735D01*
X240277Y265904D01*
X240192Y266059D01*
X240079Y266186D01*
X240065Y266200D01*
X239995Y266257D01*
X239882Y266313D01*
X239741Y266398D01*
X239544Y266468D01*
X239318Y266539D01*
X239036Y266581D01*
X238712Y266595D01*
X238571D01*
X238430Y266581D01*
X238233Y266553D01*
X238035Y266525D01*
X237824Y266468D01*
X237626Y266398D01*
X237457Y266299D01*
X237443Y266285D01*
X237387Y266243D01*
X237316Y266172D01*
X237232Y266059D01*
X237147Y265918D01*
X237048Y265735D01*
X236964Y265509D01*
X236879Y265256D01*
X235709Y265411D01*
Y265425D01*
X235723Y265439D01*
Y265481D01*
X235737Y265538D01*
X235780Y265665D01*
X235836Y265848D01*
X235907Y266031D01*
X235991Y266228D01*
X236104Y266426D01*
X236231Y266609D01*
X236245Y266623D01*
X236301Y266680D01*
X236386Y266764D01*
X236499Y266877D01*
X236654Y266990D01*
X236837Y267103D01*
X237048Y267229D01*
X237288Y267328D01*
X237302D01*
X237316Y267342D01*
X237359Y267356D01*
X237415Y267370D01*
X237556Y267413D01*
X237753Y267455D01*
X237979Y267497D01*
X238261Y267540D01*
X238557Y267568D01*
X238895Y267582D01*
X239050D01*
X239205Y267568D01*
D02*
G37*
G36*
X368539Y306124D02*
X365543D01*
Y309543D01*
X368539D01*
Y306124D01*
D02*
G37*
G36*
X264820Y270133D02*
X265003Y270105D01*
X265214Y270063D01*
X265440Y270006D01*
X265680Y269936D01*
X265905Y269823D01*
X265919D01*
X265933Y269809D01*
X266004Y269767D01*
X266117Y269696D01*
X266257Y269598D01*
X266413Y269457D01*
X266582Y269302D01*
X266737Y269118D01*
X266892Y268907D01*
X266906Y268879D01*
X266962Y268808D01*
X267019Y268681D01*
X267117Y268498D01*
X267202Y268287D01*
X267315Y268047D01*
X267414Y267765D01*
X267498Y267455D01*
Y267441D01*
X267512Y267413D01*
X267526Y267370D01*
X267540Y267300D01*
X267554Y267215D01*
X267569Y267117D01*
X267597Y266990D01*
X267611Y266849D01*
X267639Y266694D01*
X267653Y266525D01*
X267667Y266327D01*
X267695Y266130D01*
X267710Y265904D01*
Y265679D01*
X267724Y265425D01*
Y265157D01*
Y265143D01*
Y265087D01*
Y264988D01*
Y264875D01*
X267710Y264720D01*
Y264551D01*
X267695Y264368D01*
X267681Y264170D01*
X267639Y263719D01*
X267569Y263254D01*
X267484Y262803D01*
X267428Y262591D01*
X267357Y262380D01*
Y262366D01*
X267343Y262338D01*
X267315Y262281D01*
X267287Y262211D01*
X267258Y262112D01*
X267202Y262013D01*
X267089Y261774D01*
X266948Y261520D01*
X266765Y261238D01*
X266554Y260984D01*
X266300Y260745D01*
X266286D01*
X266272Y260716D01*
X266229Y260688D01*
X266173Y260660D01*
X266103Y260618D01*
X266032Y260562D01*
X265821Y260463D01*
X265567Y260364D01*
X265271Y260265D01*
X264918Y260209D01*
X264538Y260181D01*
X264397D01*
X264298Y260195D01*
X264185Y260209D01*
X264044Y260237D01*
X263889Y260265D01*
X263720Y260308D01*
X263551Y260364D01*
X263368Y260420D01*
X263184Y260505D01*
X263001Y260604D01*
X262818Y260716D01*
X262635Y260858D01*
X262465Y261013D01*
X262310Y261182D01*
X262296Y261196D01*
X262268Y261238D01*
X262226Y261309D01*
X262155Y261421D01*
X262085Y261548D01*
X262014Y261717D01*
X261916Y261915D01*
X261831Y262140D01*
X261747Y262394D01*
X261662Y262690D01*
X261577Y263014D01*
X261507Y263381D01*
X261436Y263776D01*
X261394Y264198D01*
X261366Y264664D01*
X261352Y265157D01*
Y265171D01*
Y265228D01*
Y265326D01*
Y265439D01*
X261366Y265594D01*
Y265763D01*
X261380Y265947D01*
X261394Y266158D01*
X261436Y266595D01*
X261507Y267060D01*
X261591Y267525D01*
X261648Y267737D01*
X261704Y267948D01*
Y267962D01*
X261718Y267991D01*
X261747Y268047D01*
X261775Y268117D01*
X261803Y268216D01*
X261859Y268315D01*
X261972Y268554D01*
X262113Y268808D01*
X262296Y269076D01*
X262508Y269344D01*
X262761Y269569D01*
X262776D01*
X262790Y269598D01*
X262832Y269626D01*
X262888Y269654D01*
X262959Y269710D01*
X263043Y269753D01*
X263255Y269865D01*
X263509Y269964D01*
X263805Y270063D01*
X264157Y270119D01*
X264538Y270147D01*
X264665D01*
X264820Y270133D01*
D02*
G37*
G36*
X167198Y270091D02*
X167325D01*
X167621Y270077D01*
X167931Y270035D01*
X168269Y269992D01*
X168579Y269922D01*
X168734Y269880D01*
X168861Y269837D01*
X168876D01*
X168890Y269823D01*
X168974Y269781D01*
X169101Y269725D01*
X169256Y269626D01*
X169425Y269499D01*
X169608Y269330D01*
X169778Y269132D01*
X169947Y268907D01*
Y268893D01*
X169961Y268879D01*
X170017Y268794D01*
X170074Y268653D01*
X170158Y268470D01*
X170229Y268258D01*
X170299Y268005D01*
X170341Y267737D01*
X170356Y267441D01*
Y267427D01*
Y267398D01*
Y267342D01*
X170341Y267272D01*
Y267173D01*
X170327Y267074D01*
X170271Y266835D01*
X170187Y266553D01*
X170074Y266257D01*
X169904Y265961D01*
X169792Y265820D01*
X169679Y265679D01*
X169665Y265665D01*
X169651Y265651D01*
X169608Y265608D01*
X169552Y265566D01*
X169482Y265509D01*
X169397Y265453D01*
X169284Y265383D01*
X169172Y265298D01*
X169030Y265228D01*
X168876Y265157D01*
X168706Y265072D01*
X168523Y265002D01*
X168312Y264946D01*
X168100Y264875D01*
X167861Y264833D01*
X167607Y264791D01*
X167635Y264776D01*
X167691Y264748D01*
X167776Y264692D01*
X167889Y264636D01*
X168142Y264480D01*
X168269Y264382D01*
X168382Y264297D01*
X168410Y264269D01*
X168481Y264198D01*
X168594Y264086D01*
X168734Y263945D01*
X168890Y263747D01*
X169073Y263536D01*
X169256Y263282D01*
X169453Y263000D01*
X171131Y260350D01*
X169524D01*
X168241Y262380D01*
Y262394D01*
X168213Y262422D01*
X168185Y262465D01*
X168142Y262521D01*
X168044Y262676D01*
X167917Y262873D01*
X167762Y263085D01*
X167607Y263310D01*
X167452Y263522D01*
X167311Y263719D01*
X167297Y263733D01*
X167254Y263790D01*
X167184Y263874D01*
X167085Y263973D01*
X166874Y264184D01*
X166761Y264283D01*
X166648Y264368D01*
X166634Y264382D01*
X166606Y264396D01*
X166549Y264424D01*
X166465Y264466D01*
X166380Y264509D01*
X166282Y264551D01*
X166056Y264621D01*
X166042D01*
X166014Y264636D01*
X165957D01*
X165887Y264650D01*
X165788Y264664D01*
X165675D01*
X165520Y264678D01*
X163857D01*
Y260350D01*
X162560D01*
Y270105D01*
X167085D01*
X167198Y270091D01*
D02*
G37*
G36*
X257236Y270133D02*
X257348Y270119D01*
X257489Y270105D01*
X257644Y270077D01*
X257799Y270049D01*
X258166Y269950D01*
X258532Y269809D01*
X258716Y269725D01*
X258899Y269626D01*
X259068Y269499D01*
X259223Y269358D01*
X259237Y269344D01*
X259265Y269330D01*
X259294Y269273D01*
X259350Y269217D01*
X259421Y269146D01*
X259491Y269048D01*
X259562Y268949D01*
X259646Y268822D01*
X259787Y268554D01*
X259928Y268216D01*
X259984Y268047D01*
X260013Y267850D01*
X260041Y267652D01*
X260055Y267441D01*
Y267413D01*
Y267342D01*
X260041Y267229D01*
X260027Y267074D01*
X259998Y266905D01*
X259942Y266708D01*
X259886Y266496D01*
X259801Y266285D01*
X259787Y266257D01*
X259759Y266186D01*
X259702Y266073D01*
X259618Y265918D01*
X259505Y265749D01*
X259364Y265538D01*
X259195Y265326D01*
X258998Y265087D01*
X258969Y265058D01*
X258899Y264974D01*
X258828Y264903D01*
X258758Y264833D01*
X258673Y264748D01*
X258561Y264636D01*
X258448Y264523D01*
X258307Y264396D01*
X258166Y264255D01*
X257997Y264100D01*
X257813Y263945D01*
X257616Y263762D01*
X257390Y263578D01*
X257165Y263381D01*
X257151Y263367D01*
X257123Y263339D01*
X257066Y263296D01*
X256996Y263240D01*
X256911Y263155D01*
X256812Y263071D01*
X256587Y262887D01*
X256347Y262676D01*
X256122Y262465D01*
X255924Y262281D01*
X255840Y262211D01*
X255769Y262140D01*
X255755Y262126D01*
X255713Y262084D01*
X255657Y262027D01*
X255586Y261943D01*
X255516Y261844D01*
X255431Y261746D01*
X255262Y261506D01*
X260069D01*
Y260350D01*
X253598D01*
Y260364D01*
Y260420D01*
Y260505D01*
X253612Y260618D01*
X253627Y260745D01*
X253655Y260886D01*
X253683Y261027D01*
X253739Y261182D01*
Y261196D01*
X253754Y261210D01*
X253782Y261294D01*
X253838Y261421D01*
X253923Y261590D01*
X254035Y261788D01*
X254176Y262013D01*
X254331Y262239D01*
X254529Y262479D01*
Y262493D01*
X254557Y262507D01*
X254627Y262591D01*
X254754Y262718D01*
X254938Y262902D01*
X255149Y263113D01*
X255417Y263367D01*
X255741Y263649D01*
X256094Y263945D01*
X256108Y263959D01*
X256164Y264001D01*
X256249Y264072D01*
X256347Y264156D01*
X256474Y264269D01*
X256629Y264396D01*
X256784Y264537D01*
X256968Y264692D01*
X257320Y265030D01*
X257673Y265368D01*
X257842Y265538D01*
X257997Y265707D01*
X258138Y265862D01*
X258250Y266017D01*
Y266031D01*
X258279Y266045D01*
X258307Y266087D01*
X258335Y266144D01*
X258434Y266299D01*
X258547Y266482D01*
X258645Y266708D01*
X258744Y266947D01*
X258800Y267215D01*
X258828Y267469D01*
Y267483D01*
Y267497D01*
X258814Y267582D01*
X258800Y267723D01*
X258758Y267878D01*
X258701Y268075D01*
X258603Y268272D01*
X258476Y268470D01*
X258307Y268667D01*
X258279Y268695D01*
X258208Y268752D01*
X258109Y268822D01*
X257954Y268921D01*
X257757Y269006D01*
X257532Y269090D01*
X257264Y269146D01*
X256968Y269161D01*
X256883D01*
X256827Y269146D01*
X256658Y269132D01*
X256460Y269090D01*
X256249Y269034D01*
X256009Y268935D01*
X255784Y268808D01*
X255572Y268639D01*
X255544Y268611D01*
X255487Y268540D01*
X255403Y268428D01*
X255318Y268258D01*
X255220Y268061D01*
X255135Y267807D01*
X255079Y267525D01*
X255050Y267201D01*
X253824Y267328D01*
Y267342D01*
X253838Y267384D01*
Y267455D01*
X253852Y267554D01*
X253880Y267666D01*
X253909Y267793D01*
X253951Y267948D01*
X253993Y268103D01*
X254106Y268442D01*
X254275Y268780D01*
X254374Y268949D01*
X254501Y269118D01*
X254627Y269273D01*
X254769Y269414D01*
X254783Y269429D01*
X254811Y269443D01*
X254853Y269485D01*
X254923Y269527D01*
X255008Y269583D01*
X255107Y269640D01*
X255220Y269710D01*
X255361Y269781D01*
X255516Y269851D01*
X255685Y269922D01*
X255868Y269978D01*
X256065Y270035D01*
X256277Y270077D01*
X256502Y270119D01*
X256742Y270133D01*
X256996Y270147D01*
X257137D01*
X257236Y270133D01*
D02*
G37*
G36*
X246592Y260237D02*
Y260223D01*
X246578Y260181D01*
X246550Y260124D01*
X246522Y260054D01*
X246479Y259955D01*
X246437Y259842D01*
X246339Y259603D01*
X246240Y259335D01*
X246127Y259067D01*
X246014Y258827D01*
X245958Y258729D01*
X245916Y258630D01*
X245902Y258602D01*
X245859Y258531D01*
X245789Y258433D01*
X245704Y258306D01*
X245591Y258165D01*
X245464Y258024D01*
X245338Y257883D01*
X245182Y257770D01*
X245168Y257756D01*
X245112Y257728D01*
X245027Y257686D01*
X244901Y257629D01*
X244760Y257573D01*
X244590Y257531D01*
X244407Y257502D01*
X244196Y257488D01*
X244139D01*
X244069Y257502D01*
X243970D01*
X243857Y257531D01*
X243731Y257559D01*
X243590Y257587D01*
X243435Y257643D01*
X243308Y258757D01*
X243322D01*
X243378Y258743D01*
X243449Y258729D01*
X243533Y258701D01*
X243759Y258658D01*
X243984Y258644D01*
X244055D01*
X244125Y258658D01*
X244210D01*
X244421Y258701D01*
X244520Y258743D01*
X244619Y258785D01*
X244633D01*
X244661Y258813D01*
X244703Y258842D01*
X244760Y258884D01*
X244886Y258997D01*
X244999Y259152D01*
Y259166D01*
X245027Y259194D01*
X245056Y259250D01*
X245084Y259335D01*
X245140Y259448D01*
X245197Y259617D01*
X245281Y259814D01*
X245366Y260054D01*
Y260068D01*
X245394Y260124D01*
X245422Y260223D01*
X245479Y260350D01*
X242800Y267427D01*
X244069D01*
X245549Y263325D01*
Y263310D01*
X245563Y263296D01*
X245577Y263254D01*
X245591Y263183D01*
X245620Y263113D01*
X245648Y263028D01*
X245718Y262831D01*
X245803Y262591D01*
X245887Y262309D01*
X245972Y262013D01*
X246056Y261689D01*
Y261703D01*
X246071Y261731D01*
X246085Y261774D01*
X246099Y261830D01*
X246113Y261901D01*
X246141Y261985D01*
X246197Y262197D01*
X246268Y262436D01*
X246367Y262718D01*
X246451Y263000D01*
X246564Y263296D01*
X248086Y267427D01*
X249285D01*
X246592Y260237D01*
D02*
G37*
G36*
X233961Y260350D02*
X232721D01*
Y268512D01*
X229873Y260350D01*
X228717D01*
X225898Y268653D01*
Y260350D01*
X224657D01*
Y270105D01*
X226589D01*
X228901Y263183D01*
Y263169D01*
X228915Y263141D01*
X228929Y263099D01*
X228957Y263028D01*
X229013Y262859D01*
X229084Y262648D01*
X229154Y262408D01*
X229239Y262169D01*
X229309Y261943D01*
X229366Y261746D01*
X229380Y261774D01*
X229394Y261844D01*
X229436Y261971D01*
X229493Y262140D01*
X229563Y262366D01*
X229662Y262634D01*
X229760Y262944D01*
X229887Y263310D01*
X232227Y270105D01*
X233961D01*
Y260350D01*
D02*
G37*
G36*
X241459Y280247D02*
X148590D01*
Y315650D01*
X241459D01*
Y280247D01*
D02*
G37*
G36*
X273447Y260350D02*
X272249D01*
Y267976D01*
X272235Y267962D01*
X272164Y267906D01*
X272080Y267821D01*
X271939Y267723D01*
X271784Y267596D01*
X271586Y267455D01*
X271361Y267300D01*
X271107Y267145D01*
X271093D01*
X271079Y267131D01*
X270994Y267074D01*
X270853Y267004D01*
X270684Y266919D01*
X270487Y266821D01*
X270275Y266722D01*
X270064Y266623D01*
X269852Y266539D01*
Y267694D01*
X269866D01*
X269895Y267723D01*
X269951Y267737D01*
X270021Y267779D01*
X270106Y267821D01*
X270205Y267878D01*
X270444Y268019D01*
X270726Y268174D01*
X271008Y268371D01*
X271304Y268597D01*
X271600Y268836D01*
X271614Y268850D01*
X271628Y268865D01*
X271671Y268907D01*
X271727Y268949D01*
X271854Y269090D01*
X272023Y269259D01*
X272192Y269457D01*
X272376Y269682D01*
X272531Y269908D01*
X272672Y270147D01*
X273447D01*
Y260350D01*
D02*
G37*
G36*
X279988Y270133D02*
X280101Y270119D01*
X280242Y270105D01*
X280397Y270077D01*
X280552Y270049D01*
X280918Y269950D01*
X281285Y269809D01*
X281468Y269725D01*
X281651Y269626D01*
X281821Y269499D01*
X281976Y269358D01*
X281990Y269344D01*
X282018Y269330D01*
X282046Y269273D01*
X282103Y269217D01*
X282173Y269146D01*
X282243Y269048D01*
X282314Y268949D01*
X282399Y268822D01*
X282540Y268554D01*
X282680Y268216D01*
X282737Y268047D01*
X282765Y267850D01*
X282793Y267652D01*
X282807Y267441D01*
Y267413D01*
Y267342D01*
X282793Y267229D01*
X282779Y267074D01*
X282751Y266905D01*
X282695Y266708D01*
X282638Y266496D01*
X282554Y266285D01*
X282540Y266257D01*
X282511Y266186D01*
X282455Y266073D01*
X282370Y265918D01*
X282258Y265749D01*
X282117Y265538D01*
X281947Y265326D01*
X281750Y265087D01*
X281722Y265058D01*
X281651Y264974D01*
X281581Y264903D01*
X281511Y264833D01*
X281426Y264748D01*
X281313Y264636D01*
X281200Y264523D01*
X281059Y264396D01*
X280918Y264255D01*
X280749Y264100D01*
X280566Y263945D01*
X280369Y263762D01*
X280143Y263578D01*
X279918Y263381D01*
X279903Y263367D01*
X279875Y263339D01*
X279819Y263296D01*
X279748Y263240D01*
X279664Y263155D01*
X279565Y263071D01*
X279340Y262887D01*
X279100Y262676D01*
X278874Y262465D01*
X278677Y262281D01*
X278592Y262211D01*
X278522Y262140D01*
X278508Y262126D01*
X278465Y262084D01*
X278409Y262027D01*
X278339Y261943D01*
X278268Y261844D01*
X278184Y261746D01*
X278014Y261506D01*
X282822D01*
Y260350D01*
X276351D01*
Y260364D01*
Y260420D01*
Y260505D01*
X276365Y260618D01*
X276379Y260745D01*
X276407Y260886D01*
X276436Y261027D01*
X276492Y261182D01*
Y261196D01*
X276506Y261210D01*
X276534Y261294D01*
X276591Y261421D01*
X276675Y261590D01*
X276788Y261788D01*
X276929Y262013D01*
X277084Y262239D01*
X277281Y262479D01*
Y262493D01*
X277310Y262507D01*
X277380Y262591D01*
X277507Y262718D01*
X277690Y262902D01*
X277902Y263113D01*
X278169Y263367D01*
X278494Y263649D01*
X278846Y263945D01*
X278860Y263959D01*
X278917Y264001D01*
X279001Y264072D01*
X279100Y264156D01*
X279227Y264269D01*
X279382Y264396D01*
X279537Y264537D01*
X279720Y264692D01*
X280073Y265030D01*
X280425Y265368D01*
X280594Y265538D01*
X280749Y265707D01*
X280890Y265862D01*
X281003Y266017D01*
Y266031D01*
X281031Y266045D01*
X281059Y266087D01*
X281088Y266144D01*
X281186Y266299D01*
X281299Y266482D01*
X281398Y266708D01*
X281496Y266947D01*
X281553Y267215D01*
X281581Y267469D01*
Y267483D01*
Y267497D01*
X281567Y267582D01*
X281553Y267723D01*
X281511Y267878D01*
X281454Y268075D01*
X281355Y268272D01*
X281229Y268470D01*
X281059Y268667D01*
X281031Y268695D01*
X280961Y268752D01*
X280862Y268822D01*
X280707Y268921D01*
X280510Y269006D01*
X280284Y269090D01*
X280016Y269146D01*
X279720Y269161D01*
X279636D01*
X279579Y269146D01*
X279410Y269132D01*
X279213Y269090D01*
X279001Y269034D01*
X278762Y268935D01*
X278536Y268808D01*
X278325Y268639D01*
X278296Y268611D01*
X278240Y268540D01*
X278155Y268428D01*
X278071Y268258D01*
X277972Y268061D01*
X277888Y267807D01*
X277831Y267525D01*
X277803Y267201D01*
X276576Y267328D01*
Y267342D01*
X276591Y267384D01*
Y267455D01*
X276605Y267554D01*
X276633Y267666D01*
X276661Y267793D01*
X276703Y267948D01*
X276746Y268103D01*
X276859Y268442D01*
X277028Y268780D01*
X277126Y268949D01*
X277253Y269118D01*
X277380Y269273D01*
X277521Y269414D01*
X277535Y269429D01*
X277563Y269443D01*
X277606Y269485D01*
X277676Y269527D01*
X277761Y269583D01*
X277859Y269640D01*
X277972Y269710D01*
X278113Y269781D01*
X278268Y269851D01*
X278437Y269922D01*
X278621Y269978D01*
X278818Y270035D01*
X279029Y270077D01*
X279255Y270119D01*
X279495Y270133D01*
X279748Y270147D01*
X279889D01*
X279988Y270133D01*
D02*
G37*
G36*
X185595Y260350D02*
X184241D01*
X180463Y270105D01*
X181873D01*
X184410Y263014D01*
Y263000D01*
X184424Y262972D01*
X184438Y262930D01*
X184467Y262873D01*
X184481Y262789D01*
X184509Y262704D01*
X184580Y262493D01*
X184664Y262253D01*
X184749Y261985D01*
X184918Y261421D01*
Y261436D01*
X184932Y261464D01*
X184946Y261506D01*
X184960Y261562D01*
X185002Y261717D01*
X185073Y261929D01*
X185143Y262169D01*
X185228Y262436D01*
X185327Y262718D01*
X185439Y263014D01*
X188090Y270105D01*
X189401D01*
X185595Y260350D01*
D02*
G37*
G36*
X324047Y300835D02*
X314458Y289624D01*
X312589Y287544D01*
X312801D01*
X312942Y287579D01*
X313330Y287615D01*
X313823Y287650D01*
X314422D01*
X315057Y287685D01*
X316397Y287720D01*
X324576D01*
Y285147D01*
X308923D01*
Y287544D01*
X320169Y300518D01*
X319852D01*
X319499Y300483D01*
X319041D01*
X318512Y300448D01*
X317948D01*
X317349Y300412D01*
X309593D01*
Y302845D01*
X324047D01*
Y300835D01*
D02*
G37*
G36*
X335858Y303197D02*
X336386Y303162D01*
X336986Y303092D01*
X337585Y302986D01*
X338185Y302845D01*
X338749Y302669D01*
X338819Y302633D01*
X338995Y302563D01*
X339242Y302457D01*
X339560Y302316D01*
X339912Y302104D01*
X340265Y301893D01*
X340582Y301611D01*
X340864Y301329D01*
X340899Y301294D01*
X340970Y301188D01*
X341076Y301012D01*
X341217Y300800D01*
X341393Y300483D01*
X341534Y300166D01*
X341675Y299778D01*
X341781Y299319D01*
Y299284D01*
X341816Y299178D01*
X341851Y298967D01*
X341886Y298685D01*
Y298297D01*
X341922Y297839D01*
X341957Y297239D01*
Y296569D01*
Y292550D01*
Y292515D01*
Y292374D01*
Y292162D01*
Y291880D01*
Y291563D01*
Y291175D01*
X341992Y290329D01*
Y289448D01*
X342027Y288566D01*
X342063Y288179D01*
Y287826D01*
X342098Y287509D01*
X342133Y287262D01*
Y287227D01*
X342168Y287086D01*
X342204Y286874D01*
X342309Y286592D01*
X342380Y286275D01*
X342521Y285922D01*
X342697Y285535D01*
X342873Y285147D01*
X339736D01*
X339701Y285182D01*
X339665Y285323D01*
X339595Y285499D01*
X339489Y285781D01*
X339383Y286099D01*
X339313Y286486D01*
X339242Y286910D01*
X339172Y287368D01*
X339136D01*
X339101Y287297D01*
X338890Y287121D01*
X338572Y286874D01*
X338149Y286557D01*
X337621Y286240D01*
X337092Y285887D01*
X336527Y285570D01*
X335928Y285323D01*
X335858Y285288D01*
X335646Y285252D01*
X335329Y285147D01*
X334941Y285041D01*
X334448Y284935D01*
X333883Y284865D01*
X333249Y284794D01*
X332614Y284759D01*
X332332D01*
X332121Y284794D01*
X331874D01*
X331592Y284830D01*
X330957Y284935D01*
X330252Y285112D01*
X329477Y285358D01*
X328771Y285711D01*
X328137Y286169D01*
X328066Y286240D01*
X327890Y286416D01*
X327643Y286733D01*
X327361Y287156D01*
X327079Y287685D01*
X326832Y288284D01*
X326656Y289025D01*
X326621Y289377D01*
X326586Y289800D01*
Y289871D01*
Y290012D01*
X326621Y290259D01*
X326656Y290576D01*
X326727Y290964D01*
X326832Y291352D01*
X326973Y291775D01*
X327150Y292162D01*
X327185Y292198D01*
X327255Y292339D01*
X327396Y292550D01*
X327573Y292797D01*
X327784Y293079D01*
X328066Y293361D01*
X328348Y293643D01*
X328701Y293890D01*
X328736Y293925D01*
X328877Y293996D01*
X329053Y294137D01*
X329336Y294278D01*
X329653Y294419D01*
X330041Y294595D01*
X330428Y294736D01*
X330887Y294877D01*
X330922D01*
X331063Y294912D01*
X331274Y294983D01*
X331557Y295018D01*
X331909Y295089D01*
X332367Y295159D01*
X332896Y295265D01*
X333531Y295336D01*
X333566D01*
X333707Y295371D01*
X333883D01*
X334130Y295406D01*
X334412Y295441D01*
X334765Y295512D01*
X335153Y295547D01*
X335576Y295618D01*
X336422Y295794D01*
X337338Y295970D01*
X338149Y296182D01*
X338537Y296287D01*
X338890Y296393D01*
Y296428D01*
Y296499D01*
X338925Y296710D01*
Y296957D01*
Y297098D01*
Y297169D01*
Y297204D01*
Y297239D01*
Y297451D01*
X338890Y297803D01*
X338819Y298191D01*
X338713Y298614D01*
X338537Y299037D01*
X338326Y299425D01*
X338044Y299742D01*
X338008Y299778D01*
X337832Y299919D01*
X337550Y300060D01*
X337197Y300271D01*
X336704Y300448D01*
X336140Y300624D01*
X335435Y300730D01*
X334624Y300765D01*
X334271D01*
X333919Y300730D01*
X333425Y300659D01*
X332932Y300588D01*
X332403Y300448D01*
X331909Y300271D01*
X331486Y300024D01*
X331451Y299989D01*
X331310Y299883D01*
X331133Y299707D01*
X330922Y299425D01*
X330710Y299073D01*
X330464Y298614D01*
X330252Y298050D01*
X330041Y297416D01*
X327114Y297803D01*
Y297839D01*
X327150Y297874D01*
Y297980D01*
X327185Y298121D01*
X327291Y298438D01*
X327432Y298896D01*
X327608Y299355D01*
X327820Y299848D01*
X328102Y300342D01*
X328419Y300800D01*
X328454Y300835D01*
X328595Y300976D01*
X328807Y301188D01*
X329089Y301470D01*
X329477Y301752D01*
X329935Y302034D01*
X330464Y302351D01*
X331063Y302598D01*
X331098D01*
X331133Y302633D01*
X331239Y302669D01*
X331380Y302704D01*
X331733Y302810D01*
X332226Y302915D01*
X332790Y303021D01*
X333496Y303127D01*
X334236Y303197D01*
X335082Y303233D01*
X335470D01*
X335858Y303197D01*
D02*
G37*
G36*
X368539Y285147D02*
X365543D01*
Y302845D01*
X368539D01*
Y285147D01*
D02*
G37*
G36*
X282340Y303197D02*
X282622Y303162D01*
X282975Y303092D01*
X283363Y303021D01*
X283821Y302915D01*
X284244Y302810D01*
X284738Y302633D01*
X285196Y302457D01*
X285690Y302210D01*
X286183Y301928D01*
X286677Y301611D01*
X287135Y301223D01*
X287558Y300800D01*
X287593Y300765D01*
X287664Y300694D01*
X287770Y300553D01*
X287911Y300342D01*
X288087Y300095D01*
X288263Y299813D01*
X288475Y299460D01*
X288686Y299037D01*
X288898Y298579D01*
X289109Y298085D01*
X289286Y297521D01*
X289462Y296922D01*
X289603Y296252D01*
X289709Y295547D01*
X289779Y294807D01*
X289814Y293996D01*
Y293961D01*
Y293820D01*
Y293573D01*
X289779Y293220D01*
X276558D01*
Y293185D01*
Y293079D01*
X276594Y292938D01*
Y292727D01*
X276629Y292480D01*
X276700Y292198D01*
X276805Y291563D01*
X277017Y290858D01*
X277299Y290082D01*
X277687Y289377D01*
X278180Y288743D01*
X278215D01*
X278251Y288672D01*
X278462Y288496D01*
X278780Y288249D01*
X279203Y288002D01*
X279767Y287720D01*
X280401Y287474D01*
X281106Y287297D01*
X281494Y287262D01*
X281917Y287227D01*
X282199D01*
X282517Y287262D01*
X282904Y287333D01*
X283327Y287438D01*
X283821Y287579D01*
X284279Y287791D01*
X284738Y288073D01*
X284773Y288108D01*
X284949Y288249D01*
X285161Y288461D01*
X285408Y288743D01*
X285690Y289131D01*
X286007Y289624D01*
X286324Y290188D01*
X286606Y290858D01*
X289709Y290470D01*
Y290435D01*
X289673Y290364D01*
X289638Y290224D01*
X289568Y290012D01*
X289462Y289800D01*
X289356Y289518D01*
X289074Y288919D01*
X288722Y288249D01*
X288228Y287544D01*
X287664Y286874D01*
X286959Y286240D01*
X286924D01*
X286853Y286169D01*
X286747Y286099D01*
X286606Y285993D01*
X286395Y285887D01*
X286183Y285781D01*
X285901Y285640D01*
X285584Y285499D01*
X285231Y285358D01*
X284879Y285217D01*
X283997Y285006D01*
X283010Y284830D01*
X281917Y284759D01*
X281529D01*
X281283Y284794D01*
X280965Y284830D01*
X280578Y284900D01*
X280154Y284970D01*
X279696Y285041D01*
X278709Y285323D01*
X278180Y285535D01*
X277687Y285746D01*
X277158Y286028D01*
X276664Y286345D01*
X276206Y286698D01*
X275748Y287121D01*
X275712Y287156D01*
X275642Y287227D01*
X275536Y287368D01*
X275395Y287579D01*
X275219Y287826D01*
X275042Y288108D01*
X274831Y288461D01*
X274619Y288848D01*
X274408Y289307D01*
X274196Y289800D01*
X274020Y290364D01*
X273844Y290964D01*
X273703Y291598D01*
X273597Y292304D01*
X273526Y293044D01*
X273491Y293820D01*
Y293855D01*
Y294031D01*
Y294243D01*
X273526Y294560D01*
X273562Y294948D01*
X273597Y295371D01*
X273668Y295864D01*
X273773Y296358D01*
X274055Y297486D01*
X274232Y298050D01*
X274443Y298650D01*
X274725Y299214D01*
X275042Y299742D01*
X275395Y300271D01*
X275783Y300765D01*
X275818Y300800D01*
X275889Y300871D01*
X276030Y300976D01*
X276206Y301153D01*
X276417Y301329D01*
X276700Y301540D01*
X277017Y301787D01*
X277405Y301999D01*
X277792Y302246D01*
X278251Y302457D01*
X278744Y302669D01*
X279273Y302845D01*
X279837Y303021D01*
X280436Y303127D01*
X281071Y303197D01*
X281741Y303233D01*
X282094D01*
X282340Y303197D01*
D02*
G37*
G36*
X399916D02*
X400198Y303162D01*
X400551Y303092D01*
X400939Y303021D01*
X401397Y302915D01*
X401820Y302810D01*
X402314Y302633D01*
X402772Y302457D01*
X403266Y302210D01*
X403759Y301928D01*
X404253Y301611D01*
X404711Y301223D01*
X405134Y300800D01*
X405169Y300765D01*
X405240Y300694D01*
X405346Y300553D01*
X405487Y300342D01*
X405663Y300095D01*
X405839Y299813D01*
X406051Y299460D01*
X406262Y299037D01*
X406474Y298579D01*
X406685Y298085D01*
X406862Y297521D01*
X407038Y296922D01*
X407179Y296252D01*
X407285Y295547D01*
X407355Y294807D01*
X407391Y293996D01*
Y293961D01*
Y293820D01*
Y293573D01*
X407355Y293220D01*
X394134D01*
Y293185D01*
Y293079D01*
X394170Y292938D01*
Y292727D01*
X394205Y292480D01*
X394276Y292198D01*
X394381Y291563D01*
X394593Y290858D01*
X394875Y290082D01*
X395263Y289377D01*
X395756Y288743D01*
X395792D01*
X395827Y288672D01*
X396038Y288496D01*
X396356Y288249D01*
X396779Y288002D01*
X397343Y287720D01*
X397977Y287474D01*
X398683Y287297D01*
X399070Y287262D01*
X399493Y287227D01*
X399775D01*
X400093Y287262D01*
X400480Y287333D01*
X400904Y287438D01*
X401397Y287579D01*
X401855Y287791D01*
X402314Y288073D01*
X402349Y288108D01*
X402525Y288249D01*
X402737Y288461D01*
X402984Y288743D01*
X403266Y289131D01*
X403583Y289624D01*
X403900Y290188D01*
X404182Y290858D01*
X407285Y290470D01*
Y290435D01*
X407249Y290364D01*
X407214Y290224D01*
X407144Y290012D01*
X407038Y289800D01*
X406932Y289518D01*
X406650Y288919D01*
X406298Y288249D01*
X405804Y287544D01*
X405240Y286874D01*
X404535Y286240D01*
X404500D01*
X404429Y286169D01*
X404323Y286099D01*
X404182Y285993D01*
X403971Y285887D01*
X403759Y285781D01*
X403477Y285640D01*
X403160Y285499D01*
X402807Y285358D01*
X402455Y285217D01*
X401573Y285006D01*
X400586Y284830D01*
X399493Y284759D01*
X399105D01*
X398859Y284794D01*
X398541Y284830D01*
X398154Y284900D01*
X397731Y284970D01*
X397272Y285041D01*
X396285Y285323D01*
X395756Y285535D01*
X395263Y285746D01*
X394734Y286028D01*
X394240Y286345D01*
X393782Y286698D01*
X393324Y287121D01*
X393288Y287156D01*
X393218Y287227D01*
X393112Y287368D01*
X392971Y287579D01*
X392795Y287826D01*
X392619Y288108D01*
X392407Y288461D01*
X392196Y288848D01*
X391984Y289307D01*
X391772Y289800D01*
X391596Y290364D01*
X391420Y290964D01*
X391279Y291598D01*
X391173Y292304D01*
X391103Y293044D01*
X391067Y293820D01*
Y293855D01*
Y294031D01*
Y294243D01*
X391103Y294560D01*
X391138Y294948D01*
X391173Y295371D01*
X391244Y295864D01*
X391349Y296358D01*
X391631Y297486D01*
X391808Y298050D01*
X392019Y298650D01*
X392301Y299214D01*
X392619Y299742D01*
X392971Y300271D01*
X393359Y300765D01*
X393394Y300800D01*
X393465Y300871D01*
X393606Y300976D01*
X393782Y301153D01*
X393993Y301329D01*
X394276Y301540D01*
X394593Y301787D01*
X394981Y301999D01*
X395368Y302246D01*
X395827Y302457D01*
X396320Y302669D01*
X396849Y302845D01*
X397413Y303021D01*
X398013Y303127D01*
X398647Y303197D01*
X399317Y303233D01*
X399670D01*
X399916Y303197D01*
D02*
G37*
G36*
X306984Y300835D02*
X297394Y289624D01*
X295526Y287544D01*
X295737D01*
X295878Y287579D01*
X296266Y287615D01*
X296760Y287650D01*
X297359D01*
X297994Y287685D01*
X299333Y287720D01*
X307512D01*
Y285147D01*
X291859D01*
Y287544D01*
X303106Y300518D01*
X302788D01*
X302436Y300483D01*
X301978D01*
X301449Y300448D01*
X300884D01*
X300285Y300412D01*
X292529D01*
Y302845D01*
X306984D01*
Y300835D01*
D02*
G37*
G36*
X453399Y303197D02*
X453927Y303162D01*
X454527Y303092D01*
X455126Y302986D01*
X455725Y302845D01*
X456289Y302669D01*
X456360Y302633D01*
X456536Y302563D01*
X456783Y302457D01*
X457100Y302316D01*
X457453Y302104D01*
X457805Y301893D01*
X458123Y301611D01*
X458405Y301329D01*
X458440Y301294D01*
X458511Y301188D01*
X458616Y301012D01*
X458757Y300800D01*
X458934Y300483D01*
X459075Y300166D01*
X459216Y299778D01*
X459321Y299319D01*
Y299284D01*
X459357Y299178D01*
X459392Y298967D01*
X459427Y298685D01*
Y298297D01*
X459462Y297839D01*
X459498Y297239D01*
Y296569D01*
Y292550D01*
Y292515D01*
Y292374D01*
Y292162D01*
Y291880D01*
Y291563D01*
Y291175D01*
X459533Y290329D01*
Y289448D01*
X459568Y288566D01*
X459603Y288179D01*
Y287826D01*
X459639Y287509D01*
X459674Y287262D01*
Y287227D01*
X459709Y287086D01*
X459744Y286874D01*
X459850Y286592D01*
X459921Y286275D01*
X460062Y285922D01*
X460238Y285535D01*
X460414Y285147D01*
X457277D01*
X457241Y285182D01*
X457206Y285323D01*
X457136Y285499D01*
X457030Y285781D01*
X456924Y286099D01*
X456853Y286486D01*
X456783Y286910D01*
X456712Y287368D01*
X456677D01*
X456642Y287297D01*
X456431Y287121D01*
X456113Y286874D01*
X455690Y286557D01*
X455161Y286240D01*
X454632Y285887D01*
X454068Y285570D01*
X453469Y285323D01*
X453399Y285288D01*
X453187Y285252D01*
X452870Y285147D01*
X452482Y285041D01*
X451988Y284935D01*
X451424Y284865D01*
X450790Y284794D01*
X450155Y284759D01*
X449873D01*
X449661Y284794D01*
X449415D01*
X449133Y284830D01*
X448498Y284935D01*
X447793Y285112D01*
X447017Y285358D01*
X446312Y285711D01*
X445678Y286169D01*
X445607Y286240D01*
X445431Y286416D01*
X445184Y286733D01*
X444902Y287156D01*
X444620Y287685D01*
X444373Y288284D01*
X444197Y289025D01*
X444162Y289377D01*
X444126Y289800D01*
Y289871D01*
Y290012D01*
X444162Y290259D01*
X444197Y290576D01*
X444267Y290964D01*
X444373Y291352D01*
X444514Y291775D01*
X444691Y292162D01*
X444726Y292198D01*
X444796Y292339D01*
X444937Y292550D01*
X445114Y292797D01*
X445325Y293079D01*
X445607Y293361D01*
X445889Y293643D01*
X446242Y293890D01*
X446277Y293925D01*
X446418Y293996D01*
X446594Y294137D01*
X446876Y294278D01*
X447194Y294419D01*
X447581Y294595D01*
X447969Y294736D01*
X448428Y294877D01*
X448463D01*
X448604Y294912D01*
X448815Y294983D01*
X449097Y295018D01*
X449450Y295089D01*
X449908Y295159D01*
X450437Y295265D01*
X451072Y295336D01*
X451107D01*
X451248Y295371D01*
X451424D01*
X451671Y295406D01*
X451953Y295441D01*
X452306Y295512D01*
X452693Y295547D01*
X453116Y295618D01*
X453963Y295794D01*
X454879Y295970D01*
X455690Y296182D01*
X456078Y296287D01*
X456431Y296393D01*
Y296428D01*
Y296499D01*
X456466Y296710D01*
Y296957D01*
Y297098D01*
Y297169D01*
Y297204D01*
Y297239D01*
Y297451D01*
X456431Y297803D01*
X456360Y298191D01*
X456254Y298614D01*
X456078Y299037D01*
X455866Y299425D01*
X455584Y299742D01*
X455549Y299778D01*
X455373Y299919D01*
X455091Y300060D01*
X454738Y300271D01*
X454245Y300448D01*
X453681Y300624D01*
X452976Y300730D01*
X452165Y300765D01*
X451812D01*
X451460Y300730D01*
X450966Y300659D01*
X450472Y300588D01*
X449944Y300448D01*
X449450Y300271D01*
X449027Y300024D01*
X448992Y299989D01*
X448851Y299883D01*
X448674Y299707D01*
X448463Y299425D01*
X448251Y299073D01*
X448004Y298614D01*
X447793Y298050D01*
X447581Y297416D01*
X444655Y297803D01*
Y297839D01*
X444691Y297874D01*
Y297980D01*
X444726Y298121D01*
X444832Y298438D01*
X444972Y298896D01*
X445149Y299355D01*
X445360Y299848D01*
X445642Y300342D01*
X445960Y300800D01*
X445995Y300835D01*
X446136Y300976D01*
X446348Y301188D01*
X446629Y301470D01*
X447017Y301752D01*
X447476Y302034D01*
X448004Y302351D01*
X448604Y302598D01*
X448639D01*
X448674Y302633D01*
X448780Y302669D01*
X448921Y302704D01*
X449274Y302810D01*
X449767Y302915D01*
X450331Y303021D01*
X451036Y303127D01*
X451777Y303197D01*
X452623Y303233D01*
X453011D01*
X453399Y303197D01*
D02*
G37*
G36*
X381972D02*
X382359Y303162D01*
X382818Y303092D01*
X383311Y302986D01*
X383840Y302845D01*
X384334Y302633D01*
X384404Y302598D01*
X384545Y302528D01*
X384792Y302422D01*
X385074Y302246D01*
X385426Y302034D01*
X385744Y301752D01*
X386061Y301470D01*
X386343Y301117D01*
X386378Y301082D01*
X386449Y300941D01*
X386555Y300765D01*
X386731Y300518D01*
X386872Y300166D01*
X387013Y299813D01*
X387189Y299390D01*
X387295Y298932D01*
Y298896D01*
X387330Y298755D01*
X387365Y298544D01*
X387401Y298262D01*
Y297839D01*
X387436Y297345D01*
X387471Y296746D01*
Y296005D01*
Y285147D01*
X384475D01*
Y295864D01*
Y295900D01*
Y295935D01*
Y296182D01*
Y296499D01*
X384439Y296887D01*
X384404Y297345D01*
X384334Y297803D01*
X384228Y298226D01*
X384122Y298614D01*
Y298650D01*
X384052Y298755D01*
X383946Y298932D01*
X383840Y299143D01*
X383664Y299355D01*
X383452Y299601D01*
X383170Y299848D01*
X382853Y300060D01*
X382818Y300095D01*
X382712Y300166D01*
X382500Y300236D01*
X382253Y300342D01*
X381972Y300448D01*
X381619Y300553D01*
X381196Y300588D01*
X380773Y300624D01*
X380597D01*
X380456Y300588D01*
X380103Y300553D01*
X379645Y300483D01*
X379151Y300306D01*
X378587Y300095D01*
X378023Y299813D01*
X377494Y299390D01*
X377424Y299319D01*
X377283Y299143D01*
X377177Y299002D01*
X377071Y298826D01*
X376930Y298614D01*
X376824Y298368D01*
X376683Y298085D01*
X376542Y297733D01*
X376436Y297345D01*
X376331Y296922D01*
X376260Y296464D01*
X376190Y295970D01*
X376119Y295371D01*
Y294771D01*
Y285147D01*
X373122D01*
Y302845D01*
X375802D01*
Y300306D01*
X375837Y300342D01*
X375908Y300448D01*
X376013Y300588D01*
X376154Y300765D01*
X376366Y300976D01*
X376613Y301223D01*
X376895Y301505D01*
X377247Y301787D01*
X377600Y302034D01*
X378023Y302316D01*
X378481Y302563D01*
X378975Y302774D01*
X379539Y302951D01*
X380103Y303092D01*
X380738Y303197D01*
X381407Y303233D01*
X381689D01*
X381972Y303197D01*
D02*
G37*
G36*
X489676Y285147D02*
X486891D01*
Y287368D01*
X486856Y287333D01*
X486820Y287262D01*
X486715Y287121D01*
X486574Y286945D01*
X486397Y286768D01*
X486186Y286557D01*
X485939Y286310D01*
X485622Y286063D01*
X485304Y285817D01*
X484952Y285570D01*
X484529Y285358D01*
X484071Y285182D01*
X483612Y285006D01*
X483083Y284865D01*
X482519Y284794D01*
X481920Y284759D01*
X481708D01*
X481567Y284794D01*
X481144Y284830D01*
X480651Y284900D01*
X480051Y285041D01*
X479382Y285252D01*
X478712Y285535D01*
X478042Y285922D01*
X478007D01*
X477971Y285993D01*
X477760Y286134D01*
X477443Y286416D01*
X477055Y286768D01*
X476596Y287227D01*
X476138Y287791D01*
X475680Y288426D01*
X475292Y289166D01*
Y289201D01*
X475257Y289272D01*
X475221Y289377D01*
X475151Y289518D01*
X475080Y289730D01*
X474975Y289977D01*
X474904Y290224D01*
X474834Y290541D01*
X474657Y291246D01*
X474481Y292057D01*
X474375Y292973D01*
X474340Y293961D01*
Y293996D01*
Y294066D01*
Y294207D01*
Y294419D01*
X474375Y294630D01*
Y294912D01*
X474446Y295547D01*
X474552Y296287D01*
X474728Y297098D01*
X474939Y297944D01*
X475221Y298755D01*
Y298790D01*
X475257Y298861D01*
X475327Y298967D01*
X475398Y299108D01*
X475609Y299496D01*
X475891Y299989D01*
X476244Y300518D01*
X476702Y301047D01*
X477231Y301611D01*
X477866Y302069D01*
X477901D01*
X477936Y302104D01*
X478042Y302175D01*
X478183Y302246D01*
X478535Y302422D01*
X479029Y302669D01*
X479593Y302880D01*
X480263Y303056D01*
X481003Y303197D01*
X481779Y303233D01*
X482061D01*
X482343Y303197D01*
X482731Y303162D01*
X483189Y303056D01*
X483683Y302951D01*
X484176Y302774D01*
X484635Y302528D01*
X484705Y302492D01*
X484846Y302422D01*
X485058Y302246D01*
X485340Y302069D01*
X485692Y301822D01*
X486010Y301505D01*
X486362Y301188D01*
X486679Y300800D01*
Y309543D01*
X489676D01*
Y285147D01*
D02*
G37*
G36*
X432069Y309931D02*
X432386Y309896D01*
X432774Y309861D01*
X433162Y309825D01*
X433620Y309720D01*
X434572Y309508D01*
X435630Y309191D01*
X436159Y308979D01*
X436652Y308732D01*
X437146Y308415D01*
X437640Y308098D01*
X437675Y308063D01*
X437745Y308027D01*
X437886Y307922D01*
X438063Y307745D01*
X438239Y307569D01*
X438486Y307322D01*
X438732Y307040D01*
X439014Y306758D01*
X439296Y306406D01*
X439579Y305983D01*
X439896Y305560D01*
X440178Y305101D01*
X440425Y304572D01*
X440707Y304044D01*
X440918Y303479D01*
X441130Y302845D01*
X437957Y302104D01*
Y302140D01*
X437921Y302210D01*
X437851Y302351D01*
X437780Y302528D01*
X437710Y302739D01*
X437604Y303021D01*
X437322Y303585D01*
X436970Y304220D01*
X436547Y304854D01*
X436018Y305454D01*
X435454Y305983D01*
X435383Y306053D01*
X435172Y306194D01*
X434819Y306370D01*
X434361Y306617D01*
X433761Y306829D01*
X433092Y307040D01*
X432281Y307181D01*
X431399Y307216D01*
X431117D01*
X430941Y307181D01*
X430694D01*
X430412Y307146D01*
X429742Y307040D01*
X429002Y306899D01*
X428226Y306652D01*
X427416Y306300D01*
X426675Y305842D01*
X426640D01*
X426605Y305771D01*
X426358Y305595D01*
X426040Y305313D01*
X425653Y304890D01*
X425194Y304361D01*
X424771Y303762D01*
X424384Y303021D01*
X424031Y302210D01*
Y302175D01*
X423996Y302104D01*
X423960Y301999D01*
X423925Y301822D01*
X423855Y301611D01*
X423784Y301364D01*
X423678Y300765D01*
X423537Y300060D01*
X423396Y299284D01*
X423326Y298438D01*
X423291Y297521D01*
Y297486D01*
Y297380D01*
Y297204D01*
Y296992D01*
X423326Y296746D01*
Y296428D01*
X423361Y296076D01*
X423396Y295688D01*
X423502Y294842D01*
X423678Y293925D01*
X423890Y293009D01*
X424172Y292092D01*
Y292057D01*
X424207Y291986D01*
X424278Y291880D01*
X424348Y291704D01*
X424560Y291281D01*
X424877Y290788D01*
X425265Y290224D01*
X425759Y289624D01*
X426323Y289095D01*
X426992Y288602D01*
X427028D01*
X427098Y288566D01*
X427204Y288496D01*
X427345Y288426D01*
X427521Y288355D01*
X427733Y288249D01*
X428226Y288038D01*
X428861Y287826D01*
X429566Y287650D01*
X430342Y287509D01*
X431152Y287474D01*
X431399D01*
X431611Y287509D01*
X431858D01*
X432104Y287544D01*
X432739Y287685D01*
X433479Y287861D01*
X434220Y288143D01*
X434995Y288531D01*
X435383Y288743D01*
X435736Y289025D01*
X435771Y289060D01*
X435806Y289095D01*
X435912Y289201D01*
X436053Y289307D01*
X436194Y289483D01*
X436370Y289695D01*
X436582Y289906D01*
X436758Y290188D01*
X436970Y290506D01*
X437216Y290858D01*
X437428Y291211D01*
X437640Y291634D01*
X437816Y292092D01*
X437992Y292586D01*
X438168Y293114D01*
X438309Y293678D01*
X441553Y292868D01*
Y292832D01*
X441517Y292691D01*
X441447Y292480D01*
X441341Y292198D01*
X441236Y291880D01*
X441095Y291493D01*
X440918Y291070D01*
X440707Y290611D01*
X440213Y289624D01*
X439579Y288637D01*
X439191Y288143D01*
X438803Y287650D01*
X438380Y287227D01*
X437886Y286804D01*
X437851Y286768D01*
X437780Y286698D01*
X437604Y286628D01*
X437428Y286486D01*
X437146Y286310D01*
X436864Y286134D01*
X436476Y285958D01*
X436088Y285781D01*
X435630Y285570D01*
X435136Y285394D01*
X434608Y285217D01*
X434043Y285041D01*
X433444Y284900D01*
X432809Y284830D01*
X432140Y284759D01*
X431435Y284724D01*
X431047D01*
X430765Y284759D01*
X430447D01*
X430060Y284794D01*
X429636Y284865D01*
X429143Y284935D01*
X428121Y285112D01*
X427063Y285394D01*
X426005Y285781D01*
X425512Y286028D01*
X425018Y286310D01*
X424983Y286345D01*
X424912Y286381D01*
X424771Y286486D01*
X424630Y286628D01*
X424419Y286768D01*
X424172Y286980D01*
X423890Y287227D01*
X423608Y287509D01*
X423326Y287826D01*
X423009Y288143D01*
X422374Y288954D01*
X421775Y289906D01*
X421246Y290964D01*
Y290999D01*
X421175Y291105D01*
X421140Y291281D01*
X421034Y291493D01*
X420964Y291775D01*
X420858Y292127D01*
X420717Y292515D01*
X420611Y292938D01*
X420505Y293396D01*
X420364Y293925D01*
X420188Y295018D01*
X420047Y296252D01*
X419977Y297521D01*
Y297557D01*
Y297698D01*
Y297909D01*
X420012Y298156D01*
Y298508D01*
X420047Y298861D01*
X420082Y299319D01*
X420153Y299778D01*
X420329Y300800D01*
X420576Y301928D01*
X420928Y303056D01*
X421422Y304149D01*
X421457Y304185D01*
X421493Y304290D01*
X421563Y304431D01*
X421704Y304608D01*
X421845Y304854D01*
X422021Y305136D01*
X422480Y305771D01*
X423079Y306476D01*
X423784Y307181D01*
X424595Y307886D01*
X425547Y308486D01*
X425582Y308521D01*
X425688Y308556D01*
X425829Y308627D01*
X426005Y308732D01*
X426287Y308838D01*
X426569Y308944D01*
X426922Y309085D01*
X427310Y309226D01*
X427733Y309367D01*
X428191Y309508D01*
X429178Y309720D01*
X430306Y309896D01*
X431470Y309966D01*
X431822D01*
X432069Y309931D01*
D02*
G37*
G36*
X269648Y285147D02*
X266546D01*
Y305560D01*
X259424Y285147D01*
X256534D01*
X249482Y305912D01*
Y285147D01*
X246380D01*
Y309543D01*
X251210D01*
X256992Y292233D01*
Y292198D01*
X257027Y292127D01*
X257062Y292022D01*
X257133Y291845D01*
X257274Y291422D01*
X257450Y290893D01*
X257626Y290294D01*
X257838Y289695D01*
X258014Y289131D01*
X258155Y288637D01*
X258190Y288708D01*
X258226Y288884D01*
X258332Y289201D01*
X258472Y289624D01*
X258649Y290188D01*
X258896Y290858D01*
X259142Y291634D01*
X259460Y292550D01*
X265312Y309543D01*
X269648D01*
Y285147D01*
D02*
G37*
G36*
X471167Y303197D02*
X471555Y303127D01*
X472013Y302986D01*
X472507Y302810D01*
X473071Y302563D01*
X473670Y302246D01*
X472577Y299496D01*
X472542Y299531D01*
X472401Y299601D01*
X472190Y299707D01*
X471908Y299813D01*
X471590Y299919D01*
X471202Y300024D01*
X470815Y300095D01*
X470427Y300130D01*
X470251D01*
X470074Y300095D01*
X469827Y300060D01*
X469581Y299989D01*
X469263Y299883D01*
X468946Y299742D01*
X468664Y299531D01*
X468629Y299496D01*
X468523Y299425D01*
X468417Y299284D01*
X468241Y299108D01*
X468065Y298861D01*
X467888Y298579D01*
X467712Y298262D01*
X467571Y297874D01*
X467536Y297803D01*
X467501Y297592D01*
X467430Y297274D01*
X467324Y296852D01*
X467219Y296323D01*
X467148Y295723D01*
X467113Y295089D01*
X467078Y294384D01*
Y285147D01*
X464081D01*
Y302845D01*
X466796D01*
Y300166D01*
X466831Y300201D01*
X466972Y300448D01*
X467148Y300765D01*
X467430Y301153D01*
X467712Y301540D01*
X468029Y301964D01*
X468347Y302316D01*
X468664Y302598D01*
X468699Y302633D01*
X468805Y302704D01*
X469017Y302810D01*
X469228Y302915D01*
X469510Y303021D01*
X469863Y303127D01*
X470215Y303197D01*
X470603Y303233D01*
X470850D01*
X471167Y303197D01*
D02*
G37*
G36*
X355424D02*
X355812Y303162D01*
X356270Y303092D01*
X356764Y302986D01*
X357293Y302845D01*
X357786Y302633D01*
X357857Y302598D01*
X357998Y302528D01*
X358245Y302422D01*
X358527Y302246D01*
X358879Y302034D01*
X359197Y301752D01*
X359514Y301470D01*
X359796Y301117D01*
X359831Y301082D01*
X359902Y300941D01*
X360008Y300765D01*
X360184Y300518D01*
X360325Y300166D01*
X360466Y299813D01*
X360642Y299390D01*
X360748Y298932D01*
Y298896D01*
X360783Y298755D01*
X360818Y298544D01*
X360854Y298262D01*
Y297839D01*
X360889Y297345D01*
X360924Y296746D01*
Y296005D01*
Y285147D01*
X357928D01*
Y295864D01*
Y295900D01*
Y295935D01*
Y296182D01*
Y296499D01*
X357892Y296887D01*
X357857Y297345D01*
X357786Y297803D01*
X357681Y298226D01*
X357575Y298614D01*
Y298650D01*
X357504Y298755D01*
X357399Y298932D01*
X357293Y299143D01*
X357117Y299355D01*
X356905Y299601D01*
X356623Y299848D01*
X356306Y300060D01*
X356270Y300095D01*
X356165Y300166D01*
X355953Y300236D01*
X355706Y300342D01*
X355424Y300448D01*
X355072Y300553D01*
X354649Y300588D01*
X354226Y300624D01*
X354049D01*
X353908Y300588D01*
X353556Y300553D01*
X353097Y300483D01*
X352604Y300306D01*
X352040Y300095D01*
X351476Y299813D01*
X350947Y299390D01*
X350876Y299319D01*
X350735Y299143D01*
X350630Y299002D01*
X350524Y298826D01*
X350383Y298614D01*
X350277Y298368D01*
X350136Y298085D01*
X349995Y297733D01*
X349889Y297345D01*
X349784Y296922D01*
X349713Y296464D01*
X349642Y295970D01*
X349572Y295371D01*
Y294771D01*
Y285147D01*
X346575D01*
Y302845D01*
X349255D01*
Y300306D01*
X349290Y300342D01*
X349360Y300448D01*
X349466Y300588D01*
X349607Y300765D01*
X349819Y300976D01*
X350065Y301223D01*
X350348Y301505D01*
X350700Y301787D01*
X351053Y302034D01*
X351476Y302316D01*
X351934Y302563D01*
X352428Y302774D01*
X352992Y302951D01*
X353556Y303092D01*
X354190Y303197D01*
X354860Y303233D01*
X355142D01*
X355424Y303197D01*
D02*
G37*
G36*
X222987Y251525D02*
X223001Y251539D01*
X223029Y251567D01*
X223072Y251610D01*
X223142Y251680D01*
X223213Y251751D01*
X223311Y251835D01*
X223438Y251920D01*
X223565Y252019D01*
X223706Y252103D01*
X223861Y252188D01*
X224228Y252343D01*
X224425Y252413D01*
X224636Y252456D01*
X224862Y252484D01*
X225088Y252498D01*
X225214D01*
X225369Y252484D01*
X225553Y252456D01*
X225764Y252427D01*
X225990Y252371D01*
X226215Y252286D01*
X226441Y252188D01*
X226469Y252174D01*
X226539Y252131D01*
X226638Y252061D01*
X226765Y251962D01*
X226892Y251835D01*
X227033Y251694D01*
X227160Y251525D01*
X227272Y251328D01*
X227287Y251299D01*
X227315Y251229D01*
X227357Y251102D01*
X227399Y250919D01*
X227442Y250693D01*
X227484Y250425D01*
X227512Y250101D01*
X227526Y249735D01*
Y245266D01*
X226328D01*
Y249749D01*
Y249763D01*
Y249791D01*
Y249833D01*
Y249890D01*
X226314Y250045D01*
X226286Y250242D01*
X226229Y250454D01*
X226159Y250665D01*
X226060Y250877D01*
X225933Y251046D01*
X225919Y251060D01*
X225863Y251116D01*
X225778Y251187D01*
X225651Y251257D01*
X225496Y251342D01*
X225313Y251398D01*
X225088Y251455D01*
X224834Y251469D01*
X224749D01*
X224650Y251455D01*
X224510Y251441D01*
X224368Y251398D01*
X224199Y251356D01*
X224030Y251285D01*
X223847Y251187D01*
X223833Y251173D01*
X223776Y251130D01*
X223692Y251074D01*
X223593Y250989D01*
X223480Y250877D01*
X223368Y250750D01*
X223269Y250595D01*
X223184Y250425D01*
X223170Y250397D01*
X223156Y250341D01*
X223128Y250228D01*
X223086Y250087D01*
X223043Y249904D01*
X223015Y249678D01*
X223001Y249425D01*
X222987Y249129D01*
Y245266D01*
X221789D01*
Y255021D01*
X222987D01*
Y251525D01*
D02*
G37*
G36*
X241369Y245266D02*
X239903D01*
X238762Y248226D01*
X234673D01*
X233616Y245266D01*
X232249D01*
X235970Y255021D01*
X237380D01*
X241369Y245266D01*
D02*
G37*
G36*
X219392Y252343D02*
X220605D01*
Y251412D01*
X219392D01*
Y247254D01*
Y247225D01*
Y247169D01*
Y247085D01*
X219406Y246986D01*
X219421Y246760D01*
X219435Y246662D01*
X219449Y246591D01*
X219463Y246563D01*
X219505Y246507D01*
X219561Y246436D01*
X219660Y246366D01*
X219688Y246352D01*
X219759Y246323D01*
X219886Y246295D01*
X220069Y246281D01*
X220210D01*
X220280Y246295D01*
X220379D01*
X220492Y246309D01*
X220605Y246323D01*
X220760Y245266D01*
X220732D01*
X220675Y245252D01*
X220576Y245238D01*
X220450Y245224D01*
X220309Y245196D01*
X220154Y245181D01*
X219843Y245167D01*
X219731D01*
X219618Y245181D01*
X219477Y245196D01*
X219308Y245210D01*
X219139Y245252D01*
X218983Y245294D01*
X218828Y245365D01*
X218814Y245379D01*
X218772Y245407D01*
X218716Y245449D01*
X218631Y245520D01*
X218561Y245590D01*
X218476Y245689D01*
X218391Y245788D01*
X218335Y245914D01*
Y245929D01*
X218307Y245985D01*
X218293Y246084D01*
X218265Y246225D01*
X218236Y246408D01*
X218222Y246521D01*
Y246647D01*
X218208Y246803D01*
X218194Y246958D01*
Y247127D01*
Y247324D01*
Y251412D01*
X217306D01*
Y252343D01*
X218194D01*
Y254091D01*
X219392Y254810D01*
Y252343D01*
D02*
G37*
G36*
X189056Y245266D02*
X187589D01*
X186448Y248226D01*
X182360D01*
X181302Y245266D01*
X179935D01*
X183656Y255021D01*
X185066D01*
X189056Y245266D01*
D02*
G37*
G36*
X251787D02*
X250589D01*
Y252343D01*
X251787D01*
Y245266D01*
D02*
G37*
G36*
X175649Y251060D02*
X179921Y245266D01*
X178215D01*
X174747Y250186D01*
X173154Y248649D01*
Y245266D01*
X171857D01*
Y255021D01*
X173154D01*
Y250172D01*
X177975Y255021D01*
X179737D01*
X175649Y251060D01*
D02*
G37*
G36*
X256679Y252484D02*
X256763D01*
X256876Y252470D01*
X257144Y252427D01*
X257440Y252357D01*
X257750Y252244D01*
X258060Y252103D01*
X258356Y251906D01*
X258370D01*
X258385Y251877D01*
X258469Y251793D01*
X258596Y251666D01*
X258751Y251483D01*
X258906Y251257D01*
X259061Y250975D01*
X259202Y250651D01*
X259301Y250270D01*
X258131Y250087D01*
Y250101D01*
X258117Y250115D01*
X258103Y250200D01*
X258060Y250327D01*
X257990Y250482D01*
X257919Y250651D01*
X257807Y250834D01*
X257680Y251003D01*
X257539Y251145D01*
X257525Y251159D01*
X257468Y251201D01*
X257370Y251257D01*
X257257Y251328D01*
X257102Y251398D01*
X256933Y251455D01*
X256735Y251497D01*
X256524Y251511D01*
X256439D01*
X256369Y251497D01*
X256214Y251483D01*
X256002Y251426D01*
X255777Y251356D01*
X255523Y251243D01*
X255283Y251074D01*
X255170Y250975D01*
X255058Y250863D01*
Y250848D01*
X255030Y250834D01*
X255001Y250792D01*
X254973Y250736D01*
X254931Y250665D01*
X254874Y250581D01*
X254832Y250482D01*
X254776Y250369D01*
X254719Y250228D01*
X254677Y250073D01*
X254621Y249904D01*
X254578Y249721D01*
X254550Y249523D01*
X254522Y249298D01*
X254494Y249058D01*
Y248804D01*
Y248790D01*
Y248748D01*
Y248663D01*
X254508Y248579D01*
Y248452D01*
X254522Y248325D01*
X254564Y248015D01*
X254621Y247677D01*
X254719Y247324D01*
X254846Y247014D01*
X254931Y246859D01*
X255030Y246732D01*
X255058Y246704D01*
X255128Y246633D01*
X255255Y246535D01*
X255410Y246422D01*
X255622Y246295D01*
X255861Y246196D01*
X256143Y246126D01*
X256298Y246112D01*
X256453Y246098D01*
X256481D01*
X256566Y246112D01*
X256707Y246126D01*
X256862Y246154D01*
X257045Y246196D01*
X257243Y246281D01*
X257440Y246380D01*
X257623Y246521D01*
X257652Y246535D01*
X257694Y246605D01*
X257778Y246704D01*
X257877Y246859D01*
X257976Y247042D01*
X258088Y247268D01*
X258173Y247550D01*
X258230Y247860D01*
X259414Y247705D01*
Y247691D01*
X259400Y247648D01*
X259386Y247592D01*
X259371Y247507D01*
X259343Y247395D01*
X259315Y247282D01*
X259216Y247000D01*
X259089Y246704D01*
X258906Y246380D01*
X258681Y246070D01*
X258554Y245929D01*
X258413Y245788D01*
X258399Y245774D01*
X258370Y245759D01*
X258328Y245731D01*
X258272Y245689D01*
X258201Y245632D01*
X258103Y245576D01*
X257990Y245520D01*
X257877Y245449D01*
X257595Y245322D01*
X257257Y245224D01*
X256890Y245139D01*
X256679Y245125D01*
X256467Y245111D01*
X256326D01*
X256228Y245125D01*
X256101Y245139D01*
X255960Y245167D01*
X255805Y245196D01*
X255636Y245224D01*
X255255Y245336D01*
X255072Y245421D01*
X254874Y245506D01*
X254677Y245618D01*
X254494Y245745D01*
X254310Y245886D01*
X254141Y246055D01*
X254127Y246070D01*
X254099Y246098D01*
X254057Y246154D01*
X254000Y246225D01*
X253944Y246323D01*
X253859Y246450D01*
X253789Y246591D01*
X253704Y246746D01*
X253620Y246929D01*
X253549Y247141D01*
X253465Y247352D01*
X253408Y247606D01*
X253352Y247860D01*
X253310Y248156D01*
X253281Y248452D01*
X253267Y248776D01*
Y248790D01*
Y248832D01*
Y248889D01*
Y248974D01*
X253281Y249072D01*
Y249185D01*
X253296Y249312D01*
X253310Y249453D01*
X253352Y249763D01*
X253422Y250101D01*
X253507Y250440D01*
X253634Y250778D01*
Y250792D01*
X253648Y250820D01*
X253676Y250863D01*
X253704Y250919D01*
X253789Y251074D01*
X253916Y251257D01*
X254085Y251469D01*
X254282Y251680D01*
X254522Y251892D01*
X254790Y252061D01*
X254804D01*
X254832Y252075D01*
X254874Y252103D01*
X254931Y252131D01*
X255001Y252159D01*
X255086Y252202D01*
X255297Y252286D01*
X255537Y252357D01*
X255833Y252427D01*
X256143Y252484D01*
X256481Y252498D01*
X256594D01*
X256679Y252484D01*
D02*
G37*
G36*
X263741D02*
X263953Y252470D01*
X264193Y252441D01*
X264432Y252399D01*
X264672Y252343D01*
X264897Y252272D01*
X264926Y252258D01*
X264996Y252230D01*
X265095Y252188D01*
X265222Y252131D01*
X265363Y252047D01*
X265504Y251962D01*
X265630Y251849D01*
X265743Y251737D01*
X265757Y251722D01*
X265786Y251680D01*
X265828Y251610D01*
X265884Y251525D01*
X265955Y251398D01*
X266011Y251271D01*
X266067Y251116D01*
X266110Y250933D01*
Y250919D01*
X266124Y250877D01*
X266138Y250792D01*
X266152Y250679D01*
Y250524D01*
X266166Y250341D01*
X266180Y250101D01*
Y249833D01*
Y248226D01*
Y248212D01*
Y248156D01*
Y248071D01*
Y247959D01*
Y247832D01*
Y247677D01*
X266194Y247338D01*
Y246986D01*
X266208Y246633D01*
X266222Y246478D01*
Y246337D01*
X266237Y246210D01*
X266251Y246112D01*
Y246098D01*
X266265Y246041D01*
X266279Y245957D01*
X266321Y245844D01*
X266349Y245717D01*
X266406Y245576D01*
X266476Y245421D01*
X266547Y245266D01*
X265292D01*
X265278Y245280D01*
X265264Y245336D01*
X265236Y245407D01*
X265193Y245520D01*
X265151Y245647D01*
X265123Y245802D01*
X265095Y245971D01*
X265067Y246154D01*
X265053D01*
X265038Y246126D01*
X264954Y246055D01*
X264827Y245957D01*
X264658Y245830D01*
X264446Y245703D01*
X264235Y245562D01*
X264009Y245435D01*
X263770Y245336D01*
X263741Y245322D01*
X263657Y245308D01*
X263530Y245266D01*
X263375Y245224D01*
X263178Y245181D01*
X262952Y245153D01*
X262698Y245125D01*
X262444Y245111D01*
X262332D01*
X262247Y245125D01*
X262148D01*
X262036Y245139D01*
X261782Y245181D01*
X261500Y245252D01*
X261190Y245351D01*
X260908Y245492D01*
X260654Y245675D01*
X260626Y245703D01*
X260555Y245774D01*
X260457Y245900D01*
X260344Y246070D01*
X260231Y246281D01*
X260133Y246521D01*
X260062Y246817D01*
X260048Y246958D01*
X260034Y247127D01*
Y247155D01*
Y247211D01*
X260048Y247310D01*
X260062Y247437D01*
X260090Y247592D01*
X260133Y247747D01*
X260189Y247916D01*
X260259Y248071D01*
X260274Y248085D01*
X260302Y248142D01*
X260358Y248226D01*
X260429Y248325D01*
X260513Y248438D01*
X260626Y248551D01*
X260739Y248663D01*
X260880Y248762D01*
X260894Y248776D01*
X260950Y248804D01*
X261021Y248861D01*
X261133Y248917D01*
X261260Y248974D01*
X261415Y249044D01*
X261570Y249100D01*
X261754Y249157D01*
X261768D01*
X261824Y249171D01*
X261909Y249199D01*
X262022Y249213D01*
X262163Y249241D01*
X262346Y249270D01*
X262557Y249312D01*
X262811Y249340D01*
X262825D01*
X262882Y249354D01*
X262952D01*
X263051Y249368D01*
X263164Y249382D01*
X263304Y249410D01*
X263459Y249425D01*
X263629Y249453D01*
X263967Y249523D01*
X264333Y249594D01*
X264658Y249678D01*
X264813Y249721D01*
X264954Y249763D01*
Y249777D01*
Y249805D01*
X264968Y249890D01*
Y249988D01*
Y250045D01*
Y250073D01*
Y250087D01*
Y250101D01*
Y250186D01*
X264954Y250327D01*
X264926Y250482D01*
X264883Y250651D01*
X264813Y250820D01*
X264728Y250975D01*
X264615Y251102D01*
X264601Y251116D01*
X264531Y251173D01*
X264418Y251229D01*
X264277Y251314D01*
X264080Y251384D01*
X263854Y251455D01*
X263572Y251497D01*
X263248Y251511D01*
X263107D01*
X262966Y251497D01*
X262769Y251469D01*
X262571Y251441D01*
X262360Y251384D01*
X262163Y251314D01*
X261993Y251215D01*
X261979Y251201D01*
X261923Y251159D01*
X261852Y251088D01*
X261768Y250975D01*
X261683Y250834D01*
X261585Y250651D01*
X261500Y250425D01*
X261415Y250172D01*
X260245Y250327D01*
Y250341D01*
X260259Y250355D01*
Y250397D01*
X260274Y250454D01*
X260316Y250581D01*
X260372Y250764D01*
X260443Y250947D01*
X260527Y251145D01*
X260640Y251342D01*
X260767Y251525D01*
X260781Y251539D01*
X260837Y251596D01*
X260922Y251680D01*
X261035Y251793D01*
X261190Y251906D01*
X261373Y252019D01*
X261585Y252145D01*
X261824Y252244D01*
X261838D01*
X261852Y252258D01*
X261895Y252272D01*
X261951Y252286D01*
X262092Y252329D01*
X262289Y252371D01*
X262515Y252413D01*
X262797Y252456D01*
X263093Y252484D01*
X263431Y252498D01*
X263586D01*
X263741Y252484D01*
D02*
G37*
G36*
X216122Y245266D02*
X215050D01*
Y246295D01*
X215036Y246281D01*
X215008Y246239D01*
X214966Y246182D01*
X214895Y246112D01*
X214811Y246027D01*
X214712Y245914D01*
X214599Y245816D01*
X214458Y245703D01*
X214303Y245590D01*
X214134Y245492D01*
X213951Y245393D01*
X213754Y245294D01*
X213528Y245224D01*
X213302Y245167D01*
X213049Y245125D01*
X212795Y245111D01*
X212696D01*
X212569Y245125D01*
X212414Y245139D01*
X212231Y245167D01*
X212034Y245210D01*
X211836Y245266D01*
X211625Y245351D01*
X211597Y245365D01*
X211540Y245393D01*
X211442Y245449D01*
X211329Y245520D01*
X211188Y245604D01*
X211061Y245703D01*
X210934Y245816D01*
X210821Y245943D01*
X210807Y245957D01*
X210779Y246013D01*
X210737Y246084D01*
X210680Y246196D01*
X210610Y246323D01*
X210553Y246478D01*
X210497Y246647D01*
X210455Y246831D01*
Y246845D01*
X210441Y246901D01*
X210427Y246986D01*
Y247099D01*
X210413Y247268D01*
X210398Y247451D01*
X210384Y247691D01*
Y247959D01*
Y252343D01*
X211583D01*
Y248410D01*
Y248396D01*
Y248367D01*
Y248325D01*
Y248255D01*
Y248099D01*
X211597Y247902D01*
Y247691D01*
X211611Y247479D01*
X211625Y247296D01*
X211653Y247141D01*
Y247127D01*
X211681Y247070D01*
X211709Y246986D01*
X211752Y246873D01*
X211822Y246760D01*
X211907Y246633D01*
X212005Y246521D01*
X212132Y246408D01*
X212146Y246394D01*
X212203Y246366D01*
X212273Y246323D01*
X212386Y246281D01*
X212513Y246225D01*
X212668Y246182D01*
X212837Y246154D01*
X213034Y246140D01*
X213133D01*
X213232Y246154D01*
X213359Y246168D01*
X213514Y246210D01*
X213683Y246253D01*
X213866Y246323D01*
X214049Y246408D01*
X214078Y246422D01*
X214134Y246464D01*
X214219Y246521D01*
X214317Y246605D01*
X214430Y246718D01*
X214543Y246845D01*
X214642Y246986D01*
X214726Y247155D01*
X214740Y247183D01*
X214754Y247240D01*
X214783Y247352D01*
X214825Y247507D01*
X214867Y247705D01*
X214895Y247944D01*
X214909Y248226D01*
X214923Y248551D01*
Y252343D01*
X216122D01*
Y245266D01*
D02*
G37*
G36*
X244823Y255176D02*
X244992Y255162D01*
X245190Y255134D01*
X245387Y255106D01*
X245613Y255063D01*
X245429Y254020D01*
X245415D01*
X245373Y254034D01*
X245303Y254048D01*
X245204Y254062D01*
X245091D01*
X244978Y254077D01*
X244725Y254091D01*
X244640D01*
X244541Y254077D01*
X244429Y254062D01*
X244302Y254034D01*
X244175Y253992D01*
X244062Y253936D01*
X243963Y253851D01*
X243949Y253837D01*
X243935Y253809D01*
X243893Y253752D01*
X243851Y253654D01*
X243808Y253541D01*
X243780Y253400D01*
X243752Y253217D01*
X243738Y252991D01*
Y252343D01*
X245105D01*
Y251412D01*
X243738D01*
Y245266D01*
X242540D01*
Y251412D01*
X241482D01*
Y252343D01*
X242540D01*
Y253090D01*
Y253104D01*
Y253118D01*
Y253203D01*
X242554Y253330D01*
Y253485D01*
X242568Y253654D01*
X242596Y253837D01*
X242624Y254006D01*
X242666Y254147D01*
X242680Y254161D01*
X242695Y254232D01*
X242737Y254316D01*
X242807Y254415D01*
X242892Y254528D01*
X242991Y254655D01*
X243118Y254781D01*
X243273Y254894D01*
X243287Y254908D01*
X243357Y254937D01*
X243456Y254993D01*
X243597Y255049D01*
X243766Y255092D01*
X243977Y255148D01*
X244217Y255176D01*
X244499Y255190D01*
X244696D01*
X244823Y255176D01*
D02*
G37*
G36*
X251787Y253654D02*
X250589D01*
Y255021D01*
X251787D01*
Y253654D01*
D02*
G37*
G36*
X521161Y455000D02*
X520000D01*
Y456161D01*
X521161Y455000D01*
D02*
G37*
G36*
X231161D02*
X230000D01*
Y456161D01*
X231161Y455000D01*
D02*
G37*
G36*
X197528Y255176D02*
X197626D01*
X197894Y255148D01*
X198190Y255106D01*
X198500Y255035D01*
X198839Y254951D01*
X199149Y254838D01*
X199163D01*
X199191Y254824D01*
X199234Y254796D01*
X199290Y254767D01*
X199431Y254697D01*
X199614Y254570D01*
X199826Y254429D01*
X200037Y254246D01*
X200234Y254034D01*
X200418Y253795D01*
Y253781D01*
X200432Y253766D01*
X200460Y253724D01*
X200488Y253682D01*
X200559Y253541D01*
X200643Y253358D01*
X200742Y253132D01*
X200812Y252864D01*
X200883Y252582D01*
X200911Y252272D01*
X199671Y252174D01*
Y252188D01*
Y252216D01*
X199657Y252258D01*
X199642Y252329D01*
X199600Y252484D01*
X199544Y252695D01*
X199459Y252921D01*
X199332Y253146D01*
X199177Y253358D01*
X198980Y253555D01*
X198952Y253569D01*
X198881Y253626D01*
X198740Y253710D01*
X198557Y253795D01*
X198317Y253879D01*
X198035Y253964D01*
X197683Y254020D01*
X197288Y254034D01*
X197091D01*
X197006Y254020D01*
X196894Y254006D01*
X196640Y253978D01*
X196358Y253922D01*
X196076Y253851D01*
X195808Y253738D01*
X195695Y253668D01*
X195582Y253597D01*
X195554Y253583D01*
X195498Y253527D01*
X195413Y253428D01*
X195329Y253315D01*
X195230Y253160D01*
X195145Y252991D01*
X195089Y252794D01*
X195061Y252568D01*
Y252540D01*
Y252484D01*
X195075Y252385D01*
X195103Y252272D01*
X195145Y252131D01*
X195216Y251990D01*
X195301Y251849D01*
X195427Y251708D01*
X195441Y251694D01*
X195512Y251652D01*
X195568Y251610D01*
X195625Y251581D01*
X195709Y251539D01*
X195808Y251483D01*
X195935Y251441D01*
X196076Y251384D01*
X196231Y251328D01*
X196414Y251257D01*
X196611Y251201D01*
X196837Y251130D01*
X197091Y251074D01*
X197373Y251003D01*
X197387D01*
X197443Y250989D01*
X197528Y250975D01*
X197626Y250947D01*
X197753Y250919D01*
X197908Y250877D01*
X198064Y250834D01*
X198233Y250792D01*
X198599Y250693D01*
X198952Y250595D01*
X199121Y250538D01*
X199276Y250482D01*
X199417Y250440D01*
X199530Y250383D01*
X199544D01*
X199572Y250369D01*
X199614Y250341D01*
X199671Y250313D01*
X199826Y250228D01*
X200009Y250115D01*
X200220Y249960D01*
X200432Y249791D01*
X200629Y249594D01*
X200798Y249382D01*
X200812Y249354D01*
X200869Y249284D01*
X200925Y249157D01*
X201010Y248988D01*
X201080Y248790D01*
X201151Y248551D01*
X201193Y248283D01*
X201207Y248001D01*
Y247987D01*
Y247973D01*
Y247930D01*
Y247874D01*
X201179Y247719D01*
X201151Y247521D01*
X201094Y247296D01*
X201024Y247056D01*
X200911Y246803D01*
X200756Y246535D01*
Y246521D01*
X200742Y246507D01*
X200672Y246422D01*
X200573Y246295D01*
X200432Y246154D01*
X200249Y245985D01*
X200023Y245802D01*
X199769Y245632D01*
X199473Y245478D01*
X199459D01*
X199431Y245463D01*
X199389Y245449D01*
X199332Y245421D01*
X199248Y245393D01*
X199149Y245351D01*
X198923Y245294D01*
X198656Y245224D01*
X198331Y245153D01*
X197979Y245111D01*
X197598Y245097D01*
X197373D01*
X197260Y245111D01*
X197133D01*
X196992Y245125D01*
X196823Y245139D01*
X196471Y245196D01*
X196104Y245252D01*
X195737Y245351D01*
X195385Y245478D01*
X195371D01*
X195343Y245492D01*
X195301Y245520D01*
X195244Y245548D01*
X195075Y245632D01*
X194878Y245759D01*
X194652Y245929D01*
X194412Y246126D01*
X194187Y246366D01*
X193975Y246633D01*
Y246647D01*
X193947Y246676D01*
X193933Y246718D01*
X193891Y246774D01*
X193863Y246845D01*
X193820Y246929D01*
X193722Y247141D01*
X193623Y247409D01*
X193538Y247705D01*
X193482Y248043D01*
X193454Y248396D01*
X194666Y248508D01*
Y248494D01*
Y248480D01*
X194680Y248438D01*
Y248381D01*
X194708Y248255D01*
X194751Y248071D01*
X194807Y247888D01*
X194863Y247677D01*
X194962Y247479D01*
X195061Y247296D01*
X195075Y247282D01*
X195117Y247225D01*
X195188Y247127D01*
X195301Y247028D01*
X195441Y246901D01*
X195597Y246774D01*
X195808Y246647D01*
X196033Y246535D01*
X196048D01*
X196062Y246521D01*
X196104Y246507D01*
X196146Y246492D01*
X196287Y246450D01*
X196471Y246394D01*
X196696Y246337D01*
X196950Y246295D01*
X197232Y246267D01*
X197542Y246253D01*
X197669D01*
X197810Y246267D01*
X197979Y246281D01*
X198176Y246309D01*
X198402Y246337D01*
X198627Y246394D01*
X198839Y246464D01*
X198867Y246478D01*
X198937Y246507D01*
X199036Y246563D01*
X199163Y246619D01*
X199290Y246718D01*
X199431Y246817D01*
X199572Y246929D01*
X199685Y247070D01*
X199699Y247085D01*
X199727Y247141D01*
X199769Y247211D01*
X199826Y247324D01*
X199882Y247437D01*
X199924Y247578D01*
X199953Y247733D01*
X199967Y247902D01*
Y247916D01*
Y247987D01*
X199953Y248071D01*
X199938Y248184D01*
X199896Y248297D01*
X199854Y248438D01*
X199783Y248579D01*
X199685Y248706D01*
X199671Y248720D01*
X199628Y248762D01*
X199572Y248818D01*
X199473Y248903D01*
X199360Y248988D01*
X199205Y249086D01*
X199022Y249185D01*
X198811Y249270D01*
X198797Y249284D01*
X198726Y249298D01*
X198613Y249340D01*
X198543Y249354D01*
X198444Y249382D01*
X198346Y249425D01*
X198219Y249453D01*
X198078Y249495D01*
X197908Y249537D01*
X197739Y249580D01*
X197542Y249636D01*
X197316Y249692D01*
X197077Y249749D01*
X197063D01*
X197020Y249763D01*
X196950Y249777D01*
X196865Y249805D01*
X196752Y249833D01*
X196626Y249862D01*
X196344Y249946D01*
X196033Y250045D01*
X195709Y250144D01*
X195427Y250242D01*
X195301Y250299D01*
X195188Y250355D01*
X195174D01*
X195159Y250369D01*
X195075Y250425D01*
X194948Y250496D01*
X194807Y250609D01*
X194638Y250736D01*
X194469Y250891D01*
X194300Y251074D01*
X194159Y251271D01*
X194144Y251299D01*
X194102Y251370D01*
X194046Y251483D01*
X193990Y251624D01*
X193933Y251807D01*
X193877Y252019D01*
X193834Y252244D01*
X193820Y252484D01*
Y252498D01*
Y252512D01*
Y252554D01*
Y252610D01*
X193848Y252752D01*
X193877Y252935D01*
X193919Y253146D01*
X193990Y253386D01*
X194088Y253626D01*
X194229Y253865D01*
Y253879D01*
X194243Y253893D01*
X194314Y253978D01*
X194412Y254091D01*
X194539Y254232D01*
X194708Y254387D01*
X194920Y254556D01*
X195174Y254711D01*
X195456Y254852D01*
X195470D01*
X195498Y254866D01*
X195540Y254880D01*
X195597Y254908D01*
X195667Y254937D01*
X195766Y254965D01*
X195977Y255021D01*
X196245Y255077D01*
X196555Y255134D01*
X196879Y255176D01*
X197246Y255190D01*
X197429D01*
X197528Y255176D01*
D02*
G37*
G36*
X248869Y252484D02*
X249024Y252456D01*
X249207Y252399D01*
X249405Y252329D01*
X249630Y252230D01*
X249870Y252103D01*
X249433Y251003D01*
X249419Y251018D01*
X249363Y251046D01*
X249278Y251088D01*
X249165Y251130D01*
X249038Y251173D01*
X248883Y251215D01*
X248728Y251243D01*
X248573Y251257D01*
X248503D01*
X248432Y251243D01*
X248333Y251229D01*
X248235Y251201D01*
X248108Y251159D01*
X247981Y251102D01*
X247868Y251018D01*
X247854Y251003D01*
X247812Y250975D01*
X247770Y250919D01*
X247699Y250848D01*
X247629Y250750D01*
X247558Y250637D01*
X247488Y250510D01*
X247431Y250355D01*
X247417Y250327D01*
X247403Y250242D01*
X247375Y250115D01*
X247332Y249946D01*
X247290Y249735D01*
X247262Y249495D01*
X247248Y249241D01*
X247234Y248959D01*
Y245266D01*
X246036D01*
Y252343D01*
X247121D01*
Y251271D01*
X247135Y251285D01*
X247192Y251384D01*
X247262Y251511D01*
X247375Y251666D01*
X247488Y251821D01*
X247614Y251990D01*
X247741Y252131D01*
X247868Y252244D01*
X247882Y252258D01*
X247925Y252286D01*
X248009Y252329D01*
X248094Y252371D01*
X248207Y252413D01*
X248347Y252456D01*
X248489Y252484D01*
X248643Y252498D01*
X248742D01*
X248869Y252484D01*
D02*
G37*
G36*
X205930D02*
X206056Y252470D01*
X206197Y252441D01*
X206353Y252413D01*
X206536Y252385D01*
X206916Y252258D01*
X207114Y252188D01*
X207311Y252089D01*
X207509Y251990D01*
X207706Y251849D01*
X207889Y251708D01*
X208072Y251539D01*
X208086Y251525D01*
X208115Y251497D01*
X208157Y251441D01*
X208213Y251370D01*
X208284Y251271D01*
X208368Y251145D01*
X208453Y251003D01*
X208538Y250848D01*
X208622Y250679D01*
X208707Y250468D01*
X208791Y250256D01*
X208862Y250017D01*
X208918Y249763D01*
X208960Y249495D01*
X208989Y249213D01*
X209003Y248903D01*
Y248889D01*
Y248847D01*
Y248776D01*
Y248678D01*
X208989Y248565D01*
X208975Y248424D01*
Y248283D01*
X208946Y248128D01*
X208904Y247775D01*
X208820Y247423D01*
X208721Y247070D01*
X208580Y246746D01*
Y246732D01*
X208566Y246718D01*
X208538Y246676D01*
X208509Y246619D01*
X208411Y246478D01*
X208284Y246309D01*
X208115Y246112D01*
X207903Y245914D01*
X207664Y245717D01*
X207382Y245534D01*
X207367D01*
X207353Y245520D01*
X207311Y245492D01*
X207241Y245463D01*
X207170Y245435D01*
X207086Y245407D01*
X206874Y245322D01*
X206635Y245252D01*
X206338Y245181D01*
X206028Y245125D01*
X205690Y245111D01*
X205549D01*
X205436Y245125D01*
X205309Y245139D01*
X205168Y245167D01*
X204999Y245196D01*
X204830Y245224D01*
X204450Y245336D01*
X204238Y245421D01*
X204041Y245506D01*
X203843Y245618D01*
X203646Y245745D01*
X203463Y245886D01*
X203279Y246055D01*
X203265Y246070D01*
X203237Y246098D01*
X203195Y246154D01*
X203138Y246239D01*
X203068Y246337D01*
X202997Y246450D01*
X202913Y246591D01*
X202828Y246760D01*
X202744Y246943D01*
X202659Y247155D01*
X202589Y247381D01*
X202518Y247620D01*
X202462Y247888D01*
X202419Y248170D01*
X202391Y248480D01*
X202377Y248804D01*
Y248832D01*
Y248889D01*
X202391Y248988D01*
Y249129D01*
X202405Y249284D01*
X202434Y249481D01*
X202462Y249678D01*
X202518Y249904D01*
X202575Y250130D01*
X202645Y250369D01*
X202730Y250623D01*
X202842Y250863D01*
X202955Y251088D01*
X203110Y251314D01*
X203265Y251525D01*
X203463Y251708D01*
X203477Y251722D01*
X203505Y251737D01*
X203561Y251779D01*
X203632Y251835D01*
X203716Y251892D01*
X203829Y251962D01*
X203942Y252033D01*
X204083Y252103D01*
X204238Y252174D01*
X204407Y252244D01*
X204788Y252371D01*
X205225Y252470D01*
X205450Y252484D01*
X205690Y252498D01*
X205831D01*
X205930Y252484D01*
D02*
G37*
G36*
X166458Y255176D02*
X166557D01*
X166825Y255148D01*
X167121Y255106D01*
X167431Y255035D01*
X167769Y254951D01*
X168079Y254838D01*
X168093D01*
X168121Y254824D01*
X168164Y254796D01*
X168220Y254767D01*
X168361Y254697D01*
X168544Y254570D01*
X168756Y254429D01*
X168967Y254246D01*
X169165Y254034D01*
X169348Y253795D01*
Y253781D01*
X169362Y253766D01*
X169390Y253724D01*
X169418Y253682D01*
X169489Y253541D01*
X169573Y253358D01*
X169672Y253132D01*
X169743Y252864D01*
X169813Y252582D01*
X169841Y252272D01*
X168601Y252174D01*
Y252188D01*
Y252216D01*
X168587Y252258D01*
X168573Y252329D01*
X168530Y252484D01*
X168474Y252695D01*
X168389Y252921D01*
X168263Y253146D01*
X168107Y253358D01*
X167910Y253555D01*
X167882Y253569D01*
X167811Y253626D01*
X167670Y253710D01*
X167487Y253795D01*
X167248Y253879D01*
X166966Y253964D01*
X166613Y254020D01*
X166218Y254034D01*
X166021D01*
X165936Y254020D01*
X165824Y254006D01*
X165570Y253978D01*
X165288Y253922D01*
X165006Y253851D01*
X164738Y253738D01*
X164625Y253668D01*
X164513Y253597D01*
X164485Y253583D01*
X164428Y253527D01*
X164343Y253428D01*
X164259Y253315D01*
X164160Y253160D01*
X164076Y252991D01*
X164019Y252794D01*
X163991Y252568D01*
Y252540D01*
Y252484D01*
X164005Y252385D01*
X164033Y252272D01*
X164076Y252131D01*
X164146Y251990D01*
X164231Y251849D01*
X164358Y251708D01*
X164372Y251694D01*
X164442Y251652D01*
X164499Y251610D01*
X164555Y251581D01*
X164639Y251539D01*
X164738Y251483D01*
X164865Y251441D01*
X165006Y251384D01*
X165161Y251328D01*
X165344Y251257D01*
X165542Y251201D01*
X165767Y251130D01*
X166021Y251074D01*
X166303Y251003D01*
X166317D01*
X166374Y250989D01*
X166458Y250975D01*
X166557Y250947D01*
X166684Y250919D01*
X166839Y250877D01*
X166994Y250834D01*
X167163Y250792D01*
X167529Y250693D01*
X167882Y250595D01*
X168051Y250538D01*
X168206Y250482D01*
X168347Y250440D01*
X168460Y250383D01*
X168474D01*
X168502Y250369D01*
X168544Y250341D01*
X168601Y250313D01*
X168756Y250228D01*
X168939Y250115D01*
X169151Y249960D01*
X169362Y249791D01*
X169559Y249594D01*
X169729Y249382D01*
X169743Y249354D01*
X169799Y249284D01*
X169855Y249157D01*
X169940Y248988D01*
X170011Y248790D01*
X170081Y248551D01*
X170123Y248283D01*
X170137Y248001D01*
Y247987D01*
Y247973D01*
Y247930D01*
Y247874D01*
X170109Y247719D01*
X170081Y247521D01*
X170025Y247296D01*
X169954Y247056D01*
X169841Y246803D01*
X169686Y246535D01*
Y246521D01*
X169672Y246507D01*
X169602Y246422D01*
X169503Y246295D01*
X169362Y246154D01*
X169179Y245985D01*
X168953Y245802D01*
X168699Y245632D01*
X168403Y245478D01*
X168389D01*
X168361Y245463D01*
X168319Y245449D01*
X168263Y245421D01*
X168178Y245393D01*
X168079Y245351D01*
X167854Y245294D01*
X167586Y245224D01*
X167262Y245153D01*
X166909Y245111D01*
X166528Y245097D01*
X166303D01*
X166190Y245111D01*
X166063D01*
X165922Y245125D01*
X165753Y245139D01*
X165401Y245196D01*
X165034Y245252D01*
X164668Y245351D01*
X164315Y245478D01*
X164301D01*
X164273Y245492D01*
X164231Y245520D01*
X164174Y245548D01*
X164005Y245632D01*
X163808Y245759D01*
X163582Y245929D01*
X163343Y246126D01*
X163117Y246366D01*
X162906Y246633D01*
Y246647D01*
X162877Y246676D01*
X162863Y246718D01*
X162821Y246774D01*
X162793Y246845D01*
X162750Y246929D01*
X162652Y247141D01*
X162553Y247409D01*
X162469Y247705D01*
X162412Y248043D01*
X162384Y248396D01*
X163596Y248508D01*
Y248494D01*
Y248480D01*
X163610Y248438D01*
Y248381D01*
X163639Y248255D01*
X163681Y248071D01*
X163737Y247888D01*
X163794Y247677D01*
X163892Y247479D01*
X163991Y247296D01*
X164005Y247282D01*
X164047Y247225D01*
X164118Y247127D01*
X164231Y247028D01*
X164372Y246901D01*
X164527Y246774D01*
X164738Y246647D01*
X164964Y246535D01*
X164978D01*
X164992Y246521D01*
X165034Y246507D01*
X165077Y246492D01*
X165217Y246450D01*
X165401Y246394D01*
X165626Y246337D01*
X165880Y246295D01*
X166162Y246267D01*
X166472Y246253D01*
X166599D01*
X166740Y246267D01*
X166909Y246281D01*
X167106Y246309D01*
X167332Y246337D01*
X167558Y246394D01*
X167769Y246464D01*
X167797Y246478D01*
X167868Y246507D01*
X167966Y246563D01*
X168093Y246619D01*
X168220Y246718D01*
X168361Y246817D01*
X168502Y246929D01*
X168615Y247070D01*
X168629Y247085D01*
X168657Y247141D01*
X168699Y247211D01*
X168756Y247324D01*
X168812Y247437D01*
X168855Y247578D01*
X168883Y247733D01*
X168897Y247902D01*
Y247916D01*
Y247987D01*
X168883Y248071D01*
X168869Y248184D01*
X168826Y248297D01*
X168784Y248438D01*
X168714Y248579D01*
X168615Y248706D01*
X168601Y248720D01*
X168559Y248762D01*
X168502Y248818D01*
X168403Y248903D01*
X168291Y248988D01*
X168136Y249086D01*
X167952Y249185D01*
X167741Y249270D01*
X167727Y249284D01*
X167656Y249298D01*
X167544Y249340D01*
X167473Y249354D01*
X167374Y249382D01*
X167276Y249425D01*
X167149Y249453D01*
X167008Y249495D01*
X166839Y249537D01*
X166670Y249580D01*
X166472Y249636D01*
X166247Y249692D01*
X166007Y249749D01*
X165993D01*
X165951Y249763D01*
X165880Y249777D01*
X165795Y249805D01*
X165683Y249833D01*
X165556Y249862D01*
X165274Y249946D01*
X164964Y250045D01*
X164639Y250144D01*
X164358Y250242D01*
X164231Y250299D01*
X164118Y250355D01*
X164104D01*
X164090Y250369D01*
X164005Y250425D01*
X163878Y250496D01*
X163737Y250609D01*
X163568Y250736D01*
X163399Y250891D01*
X163230Y251074D01*
X163089Y251271D01*
X163075Y251299D01*
X163032Y251370D01*
X162976Y251483D01*
X162920Y251624D01*
X162863Y251807D01*
X162807Y252019D01*
X162765Y252244D01*
X162750Y252484D01*
Y252498D01*
Y252512D01*
Y252554D01*
Y252610D01*
X162779Y252752D01*
X162807Y252935D01*
X162849Y253146D01*
X162920Y253386D01*
X163018Y253626D01*
X163159Y253865D01*
Y253879D01*
X163173Y253893D01*
X163244Y253978D01*
X163343Y254091D01*
X163470Y254232D01*
X163639Y254387D01*
X163850Y254556D01*
X164104Y254711D01*
X164386Y254852D01*
X164400D01*
X164428Y254866D01*
X164470Y254880D01*
X164527Y254908D01*
X164597Y254937D01*
X164696Y254965D01*
X164907Y255021D01*
X165175Y255077D01*
X165485Y255134D01*
X165810Y255176D01*
X166176Y255190D01*
X166359D01*
X166458Y255176D01*
D02*
G37*
%LPC*%
G36*
X281776Y300765D02*
X281565D01*
X281424Y300730D01*
X281036Y300694D01*
X280578Y300588D01*
X280014Y300412D01*
X279414Y300166D01*
X278850Y299813D01*
X278286Y299355D01*
X278215Y299284D01*
X278074Y299108D01*
X277828Y298790D01*
X277581Y298368D01*
X277299Y297874D01*
X277052Y297239D01*
X276840Y296499D01*
X276735Y295688D01*
X286641D01*
Y295723D01*
Y295794D01*
X286606Y295900D01*
Y296041D01*
X286536Y296464D01*
X286430Y296922D01*
X286254Y297486D01*
X286077Y298015D01*
X285795Y298544D01*
X285478Y299002D01*
Y299037D01*
X285408Y299073D01*
X285231Y299284D01*
X284914Y299566D01*
X284491Y299883D01*
X283962Y300201D01*
X283327Y300483D01*
X282587Y300694D01*
X282199Y300730D01*
X281776Y300765D01*
D02*
G37*
G36*
X338925Y294031D02*
X338890D01*
X338854Y293996D01*
X338749Y293961D01*
X338608Y293925D01*
X338431Y293855D01*
X338220Y293784D01*
X337973Y293714D01*
X337691Y293643D01*
X337374Y293538D01*
X336986Y293467D01*
X336598Y293361D01*
X336140Y293255D01*
X335646Y293150D01*
X335153Y293044D01*
X334589Y292973D01*
X333989Y292868D01*
X333919D01*
X333707Y292832D01*
X333355Y292762D01*
X332967Y292691D01*
X332544Y292621D01*
X332121Y292515D01*
X331733Y292409D01*
X331380Y292268D01*
X331345D01*
X331239Y292198D01*
X331098Y292127D01*
X330957Y292022D01*
X330534Y291740D01*
X330182Y291316D01*
Y291281D01*
X330111Y291211D01*
X330076Y291070D01*
X330005Y290893D01*
X329935Y290682D01*
X329864Y290470D01*
X329829Y290188D01*
X329794Y289906D01*
Y289871D01*
Y289695D01*
X329829Y289483D01*
X329900Y289201D01*
X330005Y288884D01*
X330182Y288566D01*
X330393Y288214D01*
X330675Y287897D01*
X330710Y287861D01*
X330852Y287791D01*
X331063Y287650D01*
X331345Y287509D01*
X331733Y287368D01*
X332191Y287227D01*
X332720Y287156D01*
X333355Y287121D01*
X333637D01*
X333989Y287156D01*
X334377Y287227D01*
X334871Y287297D01*
X335364Y287438D01*
X335893Y287615D01*
X336422Y287861D01*
X336492Y287897D01*
X336633Y288002D01*
X336880Y288179D01*
X337162Y288426D01*
X337479Y288708D01*
X337832Y289060D01*
X338114Y289483D01*
X338396Y289942D01*
X338431Y289977D01*
X338467Y290118D01*
X338537Y290364D01*
X338643Y290682D01*
X338749Y291105D01*
X338819Y291598D01*
X338854Y292198D01*
X338890Y292903D01*
X338925Y294031D01*
D02*
G37*
G36*
X482096Y300765D02*
X481920D01*
X481779Y300730D01*
X481391Y300694D01*
X480933Y300553D01*
X480404Y300377D01*
X479840Y300060D01*
X479276Y299672D01*
X478994Y299390D01*
X478747Y299108D01*
Y299073D01*
X478676Y299037D01*
X478641Y298932D01*
X478535Y298790D01*
X478430Y298614D01*
X478324Y298403D01*
X478218Y298156D01*
X478077Y297874D01*
X477936Y297521D01*
X477830Y297134D01*
X477725Y296710D01*
X477619Y296252D01*
X477548Y295759D01*
X477478Y295194D01*
X477407Y294595D01*
Y293961D01*
Y293925D01*
Y293820D01*
Y293643D01*
X477443Y293396D01*
Y293114D01*
X477478Y292797D01*
X477584Y292057D01*
X477760Y291246D01*
X478007Y290400D01*
X478359Y289589D01*
X478571Y289236D01*
X478817Y288884D01*
X478853D01*
X478888Y288813D01*
X479064Y288637D01*
X479382Y288355D01*
X479769Y288073D01*
X480263Y287756D01*
X480862Y287474D01*
X481497Y287297D01*
X481850Y287262D01*
X482202Y287227D01*
X482378D01*
X482519Y287262D01*
X482907Y287297D01*
X483366Y287438D01*
X483894Y287615D01*
X484458Y287897D01*
X485022Y288284D01*
X485304Y288531D01*
X485551Y288813D01*
Y288848D01*
X485622Y288884D01*
X485692Y288990D01*
X485763Y289131D01*
X485869Y289307D01*
X486010Y289483D01*
X486115Y289765D01*
X486256Y290047D01*
X486397Y290364D01*
X486503Y290717D01*
X486644Y291140D01*
X486750Y291563D01*
X486820Y292057D01*
X486891Y292550D01*
X486962Y293114D01*
Y293714D01*
Y293749D01*
Y293890D01*
Y294066D01*
X486926Y294313D01*
Y294595D01*
X486891Y294948D01*
X486856Y295336D01*
X486785Y295759D01*
X486609Y296605D01*
X486362Y297486D01*
X486010Y298332D01*
X485798Y298685D01*
X485551Y299037D01*
Y299073D01*
X485481Y299108D01*
X485304Y299319D01*
X484987Y299601D01*
X484599Y299919D01*
X484106Y300236D01*
X483507Y300483D01*
X482837Y300694D01*
X482484Y300730D01*
X482096Y300765D01*
D02*
G37*
G36*
X456466Y294031D02*
X456431D01*
X456395Y293996D01*
X456289Y293961D01*
X456148Y293925D01*
X455972Y293855D01*
X455761Y293784D01*
X455514Y293714D01*
X455232Y293643D01*
X454915Y293538D01*
X454527Y293467D01*
X454139Y293361D01*
X453681Y293255D01*
X453187Y293150D01*
X452693Y293044D01*
X452129Y292973D01*
X451530Y292868D01*
X451460D01*
X451248Y292832D01*
X450895Y292762D01*
X450508Y292691D01*
X450084Y292621D01*
X449661Y292515D01*
X449274Y292409D01*
X448921Y292268D01*
X448886D01*
X448780Y292198D01*
X448639Y292127D01*
X448498Y292022D01*
X448075Y291740D01*
X447722Y291316D01*
Y291281D01*
X447652Y291211D01*
X447617Y291070D01*
X447546Y290893D01*
X447476Y290682D01*
X447405Y290470D01*
X447370Y290188D01*
X447335Y289906D01*
Y289871D01*
Y289695D01*
X447370Y289483D01*
X447440Y289201D01*
X447546Y288884D01*
X447722Y288566D01*
X447934Y288214D01*
X448216Y287897D01*
X448251Y287861D01*
X448392Y287791D01*
X448604Y287650D01*
X448886Y287509D01*
X449274Y287368D01*
X449732Y287227D01*
X450261Y287156D01*
X450895Y287121D01*
X451177D01*
X451530Y287156D01*
X451918Y287227D01*
X452411Y287297D01*
X452905Y287438D01*
X453434Y287615D01*
X453963Y287861D01*
X454033Y287897D01*
X454174Y288002D01*
X454421Y288179D01*
X454703Y288426D01*
X455020Y288708D01*
X455373Y289060D01*
X455655Y289483D01*
X455937Y289942D01*
X455972Y289977D01*
X456007Y290118D01*
X456078Y290364D01*
X456184Y290682D01*
X456289Y291105D01*
X456360Y291598D01*
X456395Y292198D01*
X456431Y292903D01*
X456466Y294031D01*
D02*
G37*
G36*
X399352Y300765D02*
X399141D01*
X399000Y300730D01*
X398612Y300694D01*
X398154Y300588D01*
X397590Y300412D01*
X396990Y300166D01*
X396426Y299813D01*
X395862Y299355D01*
X395792Y299284D01*
X395650Y299108D01*
X395404Y298790D01*
X395157Y298368D01*
X394875Y297874D01*
X394628Y297239D01*
X394417Y296499D01*
X394311Y295688D01*
X404217D01*
Y295723D01*
Y295794D01*
X404182Y295900D01*
Y296041D01*
X404112Y296464D01*
X404006Y296922D01*
X403830Y297486D01*
X403653Y298015D01*
X403371Y298544D01*
X403054Y299002D01*
Y299037D01*
X402984Y299073D01*
X402807Y299284D01*
X402490Y299566D01*
X402067Y299883D01*
X401538Y300201D01*
X400904Y300483D01*
X400163Y300694D01*
X399775Y300730D01*
X399352Y300765D01*
D02*
G37*
G36*
X229751Y305810D02*
X226930D01*
Y299182D01*
X220302D01*
Y296397D01*
X226930D01*
Y289699D01*
X229751D01*
Y296397D01*
X236379D01*
Y299182D01*
X229751D01*
Y305810D01*
D02*
G37*
G36*
X264524Y269161D02*
X264439D01*
X264383Y269146D01*
X264228Y269118D01*
X264044Y269076D01*
X263833Y268992D01*
X263607Y268865D01*
X263494Y268780D01*
X263382Y268695D01*
X263283Y268583D01*
X263184Y268456D01*
Y268442D01*
X263156Y268414D01*
X263128Y268357D01*
X263086Y268287D01*
X263043Y268174D01*
X262987Y268047D01*
X262945Y267892D01*
X262888Y267709D01*
X262832Y267497D01*
X262776Y267257D01*
X262719Y266990D01*
X262677Y266694D01*
X262635Y266355D01*
X262606Y265989D01*
X262592Y265594D01*
X262578Y265157D01*
Y265129D01*
Y265058D01*
Y264932D01*
X262592Y264762D01*
Y264579D01*
X262606Y264354D01*
X262621Y264114D01*
X262649Y263860D01*
X262719Y263310D01*
X262761Y263043D01*
X262818Y262789D01*
X262874Y262549D01*
X262959Y262324D01*
X263043Y262126D01*
X263142Y261957D01*
Y261943D01*
X263170Y261929D01*
X263241Y261830D01*
X263368Y261703D01*
X263523Y261562D01*
X263734Y261421D01*
X263974Y261294D01*
X264242Y261196D01*
X264383Y261182D01*
X264538Y261168D01*
X264622D01*
X264679Y261182D01*
X264820Y261210D01*
X265017Y261266D01*
X265229Y261365D01*
X265468Y261506D01*
X265581Y261590D01*
X265694Y261703D01*
X265806Y261816D01*
X265919Y261957D01*
Y261971D01*
X265947Y261999D01*
X265976Y262042D01*
X266004Y262112D01*
X266060Y262211D01*
X266103Y262338D01*
X266159Y262479D01*
X266215Y262648D01*
X266257Y262859D01*
X266314Y263085D01*
X266370Y263353D01*
X266413Y263635D01*
X266441Y263973D01*
X266469Y264325D01*
X266497Y264720D01*
Y265157D01*
Y265171D01*
Y265185D01*
Y265256D01*
Y265383D01*
X266483Y265552D01*
Y265735D01*
X266469Y265961D01*
X266455Y266200D01*
X266427Y266468D01*
X266356Y267004D01*
X266314Y267272D01*
X266257Y267525D01*
X266201Y267765D01*
X266117Y267991D01*
X266032Y268188D01*
X265933Y268357D01*
Y268371D01*
X265905Y268385D01*
X265877Y268428D01*
X265835Y268484D01*
X265708Y268611D01*
X265553Y268766D01*
X265341Y268907D01*
X265102Y269034D01*
X264975Y269090D01*
X264834Y269132D01*
X264679Y269146D01*
X264524Y269161D01*
D02*
G37*
G36*
X208351Y310147D02*
X198338D01*
Y285750D01*
X201582D01*
Y295657D01*
X207822D01*
X208739Y295692D01*
X209620Y295763D01*
X210396Y295868D01*
X211101Y296009D01*
X211771Y296150D01*
X212335Y296327D01*
X212864Y296538D01*
X213322Y296750D01*
X213710Y296926D01*
X214062Y297137D01*
X214344Y297314D01*
X214556Y297490D01*
X214732Y297596D01*
X214838Y297701D01*
X214908Y297772D01*
X214944Y297807D01*
X215296Y298230D01*
X215613Y298653D01*
X215860Y299076D01*
X216107Y299535D01*
X216318Y299993D01*
X216460Y300416D01*
X216706Y301227D01*
X216777Y301615D01*
X216847Y301967D01*
X216883Y302285D01*
X216918Y302532D01*
X216953Y302778D01*
Y302919D01*
Y303025D01*
Y303060D01*
X216918Y303730D01*
X216847Y304365D01*
X216706Y304929D01*
X216600Y305422D01*
X216460Y305846D01*
X216318Y306163D01*
X216248Y306339D01*
X216213Y306409D01*
X215931Y306938D01*
X215578Y307397D01*
X215261Y307820D01*
X214944Y308137D01*
X214662Y308384D01*
X214450Y308595D01*
X214309Y308701D01*
X214238Y308736D01*
X213780Y309018D01*
X213251Y309265D01*
X212758Y309477D01*
X212299Y309653D01*
X211876Y309759D01*
X211559Y309829D01*
X211312Y309900D01*
X211242D01*
X210713Y309970D01*
X210114Y310041D01*
X209479Y310076D01*
X208880Y310111D01*
X208351Y310147D01*
D02*
G37*
G36*
X194143D02*
X177644D01*
Y285750D01*
X180887D01*
Y296820D01*
X192345D01*
Y299711D01*
X180887D01*
Y307256D01*
X194143D01*
Y310147D01*
D02*
G37*
G36*
X166930Y269020D02*
X163857D01*
Y265791D01*
X166761D01*
X166930Y265805D01*
X167127Y265820D01*
X167353Y265834D01*
X167579Y265862D01*
X167804Y265904D01*
X168001Y265961D01*
X168030Y265975D01*
X168086Y266003D01*
X168171Y266045D01*
X168283Y266102D01*
X168410Y266186D01*
X168537Y266285D01*
X168664Y266412D01*
X168763Y266553D01*
X168777Y266567D01*
X168805Y266623D01*
X168847Y266708D01*
X168904Y266821D01*
X168946Y266947D01*
X168988Y267088D01*
X169016Y267257D01*
X169030Y267427D01*
Y267441D01*
Y267455D01*
X169016Y267540D01*
X169002Y267666D01*
X168974Y267836D01*
X168904Y268005D01*
X168819Y268202D01*
X168692Y268385D01*
X168523Y268569D01*
X168495Y268583D01*
X168424Y268639D01*
X168312Y268710D01*
X168128Y268794D01*
X167917Y268879D01*
X167635Y268949D01*
X167311Y269006D01*
X166930Y269020D01*
D02*
G37*
G36*
X240432Y263902D02*
X240418D01*
X240404Y263888D01*
X240361Y263874D01*
X240305Y263860D01*
X240235Y263832D01*
X240150Y263804D01*
X240051Y263776D01*
X239938Y263747D01*
X239812Y263705D01*
X239657Y263677D01*
X239501Y263635D01*
X239318Y263592D01*
X239121Y263550D01*
X238923Y263508D01*
X238698Y263479D01*
X238458Y263437D01*
X238430D01*
X238346Y263423D01*
X238204Y263395D01*
X238049Y263367D01*
X237880Y263339D01*
X237711Y263296D01*
X237556Y263254D01*
X237415Y263198D01*
X237401D01*
X237359Y263169D01*
X237302Y263141D01*
X237246Y263099D01*
X237077Y262986D01*
X236936Y262817D01*
Y262803D01*
X236908Y262775D01*
X236894Y262718D01*
X236865Y262648D01*
X236837Y262563D01*
X236809Y262479D01*
X236795Y262366D01*
X236781Y262253D01*
Y262239D01*
Y262169D01*
X236795Y262084D01*
X236823Y261971D01*
X236865Y261844D01*
X236936Y261717D01*
X237020Y261576D01*
X237133Y261450D01*
X237147Y261436D01*
X237204Y261407D01*
X237288Y261351D01*
X237401Y261294D01*
X237556Y261238D01*
X237739Y261182D01*
X237951Y261154D01*
X238204Y261139D01*
X238317D01*
X238458Y261154D01*
X238613Y261182D01*
X238811Y261210D01*
X239008Y261266D01*
X239219Y261337D01*
X239431Y261436D01*
X239459Y261450D01*
X239515Y261492D01*
X239614Y261562D01*
X239727Y261661D01*
X239854Y261774D01*
X239995Y261915D01*
X240108Y262084D01*
X240220Y262267D01*
X240235Y262281D01*
X240249Y262338D01*
X240277Y262436D01*
X240319Y262563D01*
X240361Y262732D01*
X240389Y262930D01*
X240404Y263169D01*
X240418Y263451D01*
X240432Y263902D01*
D02*
G37*
G36*
X205690Y251511D02*
X205605D01*
X205535Y251497D01*
X205380Y251483D01*
X205168Y251426D01*
X204929Y251342D01*
X204675Y251229D01*
X204435Y251060D01*
X204308Y250947D01*
X204196Y250834D01*
Y250820D01*
X204167Y250806D01*
X204139Y250764D01*
X204097Y250707D01*
X204055Y250637D01*
X204012Y250552D01*
X203956Y250440D01*
X203900Y250327D01*
X203843Y250186D01*
X203787Y250045D01*
X203745Y249876D01*
X203702Y249692D01*
X203660Y249495D01*
X203632Y249284D01*
X203618Y249044D01*
X203604Y248804D01*
Y248790D01*
Y248748D01*
Y248678D01*
X203618Y248579D01*
Y248466D01*
X203632Y248339D01*
X203674Y248043D01*
X203745Y247705D01*
X203857Y247367D01*
X203998Y247042D01*
X204097Y246901D01*
X204196Y246760D01*
X204210D01*
X204224Y246732D01*
X204308Y246662D01*
X204435Y246549D01*
X204604Y246436D01*
X204816Y246309D01*
X205070Y246196D01*
X205366Y246126D01*
X205521Y246112D01*
X205690Y246098D01*
X205775D01*
X205845Y246112D01*
X206000Y246140D01*
X206212Y246182D01*
X206437Y246267D01*
X206691Y246380D01*
X206931Y246549D01*
X207057Y246662D01*
X207170Y246774D01*
X207184Y246789D01*
X207198Y246803D01*
X207227Y246845D01*
X207269Y246901D01*
X207311Y246972D01*
X207367Y247056D01*
X207424Y247169D01*
X207480Y247282D01*
X207537Y247423D01*
X207579Y247578D01*
X207635Y247747D01*
X207678Y247930D01*
X207720Y248142D01*
X207748Y248353D01*
X207776Y248593D01*
Y248847D01*
Y248861D01*
Y248903D01*
Y248974D01*
X207762Y249058D01*
Y249171D01*
X207748Y249298D01*
X207706Y249594D01*
X207635Y249904D01*
X207523Y250242D01*
X207367Y250552D01*
X207283Y250707D01*
X207170Y250834D01*
Y250848D01*
X207142Y250863D01*
X207057Y250947D01*
X206931Y251046D01*
X206761Y251173D01*
X206550Y251299D01*
X206296Y251412D01*
X206014Y251483D01*
X205859Y251497D01*
X205690Y251511D01*
D02*
G37*
G36*
X184333Y254006D02*
Y253992D01*
X184319Y253964D01*
Y253908D01*
X184291Y253851D01*
X184277Y253752D01*
X184249Y253654D01*
X184192Y253414D01*
X184122Y253132D01*
X184023Y252822D01*
X183924Y252484D01*
X183797Y252131D01*
X182740Y249284D01*
X186039D01*
X185024Y251962D01*
Y251976D01*
X185010Y252019D01*
X184981Y252089D01*
X184953Y252174D01*
X184911Y252272D01*
X184869Y252399D01*
X184826Y252540D01*
X184770Y252681D01*
X184657Y253005D01*
X184545Y253344D01*
X184432Y253682D01*
X184333Y254006D01*
D02*
G37*
G36*
X236647D02*
Y253992D01*
X236633Y253964D01*
Y253908D01*
X236605Y253851D01*
X236591Y253752D01*
X236562Y253654D01*
X236506Y253414D01*
X236436Y253132D01*
X236337Y252822D01*
X236238Y252484D01*
X236111Y252131D01*
X235054Y249284D01*
X238353D01*
X237338Y251962D01*
Y251976D01*
X237324Y252019D01*
X237295Y252089D01*
X237267Y252174D01*
X237225Y252272D01*
X237183Y252399D01*
X237140Y252540D01*
X237084Y252681D01*
X236971Y253005D01*
X236859Y253344D01*
X236746Y253682D01*
X236647Y254006D01*
D02*
G37*
G36*
X163612Y310570D02*
X163154D01*
X162237Y310534D01*
X161426Y310429D01*
X160651Y310288D01*
X159981Y310147D01*
X159452Y310006D01*
X159205Y309935D01*
X159029Y309865D01*
X158888Y309794D01*
X158782Y309759D01*
X158712Y309723D01*
X158676D01*
X157971Y309371D01*
X157337Y308983D01*
X156808Y308560D01*
X156385Y308172D01*
X156067Y307820D01*
X155821Y307538D01*
X155644Y307326D01*
X155609Y307291D01*
Y307256D01*
X155257Y306656D01*
X155010Y306057D01*
X154833Y305458D01*
X154728Y304929D01*
X154657Y304471D01*
X154587Y304118D01*
Y303977D01*
Y303871D01*
Y303836D01*
Y303801D01*
X154622Y303201D01*
X154728Y302637D01*
X154869Y302108D01*
X155010Y301650D01*
X155151Y301297D01*
X155292Y301015D01*
X155398Y300839D01*
X155433Y300769D01*
X155785Y300275D01*
X156208Y299817D01*
X156631Y299429D01*
X157055Y299112D01*
X157407Y298830D01*
X157724Y298653D01*
X157936Y298512D01*
X157971Y298477D01*
X158006D01*
X158288Y298336D01*
X158606Y298195D01*
X159311Y297948D01*
X160122Y297701D01*
X160897Y297455D01*
X161602Y297243D01*
X161920Y297173D01*
X162202Y297102D01*
X162413Y297032D01*
X162590Y296996D01*
X162695Y296961D01*
X162731D01*
X163330Y296820D01*
X163894Y296679D01*
X164388Y296538D01*
X164811Y296432D01*
X165234Y296327D01*
X165586Y296221D01*
X165904Y296150D01*
X166150Y296045D01*
X166397Y295974D01*
X166573Y295939D01*
X166855Y295833D01*
X167032Y295798D01*
X167067Y295763D01*
X167596Y295551D01*
X168054Y295304D01*
X168442Y295057D01*
X168724Y294846D01*
X168971Y294634D01*
X169112Y294493D01*
X169217Y294387D01*
X169253Y294352D01*
X169500Y294035D01*
X169676Y293682D01*
X169782Y293330D01*
X169887Y293048D01*
X169923Y292766D01*
X169958Y292554D01*
Y292378D01*
Y292343D01*
X169923Y291920D01*
X169852Y291532D01*
X169746Y291179D01*
X169605Y290897D01*
X169464Y290615D01*
X169359Y290439D01*
X169288Y290298D01*
X169253Y290263D01*
X168971Y289910D01*
X168618Y289628D01*
X168266Y289381D01*
X167948Y289135D01*
X167631Y288993D01*
X167384Y288853D01*
X167208Y288782D01*
X167138Y288747D01*
X166609Y288570D01*
X166045Y288429D01*
X165480Y288359D01*
X164987Y288288D01*
X164564Y288253D01*
X164211Y288218D01*
X163894D01*
X163118Y288253D01*
X162413Y288324D01*
X161779Y288429D01*
X161215Y288570D01*
X160756Y288711D01*
X160404Y288817D01*
X160298Y288853D01*
X160192Y288888D01*
X160157Y288923D01*
X160122D01*
X159558Y289205D01*
X159029Y289522D01*
X158641Y289840D01*
X158288Y290157D01*
X158006Y290404D01*
X157830Y290651D01*
X157724Y290791D01*
X157689Y290827D01*
X157442Y291285D01*
X157196Y291779D01*
X157055Y292307D01*
X156913Y292766D01*
X156808Y293224D01*
X156737Y293541D01*
Y293682D01*
X156702Y293788D01*
Y293823D01*
Y293859D01*
X153670Y293577D01*
X153741Y292695D01*
X153882Y291849D01*
X154093Y291109D01*
X154340Y290439D01*
X154587Y289910D01*
X154692Y289699D01*
X154763Y289522D01*
X154869Y289381D01*
X154904Y289275D01*
X154974Y289205D01*
Y289170D01*
X155503Y288500D01*
X156067Y287901D01*
X156667Y287407D01*
X157231Y286984D01*
X157724Y286667D01*
X158147Y286455D01*
X158288Y286385D01*
X158394Y286314D01*
X158465Y286279D01*
X158500D01*
X159381Y285961D01*
X160298Y285715D01*
X161215Y285574D01*
X162096Y285433D01*
X162519Y285397D01*
X162872Y285362D01*
X163189D01*
X163471Y285327D01*
X164035D01*
X164987Y285362D01*
X165868Y285468D01*
X166679Y285644D01*
X167349Y285821D01*
X167913Y285961D01*
X168160Y286067D01*
X168371Y286138D01*
X168512Y286208D01*
X168618Y286244D01*
X168689Y286279D01*
X168724D01*
X169464Y286667D01*
X170099Y287090D01*
X170663Y287548D01*
X171121Y287971D01*
X171474Y288324D01*
X171721Y288641D01*
X171897Y288853D01*
X171932Y288888D01*
Y288923D01*
X172320Y289593D01*
X172602Y290227D01*
X172778Y290827D01*
X172919Y291391D01*
X172990Y291884D01*
X173060Y292272D01*
Y292413D01*
Y292519D01*
Y292554D01*
Y292589D01*
X173025Y293295D01*
X172919Y293965D01*
X172743Y294564D01*
X172567Y295057D01*
X172355Y295480D01*
X172214Y295798D01*
X172073Y295974D01*
X172038Y296045D01*
X171615Y296573D01*
X171121Y297067D01*
X170592Y297490D01*
X170064Y297878D01*
X169605Y298160D01*
X169217Y298371D01*
X169076Y298442D01*
X168971Y298512D01*
X168900Y298548D01*
X168865D01*
X168583Y298689D01*
X168230Y298794D01*
X167843Y298935D01*
X167419Y299076D01*
X166538Y299323D01*
X165621Y299570D01*
X165198Y299676D01*
X164811Y299782D01*
X164423Y299887D01*
X164105Y299958D01*
X163859Y300028D01*
X163647Y300064D01*
X163506Y300099D01*
X163471D01*
X162766Y300275D01*
X162131Y300416D01*
X161567Y300592D01*
X161074Y300734D01*
X160615Y300910D01*
X160228Y301051D01*
X159875Y301192D01*
X159558Y301297D01*
X159311Y301439D01*
X159099Y301544D01*
X158958Y301615D01*
X158817Y301721D01*
X158641Y301826D01*
X158606Y301862D01*
X158288Y302214D01*
X158077Y302567D01*
X157901Y302919D01*
X157795Y303272D01*
X157724Y303554D01*
X157689Y303801D01*
Y303942D01*
Y304012D01*
X157760Y304576D01*
X157901Y305070D01*
X158112Y305493D01*
X158359Y305881D01*
X158570Y306163D01*
X158782Y306409D01*
X158923Y306551D01*
X158994Y306586D01*
X159276Y306762D01*
X159558Y306938D01*
X160228Y307220D01*
X160933Y307397D01*
X161638Y307538D01*
X162272Y307608D01*
X162554Y307644D01*
X162766Y307679D01*
X163259D01*
X164247Y307644D01*
X165128Y307502D01*
X165833Y307291D01*
X166432Y307079D01*
X166891Y306868D01*
X167243Y306656D01*
X167419Y306515D01*
X167490Y306480D01*
X167984Y305986D01*
X168371Y305458D01*
X168689Y304894D01*
X168900Y304329D01*
X169041Y303801D01*
X169147Y303413D01*
X169182Y303237D01*
X169217Y303131D01*
Y303060D01*
Y303025D01*
X172320Y303272D01*
X172250Y304047D01*
X172073Y304753D01*
X171897Y305422D01*
X171650Y305986D01*
X171439Y306445D01*
X171262Y306797D01*
X171192Y306903D01*
X171121Y307009D01*
X171086Y307044D01*
Y307079D01*
X170628Y307679D01*
X170134Y308208D01*
X169605Y308666D01*
X169076Y309018D01*
X168618Y309336D01*
X168266Y309512D01*
X168125Y309583D01*
X168019Y309653D01*
X167948Y309688D01*
X167913D01*
X167138Y309970D01*
X166291Y310182D01*
X165516Y310358D01*
X164775Y310464D01*
X164105Y310534D01*
X163859D01*
X163612Y310570D01*
D02*
G37*
G36*
X264968Y248818D02*
X264954D01*
X264940Y248804D01*
X264897Y248790D01*
X264841Y248776D01*
X264771Y248748D01*
X264686Y248720D01*
X264587Y248692D01*
X264475Y248663D01*
X264348Y248621D01*
X264193Y248593D01*
X264037Y248551D01*
X263854Y248508D01*
X263657Y248466D01*
X263459Y248424D01*
X263234Y248396D01*
X262994Y248353D01*
X262966D01*
X262882Y248339D01*
X262740Y248311D01*
X262586Y248283D01*
X262416Y248255D01*
X262247Y248212D01*
X262092Y248170D01*
X261951Y248114D01*
X261937D01*
X261895Y248085D01*
X261838Y248057D01*
X261782Y248015D01*
X261613Y247902D01*
X261472Y247733D01*
Y247719D01*
X261444Y247691D01*
X261430Y247634D01*
X261401Y247564D01*
X261373Y247479D01*
X261345Y247395D01*
X261331Y247282D01*
X261317Y247169D01*
Y247155D01*
Y247085D01*
X261331Y247000D01*
X261359Y246887D01*
X261401Y246760D01*
X261472Y246633D01*
X261556Y246492D01*
X261669Y246366D01*
X261683Y246352D01*
X261740Y246323D01*
X261824Y246267D01*
X261937Y246210D01*
X262092Y246154D01*
X262275Y246098D01*
X262487Y246070D01*
X262740Y246055D01*
X262853D01*
X262994Y246070D01*
X263149Y246098D01*
X263347Y246126D01*
X263544Y246182D01*
X263755Y246253D01*
X263967Y246352D01*
X263995Y246366D01*
X264052Y246408D01*
X264150Y246478D01*
X264263Y246577D01*
X264390Y246690D01*
X264531Y246831D01*
X264644Y247000D01*
X264756Y247183D01*
X264771Y247197D01*
X264785Y247254D01*
X264813Y247352D01*
X264855Y247479D01*
X264897Y247648D01*
X264926Y247846D01*
X264940Y248085D01*
X264954Y248367D01*
X264968Y248818D01*
D02*
G37*
%LPD*%
G36*
X209197Y307220D02*
X209726Y307185D01*
X210149Y307150D01*
X210431Y307079D01*
X210642Y307044D01*
X210783Y307009D01*
X210819D01*
X211277Y306833D01*
X211665Y306621D01*
X212017Y306409D01*
X212335Y306163D01*
X212546Y305916D01*
X212722Y305740D01*
X212828Y305599D01*
X212864Y305563D01*
X213110Y305140D01*
X213322Y304717D01*
X213463Y304259D01*
X213533Y303871D01*
X213604Y303519D01*
X213639Y303201D01*
Y303025D01*
Y302990D01*
Y302955D01*
X213569Y302214D01*
X213428Y301580D01*
X213216Y301015D01*
X212969Y300557D01*
X212722Y300205D01*
X212511Y299923D01*
X212370Y299782D01*
X212299Y299711D01*
X212053Y299499D01*
X211735Y299323D01*
X211066Y299041D01*
X210325Y298830D01*
X209585Y298689D01*
X208915Y298618D01*
X208633Y298583D01*
X208386D01*
X208139Y298548D01*
X201582D01*
Y307256D01*
X208562D01*
X209197Y307220D01*
D02*
G37*
D39*
X463869Y767400D02*
X470869D01*
X463869Y738400D02*
Y767400D01*
X579869Y670400D02*
Y699400D01*
X572869Y670400D02*
X579869D01*
X606369Y767400D02*
X613369D01*
X606369Y738400D02*
Y767400D01*
X722369Y670400D02*
Y699400D01*
X715369Y670400D02*
X722369D01*
X861700Y957800D02*
Y972800D01*
X846700Y957800D02*
X861700D01*
X808000Y995400D02*
Y1026400D01*
X178869Y767400D02*
X185869D01*
X178869Y738400D02*
Y767400D01*
X294869Y670400D02*
Y699400D01*
X287869Y670400D02*
X294869D01*
X108700Y957800D02*
Y972800D01*
X93700Y957800D02*
X108700D01*
X55000Y995400D02*
Y1026400D01*
X321369Y767400D02*
X328369D01*
X321369Y738400D02*
Y767400D01*
X437369Y670400D02*
Y699400D01*
X430369Y670400D02*
X437369D01*
X150669Y645400D02*
Y776400D01*
Y645400D02*
X190669D01*
X710669D02*
X750669D01*
Y776400D01*
X876304Y1033777D02*
X873765Y1031237D01*
Y1026159D01*
X876304Y1023620D01*
X886461D01*
X889000Y1026159D01*
Y1031237D01*
X886461Y1033777D01*
X873765Y1038855D02*
X889000D01*
X881383D01*
Y1049012D01*
X873765D01*
X889000D01*
X876304Y1054090D02*
X873765Y1056629D01*
Y1061708D01*
X876304Y1064247D01*
X878843D01*
X881383Y1061708D01*
Y1059168D01*
Y1061708D01*
X883922Y1064247D01*
X886461D01*
X889000Y1061708D01*
Y1056629D01*
X886461Y1054090D01*
X821941Y948686D02*
X819401Y951225D01*
X814323D01*
X811784Y948686D01*
Y938529D01*
X814323Y935990D01*
X819401D01*
X821941Y938529D01*
X827019Y951225D02*
Y935990D01*
Y943607D01*
X837176D01*
Y951225D01*
Y935990D01*
X852411D02*
X842254D01*
X852411Y946147D01*
Y948686D01*
X849872Y951225D01*
X844793D01*
X842254Y948686D01*
X68831D02*
X66291Y951225D01*
X61213D01*
X58674Y948686D01*
Y938529D01*
X61213Y935990D01*
X66291D01*
X68831Y938529D01*
X73909Y951225D02*
Y935990D01*
Y943607D01*
X84066D01*
Y951225D01*
Y935990D01*
X89144D02*
X94222D01*
X91683D01*
Y951225D01*
X89144Y948686D01*
X120654Y1033777D02*
X118115Y1031237D01*
Y1026159D01*
X120654Y1023620D01*
X130811D01*
X133350Y1026159D01*
Y1031237D01*
X130811Y1033777D01*
X118115Y1038855D02*
X133350D01*
X125732D01*
Y1049012D01*
X118115D01*
X133350D01*
X120654Y1054090D02*
X118115Y1056629D01*
Y1061708D01*
X120654Y1064247D01*
X130811D01*
X133350Y1061708D01*
Y1056629D01*
X130811Y1054090D01*
X120654D01*
D40*
X805180Y549656D02*
X810260D01*
Y522478D02*
Y549656D01*
X808228Y520446D02*
X810260Y522478D01*
X805180Y543814D02*
X810260D01*
X722122Y581152D02*
X735584D01*
X737616Y579120D01*
D44*
X572869Y773400D02*
G03*
X572869Y773400I-2000J0D01*
G01*
X715369D02*
G03*
X715369Y773400I-2000J0D01*
G01*
X287869D02*
G03*
X287869Y773400I-2000J0D01*
G01*
X430369D02*
G03*
X430369Y773400I-2000J0D01*
G01*
D66*
X759251Y612643D02*
Y606718D01*
X760436Y605533D01*
X762806D01*
X763991Y606718D01*
Y612643D01*
X771100D02*
X768731Y611458D01*
X766361Y609088D01*
Y606718D01*
X767546Y605533D01*
X769916D01*
X771100Y606718D01*
Y607903D01*
X769916Y609088D01*
X766361D01*
X750062Y425958D02*
Y433068D01*
X753617D01*
X754802Y431883D01*
Y429513D01*
X753617Y428328D01*
X750062D01*
X752432D02*
X754802Y425958D01*
X757172Y433068D02*
X761911D01*
Y431883D01*
X757172Y427143D01*
Y425958D01*
X764281Y431883D02*
X765466Y433068D01*
X767836D01*
X769021Y431883D01*
Y430698D01*
X767836Y429513D01*
X766651D01*
X767836D01*
X769021Y428328D01*
Y427143D01*
X767836Y425958D01*
X765466D01*
X764281Y427143D01*
X697992Y426720D02*
Y433830D01*
X701547D01*
X702732Y432645D01*
Y430275D01*
X701547Y429090D01*
X697992D01*
X700362D02*
X702732Y426720D01*
X705102Y433830D02*
X709842D01*
Y432645D01*
X705102Y427905D01*
Y426720D01*
X716951D02*
X712211D01*
X716951Y431460D01*
Y432645D01*
X715766Y433830D01*
X713396D01*
X712211Y432645D01*
X72136Y766318D02*
Y773428D01*
X75691D01*
X76876Y772243D01*
Y769873D01*
X75691Y768688D01*
X72136D01*
X74506D02*
X76876Y766318D01*
X79246Y773428D02*
X83986D01*
Y772243D01*
X79246Y767503D01*
Y766318D01*
X86355D02*
X88725D01*
X87540D01*
Y773428D01*
X86355Y772243D01*
X23368Y766318D02*
Y773428D01*
X26923D01*
X28108Y772243D01*
Y769873D01*
X26923Y768688D01*
X23368D01*
X25738D02*
X28108Y766318D01*
X30478Y773428D02*
X35217D01*
Y772243D01*
X30478Y767503D01*
Y766318D01*
X37587Y772243D02*
X38772Y773428D01*
X41142D01*
X42327Y772243D01*
Y767503D01*
X41142Y766318D01*
X38772D01*
X37587Y767503D01*
Y772243D01*
X734736Y409363D02*
Y414103D01*
X733551Y415288D01*
X731181D01*
X729996Y414103D01*
Y409363D01*
X731181Y408178D01*
X733551D01*
X732366Y410548D02*
X734736Y408178D01*
X733551D02*
X734736Y409363D01*
X737106Y415288D02*
X741845D01*
Y414103D01*
X737106Y409363D01*
Y408178D01*
X680888Y409617D02*
Y414357D01*
X679703Y415542D01*
X677333D01*
X676148Y414357D01*
Y409617D01*
X677333Y408432D01*
X679703D01*
X678518Y410802D02*
X680888Y408432D01*
X679703D02*
X680888Y409617D01*
X687998Y415542D02*
X685628Y414357D01*
X683258Y411987D01*
Y409617D01*
X684443Y408432D01*
X686813D01*
X687998Y409617D01*
Y410802D01*
X686813Y411987D01*
X683258D01*
X82718Y822621D02*
Y827361D01*
X81533Y828546D01*
X79163D01*
X77978Y827361D01*
Y822621D01*
X79163Y821436D01*
X81533D01*
X80348Y823806D02*
X82718Y821436D01*
X81533D02*
X82718Y822621D01*
X85088Y827361D02*
X86273Y828546D01*
X88643D01*
X89827Y827361D01*
Y826176D01*
X88643Y824991D01*
X87458D01*
X88643D01*
X89827Y823806D01*
Y822621D01*
X88643Y821436D01*
X86273D01*
X85088Y822621D01*
X30140Y822113D02*
Y826853D01*
X28955Y828038D01*
X26585D01*
X25400Y826853D01*
Y822113D01*
X26585Y820928D01*
X28955D01*
X27770Y823298D02*
X30140Y820928D01*
X28955D02*
X30140Y822113D01*
X37250Y820928D02*
X32510D01*
X37250Y825668D01*
Y826853D01*
X36065Y828038D01*
X33695D01*
X32510Y826853D01*
X740324Y598253D02*
X739139Y599438D01*
X736769D01*
X735584Y598253D01*
Y593513D01*
X736769Y592328D01*
X739139D01*
X740324Y593513D01*
X742694Y592328D02*
X745064D01*
X743879D01*
Y599438D01*
X742694Y598253D01*
X748618D02*
X749803Y599438D01*
X752173D01*
X753358Y598253D01*
Y597068D01*
X752173Y595883D01*
X750988D01*
X752173D01*
X753358Y594698D01*
Y593513D01*
X752173Y592328D01*
X749803D01*
X748618Y593513D01*
X755728D02*
X756913Y592328D01*
X759283D01*
X760468Y593513D01*
Y598253D01*
X759283Y599438D01*
X756913D01*
X755728Y598253D01*
Y597068D01*
X756913Y595883D01*
X760468D01*
X865124Y703578D02*
Y697653D01*
X866309Y696468D01*
X868679D01*
X869864Y697653D01*
Y703578D01*
X872234Y696468D02*
X874604D01*
X873419D01*
Y703578D01*
X872234Y702393D01*
X878158D02*
X879343Y703578D01*
X881713D01*
X882898Y702393D01*
Y697653D01*
X881713Y696468D01*
X879343D01*
X878158Y697653D01*
Y702393D01*
X851408Y827530D02*
X856148D01*
X853778D01*
Y820420D01*
X858518D02*
Y827530D01*
X862073D01*
X863258Y826345D01*
Y823975D01*
X862073Y822790D01*
X858518D01*
X870367Y827530D02*
X865627D01*
Y823975D01*
X867997Y825160D01*
X869182D01*
X870367Y823975D01*
Y821605D01*
X869182Y820420D01*
X866812D01*
X865627Y821605D01*
X777494Y711708D02*
X770384D01*
Y715263D01*
X771569Y716448D01*
X773939D01*
X775124Y715263D01*
Y711708D01*
Y714078D02*
X777494Y716448D01*
X770384Y723558D02*
X771569Y721188D01*
X773939Y718818D01*
X776309D01*
X777494Y720003D01*
Y722373D01*
X776309Y723558D01*
X775124D01*
X773939Y722373D01*
Y718818D01*
X771569Y725927D02*
X770384Y727112D01*
Y729482D01*
X771569Y730667D01*
X772754D01*
X773939Y729482D01*
X775124Y730667D01*
X776309D01*
X777494Y729482D01*
Y727112D01*
X776309Y725927D01*
X775124D01*
X773939Y727112D01*
X772754Y725927D01*
X771569D01*
X773939Y727112D02*
Y729482D01*
X777494Y687832D02*
X770384D01*
Y691387D01*
X771569Y692572D01*
X773939D01*
X775124Y691387D01*
Y687832D01*
Y690202D02*
X777494Y692572D01*
X770384Y699681D02*
X771569Y697312D01*
X773939Y694942D01*
X776309D01*
X777494Y696127D01*
Y698496D01*
X776309Y699681D01*
X775124D01*
X773939Y698496D01*
Y694942D01*
X770384Y702051D02*
Y706791D01*
X771569D01*
X776309Y702051D01*
X777494D01*
X809498Y825246D02*
Y832356D01*
X813053D01*
X814238Y831171D01*
Y828801D01*
X813053Y827616D01*
X809498D01*
X811868D02*
X814238Y825246D01*
X821348Y832356D02*
X818978Y831171D01*
X816608Y828801D01*
Y826431D01*
X817793Y825246D01*
X820163D01*
X821348Y826431D01*
Y827616D01*
X820163Y828801D01*
X816608D01*
X828457Y832356D02*
X826087Y831171D01*
X823717Y828801D01*
Y826431D01*
X824902Y825246D01*
X827272D01*
X828457Y826431D01*
Y827616D01*
X827272Y828801D01*
X823717D01*
X790111Y742864D02*
X788926Y741679D01*
Y739309D01*
X790111Y738124D01*
X794851D01*
X796036Y739309D01*
Y741679D01*
X794851Y742864D01*
X796036Y745234D02*
Y747604D01*
Y746419D01*
X788926D01*
X790111Y745234D01*
X796036Y754713D02*
X788926D01*
X792481Y751158D01*
Y755898D01*
X788926Y758268D02*
Y763008D01*
X790111D01*
X794851Y758268D01*
X796036D01*
X833288Y648037D02*
X832103Y649222D01*
X829733D01*
X828548Y648037D01*
Y643297D01*
X829733Y642112D01*
X832103D01*
X833288Y643297D01*
X835658Y642112D02*
X838028D01*
X836843D01*
Y649222D01*
X835658Y648037D01*
X845137Y642112D02*
Y649222D01*
X841582Y645667D01*
X846322D01*
X853432Y649222D02*
X851062Y648037D01*
X848692Y645667D01*
Y643297D01*
X849877Y642112D01*
X852247D01*
X853432Y643297D01*
Y644482D01*
X852247Y645667D01*
X848692D01*
X799506Y648037D02*
X798321Y649222D01*
X795951D01*
X794766Y648037D01*
Y643297D01*
X795951Y642112D01*
X798321D01*
X799506Y643297D01*
X801876Y642112D02*
X804246D01*
X803061D01*
Y649222D01*
X801876Y648037D01*
X811355Y642112D02*
Y649222D01*
X807800Y645667D01*
X812540D01*
X819650Y649222D02*
X814910D01*
Y645667D01*
X817280Y646852D01*
X818465D01*
X819650Y645667D01*
Y643297D01*
X818465Y642112D01*
X816095D01*
X814910Y643297D01*
X875963Y742864D02*
X874778Y741679D01*
Y739309D01*
X875963Y738124D01*
X880703D01*
X881888Y739309D01*
Y741679D01*
X880703Y742864D01*
X881888Y745234D02*
Y747604D01*
Y746419D01*
X874778D01*
X875963Y745234D01*
X881888Y754713D02*
X874778D01*
X878333Y751158D01*
Y755898D01*
X881888Y761823D02*
X874778D01*
X878333Y758268D01*
Y763008D01*
X797220Y813391D02*
X796035Y814576D01*
X793665D01*
X792480Y813391D01*
Y808651D01*
X793665Y807466D01*
X796035D01*
X797220Y808651D01*
X799590Y807466D02*
X801960D01*
X800775D01*
Y814576D01*
X799590Y813391D01*
X809069Y807466D02*
Y814576D01*
X805514Y811021D01*
X810254D01*
X812624Y813391D02*
X813809Y814576D01*
X816179D01*
X817364Y813391D01*
Y812206D01*
X816179Y811021D01*
X814994D01*
X816179D01*
X817364Y809836D01*
Y808651D01*
X816179Y807466D01*
X813809D01*
X812624Y808651D01*
X834558Y813391D02*
X833373Y814576D01*
X831003D01*
X829818Y813391D01*
Y808651D01*
X831003Y807466D01*
X833373D01*
X834558Y808651D01*
X836928Y807466D02*
X839298D01*
X838113D01*
Y814576D01*
X836928Y813391D01*
X846407Y807466D02*
Y814576D01*
X842852Y811021D01*
X847592D01*
X854702Y807466D02*
X849962D01*
X854702Y812206D01*
Y813391D01*
X853517Y814576D01*
X851147D01*
X849962Y813391D01*
X863600Y614678D02*
Y608753D01*
X864785Y607568D01*
X867155D01*
X868340Y608753D01*
Y614678D01*
X870710Y613493D02*
X871895Y614678D01*
X874265D01*
X875450Y613493D01*
Y612308D01*
X874265Y611123D01*
X875450Y609938D01*
Y608753D01*
X874265Y607568D01*
X871895D01*
X870710Y608753D01*
Y609938D01*
X871895Y611123D01*
X870710Y612308D01*
Y613493D01*
X871895Y611123D02*
X874265D01*
X848868Y507492D02*
Y514602D01*
X852423D01*
X853608Y513417D01*
Y511047D01*
X852423Y509862D01*
X848868D01*
X851238D02*
X853608Y507492D01*
X860717Y514602D02*
X858348Y513417D01*
X855978Y511047D01*
Y508677D01*
X857163Y507492D01*
X859532D01*
X860717Y508677D01*
Y509862D01*
X859532Y511047D01*
X855978D01*
X867827Y514602D02*
X863087D01*
Y511047D01*
X865457Y512232D01*
X866642D01*
X867827Y511047D01*
Y508677D01*
X866642Y507492D01*
X864272D01*
X863087Y508677D01*
X761238Y540258D02*
X754128D01*
Y543813D01*
X755313Y544998D01*
X757683D01*
X758868Y543813D01*
Y540258D01*
Y542628D02*
X761238Y544998D01*
X754128Y552108D02*
X755313Y549738D01*
X757683Y547368D01*
X760053D01*
X761238Y548553D01*
Y550923D01*
X760053Y552108D01*
X758868D01*
X757683Y550923D01*
Y547368D01*
X761238Y558032D02*
X754128D01*
X757683Y554477D01*
Y559217D01*
X765050Y519430D02*
X772160D01*
Y524170D01*
Y526540D02*
Y528910D01*
Y527725D01*
X765050D01*
X766235Y526540D01*
X772160Y532464D02*
Y534834D01*
Y533649D01*
X765050D01*
X766235Y532464D01*
X825160Y513671D02*
X823975Y514856D01*
X821605D01*
X820420Y513671D01*
Y508931D01*
X821605Y507746D01*
X823975D01*
X825160Y508931D01*
X827530Y507746D02*
X829900D01*
X828715D01*
Y514856D01*
X827530Y513671D01*
X837009Y507746D02*
Y514856D01*
X833454Y511301D01*
X838194D01*
X840564Y507746D02*
X842934D01*
X841749D01*
Y514856D01*
X840564Y513671D01*
X699684Y579965D02*
X698499Y581150D01*
X696129D01*
X694944Y579965D01*
Y575225D01*
X696129Y574040D01*
X698499D01*
X699684Y575225D01*
X702054Y574040D02*
X704424D01*
X703239D01*
Y581150D01*
X702054Y579965D01*
X711533Y574040D02*
Y581150D01*
X707978Y577595D01*
X712718D01*
X715088Y579965D02*
X716273Y581150D01*
X718643D01*
X719828Y579965D01*
Y575225D01*
X718643Y574040D01*
X716273D01*
X715088Y575225D01*
Y579965D01*
X772331Y636946D02*
X771146Y635761D01*
Y633391D01*
X772331Y632206D01*
X777071D01*
X778256Y633391D01*
Y635761D01*
X777071Y636946D01*
X778256Y639316D02*
Y641686D01*
Y640501D01*
X771146D01*
X772331Y639316D01*
X778256Y649980D02*
Y645240D01*
X773516Y649980D01*
X772331D01*
X771146Y648795D01*
Y646425D01*
X772331Y645240D01*
X778256Y657090D02*
Y652350D01*
X773516Y657090D01*
X772331D01*
X771146Y655905D01*
Y653535D01*
X772331Y652350D01*
X822366Y623399D02*
X821181Y624584D01*
X818811D01*
X817626Y623399D01*
Y618659D01*
X818811Y617474D01*
X821181D01*
X822366Y618659D01*
X824736Y617474D02*
X827106D01*
X825921D01*
Y624584D01*
X824736Y623399D01*
X830660D02*
X831845Y624584D01*
X834215D01*
X835400Y623399D01*
Y618659D01*
X834215Y617474D01*
X831845D01*
X830660Y618659D01*
Y623399D01*
X837770Y618659D02*
X838955Y617474D01*
X841325D01*
X842510Y618659D01*
Y623399D01*
X841325Y624584D01*
X838955D01*
X837770Y623399D01*
Y622214D01*
X838955Y621029D01*
X842510D01*
X822411Y613490D02*
X821226Y614675D01*
X818856D01*
X817671Y613490D01*
Y608750D01*
X818856Y607565D01*
X821226D01*
X822411Y608750D01*
X824781Y607565D02*
X827151D01*
X825966D01*
Y614675D01*
X824781Y613490D01*
X830705D02*
X831890Y614675D01*
X834260D01*
X835445Y613490D01*
Y608750D01*
X834260Y607565D01*
X831890D01*
X830705Y608750D01*
Y613490D01*
X837815D02*
X839000Y614675D01*
X841370D01*
X842555Y613490D01*
Y612305D01*
X841370Y611120D01*
X842555Y609935D01*
Y608750D01*
X841370Y607565D01*
X839000D01*
X837815Y608750D01*
Y609935D01*
X839000Y611120D01*
X837815Y612305D01*
Y613490D01*
X839000Y611120D02*
X841370D01*
X789600Y515957D02*
X788415Y517142D01*
X786045D01*
X784860Y515957D01*
Y511217D01*
X786045Y510032D01*
X788415D01*
X789600Y511217D01*
X791970Y510032D02*
X794340D01*
X793155D01*
Y517142D01*
X791970Y515957D01*
X797894D02*
X799079Y517142D01*
X801449D01*
X802634Y515957D01*
Y511217D01*
X801449Y510032D01*
X799079D01*
X797894Y511217D01*
Y515957D01*
X805004Y517142D02*
X809744D01*
Y515957D01*
X805004Y511217D01*
Y510032D01*
X789600Y506051D02*
X788415Y507236D01*
X786045D01*
X784860Y506051D01*
Y501311D01*
X786045Y500126D01*
X788415D01*
X789600Y501311D01*
X791970Y500126D02*
X794340D01*
X793155D01*
Y507236D01*
X791970Y506051D01*
X797894D02*
X799079Y507236D01*
X801449D01*
X802634Y506051D01*
Y501311D01*
X801449Y500126D01*
X799079D01*
X797894Y501311D01*
Y506051D01*
X809744Y507236D02*
X807374Y506051D01*
X805004Y503681D01*
Y501311D01*
X806189Y500126D01*
X808559D01*
X809744Y501311D01*
Y502496D01*
X808559Y503681D01*
X805004D01*
X781983Y636946D02*
X780798Y635761D01*
Y633391D01*
X781983Y632206D01*
X786723D01*
X787908Y633391D01*
Y635761D01*
X786723Y636946D01*
X781983Y639316D02*
X780798Y640501D01*
Y642870D01*
X781983Y644055D01*
X783168D01*
X784353Y642870D01*
X785538Y644055D01*
X786723D01*
X787908Y642870D01*
Y640501D01*
X786723Y639316D01*
X785538D01*
X784353Y640501D01*
X783168Y639316D01*
X781983D01*
X784353Y640501D02*
Y642870D01*
X787908Y646425D02*
Y648795D01*
Y647610D01*
X780798D01*
X781983Y646425D01*
X821858Y485223D02*
X820673Y486408D01*
X818303D01*
X817118Y485223D01*
Y480483D01*
X818303Y479298D01*
X820673D01*
X821858Y480483D01*
X824228Y486408D02*
X828968D01*
Y485223D01*
X824228Y480483D01*
Y479298D01*
X831337Y485223D02*
X832522Y486408D01*
X834892D01*
X836077Y485223D01*
Y484038D01*
X834892Y482853D01*
X833707D01*
X834892D01*
X836077Y481668D01*
Y480483D01*
X834892Y479298D01*
X832522D01*
X831337Y480483D01*
X740832Y359239D02*
X739647Y360424D01*
X737277D01*
X736092Y359239D01*
Y354499D01*
X737277Y353314D01*
X739647D01*
X740832Y354499D01*
X746757Y353314D02*
Y360424D01*
X743202Y356869D01*
X747942D01*
X755051Y353314D02*
X750311D01*
X755051Y358054D01*
Y359239D01*
X753866Y360424D01*
X751496D01*
X750311Y359239D01*
X552618Y206331D02*
X551433Y207516D01*
X549063D01*
X547878Y206331D01*
Y201591D01*
X549063Y200406D01*
X551433D01*
X552618Y201591D01*
X554988Y206331D02*
X556173Y207516D01*
X558543D01*
X559728Y206331D01*
Y205146D01*
X558543Y203961D01*
X557358D01*
X558543D01*
X559728Y202776D01*
Y201591D01*
X558543Y200406D01*
X556173D01*
X554988Y201591D01*
X562097Y206331D02*
X563282Y207516D01*
X565652D01*
X566837Y206331D01*
Y205146D01*
X565652Y203961D01*
X564467D01*
X565652D01*
X566837Y202776D01*
Y201591D01*
X565652Y200406D01*
X563282D01*
X562097Y201591D01*
X749810Y517906D02*
X756920D01*
Y522646D01*
X749810Y529756D02*
X750995Y527386D01*
X753365Y525016D01*
X755735D01*
X756920Y526201D01*
Y528571D01*
X755735Y529756D01*
X754550D01*
X753365Y528571D01*
Y525016D01*
X440690Y582420D02*
Y575310D01*
X445430D01*
X447800Y581235D02*
X448985Y582420D01*
X451354D01*
X452539Y581235D01*
Y580050D01*
X451354Y578865D01*
X450170D01*
X451354D01*
X452539Y577680D01*
Y576495D01*
X451354Y575310D01*
X448985D01*
X447800Y576495D01*
X303000Y366110D02*
Y359000D01*
X307740D01*
X310110D02*
X312480D01*
X311295D01*
Y366110D01*
X310110Y364925D01*
X699687Y543474D02*
X698502Y542289D01*
Y539919D01*
X699687Y538734D01*
X704427D01*
X705612Y539919D01*
Y542289D01*
X704427Y543474D01*
X705612Y545844D02*
Y548214D01*
Y547029D01*
X698502D01*
X699687Y545844D01*
Y551768D02*
X698502Y552953D01*
Y555323D01*
X699687Y556508D01*
X704427D01*
X705612Y555323D01*
Y552953D01*
X704427Y551768D01*
X699687D01*
X705612Y562433D02*
X698502D01*
X702057Y558878D01*
Y563618D01*
X726611Y492420D02*
X725426Y491235D01*
Y488865D01*
X726611Y487680D01*
X731351D01*
X732536Y488865D01*
Y491235D01*
X731351Y492420D01*
X732536Y494790D02*
Y497160D01*
Y495975D01*
X725426D01*
X726611Y494790D01*
Y500714D02*
X725426Y501899D01*
Y504269D01*
X726611Y505454D01*
X731351D01*
X732536Y504269D01*
Y501899D01*
X731351Y500714D01*
X726611D01*
Y507824D02*
X725426Y509009D01*
Y511379D01*
X726611Y512564D01*
X727796D01*
X728981Y511379D01*
Y510194D01*
Y511379D01*
X730166Y512564D01*
X731351D01*
X732536Y511379D01*
Y509009D01*
X731351Y507824D01*
X414445Y538140D02*
X413260Y536955D01*
Y534585D01*
X414445Y533400D01*
X419185D01*
X420370Y534585D01*
Y536955D01*
X419185Y538140D01*
X413260Y545249D02*
Y540510D01*
X416815D01*
X415630Y542880D01*
Y544064D01*
X416815Y545249D01*
X419185D01*
X420370Y544064D01*
Y541695D01*
X419185Y540510D01*
X413260Y547619D02*
Y552359D01*
X414445D01*
X419185Y547619D01*
X420370D01*
X468036Y581235D02*
X466851Y582420D01*
X464481D01*
X463296Y581235D01*
Y576495D01*
X464481Y575310D01*
X466851D01*
X468036Y576495D01*
X475145Y582420D02*
X470406D01*
Y578865D01*
X472776Y580050D01*
X473960D01*
X475145Y578865D01*
Y576495D01*
X473960Y575310D01*
X471591D01*
X470406Y576495D01*
X482255Y582420D02*
X479885Y581235D01*
X477515Y578865D01*
Y576495D01*
X478700Y575310D01*
X481070D01*
X482255Y576495D01*
Y577680D01*
X481070Y578865D01*
X477515D01*
X288622Y349807D02*
X287437Y350992D01*
X285067D01*
X283882Y349807D01*
Y345067D01*
X285067Y343882D01*
X287437D01*
X288622Y345067D01*
X294547Y343882D02*
Y350992D01*
X290992Y347437D01*
X295731D01*
X302841Y350992D02*
X298101D01*
Y347437D01*
X300471Y348622D01*
X301656D01*
X302841Y347437D01*
Y345067D01*
X301656Y343882D01*
X299286D01*
X298101Y345067D01*
X771144Y1050544D02*
Y1057654D01*
X774699D01*
X775884Y1056469D01*
Y1054099D01*
X774699Y1052914D01*
X771144D01*
X773514D02*
X775884Y1050544D01*
X778254Y1056469D02*
X779439Y1057654D01*
X781808D01*
X782993Y1056469D01*
Y1055284D01*
X781808Y1054099D01*
X780624D01*
X781808D01*
X782993Y1052914D01*
Y1051729D01*
X781808Y1050544D01*
X779439D01*
X778254Y1051729D01*
X785363D02*
X786548Y1050544D01*
X788918D01*
X790103Y1051729D01*
Y1056469D01*
X788918Y1057654D01*
X786548D01*
X785363Y1056469D01*
Y1055284D01*
X786548Y1054099D01*
X790103D01*
X771144Y978662D02*
Y985772D01*
X774699D01*
X775884Y984587D01*
Y982217D01*
X774699Y981032D01*
X771144D01*
X773514D02*
X775884Y978662D01*
X778254Y984587D02*
X779439Y985772D01*
X781808D01*
X782993Y984587D01*
Y983402D01*
X781808Y982217D01*
X780624D01*
X781808D01*
X782993Y981032D01*
Y979847D01*
X781808Y978662D01*
X779439D01*
X778254Y979847D01*
X785363Y984587D02*
X786548Y985772D01*
X788918D01*
X790103Y984587D01*
Y983402D01*
X788918Y982217D01*
X790103Y981032D01*
Y979847D01*
X788918Y978662D01*
X786548D01*
X785363Y979847D01*
Y981032D01*
X786548Y982217D01*
X785363Y983402D01*
Y984587D01*
X786548Y982217D02*
X788918D01*
X19050Y974852D02*
Y981962D01*
X22605D01*
X23790Y980777D01*
Y978407D01*
X22605Y977222D01*
X19050D01*
X21420D02*
X23790Y974852D01*
X26160Y980777D02*
X27345Y981962D01*
X29715D01*
X30900Y980777D01*
Y979592D01*
X29715Y978407D01*
X28530D01*
X29715D01*
X30900Y977222D01*
Y976037D01*
X29715Y974852D01*
X27345D01*
X26160Y976037D01*
X33269Y981962D02*
X38009D01*
Y980777D01*
X33269Y976037D01*
Y974852D01*
X19050Y1050544D02*
Y1057654D01*
X22605D01*
X23790Y1056469D01*
Y1054099D01*
X22605Y1052914D01*
X19050D01*
X21420D02*
X23790Y1050544D01*
X26160Y1056469D02*
X27345Y1057654D01*
X29715D01*
X30900Y1056469D01*
Y1055284D01*
X29715Y1054099D01*
X28530D01*
X29715D01*
X30900Y1052914D01*
Y1051729D01*
X29715Y1050544D01*
X27345D01*
X26160Y1051729D01*
X38009Y1057654D02*
X35639Y1056469D01*
X33269Y1054099D01*
Y1051729D01*
X34454Y1050544D01*
X36824D01*
X38009Y1051729D01*
Y1052914D01*
X36824Y1054099D01*
X33269D01*
X795530Y1042162D02*
X802640D01*
Y1045717D01*
X801455Y1046902D01*
X796715D01*
X795530Y1045717D01*
Y1042162D01*
X796715Y1054012D02*
X795530Y1052827D01*
Y1050457D01*
X796715Y1049272D01*
X797900D01*
X799085Y1050457D01*
Y1052827D01*
X800270Y1054012D01*
X801455D01*
X802640Y1052827D01*
Y1050457D01*
X801455Y1049272D01*
X795530Y1061121D02*
X796715Y1058751D01*
X799085Y1056381D01*
X801455D01*
X802640Y1057566D01*
Y1059936D01*
X801455Y1061121D01*
X800270D01*
X799085Y1059936D01*
Y1056381D01*
X795530Y960882D02*
X802640D01*
Y964437D01*
X801455Y965622D01*
X796715D01*
X795530Y964437D01*
Y960882D01*
X796715Y972731D02*
X795530Y971546D01*
Y969177D01*
X796715Y967992D01*
X797900D01*
X799085Y969177D01*
Y971546D01*
X800270Y972731D01*
X801455D01*
X802640Y971546D01*
Y969177D01*
X801455Y967992D01*
X795530Y979841D02*
Y975101D01*
X799085D01*
X797900Y977471D01*
Y978656D01*
X799085Y979841D01*
X801455D01*
X802640Y978656D01*
Y976286D01*
X801455Y975101D01*
X42420Y959866D02*
X49530D01*
Y963421D01*
X48345Y964606D01*
X43605D01*
X42420Y963421D01*
Y959866D01*
X43605Y971715D02*
X42420Y970530D01*
Y968161D01*
X43605Y966976D01*
X44790D01*
X45975Y968161D01*
Y970530D01*
X47160Y971715D01*
X48345D01*
X49530Y970530D01*
Y968161D01*
X48345Y966976D01*
X49530Y977640D02*
X42420D01*
X45975Y974085D01*
Y978825D01*
X42166Y1041908D02*
X49276D01*
Y1045463D01*
X48091Y1046648D01*
X43351D01*
X42166Y1045463D01*
Y1041908D01*
X43351Y1053757D02*
X42166Y1052572D01*
Y1050203D01*
X43351Y1049018D01*
X44536D01*
X45721Y1050203D01*
Y1052572D01*
X46906Y1053757D01*
X48091D01*
X49276Y1052572D01*
Y1050203D01*
X48091Y1049018D01*
X43351Y1056127D02*
X42166Y1057312D01*
Y1059682D01*
X43351Y1060867D01*
X44536D01*
X45721Y1059682D01*
Y1058497D01*
Y1059682D01*
X46906Y1060867D01*
X48091D01*
X49276Y1059682D01*
Y1057312D01*
X48091Y1056127D01*
X796890Y1000400D02*
X804000D01*
Y1003955D01*
X802815Y1005140D01*
X798075D01*
X796890Y1003955D01*
Y1000400D01*
X798075Y1012250D02*
X796890Y1011065D01*
Y1008695D01*
X798075Y1007510D01*
X799260D01*
X800445Y1008695D01*
Y1011065D01*
X801630Y1012250D01*
X802815D01*
X804000Y1011065D01*
Y1008695D01*
X802815Y1007510D01*
X804000Y1019359D02*
Y1014619D01*
X799260Y1019359D01*
X798075D01*
X796890Y1018174D01*
Y1015804D01*
X798075Y1014619D01*
X42890Y1004400D02*
X50000D01*
Y1007955D01*
X48815Y1009140D01*
X44075D01*
X42890Y1007955D01*
Y1004400D01*
X44075Y1016249D02*
X42890Y1015065D01*
Y1012695D01*
X44075Y1011510D01*
X45260D01*
X46445Y1012695D01*
Y1015065D01*
X47630Y1016249D01*
X48815D01*
X50000Y1015065D01*
Y1012695D01*
X48815Y1011510D01*
X50000Y1018619D02*
Y1020989D01*
Y1019804D01*
X42890D01*
X44075Y1018619D01*
X606077Y783931D02*
Y791041D01*
X609632D01*
X610817Y789856D01*
Y787486D01*
X609632Y786301D01*
X606077D01*
X617926Y783931D02*
X613187D01*
X617926Y788671D01*
Y789856D01*
X616742Y791041D01*
X614372D01*
X613187Y789856D01*
X463583Y783931D02*
Y791041D01*
X467138D01*
X468323Y789856D01*
Y787486D01*
X467138Y786301D01*
X463583D01*
X470693Y789856D02*
X471878Y791041D01*
X474248D01*
X475433Y789856D01*
Y788671D01*
X474248Y787486D01*
X473063D01*
X474248D01*
X475433Y786301D01*
Y785116D01*
X474248Y783931D01*
X471878D01*
X470693Y785116D01*
X321089Y783931D02*
Y791041D01*
X324644D01*
X325829Y789856D01*
Y787486D01*
X324644Y786301D01*
X321089D01*
X331754Y783931D02*
Y791041D01*
X328199Y787486D01*
X332938D01*
X178595Y783931D02*
Y791041D01*
X182150D01*
X183335Y789856D01*
Y787486D01*
X182150Y786301D01*
X178595D01*
X190445Y791041D02*
X185705D01*
Y787486D01*
X188075Y788671D01*
X189260D01*
X190445Y787486D01*
Y785116D01*
X189260Y783931D01*
X186890D01*
X185705Y785116D01*
X127000Y644906D02*
Y652016D01*
X130555D01*
X131740Y650831D01*
Y648461D01*
X130555Y647276D01*
X127000D01*
X134110Y644906D02*
X136480D01*
X135295D01*
Y652016D01*
X134110Y650831D01*
X230000Y621110D02*
Y615185D01*
X231185Y614000D01*
X233555D01*
X234740Y615185D01*
Y621110D01*
X237110Y614000D02*
X239480D01*
X238295D01*
Y621110D01*
X237110Y619925D01*
X520954Y622298D02*
Y616373D01*
X522139Y615188D01*
X524509D01*
X525694Y616373D01*
Y622298D01*
X532803Y615188D02*
X528064D01*
X532803Y619928D01*
Y621113D01*
X531618Y622298D01*
X529249D01*
X528064Y621113D01*
X698417Y187112D02*
X697232Y185927D01*
Y183557D01*
X698417Y182372D01*
X703157D01*
X704342Y183557D01*
Y185927D01*
X703157Y187112D01*
X698417Y189482D02*
X697232Y190667D01*
Y193036D01*
X698417Y194221D01*
X699602D01*
X700787Y193036D01*
Y191852D01*
Y193036D01*
X701972Y194221D01*
X703157D01*
X704342Y193036D01*
Y190667D01*
X703157Y189482D01*
X704342Y200146D02*
X697232D01*
X700787Y196591D01*
Y201331D01*
X671740Y227925D02*
X670555Y229110D01*
X668185D01*
X667000Y227925D01*
Y223185D01*
X668185Y222000D01*
X670555D01*
X671740Y223185D01*
X674110Y227925D02*
X675295Y229110D01*
X677665D01*
X678849Y227925D01*
Y226740D01*
X677665Y225555D01*
X676480D01*
X677665D01*
X678849Y224370D01*
Y223185D01*
X677665Y222000D01*
X675295D01*
X674110Y223185D01*
X685959Y229110D02*
X681219D01*
Y225555D01*
X683589Y226740D01*
X684774D01*
X685959Y225555D01*
Y223185D01*
X684774Y222000D01*
X682404D01*
X681219Y223185D01*
X540683Y254930D02*
X539498Y253745D01*
Y251375D01*
X540683Y250190D01*
X545423D01*
X546608Y251375D01*
Y253745D01*
X545423Y254930D01*
X540683Y257300D02*
X539498Y258485D01*
Y260854D01*
X540683Y262040D01*
X541868D01*
X543053Y260854D01*
Y259670D01*
Y260854D01*
X544238Y262040D01*
X545423D01*
X546608Y260854D01*
Y258485D01*
X545423Y257300D01*
X539498Y269149D02*
X540683Y266779D01*
X543053Y264409D01*
X545423D01*
X546608Y265594D01*
Y267964D01*
X545423Y269149D01*
X544238D01*
X543053Y267964D01*
Y264409D01*
X667680Y259671D02*
X666495Y260856D01*
X664125D01*
X662940Y259671D01*
Y254931D01*
X664125Y253746D01*
X666495D01*
X667680Y254931D01*
X670050Y259671D02*
X671235Y260856D01*
X673605D01*
X674790Y259671D01*
Y258486D01*
X673605Y257301D01*
X672420D01*
X673605D01*
X674790Y256116D01*
Y254931D01*
X673605Y253746D01*
X671235D01*
X670050Y254931D01*
X677159Y260856D02*
X681899D01*
Y259671D01*
X677159Y254931D01*
Y253746D01*
X618183Y286936D02*
X616998Y288121D01*
X614628D01*
X613443Y286936D01*
Y282196D01*
X614628Y281011D01*
X616998D01*
X618183Y282196D01*
X620553Y286936D02*
X621738Y288121D01*
X624108D01*
X625293Y286936D01*
Y285751D01*
X624108Y284566D01*
X622923D01*
X624108D01*
X625293Y283381D01*
Y282196D01*
X624108Y281011D01*
X621738D01*
X620553Y282196D01*
X627662Y286936D02*
X628847Y288121D01*
X631217D01*
X632402Y286936D01*
Y285751D01*
X631217Y284566D01*
X632402Y283381D01*
Y282196D01*
X631217Y281011D01*
X628847D01*
X627662Y282196D01*
Y283381D01*
X628847Y284566D01*
X627662Y285751D01*
Y286936D01*
X628847Y284566D02*
X631217D01*
X826684Y318599D02*
X825499Y319784D01*
X823129D01*
X821944Y318599D01*
Y313859D01*
X823129Y312674D01*
X825499D01*
X826684Y313859D01*
X829054Y318599D02*
X830239Y319784D01*
X832608D01*
X833793Y318599D01*
Y317414D01*
X832608Y316229D01*
X831424D01*
X832608D01*
X833793Y315044D01*
Y313859D01*
X832608Y312674D01*
X830239D01*
X829054Y313859D01*
X836163D02*
X837348Y312674D01*
X839718D01*
X840903Y313859D01*
Y318599D01*
X839718Y319784D01*
X837348D01*
X836163Y318599D01*
Y317414D01*
X837348Y316229D01*
X840903D01*
X861482Y318345D02*
X860297Y319530D01*
X857927D01*
X856742Y318345D01*
Y313605D01*
X857927Y312420D01*
X860297D01*
X861482Y313605D01*
X867406Y312420D02*
Y319530D01*
X863852Y315975D01*
X868592D01*
X870961Y318345D02*
X872146Y319530D01*
X874516D01*
X875701Y318345D01*
Y313605D01*
X874516Y312420D01*
X872146D01*
X870961Y313605D01*
Y318345D01*
X790362Y383369D02*
X789177Y384554D01*
X786807D01*
X785622Y383369D01*
Y378629D01*
X786807Y377444D01*
X789177D01*
X790362Y378629D01*
X796286Y377444D02*
Y384554D01*
X792732Y380999D01*
X797471D01*
X799841Y377444D02*
X802211D01*
X801026D01*
Y384554D01*
X799841Y383369D01*
X787314Y485223D02*
X786129Y486408D01*
X783759D01*
X782574Y485223D01*
Y480483D01*
X783759Y479298D01*
X786129D01*
X787314Y480483D01*
X793239Y479298D02*
Y486408D01*
X789684Y482853D01*
X794424D01*
X796793Y485223D02*
X797978Y486408D01*
X800348D01*
X801533Y485223D01*
Y484038D01*
X800348Y482853D01*
X799163D01*
X800348D01*
X801533Y481668D01*
Y480483D01*
X800348Y479298D01*
X797978D01*
X796793Y480483D01*
X883837Y399964D02*
X882652Y398779D01*
Y396409D01*
X883837Y395224D01*
X888577D01*
X889762Y396409D01*
Y398779D01*
X888577Y399964D01*
X889762Y405888D02*
X882652D01*
X886207Y402334D01*
Y407074D01*
X889762Y412998D02*
X882652D01*
X886207Y409443D01*
Y414183D01*
X725849Y203114D02*
X724664Y201929D01*
Y199559D01*
X725849Y198374D01*
X730589D01*
X731774Y199559D01*
Y201929D01*
X730589Y203114D01*
X731774Y205484D02*
Y207854D01*
Y206669D01*
X724664D01*
X725849Y205484D01*
X731774Y216148D02*
Y211408D01*
X727034Y216148D01*
X725849D01*
X724664Y214963D01*
Y212593D01*
X725849Y211408D01*
X731774Y222073D02*
X724664D01*
X728219Y218518D01*
Y223258D01*
X705021Y251374D02*
X703836Y250189D01*
Y247819D01*
X705021Y246634D01*
X709761D01*
X710946Y247819D01*
Y250189D01*
X709761Y251374D01*
X710946Y253744D02*
Y256114D01*
Y254929D01*
X703836D01*
X705021Y253744D01*
X710946Y264408D02*
Y259668D01*
X706206Y264408D01*
X705021D01*
X703836Y263223D01*
Y260853D01*
X705021Y259668D01*
X703836Y271518D02*
Y266778D01*
X707391D01*
X706206Y269148D01*
Y270333D01*
X707391Y271518D01*
X709761D01*
X710946Y270333D01*
Y267963D01*
X709761Y266778D01*
X704256Y358985D02*
X703071Y360170D01*
X700701D01*
X699516Y358985D01*
Y354245D01*
X700701Y353060D01*
X703071D01*
X704256Y354245D01*
X706626Y353060D02*
X708996D01*
X707811D01*
Y360170D01*
X706626Y358985D01*
X717290Y353060D02*
X712550D01*
X717290Y357800D01*
Y358985D01*
X716105Y360170D01*
X713735D01*
X712550Y358985D01*
X724400Y360170D02*
X722030Y358985D01*
X719660Y356615D01*
Y354245D01*
X720845Y353060D01*
X723215D01*
X724400Y354245D01*
Y355430D01*
X723215Y356615D01*
X719660D01*
X772836Y195409D02*
X771651Y196594D01*
X769281D01*
X768096Y195409D01*
Y190669D01*
X769281Y189484D01*
X771651D01*
X772836Y190669D01*
X775206Y189484D02*
X777576D01*
X776391D01*
Y196594D01*
X775206Y195409D01*
X785870Y189484D02*
X781130D01*
X785870Y194224D01*
Y195409D01*
X784685Y196594D01*
X782315D01*
X781130Y195409D01*
X788240Y196594D02*
X792980D01*
Y195409D01*
X788240Y190669D01*
Y189484D01*
X793921Y284394D02*
X792736Y283209D01*
Y280839D01*
X793921Y279654D01*
X798661D01*
X799846Y280839D01*
Y283209D01*
X798661Y284394D01*
X799846Y286764D02*
Y289134D01*
Y287949D01*
X792736D01*
X793921Y286764D01*
X799846Y297428D02*
Y292688D01*
X795106Y297428D01*
X793921D01*
X792736Y296243D01*
Y293873D01*
X793921Y292688D01*
Y299798D02*
X792736Y300983D01*
Y303353D01*
X793921Y304538D01*
X795106D01*
X796291Y303353D01*
X797476Y304538D01*
X798661D01*
X799846Y303353D01*
Y300983D01*
X798661Y299798D01*
X797476D01*
X796291Y300983D01*
X795106Y299798D01*
X793921D01*
X796291Y300983D02*
Y303353D01*
X16256Y326390D02*
Y333500D01*
X19811D01*
X20996Y332315D01*
Y329945D01*
X19811Y328760D01*
X16256D01*
X28105Y333500D02*
X25736Y332315D01*
X23366Y329945D01*
Y327575D01*
X24551Y326390D01*
X26920D01*
X28105Y327575D01*
Y328760D01*
X26920Y329945D01*
X23366D01*
X454066Y206925D02*
Y211665D01*
X452881Y212850D01*
X450511D01*
X449326Y211665D01*
Y206925D01*
X450511Y205740D01*
X452881D01*
X451696Y208110D02*
X454066Y205740D01*
X452881D02*
X454066Y206925D01*
X456436Y205740D02*
X458806D01*
X457621D01*
Y212850D01*
X456436Y211665D01*
X436286Y83735D02*
Y88475D01*
X435101Y89660D01*
X432731D01*
X431546Y88475D01*
Y83735D01*
X432731Y82550D01*
X435101D01*
X433916Y84920D02*
X436286Y82550D01*
X435101D02*
X436286Y83735D01*
X442211Y82550D02*
Y89660D01*
X438656Y86105D01*
X443396D01*
X503088Y224197D02*
Y228937D01*
X501903Y230122D01*
X499533D01*
X498348Y228937D01*
Y224197D01*
X499533Y223012D01*
X501903D01*
X500718Y225382D02*
X503088Y223012D01*
X501903D02*
X503088Y224197D01*
X510197Y230122D02*
X505458D01*
Y226567D01*
X507828Y227752D01*
X509012D01*
X510197Y226567D01*
Y224197D01*
X509012Y223012D01*
X506643D01*
X505458Y224197D01*
X694436Y270256D02*
X687326D01*
Y273811D01*
X688511Y274996D01*
X690881D01*
X692066Y273811D01*
Y270256D01*
Y272626D02*
X694436Y274996D01*
Y277366D02*
Y279736D01*
Y278551D01*
X687326D01*
X688511Y277366D01*
X598170Y282194D02*
X591060D01*
Y285749D01*
X592245Y286934D01*
X594615D01*
X595800Y285749D01*
Y282194D01*
Y284564D02*
X598170Y286934D01*
Y294044D02*
Y289304D01*
X593430Y294044D01*
X592245D01*
X591060Y292859D01*
Y290489D01*
X592245Y289304D01*
X608076Y282194D02*
X600966D01*
Y285749D01*
X602151Y286934D01*
X604521D01*
X605706Y285749D01*
Y282194D01*
Y284564D02*
X608076Y286934D01*
X602151Y289304D02*
X600966Y290489D01*
Y292859D01*
X602151Y294044D01*
X603336D01*
X604521Y292859D01*
Y291674D01*
Y292859D01*
X605706Y294044D01*
X606891D01*
X608076Y292859D01*
Y290489D01*
X606891Y289304D01*
X831088Y289560D02*
Y296670D01*
X834643D01*
X835828Y295485D01*
Y293115D01*
X834643Y291930D01*
X831088D01*
X833458D02*
X835828Y289560D01*
X841752D02*
Y296670D01*
X838198Y293115D01*
X842937D01*
X874268Y450342D02*
Y457452D01*
X877823D01*
X879008Y456267D01*
Y453897D01*
X877823Y452712D01*
X874268D01*
X876638D02*
X879008Y450342D01*
X886117Y457452D02*
X881378D01*
Y453897D01*
X883748Y455082D01*
X884932D01*
X886117Y453897D01*
Y451527D01*
X884932Y450342D01*
X882563D01*
X881378Y451527D01*
X874522Y440436D02*
Y447546D01*
X878077D01*
X879262Y446361D01*
Y443991D01*
X878077Y442806D01*
X874522D01*
X876892D02*
X879262Y440436D01*
X886372Y447546D02*
X884002Y446361D01*
X881632Y443991D01*
Y441621D01*
X882817Y440436D01*
X885186D01*
X886372Y441621D01*
Y442806D01*
X885186Y443991D01*
X881632D01*
X527812Y145034D02*
X520702D01*
Y148589D01*
X521887Y149774D01*
X524257D01*
X525442Y148589D01*
Y145034D01*
Y147404D02*
X527812Y149774D01*
X520702Y152144D02*
Y156883D01*
X521887D01*
X526627Y152144D01*
X527812D01*
X537718Y145034D02*
X530608D01*
Y148589D01*
X531793Y149774D01*
X534163D01*
X535348Y148589D01*
Y145034D01*
Y147404D02*
X537718Y149774D01*
X531793Y152144D02*
X530608Y153329D01*
Y155698D01*
X531793Y156883D01*
X532978D01*
X534163Y155698D01*
X535348Y156883D01*
X536533D01*
X537718Y155698D01*
Y153329D01*
X536533Y152144D01*
X535348D01*
X534163Y153329D01*
X532978Y152144D01*
X531793D01*
X534163Y153329D02*
Y155698D01*
X510540Y144912D02*
X503430D01*
Y148467D01*
X504615Y149652D01*
X506985D01*
X508170Y148467D01*
Y144912D01*
Y147282D02*
X510540Y149652D01*
X509355Y152022D02*
X510540Y153207D01*
Y155576D01*
X509355Y156762D01*
X504615D01*
X503430Y155576D01*
Y153207D01*
X504615Y152022D01*
X505800D01*
X506985Y153207D01*
Y156762D01*
X493014Y138938D02*
X485904D01*
Y142493D01*
X487089Y143678D01*
X489459D01*
X490644Y142493D01*
Y138938D01*
Y141308D02*
X493014Y143678D01*
Y146048D02*
Y148418D01*
Y147233D01*
X485904D01*
X487089Y146048D01*
Y151972D02*
X485904Y153157D01*
Y155527D01*
X487089Y156712D01*
X491829D01*
X493014Y155527D01*
Y153157D01*
X491829Y151972D01*
X487089D01*
X457454Y63500D02*
Y70610D01*
X461009D01*
X462194Y69425D01*
Y67055D01*
X461009Y65870D01*
X457454D01*
X459824D02*
X462194Y63500D01*
X464564D02*
X466934D01*
X465749D01*
Y70610D01*
X464564Y69425D01*
X470488Y63500D02*
X472858D01*
X471673D01*
Y70610D01*
X470488Y69425D01*
X83312Y581406D02*
X76202D01*
Y584961D01*
X77387Y586146D01*
X79757D01*
X80942Y584961D01*
Y581406D01*
Y583776D02*
X83312Y586146D01*
Y588516D02*
Y590886D01*
Y589701D01*
X76202D01*
X77387Y588516D01*
X83312Y599180D02*
Y594440D01*
X78572Y599180D01*
X77387D01*
X76202Y597995D01*
Y595625D01*
X77387Y594440D01*
X443230Y139446D02*
Y146556D01*
X446785D01*
X447970Y145371D01*
Y143001D01*
X446785Y141816D01*
X443230D01*
X445600D02*
X447970Y139446D01*
X450340D02*
X452710D01*
X451525D01*
Y146556D01*
X450340Y145371D01*
X459819Y139446D02*
Y146556D01*
X456264Y143001D01*
X461004D01*
X790448Y823722D02*
X783338D01*
Y827277D01*
X784523Y828462D01*
X786893D01*
X788078Y827277D01*
Y823722D01*
Y826092D02*
X790448Y828462D01*
Y830832D02*
Y833202D01*
Y832017D01*
X783338D01*
X784523Y830832D01*
X789263Y836756D02*
X790448Y837941D01*
Y840311D01*
X789263Y841496D01*
X784523D01*
X783338Y840311D01*
Y837941D01*
X784523Y836756D01*
X785708D01*
X786893Y837941D01*
Y841496D01*
X84328Y688340D02*
X77218D01*
Y691895D01*
X78403Y693080D01*
X80773D01*
X81958Y691895D01*
Y688340D01*
Y690710D02*
X84328Y693080D01*
Y699005D02*
X77218D01*
X80773Y695450D01*
Y700190D01*
X78403Y702559D02*
X77218Y703744D01*
Y706114D01*
X78403Y707299D01*
X83143D01*
X84328Y706114D01*
Y703744D01*
X83143Y702559D01*
X78403D01*
X742696Y151130D02*
Y158240D01*
X746251D01*
X747436Y157055D01*
Y154685D01*
X746251Y153500D01*
X742696D01*
X745066D02*
X747436Y151130D01*
X753361D02*
Y158240D01*
X749806Y154685D01*
X754546D01*
X760470Y151130D02*
Y158240D01*
X756915Y154685D01*
X761655D01*
X772414Y334264D02*
Y341374D01*
X775969D01*
X777154Y340189D01*
Y337819D01*
X775969Y336634D01*
X772414D01*
X774784D02*
X777154Y334264D01*
X783079D02*
Y341374D01*
X779524Y337819D01*
X784264D01*
X791373Y341374D02*
X786633D01*
Y337819D01*
X789003Y339004D01*
X790188D01*
X791373Y337819D01*
Y335449D01*
X790188Y334264D01*
X787818D01*
X786633Y335449D01*
X792226Y315214D02*
Y322324D01*
X795781D01*
X796966Y321139D01*
Y318769D01*
X795781Y317584D01*
X792226D01*
X794596D02*
X796966Y315214D01*
X802890D02*
Y322324D01*
X799336Y318769D01*
X804075D01*
X811185Y322324D02*
X808815Y321139D01*
X806445Y318769D01*
Y316399D01*
X807630Y315214D01*
X810000D01*
X811185Y316399D01*
Y317584D01*
X810000Y318769D01*
X806445D01*
X592582Y197102D02*
Y191177D01*
X593767Y189992D01*
X596137D01*
X597322Y191177D01*
Y197102D01*
X599692Y195917D02*
X600877Y197102D01*
X603246D01*
X604431Y195917D01*
Y194732D01*
X603246Y193547D01*
X602062D01*
X603246D01*
X604431Y192362D01*
Y191177D01*
X603246Y189992D01*
X600877D01*
X599692Y191177D01*
X790702Y429258D02*
Y423333D01*
X791887Y422148D01*
X794257D01*
X795442Y423333D01*
Y429258D01*
X801367Y422148D02*
Y429258D01*
X797812Y425703D01*
X802551D01*
X80518Y628140D02*
Y622215D01*
X81703Y621030D01*
X84073D01*
X85258Y622215D01*
Y628140D01*
X92367D02*
X87628D01*
Y624585D01*
X89998Y625770D01*
X91182D01*
X92367Y624585D01*
Y622215D01*
X91182Y621030D01*
X88813D01*
X87628Y622215D01*
X80518Y735582D02*
Y729657D01*
X81703Y728472D01*
X84073D01*
X85258Y729657D01*
Y735582D01*
X87628D02*
X92367D01*
Y734397D01*
X87628Y729657D01*
Y728472D01*
X707390Y308862D02*
Y302937D01*
X708575Y301752D01*
X710945D01*
X712130Y302937D01*
Y308862D01*
X714500Y302937D02*
X715685Y301752D01*
X718055D01*
X719240Y302937D01*
Y307677D01*
X718055Y308862D01*
X715685D01*
X714500Y307677D01*
Y306492D01*
X715685Y305307D01*
X719240D01*
X719074Y558546D02*
Y565656D01*
X722629D01*
X723814Y564471D01*
Y562101D01*
X722629Y560916D01*
X719074D01*
X721444D02*
X723814Y558546D01*
X730923Y565656D02*
X728554Y564471D01*
X726184Y562101D01*
Y559731D01*
X727369Y558546D01*
X729738D01*
X730923Y559731D01*
Y560916D01*
X729738Y562101D01*
X726184D01*
X733293Y559731D02*
X734478Y558546D01*
X736848D01*
X738033Y559731D01*
Y564471D01*
X736848Y565656D01*
X734478D01*
X733293Y564471D01*
Y563286D01*
X734478Y562101D01*
X738033D01*
X747522Y440944D02*
X749892D01*
X748707D01*
Y448054D01*
X747522Y446869D01*
X753447Y448054D02*
Y443314D01*
X755817Y440944D01*
X758186Y443314D01*
Y448054D01*
X760556Y446869D02*
X761741Y448054D01*
X764111D01*
X765296Y446869D01*
Y445684D01*
X764111Y444499D01*
X765296Y443314D01*
Y442129D01*
X764111Y440944D01*
X761741D01*
X760556Y442129D01*
Y443314D01*
X761741Y444499D01*
X760556Y445684D01*
Y446869D01*
X761741Y444499D02*
X764111D01*
X666496Y316230D02*
X668866D01*
X667681D01*
Y323340D01*
X666496Y322155D01*
X672421Y323340D02*
Y318600D01*
X674791Y316230D01*
X677160Y318600D01*
Y323340D01*
X684270Y316230D02*
X679530D01*
X684270Y320970D01*
Y322155D01*
X683085Y323340D01*
X680715D01*
X679530Y322155D01*
X686640Y315045D02*
X691380D01*
X693750Y316230D02*
X696120D01*
X694935D01*
Y323340D01*
X693750Y322155D01*
X584708Y282956D02*
Y285326D01*
Y284141D01*
X577598D01*
X578783Y282956D01*
X577598Y288881D02*
X582338D01*
X584708Y291251D01*
X582338Y293620D01*
X577598D01*
X584708Y300730D02*
Y295990D01*
X579968Y300730D01*
X578783D01*
X577598Y299545D01*
Y297175D01*
X578783Y295990D01*
X585893Y303100D02*
Y307840D01*
X578783Y310210D02*
X577598Y311395D01*
Y313765D01*
X578783Y314950D01*
X583523D01*
X584708Y313765D01*
Y311395D01*
X583523Y310210D01*
X578783D01*
X863514Y669036D02*
X858774D01*
X863514Y673776D01*
Y674961D01*
X862329Y676146D01*
X859959D01*
X858774Y674961D01*
X865884Y676146D02*
Y671406D01*
X868254Y669036D01*
X870623Y671406D01*
Y676146D01*
X877733D02*
X872993D01*
Y672591D01*
X875363Y673776D01*
X876548D01*
X877733Y672591D01*
Y670221D01*
X876548Y669036D01*
X874178D01*
X872993Y670221D01*
D70*
X761920Y585540D02*
G03*
X761920Y585540I-1250J0D01*
G01*
X742221Y404455D02*
G03*
X742221Y404455I-1250J0D01*
G01*
X689897D02*
G03*
X689897Y404455I-1250J0D01*
G01*
X108164Y781558D02*
G03*
X108164Y781558I-1250J0D01*
G01*
X56602Y781304D02*
G03*
X56602Y781304I-1250J0D01*
G01*
X498200Y191860D02*
G03*
X498200Y191860I-1250J0D01*
G01*
X480114Y166744D02*
G03*
X480114Y166744I-1250J0D01*
G01*
X461390Y89950D02*
G03*
X461390Y89950I-1250J0D01*
G01*
X718750Y291000D02*
G03*
X718750Y291000I-1250J0D01*
G01*
X74800Y732000D02*
G03*
X74800Y732000I-1250J0D01*
G01*
X73800Y625000D02*
G03*
X73800Y625000I-1250J0D01*
G01*
X612250Y195500D02*
G03*
X612250Y195500I-1250J0D01*
G01*
X236250Y448500D02*
G03*
X236250Y448500I-1250J0D01*
G01*
X526250D02*
G03*
X526250Y448500I-1250J0D01*
G01*
X802250Y411000D02*
G03*
X802250Y411000I-1250J0D01*
G01*
X880090Y521990D02*
G03*
X880090Y521990I-1250J0D01*
G01*
X867680Y714710D02*
G03*
X867680Y714710I-1250J0D01*
G01*
X102780Y353470D02*
G03*
X102780Y353470I-1250J0D01*
G01*
D71*
X64000Y709000D02*
G03*
X64000Y709000I-3000J0D01*
G01*
X63000Y602000D02*
G03*
X63000Y602000I-3000J0D01*
G01*
D72*
X769170Y562540D02*
Y562790D01*
Y562540D02*
X769420D01*
X799920D02*
X800170D01*
Y562790D01*
Y593290D02*
Y593540D01*
X799920D02*
X800170D01*
X769170D02*
X769420D01*
X769170Y593290D02*
Y593540D01*
X764851Y396675D02*
Y401675D01*
X758851D02*
X764851D01*
Y369135D02*
Y374135D01*
X758851Y369135D02*
X764851D01*
X712527Y396675D02*
Y401675D01*
X706527D02*
X712527D01*
Y369135D02*
Y374135D01*
X706527Y369135D02*
X712527D01*
X83034Y784338D02*
Y789338D01*
Y784338D02*
X89034D01*
X83034Y811878D02*
Y816878D01*
X89034D01*
X31472Y784084D02*
Y789084D01*
Y784084D02*
X37472D01*
X31472Y811624D02*
Y816624D01*
X37472D01*
X532270Y209740D02*
Y215740D01*
X527270D02*
X532270D01*
X499730Y209740D02*
Y215740D01*
X504730D01*
X454984Y202064D02*
X460984D01*
X454984Y197064D02*
Y202064D01*
Y169524D02*
X460984D01*
X454984D02*
Y174524D01*
X436260Y92730D02*
Y97730D01*
Y92730D02*
X442260D01*
X436260Y120270D02*
Y125270D01*
X442260D01*
X852130Y1047050D02*
Y1059750D01*
Y1053400D02*
X854670D01*
X726000Y298750D02*
Y304000D01*
X731250D01*
X772750D02*
X778000D01*
Y298750D02*
Y304000D01*
Y252000D02*
Y257250D01*
X772750Y252000D02*
X778000D01*
X726000D02*
X731250D01*
X726000D02*
Y257250D01*
X21000Y719000D02*
X71000D01*
X21000Y693000D02*
X71000D01*
Y719000D01*
X21000Y693000D02*
Y719000D01*
X852130Y966050D02*
Y978750D01*
Y972400D02*
X854670D01*
X99130Y965050D02*
Y977750D01*
Y971400D02*
X101670D01*
X20000Y586000D02*
Y612000D01*
X70000Y586000D02*
Y612000D01*
X20000Y586000D02*
X70000D01*
X20000Y612000D02*
X70000D01*
X723964Y534550D02*
X731964D01*
X723964Y519550D02*
X731964D01*
X598000Y204000D02*
X603250D01*
X598000D02*
Y209250D01*
Y250750D02*
Y256000D01*
X603250D01*
X644750D02*
X650000D01*
Y250750D02*
Y256000D01*
Y204000D02*
Y209250D01*
X644750Y204000D02*
X650000D01*
X316872Y384366D02*
Y392366D01*
X301872Y384366D02*
Y392366D01*
X380000Y455000D02*
Y605000D01*
X230000Y455000D02*
Y605000D01*
X380000D01*
X230000Y455000D02*
X380000D01*
X230000Y456161D02*
X231161Y455000D01*
X99130Y1047050D02*
Y1059750D01*
Y1053400D02*
X101670D01*
X520000Y456161D02*
X521161Y455000D01*
X520000D02*
X670000D01*
X520000Y605000D02*
X670000D01*
X520000Y455000D02*
Y605000D01*
X670000Y455000D02*
Y605000D01*
X809500Y372000D02*
Y377250D01*
Y372000D02*
X814750D01*
X856250D02*
X861500D01*
Y377250D01*
Y418750D02*
Y424000D01*
X856250D02*
X861500D01*
X809500D02*
X814750D01*
X809500Y418750D02*
Y424000D01*
X814070Y525780D02*
Y604520D01*
X875030D01*
X814070Y525780D02*
X875030D01*
Y604520D01*
X857930Y748460D02*
Y753710D01*
X852680D02*
X857930D01*
X805930D02*
X811180D01*
X805930Y748460D02*
Y753710D01*
Y701710D02*
Y706960D01*
Y701710D02*
X811180D01*
X852680D02*
X857930D01*
Y706960D01*
X442588Y549212D02*
Y557212D01*
X457588Y549212D02*
Y557212D01*
X87560Y338210D02*
Y349640D01*
X16440Y338210D02*
X87560D01*
X16440D02*
Y349640D01*
Y533790D02*
X87560D01*
X16440Y522360D02*
Y533790D01*
X87560Y522360D02*
Y533790D01*
M02*
