%FSLAX25Y25*%
%MOIN*%
G70*
G01*
G75*
G04 Layer_Color=8388736*
%ADD10R,0.06693X0.04528*%
%ADD11R,0.07087X0.07087*%
G04:AMPARAMS|DCode=12|XSize=19.69mil|YSize=23.62mil|CornerRadius=4.92mil|HoleSize=0mil|Usage=FLASHONLY|Rotation=90.000|XOffset=0mil|YOffset=0mil|HoleType=Round|Shape=RoundedRectangle|*
%AMROUNDEDRECTD12*
21,1,0.01969,0.01378,0,0,90.0*
21,1,0.00984,0.02362,0,0,90.0*
1,1,0.00984,0.00689,0.00492*
1,1,0.00984,0.00689,-0.00492*
1,1,0.00984,-0.00689,-0.00492*
1,1,0.00984,-0.00689,0.00492*
%
%ADD12ROUNDEDRECTD12*%
%ADD13R,0.04528X0.06693*%
%ADD14C,0.07874*%
%ADD15R,0.02362X0.02362*%
%ADD16R,0.08661X0.05709*%
%ADD17C,0.03937*%
%ADD18C,0.01772*%
%ADD19R,0.47441X0.07874*%
%ADD20R,0.02362X0.02362*%
%ADD21R,0.02362X0.07087*%
G04:AMPARAMS|DCode=22|XSize=19.69mil|YSize=23.62mil|CornerRadius=4.92mil|HoleSize=0mil|Usage=FLASHONLY|Rotation=180.000|XOffset=0mil|YOffset=0mil|HoleType=Round|Shape=RoundedRectangle|*
%AMROUNDEDRECTD22*
21,1,0.01969,0.01378,0,0,180.0*
21,1,0.00984,0.02362,0,0,180.0*
1,1,0.00984,-0.00492,0.00689*
1,1,0.00984,0.00492,0.00689*
1,1,0.00984,0.00492,-0.00689*
1,1,0.00984,-0.00492,-0.00689*
%
%ADD22ROUNDEDRECTD22*%
%ADD23R,0.03740X0.01378*%
%ADD24R,0.01378X0.03740*%
%ADD25R,0.12992X0.12992*%
%ADD26R,0.04528X0.07087*%
%ADD27R,0.01969X0.07874*%
%ADD28R,0.14488X0.05000*%
%ADD29R,0.05512X0.03937*%
%ADD30R,0.03937X0.05512*%
%ADD31R,0.05709X0.08661*%
%ADD32R,0.12992X0.12992*%
%ADD33R,0.04331X0.10236*%
%ADD34R,0.10236X0.04331*%
%ADD35R,0.05512X0.04331*%
%ADD36R,0.04331X0.05512*%
%ADD37C,0.00500*%
%ADD38C,0.01000*%
%ADD39C,0.00800*%
%ADD40C,0.01969*%
%ADD41C,0.01500*%
%ADD42C,0.01200*%
%ADD43C,0.00600*%
%ADD44C,0.02000*%
%ADD45C,0.03740*%
%ADD46R,0.07874X0.07874*%
%ADD47C,0.31496*%
%ADD48C,0.06496*%
%ADD49C,0.05800*%
%ADD50C,0.01940*%
%ADD51C,0.05000*%
%ADD52C,0.02598*%
%ADD53C,0.04000*%
%ADD54C,0.05740*%
%ADD55C,0.06134*%
%ADD56C,0.17000*%
%ADD57C,0.06600*%
%ADD58C,0.08102*%
%ADD59C,0.08000*%
%ADD60C,0.03969*%
%ADD61C,0.03000*%
%ADD62C,0.04800*%
%ADD63C,0.00394*%
%ADD64C,0.00400*%
%ADD65C,0.03299*%
%ADD66C,0.05000*%
%ADD67R,0.01600X0.08500*%
%ADD68R,0.71000X0.02000*%
%ADD69C,0.00984*%
%ADD70C,0.02362*%
%ADD71C,0.00787*%
%ADD72R,0.09095X0.09095*%
%ADD73R,0.09095X0.09095*%
%ADD74R,0.06893X0.04728*%
%ADD75R,0.07287X0.07287*%
G04:AMPARAMS|DCode=76|XSize=21.69mil|YSize=25.62mil|CornerRadius=5.42mil|HoleSize=0mil|Usage=FLASHONLY|Rotation=90.000|XOffset=0mil|YOffset=0mil|HoleType=Round|Shape=RoundedRectangle|*
%AMROUNDEDRECTD76*
21,1,0.02169,0.01478,0,0,90.0*
21,1,0.01084,0.02562,0,0,90.0*
1,1,0.01084,0.00739,0.00542*
1,1,0.01084,0.00739,-0.00542*
1,1,0.01084,-0.00739,-0.00542*
1,1,0.01084,-0.00739,0.00542*
%
%ADD76ROUNDEDRECTD76*%
%ADD77R,0.04728X0.06893*%
%ADD78C,0.15748*%
%ADD79R,0.02562X0.02562*%
%ADD80R,0.08861X0.05909*%
%ADD81C,0.07874*%
%ADD82C,0.01972*%
%ADD83R,0.47241X0.07674*%
%ADD84R,0.02562X0.02562*%
%ADD85R,0.02562X0.07287*%
G04:AMPARAMS|DCode=86|XSize=21.69mil|YSize=25.62mil|CornerRadius=5.42mil|HoleSize=0mil|Usage=FLASHONLY|Rotation=180.000|XOffset=0mil|YOffset=0mil|HoleType=Round|Shape=RoundedRectangle|*
%AMROUNDEDRECTD86*
21,1,0.02169,0.01478,0,0,180.0*
21,1,0.01084,0.02562,0,0,180.0*
1,1,0.01084,-0.00542,0.00739*
1,1,0.01084,0.00542,0.00739*
1,1,0.01084,0.00542,-0.00739*
1,1,0.01084,-0.00542,-0.00739*
%
%ADD86ROUNDEDRECTD86*%
%ADD87R,0.03940X0.01578*%
%ADD88R,0.01578X0.03940*%
%ADD89R,0.13192X0.13192*%
%ADD90R,0.04728X0.07287*%
%ADD91R,0.02169X0.08074*%
%ADD92R,0.14688X0.05200*%
%ADD93R,0.05712X0.04137*%
%ADD94R,0.04137X0.05712*%
%ADD95R,0.05909X0.08861*%
%ADD96R,0.13192X0.13192*%
%ADD97R,0.04531X0.10436*%
%ADD98R,0.10436X0.04531*%
%ADD99R,0.05712X0.04531*%
%ADD100R,0.04531X0.05712*%
%ADD101C,0.31696*%
%ADD102C,0.00200*%
%ADD103C,0.06696*%
%ADD104C,0.06000*%
%ADD105C,0.04137*%
D17*
X4519Y361417D02*
D03*
X287795Y277165D02*
D03*
X292446Y215200D02*
D03*
X291253Y258782D02*
D03*
X278286Y251720D02*
D03*
X279175Y238148D02*
D03*
Y232242D02*
D03*
X229889Y146347D02*
D03*
Y152253D02*
D03*
X236676Y158996D02*
D03*
X236716Y164862D02*
D03*
X169300Y223824D02*
D03*
X190972Y217447D02*
D03*
Y223353D02*
D03*
X190414Y241399D02*
D03*
Y235494D02*
D03*
X163871Y231194D02*
D03*
Y237099D02*
D03*
X133267Y159555D02*
D03*
X121791Y163758D02*
D03*
X109055Y141339D02*
D03*
X115354Y152756D02*
D03*
X304528Y185630D02*
D03*
Y175000D02*
D03*
X317323Y139567D02*
D03*
X347638D02*
D03*
Y128937D02*
D03*
X317323D02*
D03*
X306693Y72047D02*
D03*
X294094D02*
D03*
X285039Y91339D02*
D03*
X271457Y68701D02*
D03*
X260827D02*
D03*
X273000Y131500D02*
D03*
X273076Y121176D02*
D03*
X265945Y116339D02*
D03*
X255315D02*
D03*
X228740Y108661D02*
D03*
X218307Y108465D02*
D03*
D19*
X261602Y333622D02*
D03*
X149397D02*
D03*
D45*
X261563Y258819D02*
D03*
X280460D02*
D03*
X224358D02*
D03*
X205460D02*
D03*
X168255D02*
D03*
X149358D02*
D03*
X93256D02*
D03*
X112153D02*
D03*
X65224Y315118D02*
D03*
X121326D02*
D03*
X233531D02*
D03*
X289633Y315118D02*
D03*
D46*
X65224Y404882D02*
D03*
Y365512D02*
D03*
X65224Y326142D02*
D03*
Y296614D02*
D03*
X65224Y276929D02*
D03*
X233531Y404882D02*
D03*
Y365512D02*
D03*
X233531Y326142D02*
D03*
Y296614D02*
D03*
X233531Y276929D02*
D03*
X121326Y385197D02*
D03*
X289633Y267087D02*
D03*
X289633Y306457D02*
D03*
X289633Y345827D02*
D03*
Y385197D02*
D03*
X177429Y267087D02*
D03*
Y306457D02*
D03*
Y345827D02*
D03*
Y385197D02*
D03*
X121326Y345827D02*
D03*
X121326Y306457D02*
D03*
X121326Y267087D02*
D03*
D50*
X334429Y17429D02*
D03*
X69685Y209055D02*
D03*
X79921Y225984D02*
D03*
X41732Y414567D02*
D03*
X97244Y251575D02*
D03*
X59055Y210236D02*
D03*
X65748Y207087D02*
D03*
X182677Y205512D02*
D03*
X42913Y382283D02*
D03*
X164567Y209055D02*
D03*
X192913Y250787D02*
D03*
X135827Y255118D02*
D03*
Y248031D02*
D03*
Y251969D02*
D03*
X194882Y215354D02*
D03*
X176772Y197244D02*
D03*
X180315Y198031D02*
D03*
X339370Y383071D02*
D03*
X343307Y414567D02*
D03*
X252901Y305571D02*
D03*
X305315Y369685D02*
D03*
X97193Y305571D02*
D03*
X94043Y293169D02*
D03*
X90893Y305571D02*
D03*
X265500D02*
D03*
X262350Y293169D02*
D03*
X259200Y305571D02*
D03*
X209397D02*
D03*
X206248Y293169D02*
D03*
X203098Y305571D02*
D03*
X153295D02*
D03*
X150145Y293169D02*
D03*
X146996Y305571D02*
D03*
X197200Y210598D02*
D03*
X186614Y206693D02*
D03*
X268246Y206472D02*
D03*
X76630Y267909D02*
D03*
X76772Y262134D02*
D03*
X124343Y260252D02*
D03*
X130118Y260394D02*
D03*
X179067Y260252D02*
D03*
X184842Y260394D02*
D03*
X231693Y262362D02*
D03*
X237468Y262504D02*
D03*
X306299Y322505D02*
D03*
X154300Y206400D02*
D03*
Y202463D02*
D03*
X87744Y293169D02*
D03*
X84594Y305571D02*
D03*
X81445Y293169D02*
D03*
X78295Y305571D02*
D03*
X100342D02*
D03*
X103492Y293169D02*
D03*
X106641Y305571D02*
D03*
X248177Y273287D02*
D03*
X257626D02*
D03*
X260775D02*
D03*
X263925D02*
D03*
X267074D02*
D03*
X276523D02*
D03*
X79870D02*
D03*
X89319D02*
D03*
X92468D02*
D03*
X95618D02*
D03*
X98767D02*
D03*
X108216D02*
D03*
X274948Y305571D02*
D03*
X271799Y293169D02*
D03*
X268649Y305571D02*
D03*
X246602D02*
D03*
X249752Y293169D02*
D03*
X256051D02*
D03*
X162744Y305571D02*
D03*
X159594Y293169D02*
D03*
X156445Y305571D02*
D03*
X134397D02*
D03*
X137547Y293169D02*
D03*
X140697Y305571D02*
D03*
X143846Y293169D02*
D03*
X199948D02*
D03*
X196799Y305571D02*
D03*
X193649Y293169D02*
D03*
X190500Y305571D02*
D03*
X212547D02*
D03*
X215697Y293169D02*
D03*
X218846Y305571D02*
D03*
X220421Y273287D02*
D03*
X210972D02*
D03*
X207822D02*
D03*
X204673D02*
D03*
X201523D02*
D03*
X192074D02*
D03*
X164319D02*
D03*
X154870D02*
D03*
X151720D02*
D03*
X148571D02*
D03*
X145421D02*
D03*
X135972D02*
D03*
X180206Y69096D02*
D03*
X203150Y88709D02*
D03*
X188868Y80939D02*
D03*
X210941Y75197D02*
D03*
X179921Y62894D02*
D03*
X175984D02*
D03*
X205429Y42829D02*
D03*
X275590Y104331D02*
D03*
X31102Y220098D02*
D03*
Y261831D02*
D03*
X10610Y260846D02*
D03*
X15610D02*
D03*
X20610D02*
D03*
X25610D02*
D03*
X10610Y295059D02*
D03*
X15610D02*
D03*
X20610D02*
D03*
X20216Y252933D02*
D03*
X15216D02*
D03*
X10216D02*
D03*
X25216Y218721D02*
D03*
X15216D02*
D03*
X10216D02*
D03*
X35433Y196968D02*
D03*
Y186969D02*
D03*
Y176969D02*
D03*
Y166969D02*
D03*
Y156968D02*
D03*
Y146968D02*
D03*
Y136969D02*
D03*
X9843D02*
D03*
Y146968D02*
D03*
Y156968D02*
D03*
Y166969D02*
D03*
Y176969D02*
D03*
Y186969D02*
D03*
Y196968D02*
D03*
X297441Y213976D02*
D03*
X301575D02*
D03*
X325689Y118898D02*
D03*
X296949Y63779D02*
D03*
X311811Y143602D02*
D03*
X342174Y154144D02*
D03*
X334646Y171260D02*
D03*
X309300Y106900D02*
D03*
X309400Y100600D02*
D03*
X309900Y122200D02*
D03*
X329429Y13529D02*
D03*
X314429D02*
D03*
X296900Y13500D02*
D03*
X281929Y13529D02*
D03*
X245300Y13500D02*
D03*
X230500D02*
D03*
X212929Y13571D02*
D03*
X198000Y13500D02*
D03*
X118929Y54471D02*
D03*
X19929Y17471D02*
D03*
X27429Y17429D02*
D03*
X34929Y17529D02*
D03*
X42429Y17429D02*
D03*
X49929D02*
D03*
X59929Y17471D02*
D03*
X67429D02*
D03*
X74929Y17429D02*
D03*
X82429D02*
D03*
Y54471D02*
D03*
X42429Y54429D02*
D03*
X34929D02*
D03*
X27429D02*
D03*
X19900Y54500D02*
D03*
X25249Y29300D02*
D03*
X22109D02*
D03*
X29609Y33000D02*
D03*
X40249Y29300D02*
D03*
X37109D02*
D03*
X80249D02*
D03*
X77109D02*
D03*
X72749Y33000D02*
D03*
X69609D02*
D03*
X65249Y29300D02*
D03*
X57749Y33100D02*
D03*
X54609D02*
D03*
X106109Y29300D02*
D03*
X109249D02*
D03*
X113609Y33000D02*
D03*
X116749D02*
D03*
X121109Y29300D02*
D03*
X124249D02*
D03*
X128609Y33000D02*
D03*
X131749D02*
D03*
X32749D02*
D03*
X44609Y33100D02*
D03*
X47749D02*
D03*
X161109Y29200D02*
D03*
X164249D02*
D03*
X138609Y32900D02*
D03*
X141749D02*
D03*
X146109Y29200D02*
D03*
X149249D02*
D03*
X153609Y33000D02*
D03*
X156749D02*
D03*
X103929Y54429D02*
D03*
X111429Y54471D02*
D03*
X126429Y54429D02*
D03*
X136429Y54471D02*
D03*
X143929D02*
D03*
X158929D02*
D03*
X166429Y54429D02*
D03*
X103929Y17471D02*
D03*
X111429Y17429D02*
D03*
X118929D02*
D03*
X126429D02*
D03*
X133929Y17471D02*
D03*
X143929Y17429D02*
D03*
X151429D02*
D03*
X158929Y17471D02*
D03*
X166429Y17429D02*
D03*
X187929Y54471D02*
D03*
X195429D02*
D03*
X202929D02*
D03*
X210429D02*
D03*
X217929D02*
D03*
X227929D02*
D03*
X235429D02*
D03*
X187929Y17429D02*
D03*
X202929Y17471D02*
D03*
X217929Y17429D02*
D03*
X225429Y42929D02*
D03*
X237929D02*
D03*
X190429Y28929D02*
D03*
X205429D02*
D03*
X136429D02*
D03*
X133929Y43029D02*
D03*
X220429Y42929D02*
D03*
X222929Y54471D02*
D03*
X240429D02*
D03*
X242929Y42929D02*
D03*
X52429Y28971D02*
D03*
X49929Y42900D02*
D03*
X192929Y17429D02*
D03*
X195429Y28871D02*
D03*
X207929Y17429D02*
D03*
X210429Y28871D02*
D03*
X220429Y28829D02*
D03*
X222929Y17429D02*
D03*
X225429Y28871D02*
D03*
X227929Y17571D02*
D03*
X235429Y17471D02*
D03*
X237929Y28871D02*
D03*
X240429Y17429D02*
D03*
X242929Y28829D02*
D03*
X250429Y17471D02*
D03*
X271929Y54471D02*
D03*
X274429Y42929D02*
D03*
X279429Y54429D02*
D03*
X286929D02*
D03*
X294429D02*
D03*
X301929Y54471D02*
D03*
X304429Y42929D02*
D03*
X306929Y54471D02*
D03*
X309429Y42929D02*
D03*
X311929Y54471D02*
D03*
X319429D02*
D03*
X321929Y42929D02*
D03*
X324429Y54471D02*
D03*
X326929Y42929D02*
D03*
X271929Y17429D02*
D03*
X274429Y28871D02*
D03*
X276929Y17429D02*
D03*
X279429Y28871D02*
D03*
X286929Y17429D02*
D03*
X289429Y28871D02*
D03*
X291929Y17529D02*
D03*
X294429Y28871D02*
D03*
X301929Y17471D02*
D03*
X304429Y28871D02*
D03*
X306929Y17429D02*
D03*
X309429Y28871D02*
D03*
X311929Y17429D02*
D03*
X319429Y17471D02*
D03*
X321929Y28871D02*
D03*
X324429Y17429D02*
D03*
X326929Y28871D02*
D03*
X151429Y54471D02*
D03*
X74929Y54429D02*
D03*
X67429D02*
D03*
X59929Y54471D02*
D03*
X52429Y54371D02*
D03*
X62109Y29300D02*
D03*
X249213Y109449D02*
D03*
X270472Y85433D02*
D03*
X279134Y96063D02*
D03*
X340250Y48650D02*
D03*
X75800Y169800D02*
D03*
X179500Y169900D02*
D03*
X251400Y169800D02*
D03*
X184900Y72800D02*
D03*
X183600Y77500D02*
D03*
X209400Y90100D02*
D03*
X213700Y95900D02*
D03*
D51*
X306299Y96457D02*
D03*
D74*
X121800Y158313D02*
D03*
Y147487D02*
D03*
X177200Y212387D02*
D03*
Y223213D02*
D03*
D75*
X306594Y226220D02*
D03*
Y236221D02*
D03*
Y246220D02*
D03*
X291831D02*
D03*
Y236221D02*
D03*
Y226220D02*
D03*
X41043Y246220D02*
D03*
Y236221D02*
D03*
Y226220D02*
D03*
X55807D02*
D03*
Y236221D02*
D03*
Y246220D02*
D03*
D76*
X278532Y241900D02*
D03*
X282469D02*
D03*
X278532Y246000D02*
D03*
X282469D02*
D03*
X71668Y233500D02*
D03*
X67731D02*
D03*
X71668Y228800D02*
D03*
X67731D02*
D03*
X297638Y217323D02*
D03*
X301575D02*
D03*
X50787Y216535D02*
D03*
X46850D02*
D03*
X315748Y146457D02*
D03*
X311811D02*
D03*
X242913Y106693D02*
D03*
X246850D02*
D03*
X262992Y85433D02*
D03*
X266929D02*
D03*
X286614Y96063D02*
D03*
X282677D02*
D03*
D77*
X281187Y207500D02*
D03*
X292013D02*
D03*
D78*
X21654Y118110D02*
D03*
X246063Y66929D02*
D03*
X344488Y374016D02*
D03*
X45276Y364961D02*
D03*
D79*
X306300Y325832D02*
D03*
Y329768D02*
D03*
X206299Y67716D02*
D03*
Y63779D02*
D03*
X210236Y67716D02*
D03*
Y63779D02*
D03*
X195669Y67716D02*
D03*
Y63779D02*
D03*
X200000Y67716D02*
D03*
Y63779D02*
D03*
X31102Y227165D02*
D03*
Y223228D02*
D03*
Y268898D02*
D03*
Y264961D02*
D03*
X300000Y63779D02*
D03*
Y67716D02*
D03*
X272047Y104331D02*
D03*
Y100394D02*
D03*
X237795Y105118D02*
D03*
Y109055D02*
D03*
X234252Y109055D02*
D03*
Y105118D02*
D03*
D80*
X326575Y185433D02*
D03*
Y175197D02*
D03*
X293307Y136614D02*
D03*
Y126378D02*
D03*
D81*
X198819Y173228D02*
D03*
X269685Y244094D02*
D03*
X84646Y173228D02*
D03*
X155512Y244094D02*
D03*
D82*
X208661Y183071D02*
D03*
Y187008D02*
D03*
Y190945D02*
D03*
Y194882D02*
D03*
Y198819D02*
D03*
Y202756D02*
D03*
Y206693D02*
D03*
Y210630D02*
D03*
Y214567D02*
D03*
Y218504D02*
D03*
Y222441D02*
D03*
Y226378D02*
D03*
Y230315D02*
D03*
Y234252D02*
D03*
X212598Y183071D02*
D03*
Y187008D02*
D03*
Y190945D02*
D03*
Y194882D02*
D03*
Y198819D02*
D03*
Y202756D02*
D03*
Y206693D02*
D03*
Y210630D02*
D03*
Y214567D02*
D03*
Y218504D02*
D03*
Y222441D02*
D03*
Y226378D02*
D03*
Y230315D02*
D03*
Y234252D02*
D03*
X216535Y183071D02*
D03*
Y187008D02*
D03*
Y190945D02*
D03*
Y194882D02*
D03*
Y198819D02*
D03*
Y202756D02*
D03*
Y206693D02*
D03*
Y210630D02*
D03*
Y214567D02*
D03*
Y218504D02*
D03*
Y222441D02*
D03*
Y226378D02*
D03*
Y230315D02*
D03*
Y234252D02*
D03*
X220472Y183071D02*
D03*
Y187008D02*
D03*
Y190945D02*
D03*
Y194882D02*
D03*
Y198819D02*
D03*
Y202756D02*
D03*
Y206693D02*
D03*
Y210630D02*
D03*
Y214567D02*
D03*
Y218504D02*
D03*
Y222441D02*
D03*
Y226378D02*
D03*
Y230315D02*
D03*
Y234252D02*
D03*
X224410Y183071D02*
D03*
Y187008D02*
D03*
Y190945D02*
D03*
Y194882D02*
D03*
Y198819D02*
D03*
Y202756D02*
D03*
Y206693D02*
D03*
Y210630D02*
D03*
Y214567D02*
D03*
Y218504D02*
D03*
Y222441D02*
D03*
Y226378D02*
D03*
Y230315D02*
D03*
Y234252D02*
D03*
X228346Y183071D02*
D03*
Y187008D02*
D03*
Y190945D02*
D03*
Y194882D02*
D03*
Y198819D02*
D03*
Y202756D02*
D03*
Y206693D02*
D03*
Y210630D02*
D03*
Y214567D02*
D03*
Y218504D02*
D03*
Y222441D02*
D03*
Y226378D02*
D03*
Y230315D02*
D03*
Y234252D02*
D03*
X232283Y183071D02*
D03*
Y187008D02*
D03*
Y190945D02*
D03*
Y194882D02*
D03*
Y198819D02*
D03*
Y202756D02*
D03*
Y206693D02*
D03*
Y210630D02*
D03*
Y214567D02*
D03*
Y218504D02*
D03*
Y222441D02*
D03*
Y226378D02*
D03*
Y230315D02*
D03*
Y234252D02*
D03*
X236221Y183071D02*
D03*
Y187008D02*
D03*
Y190945D02*
D03*
Y194882D02*
D03*
Y198819D02*
D03*
Y202756D02*
D03*
Y206693D02*
D03*
Y210630D02*
D03*
Y214567D02*
D03*
Y218504D02*
D03*
Y222441D02*
D03*
Y226378D02*
D03*
Y230315D02*
D03*
Y234252D02*
D03*
X240158Y183071D02*
D03*
Y187008D02*
D03*
Y190945D02*
D03*
Y194882D02*
D03*
Y198819D02*
D03*
Y202756D02*
D03*
Y206693D02*
D03*
Y210630D02*
D03*
Y214567D02*
D03*
Y218504D02*
D03*
Y222441D02*
D03*
Y226378D02*
D03*
Y230315D02*
D03*
Y234252D02*
D03*
X244094Y183071D02*
D03*
Y187008D02*
D03*
Y190945D02*
D03*
Y194882D02*
D03*
Y198819D02*
D03*
Y202756D02*
D03*
Y206693D02*
D03*
Y210630D02*
D03*
Y214567D02*
D03*
Y218504D02*
D03*
Y222441D02*
D03*
Y226378D02*
D03*
Y230315D02*
D03*
Y234252D02*
D03*
X248031Y183071D02*
D03*
Y187008D02*
D03*
Y190945D02*
D03*
Y194882D02*
D03*
Y198819D02*
D03*
Y202756D02*
D03*
Y206693D02*
D03*
Y210630D02*
D03*
Y214567D02*
D03*
Y218504D02*
D03*
Y222441D02*
D03*
Y226378D02*
D03*
Y230315D02*
D03*
Y234252D02*
D03*
X251969Y183071D02*
D03*
Y187008D02*
D03*
Y190945D02*
D03*
Y194882D02*
D03*
Y198819D02*
D03*
Y202756D02*
D03*
Y206693D02*
D03*
Y210630D02*
D03*
Y214567D02*
D03*
Y218504D02*
D03*
Y222441D02*
D03*
Y226378D02*
D03*
Y230315D02*
D03*
Y234252D02*
D03*
X255906Y183071D02*
D03*
Y187008D02*
D03*
Y190945D02*
D03*
Y194882D02*
D03*
Y198819D02*
D03*
Y202756D02*
D03*
Y206693D02*
D03*
Y210630D02*
D03*
Y214567D02*
D03*
Y218504D02*
D03*
Y222441D02*
D03*
Y226378D02*
D03*
Y230315D02*
D03*
Y234252D02*
D03*
X259842Y183071D02*
D03*
Y187008D02*
D03*
Y190945D02*
D03*
Y194882D02*
D03*
Y198819D02*
D03*
Y202756D02*
D03*
Y206693D02*
D03*
Y210630D02*
D03*
Y214567D02*
D03*
Y218504D02*
D03*
Y222441D02*
D03*
Y226378D02*
D03*
Y230315D02*
D03*
Y234252D02*
D03*
X94488Y183071D02*
D03*
Y187008D02*
D03*
Y190945D02*
D03*
Y194882D02*
D03*
Y198819D02*
D03*
Y202756D02*
D03*
Y206693D02*
D03*
Y210630D02*
D03*
Y214567D02*
D03*
Y218504D02*
D03*
Y222441D02*
D03*
Y226378D02*
D03*
Y230315D02*
D03*
Y234252D02*
D03*
X98425Y183071D02*
D03*
Y187008D02*
D03*
Y190945D02*
D03*
Y194882D02*
D03*
Y198819D02*
D03*
Y202756D02*
D03*
Y206693D02*
D03*
Y210630D02*
D03*
Y214567D02*
D03*
Y218504D02*
D03*
Y222441D02*
D03*
Y226378D02*
D03*
Y230315D02*
D03*
Y234252D02*
D03*
X102362Y183071D02*
D03*
Y187008D02*
D03*
Y190945D02*
D03*
Y194882D02*
D03*
Y198819D02*
D03*
Y202756D02*
D03*
Y206693D02*
D03*
Y210630D02*
D03*
Y214567D02*
D03*
Y218504D02*
D03*
Y222441D02*
D03*
Y226378D02*
D03*
Y230315D02*
D03*
Y234252D02*
D03*
X106299Y183071D02*
D03*
Y187008D02*
D03*
Y190945D02*
D03*
Y194882D02*
D03*
Y198819D02*
D03*
Y202756D02*
D03*
Y206693D02*
D03*
Y210630D02*
D03*
Y214567D02*
D03*
Y218504D02*
D03*
Y222441D02*
D03*
Y226378D02*
D03*
Y230315D02*
D03*
Y234252D02*
D03*
X110236Y183071D02*
D03*
Y187008D02*
D03*
Y190945D02*
D03*
Y194882D02*
D03*
Y198819D02*
D03*
Y202756D02*
D03*
Y206693D02*
D03*
Y210630D02*
D03*
Y214567D02*
D03*
Y218504D02*
D03*
Y222441D02*
D03*
Y226378D02*
D03*
Y230315D02*
D03*
Y234252D02*
D03*
X114173Y183071D02*
D03*
Y187008D02*
D03*
Y190945D02*
D03*
Y194882D02*
D03*
Y198819D02*
D03*
Y202756D02*
D03*
Y206693D02*
D03*
Y210630D02*
D03*
Y214567D02*
D03*
Y218504D02*
D03*
Y222441D02*
D03*
Y226378D02*
D03*
Y230315D02*
D03*
Y234252D02*
D03*
X118110Y183071D02*
D03*
Y187008D02*
D03*
Y190945D02*
D03*
Y194882D02*
D03*
Y198819D02*
D03*
Y202756D02*
D03*
Y206693D02*
D03*
Y210630D02*
D03*
Y214567D02*
D03*
Y218504D02*
D03*
Y222441D02*
D03*
Y226378D02*
D03*
Y230315D02*
D03*
Y234252D02*
D03*
X122047Y183071D02*
D03*
Y187008D02*
D03*
Y190945D02*
D03*
Y194882D02*
D03*
Y198819D02*
D03*
Y202756D02*
D03*
Y206693D02*
D03*
Y210630D02*
D03*
Y214567D02*
D03*
Y218504D02*
D03*
Y222441D02*
D03*
Y226378D02*
D03*
Y230315D02*
D03*
Y234252D02*
D03*
X125984Y183071D02*
D03*
Y187008D02*
D03*
Y190945D02*
D03*
Y194882D02*
D03*
Y198819D02*
D03*
Y202756D02*
D03*
Y206693D02*
D03*
Y210630D02*
D03*
Y214567D02*
D03*
Y218504D02*
D03*
Y222441D02*
D03*
Y226378D02*
D03*
Y230315D02*
D03*
Y234252D02*
D03*
X129921Y183071D02*
D03*
Y187008D02*
D03*
Y190945D02*
D03*
Y194882D02*
D03*
Y198819D02*
D03*
Y202756D02*
D03*
Y206693D02*
D03*
Y210630D02*
D03*
Y214567D02*
D03*
Y218504D02*
D03*
Y222441D02*
D03*
Y226378D02*
D03*
Y230315D02*
D03*
Y234252D02*
D03*
X133858Y183071D02*
D03*
Y187008D02*
D03*
Y190945D02*
D03*
Y194882D02*
D03*
Y198819D02*
D03*
Y202756D02*
D03*
Y206693D02*
D03*
Y210630D02*
D03*
Y214567D02*
D03*
Y218504D02*
D03*
Y222441D02*
D03*
Y226378D02*
D03*
Y230315D02*
D03*
Y234252D02*
D03*
X137795Y183071D02*
D03*
Y187008D02*
D03*
Y190945D02*
D03*
Y194882D02*
D03*
Y198819D02*
D03*
Y202756D02*
D03*
Y206693D02*
D03*
Y210630D02*
D03*
Y214567D02*
D03*
Y218504D02*
D03*
Y222441D02*
D03*
Y226378D02*
D03*
Y230315D02*
D03*
Y234252D02*
D03*
X141732Y183071D02*
D03*
Y187008D02*
D03*
Y190945D02*
D03*
Y194882D02*
D03*
Y198819D02*
D03*
Y202756D02*
D03*
Y206693D02*
D03*
Y210630D02*
D03*
Y214567D02*
D03*
Y218504D02*
D03*
Y222441D02*
D03*
Y226378D02*
D03*
Y230315D02*
D03*
Y234252D02*
D03*
X145669Y183071D02*
D03*
Y187008D02*
D03*
Y190945D02*
D03*
Y194882D02*
D03*
Y198819D02*
D03*
Y202756D02*
D03*
Y206693D02*
D03*
Y210630D02*
D03*
Y214567D02*
D03*
Y218504D02*
D03*
Y222441D02*
D03*
Y226378D02*
D03*
Y230315D02*
D03*
Y234252D02*
D03*
D83*
X205500Y333622D02*
D03*
X93275D02*
D03*
D84*
X181496Y29921D02*
D03*
X185433D02*
D03*
X179921Y59842D02*
D03*
X175984D02*
D03*
X328740Y118898D02*
D03*
X332677D02*
D03*
X338189Y178740D02*
D03*
X342126D02*
D03*
X342126Y174803D02*
D03*
X338189D02*
D03*
X309842Y129528D02*
D03*
X305906D02*
D03*
X305906Y125591D02*
D03*
X309842D02*
D03*
X12992Y381653D02*
D03*
X9055D02*
D03*
X12992Y411575D02*
D03*
X9055D02*
D03*
X309055D02*
D03*
X305118D02*
D03*
X309055Y383228D02*
D03*
X305118D02*
D03*
D85*
X10610Y267717D02*
D03*
X15610D02*
D03*
X20610D02*
D03*
X25610D02*
D03*
X10610Y288189D02*
D03*
X15610D02*
D03*
X20610D02*
D03*
X25610D02*
D03*
X10216Y225590D02*
D03*
X15216D02*
D03*
X20216D02*
D03*
X25216D02*
D03*
X10216Y246063D02*
D03*
X15216D02*
D03*
X20216D02*
D03*
X25216D02*
D03*
D86*
X345669Y161024D02*
D03*
Y157087D02*
D03*
X310236Y114567D02*
D03*
Y118504D02*
D03*
D87*
X319390Y161811D02*
D03*
Y159252D02*
D03*
Y156693D02*
D03*
Y154134D02*
D03*
Y151575D02*
D03*
X338484D02*
D03*
Y154134D02*
D03*
Y156693D02*
D03*
Y159252D02*
D03*
Y161811D02*
D03*
X255217Y85433D02*
D03*
Y87992D02*
D03*
Y90551D02*
D03*
Y93110D02*
D03*
Y95669D02*
D03*
X236122D02*
D03*
Y93110D02*
D03*
Y90551D02*
D03*
Y87992D02*
D03*
Y85433D02*
D03*
X286516Y114567D02*
D03*
Y112008D02*
D03*
Y109449D02*
D03*
Y106890D02*
D03*
Y104331D02*
D03*
X305610D02*
D03*
Y106890D02*
D03*
Y109449D02*
D03*
Y112008D02*
D03*
Y114567D02*
D03*
D88*
X323819Y147146D02*
D03*
X326378D02*
D03*
X328937D02*
D03*
X331496D02*
D03*
X334055D02*
D03*
Y166240D02*
D03*
X331496D02*
D03*
X328937D02*
D03*
X326378D02*
D03*
X323819D02*
D03*
X240551Y81004D02*
D03*
X243110D02*
D03*
X245669D02*
D03*
X248228D02*
D03*
X250787D02*
D03*
Y100098D02*
D03*
X248228D02*
D03*
X245669D02*
D03*
X243110D02*
D03*
X240551D02*
D03*
X290945Y99902D02*
D03*
X293504D02*
D03*
X296063D02*
D03*
X298622D02*
D03*
X301181D02*
D03*
Y118996D02*
D03*
X298622D02*
D03*
X296063D02*
D03*
X293504D02*
D03*
X290945D02*
D03*
D89*
X328937Y156693D02*
D03*
X296063Y109449D02*
D03*
D90*
X23622Y382441D02*
D03*
X35433D02*
D03*
X23622Y414724D02*
D03*
X35433D02*
D03*
X320079Y382835D02*
D03*
X331890D02*
D03*
X320079Y414724D02*
D03*
X331890D02*
D03*
D91*
X164319Y267087D02*
D03*
X135972D02*
D03*
X139122D02*
D03*
X142271D02*
D03*
X145421D02*
D03*
X148571D02*
D03*
X151720D02*
D03*
X154870D02*
D03*
X158019D02*
D03*
X161169D02*
D03*
X159594Y299370D02*
D03*
X156445D02*
D03*
X153295D02*
D03*
X150145D02*
D03*
X146996D02*
D03*
X143846D02*
D03*
X140697D02*
D03*
X137547D02*
D03*
X134397D02*
D03*
X162744Y299370D02*
D03*
X108216Y267087D02*
D03*
X79870D02*
D03*
X83019D02*
D03*
X86169D02*
D03*
X89319D02*
D03*
X92468D02*
D03*
X95618D02*
D03*
X98767D02*
D03*
X101917D02*
D03*
X105067D02*
D03*
X103492Y299370D02*
D03*
X100342D02*
D03*
X97193D02*
D03*
X94043D02*
D03*
X90893D02*
D03*
X87744D02*
D03*
X84594D02*
D03*
X81445D02*
D03*
X78295D02*
D03*
X106641Y299370D02*
D03*
X276523Y267087D02*
D03*
X248177D02*
D03*
X251326D02*
D03*
X254476D02*
D03*
X257626D02*
D03*
X260775D02*
D03*
X263925D02*
D03*
X267074D02*
D03*
X270224D02*
D03*
X273374D02*
D03*
X271799Y299370D02*
D03*
X268649D02*
D03*
X265500D02*
D03*
X262350D02*
D03*
X259200D02*
D03*
X256051D02*
D03*
X252901D02*
D03*
X249752D02*
D03*
X246602D02*
D03*
X274948Y299370D02*
D03*
X220421Y267087D02*
D03*
X192074D02*
D03*
X195224D02*
D03*
X198374D02*
D03*
X201523D02*
D03*
X204673D02*
D03*
X207822D02*
D03*
X210972D02*
D03*
X214122D02*
D03*
X217271D02*
D03*
X215697Y299370D02*
D03*
X212547D02*
D03*
X209397D02*
D03*
X206248D02*
D03*
X203098D02*
D03*
X199948D02*
D03*
X196799D02*
D03*
X193649D02*
D03*
X190500D02*
D03*
X218846Y299370D02*
D03*
D92*
X30217Y161653D02*
D03*
Y151654D02*
D03*
Y141654D02*
D03*
Y191654D02*
D03*
Y181653D02*
D03*
Y171653D02*
D03*
Y201654D02*
D03*
X10728D02*
D03*
Y171653D02*
D03*
Y181653D02*
D03*
Y191654D02*
D03*
Y141654D02*
D03*
Y151654D02*
D03*
Y161653D02*
D03*
D93*
X181496Y39173D02*
D03*
Y46654D02*
D03*
X172835Y42913D02*
D03*
X188868Y69407D02*
D03*
Y76887D02*
D03*
X180206Y73147D02*
D03*
D94*
X199409Y75197D02*
D03*
X206890D02*
D03*
X203150Y83858D02*
D03*
D95*
X218504Y87402D02*
D03*
X228740D02*
D03*
D96*
X245669Y90551D02*
D03*
D97*
X271457Y77165D02*
D03*
X260827D02*
D03*
X218285Y100600D02*
D03*
X228915D02*
D03*
X265945Y107874D02*
D03*
X255315D02*
D03*
D98*
X325590Y128937D02*
D03*
Y139567D02*
D03*
X339370Y128937D02*
D03*
Y139567D02*
D03*
X313583Y185630D02*
D03*
Y175000D02*
D03*
X294094Y80512D02*
D03*
Y91142D02*
D03*
X280315Y136024D02*
D03*
Y125394D02*
D03*
X306693Y80512D02*
D03*
Y91142D02*
D03*
D99*
X114500Y147253D02*
D03*
Y141347D02*
D03*
X185500Y223353D02*
D03*
Y217447D02*
D03*
X169300Y212447D02*
D03*
Y218353D02*
D03*
X292700Y200053D02*
D03*
Y194147D02*
D03*
D100*
X281447Y215200D02*
D03*
X287353D02*
D03*
D101*
X24829Y347150D02*
D03*
X329514D02*
D03*
X24829Y87450D02*
D03*
X329514D02*
D03*
D102*
X343600Y27900D02*
D03*
X10600D02*
D03*
D103*
X130460Y283228D02*
D03*
X168255D02*
D03*
X74358D02*
D03*
X112153D02*
D03*
X242665D02*
D03*
X280460D02*
D03*
X186563D02*
D03*
X224358D02*
D03*
D104*
X38189Y403071D02*
D03*
Y393071D02*
D03*
X334646Y403071D02*
D03*
Y393071D02*
D03*
D105*
X336221Y115354D02*
D03*
X300394Y73228D02*
D03*
X168300Y202100D02*
D03*
X283071Y223622D02*
D03*
X268504Y94095D02*
D03*
M02*
