%FSLAX25Y25*%
%MOIN*%
G70*
G01*
G75*
G04 Layer_Color=32896*
%ADD10R,0.06693X0.04528*%
%ADD11R,0.07087X0.07087*%
G04:AMPARAMS|DCode=12|XSize=19.69mil|YSize=23.62mil|CornerRadius=4.92mil|HoleSize=0mil|Usage=FLASHONLY|Rotation=90.000|XOffset=0mil|YOffset=0mil|HoleType=Round|Shape=RoundedRectangle|*
%AMROUNDEDRECTD12*
21,1,0.01969,0.01378,0,0,90.0*
21,1,0.00984,0.02362,0,0,90.0*
1,1,0.00984,0.00689,0.00492*
1,1,0.00984,0.00689,-0.00492*
1,1,0.00984,-0.00689,-0.00492*
1,1,0.00984,-0.00689,0.00492*
%
%ADD12ROUNDEDRECTD12*%
%ADD13R,0.04528X0.06693*%
%ADD14C,0.07874*%
%ADD15R,0.02362X0.02362*%
%ADD16R,0.08661X0.05709*%
%ADD17C,0.03937*%
%ADD18C,0.01772*%
%ADD19R,0.47441X0.07874*%
%ADD20R,0.02362X0.02362*%
%ADD21R,0.02362X0.07087*%
G04:AMPARAMS|DCode=22|XSize=19.69mil|YSize=23.62mil|CornerRadius=4.92mil|HoleSize=0mil|Usage=FLASHONLY|Rotation=180.000|XOffset=0mil|YOffset=0mil|HoleType=Round|Shape=RoundedRectangle|*
%AMROUNDEDRECTD22*
21,1,0.01969,0.01378,0,0,180.0*
21,1,0.00984,0.02362,0,0,180.0*
1,1,0.00984,-0.00492,0.00689*
1,1,0.00984,0.00492,0.00689*
1,1,0.00984,0.00492,-0.00689*
1,1,0.00984,-0.00492,-0.00689*
%
%ADD22ROUNDEDRECTD22*%
%ADD23R,0.03740X0.01378*%
%ADD24R,0.01378X0.03740*%
%ADD25R,0.12992X0.12992*%
%ADD26R,0.04528X0.07087*%
%ADD27R,0.01969X0.07874*%
%ADD28R,0.14488X0.05000*%
%ADD29R,0.05512X0.03937*%
%ADD30R,0.03937X0.05512*%
%ADD31R,0.05709X0.08661*%
%ADD32R,0.12992X0.12992*%
%ADD33R,0.04331X0.10236*%
%ADD34R,0.10236X0.04331*%
%ADD35R,0.05512X0.04331*%
%ADD36R,0.04331X0.05512*%
%ADD37C,0.00500*%
%ADD38C,0.01000*%
%ADD39C,0.00800*%
%ADD40C,0.01969*%
%ADD41C,0.01500*%
%ADD42C,0.01200*%
%ADD43C,0.00600*%
%ADD44C,0.02000*%
%ADD45C,0.03740*%
%ADD46R,0.07874X0.07874*%
%ADD47C,0.31496*%
%ADD48C,0.06496*%
%ADD49C,0.05800*%
%ADD50C,0.01940*%
%ADD51C,0.05000*%
%ADD52C,0.02598*%
%ADD53C,0.04000*%
%ADD54C,0.05740*%
%ADD55C,0.06134*%
%ADD56C,0.17000*%
%ADD57C,0.06600*%
%ADD58C,0.08102*%
%ADD59C,0.08000*%
%ADD60C,0.03969*%
%ADD61C,0.03000*%
%ADD62C,0.04800*%
%ADD63C,0.00394*%
%ADD64C,0.00400*%
%ADD65C,0.03299*%
%ADD66C,0.05000*%
%ADD67R,0.01600X0.08500*%
%ADD68R,0.71000X0.02000*%
%ADD69C,0.00984*%
%ADD70C,0.02362*%
%ADD71C,0.00787*%
%ADD72R,0.09095X0.09095*%
%ADD73R,0.09095X0.09095*%
%ADD74R,0.06893X0.04728*%
%ADD75R,0.07287X0.07287*%
G04:AMPARAMS|DCode=76|XSize=21.69mil|YSize=25.62mil|CornerRadius=5.42mil|HoleSize=0mil|Usage=FLASHONLY|Rotation=90.000|XOffset=0mil|YOffset=0mil|HoleType=Round|Shape=RoundedRectangle|*
%AMROUNDEDRECTD76*
21,1,0.02169,0.01478,0,0,90.0*
21,1,0.01084,0.02562,0,0,90.0*
1,1,0.01084,0.00739,0.00542*
1,1,0.01084,0.00739,-0.00542*
1,1,0.01084,-0.00739,-0.00542*
1,1,0.01084,-0.00739,0.00542*
%
%ADD76ROUNDEDRECTD76*%
%ADD77R,0.04728X0.06893*%
%ADD78C,0.15748*%
%ADD79R,0.02562X0.02562*%
%ADD80R,0.08861X0.05909*%
%ADD81C,0.07874*%
%ADD82C,0.01972*%
%ADD83R,0.47241X0.07674*%
%ADD84R,0.02562X0.02562*%
%ADD85R,0.02562X0.07287*%
G04:AMPARAMS|DCode=86|XSize=21.69mil|YSize=25.62mil|CornerRadius=5.42mil|HoleSize=0mil|Usage=FLASHONLY|Rotation=180.000|XOffset=0mil|YOffset=0mil|HoleType=Round|Shape=RoundedRectangle|*
%AMROUNDEDRECTD86*
21,1,0.02169,0.01478,0,0,180.0*
21,1,0.01084,0.02562,0,0,180.0*
1,1,0.01084,-0.00542,0.00739*
1,1,0.01084,0.00542,0.00739*
1,1,0.01084,0.00542,-0.00739*
1,1,0.01084,-0.00542,-0.00739*
%
%ADD86ROUNDEDRECTD86*%
%ADD87R,0.03940X0.01578*%
%ADD88R,0.01578X0.03940*%
%ADD89R,0.13192X0.13192*%
%ADD90R,0.04728X0.07287*%
%ADD91R,0.02169X0.08074*%
%ADD92R,0.14688X0.05200*%
%ADD93R,0.05712X0.04137*%
%ADD94R,0.04137X0.05712*%
%ADD95R,0.05909X0.08861*%
%ADD96R,0.13192X0.13192*%
%ADD97R,0.04531X0.10436*%
%ADD98R,0.10436X0.04531*%
%ADD99R,0.05712X0.04531*%
%ADD100R,0.04531X0.05712*%
%ADD101C,0.31696*%
%ADD102C,0.00200*%
%ADD103C,0.06696*%
%ADD104C,0.06000*%
%ADD105C,0.04137*%
%ADD106R,0.01800X0.08700*%
%ADD107R,0.71200X0.02200*%
D63*
X201575Y193701D02*
Y195669D01*
X200591D01*
X200263Y195341D01*
Y194685D01*
X200591Y194357D01*
X201575D01*
X200919D02*
X200263Y193701D01*
X198295Y195669D02*
X198951Y195341D01*
X199607Y194685D01*
Y194029D01*
X199279Y193701D01*
X198623D01*
X198295Y194029D01*
Y194357D01*
X198623Y194685D01*
X199607D01*
X197639Y195341D02*
X197311Y195669D01*
X196655D01*
X196327Y195341D01*
Y195013D01*
X196655Y194685D01*
X196983D01*
X196655D01*
X196327Y194357D01*
Y194029D01*
X196655Y193701D01*
X197311D01*
X197639Y194029D01*
X207874Y247244D02*
Y249212D01*
X206890D01*
X206562Y248884D01*
Y248228D01*
X206890Y247900D01*
X207874D01*
X207218D02*
X206562Y247244D01*
X204594Y249212D02*
X205250Y248884D01*
X205906Y248228D01*
Y247572D01*
X205578Y247244D01*
X204922D01*
X204594Y247572D01*
Y247900D01*
X204922Y248228D01*
X205906D01*
X202626Y247244D02*
X203938D01*
X202626Y248556D01*
Y248884D01*
X202954Y249212D01*
X203610D01*
X203938Y248884D01*
X194095Y227953D02*
X196062D01*
Y228937D01*
X195734Y229265D01*
X195078D01*
X194750Y228937D01*
Y227953D01*
Y228609D02*
X194095Y229265D01*
X196062Y231233D02*
X195734Y230577D01*
X195078Y229921D01*
X194422D01*
X194095Y230249D01*
Y230905D01*
X194422Y231233D01*
X194750D01*
X195078Y230905D01*
Y229921D01*
X194095Y231889D02*
Y232544D01*
Y232217D01*
X196062D01*
X195734Y231889D01*
X207087Y242520D02*
Y244488D01*
X206103D01*
X205775Y244160D01*
Y243504D01*
X206103Y243176D01*
X207087D01*
X206431D02*
X205775Y242520D01*
X203807Y244488D02*
X204463Y244160D01*
X205119Y243504D01*
Y242848D01*
X204791Y242520D01*
X204135D01*
X203807Y242848D01*
Y243176D01*
X204135Y243504D01*
X205119D01*
X203151Y244160D02*
X202823Y244488D01*
X202167D01*
X201839Y244160D01*
Y242848D01*
X202167Y242520D01*
X202823D01*
X203151Y242848D01*
Y244160D01*
X201969Y205906D02*
Y207873D01*
X200985D01*
X200657Y207545D01*
Y206889D01*
X200985Y206561D01*
X201969D01*
X201313D02*
X200657Y205906D01*
X198689Y207873D02*
X200001D01*
Y206889D01*
X199345Y207217D01*
X199017D01*
X198689Y206889D01*
Y206234D01*
X199017Y205906D01*
X199673D01*
X200001Y206234D01*
X198033D02*
X197705Y205906D01*
X197049D01*
X196721Y206234D01*
Y207545D01*
X197049Y207873D01*
X197705D01*
X198033Y207545D01*
Y207217D01*
X197705Y206889D01*
X196721D01*
X201181Y202362D02*
Y204330D01*
X200197D01*
X199869Y204002D01*
Y203346D01*
X200197Y203018D01*
X201181D01*
X200525D02*
X199869Y202362D01*
X197901Y204330D02*
X199213D01*
Y203346D01*
X198557Y203674D01*
X198229D01*
X197901Y203346D01*
Y202690D01*
X198229Y202362D01*
X198885D01*
X199213Y202690D01*
X197245Y204002D02*
X196917Y204330D01*
X196261D01*
X195933Y204002D01*
Y203674D01*
X196261Y203346D01*
X195933Y203018D01*
Y202690D01*
X196261Y202362D01*
X196917D01*
X197245Y202690D01*
Y203018D01*
X196917Y203346D01*
X197245Y203674D01*
Y204002D01*
X196917Y203346D02*
X196261D01*
X201181Y198425D02*
Y200393D01*
X200197D01*
X199869Y200065D01*
Y199409D01*
X200197Y199081D01*
X201181D01*
X200525D02*
X199869Y198425D01*
X197901Y200393D02*
X199213D01*
Y199409D01*
X198557Y199737D01*
X198229D01*
X197901Y199409D01*
Y198753D01*
X198229Y198425D01*
X198885D01*
X199213Y198753D01*
X197245Y200393D02*
X195933D01*
Y200065D01*
X197245Y198753D01*
Y198425D01*
X53937Y183465D02*
Y185432D01*
X52953D01*
X52625Y185105D01*
Y184449D01*
X52953Y184121D01*
X53937D01*
X53281D02*
X52625Y183465D01*
X50657Y185432D02*
X51969D01*
Y184449D01*
X51313Y184776D01*
X50985D01*
X50657Y184449D01*
Y183793D01*
X50985Y183465D01*
X51641D01*
X51969Y183793D01*
X48689Y185432D02*
X49345Y185105D01*
X50001Y184449D01*
Y183793D01*
X49673Y183465D01*
X49017D01*
X48689Y183793D01*
Y184121D01*
X49017Y184449D01*
X50001D01*
X89370Y240945D02*
Y242913D01*
X88386D01*
X88058Y242585D01*
Y241929D01*
X88386Y241601D01*
X89370D01*
X88714D02*
X88058Y240945D01*
X86090Y242913D02*
X87402D01*
Y241929D01*
X86746Y242257D01*
X86418D01*
X86090Y241929D01*
Y241273D01*
X86418Y240945D01*
X87074D01*
X87402Y241273D01*
X84123Y242913D02*
X85434D01*
Y241929D01*
X84778Y242257D01*
X84450D01*
X84123Y241929D01*
Y241273D01*
X84450Y240945D01*
X85106D01*
X85434Y241273D01*
X53937Y194488D02*
Y196456D01*
X52953D01*
X52625Y196128D01*
Y195472D01*
X52953Y195144D01*
X53937D01*
X53281D02*
X52625Y194488D01*
X50657Y196456D02*
X51969D01*
Y195472D01*
X51313Y195800D01*
X50985D01*
X50657Y195472D01*
Y194816D01*
X50985Y194488D01*
X51641D01*
X51969Y194816D01*
X49017Y194488D02*
Y196456D01*
X50001Y195472D01*
X48689D01*
X89764Y245276D02*
Y247243D01*
X88780D01*
X88452Y246916D01*
Y246259D01*
X88780Y245932D01*
X89764D01*
X89108D02*
X88452Y245276D01*
X86484Y247243D02*
X87796D01*
Y246259D01*
X87140Y246587D01*
X86812D01*
X86484Y246259D01*
Y245604D01*
X86812Y245276D01*
X87468D01*
X87796Y245604D01*
X85828Y246916D02*
X85500Y247243D01*
X84844D01*
X84516Y246916D01*
Y246587D01*
X84844Y246259D01*
X85172D01*
X84844D01*
X84516Y245932D01*
Y245604D01*
X84844Y245276D01*
X85500D01*
X85828Y245604D01*
X82677Y232677D02*
Y234645D01*
X81693D01*
X81365Y234317D01*
Y233661D01*
X81693Y233333D01*
X82677D01*
X82021D02*
X81365Y232677D01*
X79397Y234645D02*
X80709D01*
Y233661D01*
X80053Y233989D01*
X79725D01*
X79397Y233661D01*
Y233005D01*
X79725Y232677D01*
X80381D01*
X80709Y233005D01*
X77429Y232677D02*
X78741D01*
X77429Y233989D01*
Y234317D01*
X77758Y234645D01*
X78413D01*
X78741Y234317D01*
X53937Y190945D02*
Y192913D01*
X52953D01*
X52625Y192585D01*
Y191929D01*
X52953Y191601D01*
X53937D01*
X53281D02*
X52625Y190945D01*
X51969D02*
X51313D01*
X51641D01*
Y192913D01*
X51969Y192585D01*
X50329Y192913D02*
X49017D01*
Y192585D01*
X50329Y191273D01*
Y190945D01*
X53937Y187402D02*
Y189369D01*
X52953D01*
X52625Y189041D01*
Y188385D01*
X52953Y188057D01*
X53937D01*
X53281D02*
X52625Y187402D01*
X51969D02*
X51313D01*
X51641D01*
Y189369D01*
X51969Y189041D01*
X49017Y189369D02*
X49673Y189041D01*
X50329Y188385D01*
Y187730D01*
X50001Y187402D01*
X49345D01*
X49017Y187730D01*
Y188057D01*
X49345Y188385D01*
X50329D01*
X247703Y210761D02*
X248031Y210433D01*
Y209777D01*
X247703Y209449D01*
X246391D01*
X246063Y209777D01*
Y210433D01*
X246391Y210761D01*
X246063Y211417D02*
Y212073D01*
Y211745D01*
X248031D01*
X247703Y211417D01*
Y213057D02*
X248031Y213385D01*
Y214040D01*
X247703Y214369D01*
X247375D01*
X247047Y214040D01*
Y213713D01*
Y214040D01*
X246719Y214369D01*
X246391D01*
X246063Y214040D01*
Y213385D01*
X246391Y213057D01*
X246063Y215024D02*
Y215680D01*
Y215352D01*
X248031D01*
X247703Y215024D01*
X239435Y220997D02*
X239763Y220669D01*
Y220013D01*
X239435Y219685D01*
X238123D01*
X237795Y220013D01*
Y220669D01*
X238123Y220997D01*
X237795Y221653D02*
Y222309D01*
Y221981D01*
X239763D01*
X239435Y221653D01*
Y223293D02*
X239763Y223621D01*
Y224277D01*
X239435Y224605D01*
X239107D01*
X238779Y224277D01*
Y223949D01*
Y224277D01*
X238451Y224605D01*
X238123D01*
X237795Y224277D01*
Y223621D01*
X238123Y223293D01*
X239435Y225261D02*
X239763Y225589D01*
Y226245D01*
X239435Y226573D01*
X238123D01*
X237795Y226245D01*
Y225589D01*
X238123Y225261D01*
X239435D01*
X244947Y182021D02*
X245275Y181693D01*
Y181037D01*
X244947Y180709D01*
X243635D01*
X243307Y181037D01*
Y181693D01*
X243635Y182021D01*
X243307Y182676D02*
Y183333D01*
Y183004D01*
X245275D01*
X244947Y182676D01*
X243307Y185628D02*
Y184316D01*
X244619Y185628D01*
X244947D01*
X245275Y185300D01*
Y184644D01*
X244947Y184316D01*
X243635Y186284D02*
X243307Y186612D01*
Y187268D01*
X243635Y187596D01*
X244947D01*
X245275Y187268D01*
Y186612D01*
X244947Y186284D01*
X244619D01*
X244291Y186612D01*
Y187596D01*
X119750Y228084D02*
X120078Y227756D01*
Y227100D01*
X119750Y226772D01*
X118438D01*
X118110Y227100D01*
Y227756D01*
X118438Y228084D01*
X118110Y228740D02*
Y229396D01*
Y229067D01*
X120078D01*
X119750Y228740D01*
X118110Y230379D02*
Y231035D01*
Y230707D01*
X120078D01*
X119750Y230379D01*
X118110Y233003D02*
X120078D01*
X119094Y232019D01*
Y233331D01*
X125262Y220997D02*
X125590Y220669D01*
Y220013D01*
X125262Y219685D01*
X123950D01*
X123622Y220013D01*
Y220669D01*
X123950Y220997D01*
X123622Y221653D02*
Y222309D01*
Y221981D01*
X125590D01*
X125262Y221653D01*
X123622Y223293D02*
Y223949D01*
Y223621D01*
X125590D01*
X125262Y223293D01*
X123622Y224933D02*
Y225589D01*
Y225261D01*
X125590D01*
X125262Y224933D01*
X126837Y179265D02*
X127165Y178937D01*
Y178281D01*
X126837Y177953D01*
X125525D01*
X125197Y178281D01*
Y178937D01*
X125525Y179265D01*
X125197Y179921D02*
Y180577D01*
Y180249D01*
X127165D01*
X126837Y179921D01*
X125197Y181561D02*
Y182217D01*
Y181888D01*
X127165D01*
X126837Y181561D01*
Y183200D02*
X127165Y183528D01*
Y184184D01*
X126837Y184512D01*
X125525D01*
X125197Y184184D01*
Y183528D01*
X125525Y183200D01*
X126837D01*
X236679Y179265D02*
X237007Y178937D01*
Y178281D01*
X236679Y177953D01*
X235367D01*
X235039Y178281D01*
Y178937D01*
X235367Y179265D01*
X235039Y179921D02*
Y180577D01*
Y180249D01*
X237007D01*
X236679Y179921D01*
Y181561D02*
X237007Y181888D01*
Y182544D01*
X236679Y182872D01*
X235367D01*
X235039Y182544D01*
Y181888D01*
X235367Y181561D01*
X236679D01*
X235039Y183528D02*
Y184184D01*
Y183856D01*
X237007D01*
X236679Y183528D01*
X303937Y244488D02*
Y242520D01*
X302625D01*
X300657Y244488D02*
X301969D01*
Y243504D01*
X301313Y243832D01*
X300985D01*
X300657Y243504D01*
Y242848D01*
X300985Y242520D01*
X301641D01*
X301969Y242848D01*
X244488Y150787D02*
Y148819D01*
X243176D01*
X241536D02*
Y150787D01*
X242520Y149803D01*
X241208D01*
X180675Y249204D02*
Y247236D01*
X179363D01*
X177395D02*
X178707D01*
X177395Y248548D01*
Y248876D01*
X177723Y249204D01*
X178379D01*
X178707Y248876D01*
X257907Y246897D02*
X258235Y247225D01*
X258891D01*
X259219Y246897D01*
Y245585D01*
X258891Y245257D01*
X258235D01*
X257907Y245585D01*
X257251Y245257D02*
X256595D01*
X256923D01*
Y247225D01*
X257251Y246897D01*
X254299Y245257D02*
X255611D01*
X254299Y246569D01*
Y246897D01*
X254627Y247225D01*
X255283D01*
X255611Y246897D01*
X253643Y245257D02*
X252987D01*
X253315D01*
Y247225D01*
X253643Y246897D01*
X199278Y232808D02*
X199606Y232480D01*
Y231824D01*
X199278Y231496D01*
X197966D01*
X197638Y231824D01*
Y232480D01*
X197966Y232808D01*
X197638Y233464D02*
Y234120D01*
Y233792D01*
X199606D01*
X199278Y233464D01*
X197638Y236416D02*
Y235104D01*
X198950Y236416D01*
X199278D01*
X199606Y236088D01*
Y235432D01*
X199278Y235104D01*
Y237072D02*
X199606Y237400D01*
Y238056D01*
X199278Y238384D01*
X197966D01*
X197638Y238056D01*
Y237400D01*
X197966Y237072D01*
X199278D01*
X204472Y118380D02*
X204736Y118116D01*
Y117587D01*
X204472Y117323D01*
X203414D01*
X203150Y117587D01*
Y118116D01*
X203414Y118380D01*
X204472Y118909D02*
X204736Y119174D01*
Y119703D01*
X204472Y119967D01*
X204207D01*
X203943Y119703D01*
Y119438D01*
Y119703D01*
X203678Y119967D01*
X203414D01*
X203150Y119703D01*
Y119174D01*
X203414Y118909D01*
X203150Y121554D02*
Y120496D01*
X204207Y121554D01*
X204472D01*
X204736Y121289D01*
Y120760D01*
X204472Y120496D01*
X200141Y118380D02*
X200405Y118116D01*
Y117587D01*
X200141Y117323D01*
X199083D01*
X198819Y117587D01*
Y118116D01*
X199083Y118380D01*
X200141Y118909D02*
X200405Y119174D01*
Y119703D01*
X200141Y119967D01*
X199877D01*
X199612Y119703D01*
Y119438D01*
Y119703D01*
X199348Y119967D01*
X199083D01*
X198819Y119703D01*
Y119174D01*
X199083Y118909D01*
X198819Y120496D02*
Y121025D01*
Y120760D01*
X200405D01*
X200141Y120496D01*
X236090Y208333D02*
X236418Y208661D01*
X237074D01*
X237402Y208333D01*
Y207021D01*
X237074Y206693D01*
X236418D01*
X236090Y207021D01*
X235434Y206693D02*
X234778D01*
X235106D01*
Y208661D01*
X235434Y208333D01*
X233794D02*
X233466Y208661D01*
X232810D01*
X232482Y208333D01*
Y207021D01*
X232810Y206693D01*
X233466D01*
X233794Y207021D01*
Y208333D01*
X230514Y208661D02*
X231826D01*
Y207677D01*
X231170Y208005D01*
X230842D01*
X230514Y207677D01*
Y207021D01*
X230842Y206693D01*
X231498D01*
X231826Y207021D01*
X244160Y202493D02*
X244488Y202165D01*
Y201509D01*
X244160Y201181D01*
X242848D01*
X242520Y201509D01*
Y202165D01*
X242848Y202493D01*
X242520Y203149D02*
Y203805D01*
Y203477D01*
X244488D01*
X244160Y203149D01*
Y204789D02*
X244488Y205117D01*
Y205773D01*
X244160Y206101D01*
X242848D01*
X242520Y205773D01*
Y205117D01*
X242848Y204789D01*
X244160D01*
X242520Y208069D02*
Y206757D01*
X243832Y208069D01*
X244160D01*
X244488Y207741D01*
Y207085D01*
X244160Y206757D01*
X240616Y195013D02*
X240944Y194685D01*
Y194029D01*
X240616Y193701D01*
X239304D01*
X238976Y194029D01*
Y194685D01*
X239304Y195013D01*
X238976Y195669D02*
Y196325D01*
Y195997D01*
X240944D01*
X240616Y195669D01*
Y197309D02*
X240944Y197636D01*
Y198293D01*
X240616Y198620D01*
X239304D01*
X238976Y198293D01*
Y197636D01*
X239304Y197309D01*
X240616D01*
Y199276D02*
X240944Y199604D01*
Y200260D01*
X240616Y200588D01*
X239304D01*
X238976Y200260D01*
Y199604D01*
X239304Y199276D01*
X240616D01*
X247703Y223359D02*
X248031Y223031D01*
Y222375D01*
X247703Y222047D01*
X246391D01*
X246063Y222375D01*
Y223031D01*
X246391Y223359D01*
Y224015D02*
X246063Y224343D01*
Y224999D01*
X246391Y225327D01*
X247703D01*
X248031Y224999D01*
Y224343D01*
X247703Y224015D01*
X247375D01*
X247047Y224343D01*
Y225327D01*
X246391Y225983D02*
X246063Y226311D01*
Y226967D01*
X246391Y227295D01*
X247703D01*
X248031Y226967D01*
Y226311D01*
X247703Y225983D01*
X247375D01*
X247047Y226311D01*
Y227295D01*
X233530Y228084D02*
X233858Y227756D01*
Y227100D01*
X233530Y226772D01*
X232218D01*
X231890Y227100D01*
Y227756D01*
X232218Y228084D01*
Y228740D02*
X231890Y229067D01*
Y229723D01*
X232218Y230051D01*
X233530D01*
X233858Y229723D01*
Y229067D01*
X233530Y228740D01*
X233202D01*
X232874Y229067D01*
Y230051D01*
X233530Y230707D02*
X233858Y231035D01*
Y231691D01*
X233530Y232019D01*
X233202D01*
X232874Y231691D01*
X232546Y232019D01*
X232218D01*
X231890Y231691D01*
Y231035D01*
X232218Y230707D01*
X232546D01*
X232874Y231035D01*
X233202Y230707D01*
X233530D01*
X232874Y231035D02*
Y231691D01*
X225656Y222966D02*
X225984Y222638D01*
Y221982D01*
X225656Y221654D01*
X224344D01*
X224016Y221982D01*
Y222638D01*
X224344Y222966D01*
Y223621D02*
X224016Y223949D01*
Y224605D01*
X224344Y224933D01*
X225656D01*
X225984Y224605D01*
Y223949D01*
X225656Y223621D01*
X225328D01*
X225000Y223949D01*
Y224933D01*
X225984Y225589D02*
Y226901D01*
X225656D01*
X224344Y225589D01*
X224016D01*
X222506Y211942D02*
X222834Y211614D01*
Y210958D01*
X222506Y210630D01*
X221194D01*
X220866Y210958D01*
Y211614D01*
X221194Y211942D01*
Y212598D02*
X220866Y212926D01*
Y213582D01*
X221194Y213910D01*
X222506D01*
X222834Y213582D01*
Y212926D01*
X222506Y212598D01*
X222178D01*
X221850Y212926D01*
Y213910D01*
X222834Y215878D02*
X222506Y215222D01*
X221850Y214566D01*
X221194D01*
X220866Y214894D01*
Y215550D01*
X221194Y215878D01*
X221522D01*
X221850Y215550D01*
Y214566D01*
X284909Y244160D02*
X285237Y244488D01*
X285893D01*
X286221Y244160D01*
Y242848D01*
X285893Y242520D01*
X285237D01*
X284909Y242848D01*
X284253D02*
X283925Y242520D01*
X283269D01*
X282941Y242848D01*
Y244160D01*
X283269Y244488D01*
X283925D01*
X284253Y244160D01*
Y243832D01*
X283925Y243504D01*
X282941D01*
X280973Y244488D02*
X282285D01*
Y243504D01*
X281629Y243832D01*
X281301D01*
X280973Y243504D01*
Y242848D01*
X281301Y242520D01*
X281957D01*
X282285Y242848D01*
X288058Y256758D02*
X288386Y257086D01*
X289042D01*
X289370Y256758D01*
Y255446D01*
X289042Y255118D01*
X288386D01*
X288058Y255446D01*
X287402D02*
X287074Y255118D01*
X286418D01*
X286090Y255446D01*
Y256758D01*
X286418Y257086D01*
X287074D01*
X287402Y256758D01*
Y256430D01*
X287074Y256102D01*
X286090D01*
X284450Y255118D02*
Y257086D01*
X285434Y256102D01*
X284122D01*
X207611Y209777D02*
X207283Y209450D01*
X206627D01*
X206299Y209777D01*
Y211089D01*
X206627Y211417D01*
X207283D01*
X207611Y211089D01*
X208267D02*
X208595Y211417D01*
X209251D01*
X209579Y211089D01*
Y209777D01*
X209251Y209450D01*
X208595D01*
X208267Y209777D01*
Y210105D01*
X208595Y210433D01*
X209579D01*
X210235Y209777D02*
X210563Y209450D01*
X211219D01*
X211547Y209777D01*
Y210105D01*
X211219Y210433D01*
X210891D01*
X211219D01*
X211547Y210761D01*
Y211089D01*
X211219Y211417D01*
X210563D01*
X210235Y211089D01*
X265301Y212211D02*
X265629Y212539D01*
X266285D01*
X266613Y212211D01*
Y210899D01*
X266285Y210571D01*
X265629D01*
X265301Y210899D01*
X264645D02*
X264317Y210571D01*
X263661D01*
X263333Y210899D01*
Y212211D01*
X263661Y212539D01*
X264317D01*
X264645Y212211D01*
Y211883D01*
X264317Y211555D01*
X263333D01*
X261365Y210571D02*
X262677D01*
X261365Y211883D01*
Y212211D01*
X261693Y212539D01*
X262349D01*
X262677Y212211D01*
X215813Y200131D02*
X216141Y199803D01*
Y199147D01*
X215813Y198819D01*
X214501D01*
X214173Y199147D01*
Y199803D01*
X214501Y200131D01*
Y200787D02*
X214173Y201115D01*
Y201771D01*
X214501Y202099D01*
X215813D01*
X216141Y201771D01*
Y201115D01*
X215813Y200787D01*
X215485D01*
X215157Y201115D01*
Y202099D01*
X214173Y202755D02*
Y203411D01*
Y203083D01*
X216141D01*
X215813Y202755D01*
X225656Y202887D02*
X225984Y202559D01*
Y201903D01*
X225656Y201575D01*
X224344D01*
X224016Y201903D01*
Y202559D01*
X224344Y202887D01*
Y203543D02*
X224016Y203871D01*
Y204527D01*
X224344Y204855D01*
X225656D01*
X225984Y204527D01*
Y203871D01*
X225656Y203543D01*
X225328D01*
X225000Y203871D01*
Y204855D01*
X225656Y205510D02*
X225984Y205838D01*
Y206494D01*
X225656Y206822D01*
X224344D01*
X224016Y206494D01*
Y205838D01*
X224344Y205510D01*
X225656D01*
X241010Y179658D02*
X241338Y179330D01*
Y178674D01*
X241010Y178347D01*
X239698D01*
X239370Y178674D01*
Y179330D01*
X239698Y179658D01*
X241010Y180314D02*
X241338Y180642D01*
Y181298D01*
X241010Y181626D01*
X240682D01*
X240354Y181298D01*
X240026Y181626D01*
X239698D01*
X239370Y181298D01*
Y180642D01*
X239698Y180314D01*
X240026D01*
X240354Y180642D01*
X240682Y180314D01*
X241010D01*
X240354Y180642D02*
Y181298D01*
X239698Y182282D02*
X239370Y182610D01*
Y183266D01*
X239698Y183594D01*
X241010D01*
X241338Y183266D01*
Y182610D01*
X241010Y182282D01*
X240682D01*
X240354Y182610D01*
Y183594D01*
X239435Y213123D02*
X239763Y212795D01*
Y212139D01*
X239435Y211811D01*
X238123D01*
X237795Y212139D01*
Y212795D01*
X238123Y213123D01*
X239435Y213779D02*
X239763Y214107D01*
Y214763D01*
X239435Y215091D01*
X239107D01*
X238779Y214763D01*
X238451Y215091D01*
X238123D01*
X237795Y214763D01*
Y214107D01*
X238123Y213779D01*
X238451D01*
X238779Y214107D01*
X239107Y213779D01*
X239435D01*
X238779Y214107D02*
Y214763D01*
X239435Y215747D02*
X239763Y216075D01*
Y216731D01*
X239435Y217059D01*
X239107D01*
X238779Y216731D01*
X238451Y217059D01*
X238123D01*
X237795Y216731D01*
Y216075D01*
X238123Y215747D01*
X238451D01*
X238779Y216075D01*
X239107Y215747D01*
X239435D01*
X238779Y216075D02*
Y216731D01*
X230380Y212729D02*
X230708Y212401D01*
Y211745D01*
X230380Y211417D01*
X229068D01*
X228740Y211745D01*
Y212401D01*
X229068Y212729D01*
X230380Y213385D02*
X230708Y213713D01*
Y214369D01*
X230380Y214697D01*
X230052D01*
X229724Y214369D01*
X229396Y214697D01*
X229068D01*
X228740Y214369D01*
Y213713D01*
X229068Y213385D01*
X229396D01*
X229724Y213713D01*
X230052Y213385D01*
X230380D01*
X229724Y213713D02*
Y214369D01*
X230708Y215353D02*
Y216665D01*
X230380D01*
X229068Y215353D01*
X228740D01*
X232742Y179265D02*
X233070Y178937D01*
Y178281D01*
X232742Y177953D01*
X231430D01*
X231102Y178281D01*
Y178937D01*
X231430Y179265D01*
X232742Y179921D02*
X233070Y180249D01*
Y180904D01*
X232742Y181233D01*
X232414D01*
X232086Y180904D01*
X231758Y181233D01*
X231430D01*
X231102Y180904D01*
Y180249D01*
X231430Y179921D01*
X231758D01*
X232086Y180249D01*
X232414Y179921D01*
X232742D01*
X232086Y180249D02*
Y180904D01*
X233070Y183200D02*
X232742Y182544D01*
X232086Y181888D01*
X231430D01*
X231102Y182217D01*
Y182872D01*
X231430Y183200D01*
X231758D01*
X232086Y182872D01*
Y181888D01*
X143765Y246913D02*
X144093Y247241D01*
X144749D01*
X145077Y246913D01*
Y245601D01*
X144749Y245273D01*
X144093D01*
X143765Y245601D01*
X143109Y246913D02*
X142781Y247241D01*
X142125D01*
X141797Y246913D01*
Y246585D01*
X142125Y246257D01*
X141797Y245929D01*
Y245601D01*
X142125Y245273D01*
X142781D01*
X143109Y245601D01*
Y245929D01*
X142781Y246257D01*
X143109Y246585D01*
Y246913D01*
X142781Y246257D02*
X142125D01*
X141141Y246913D02*
X140813Y247241D01*
X140157D01*
X139829Y246913D01*
Y245601D01*
X140157Y245273D01*
X140813D01*
X141141Y245601D01*
Y246913D01*
X90616Y233595D02*
X90944Y233267D01*
Y232611D01*
X90616Y232283D01*
X89304D01*
X88976Y232611D01*
Y233267D01*
X89304Y233595D01*
X90944Y234251D02*
Y235563D01*
X90616D01*
X89304Y234251D01*
X88976D01*
X89304Y236219D02*
X88976Y236547D01*
Y237203D01*
X89304Y237531D01*
X90616D01*
X90944Y237203D01*
Y236547D01*
X90616Y236219D01*
X90288D01*
X89960Y236547D01*
Y237531D01*
X78939Y223688D02*
X79267Y224015D01*
X79923D01*
X80251Y223688D01*
Y222376D01*
X79923Y222048D01*
X79267D01*
X78939Y222376D01*
X78283Y224015D02*
X76971D01*
Y223688D01*
X78283Y222376D01*
Y222048D01*
X76315Y223688D02*
X75987Y224015D01*
X75331D01*
X75003Y223688D01*
Y222376D01*
X75331Y222048D01*
X75987D01*
X76315Y222376D01*
Y223688D01*
X148884Y203280D02*
X149212Y202952D01*
Y202296D01*
X148884Y201969D01*
X147572D01*
X147244Y202296D01*
Y202952D01*
X147572Y203280D01*
X149212Y205248D02*
X148884Y204592D01*
X148228Y203936D01*
X147572D01*
X147244Y204264D01*
Y204920D01*
X147572Y205248D01*
X147900D01*
X148228Y204920D01*
Y203936D01*
X147572Y205904D02*
X147244Y206232D01*
Y206888D01*
X147572Y207216D01*
X148884D01*
X149212Y206888D01*
Y206232D01*
X148884Y205904D01*
X148556D01*
X148228Y206232D01*
Y207216D01*
X130774Y184383D02*
X131102Y184055D01*
Y183399D01*
X130774Y183071D01*
X129462D01*
X129134Y183399D01*
Y184055D01*
X129462Y184383D01*
X131102Y186351D02*
X130774Y185695D01*
X130118Y185039D01*
X129462D01*
X129134Y185367D01*
Y186023D01*
X129462Y186351D01*
X129790D01*
X130118Y186023D01*
Y185039D01*
X130774Y187007D02*
X131102Y187335D01*
Y187990D01*
X130774Y188319D01*
X130446D01*
X130118Y187990D01*
X129790Y188319D01*
X129462D01*
X129134Y187990D01*
Y187335D01*
X129462Y187007D01*
X129790D01*
X130118Y187335D01*
X130446Y187007D01*
X130774D01*
X130118Y187335D02*
Y187990D01*
X115813Y213123D02*
X116141Y212795D01*
Y212139D01*
X115813Y211811D01*
X114501D01*
X114173Y212139D01*
Y212795D01*
X114501Y213123D01*
X116141Y215091D02*
X115813Y214435D01*
X115157Y213779D01*
X114501D01*
X114173Y214107D01*
Y214763D01*
X114501Y215091D01*
X114829D01*
X115157Y214763D01*
Y213779D01*
X116141Y215747D02*
Y217059D01*
X115813D01*
X114501Y215747D01*
X114173D01*
X111482Y202099D02*
X111810Y201771D01*
Y201115D01*
X111482Y200787D01*
X110170D01*
X109843Y201115D01*
Y201771D01*
X110170Y202099D01*
X111810Y204067D02*
X111482Y203411D01*
X110826Y202755D01*
X110170D01*
X109843Y203083D01*
Y203739D01*
X110170Y204067D01*
X110498D01*
X110826Y203739D01*
Y202755D01*
X111810Y206035D02*
X111482Y205379D01*
X110826Y204723D01*
X110170D01*
X109843Y205051D01*
Y205707D01*
X110170Y206035D01*
X110498D01*
X110826Y205707D01*
Y204723D01*
X126049Y213123D02*
X126377Y212795D01*
Y212139D01*
X126049Y211811D01*
X124737D01*
X124409Y212139D01*
Y212795D01*
X124737Y213123D01*
X126377Y215091D02*
X126049Y214435D01*
X125393Y213779D01*
X124737D01*
X124409Y214107D01*
Y214763D01*
X124737Y215091D01*
X125065D01*
X125393Y214763D01*
Y213779D01*
X126377Y217059D02*
Y215747D01*
X125393D01*
X125721Y216403D01*
Y216731D01*
X125393Y217059D01*
X124737D01*
X124409Y216731D01*
Y216075D01*
X124737Y215747D01*
X118569Y180052D02*
X118897Y179724D01*
Y179068D01*
X118569Y178740D01*
X117257D01*
X116929Y179068D01*
Y179724D01*
X117257Y180052D01*
X118897Y182020D02*
X118569Y181364D01*
X117913Y180708D01*
X117257D01*
X116929Y181036D01*
Y181692D01*
X117257Y182020D01*
X117585D01*
X117913Y181692D01*
Y180708D01*
X116929Y183660D02*
X118897D01*
X117913Y182676D01*
Y183988D01*
X114632Y184776D02*
X114960Y184449D01*
Y183793D01*
X114632Y183465D01*
X113320D01*
X112992Y183793D01*
Y184449D01*
X113320Y184776D01*
X114960Y186744D02*
X114632Y186088D01*
X113976Y185432D01*
X113320D01*
X112992Y185760D01*
Y186416D01*
X113320Y186744D01*
X113648D01*
X113976Y186416D01*
Y185432D01*
X114632Y187400D02*
X114960Y187728D01*
Y188384D01*
X114632Y188712D01*
X114304D01*
X113976Y188384D01*
Y188056D01*
Y188384D01*
X113648Y188712D01*
X113320D01*
X112992Y188384D01*
Y187728D01*
X113320Y187400D01*
X228412Y184776D02*
X228740Y184449D01*
Y183793D01*
X228412Y183465D01*
X227100D01*
X226772Y183793D01*
Y184449D01*
X227100Y184776D01*
X228740Y186744D02*
X228412Y186088D01*
X227756Y185432D01*
X227100D01*
X226772Y185760D01*
Y186416D01*
X227100Y186744D01*
X227428D01*
X227756Y186416D01*
Y185432D01*
X226772Y188712D02*
Y187400D01*
X228084Y188712D01*
X228412D01*
X228740Y188384D01*
Y187728D01*
X228412Y187400D01*
X231202Y170374D02*
X231530Y170702D01*
X232186D01*
X232514Y170374D01*
Y169062D01*
X232186Y168734D01*
X231530D01*
X231202Y169062D01*
X229234Y170702D02*
X229890Y170374D01*
X230546Y169718D01*
Y169062D01*
X230218Y168734D01*
X229562D01*
X229234Y169062D01*
Y169390D01*
X229562Y169718D01*
X230546D01*
X228578Y168734D02*
X227922D01*
X228250D01*
Y170702D01*
X228578Y170374D01*
X97628Y208775D02*
X97956Y209103D01*
X98612D01*
X98940Y208775D01*
Y207463D01*
X98612Y207135D01*
X97956D01*
X97628Y207463D01*
X95660Y209103D02*
X96316Y208775D01*
X96972Y208119D01*
Y207463D01*
X96644Y207135D01*
X95988D01*
X95660Y207463D01*
Y207791D01*
X95988Y208119D01*
X96972D01*
X95004Y208775D02*
X94676Y209103D01*
X94020D01*
X93692Y208775D01*
Y207463D01*
X94020Y207135D01*
X94676D01*
X95004Y207463D01*
Y208775D01*
X121916Y208333D02*
X122244Y208661D01*
X122900D01*
X123228Y208333D01*
Y207021D01*
X122900Y206693D01*
X122244D01*
X121916Y207021D01*
X119949Y208661D02*
X121260D01*
Y207677D01*
X120605Y208005D01*
X120277D01*
X119949Y207677D01*
Y207021D01*
X120277Y206693D01*
X120932D01*
X121260Y207021D01*
X119293D02*
X118965Y206693D01*
X118309D01*
X117981Y207021D01*
Y208333D01*
X118309Y208661D01*
X118965D01*
X119293Y208333D01*
Y208005D01*
X118965Y207677D01*
X117981D01*
X225066Y157545D02*
X225394Y157873D01*
X226050D01*
X226378Y157545D01*
Y156234D01*
X226050Y155905D01*
X225394D01*
X225066Y156234D01*
X223098Y157873D02*
X224410D01*
Y156889D01*
X223754Y157217D01*
X223426D01*
X223098Y156889D01*
Y156234D01*
X223426Y155905D01*
X224082D01*
X224410Y156234D01*
X222442Y157545D02*
X222114Y157873D01*
X221458D01*
X221130Y157545D01*
Y157217D01*
X221458Y156889D01*
X221130Y156562D01*
Y156234D01*
X221458Y155905D01*
X222114D01*
X222442Y156234D01*
Y156562D01*
X222114Y156889D01*
X222442Y157217D01*
Y157545D01*
X222114Y156889D02*
X221458D01*
X125656Y196194D02*
X125984Y195866D01*
Y195210D01*
X125656Y194882D01*
X124344D01*
X124016Y195210D01*
Y195866D01*
X124344Y196194D01*
X125984Y198162D02*
Y196850D01*
X125000D01*
X125328Y197506D01*
Y197834D01*
X125000Y198162D01*
X124344D01*
X124016Y197834D01*
Y197178D01*
X124344Y196850D01*
X125984Y200130D02*
Y198818D01*
X125000D01*
X125328Y199474D01*
Y199802D01*
X125000Y200130D01*
X124344D01*
X124016Y199802D01*
Y199146D01*
X124344Y198818D01*
X122900Y180446D02*
X123228Y180118D01*
Y179462D01*
X122900Y179134D01*
X121588D01*
X121260Y179462D01*
Y180118D01*
X121588Y180446D01*
X123228Y182414D02*
Y181102D01*
X122244D01*
X122572Y181758D01*
Y182086D01*
X122244Y182414D01*
X121588D01*
X121260Y182086D01*
Y181430D01*
X121588Y181102D01*
X121260Y184054D02*
X123228D01*
X122244Y183070D01*
Y184381D01*
X129986Y203674D02*
X130314Y203346D01*
Y202690D01*
X129986Y202362D01*
X128674D01*
X128347Y202690D01*
Y203346D01*
X128674Y203674D01*
X130314Y205642D02*
Y204330D01*
X129330D01*
X129658Y204986D01*
Y205314D01*
X129330Y205642D01*
X128674D01*
X128347Y205314D01*
Y204658D01*
X128674Y204330D01*
X129986Y206298D02*
X130314Y206626D01*
Y207282D01*
X129986Y207610D01*
X129658D01*
X129330Y207282D01*
Y206954D01*
Y207282D01*
X129002Y207610D01*
X128674D01*
X128347Y207282D01*
Y206626D01*
X128674Y206298D01*
X133530Y210761D02*
X133858Y210433D01*
Y209777D01*
X133530Y209449D01*
X132218D01*
X131890Y209777D01*
Y210433D01*
X132218Y210761D01*
X133858Y212729D02*
Y211417D01*
X132874D01*
X133202Y212073D01*
Y212401D01*
X132874Y212729D01*
X132218D01*
X131890Y212401D01*
Y211745D01*
X132218Y211417D01*
X131890Y214697D02*
Y213385D01*
X133202Y214697D01*
X133530D01*
X133858Y214369D01*
Y213713D01*
X133530Y213385D01*
Y223753D02*
X133858Y223425D01*
Y222769D01*
X133530Y222441D01*
X132218D01*
X131890Y222769D01*
Y223425D01*
X132218Y223753D01*
X133858Y225721D02*
Y224409D01*
X132874D01*
X133202Y225065D01*
Y225393D01*
X132874Y225721D01*
X132218D01*
X131890Y225393D01*
Y224737D01*
X132218Y224409D01*
X131890Y226377D02*
Y227033D01*
Y226705D01*
X133858D01*
X133530Y226377D01*
X107939Y210761D02*
X108267Y210433D01*
Y209777D01*
X107939Y209449D01*
X106627D01*
X106299Y209777D01*
Y210433D01*
X106627Y210761D01*
X108267Y212729D02*
Y211417D01*
X107283D01*
X107611Y212073D01*
Y212401D01*
X107283Y212729D01*
X106627D01*
X106299Y212401D01*
Y211745D01*
X106627Y211417D01*
X107939Y213385D02*
X108267Y213713D01*
Y214369D01*
X107939Y214697D01*
X106627D01*
X106299Y214369D01*
Y213713D01*
X106627Y213385D01*
X107939D01*
X111876Y222966D02*
X112204Y222638D01*
Y221982D01*
X111876Y221654D01*
X110564D01*
X110236Y221982D01*
Y222638D01*
X110564Y222966D01*
X110236Y224605D02*
X112204D01*
X111220Y223621D01*
Y224933D01*
X110564Y225589D02*
X110236Y225917D01*
Y226573D01*
X110564Y226901D01*
X111876D01*
X112204Y226573D01*
Y225917D01*
X111876Y225589D01*
X111548D01*
X111220Y225917D01*
Y226901D01*
X170963Y243876D02*
X171291Y244204D01*
X171947D01*
X172275Y243876D01*
Y242564D01*
X171947Y242236D01*
X171291D01*
X170963Y242564D01*
X169323Y242236D02*
Y244204D01*
X170307Y243220D01*
X168995D01*
X168340Y243876D02*
X168011Y244204D01*
X167356D01*
X167028Y243876D01*
Y243548D01*
X167356Y243220D01*
X167028Y242892D01*
Y242564D01*
X167356Y242236D01*
X168011D01*
X168340Y242564D01*
Y242892D01*
X168011Y243220D01*
X168340Y243548D01*
Y243876D01*
X168011Y243220D02*
X167356D01*
X186563Y248176D02*
X186891Y248504D01*
X187547D01*
X187875Y248176D01*
Y246864D01*
X187547Y246536D01*
X186891D01*
X186563Y246864D01*
X184923Y246536D02*
Y248504D01*
X185907Y247520D01*
X184595D01*
X183940Y248504D02*
X182628D01*
Y248176D01*
X183940Y246864D01*
Y246536D01*
X132153Y170144D02*
X132481Y170472D01*
X133137D01*
X133465Y170144D01*
Y168832D01*
X133137Y168504D01*
X132481D01*
X132153Y168832D01*
X130513Y168504D02*
Y170472D01*
X131497Y169488D01*
X130185D01*
X128217Y170472D02*
X128873Y170144D01*
X129529Y169488D01*
Y168832D01*
X129201Y168504D01*
X128545D01*
X128217Y168832D01*
Y169160D01*
X128545Y169488D01*
X129529D01*
X256299Y311024D02*
X258267D01*
Y312007D01*
X257939Y312335D01*
X257283D01*
X256955Y312007D01*
Y311024D01*
Y311680D02*
X256299Y312335D01*
X258267Y314303D02*
Y312991D01*
X257283D01*
X257611Y313647D01*
Y313975D01*
X257283Y314303D01*
X256627D01*
X256299Y313975D01*
Y313319D01*
X256627Y312991D01*
X256299Y314959D02*
Y315615D01*
Y315287D01*
X258267D01*
X257939Y314959D01*
X268898Y311024D02*
X270866D01*
Y312007D01*
X270537Y312335D01*
X269882D01*
X269554Y312007D01*
Y311024D01*
Y311680D02*
X268898Y312335D01*
X270866Y314303D02*
Y312991D01*
X269882D01*
X270210Y313647D01*
Y313975D01*
X269882Y314303D01*
X269226D01*
X268898Y313975D01*
Y313319D01*
X269226Y312991D01*
X270537Y314959D02*
X270866Y315287D01*
Y315943D01*
X270537Y316271D01*
X269226D01*
X268898Y315943D01*
Y315287D01*
X269226Y314959D01*
X270537D01*
X199213Y311417D02*
X201181D01*
Y312401D01*
X200852Y312729D01*
X200197D01*
X199869Y312401D01*
Y311417D01*
Y312073D02*
X199213Y312729D01*
Y314369D02*
X201181D01*
X200197Y313385D01*
Y314697D01*
X199541Y315353D02*
X199213Y315681D01*
Y316337D01*
X199541Y316665D01*
X200852D01*
X201181Y316337D01*
Y315681D01*
X200852Y315353D01*
X200524D01*
X200197Y315681D01*
Y316665D01*
X212205Y311024D02*
X214173D01*
Y312007D01*
X213845Y312335D01*
X213189D01*
X212861Y312007D01*
Y311024D01*
Y311680D02*
X212205Y312335D01*
Y313975D02*
X214173D01*
X213189Y312991D01*
Y314303D01*
X213845Y314959D02*
X214173Y315287D01*
Y315943D01*
X213845Y316271D01*
X213517D01*
X213189Y315943D01*
X212861Y316271D01*
X212533D01*
X212205Y315943D01*
Y315287D01*
X212533Y314959D01*
X212861D01*
X213189Y315287D01*
X213517Y314959D01*
X213845D01*
X213189Y315287D02*
Y315943D01*
X144488Y310630D02*
X146456D01*
Y311614D01*
X146128Y311942D01*
X145472D01*
X145144Y311614D01*
Y310630D01*
Y311286D02*
X144488Y311942D01*
Y313582D02*
X146456D01*
X145472Y312598D01*
Y313910D01*
X146456Y314566D02*
Y315878D01*
X146128D01*
X144816Y314566D01*
X144488D01*
X156693Y310236D02*
X158661D01*
Y311220D01*
X158333Y311548D01*
X157677D01*
X157349Y311220D01*
Y310236D01*
Y310892D02*
X156693Y311548D01*
Y313188D02*
X158661D01*
X157677Y312204D01*
Y313516D01*
X158333Y314172D02*
X158661Y314500D01*
Y315156D01*
X158333Y315484D01*
X158005D01*
X157677Y315156D01*
Y314828D01*
Y315156D01*
X157349Y315484D01*
X157021D01*
X156693Y315156D01*
Y314500D01*
X157021Y314172D01*
X88601Y310482D02*
X90569D01*
Y311466D01*
X90241Y311794D01*
X89585D01*
X89257Y311466D01*
Y310482D01*
Y311138D02*
X88601Y311794D01*
Y313434D02*
X90569D01*
X89585Y312450D01*
Y313762D01*
X88601Y315729D02*
Y314418D01*
X89913Y315729D01*
X90241D01*
X90569Y315402D01*
Y314746D01*
X90241Y314418D01*
X99523Y311133D02*
X101491D01*
Y312117D01*
X101163Y312445D01*
X100507D01*
X100179Y312117D01*
Y311133D01*
Y311789D02*
X99523Y312445D01*
Y314085D02*
X101491D01*
X100507Y313101D01*
Y314413D01*
X99523Y315069D02*
Y315725D01*
Y315397D01*
X101491D01*
X101163Y315069D01*
X69422Y118766D02*
X69684Y118504D01*
Y117979D01*
X69422Y117717D01*
X68373D01*
X68110Y117979D01*
Y118504D01*
X68373Y118766D01*
X68110Y119291D02*
Y119816D01*
Y119553D01*
X69684D01*
X69422Y119291D01*
X73359Y118372D02*
X73621Y118110D01*
Y117585D01*
X73359Y117323D01*
X72310D01*
X72047Y117585D01*
Y118110D01*
X72310Y118372D01*
X72047Y119947D02*
Y118897D01*
X73097Y119947D01*
X73359D01*
X73621Y119684D01*
Y119159D01*
X73359Y118897D01*
X77296Y118372D02*
X77558Y118110D01*
Y117585D01*
X77296Y117323D01*
X76247D01*
X75984Y117585D01*
Y118110D01*
X76247Y118372D01*
X77296Y118897D02*
X77558Y119159D01*
Y119684D01*
X77296Y119947D01*
X77034D01*
X76771Y119684D01*
Y119422D01*
Y119684D01*
X76509Y119947D01*
X76247D01*
X75984Y119684D01*
Y119159D01*
X76247Y118897D01*
X81233Y118372D02*
X81496Y118110D01*
Y117585D01*
X81233Y117323D01*
X80184D01*
X79921Y117585D01*
Y118110D01*
X80184Y118372D01*
X79921Y119684D02*
X81496D01*
X80708Y118897D01*
Y119947D01*
X85564Y118372D02*
X85826Y118110D01*
Y117585D01*
X85564Y117323D01*
X84514D01*
X84252Y117585D01*
Y118110D01*
X84514Y118372D01*
X85826Y119947D02*
Y118897D01*
X85039D01*
X85302Y119422D01*
Y119684D01*
X85039Y119947D01*
X84514D01*
X84252Y119684D01*
Y119159D01*
X84514Y118897D01*
X89895Y118372D02*
X90157Y118110D01*
Y117585D01*
X89895Y117323D01*
X88845D01*
X88583Y117585D01*
Y118110D01*
X88845Y118372D01*
X90157Y119947D02*
X89895Y119422D01*
X89370Y118897D01*
X88845D01*
X88583Y119159D01*
Y119684D01*
X88845Y119947D01*
X89107D01*
X89370Y119684D01*
Y118897D01*
X93438Y118372D02*
X93700Y118110D01*
Y117585D01*
X93438Y117323D01*
X92388D01*
X92126Y117585D01*
Y118110D01*
X92388Y118372D01*
X93700Y118897D02*
Y119947D01*
X93438D01*
X92388Y118897D01*
X92126D01*
X97375Y118372D02*
X97637Y118110D01*
Y117585D01*
X97375Y117323D01*
X96325D01*
X96063Y117585D01*
Y118110D01*
X96325Y118372D01*
X97375Y118897D02*
X97637Y119159D01*
Y119684D01*
X97375Y119947D01*
X97113D01*
X96850Y119684D01*
X96588Y119947D01*
X96325D01*
X96063Y119684D01*
Y119159D01*
X96325Y118897D01*
X96588D01*
X96850Y119159D01*
X97113Y118897D01*
X97375D01*
X96850Y119159D02*
Y119684D01*
X104855Y118372D02*
X105118Y118110D01*
Y117585D01*
X104855Y117323D01*
X103806D01*
X103543Y117585D01*
Y118110D01*
X103806Y118372D01*
Y118897D02*
X103543Y119159D01*
Y119684D01*
X103806Y119947D01*
X104855D01*
X105118Y119684D01*
Y119159D01*
X104855Y118897D01*
X104593D01*
X104331Y119159D01*
Y119947D01*
X107688Y118249D02*
X107426Y117987D01*
Y117462D01*
X107688Y117200D01*
X108738D01*
X109000Y117462D01*
Y117987D01*
X108738Y118249D01*
X109000Y118774D02*
Y119299D01*
Y119037D01*
X107426D01*
X107688Y118774D01*
Y120086D02*
X107426Y120349D01*
Y120873D01*
X107688Y121136D01*
X108738D01*
X109000Y120873D01*
Y120349D01*
X108738Y120086D01*
X107688D01*
X112729Y118766D02*
X112992Y118504D01*
Y117979D01*
X112729Y117717D01*
X111680D01*
X111417Y117979D01*
Y118504D01*
X111680Y118766D01*
X111417Y119291D02*
Y119816D01*
Y119553D01*
X112992D01*
X112729Y119291D01*
X111417Y120603D02*
Y121127D01*
Y120865D01*
X112992D01*
X112729Y120603D01*
X116666Y117979D02*
X116929Y117716D01*
Y117192D01*
X116666Y116929D01*
X115617D01*
X115354Y117192D01*
Y117716D01*
X115617Y117979D01*
X115354Y118503D02*
Y119028D01*
Y118766D01*
X116929D01*
X116666Y118503D01*
X115354Y120865D02*
Y119815D01*
X116404Y120865D01*
X116666D01*
X116929Y120603D01*
Y120078D01*
X116666Y119815D01*
X120603Y117979D02*
X120866Y117716D01*
Y117192D01*
X120603Y116929D01*
X119554D01*
X119291Y117192D01*
Y117716D01*
X119554Y117979D01*
X119291Y118503D02*
Y119028D01*
Y118766D01*
X120866D01*
X120603Y118503D01*
Y119815D02*
X120866Y120078D01*
Y120603D01*
X120603Y120865D01*
X120341D01*
X120079Y120603D01*
Y120340D01*
Y120603D01*
X119816Y120865D01*
X119554D01*
X119291Y120603D01*
Y120078D01*
X119554Y119815D01*
X124934Y118372D02*
X125196Y118110D01*
Y117585D01*
X124934Y117323D01*
X123884D01*
X123622Y117585D01*
Y118110D01*
X123884Y118372D01*
X123622Y118897D02*
Y119422D01*
Y119159D01*
X125196D01*
X124934Y118897D01*
X123622Y120996D02*
X125196D01*
X124409Y120209D01*
Y121259D01*
X128477Y117979D02*
X128740Y117716D01*
Y117192D01*
X128477Y116929D01*
X127428D01*
X127165Y117192D01*
Y117716D01*
X127428Y117979D01*
X127165Y118503D02*
Y119028D01*
Y118766D01*
X128740D01*
X128477Y118503D01*
X128740Y120865D02*
Y119815D01*
X127953D01*
X128215Y120340D01*
Y120603D01*
X127953Y120865D01*
X127428D01*
X127165Y120603D01*
Y120078D01*
X127428Y119815D01*
X132414Y117979D02*
X132677Y117716D01*
Y117192D01*
X132414Y116929D01*
X131365D01*
X131102Y117192D01*
Y117716D01*
X131365Y117979D01*
X131102Y118503D02*
Y119028D01*
Y118766D01*
X132677D01*
X132414Y118503D01*
X132677Y120865D02*
X132414Y120340D01*
X131889Y119815D01*
X131365D01*
X131102Y120078D01*
Y120603D01*
X131365Y120865D01*
X131627D01*
X131889Y120603D01*
Y119815D01*
X141469Y117979D02*
X141732Y117716D01*
Y117192D01*
X141469Y116929D01*
X140420D01*
X140157Y117192D01*
Y117716D01*
X140420Y117979D01*
X140157Y118503D02*
Y119028D01*
Y118766D01*
X141732D01*
X141469Y118503D01*
X141732Y119815D02*
Y120865D01*
X141469D01*
X140420Y119815D01*
X140157D01*
X145406Y117979D02*
X145669Y117716D01*
Y117192D01*
X145406Y116929D01*
X144357D01*
X144095Y117192D01*
Y117716D01*
X144357Y117979D01*
X144095Y118503D02*
Y119028D01*
Y118766D01*
X145669D01*
X145406Y118503D01*
Y119815D02*
X145669Y120078D01*
Y120603D01*
X145406Y120865D01*
X145144D01*
X144882Y120603D01*
X144619Y120865D01*
X144357D01*
X144095Y120603D01*
Y120078D01*
X144357Y119815D01*
X144619D01*
X144882Y120078D01*
X145144Y119815D01*
X145406D01*
X144882Y120078D02*
Y120603D01*
X149343Y118372D02*
X149606Y118110D01*
Y117585D01*
X149343Y117323D01*
X148294D01*
X148031Y117585D01*
Y118110D01*
X148294Y118372D01*
X148031Y118897D02*
Y119422D01*
Y119159D01*
X149606D01*
X149343Y118897D01*
X148294Y120209D02*
X148031Y120471D01*
Y120996D01*
X148294Y121259D01*
X149343D01*
X149606Y120996D01*
Y120471D01*
X149343Y120209D01*
X149081D01*
X148819Y120471D01*
Y121259D01*
X152088Y118249D02*
X151826Y117987D01*
Y117462D01*
X152088Y117200D01*
X153138D01*
X153400Y117462D01*
Y117987D01*
X153138Y118249D01*
X153400Y119824D02*
Y118774D01*
X152350Y119824D01*
X152088D01*
X151826Y119561D01*
Y119037D01*
X152088Y118774D01*
Y120349D02*
X151826Y120611D01*
Y121136D01*
X152088Y121398D01*
X153138D01*
X153400Y121136D01*
Y120611D01*
X153138Y120349D01*
X152088D01*
X157217Y118372D02*
X157480Y118110D01*
Y117585D01*
X157217Y117323D01*
X156168D01*
X155905Y117585D01*
Y118110D01*
X156168Y118372D01*
X155905Y119947D02*
Y118897D01*
X156955Y119947D01*
X157217D01*
X157480Y119684D01*
Y119159D01*
X157217Y118897D01*
X155905Y120471D02*
Y120996D01*
Y120734D01*
X157480D01*
X157217Y120471D01*
X161154Y117979D02*
X161417Y117716D01*
Y117192D01*
X161154Y116929D01*
X160105D01*
X159843Y117192D01*
Y117716D01*
X160105Y117979D01*
X159843Y119553D02*
Y118503D01*
X160892Y119553D01*
X161154D01*
X161417Y119291D01*
Y118766D01*
X161154Y118503D01*
X159843Y121127D02*
Y120078D01*
X160892Y121127D01*
X161154D01*
X161417Y120865D01*
Y120340D01*
X161154Y120078D01*
X165091Y117979D02*
X165354Y117716D01*
Y117192D01*
X165091Y116929D01*
X164042D01*
X163779Y117192D01*
Y117716D01*
X164042Y117979D01*
X163779Y119553D02*
Y118503D01*
X164829Y119553D01*
X165091D01*
X165354Y119291D01*
Y118766D01*
X165091Y118503D01*
Y120078D02*
X165354Y120340D01*
Y120865D01*
X165091Y121127D01*
X164829D01*
X164567Y120865D01*
Y120603D01*
Y120865D01*
X164304Y121127D01*
X164042D01*
X163779Y120865D01*
Y120340D01*
X164042Y120078D01*
X168635Y118372D02*
X168897Y118110D01*
Y117585D01*
X168635Y117323D01*
X167585D01*
X167323Y117585D01*
Y118110D01*
X167585Y118372D01*
X167323Y119947D02*
Y118897D01*
X168372Y119947D01*
X168635D01*
X168897Y119684D01*
Y119159D01*
X168635Y118897D01*
X167323Y121259D02*
X168897D01*
X168110Y120471D01*
Y121521D01*
X176902Y118372D02*
X177165Y118110D01*
Y117585D01*
X176902Y117323D01*
X175853D01*
X175591Y117585D01*
Y118110D01*
X175853Y118372D01*
X175591Y119947D02*
Y118897D01*
X176640Y119947D01*
X176902D01*
X177165Y119684D01*
Y119159D01*
X176902Y118897D01*
X177165Y121521D02*
Y120471D01*
X176378D01*
X176640Y120996D01*
Y121259D01*
X176378Y121521D01*
X175853D01*
X175591Y121259D01*
Y120734D01*
X175853Y120471D01*
X180840Y118372D02*
X181102Y118110D01*
Y117585D01*
X180840Y117323D01*
X179790D01*
X179528Y117585D01*
Y118110D01*
X179790Y118372D01*
X179528Y119947D02*
Y118897D01*
X180577Y119947D01*
X180840D01*
X181102Y119684D01*
Y119159D01*
X180840Y118897D01*
X181102Y121521D02*
X180840Y120996D01*
X180315Y120471D01*
X179790D01*
X179528Y120734D01*
Y121259D01*
X179790Y121521D01*
X180052D01*
X180315Y121259D01*
Y120471D01*
X184383Y118372D02*
X184645Y118110D01*
Y117585D01*
X184383Y117323D01*
X183333D01*
X183071Y117585D01*
Y118110D01*
X183333Y118372D01*
X183071Y119947D02*
Y118897D01*
X184120Y119947D01*
X184383D01*
X184645Y119684D01*
Y119159D01*
X184383Y118897D01*
X184645Y120471D02*
Y121521D01*
X184383D01*
X183333Y120471D01*
X183071D01*
X188320Y118372D02*
X188582Y118110D01*
Y117585D01*
X188320Y117323D01*
X187270D01*
X187008Y117585D01*
Y118110D01*
X187270Y118372D01*
X187008Y119947D02*
Y118897D01*
X188057Y119947D01*
X188320D01*
X188582Y119684D01*
Y119159D01*
X188320Y118897D01*
Y120471D02*
X188582Y120734D01*
Y121259D01*
X188320Y121521D01*
X188057D01*
X187795Y121259D01*
X187533Y121521D01*
X187270D01*
X187008Y121259D01*
Y120734D01*
X187270Y120471D01*
X187533D01*
X187795Y120734D01*
X188057Y120471D01*
X188320D01*
X187795Y120734D02*
Y121259D01*
X192257Y118372D02*
X192519Y118110D01*
Y117585D01*
X192257Y117323D01*
X191207D01*
X190945Y117585D01*
Y118110D01*
X191207Y118372D01*
X190945Y119947D02*
Y118897D01*
X191994Y119947D01*
X192257D01*
X192519Y119684D01*
Y119159D01*
X192257Y118897D01*
X191207Y120471D02*
X190945Y120734D01*
Y121259D01*
X191207Y121521D01*
X192257D01*
X192519Y121259D01*
Y120734D01*
X192257Y120471D01*
X191994D01*
X191732Y120734D01*
Y121521D01*
X196194Y118372D02*
X196456Y118110D01*
Y117585D01*
X196194Y117323D01*
X195144D01*
X194882Y117585D01*
Y118110D01*
X195144Y118372D01*
X196194Y118897D02*
X196456Y119159D01*
Y119684D01*
X196194Y119947D01*
X195931D01*
X195669Y119684D01*
Y119422D01*
Y119684D01*
X195407Y119947D01*
X195144D01*
X194882Y119684D01*
Y119159D01*
X195144Y118897D01*
X196194Y120471D02*
X196456Y120734D01*
Y121259D01*
X196194Y121521D01*
X195144D01*
X194882Y121259D01*
Y120734D01*
X195144Y120471D01*
X196194D01*
X140027Y170144D02*
X140355Y170472D01*
X141011D01*
X141339Y170144D01*
Y168832D01*
X141011Y168504D01*
X140355D01*
X140027Y168832D01*
X139371Y170472D02*
X138059D01*
Y170144D01*
X139371Y168832D01*
Y168504D01*
X137403D02*
X136747D01*
X137075D01*
Y170472D01*
X137403Y170144D01*
X86877Y194553D02*
X87205Y194881D01*
X87861D01*
X88189Y194553D01*
Y193241D01*
X87861Y192913D01*
X87205D01*
X86877Y193241D01*
X86221Y194881D02*
X84909D01*
Y194553D01*
X86221Y193241D01*
Y192913D01*
X82941D02*
X84253D01*
X82941Y194225D01*
Y194553D01*
X83269Y194881D01*
X83925D01*
X84253Y194553D01*
X127888Y247840D02*
X128216Y248168D01*
X128872D01*
X129200Y247840D01*
Y246528D01*
X128872Y246200D01*
X128216D01*
X127888Y246528D01*
X127232Y248168D02*
X125920D01*
Y247840D01*
X127232Y246528D01*
Y246200D01*
X124280D02*
Y248168D01*
X125264Y247184D01*
X123952D01*
X112488Y247840D02*
X112816Y248168D01*
X113472D01*
X113800Y247840D01*
Y246528D01*
X113472Y246200D01*
X112816D01*
X112488Y246528D01*
X111832Y248168D02*
X110520D01*
Y247840D01*
X111832Y246528D01*
Y246200D01*
X108552Y248168D02*
X109864D01*
Y247184D01*
X109208Y247512D01*
X108880D01*
X108552Y247184D01*
Y246528D01*
X108880Y246200D01*
X109536D01*
X109864Y246528D01*
X158088Y242840D02*
X158416Y243168D01*
X159072D01*
X159400Y242840D01*
Y241528D01*
X159072Y241200D01*
X158416D01*
X158088Y241528D01*
X157432Y243168D02*
X156120D01*
Y242840D01*
X157432Y241528D01*
Y241200D01*
X154152Y243168D02*
X154808Y242840D01*
X155464Y242184D01*
Y241528D01*
X155136Y241200D01*
X154480D01*
X154152Y241528D01*
Y241856D01*
X154480Y242184D01*
X155464D01*
X87888Y227240D02*
X88216Y227568D01*
X88872D01*
X89200Y227240D01*
Y225928D01*
X88872Y225600D01*
X88216D01*
X87888Y225928D01*
X87232Y227568D02*
X85920D01*
Y227240D01*
X87232Y225928D01*
Y225600D01*
X85264Y227568D02*
X83952D01*
Y227240D01*
X85264Y225928D01*
Y225600D01*
X157488Y226240D02*
X157816Y226568D01*
X158472D01*
X158800Y226240D01*
Y224928D01*
X158472Y224600D01*
X157816D01*
X157488Y224928D01*
X156832Y226568D02*
X155520D01*
Y226240D01*
X156832Y224928D01*
Y224600D01*
X154864Y226240D02*
X154536Y226568D01*
X153880D01*
X153552Y226240D01*
Y225912D01*
X153880Y225584D01*
X153552Y225256D01*
Y224928D01*
X153880Y224600D01*
X154536D01*
X154864Y224928D01*
Y225256D01*
X154536Y225584D01*
X154864Y225912D01*
Y226240D01*
X154536Y225584D02*
X153880D01*
X183728Y251797D02*
X184055Y252125D01*
X184711D01*
X185039Y251797D01*
Y250485D01*
X184711Y250157D01*
X184055D01*
X183728Y250485D01*
X183071Y251797D02*
X182744Y252125D01*
X182088D01*
X181760Y251797D01*
Y251469D01*
X182088Y251141D01*
X181760Y250813D01*
Y250485D01*
X182088Y250157D01*
X182744D01*
X183071Y250485D01*
Y250813D01*
X182744Y251141D01*
X183071Y251469D01*
Y251797D01*
X182744Y251141D02*
X182088D01*
X179792Y250157D02*
X181104D01*
X179792Y251469D01*
Y251797D01*
X180120Y252125D01*
X180776D01*
X181104Y251797D01*
X236483Y259671D02*
X236811Y259999D01*
X237467D01*
X237795Y259671D01*
Y258360D01*
X237467Y258032D01*
X236811D01*
X236483Y258360D01*
X235827Y259671D02*
X235499Y259999D01*
X234843D01*
X234516Y259671D01*
Y259343D01*
X234843Y259015D01*
X234516Y258687D01*
Y258360D01*
X234843Y258032D01*
X235499D01*
X235827Y258360D01*
Y258687D01*
X235499Y259015D01*
X235827Y259343D01*
Y259671D01*
X235499Y259015D02*
X234843D01*
X233860Y259671D02*
X233532Y259999D01*
X232876D01*
X232548Y259671D01*
Y259343D01*
X232876Y259015D01*
X233204D01*
X232876D01*
X232548Y258687D01*
Y258360D01*
X232876Y258032D01*
X233532D01*
X233860Y258360D01*
X120537Y255013D02*
X120865Y254685D01*
Y254029D01*
X120537Y253701D01*
X119226D01*
X118898Y254029D01*
Y254685D01*
X119226Y255013D01*
X120537Y255669D02*
X120865Y255997D01*
Y256653D01*
X120537Y256981D01*
X120210D01*
X119882Y256653D01*
X119554Y256981D01*
X119226D01*
X118898Y256653D01*
Y255997D01*
X119226Y255669D01*
X119554D01*
X119882Y255997D01*
X120210Y255669D01*
X120537D01*
X119882Y255997D02*
Y256653D01*
X118898Y258620D02*
X120865D01*
X119882Y257636D01*
Y258948D01*
X73491Y258490D02*
X73819Y258818D01*
X74475D01*
X74803Y258490D01*
Y257178D01*
X74475Y256850D01*
X73819D01*
X73491Y257178D01*
X72835Y258490D02*
X72507Y258818D01*
X71851D01*
X71523Y258490D01*
Y258162D01*
X71851Y257834D01*
X71523Y257506D01*
Y257178D01*
X71851Y256850D01*
X72507D01*
X72835Y257178D01*
Y257506D01*
X72507Y257834D01*
X72835Y258162D01*
Y258490D01*
X72507Y257834D02*
X71851D01*
X69555Y258818D02*
X70867D01*
Y257834D01*
X70211Y258162D01*
X69884D01*
X69555Y257834D01*
Y257178D01*
X69884Y256850D01*
X70539D01*
X70867Y257178D01*
X259908Y172966D02*
X260236Y172637D01*
Y171982D01*
X259908Y171653D01*
X258596D01*
X258268Y171982D01*
Y172637D01*
X258596Y172966D01*
X258268Y173621D02*
Y174277D01*
Y173949D01*
X260236D01*
X259908Y173621D01*
X258268Y175261D02*
Y175917D01*
Y175589D01*
X260236D01*
X259908Y175261D01*
X258268Y178213D02*
Y176901D01*
X259580Y178213D01*
X259908D01*
X260236Y177885D01*
Y177229D01*
X259908Y176901D01*
X195341Y182021D02*
X195669Y181693D01*
Y181037D01*
X195341Y180709D01*
X194029D01*
X193701Y181037D01*
Y181693D01*
X194029Y182021D01*
X193701Y182676D02*
Y183333D01*
Y183004D01*
X195669D01*
X195341Y182676D01*
X193701Y184316D02*
Y184972D01*
Y184644D01*
X195669D01*
X195341Y184316D01*
Y185956D02*
X195669Y186284D01*
Y186940D01*
X195341Y187268D01*
X195013D01*
X194685Y186940D01*
Y186612D01*
Y186940D01*
X194357Y187268D01*
X194029D01*
X193701Y186940D01*
Y186284D01*
X194029Y185956D01*
X240188Y248040D02*
X240516Y248368D01*
X241172D01*
X241500Y248040D01*
Y246728D01*
X241172Y246400D01*
X240516D01*
X240188Y246728D01*
X239532Y246400D02*
X238876D01*
X239204D01*
Y248368D01*
X239532Y248040D01*
X237892Y246400D02*
X237236D01*
X237564D01*
Y248368D01*
X237892Y248040D01*
X234941Y248368D02*
X236252D01*
Y247384D01*
X235596Y247712D01*
X235268D01*
X234941Y247384D01*
Y246728D01*
X235268Y246400D01*
X235924D01*
X236252Y246728D01*
X223888Y247740D02*
X224216Y248068D01*
X224872D01*
X225200Y247740D01*
Y246428D01*
X224872Y246100D01*
X224216D01*
X223888Y246428D01*
X223232Y246100D02*
X222576D01*
X222904D01*
Y248068D01*
X223232Y247740D01*
X221592Y246100D02*
X220936D01*
X221264D01*
Y248068D01*
X221592Y247740D01*
X218640Y248068D02*
X219296Y247740D01*
X219952Y247084D01*
Y246428D01*
X219624Y246100D01*
X218968D01*
X218640Y246428D01*
Y246756D01*
X218968Y247084D01*
X219952D01*
X272288Y242840D02*
X272616Y243168D01*
X273272D01*
X273600Y242840D01*
Y241528D01*
X273272Y241200D01*
X272616D01*
X272288Y241528D01*
X271632Y241200D02*
X270976D01*
X271304D01*
Y243168D01*
X271632Y242840D01*
X269992Y241200D02*
X269336D01*
X269664D01*
Y243168D01*
X269992Y242840D01*
X268352Y243168D02*
X267040D01*
Y242840D01*
X268352Y241528D01*
Y241200D01*
X196040Y216712D02*
X196368Y216384D01*
Y215728D01*
X196040Y215400D01*
X194728D01*
X194400Y215728D01*
Y216384D01*
X194728Y216712D01*
X194400Y217368D02*
Y218024D01*
Y217696D01*
X196368D01*
X196040Y217368D01*
X194400Y219008D02*
Y219664D01*
Y219336D01*
X196368D01*
X196040Y219008D01*
Y220648D02*
X196368Y220976D01*
Y221632D01*
X196040Y221959D01*
X195712D01*
X195384Y221632D01*
X195056Y221959D01*
X194728D01*
X194400Y221632D01*
Y220976D01*
X194728Y220648D01*
X195056D01*
X195384Y220976D01*
X195712Y220648D01*
X196040D01*
X195384Y220976D02*
Y221632D01*
X271888Y226440D02*
X272216Y226768D01*
X272872D01*
X273200Y226440D01*
Y225128D01*
X272872Y224800D01*
X272216D01*
X271888Y225128D01*
X271232Y224800D02*
X270576D01*
X270904D01*
Y226768D01*
X271232Y226440D01*
X269592Y224800D02*
X268936D01*
X269264D01*
Y226768D01*
X269592Y226440D01*
X267952Y225128D02*
X267624Y224800D01*
X266968D01*
X266640Y225128D01*
Y226440D01*
X266968Y226768D01*
X267624D01*
X267952Y226440D01*
Y226112D01*
X267624Y225784D01*
X266640D01*
X187008Y207480D02*
Y209448D01*
X186024D01*
X185696Y209120D01*
Y208464D01*
X186024Y208136D01*
X187008D01*
X186352D02*
X185696Y207480D01*
X185040D02*
X184384D01*
X184712D01*
Y209448D01*
X185040Y209120D01*
X183400D02*
X183072Y209448D01*
X182416D01*
X182088Y209120D01*
Y208792D01*
X182416Y208464D01*
X182744D01*
X182416D01*
X182088Y208136D01*
Y207808D01*
X182416Y207480D01*
X183072D01*
X183400Y207808D01*
X71260Y238189D02*
Y240157D01*
X70276D01*
X69948Y239829D01*
Y239173D01*
X70276Y238845D01*
X71260D01*
X70604D02*
X69948Y238189D01*
X69292D02*
X68636D01*
X68964D01*
Y240157D01*
X69292Y239829D01*
X66340Y240157D02*
X67652D01*
Y239173D01*
X66996Y239501D01*
X66668D01*
X66340Y239173D01*
Y238517D01*
X66668Y238189D01*
X67324D01*
X67652Y238517D01*
X71260Y250787D02*
Y252755D01*
X70276D01*
X69948Y252427D01*
Y251771D01*
X70276Y251443D01*
X71260D01*
X70604D02*
X69948Y250787D01*
X69292D02*
X68636D01*
X68964D01*
Y252755D01*
X69292Y252427D01*
X67652D02*
X67324Y252755D01*
X66668D01*
X66340Y252427D01*
Y252099D01*
X66668Y251771D01*
X66340Y251443D01*
Y251115D01*
X66668Y250787D01*
X67324D01*
X67652Y251115D01*
Y251443D01*
X67324Y251771D01*
X67652Y252099D01*
Y252427D01*
X67324Y251771D02*
X66668D01*
X194213Y288969D02*
Y290937D01*
X193229D01*
X192901Y290609D01*
Y289953D01*
X193229Y289625D01*
X194213D01*
X193557D02*
X192901Y288969D01*
X190933D02*
X192245D01*
X190933Y290281D01*
Y290609D01*
X191261Y290937D01*
X191917D01*
X192245Y290609D01*
X190277D02*
X189949Y290937D01*
X189293D01*
X188965Y290609D01*
Y289297D01*
X189293Y288969D01*
X189949D01*
X190277Y289297D01*
Y290609D01*
X201600Y288969D02*
Y290937D01*
X200616D01*
X200288Y290609D01*
Y289953D01*
X200616Y289625D01*
X201600D01*
X200944D02*
X200288Y288969D01*
X198320D02*
X199632D01*
X198320Y290281D01*
Y290609D01*
X198648Y290937D01*
X199304D01*
X199632Y290609D01*
X197664Y288969D02*
X197008D01*
X197336D01*
Y290937D01*
X197664Y290609D01*
X251613Y288862D02*
Y290830D01*
X250629D01*
X250301Y290502D01*
Y289846D01*
X250629Y289518D01*
X251613D01*
X250957D02*
X250301Y288862D01*
X248333D02*
X249645D01*
X248333Y290174D01*
Y290502D01*
X248661Y290830D01*
X249317D01*
X249645Y290502D01*
X246365Y288862D02*
X247677D01*
X246365Y290174D01*
Y290502D01*
X246693Y290830D01*
X247349D01*
X247677Y290502D01*
X258895Y288969D02*
Y290937D01*
X257911D01*
X257583Y290609D01*
Y289953D01*
X257911Y289625D01*
X258895D01*
X258240D02*
X257583Y288969D01*
X255616D02*
X256928D01*
X255616Y290281D01*
Y290609D01*
X255944Y290937D01*
X256600D01*
X256928Y290609D01*
X254960D02*
X254632Y290937D01*
X253976D01*
X253648Y290609D01*
Y290281D01*
X253976Y289953D01*
X254304D01*
X253976D01*
X253648Y289625D01*
Y289297D01*
X253976Y288969D01*
X254632D01*
X254960Y289297D01*
X208950Y289011D02*
Y290979D01*
X207967D01*
X207639Y290651D01*
Y289995D01*
X207967Y289667D01*
X208950D01*
X208295D02*
X207639Y289011D01*
X205671D02*
X206983D01*
X205671Y290323D01*
Y290651D01*
X205999Y290979D01*
X206655D01*
X206983Y290651D01*
X204031Y289011D02*
Y290979D01*
X205015Y289995D01*
X203703D01*
X266105Y288962D02*
Y290930D01*
X265121D01*
X264793Y290602D01*
Y289946D01*
X265121Y289618D01*
X266105D01*
X265449D02*
X264793Y288962D01*
X262825D02*
X264137D01*
X262825Y290274D01*
Y290602D01*
X263153Y290930D01*
X263809D01*
X264137Y290602D01*
X260857Y290930D02*
X262169D01*
Y289946D01*
X261513Y290274D01*
X261185D01*
X260857Y289946D01*
Y289290D01*
X261185Y288962D01*
X261841D01*
X262169Y289290D01*
X216382Y288993D02*
Y290960D01*
X215398D01*
X215070Y290632D01*
Y289977D01*
X215398Y289649D01*
X216382D01*
X215725D02*
X215070Y288993D01*
X213102D02*
X214414D01*
X213102Y290304D01*
Y290632D01*
X213430Y290960D01*
X214086D01*
X214414Y290632D01*
X211134Y290960D02*
X211790Y290632D01*
X212446Y289977D01*
Y289320D01*
X212118Y288993D01*
X211462D01*
X211134Y289320D01*
Y289649D01*
X211462Y289977D01*
X212446D01*
X273375Y288949D02*
Y290917D01*
X272391D01*
X272063Y290589D01*
Y289933D01*
X272391Y289605D01*
X273375D01*
X272719D02*
X272063Y288949D01*
X270095D02*
X271407D01*
X270095Y290261D01*
Y290589D01*
X270423Y290917D01*
X271079D01*
X271407Y290589D01*
X269440Y290917D02*
X268128D01*
Y290589D01*
X269440Y289277D01*
Y288949D01*
X139913Y288969D02*
Y290937D01*
X138929D01*
X138601Y290609D01*
Y289953D01*
X138929Y289625D01*
X139913D01*
X139257D02*
X138601Y288969D01*
X136633D02*
X137945D01*
X136633Y290281D01*
Y290609D01*
X136961Y290937D01*
X137617D01*
X137945Y290609D01*
X135977D02*
X135649Y290937D01*
X134993D01*
X134665Y290609D01*
Y290281D01*
X134993Y289953D01*
X134665Y289625D01*
Y289297D01*
X134993Y288969D01*
X135649D01*
X135977Y289297D01*
Y289625D01*
X135649Y289953D01*
X135977Y290281D01*
Y290609D01*
X135649Y289953D02*
X134993D01*
X146896Y288969D02*
Y290937D01*
X145912D01*
X145584Y290609D01*
Y289953D01*
X145912Y289625D01*
X146896D01*
X146240D02*
X145584Y288969D01*
X143616D02*
X144928D01*
X143616Y290281D01*
Y290609D01*
X143944Y290937D01*
X144600D01*
X144928Y290609D01*
X142960Y289297D02*
X142632Y288969D01*
X141976D01*
X141648Y289297D01*
Y290609D01*
X141976Y290937D01*
X142632D01*
X142960Y290609D01*
Y290281D01*
X142632Y289953D01*
X141648D01*
X83313Y288862D02*
Y290830D01*
X82329D01*
X82001Y290502D01*
Y289846D01*
X82329Y289518D01*
X83313D01*
X82657D02*
X82001Y288862D01*
X81345Y290502D02*
X81017Y290830D01*
X80361D01*
X80033Y290502D01*
Y290174D01*
X80361Y289846D01*
X80689D01*
X80361D01*
X80033Y289518D01*
Y289190D01*
X80361Y288862D01*
X81017D01*
X81345Y289190D01*
X79377Y290502D02*
X79049Y290830D01*
X78393D01*
X78065Y290502D01*
Y289190D01*
X78393Y288862D01*
X79049D01*
X79377Y289190D01*
Y290502D01*
X90003Y288862D02*
Y290830D01*
X89019D01*
X88691Y290502D01*
Y289846D01*
X89019Y289518D01*
X90003D01*
X89346D02*
X88691Y288862D01*
X88035Y290502D02*
X87707Y290830D01*
X87051D01*
X86723Y290502D01*
Y290174D01*
X87051Y289846D01*
X87379D01*
X87051D01*
X86723Y289518D01*
Y289190D01*
X87051Y288862D01*
X87707D01*
X88035Y289190D01*
X86067Y288862D02*
X85411D01*
X85739D01*
Y290830D01*
X86067Y290502D01*
X153873Y289011D02*
Y290979D01*
X152889D01*
X152561Y290651D01*
Y289995D01*
X152889Y289667D01*
X153873D01*
X153217D02*
X152561Y289011D01*
X151906Y290651D02*
X151577Y290979D01*
X150922D01*
X150594Y290651D01*
Y290323D01*
X150922Y289995D01*
X151250D01*
X150922D01*
X150594Y289667D01*
Y289339D01*
X150922Y289011D01*
X151577D01*
X151906Y289339D01*
X148626Y289011D02*
X149938D01*
X148626Y290323D01*
Y290651D01*
X148954Y290979D01*
X149610D01*
X149938Y290651D01*
X96627Y288903D02*
Y290871D01*
X95643D01*
X95315Y290543D01*
Y289887D01*
X95643Y289560D01*
X96627D01*
X95971D02*
X95315Y288903D01*
X94659Y290543D02*
X94331Y290871D01*
X93675D01*
X93347Y290543D01*
Y290215D01*
X93675Y289887D01*
X94003D01*
X93675D01*
X93347Y289560D01*
Y289231D01*
X93675Y288903D01*
X94331D01*
X94659Y289231D01*
X92691Y290543D02*
X92363Y290871D01*
X91707D01*
X91379Y290543D01*
Y290215D01*
X91707Y289887D01*
X92035D01*
X91707D01*
X91379Y289560D01*
Y289231D01*
X91707Y288903D01*
X92363D01*
X92691Y289231D01*
X160862Y288969D02*
Y290937D01*
X159878D01*
X159550Y290609D01*
Y289953D01*
X159878Y289625D01*
X160862D01*
X160206D02*
X159550Y288969D01*
X158894Y290609D02*
X158566Y290937D01*
X157910D01*
X157582Y290609D01*
Y290281D01*
X157910Y289953D01*
X158238D01*
X157910D01*
X157582Y289625D01*
Y289297D01*
X157910Y288969D01*
X158566D01*
X158894Y289297D01*
X155942Y288969D02*
Y290937D01*
X156926Y289953D01*
X155614D01*
X103382Y288862D02*
Y290830D01*
X102398D01*
X102070Y290502D01*
Y289846D01*
X102398Y289518D01*
X103382D01*
X102726D02*
X102070Y288862D01*
X101414Y290502D02*
X101086Y290830D01*
X100430D01*
X100102Y290502D01*
Y290174D01*
X100430Y289846D01*
X100758D01*
X100430D01*
X100102Y289518D01*
Y289190D01*
X100430Y288862D01*
X101086D01*
X101414Y289190D01*
X98134Y290830D02*
X99446D01*
Y289846D01*
X98790Y290174D01*
X98462D01*
X98134Y289846D01*
Y289190D01*
X98462Y288862D01*
X99118D01*
X99446Y289190D01*
D64*
X347434Y60899D02*
X348367D01*
X347901D01*
Y58566D01*
X348367Y58100D01*
X348833D01*
X349300Y58566D01*
X346501Y58100D02*
X345568D01*
X346034D01*
Y60899D01*
X346501Y60433D01*
D69*
X7084Y12900D02*
G03*
X7084Y12900I-492J0D01*
G01*
D71*
X298589Y235720D02*
Y238870D01*
X292683Y235720D02*
Y238870D01*
X240035Y158274D02*
Y161424D01*
X245940Y158274D02*
Y161424D01*
X180092Y234999D02*
Y238148D01*
X174186Y234999D02*
Y238148D01*
X5100Y15900D02*
X349100D01*
Y55900D01*
X5100D02*
X349100D01*
X5100Y15900D02*
Y55900D01*
M02*
