%FSLAX25Y25*%
%MOIN*%
G70*
G01*
G75*
G04 Layer_Physical_Order=6*
G04 Layer_Color=16440176*
%ADD10C,0.00800*%
%ADD11R,0.10236X0.04331*%
%ADD12R,0.04331X0.10236*%
%ADD13R,0.06693X0.04528*%
%ADD14R,0.07087X0.07087*%
G04:AMPARAMS|DCode=15|XSize=19.69mil|YSize=23.62mil|CornerRadius=4.92mil|HoleSize=0mil|Usage=FLASHONLY|Rotation=90.000|XOffset=0mil|YOffset=0mil|HoleType=Round|Shape=RoundedRectangle|*
%AMROUNDEDRECTD15*
21,1,0.01969,0.01378,0,0,90.0*
21,1,0.00984,0.02362,0,0,90.0*
1,1,0.00984,0.00689,0.00492*
1,1,0.00984,0.00689,-0.00492*
1,1,0.00984,-0.00689,-0.00492*
1,1,0.00984,-0.00689,0.00492*
%
%ADD15ROUNDEDRECTD15*%
%ADD16R,0.04528X0.06693*%
%ADD17C,0.03937*%
%ADD18R,0.02362X0.02362*%
%ADD19C,0.01772*%
%ADD20R,0.47441X0.07874*%
%ADD21R,0.02362X0.02362*%
%ADD22R,0.02362X0.07087*%
G04:AMPARAMS|DCode=23|XSize=19.69mil|YSize=23.62mil|CornerRadius=4.92mil|HoleSize=0mil|Usage=FLASHONLY|Rotation=180.000|XOffset=0mil|YOffset=0mil|HoleType=Round|Shape=RoundedRectangle|*
%AMROUNDEDRECTD23*
21,1,0.01969,0.01378,0,0,180.0*
21,1,0.00984,0.02362,0,0,180.0*
1,1,0.00984,-0.00492,0.00689*
1,1,0.00984,0.00492,0.00689*
1,1,0.00984,0.00492,-0.00689*
1,1,0.00984,-0.00492,-0.00689*
%
%ADD23ROUNDEDRECTD23*%
%ADD24R,0.03740X0.01378*%
%ADD25R,0.01378X0.03740*%
%ADD26R,0.12992X0.12992*%
%ADD27R,0.04528X0.07087*%
%ADD28R,0.01969X0.07874*%
%ADD29R,0.14488X0.05000*%
%ADD30R,0.05512X0.03937*%
%ADD31R,0.03937X0.05512*%
%ADD32R,0.12992X0.12992*%
%ADD33R,0.05512X0.04331*%
%ADD34R,0.04331X0.05512*%
%ADD35C,0.00500*%
%ADD36C,0.01000*%
%ADD37C,0.01969*%
%ADD38C,0.01500*%
%ADD39C,0.01200*%
%ADD40C,0.00600*%
%ADD41C,0.02000*%
%ADD42C,0.03740*%
%ADD43R,0.07874X0.07874*%
%ADD44C,0.31496*%
%ADD45C,0.06496*%
%ADD46C,0.05800*%
%ADD47C,0.01940*%
%ADD48C,0.05000*%
%ADD49C,0.02598*%
%ADD50C,0.04000*%
%ADD51C,0.05740*%
%ADD52C,0.06134*%
%ADD53C,0.17000*%
%ADD54C,0.06600*%
%ADD55C,0.08102*%
%ADD56C,0.08000*%
%ADD57C,0.03969*%
%ADD58C,0.03000*%
%ADD59C,0.04800*%
%ADD60C,0.00394*%
%ADD61C,0.00400*%
%ADD62C,0.03299*%
%ADD63C,0.05000*%
G36*
X129921Y187008D02*
Y167323D01*
X124016Y161417D01*
X118110D01*
Y171424D01*
Y175197D01*
X114173Y179134D01*
X114173Y179134D01*
Y202756D01*
X110236D01*
Y218504D01*
X129921D01*
Y187008D01*
D02*
G37*
G36*
X244094Y167323D02*
X238189Y161417D01*
X232283D01*
Y175197D01*
X228346Y179134D01*
Y202756D01*
X224410D01*
Y218504D01*
X244094D01*
Y167323D01*
D02*
G37*
G36*
X352362Y9843D02*
X348425Y5906D01*
X181102D01*
X177165Y9843D01*
Y25591D01*
X190945Y39370D01*
X253937D01*
Y155512D01*
X293307Y194882D01*
Y212344D01*
X293943Y212607D01*
X294563Y213083D01*
X295039Y213703D01*
X295338Y214425D01*
X295440Y215200D01*
X295338Y215975D01*
X295039Y216697D01*
X294563Y217317D01*
X293943Y217793D01*
X293307Y218056D01*
Y256616D01*
X293370Y256665D01*
X293846Y257285D01*
X294145Y258007D01*
X294247Y258782D01*
X294145Y259557D01*
X293846Y260279D01*
X293370Y260899D01*
X293307Y260947D01*
Y262150D01*
X294570D01*
Y272024D01*
X293307D01*
Y289370D01*
X352362D01*
Y9843D01*
D02*
G37*
%LPC*%
G36*
X304429Y44937D02*
X303660Y44784D01*
X303008Y44349D01*
X302573Y43697D01*
X302420Y42929D01*
X302573Y42160D01*
X303008Y41508D01*
X303660Y41073D01*
X304429Y40920D01*
X305197Y41073D01*
X305849Y41508D01*
X306284Y42160D01*
X306437Y42929D01*
X306284Y43697D01*
X305849Y44349D01*
X305197Y44784D01*
X304429Y44937D01*
D02*
G37*
G36*
X274429D02*
X273660Y44784D01*
X273008Y44349D01*
X272573Y43697D01*
X272420Y42929D01*
X272573Y42160D01*
X273008Y41508D01*
X273660Y41073D01*
X274429Y40920D01*
X275197Y41073D01*
X275849Y41508D01*
X276284Y42160D01*
X276437Y42929D01*
X276284Y43697D01*
X275849Y44349D01*
X275197Y44784D01*
X274429Y44937D01*
D02*
G37*
G36*
X309429D02*
X308660Y44784D01*
X308008Y44349D01*
X307573Y43697D01*
X307420Y42929D01*
X307573Y42160D01*
X308008Y41508D01*
X308660Y41073D01*
X309429Y40920D01*
X310197Y41073D01*
X310849Y41508D01*
X311284Y42160D01*
X311437Y42929D01*
X311284Y43697D01*
X310849Y44349D01*
X310197Y44784D01*
X309429Y44937D01*
D02*
G37*
G36*
X326929D02*
X326160Y44784D01*
X325508Y44349D01*
X325073Y43697D01*
X324920Y42929D01*
X325073Y42160D01*
X325508Y41508D01*
X326160Y41073D01*
X326929Y40920D01*
X327697Y41073D01*
X328349Y41508D01*
X328784Y42160D01*
X328937Y42929D01*
X328784Y43697D01*
X328349Y44349D01*
X327697Y44784D01*
X326929Y44937D01*
D02*
G37*
G36*
X321929D02*
X321160Y44784D01*
X320508Y44349D01*
X320073Y43697D01*
X319920Y42929D01*
X320073Y42160D01*
X320508Y41508D01*
X321160Y41073D01*
X321929Y40920D01*
X322697Y41073D01*
X323349Y41508D01*
X323784Y42160D01*
X323937Y42929D01*
X323784Y43697D01*
X323349Y44349D01*
X322697Y44784D01*
X321929Y44937D01*
D02*
G37*
G36*
X309429Y30880D02*
X308660Y30727D01*
X308008Y30292D01*
X307573Y29640D01*
X307420Y28871D01*
X307573Y28103D01*
X308008Y27451D01*
X308660Y27016D01*
X309429Y26863D01*
X310197Y27016D01*
X310849Y27451D01*
X311284Y28103D01*
X311437Y28871D01*
X311284Y29640D01*
X310849Y30292D01*
X310197Y30727D01*
X309429Y30880D01*
D02*
G37*
G36*
X304429D02*
X303660Y30727D01*
X303008Y30292D01*
X302573Y29640D01*
X302420Y28871D01*
X302573Y28103D01*
X303008Y27451D01*
X303660Y27016D01*
X304429Y26863D01*
X305197Y27016D01*
X305849Y27451D01*
X306284Y28103D01*
X306437Y28871D01*
X306284Y29640D01*
X305849Y30292D01*
X305197Y30727D01*
X304429Y30880D01*
D02*
G37*
G36*
X294429D02*
X293660Y30727D01*
X293008Y30292D01*
X292573Y29640D01*
X292420Y28871D01*
X292573Y28103D01*
X293008Y27451D01*
X293660Y27016D01*
X294429Y26863D01*
X295197Y27016D01*
X295849Y27451D01*
X296284Y28103D01*
X296437Y28871D01*
X296284Y29640D01*
X295849Y30292D01*
X295197Y30727D01*
X294429Y30880D01*
D02*
G37*
G36*
X321929D02*
X321160Y30727D01*
X320508Y30292D01*
X320073Y29640D01*
X319920Y28871D01*
X320073Y28103D01*
X320508Y27451D01*
X321160Y27016D01*
X321929Y26863D01*
X322697Y27016D01*
X323349Y27451D01*
X323784Y28103D01*
X323937Y28871D01*
X323784Y29640D01*
X323349Y30292D01*
X322697Y30727D01*
X321929Y30880D01*
D02*
G37*
G36*
X205429Y30937D02*
X204660Y30784D01*
X204008Y30349D01*
X203573Y29697D01*
X203420Y28929D01*
X203573Y28160D01*
X204008Y27508D01*
X204660Y27073D01*
X205429Y26920D01*
X206197Y27073D01*
X206849Y27508D01*
X207284Y28160D01*
X207437Y28929D01*
X207284Y29697D01*
X206849Y30349D01*
X206197Y30784D01*
X205429Y30937D01*
D02*
G37*
G36*
X190429D02*
X189660Y30784D01*
X189008Y30349D01*
X188573Y29697D01*
X188420Y28929D01*
X188573Y28160D01*
X189008Y27508D01*
X189660Y27073D01*
X190429Y26920D01*
X191197Y27073D01*
X191849Y27508D01*
X192284Y28160D01*
X192437Y28929D01*
X192284Y29697D01*
X191849Y30349D01*
X191197Y30784D01*
X190429Y30937D01*
D02*
G37*
G36*
X326929Y30880D02*
X326160Y30727D01*
X325508Y30292D01*
X325073Y29640D01*
X324920Y28871D01*
X325073Y28103D01*
X325508Y27451D01*
X326160Y27016D01*
X326929Y26863D01*
X327697Y27016D01*
X328349Y27451D01*
X328784Y28103D01*
X328937Y28871D01*
X328784Y29640D01*
X328349Y30292D01*
X327697Y30727D01*
X326929Y30880D01*
D02*
G37*
G36*
X316929Y44837D02*
X316160Y44684D01*
X315679Y44363D01*
X315197Y44684D01*
X314429Y44837D01*
X313660Y44684D01*
X313008Y44249D01*
X312573Y43597D01*
X312420Y42829D01*
X312573Y42060D01*
X313008Y41408D01*
X313660Y40973D01*
X314429Y40820D01*
X315197Y40973D01*
X315679Y41295D01*
X316160Y40973D01*
X316929Y40820D01*
X317697Y40973D01*
X318349Y41408D01*
X318784Y42060D01*
X318937Y42829D01*
X318784Y43597D01*
X318349Y44249D01*
X317697Y44684D01*
X316929Y44837D01*
D02*
G37*
G36*
X324429Y56480D02*
X323660Y56327D01*
X323008Y55892D01*
X322573Y55240D01*
X322420Y54471D01*
X322573Y53703D01*
X323008Y53051D01*
X323660Y52616D01*
X324429Y52463D01*
X325197Y52616D01*
X325849Y53051D01*
X326284Y53703D01*
X326437Y54471D01*
X326284Y55240D01*
X325849Y55892D01*
X325197Y56327D01*
X324429Y56480D01*
D02*
G37*
G36*
X319429D02*
X318660Y56327D01*
X318008Y55892D01*
X317573Y55240D01*
X317420Y54471D01*
X317573Y53703D01*
X318008Y53051D01*
X318660Y52616D01*
X319429Y52463D01*
X320197Y52616D01*
X320849Y53051D01*
X321284Y53703D01*
X321437Y54471D01*
X321284Y55240D01*
X320849Y55892D01*
X320197Y56327D01*
X319429Y56480D01*
D02*
G37*
G36*
X311929D02*
X311160Y56327D01*
X310508Y55892D01*
X310073Y55240D01*
X309920Y54471D01*
X310073Y53703D01*
X310508Y53051D01*
X311160Y52616D01*
X311929Y52463D01*
X312697Y52616D01*
X313349Y53051D01*
X313784Y53703D01*
X313937Y54471D01*
X313784Y55240D01*
X313349Y55892D01*
X312697Y56327D01*
X311929Y56480D01*
D02*
G37*
G36*
X331929D02*
X331160Y56327D01*
X330679Y56005D01*
X330197Y56327D01*
X329429Y56480D01*
X328660Y56327D01*
X328008Y55892D01*
X327573Y55240D01*
X327420Y54471D01*
X327573Y53703D01*
X328008Y53051D01*
X328660Y52616D01*
X329429Y52463D01*
X330197Y52616D01*
X330679Y52937D01*
X331160Y52616D01*
X331929Y52463D01*
X332697Y52616D01*
X333349Y53051D01*
X333784Y53703D01*
X333937Y54471D01*
X333784Y55240D01*
X333349Y55892D01*
X332697Y56327D01*
X331929Y56480D01*
D02*
G37*
G36*
X329829Y104234D02*
X327638Y104090D01*
X325485Y103662D01*
X323406Y102956D01*
X321437Y101985D01*
X319611Y100766D01*
X317961Y99318D01*
X316513Y97667D01*
X315293Y95842D01*
X314322Y93873D01*
X313617Y91794D01*
X313188Y89641D01*
X313045Y87450D01*
X313188Y85259D01*
X313617Y83106D01*
X314322Y81027D01*
X315293Y79058D01*
X316513Y77233D01*
X317961Y75582D01*
X319611Y74134D01*
X321437Y72915D01*
X323406Y71944D01*
X325485Y71238D01*
X327638Y70810D01*
X329829Y70666D01*
X332019Y70810D01*
X334173Y71238D01*
X336252Y71944D01*
X338221Y72915D01*
X340046Y74134D01*
X341697Y75582D01*
X343144Y77233D01*
X344364Y79058D01*
X345335Y81027D01*
X346041Y83106D01*
X346469Y85259D01*
X346613Y87450D01*
X346469Y89641D01*
X346041Y91794D01*
X345335Y93873D01*
X344364Y95842D01*
X343144Y97667D01*
X341697Y99318D01*
X340046Y100766D01*
X338221Y101985D01*
X336252Y102956D01*
X334173Y103662D01*
X332019Y104090D01*
X329829Y104234D01*
D02*
G37*
G36*
X271457Y71695D02*
X270682Y71593D01*
X269960Y71294D01*
X269339Y70818D01*
X268864Y70198D01*
X268565Y69476D01*
X268463Y68701D01*
X268565Y67926D01*
X268864Y67204D01*
X269339Y66584D01*
X269960Y66108D01*
X270682Y65809D01*
X271457Y65707D01*
X272232Y65809D01*
X272954Y66108D01*
X273574Y66584D01*
X274050Y67204D01*
X274349Y67926D01*
X274451Y68701D01*
X274349Y69476D01*
X274050Y70198D01*
X273574Y70818D01*
X272954Y71294D01*
X272232Y71593D01*
X271457Y71695D01*
D02*
G37*
G36*
X260827D02*
X260052Y71593D01*
X259330Y71294D01*
X258710Y70818D01*
X258234Y70198D01*
X257935Y69476D01*
X257833Y68701D01*
X257935Y67926D01*
X258234Y67204D01*
X258710Y66584D01*
X259330Y66108D01*
X260052Y65809D01*
X260827Y65707D01*
X261602Y65809D01*
X262324Y66108D01*
X262944Y66584D01*
X263420Y67204D01*
X263719Y67926D01*
X263821Y68701D01*
X263719Y69476D01*
X263420Y70198D01*
X262944Y70818D01*
X262324Y71294D01*
X261602Y71593D01*
X260827Y71695D01*
D02*
G37*
G36*
X286929Y56437D02*
X286160Y56284D01*
X285508Y55849D01*
X285073Y55197D01*
X284920Y54429D01*
X285073Y53660D01*
X285508Y53009D01*
X286160Y52573D01*
X286929Y52420D01*
X287697Y52573D01*
X288349Y53009D01*
X288784Y53660D01*
X288937Y54429D01*
X288784Y55197D01*
X288349Y55849D01*
X287697Y56284D01*
X286929Y56437D01*
D02*
G37*
G36*
X279429D02*
X278660Y56284D01*
X278008Y55849D01*
X277573Y55197D01*
X277420Y54429D01*
X277573Y53660D01*
X278008Y53009D01*
X278660Y52573D01*
X279429Y52420D01*
X280197Y52573D01*
X280849Y53009D01*
X281284Y53660D01*
X281437Y54429D01*
X281284Y55197D01*
X280849Y55849D01*
X280197Y56284D01*
X279429Y56437D01*
D02*
G37*
G36*
X340250Y50659D02*
X339481Y50506D01*
X338830Y50070D01*
X338394Y49419D01*
X338241Y48650D01*
X338394Y47881D01*
X338830Y47230D01*
X339481Y46794D01*
X340250Y46641D01*
X341019Y46794D01*
X341670Y47230D01*
X342106Y47881D01*
X342259Y48650D01*
X342106Y49419D01*
X341670Y50070D01*
X341019Y50506D01*
X340250Y50659D01*
D02*
G37*
G36*
X294429Y56437D02*
X293660Y56284D01*
X293008Y55849D01*
X292573Y55197D01*
X292420Y54429D01*
X292573Y53660D01*
X293008Y53009D01*
X293660Y52573D01*
X294429Y52420D01*
X295197Y52573D01*
X295849Y53009D01*
X296284Y53660D01*
X296437Y54429D01*
X296284Y55197D01*
X295849Y55849D01*
X295197Y56284D01*
X294429Y56437D01*
D02*
G37*
G36*
X306929Y56480D02*
X306160Y56327D01*
X305508Y55892D01*
X305073Y55240D01*
X304920Y54471D01*
X305073Y53703D01*
X305508Y53051D01*
X306160Y52616D01*
X306929Y52463D01*
X307697Y52616D01*
X308349Y53051D01*
X308784Y53703D01*
X308937Y54471D01*
X308784Y55240D01*
X308349Y55892D01*
X307697Y56327D01*
X306929Y56480D01*
D02*
G37*
G36*
X301929D02*
X301160Y56327D01*
X300508Y55892D01*
X300073Y55240D01*
X299920Y54471D01*
X300073Y53703D01*
X300508Y53051D01*
X301160Y52616D01*
X301929Y52463D01*
X302697Y52616D01*
X303349Y53051D01*
X303784Y53703D01*
X303937Y54471D01*
X303784Y55240D01*
X303349Y55892D01*
X302697Y56327D01*
X301929Y56480D01*
D02*
G37*
G36*
X271929D02*
X271160Y56327D01*
X270508Y55892D01*
X270073Y55240D01*
X269920Y54471D01*
X270073Y53703D01*
X270508Y53051D01*
X271160Y52616D01*
X271929Y52463D01*
X272697Y52616D01*
X273349Y53051D01*
X273784Y53703D01*
X273937Y54471D01*
X273784Y55240D01*
X273349Y55892D01*
X272697Y56327D01*
X271929Y56480D01*
D02*
G37*
G36*
X289429Y30880D02*
X288660Y30727D01*
X288008Y30292D01*
X287573Y29640D01*
X287420Y28871D01*
X287573Y28103D01*
X288008Y27451D01*
X288660Y27016D01*
X289429Y26863D01*
X290197Y27016D01*
X290849Y27451D01*
X291284Y28103D01*
X291437Y28871D01*
X291284Y29640D01*
X290849Y30292D01*
X290197Y30727D01*
X289429Y30880D01*
D02*
G37*
G36*
X306929Y19437D02*
X306160Y19284D01*
X305508Y18849D01*
X305073Y18197D01*
X304920Y17429D01*
X305073Y16660D01*
X305508Y16008D01*
X306160Y15573D01*
X306929Y15420D01*
X307697Y15573D01*
X308349Y16008D01*
X308784Y16660D01*
X308937Y17429D01*
X308784Y18197D01*
X308349Y18849D01*
X307697Y19284D01*
X306929Y19437D01*
D02*
G37*
G36*
X286929D02*
X286160Y19284D01*
X285508Y18849D01*
X285073Y18197D01*
X284920Y17429D01*
X285073Y16660D01*
X285508Y16008D01*
X286160Y15573D01*
X286929Y15420D01*
X287697Y15573D01*
X288349Y16008D01*
X288784Y16660D01*
X288937Y17429D01*
X288784Y18197D01*
X288349Y18849D01*
X287697Y19284D01*
X286929Y19437D01*
D02*
G37*
G36*
X276929D02*
X276160Y19284D01*
X275508Y18849D01*
X275073Y18197D01*
X274920Y17429D01*
X275073Y16660D01*
X275508Y16008D01*
X276160Y15573D01*
X276929Y15420D01*
X277697Y15573D01*
X278349Y16008D01*
X278784Y16660D01*
X278937Y17429D01*
X278784Y18197D01*
X278349Y18849D01*
X277697Y19284D01*
X276929Y19437D01*
D02*
G37*
G36*
X311929D02*
X311160Y19284D01*
X310508Y18849D01*
X310073Y18197D01*
X309920Y17429D01*
X310073Y16660D01*
X310508Y16008D01*
X311160Y15573D01*
X311929Y15420D01*
X312697Y15573D01*
X313349Y16008D01*
X313784Y16660D01*
X313937Y17429D01*
X313784Y18197D01*
X313349Y18849D01*
X312697Y19284D01*
X311929Y19437D01*
D02*
G37*
G36*
X202929Y19480D02*
X202160Y19327D01*
X201508Y18892D01*
X201073Y18240D01*
X200920Y17471D01*
X201073Y16703D01*
X201508Y16051D01*
X202160Y15616D01*
X202929Y15463D01*
X203697Y15616D01*
X204349Y16051D01*
X204784Y16703D01*
X204937Y17471D01*
X204784Y18240D01*
X204349Y18892D01*
X203697Y19327D01*
X202929Y19480D01*
D02*
G37*
G36*
X334429Y19437D02*
X333660Y19284D01*
X333008Y18849D01*
X332573Y18197D01*
X332420Y17429D01*
X332573Y16660D01*
X333008Y16008D01*
X333660Y15573D01*
X334429Y15420D01*
X335197Y15573D01*
X335849Y16008D01*
X336284Y16660D01*
X336437Y17429D01*
X336284Y18197D01*
X335849Y18849D01*
X335197Y19284D01*
X334429Y19437D01*
D02*
G37*
G36*
X324429D02*
X323660Y19284D01*
X323008Y18849D01*
X322573Y18197D01*
X322420Y17429D01*
X322573Y16660D01*
X323008Y16008D01*
X323660Y15573D01*
X324429Y15420D01*
X325197Y15573D01*
X325849Y16008D01*
X326284Y16660D01*
X326437Y17429D01*
X326284Y18197D01*
X325849Y18849D01*
X325197Y19284D01*
X324429Y19437D01*
D02*
G37*
G36*
X207929D02*
X207160Y19284D01*
X206508Y18849D01*
X206073Y18197D01*
X205920Y17429D01*
X206073Y16660D01*
X206508Y16008D01*
X207160Y15573D01*
X207929Y15420D01*
X208697Y15573D01*
X209349Y16008D01*
X209784Y16660D01*
X209937Y17429D01*
X209784Y18197D01*
X209349Y18849D01*
X208697Y19284D01*
X207929Y19437D01*
D02*
G37*
G36*
X192929D02*
X192160Y19284D01*
X191508Y18849D01*
X191073Y18197D01*
X190920Y17429D01*
X191073Y16660D01*
X191508Y16008D01*
X192160Y15573D01*
X192929Y15420D01*
X193697Y15573D01*
X194349Y16008D01*
X194784Y16660D01*
X194937Y17429D01*
X194784Y18197D01*
X194349Y18849D01*
X193697Y19284D01*
X192929Y19437D01*
D02*
G37*
G36*
X187929D02*
X187160Y19284D01*
X186508Y18849D01*
X186073Y18197D01*
X185920Y17429D01*
X186073Y16660D01*
X186508Y16008D01*
X187160Y15573D01*
X187929Y15420D01*
X188697Y15573D01*
X189349Y16008D01*
X189784Y16660D01*
X189937Y17429D01*
X189784Y18197D01*
X189349Y18849D01*
X188697Y19284D01*
X187929Y19437D01*
D02*
G37*
G36*
X217929D02*
X217160Y19284D01*
X216508Y18849D01*
X216073Y18197D01*
X215920Y17429D01*
X216073Y16660D01*
X216508Y16008D01*
X217160Y15573D01*
X217929Y15420D01*
X218697Y15573D01*
X219349Y16008D01*
X219784Y16660D01*
X219937Y17429D01*
X219784Y18197D01*
X219349Y18849D01*
X218697Y19284D01*
X217929Y19437D01*
D02*
G37*
G36*
X271929D02*
X271160Y19284D01*
X270508Y18849D01*
X270073Y18197D01*
X269920Y17429D01*
X270073Y16660D01*
X270508Y16008D01*
X271160Y15573D01*
X271929Y15420D01*
X272697Y15573D01*
X273349Y16008D01*
X273784Y16660D01*
X273937Y17429D01*
X273784Y18197D01*
X273349Y18849D01*
X272697Y19284D01*
X271929Y19437D01*
D02*
G37*
G36*
X240429D02*
X239660Y19284D01*
X239008Y18849D01*
X238573Y18197D01*
X238420Y17429D01*
X238573Y16660D01*
X239008Y16008D01*
X239660Y15573D01*
X240429Y15420D01*
X241197Y15573D01*
X241849Y16008D01*
X242284Y16660D01*
X242437Y17429D01*
X242284Y18197D01*
X241849Y18849D01*
X241197Y19284D01*
X240429Y19437D01*
D02*
G37*
G36*
X222929D02*
X222160Y19284D01*
X221508Y18849D01*
X221073Y18197D01*
X220920Y17429D01*
X221073Y16660D01*
X221508Y16008D01*
X222160Y15573D01*
X222929Y15420D01*
X223697Y15573D01*
X224349Y16008D01*
X224784Y16660D01*
X224937Y17429D01*
X224784Y18197D01*
X224349Y18849D01*
X223697Y19284D01*
X222929Y19437D01*
D02*
G37*
G36*
X235429Y19480D02*
X234660Y19327D01*
X234008Y18892D01*
X233573Y18240D01*
X233420Y17471D01*
X233573Y16703D01*
X234008Y16051D01*
X234660Y15616D01*
X235429Y15463D01*
X236197Y15616D01*
X236849Y16051D01*
X237284Y16703D01*
X237437Y17471D01*
X237284Y18240D01*
X236849Y18892D01*
X236197Y19327D01*
X235429Y19480D01*
D02*
G37*
G36*
X210429Y30880D02*
X209660Y30727D01*
X209008Y30292D01*
X208573Y29640D01*
X208420Y28871D01*
X208573Y28103D01*
X209008Y27451D01*
X209660Y27016D01*
X210429Y26863D01*
X211197Y27016D01*
X211849Y27451D01*
X212284Y28103D01*
X212437Y28871D01*
X212284Y29640D01*
X211849Y30292D01*
X211197Y30727D01*
X210429Y30880D01*
D02*
G37*
G36*
X195429D02*
X194660Y30727D01*
X194008Y30292D01*
X193573Y29640D01*
X193420Y28871D01*
X193573Y28103D01*
X194008Y27451D01*
X194660Y27016D01*
X195429Y26863D01*
X196197Y27016D01*
X196849Y27451D01*
X197284Y28103D01*
X197437Y28871D01*
X197284Y29640D01*
X196849Y30292D01*
X196197Y30727D01*
X195429Y30880D01*
D02*
G37*
G36*
X242929Y30837D02*
X242160Y30684D01*
X241508Y30249D01*
X241073Y29597D01*
X240920Y28829D01*
X241073Y28060D01*
X241508Y27408D01*
X242160Y26973D01*
X242929Y26820D01*
X243697Y26973D01*
X244349Y27408D01*
X244784Y28060D01*
X244937Y28829D01*
X244784Y29597D01*
X244349Y30249D01*
X243697Y30684D01*
X242929Y30837D01*
D02*
G37*
G36*
X225429Y30880D02*
X224660Y30727D01*
X224008Y30292D01*
X223573Y29640D01*
X223420Y28871D01*
X223573Y28103D01*
X224008Y27451D01*
X224660Y27016D01*
X225429Y26863D01*
X226197Y27016D01*
X226849Y27451D01*
X227284Y28103D01*
X227437Y28871D01*
X227284Y29640D01*
X226849Y30292D01*
X226197Y30727D01*
X225429Y30880D01*
D02*
G37*
G36*
X279429D02*
X278660Y30727D01*
X278008Y30292D01*
X277573Y29640D01*
X277420Y28871D01*
X277573Y28103D01*
X278008Y27451D01*
X278660Y27016D01*
X279429Y26863D01*
X280197Y27016D01*
X280849Y27451D01*
X281284Y28103D01*
X281437Y28871D01*
X281284Y29640D01*
X280849Y30292D01*
X280197Y30727D01*
X279429Y30880D01*
D02*
G37*
G36*
X274429D02*
X273660Y30727D01*
X273008Y30292D01*
X272573Y29640D01*
X272420Y28871D01*
X272573Y28103D01*
X273008Y27451D01*
X273660Y27016D01*
X274429Y26863D01*
X275197Y27016D01*
X275849Y27451D01*
X276284Y28103D01*
X276437Y28871D01*
X276284Y29640D01*
X275849Y30292D01*
X275197Y30727D01*
X274429Y30880D01*
D02*
G37*
G36*
X237929D02*
X237160Y30727D01*
X236508Y30292D01*
X236073Y29640D01*
X235920Y28871D01*
X236073Y28103D01*
X236508Y27451D01*
X237160Y27016D01*
X237929Y26863D01*
X238697Y27016D01*
X239349Y27451D01*
X239784Y28103D01*
X239937Y28871D01*
X239784Y29640D01*
X239349Y30292D01*
X238697Y30727D01*
X237929Y30880D01*
D02*
G37*
G36*
X319429Y19480D02*
X318660Y19327D01*
X318008Y18892D01*
X317573Y18240D01*
X317420Y17471D01*
X317573Y16703D01*
X318008Y16051D01*
X318660Y15616D01*
X319429Y15463D01*
X320197Y15616D01*
X320849Y16051D01*
X321284Y16703D01*
X321437Y17471D01*
X321284Y18240D01*
X320849Y18892D01*
X320197Y19327D01*
X319429Y19480D01*
D02*
G37*
G36*
X301929D02*
X301160Y19327D01*
X300508Y18892D01*
X300073Y18240D01*
X299920Y17471D01*
X300073Y16703D01*
X300508Y16051D01*
X301160Y15616D01*
X301929Y15463D01*
X302697Y15616D01*
X303349Y16051D01*
X303784Y16703D01*
X303937Y17471D01*
X303784Y18240D01*
X303349Y18892D01*
X302697Y19327D01*
X301929Y19480D01*
D02*
G37*
G36*
X250429D02*
X249660Y19327D01*
X249008Y18892D01*
X248573Y18240D01*
X248420Y17471D01*
X248573Y16703D01*
X249008Y16051D01*
X249660Y15616D01*
X250429Y15463D01*
X251197Y15616D01*
X251849Y16051D01*
X252284Y16703D01*
X252437Y17471D01*
X252284Y18240D01*
X251849Y18892D01*
X251197Y19327D01*
X250429Y19480D01*
D02*
G37*
G36*
X291929Y19537D02*
X291160Y19384D01*
X290508Y18949D01*
X290073Y18297D01*
X289920Y17529D01*
X290073Y16760D01*
X290508Y16108D01*
X291160Y15673D01*
X291929Y15520D01*
X292697Y15673D01*
X293349Y16108D01*
X293784Y16760D01*
X293937Y17529D01*
X293784Y18297D01*
X293349Y18949D01*
X292697Y19384D01*
X291929Y19537D01*
D02*
G37*
G36*
X220429Y30837D02*
X219660Y30684D01*
X219008Y30249D01*
X218573Y29597D01*
X218420Y28829D01*
X218573Y28060D01*
X219008Y27408D01*
X219660Y26973D01*
X220429Y26820D01*
X221197Y26973D01*
X221849Y27408D01*
X222284Y28060D01*
X222437Y28829D01*
X222284Y29597D01*
X221849Y30249D01*
X221197Y30684D01*
X220429Y30837D01*
D02*
G37*
G36*
X343600Y31229D02*
X342739Y31115D01*
X341936Y30782D01*
X341246Y30254D01*
X340718Y29564D01*
X340385Y28762D01*
X340271Y27900D01*
X340385Y27038D01*
X340718Y26236D01*
X341246Y25546D01*
X341936Y25017D01*
X342739Y24685D01*
X343600Y24572D01*
X344461Y24685D01*
X345264Y25017D01*
X345954Y25546D01*
X346482Y26236D01*
X346815Y27038D01*
X346929Y27900D01*
X346815Y28762D01*
X346482Y29564D01*
X345954Y30254D01*
X345264Y30782D01*
X344461Y31115D01*
X343600Y31229D01*
D02*
G37*
G36*
X227929Y19580D02*
X227160Y19427D01*
X226508Y18992D01*
X226073Y18340D01*
X225920Y17571D01*
X226073Y16803D01*
X226508Y16151D01*
X227160Y15716D01*
X227929Y15563D01*
X228697Y15716D01*
X229349Y16151D01*
X229784Y16803D01*
X229937Y17571D01*
X229784Y18340D01*
X229349Y18992D01*
X228697Y19427D01*
X227929Y19580D01*
D02*
G37*
G36*
X300394Y76222D02*
X299619Y76121D01*
X298897Y75821D01*
X298276Y75345D01*
X297801Y74725D01*
X297502Y74003D01*
X297400Y73228D01*
X297420Y73070D01*
X296937Y72941D01*
X296688Y73544D01*
X296212Y74164D01*
X295591Y74640D01*
X294869Y74939D01*
X294094Y75041D01*
X293320Y74939D01*
X292597Y74640D01*
X291977Y74164D01*
X291501Y73544D01*
X291202Y72822D01*
X291100Y72047D01*
X291202Y71272D01*
X291501Y70550D01*
X291977Y69930D01*
X292597Y69454D01*
X293320Y69155D01*
X294094Y69053D01*
X294869Y69155D01*
X295591Y69454D01*
X296212Y69930D01*
X296688Y70550D01*
X296987Y71272D01*
X297089Y72047D01*
X297068Y72205D01*
X297551Y72335D01*
X297801Y71731D01*
X298276Y71111D01*
X298897Y70635D01*
X299619Y70336D01*
X300394Y70234D01*
X301169Y70336D01*
X301891Y70635D01*
X302511Y71111D01*
X302987Y71731D01*
X303237Y72335D01*
X303720Y72205D01*
X303699Y72047D01*
X303801Y71272D01*
X304100Y70550D01*
X304576Y69930D01*
X305196Y69454D01*
X305918Y69155D01*
X306693Y69053D01*
X307468Y69155D01*
X308190Y69454D01*
X308810Y69930D01*
X309286Y70550D01*
X309585Y71272D01*
X309687Y72047D01*
X309585Y72822D01*
X309286Y73544D01*
X308810Y74164D01*
X308190Y74640D01*
X307468Y74939D01*
X306693Y75041D01*
X305918Y74939D01*
X305196Y74640D01*
X304576Y74164D01*
X304100Y73544D01*
X303850Y72941D01*
X303367Y73070D01*
X303388Y73228D01*
X303286Y74003D01*
X302987Y74725D01*
X302511Y75345D01*
X301891Y75821D01*
X301169Y76121D01*
X300394Y76222D01*
D02*
G37*
G36*
X230315Y202184D02*
X229780Y202078D01*
X229327Y201775D01*
X229024Y201322D01*
X228918Y200787D01*
X229024Y200253D01*
X229327Y199800D01*
X229780Y199497D01*
X230315Y199390D01*
X230849Y199497D01*
X231303Y199800D01*
X231605Y200253D01*
X231712Y200787D01*
X231605Y201322D01*
X231303Y201775D01*
X230849Y202078D01*
X230315Y202184D01*
D02*
G37*
G36*
X127953D02*
X127418Y202078D01*
X126965Y201775D01*
X126662Y201322D01*
X126556Y200787D01*
X126662Y200253D01*
X126965Y199800D01*
X127418Y199497D01*
X127953Y199390D01*
X128487Y199497D01*
X128941Y199800D01*
X129243Y200253D01*
X129350Y200787D01*
X129243Y201322D01*
X128941Y201775D01*
X128487Y202078D01*
X127953Y202184D01*
D02*
G37*
G36*
X124016D02*
X123481Y202078D01*
X123028Y201775D01*
X122725Y201322D01*
X122619Y200787D01*
X122725Y200253D01*
X123028Y199800D01*
X123481Y199497D01*
X124016Y199390D01*
X124550Y199497D01*
X125004Y199800D01*
X125306Y200253D01*
X125413Y200787D01*
X125306Y201322D01*
X125004Y201775D01*
X124550Y202078D01*
X124016Y202184D01*
D02*
G37*
G36*
X238189D02*
X237654Y202078D01*
X237201Y201775D01*
X236899Y201322D01*
X236792Y200787D01*
X236899Y200253D01*
X237201Y199800D01*
X237654Y199497D01*
X238189Y199390D01*
X238724Y199497D01*
X239177Y199800D01*
X239480Y200253D01*
X239586Y200787D01*
X239480Y201322D01*
X239177Y201775D01*
X238724Y202078D01*
X238189Y202184D01*
D02*
G37*
G36*
X124016Y206121D02*
X123481Y206015D01*
X123028Y205712D01*
X122725Y205259D01*
X122619Y204724D01*
X122725Y204190D01*
X123028Y203737D01*
X123481Y203434D01*
X124016Y203327D01*
X124550Y203434D01*
X125004Y203737D01*
X125306Y204190D01*
X125413Y204724D01*
X125306Y205259D01*
X125004Y205712D01*
X124550Y206015D01*
X124016Y206121D01*
D02*
G37*
G36*
X116142D02*
X115607Y206015D01*
X115154Y205712D01*
X114851Y205259D01*
X114745Y204724D01*
X114851Y204190D01*
X115154Y203737D01*
X115607Y203434D01*
X116142Y203327D01*
X116676Y203434D01*
X117129Y203737D01*
X117432Y204190D01*
X117538Y204724D01*
X117432Y205259D01*
X117129Y205712D01*
X116676Y206015D01*
X116142Y206121D01*
D02*
G37*
G36*
X242126Y202184D02*
X241592Y202078D01*
X241138Y201775D01*
X240836Y201322D01*
X240729Y200787D01*
X240836Y200253D01*
X241138Y199800D01*
X241592Y199497D01*
X242126Y199390D01*
X242661Y199497D01*
X243114Y199800D01*
X243417Y200253D01*
X243523Y200787D01*
X243417Y201322D01*
X243114Y201775D01*
X242661Y202078D01*
X242126Y202184D01*
D02*
G37*
G36*
X124016Y194310D02*
X123481Y194204D01*
X123028Y193901D01*
X122725Y193448D01*
X122619Y192913D01*
X122725Y192379D01*
X123028Y191926D01*
X123481Y191623D01*
X124016Y191516D01*
X124550Y191623D01*
X125004Y191926D01*
X125306Y192379D01*
X125413Y192913D01*
X125306Y193448D01*
X125004Y193901D01*
X124550Y194204D01*
X124016Y194310D01*
D02*
G37*
G36*
X297793Y203047D02*
X297018Y202945D01*
X296296Y202646D01*
X295676Y202170D01*
X295200Y201550D01*
X294901Y200828D01*
X294799Y200053D01*
X294901Y199278D01*
X295200Y198556D01*
X295676Y197936D01*
X296296Y197460D01*
X296561Y197350D01*
Y196850D01*
X296296Y196740D01*
X295676Y196264D01*
X295200Y195644D01*
X294901Y194922D01*
X294799Y194147D01*
X294901Y193372D01*
X295200Y192650D01*
X295676Y192030D01*
X296296Y191554D01*
X297018Y191255D01*
X297793Y191153D01*
X298568Y191255D01*
X299290Y191554D01*
X299910Y192030D01*
X300386Y192650D01*
X300685Y193372D01*
X300787Y194147D01*
X300685Y194922D01*
X300386Y195644D01*
X299910Y196264D01*
X299290Y196740D01*
X298568Y197039D01*
X299290Y197460D01*
X299290D01*
D01*
D01*
D01*
X299290Y197460D01*
X299910Y197936D01*
X300386Y198556D01*
X300685Y199278D01*
X300787Y200053D01*
X300685Y200828D01*
X300386Y201550D01*
X299910Y202170D01*
X299290Y202646D01*
X298568Y202945D01*
X297793Y203047D01*
D02*
G37*
G36*
X242126Y190373D02*
X241592Y190267D01*
X241138Y189964D01*
X240836Y189511D01*
X240729Y188976D01*
X240836Y188442D01*
X241138Y187989D01*
X241592Y187686D01*
X242126Y187579D01*
X242661Y187686D01*
X243114Y187989D01*
X243417Y188442D01*
X243523Y188976D01*
X243417Y189511D01*
X243114Y189964D01*
X242661Y190267D01*
X242126Y190373D01*
D02*
G37*
G36*
X238189Y194310D02*
X237654Y194204D01*
X237201Y193901D01*
X236899Y193448D01*
X236792Y192913D01*
X236899Y192379D01*
X237201Y191926D01*
X237654Y191623D01*
X238189Y191516D01*
X238724Y191623D01*
X239177Y191926D01*
X239480Y192379D01*
X239586Y192913D01*
X239480Y193448D01*
X239177Y193901D01*
X238724Y194204D01*
X238189Y194310D01*
D02*
G37*
G36*
X116142Y202184D02*
X115607Y202078D01*
X115154Y201775D01*
X114851Y201322D01*
X114745Y200787D01*
X114851Y200253D01*
X115154Y199800D01*
X115607Y199497D01*
X116142Y199390D01*
X116676Y199497D01*
X117129Y199800D01*
X117432Y200253D01*
X117538Y200787D01*
X117432Y201322D01*
X117129Y201775D01*
X116676Y202078D01*
X116142Y202184D01*
D02*
G37*
G36*
X238189Y198247D02*
X237654Y198141D01*
X237201Y197838D01*
X236899Y197385D01*
X236792Y196850D01*
X236899Y196316D01*
X237201Y195863D01*
X237654Y195560D01*
X238189Y195454D01*
X238724Y195560D01*
X239177Y195863D01*
X239480Y196316D01*
X239586Y196850D01*
X239480Y197385D01*
X239177Y197838D01*
X238724Y198141D01*
X238189Y198247D01*
D02*
G37*
G36*
X124016D02*
X123481Y198141D01*
X123028Y197838D01*
X122725Y197385D01*
X122619Y196850D01*
X122725Y196316D01*
X123028Y195863D01*
X123481Y195560D01*
X124016Y195454D01*
X124550Y195560D01*
X125004Y195863D01*
X125306Y196316D01*
X125413Y196850D01*
X125306Y197385D01*
X125004Y197838D01*
X124550Y198141D01*
X124016Y198247D01*
D02*
G37*
G36*
X230315Y206121D02*
X229780Y206015D01*
X229327Y205712D01*
X229024Y205259D01*
X228918Y204724D01*
X229024Y204190D01*
X229327Y203737D01*
X229780Y203434D01*
X230315Y203327D01*
X230849Y203434D01*
X231303Y203737D01*
X231605Y204190D01*
X231712Y204724D01*
X231605Y205259D01*
X231303Y205712D01*
X230849Y206015D01*
X230315Y206121D01*
D02*
G37*
G36*
X301575Y215985D02*
X300806Y215832D01*
X300154Y215397D01*
X299719Y214745D01*
X299566Y213976D01*
X299719Y213208D01*
X300154Y212556D01*
X300806Y212121D01*
X301575Y211968D01*
X302344Y212121D01*
X302995Y212556D01*
X303431Y213208D01*
X303583Y213976D01*
X303431Y214745D01*
X302995Y215397D01*
X302344Y215832D01*
X301575Y215985D01*
D02*
G37*
G36*
X242126Y213995D02*
X241592Y213889D01*
X241138Y213586D01*
X240836Y213133D01*
X240729Y212598D01*
X240836Y212064D01*
X241138Y211611D01*
X241592Y211308D01*
X242126Y211202D01*
X242661Y211308D01*
X243114Y211611D01*
X243417Y212064D01*
X243523Y212598D01*
X243417Y213133D01*
X243114Y213586D01*
X242661Y213889D01*
X242126Y213995D01*
D02*
G37*
G36*
X238189D02*
X237654Y213889D01*
X237201Y213586D01*
X236899Y213133D01*
X236792Y212598D01*
X236899Y212064D01*
X237201Y211611D01*
X237654Y211308D01*
X238189Y211202D01*
X238724Y211308D01*
X239177Y211611D01*
X239480Y212064D01*
X239586Y212598D01*
X239480Y213133D01*
X239177Y213586D01*
X238724Y213889D01*
X238189Y213995D01*
D02*
G37*
G36*
X112205Y217932D02*
X111670Y217826D01*
X111217Y217523D01*
X110914Y217070D01*
X110808Y216535D01*
X110914Y216001D01*
X111217Y215548D01*
X111670Y215245D01*
X112205Y215139D01*
X112739Y215245D01*
X113192Y215548D01*
X113495Y216001D01*
X113602Y216535D01*
X113495Y217070D01*
X113192Y217523D01*
X112739Y217826D01*
X112205Y217932D01*
D02*
G37*
G36*
X242126D02*
X241592Y217826D01*
X241138Y217523D01*
X240836Y217070D01*
X240729Y216535D01*
X240836Y216001D01*
X241138Y215548D01*
X241592Y215245D01*
X242126Y215139D01*
X242661Y215245D01*
X243114Y215548D01*
X243417Y216001D01*
X243523Y216535D01*
X243417Y217070D01*
X243114Y217523D01*
X242661Y217826D01*
X242126Y217932D01*
D02*
G37*
G36*
X226378D02*
X225843Y217826D01*
X225390Y217523D01*
X225087Y217070D01*
X224981Y216535D01*
X225087Y216001D01*
X225390Y215548D01*
X225843Y215245D01*
X226378Y215139D01*
X226912Y215245D01*
X227366Y215548D01*
X227668Y216001D01*
X227775Y216535D01*
X227668Y217070D01*
X227366Y217523D01*
X226912Y217826D01*
X226378Y217932D01*
D02*
G37*
G36*
X127953D02*
X127418Y217826D01*
X126965Y217523D01*
X126662Y217070D01*
X126556Y216535D01*
X126662Y216001D01*
X126965Y215548D01*
X127418Y215245D01*
X127953Y215139D01*
X128487Y215245D01*
X128941Y215548D01*
X129243Y216001D01*
X129350Y216535D01*
X129243Y217070D01*
X128941Y217523D01*
X128487Y217826D01*
X127953Y217932D01*
D02*
G37*
G36*
X116142Y213995D02*
X115607Y213889D01*
X115154Y213586D01*
X114851Y213133D01*
X114745Y212598D01*
X114851Y212064D01*
X115154Y211611D01*
X115607Y211308D01*
X116142Y211202D01*
X116676Y211308D01*
X117129Y211611D01*
X117432Y212064D01*
X117538Y212598D01*
X117432Y213133D01*
X117129Y213586D01*
X116676Y213889D01*
X116142Y213995D01*
D02*
G37*
G36*
X112205D02*
X111670Y213889D01*
X111217Y213586D01*
X110914Y213133D01*
X110808Y212598D01*
X110914Y212064D01*
X111217Y211611D01*
X111670Y211308D01*
X112205Y211202D01*
X112739Y211308D01*
X113192Y211611D01*
X113495Y212064D01*
X113602Y212598D01*
X113495Y213133D01*
X113192Y213586D01*
X112739Y213889D01*
X112205Y213995D01*
D02*
G37*
G36*
X238189Y206121D02*
X237654Y206015D01*
X237201Y205712D01*
X236899Y205259D01*
X236792Y204724D01*
X236899Y204190D01*
X237201Y203737D01*
X237654Y203434D01*
X238189Y203327D01*
X238724Y203434D01*
X239177Y203737D01*
X239480Y204190D01*
X239586Y204724D01*
X239480Y205259D01*
X239177Y205712D01*
X238724Y206015D01*
X238189Y206121D01*
D02*
G37*
G36*
X124016Y213995D02*
X123481Y213889D01*
X123028Y213586D01*
X122725Y213133D01*
X122619Y212598D01*
X122725Y212064D01*
X123028Y211611D01*
X123481Y211308D01*
X124016Y211202D01*
X124550Y211308D01*
X125004Y211611D01*
X125306Y212064D01*
X125413Y212598D01*
X125306Y213133D01*
X125004Y213586D01*
X124550Y213889D01*
X124016Y213995D01*
D02*
G37*
G36*
X230315D02*
X229780Y213889D01*
X229327Y213586D01*
X229024Y213133D01*
X228918Y212598D01*
X229024Y212064D01*
X229327Y211611D01*
X229780Y211308D01*
X230315Y211202D01*
X230849Y211308D01*
X231303Y211611D01*
X231605Y212064D01*
X231712Y212598D01*
X231605Y213133D01*
X231303Y213586D01*
X230849Y213889D01*
X230315Y213995D01*
D02*
G37*
G36*
X226378D02*
X225843Y213889D01*
X225390Y213586D01*
X225087Y213133D01*
X224981Y212598D01*
X225087Y212064D01*
X225390Y211611D01*
X225843Y211308D01*
X226378Y211202D01*
X226912Y211308D01*
X227366Y211611D01*
X227668Y212064D01*
X227775Y212598D01*
X227668Y213133D01*
X227366Y213586D01*
X226912Y213889D01*
X226378Y213995D01*
D02*
G37*
G36*
X127953D02*
X127418Y213889D01*
X126965Y213586D01*
X126662Y213133D01*
X126556Y212598D01*
X126662Y212064D01*
X126965Y211611D01*
X127418Y211308D01*
X127953Y211202D01*
X128487Y211308D01*
X128941Y211611D01*
X129243Y212064D01*
X129350Y212598D01*
X129243Y213133D01*
X128941Y213586D01*
X128487Y213889D01*
X127953Y213995D01*
D02*
G37*
G36*
X273076Y124170D02*
X272301Y124068D01*
X271579Y123769D01*
X270959Y123293D01*
X270483Y122673D01*
X270184Y121951D01*
X270082Y121176D01*
X270184Y120401D01*
X270483Y119679D01*
X270959Y119059D01*
X271579Y118583D01*
X272301Y118284D01*
X273076Y118182D01*
X273851Y118284D01*
X274573Y118583D01*
X275194Y119059D01*
X275669Y119679D01*
X275969Y120401D01*
X276070Y121176D01*
X275969Y121951D01*
X275669Y122673D01*
X275194Y123293D01*
X274573Y123769D01*
X273851Y124068D01*
X273076Y124170D01*
D02*
G37*
G36*
X300787Y116517D02*
X299890Y116339D01*
X299130Y115831D01*
X298675Y115151D01*
X298175D01*
X297721Y115831D01*
X296960Y116339D01*
X296063Y116517D01*
X295166Y116339D01*
X294405Y115831D01*
X293951Y115151D01*
X293451D01*
X292996Y115831D01*
X292236Y116339D01*
X291339Y116517D01*
X290441Y116339D01*
X289681Y115831D01*
X289173Y115070D01*
X288994Y114173D01*
X289173Y113276D01*
X289681Y112516D01*
X290361Y112061D01*
Y111561D01*
X289681Y111107D01*
X289173Y110346D01*
X288994Y109449D01*
X289173Y108552D01*
X289681Y107791D01*
X290361Y107337D01*
Y106837D01*
X289681Y106382D01*
X289173Y105622D01*
X288994Y104724D01*
X289173Y103827D01*
X289681Y103067D01*
X290441Y102559D01*
X291339Y102380D01*
X292236Y102559D01*
X292996Y103067D01*
X293451Y103747D01*
X293951D01*
X294405Y103067D01*
X295166Y102559D01*
X296063Y102380D01*
X296960Y102559D01*
X297721Y103067D01*
X298175Y103747D01*
X298675D01*
X299130Y103067D01*
X299890Y102559D01*
X300787Y102380D01*
X301684Y102559D01*
X302445Y103067D01*
X302953Y103827D01*
X303132Y104724D01*
X302953Y105622D01*
X302445Y106382D01*
X301765Y106837D01*
Y107337D01*
X302445Y107791D01*
X302953Y108552D01*
X303132Y109449D01*
X302953Y110346D01*
X302445Y111107D01*
X301765Y111561D01*
Y112061D01*
X302445Y112516D01*
X302953Y113276D01*
X303132Y114173D01*
X302953Y115070D01*
X302445Y115831D01*
X301684Y116339D01*
X300787Y116517D01*
D02*
G37*
G36*
X265945Y119333D02*
X265170Y119231D01*
X264448Y118931D01*
X263828Y118456D01*
X263352Y117836D01*
X263053Y117113D01*
X262951Y116339D01*
X263053Y115564D01*
X263352Y114841D01*
X263828Y114221D01*
X264448Y113746D01*
X265170Y113446D01*
X265945Y113344D01*
X266720Y113446D01*
X267442Y113746D01*
X268062Y114221D01*
X268538Y114841D01*
X268837Y115564D01*
X268939Y116339D01*
X268837Y117113D01*
X268538Y117836D01*
X268062Y118456D01*
X267442Y118931D01*
X266720Y119231D01*
X265945Y119333D01*
D02*
G37*
G36*
X309900Y124209D02*
X309131Y124056D01*
X308480Y123620D01*
X308044Y122969D01*
X307891Y122200D01*
X308044Y121431D01*
X308480Y120780D01*
X309131Y120344D01*
X309900Y120191D01*
X310669Y120344D01*
X311320Y120780D01*
X311756Y121431D01*
X311909Y122200D01*
X311756Y122969D01*
X311320Y123620D01*
X310669Y124056D01*
X309900Y124209D01*
D02*
G37*
G36*
X273000Y134494D02*
X272225Y134392D01*
X271503Y134093D01*
X270883Y133617D01*
X270407Y132997D01*
X270108Y132275D01*
X270006Y131500D01*
X270108Y130725D01*
X270407Y130003D01*
X270883Y129383D01*
X271503Y128907D01*
X272225Y128608D01*
X273000Y128506D01*
X273775Y128608D01*
X274497Y128907D01*
X275117Y129383D01*
X275593Y130003D01*
X275892Y130725D01*
X275994Y131500D01*
X275892Y132275D01*
X275593Y132997D01*
X275117Y133617D01*
X274497Y134093D01*
X273775Y134392D01*
X273000Y134494D01*
D02*
G37*
G36*
X347638Y131931D02*
X346863Y131829D01*
X346141Y131530D01*
X345521Y131054D01*
X345045Y130434D01*
X344746Y129712D01*
X344644Y128937D01*
X344746Y128162D01*
X345045Y127440D01*
X345521Y126820D01*
X346141Y126344D01*
X346863Y126045D01*
X347638Y125943D01*
X348413Y126045D01*
X349135Y126344D01*
X349755Y126820D01*
X350231Y127440D01*
X350530Y128162D01*
X350632Y128937D01*
X350530Y129712D01*
X350231Y130434D01*
X349755Y131054D01*
X349135Y131530D01*
X348413Y131829D01*
X347638Y131931D01*
D02*
G37*
G36*
X317323D02*
X316548Y131829D01*
X315826Y131530D01*
X315206Y131054D01*
X314730Y130434D01*
X314431Y129712D01*
X314329Y128937D01*
X314431Y128162D01*
X314730Y127440D01*
X315206Y126820D01*
X315826Y126344D01*
X316548Y126045D01*
X317323Y125943D01*
X318098Y126045D01*
X318820Y126344D01*
X319440Y126820D01*
X319916Y127440D01*
X320215Y128162D01*
X320317Y128937D01*
X320215Y129712D01*
X319916Y130434D01*
X319440Y131054D01*
X318820Y131530D01*
X318098Y131829D01*
X317323Y131931D01*
D02*
G37*
G36*
X268504Y97089D02*
X267729Y96987D01*
X267007Y96688D01*
X266387Y96212D01*
X265911Y95591D01*
X265612Y94869D01*
X265510Y94095D01*
X265612Y93320D01*
X265911Y92597D01*
X266387Y91977D01*
X267007Y91501D01*
X267729Y91202D01*
X268504Y91100D01*
X269279Y91202D01*
X270001Y91501D01*
X270621Y91977D01*
X271097Y92597D01*
X271396Y93320D01*
X271498Y94095D01*
X271396Y94869D01*
X271097Y95591D01*
X270621Y96212D01*
X270001Y96688D01*
X269279Y96987D01*
X268504Y97089D01*
D02*
G37*
G36*
X285039Y94333D02*
X284264Y94231D01*
X283542Y93932D01*
X282922Y93456D01*
X282446Y92836D01*
X282147Y92114D01*
X282045Y91339D01*
X282147Y90564D01*
X282446Y89842D01*
X282922Y89221D01*
X283542Y88746D01*
X284264Y88446D01*
X285039Y88345D01*
X285814Y88446D01*
X286536Y88746D01*
X287157Y89221D01*
X287632Y89842D01*
X287931Y90564D01*
X288034Y91339D01*
X287931Y92114D01*
X287632Y92836D01*
X287157Y93456D01*
X286536Y93932D01*
X285814Y94231D01*
X285039Y94333D01*
D02*
G37*
G36*
X270472Y87442D02*
X269704Y87289D01*
X269052Y86853D01*
X268617Y86202D01*
X268464Y85433D01*
X268617Y84664D01*
X269052Y84013D01*
X269704Y83577D01*
X270472Y83425D01*
X271241Y83577D01*
X271893Y84013D01*
X272328Y84664D01*
X272481Y85433D01*
X272328Y86202D01*
X271893Y86853D01*
X271241Y87289D01*
X270472Y87442D01*
D02*
G37*
G36*
X279134Y98072D02*
X278365Y97919D01*
X277714Y97483D01*
X277278Y96832D01*
X277125Y96063D01*
X277278Y95294D01*
X277714Y94643D01*
X278365Y94207D01*
X279134Y94054D01*
X279903Y94207D01*
X280554Y94643D01*
X280990Y95294D01*
X281142Y96063D01*
X280990Y96832D01*
X280554Y97483D01*
X279903Y97919D01*
X279134Y98072D01*
D02*
G37*
G36*
X336221Y118349D02*
X335445Y118246D01*
X334723Y117947D01*
X334103Y117472D01*
X333628Y116851D01*
X333328Y116129D01*
X333226Y115354D01*
X333328Y114579D01*
X333628Y113857D01*
X334103Y113237D01*
X334723Y112761D01*
X335445Y112462D01*
X336221Y112360D01*
X336995Y112462D01*
X337718Y112761D01*
X338338Y113237D01*
X338813Y113857D01*
X339113Y114579D01*
X339215Y115354D01*
X339113Y116129D01*
X338813Y116851D01*
X338338Y117472D01*
X337718Y117947D01*
X336995Y118246D01*
X336221Y118349D01*
D02*
G37*
G36*
X309300Y108909D02*
X308531Y108756D01*
X307880Y108320D01*
X307444Y107669D01*
X307291Y106900D01*
X307444Y106131D01*
X307880Y105480D01*
X308531Y105044D01*
X309300Y104891D01*
X310069Y105044D01*
X310720Y105480D01*
X311156Y106131D01*
X311309Y106900D01*
X311156Y107669D01*
X310720Y108320D01*
X310069Y108756D01*
X309300Y108909D01*
D02*
G37*
G36*
X309400Y102609D02*
X308631Y102456D01*
X307980Y102020D01*
X307544Y101369D01*
X307391Y100600D01*
X307544Y99831D01*
X307980Y99180D01*
X308631Y98744D01*
X309400Y98591D01*
X310169Y98744D01*
X310820Y99180D01*
X311256Y99831D01*
X311409Y100600D01*
X311256Y101369D01*
X310820Y102020D01*
X310169Y102456D01*
X309400Y102609D01*
D02*
G37*
G36*
X311811Y145611D02*
X311042Y145458D01*
X310391Y145023D01*
X309955Y144371D01*
X309802Y143602D01*
X309955Y142834D01*
X310391Y142182D01*
X311042Y141747D01*
X311811Y141594D01*
X312580Y141747D01*
X313231Y142182D01*
X313667Y142834D01*
X313820Y143602D01*
X313667Y144371D01*
X313231Y145023D01*
X312580Y145458D01*
X311811Y145611D01*
D02*
G37*
G36*
X116142Y190373D02*
X115607Y190267D01*
X115154Y189964D01*
X114851Y189511D01*
X114745Y188976D01*
X114851Y188442D01*
X115154Y187989D01*
X115607Y187686D01*
X116142Y187579D01*
X116676Y187686D01*
X117129Y187989D01*
X117432Y188442D01*
X117538Y188976D01*
X117432Y189511D01*
X117129Y189964D01*
X116676Y190267D01*
X116142Y190373D01*
D02*
G37*
G36*
X230315Y186436D02*
X229780Y186330D01*
X229327Y186027D01*
X229024Y185574D01*
X228918Y185039D01*
X229024Y184505D01*
X229327Y184052D01*
X229780Y183749D01*
X230315Y183642D01*
X230849Y183749D01*
X231303Y184052D01*
X231605Y184505D01*
X231712Y185039D01*
X231605Y185574D01*
X231303Y186027D01*
X230849Y186330D01*
X230315Y186436D01*
D02*
G37*
G36*
X116142D02*
X115607Y186330D01*
X115154Y186027D01*
X114851Y185574D01*
X114745Y185039D01*
X114851Y184505D01*
X115154Y184052D01*
X115607Y183749D01*
X116142Y183642D01*
X116676Y183749D01*
X117129Y184052D01*
X117432Y184505D01*
X117538Y185039D01*
X117432Y185574D01*
X117129Y186027D01*
X116676Y186330D01*
X116142Y186436D01*
D02*
G37*
G36*
X124016Y190373D02*
X123481Y190267D01*
X123028Y189964D01*
X122725Y189511D01*
X122619Y188976D01*
X122725Y188442D01*
X123028Y187989D01*
X123481Y187686D01*
X124016Y187579D01*
X124550Y187686D01*
X125004Y187989D01*
X125306Y188442D01*
X125413Y188976D01*
X125306Y189511D01*
X125004Y189964D01*
X124550Y190267D01*
X124016Y190373D01*
D02*
G37*
G36*
X238189D02*
X237654Y190267D01*
X237201Y189964D01*
X236899Y189511D01*
X236792Y188976D01*
X236899Y188442D01*
X237201Y187989D01*
X237654Y187686D01*
X238189Y187579D01*
X238724Y187686D01*
X239177Y187989D01*
X239480Y188442D01*
X239586Y188976D01*
X239480Y189511D01*
X239177Y189964D01*
X238724Y190267D01*
X238189Y190373D01*
D02*
G37*
G36*
X230315D02*
X229780Y190267D01*
X229327Y189964D01*
X229024Y189511D01*
X228918Y188976D01*
X229024Y188442D01*
X229327Y187989D01*
X229780Y187686D01*
X230315Y187579D01*
X230849Y187686D01*
X231303Y187989D01*
X231605Y188442D01*
X231712Y188976D01*
X231605Y189511D01*
X231303Y189964D01*
X230849Y190267D01*
X230315Y190373D01*
D02*
G37*
G36*
X127953D02*
X127418Y190267D01*
X126965Y189964D01*
X126662Y189511D01*
X126556Y188976D01*
X126662Y188442D01*
X126965Y187989D01*
X127418Y187686D01*
X127953Y187579D01*
X128487Y187686D01*
X128941Y187989D01*
X129243Y188442D01*
X129350Y188976D01*
X129243Y189511D01*
X128941Y189964D01*
X128487Y190267D01*
X127953Y190373D01*
D02*
G37*
G36*
X334646Y173268D02*
X333877Y173116D01*
X333225Y172680D01*
X332790Y172029D01*
X332637Y171260D01*
X332790Y170491D01*
X333225Y169840D01*
X333877Y169404D01*
X334646Y169251D01*
X335414Y169404D01*
X336066Y169840D01*
X336501Y170491D01*
X336654Y171260D01*
X336501Y172029D01*
X336066Y172680D01*
X335414Y173116D01*
X334646Y173268D01*
D02*
G37*
G36*
X333661Y163762D02*
X332764Y163583D01*
X332004Y163075D01*
X331549Y162395D01*
X331049D01*
X330595Y163075D01*
X329834Y163583D01*
X328937Y163762D01*
X328040Y163583D01*
X327279Y163075D01*
X326825Y162395D01*
X326325D01*
X325870Y163075D01*
X325110Y163583D01*
X324213Y163762D01*
X323316Y163583D01*
X322555Y163075D01*
X322047Y162314D01*
X321868Y161417D01*
X322047Y160520D01*
X322555Y159760D01*
X323235Y159305D01*
Y158805D01*
X322555Y158351D01*
X322047Y157590D01*
X321868Y156693D01*
X322047Y155796D01*
X322555Y155035D01*
X323235Y154581D01*
Y154081D01*
X322555Y153626D01*
X322047Y152866D01*
X321868Y151969D01*
X322047Y151071D01*
X322555Y150311D01*
X323316Y149803D01*
X324213Y149624D01*
X325110Y149803D01*
X325870Y150311D01*
X326325Y150991D01*
X326825D01*
X327279Y150311D01*
X328040Y149803D01*
X328937Y149624D01*
X329834Y149803D01*
X330595Y150311D01*
X331049Y150991D01*
X331549D01*
X332004Y150311D01*
X332764Y149803D01*
X333661Y149624D01*
X334559Y149803D01*
X335319Y150311D01*
X335827Y151071D01*
X336006Y151969D01*
X335827Y152866D01*
X335319Y153626D01*
X334639Y154081D01*
Y154581D01*
X335319Y155035D01*
X335827Y155796D01*
X336006Y156693D01*
X335827Y157590D01*
X335319Y158351D01*
X334639Y158805D01*
Y159305D01*
X335319Y159760D01*
X335827Y160520D01*
X336006Y161417D01*
X335827Y162314D01*
X335319Y163075D01*
X334559Y163583D01*
X333661Y163762D01*
D02*
G37*
G36*
X342174Y156153D02*
X341405Y156000D01*
X340754Y155564D01*
X340318Y154913D01*
X340165Y154144D01*
X340318Y153375D01*
X340754Y152724D01*
X341405Y152288D01*
X342174Y152136D01*
X342943Y152288D01*
X343594Y152724D01*
X344030Y153375D01*
X344183Y154144D01*
X344030Y154913D01*
X343594Y155564D01*
X342943Y156000D01*
X342174Y156153D01*
D02*
G37*
G36*
X304528Y177994D02*
X303753Y177892D01*
X303030Y177593D01*
X302410Y177117D01*
X301935Y176497D01*
X301636Y175775D01*
X301533Y175000D01*
X301636Y174225D01*
X301935Y173503D01*
X302410Y172883D01*
X303030Y172407D01*
X303753Y172108D01*
X304528Y172006D01*
X305303Y172108D01*
X306025Y172407D01*
X306645Y172883D01*
X307120Y173503D01*
X307420Y174225D01*
X307522Y175000D01*
X307420Y175775D01*
X307120Y176497D01*
X306645Y177117D01*
X306025Y177593D01*
X305303Y177892D01*
X304528Y177994D01*
D02*
G37*
G36*
Y188624D02*
X303753Y188522D01*
X303030Y188223D01*
X302410Y187747D01*
X301935Y187127D01*
X301636Y186405D01*
X301533Y185630D01*
X301636Y184855D01*
X301935Y184133D01*
X302410Y183513D01*
X303030Y183037D01*
X303753Y182738D01*
X304528Y182636D01*
X305303Y182738D01*
X306025Y183037D01*
X306645Y183513D01*
X307120Y184133D01*
X307420Y184855D01*
X307522Y185630D01*
X307420Y186405D01*
X307120Y187127D01*
X306645Y187747D01*
X306025Y188223D01*
X305303Y188522D01*
X304528Y188624D01*
D02*
G37*
G36*
X230315Y182499D02*
X229780Y182393D01*
X229327Y182090D01*
X229024Y181637D01*
X228918Y181102D01*
X229024Y180568D01*
X229327Y180114D01*
X229780Y179812D01*
X230315Y179705D01*
X230849Y179812D01*
X231303Y180114D01*
X231605Y180568D01*
X231712Y181102D01*
X231605Y181637D01*
X231303Y182090D01*
X230849Y182393D01*
X230315Y182499D01*
D02*
G37*
G36*
X116142D02*
X115607Y182393D01*
X115154Y182090D01*
X114851Y181637D01*
X114745Y181102D01*
X114851Y180568D01*
X115154Y180114D01*
X115607Y179812D01*
X116142Y179705D01*
X116676Y179812D01*
X117129Y180114D01*
X117432Y180568D01*
X117538Y181102D01*
X117432Y181637D01*
X117129Y182090D01*
X116676Y182393D01*
X116142Y182499D01*
D02*
G37*
%LPD*%
D17*
X4519Y361417D02*
D03*
X287795Y277165D02*
D03*
X236716Y164862D02*
D03*
X121791Y163758D02*
D03*
X317323Y139567D02*
D03*
X347638D02*
D03*
X255315Y116339D02*
D03*
D35*
X84646Y273622D02*
X96576Y261692D01*
Y242007D02*
Y261692D01*
X84646Y273622D02*
Y275197D01*
X96576Y242007D02*
X97244Y241339D01*
X126378Y252756D02*
X128528D01*
X130497Y250787D01*
X130709D01*
X137008Y244488D01*
Y238976D02*
Y244488D01*
Y247638D02*
Y264176D01*
X141732Y268900D01*
X137008Y247638D02*
X140551Y244094D01*
X143601Y268200D02*
X144095Y267706D01*
Y255512D02*
Y267706D01*
X142371Y253788D02*
X144095Y255512D01*
X142371Y238828D02*
Y253788D01*
X142134Y238591D02*
X142371Y238828D01*
X144488Y244094D02*
X157874Y257480D01*
X144488Y243307D02*
Y244094D01*
X157874Y257480D02*
Y270000D01*
X147244Y243701D02*
X160630Y257087D01*
Y270200D01*
X147244Y238976D02*
Y243701D01*
X212598Y243701D02*
X214567Y245669D01*
X236221Y250787D02*
X240158Y246850D01*
X208661Y200540D02*
Y262205D01*
X213000Y266543D01*
X208661Y200540D02*
X213000Y196201D01*
X212598Y200000D02*
Y243701D01*
Y200000D02*
X212992Y199606D01*
X216535Y202756D02*
Y229921D01*
X217323Y230709D01*
Y264173D01*
X216535Y202756D02*
X216937Y202354D01*
X217323Y264173D02*
X221038Y267888D01*
X254331Y253150D02*
X255704Y251777D01*
X260236Y243701D02*
X270079Y253543D01*
X267717Y279528D02*
Y280315D01*
Y279528D02*
X270079Y277165D01*
Y253543D02*
Y277165D01*
X260236Y242126D02*
Y243701D01*
X255512Y270472D02*
X257525Y268459D01*
X265748Y281496D02*
Y282677D01*
X261811Y277559D02*
X265748Y281496D01*
X258661Y277559D02*
X261811D01*
X255512Y274410D02*
X258661Y277559D01*
X255512Y270472D02*
Y274410D01*
X257525Y240203D02*
Y268459D01*
X256693Y239370D02*
X257525Y240203D01*
X252362Y270079D02*
Y274803D01*
X249213Y266929D02*
X252362Y270079D01*
Y274803D02*
X254724Y277165D01*
X249213Y238583D02*
Y266929D01*
X250787Y271260D02*
Y277559D01*
X246850Y267323D02*
X250787Y271260D01*
Y277559D02*
X252756Y279528D01*
X246850Y246063D02*
Y267323D01*
Y246063D02*
X247630Y245283D01*
X101575Y251181D02*
X101969Y250787D01*
X103937Y248819D01*
X104724Y272835D02*
X106299Y271260D01*
Y251969D02*
Y271260D01*
X69685Y158915D02*
X101961Y126640D01*
X69685Y158915D02*
Y209055D01*
X105897Y129929D02*
X107874Y127953D01*
X105897Y129929D02*
Y166527D01*
X108661Y151969D02*
Y173228D01*
X90945Y286614D02*
Y299220D01*
X84594Y305571D02*
X90945Y299220D01*
Y286614D02*
X101969Y275590D01*
X104724Y272835D01*
X81496Y301181D02*
Y306693D01*
Y301181D02*
X84646Y298031D01*
X88196Y308268D02*
X90893Y305571D01*
X83071Y308268D02*
X88196D01*
X81496Y306693D02*
X83071Y308268D01*
X84646Y275197D02*
Y298031D01*
X97193Y305571D02*
X97244Y305622D01*
Y312205D01*
X90551Y318898D02*
X97244Y312205D01*
X62205Y318898D02*
X90551D01*
X55512Y312205D02*
X62205Y318898D01*
X55512Y209055D02*
Y312205D01*
Y209055D02*
X57480Y207087D01*
X65748D01*
X90945Y309842D02*
X94043Y306745D01*
X63779Y309842D02*
X90945D01*
X59055Y305118D02*
X63779Y309842D01*
X94043Y293169D02*
Y306745D01*
X59055Y210236D02*
Y305118D01*
X182677Y128222D02*
X203150Y107750D01*
X182677Y128222D02*
Y205512D01*
X220071Y119400D02*
Y175205D01*
X133457Y182291D02*
X137008Y178740D01*
Y144488D02*
Y178740D01*
Y127892D02*
Y144488D01*
Y127892D02*
X139930Y124970D01*
X42913Y382283D02*
X109055D01*
X168898Y298031D02*
X176772Y290158D01*
X109055Y382283D02*
X122441Y368898D01*
X138189D01*
X168898Y338189D01*
Y298031D02*
Y338189D01*
X176772Y280315D02*
Y290158D01*
X171653Y275197D02*
X176772Y280315D01*
X171653Y253937D02*
Y275197D01*
X168504Y250787D02*
X171653Y253937D01*
X168504Y230709D02*
Y250787D01*
X164567Y226772D02*
X168504Y230709D01*
X164567Y209055D02*
Y226772D01*
X157774Y295569D02*
X159055Y296850D01*
X151575Y308661D02*
X157874D01*
X142724Y303543D02*
X147542D01*
X157874Y270000D02*
Y292216D01*
X157774Y292316D02*
X157874Y292216D01*
X157774Y292316D02*
Y295569D01*
X159055Y296850D02*
Y307480D01*
X157874Y308661D02*
X159055Y307480D01*
X150394D02*
X151575Y308661D01*
X150394Y306395D02*
Y307480D01*
X147542Y303543D02*
X150394Y306395D01*
X140697Y305571D02*
X142724Y303543D01*
X162598Y277165D02*
Y302076D01*
X158268Y311417D02*
X160924Y308761D01*
X160630Y270200D02*
Y275197D01*
X162598Y277165D01*
X160924Y303751D02*
X162598Y302076D01*
X160924Y303751D02*
Y308761D01*
X149606Y311417D02*
X158268D01*
X146996Y308807D02*
X149606Y311417D01*
X146996Y305571D02*
Y308807D01*
X141732Y268900D02*
Y276772D01*
X150145Y285185D01*
Y293169D01*
X143601Y268200D02*
Y275097D01*
X153295Y284791D01*
Y305571D01*
X203150Y292520D02*
Y299323D01*
X181496Y260236D02*
X188583Y267323D01*
X203150Y299323D02*
X209397Y305571D01*
X196457Y285827D02*
X203150Y292520D01*
X196457Y282283D02*
Y285827D01*
X188583Y274410D02*
X196457Y282283D01*
X188583Y267323D02*
Y274410D01*
X181496Y257087D02*
Y260236D01*
X198819Y269291D02*
Y285741D01*
X206248Y293169D01*
X185433Y255906D02*
X198819Y269291D01*
X204918Y307391D02*
X214452D01*
X218110Y271654D02*
Y303733D01*
X213000Y266543D02*
X218110Y271654D01*
X203098Y305571D02*
X204918Y307391D01*
X214452D02*
X218110Y303733D01*
X219660Y280734D02*
X223622Y276772D01*
X196799Y305571D02*
X201858Y310630D01*
X221260D01*
X222441Y309449D01*
Y290158D02*
Y309449D01*
X219660Y280734D02*
Y287376D01*
X222441Y290158D01*
X223622Y270472D02*
Y276772D01*
X221038Y267888D02*
X223622Y270472D01*
X176772Y252362D02*
X181496Y257087D01*
X176772Y197244D02*
Y252362D01*
X180315Y250787D02*
X185433Y255906D01*
X180315Y198031D02*
Y250787D01*
X252756Y279528D02*
X259200Y285972D01*
Y305571D01*
X254724Y277165D02*
X262350Y284791D01*
Y293169D01*
X267717Y280315D02*
Y285433D01*
X246063Y112563D02*
Y168110D01*
X249606Y171653D01*
X244496Y110996D02*
X246063Y112563D01*
X249606Y171653D02*
X261417D01*
X263680Y298919D02*
X265748Y296850D01*
X263680Y298919D02*
Y307580D01*
X262205Y309055D02*
X263680Y307580D01*
X265748Y282677D02*
Y296850D01*
X254724Y309055D02*
X262205D01*
X252901Y307232D02*
X254724Y309055D01*
X252901Y305571D02*
Y307232D01*
X267717Y285433D02*
Y298819D01*
X265500Y301036D02*
X267717Y298819D01*
X265500Y301036D02*
Y305571D01*
X139930Y124970D02*
X188100Y76800D01*
X113386Y133071D02*
Y147244D01*
Y130214D02*
Y133071D01*
X107874Y127953D02*
X129727Y106100D01*
X104654Y123946D02*
X128000Y100600D01*
X101961Y126640D02*
X104654Y123946D01*
X213700Y95800D02*
X222300Y104400D01*
X108661Y151969D02*
X113386Y147244D01*
Y130214D02*
X138200Y105400D01*
X129727Y106100D02*
X132000D01*
X188100Y69100D02*
Y76800D01*
X204000D01*
X205100Y77900D01*
X218300D02*
X218900Y78500D01*
X205100Y77900D02*
X218300D01*
X179921Y36379D02*
X186100Y30200D01*
X179921Y36379D02*
Y62894D01*
X218900Y78500D02*
Y85400D01*
X244496Y110996D01*
X128000Y100600D02*
X143100D01*
X174604Y69096D01*
X180206D01*
X184900Y65900D02*
X188100Y69100D01*
X175984Y62894D02*
X178991Y65900D01*
X184900D01*
X138200Y105400D02*
X155800D01*
X132000Y106100D02*
X134900Y103200D01*
X154400D01*
X184800Y72800D01*
X184900D01*
X155800Y105400D02*
X183250Y77950D01*
X183400Y77800D01*
X183250Y77950D02*
X183600Y77600D01*
Y77500D02*
Y77600D01*
X203150Y88709D02*
Y107750D01*
X209400Y108729D02*
X220071Y119400D01*
X209400Y90100D02*
Y108729D01*
X213700Y95800D02*
Y95900D01*
D36*
X4528Y214764D02*
X21260D01*
X4134D02*
X4528D01*
X15610Y295059D02*
X20610D01*
X25610Y290059D01*
Y260846D02*
Y290059D01*
X21260Y214764D02*
X25216Y218721D01*
X4528Y256890D02*
X21654D01*
X25610Y260846D01*
X249213Y109449D02*
Y167613D01*
X251400Y169800D01*
D39*
X343110Y369685D02*
X349410Y363386D01*
X305315Y369685D02*
X343110D01*
X349410Y329331D02*
Y363386D01*
X340945Y320866D02*
X349410Y329331D01*
X340945Y280900D02*
Y320866D01*
D41*
X287795Y277165D02*
X301181D01*
D47*
X126378Y252756D02*
D03*
X125984Y246063D02*
D03*
X129921Y247244D02*
D03*
X214567Y245669D02*
D03*
X236221Y250787D02*
D03*
X254331Y253150D02*
D03*
X253937Y246063D02*
D03*
X101575Y251181D02*
D03*
X69685Y209055D02*
D03*
X59055Y210236D02*
D03*
X65748Y207087D02*
D03*
X182677Y205512D02*
D03*
X42913Y382283D02*
D03*
X164567Y209055D02*
D03*
X176772Y197244D02*
D03*
X180315Y198031D02*
D03*
X265748Y232284D02*
D03*
X252901Y305571D02*
D03*
X218504Y192913D02*
D03*
X250000Y200787D02*
D03*
Y196850D02*
D03*
Y192913D02*
D03*
X135827D02*
D03*
Y196850D02*
D03*
Y200787D02*
D03*
X305315Y369685D02*
D03*
X97193Y305571D02*
D03*
X94043Y293169D02*
D03*
X90893Y305571D02*
D03*
X265500D02*
D03*
X262350Y293169D02*
D03*
X259200Y305571D02*
D03*
X209397D02*
D03*
X206248Y293169D02*
D03*
X203098Y305571D02*
D03*
X153295D02*
D03*
X150145Y293169D02*
D03*
X146996Y305571D02*
D03*
X250000Y220473D02*
D03*
X253937Y216535D02*
D03*
X139764D02*
D03*
X135827Y220473D02*
D03*
X84594Y305571D02*
D03*
X140697D02*
D03*
X196799D02*
D03*
X180206Y69096D02*
D03*
X203150Y88709D02*
D03*
X179921Y62894D02*
D03*
X175984D02*
D03*
X275590Y104331D02*
D03*
X25610Y260846D02*
D03*
X15610Y295059D02*
D03*
X20610D02*
D03*
X25216Y218721D02*
D03*
X297441Y213976D02*
D03*
X325689Y118898D02*
D03*
X296949Y63779D02*
D03*
X329429Y13529D02*
D03*
X314429D02*
D03*
X296900Y13500D02*
D03*
X281929Y13529D02*
D03*
X245300Y13500D02*
D03*
X230500D02*
D03*
X212929Y13571D02*
D03*
X198000Y13500D02*
D03*
X112205Y204724D02*
D03*
X127953D02*
D03*
X116142Y216535D02*
D03*
X124016D02*
D03*
X116142Y196850D02*
D03*
X108268Y204724D02*
D03*
X127953Y196850D02*
D03*
X116142Y192913D02*
D03*
X104331Y204724D02*
D03*
X131890Y220473D02*
D03*
X104331Y200787D02*
D03*
X127953Y192913D02*
D03*
X104331Y196850D02*
D03*
X131890Y224410D02*
D03*
X139764Y204724D02*
D03*
X104331Y192913D02*
D03*
X242126Y204724D02*
D03*
X226378D02*
D03*
X238189Y216535D02*
D03*
X230315D02*
D03*
Y196850D02*
D03*
X222441Y204724D02*
D03*
X242126Y196850D02*
D03*
X230315Y192913D02*
D03*
X246063Y220473D02*
D03*
X218504Y204724D02*
D03*
X242126Y192913D02*
D03*
X218504Y200787D02*
D03*
Y196850D02*
D03*
X253937Y204724D02*
D03*
X249213Y109449D02*
D03*
X251400Y169800D02*
D03*
X184900Y72800D02*
D03*
X183600Y77500D02*
D03*
X209400Y90100D02*
D03*
X213700Y95900D02*
D03*
D48*
X306299Y96457D02*
D03*
D60*
X97244Y241339D02*
X98827Y239756D01*
Y234700D02*
Y239756D01*
X137008Y238976D02*
X138197Y237787D01*
Y218102D02*
Y237787D01*
X137402Y222047D02*
Y234646D01*
X135827Y236221D02*
X137402Y234646D01*
X135827Y236221D02*
Y241732D01*
X133071Y244488D02*
X135827Y241732D01*
X130315Y247244D02*
X133071Y244488D01*
X132677Y244882D02*
X133071Y244488D01*
X125984Y246063D02*
X127559Y244488D01*
X129921D01*
X134260Y240149D01*
Y222843D02*
Y240149D01*
X140551Y244094D02*
X141331Y243315D01*
Y239029D02*
Y243315D01*
X141287Y238985D02*
X141331Y239029D01*
X141287Y238240D02*
Y238985D01*
Y238240D02*
X141331Y238196D01*
Y211949D02*
Y238196D01*
X240158Y223622D02*
Y246850D01*
X212992Y199606D02*
X213386Y199212D01*
X216142D01*
X252370Y237410D02*
X255704Y240743D01*
Y251777D01*
X252370Y218102D02*
Y237410D01*
X259842Y241732D02*
X260236Y242126D01*
X259842Y203150D02*
Y241732D01*
X259055Y202362D02*
X259842Y203150D01*
X257087Y202362D02*
X259055D01*
X256307Y201583D02*
X257087Y202362D01*
X256307Y200008D02*
Y201583D01*
X255504Y238181D02*
X256693Y239370D01*
X255504Y206291D02*
Y238181D01*
X251567Y243693D02*
X253937Y246063D01*
X251567Y222039D02*
Y243693D01*
X248433Y237803D02*
X249213Y238583D01*
X248433Y202354D02*
Y237803D01*
X247630Y195283D02*
Y245283D01*
X103937Y239370D02*
Y248819D01*
X101961Y237393D02*
X103937Y239370D01*
X101961Y234100D02*
Y237393D01*
X104331Y203003D02*
X105897Y201436D01*
X104331Y203003D02*
Y204724D01*
X101961Y199221D02*
Y234100D01*
Y199221D02*
X104331Y196850D01*
X98827Y196201D02*
Y234700D01*
Y196201D02*
X99745Y195283D01*
X101961D01*
X104331Y192913D01*
X106701Y175189D02*
Y201436D01*
Y175189D02*
X108661Y173228D01*
X106701Y201436D02*
X108268Y203003D01*
Y204724D01*
X105897Y166527D02*
Y201436D01*
X144488Y235827D02*
X145268Y235047D01*
Y210228D02*
Y235047D01*
X144488Y235827D02*
Y243307D01*
X139764Y204724D02*
X145268Y210228D01*
X146071Y237803D02*
X147244Y238976D01*
X146071Y209457D02*
Y237803D01*
X142134Y205520D02*
X146071Y209457D01*
X142134Y199221D02*
Y205520D01*
X141331Y198417D02*
X142134Y199221D01*
X141331Y196201D02*
Y198417D01*
X137795Y194882D02*
X140011D01*
X141331Y196201D01*
X135827Y192913D02*
X137795Y194882D01*
X138189Y199606D02*
Y207685D01*
Y199212D02*
Y199606D01*
X142134Y212992D02*
Y238591D01*
X142124Y212983D02*
X142134Y212992D01*
X142124Y211621D02*
Y212983D01*
X138189Y207685D02*
X142124Y211621D01*
X135827Y196850D02*
X138189Y199212D01*
X137394Y208013D02*
X141331Y211949D01*
X137394Y204724D02*
Y208013D01*
Y202354D02*
Y204724D01*
X135827Y200787D02*
X137394Y202354D01*
X133457Y182291D02*
X133465Y182283D01*
X133457Y182291D02*
Y216535D01*
X133465Y216543D01*
Y217717D01*
X132677Y218504D02*
X133465Y217717D01*
X131496Y218504D02*
X132677D01*
X130323Y219677D02*
X131496Y218504D01*
X130323Y219677D02*
Y222843D01*
X131890Y220473D02*
X134260Y222843D01*
X138197Y218102D02*
X139764Y216535D01*
X135827Y220473D02*
X137402Y222047D01*
X261417Y171653D02*
X265748Y175984D01*
Y232284D01*
X254716Y198417D02*
X256307Y200008D01*
X253543Y198417D02*
X254716D01*
X253543D02*
X253783D01*
X251567D02*
X253543D01*
X213918Y195283D02*
X216134D01*
X213000Y196201D02*
X213918Y195283D01*
X216134D02*
X218504Y192913D01*
X220874Y179520D02*
X222300Y178094D01*
X220874Y179520D02*
Y201436D01*
X222300Y177900D02*
Y178094D01*
X220874Y201436D02*
X222441Y203003D01*
Y204724D01*
X220071Y175205D02*
Y203157D01*
Y175205D02*
X220079Y175197D01*
X218504Y204724D02*
X220071Y203157D01*
X216937Y202354D02*
X218504Y200787D01*
X216142Y199212D02*
X218504Y196850D01*
X241339Y222441D02*
X244095D01*
X240158Y223622D02*
X241339Y222441D01*
X244095D02*
X246063Y220473D01*
X252370Y218102D02*
X253937Y216535D01*
X250000Y220473D02*
X251567Y222039D01*
X247630Y195283D02*
X250000Y192913D01*
X253937Y204724D02*
X255504Y206291D01*
X248433Y202354D02*
X250000Y200787D01*
Y196850D02*
X251567Y198417D01*
X130323Y222843D02*
X131890Y224410D01*
X222300Y104400D02*
Y177900D01*
D61*
X106299Y236339D02*
Y251969D01*
X102761Y232800D02*
X106299Y236339D01*
X102761Y202357D02*
Y232800D01*
Y202357D02*
X104331Y200787D01*
D63*
X4528Y256890D02*
Y361417D01*
Y214764D02*
Y256890D01*
Y16732D02*
Y214764D01*
Y16732D02*
X10039Y11220D01*
X178937D01*
M02*
