%FSLAX25Y25*%
%MOIN*%
G70*
G01*
G75*
G04 Layer_Physical_Order=8*
G04 Layer_Color=16711680*
%ADD10C,0.00800*%
%ADD11R,0.10236X0.04331*%
%ADD12R,0.04331X0.10236*%
%ADD13R,0.06693X0.04528*%
%ADD14R,0.07087X0.07087*%
G04:AMPARAMS|DCode=15|XSize=19.69mil|YSize=23.62mil|CornerRadius=4.92mil|HoleSize=0mil|Usage=FLASHONLY|Rotation=90.000|XOffset=0mil|YOffset=0mil|HoleType=Round|Shape=RoundedRectangle|*
%AMROUNDEDRECTD15*
21,1,0.01969,0.01378,0,0,90.0*
21,1,0.00984,0.02362,0,0,90.0*
1,1,0.00984,0.00689,0.00492*
1,1,0.00984,0.00689,-0.00492*
1,1,0.00984,-0.00689,-0.00492*
1,1,0.00984,-0.00689,0.00492*
%
%ADD15ROUNDEDRECTD15*%
%ADD16R,0.04528X0.06693*%
%ADD17C,0.03937*%
%ADD18R,0.02362X0.02362*%
%ADD19C,0.01772*%
%ADD20R,0.47441X0.07874*%
%ADD21R,0.02362X0.02362*%
%ADD22R,0.02362X0.07087*%
G04:AMPARAMS|DCode=23|XSize=19.69mil|YSize=23.62mil|CornerRadius=4.92mil|HoleSize=0mil|Usage=FLASHONLY|Rotation=180.000|XOffset=0mil|YOffset=0mil|HoleType=Round|Shape=RoundedRectangle|*
%AMROUNDEDRECTD23*
21,1,0.01969,0.01378,0,0,180.0*
21,1,0.00984,0.02362,0,0,180.0*
1,1,0.00984,-0.00492,0.00689*
1,1,0.00984,0.00492,0.00689*
1,1,0.00984,0.00492,-0.00689*
1,1,0.00984,-0.00492,-0.00689*
%
%ADD23ROUNDEDRECTD23*%
%ADD24R,0.03740X0.01378*%
%ADD25R,0.01378X0.03740*%
%ADD26R,0.12992X0.12992*%
%ADD27R,0.04528X0.07087*%
%ADD28R,0.01969X0.07874*%
%ADD29R,0.14488X0.05000*%
%ADD30R,0.05512X0.03937*%
%ADD31R,0.03937X0.05512*%
%ADD32R,0.12992X0.12992*%
%ADD33R,0.05512X0.04331*%
%ADD34R,0.04331X0.05512*%
%ADD35C,0.00500*%
%ADD36C,0.01000*%
%ADD37C,0.01969*%
%ADD38C,0.01500*%
%ADD39C,0.01200*%
%ADD40C,0.00600*%
%ADD41C,0.02000*%
%ADD42C,0.03740*%
%ADD43R,0.07874X0.07874*%
%ADD44C,0.31496*%
%ADD45C,0.06496*%
%ADD46C,0.05800*%
%ADD47C,0.01940*%
%ADD48C,0.05000*%
%ADD49C,0.02598*%
%ADD50C,0.04000*%
%ADD51C,0.05740*%
%ADD52C,0.06134*%
%ADD53C,0.17000*%
%ADD54C,0.06600*%
%ADD55C,0.08102*%
%ADD56C,0.08000*%
%ADD57C,0.03969*%
%ADD58C,0.03000*%
%ADD59C,0.04800*%
%ADD60C,0.00394*%
%ADD61C,0.00400*%
%ADD62C,0.03299*%
%ADD63C,0.05000*%
%ADD64R,0.01600X0.08500*%
%ADD65R,0.71000X0.02000*%
D10*
X76160Y217929D02*
X79038D01*
X226202Y161643D02*
Y180927D01*
X212759Y148200D02*
X226202Y161643D01*
X198100Y148200D02*
X212759D01*
X224500Y162697D02*
Y183161D01*
X211703Y149900D02*
X224500Y162697D01*
X197396Y149900D02*
X211703D01*
X161669Y53574D02*
Y63473D01*
X199606Y101410D01*
Y110236D01*
X203543Y102943D02*
Y110236D01*
X163689Y63089D02*
X203543Y102943D01*
X163689Y53574D02*
Y63089D01*
X161429Y53334D02*
X161669Y53574D01*
X161429Y48650D02*
Y53334D01*
X163929Y48650D02*
Y53334D01*
X163689Y53574D02*
X163929Y53334D01*
X259724Y198700D02*
X271704D01*
X257874Y196850D02*
X259724Y198700D01*
X271704D02*
X282000Y188404D01*
X261811Y196850D02*
X271150D01*
X280300Y187700D01*
X203543Y114173D02*
X207470Y118100D01*
X247162Y119800D02*
X280300Y152938D01*
Y187700D01*
X207470Y118100D02*
X248021D01*
X282000Y152079D01*
Y188404D01*
X201272Y115972D02*
X205100Y119800D01*
X247162D01*
X201272Y115839D02*
Y115972D01*
X199606Y114173D02*
X201272Y115839D01*
X114173Y142126D02*
Y146457D01*
Y137795D02*
Y142126D01*
X110400Y150230D02*
X114173Y146457D01*
X110400Y150230D02*
Y183235D01*
X92913Y116535D02*
X114173Y137795D01*
X92913Y114173D02*
Y116535D01*
X96850Y114173D02*
Y118110D01*
X116142Y137402D01*
Y146746D01*
X112100Y150787D02*
X116142Y146746D01*
X112100Y150787D02*
Y180998D01*
X131890Y107090D02*
Y110236D01*
X79689Y54889D02*
X131890Y107090D01*
X79689Y53639D02*
Y54889D01*
X127953Y106153D02*
Y110236D01*
X77669Y55869D02*
X127953Y106153D01*
X77669Y53639D02*
Y55869D01*
X98500Y183146D02*
X100394Y185039D01*
X98500Y164904D02*
Y183146D01*
X70016Y136420D02*
X98500Y164904D01*
X102561Y183269D02*
X104331Y185039D01*
X102561Y154853D02*
Y183269D01*
Y154853D02*
X102700Y154714D01*
X77890Y129904D02*
X102700Y154714D01*
X106500Y147204D02*
Y180364D01*
X106498Y180367D02*
X106500Y180364D01*
X106498Y180367D02*
Y183269D01*
X87276Y127980D02*
X106500Y147204D01*
X106498Y183269D02*
X108268Y185039D01*
X212500Y179500D02*
Y182972D01*
X204900Y171900D02*
X212500Y179500D01*
X191159Y171900D02*
X204900D01*
X205400Y170200D02*
X214567Y179367D01*
X191863Y170200D02*
X205400D01*
X257874Y185039D02*
X259644Y186809D01*
X263891D01*
X268400Y182300D01*
X259961Y195000D02*
X270204D01*
X257874Y192913D02*
X259961Y195000D01*
X270204D02*
X276800Y188404D01*
X224500Y183161D02*
X226378Y185039D01*
X226273Y180998D02*
X226378Y181102D01*
X222373Y181035D02*
X222441Y181102D01*
X218504D02*
X218573Y181033D01*
X214567Y181102D02*
X214773Y180896D01*
X276800Y154556D02*
Y188404D01*
X247144Y124900D02*
X276800Y154556D01*
X200000Y124900D02*
X247144D01*
X275100Y155288D02*
Y187700D01*
X246412Y126600D02*
X275100Y155288D01*
X199296Y126600D02*
X246412D01*
X77429Y53399D02*
X77669Y53639D01*
X116189Y53574D02*
X116429Y53334D01*
Y48650D02*
Y53334D01*
X113929D02*
X114169Y53574D01*
X113929Y48650D02*
Y53334D01*
X123689Y53574D02*
X123929Y53334D01*
Y48650D02*
Y53334D01*
X121429D02*
X121669Y53574D01*
X121429Y48650D02*
Y53334D01*
X79689Y53639D02*
X79929Y53399D01*
Y48650D02*
Y53399D01*
X77429Y48650D02*
Y53399D01*
X45169Y28074D02*
Y32540D01*
X24689Y28740D02*
X25249Y29300D01*
X22109D02*
X22669Y28740D01*
X24689Y28074D02*
Y28740D01*
Y28074D02*
X24929Y27834D01*
Y23150D02*
Y27834D01*
X22669Y28074D02*
Y28740D01*
X22429Y27834D02*
X22669Y28074D01*
X22429Y23150D02*
Y27834D01*
X32189Y32440D02*
X32749Y33000D01*
X29609D02*
X30169Y32440D01*
X32189Y28074D02*
Y32440D01*
Y28074D02*
X32429Y27834D01*
Y23150D02*
Y27834D01*
X30169Y28074D02*
Y32440D01*
X29929Y27834D02*
X30169Y28074D01*
X29929Y23150D02*
Y27834D01*
X39689Y28740D02*
X40249Y29300D01*
X37109D02*
X37669Y28740D01*
X39689Y28074D02*
Y28740D01*
Y28074D02*
X39929Y27834D01*
Y23150D02*
Y27834D01*
X37669Y28074D02*
Y28740D01*
X37429Y27834D02*
X37669Y28074D01*
X37429Y23150D02*
Y27834D01*
X47189Y32540D02*
X47749Y33100D01*
X44609D02*
X45169Y32540D01*
X47189Y28074D02*
Y32540D01*
Y28074D02*
X47429Y27834D01*
Y23150D02*
Y27834D01*
X44929D02*
X45169Y28074D01*
X44929Y23150D02*
Y27834D01*
X79689Y28740D02*
X80249Y29300D01*
X77109D02*
X77669Y28740D01*
X79689Y28074D02*
Y28740D01*
Y28074D02*
X79929Y27834D01*
Y23150D02*
Y27834D01*
X77669Y28074D02*
Y28740D01*
X77429Y27834D02*
X77669Y28074D01*
X77429Y23150D02*
Y27834D01*
X72189Y32440D02*
X72749Y33000D01*
X69609D02*
X70169Y32440D01*
X72189Y28074D02*
Y32440D01*
Y28074D02*
X72429Y27834D01*
Y23150D02*
Y27834D01*
X70169Y28074D02*
Y32440D01*
X69929Y27834D02*
X70169Y28074D01*
X69929Y23150D02*
Y27834D01*
X64689Y28740D02*
X65249Y29300D01*
X62109D02*
X62669Y28740D01*
X64689Y28074D02*
Y28740D01*
Y28074D02*
X64929Y27834D01*
Y23150D02*
Y27834D01*
X62669Y28074D02*
Y28740D01*
X62429Y27834D02*
X62669Y28074D01*
X62429Y23150D02*
Y27834D01*
X57189Y32540D02*
X57749Y33100D01*
X54609D02*
X55169Y32540D01*
X57189Y28074D02*
Y32540D01*
Y28074D02*
X57429Y27834D01*
Y23150D02*
Y27834D01*
X55169Y28074D02*
Y32540D01*
X54929Y27834D02*
X55169Y28074D01*
X54929Y23150D02*
Y27834D01*
X106429Y23150D02*
Y27834D01*
X106669Y28074D01*
Y28740D01*
X108929Y23150D02*
Y27834D01*
X108689Y28074D02*
X108929Y27834D01*
X108689Y28074D02*
Y28740D01*
X106109Y29300D02*
X106669Y28740D01*
X108689D02*
X109249Y29300D01*
X113929Y23150D02*
Y27834D01*
X114169Y28074D01*
Y32440D01*
X116429Y23150D02*
Y27834D01*
X116189Y28074D02*
X116429Y27834D01*
X116189Y28074D02*
Y32440D01*
X113609Y33000D02*
X114169Y32440D01*
X116189D02*
X116749Y33000D01*
X121429Y23150D02*
Y27834D01*
X121669Y28074D01*
Y28740D01*
X123929Y23150D02*
Y27834D01*
X123689Y28074D02*
X123929Y27834D01*
X123689Y28074D02*
Y28740D01*
X121109Y29300D02*
X121669Y28740D01*
X123689D02*
X124249Y29300D01*
X128929Y23150D02*
Y27834D01*
X129169Y28074D01*
Y32440D01*
X131429Y23150D02*
Y27834D01*
X131189Y28074D02*
X131429Y27834D01*
X131189Y28074D02*
Y32440D01*
X128609Y33000D02*
X129169Y32440D01*
X131189D02*
X131749Y33000D01*
X161429Y23150D02*
Y27834D01*
X161669Y28074D01*
Y28640D01*
X163929Y23150D02*
Y27834D01*
X163689Y28074D02*
X163929Y27834D01*
X163689Y28074D02*
Y28640D01*
X161109Y29200D02*
X161669Y28640D01*
X163689D02*
X164249Y29200D01*
X39929Y48650D02*
Y53399D01*
X39689Y53639D02*
X39929Y53399D01*
X32429Y48650D02*
Y53399D01*
X32189Y53639D02*
X32429Y53399D01*
X24689Y53492D02*
X24781Y53399D01*
X24929Y48650D02*
Y53399D01*
X24781D02*
X24929D01*
X22429Y48650D02*
Y53399D01*
X22669Y53639D01*
X29929Y48650D02*
Y53399D01*
X30169Y53639D01*
X146429Y48650D02*
Y53334D01*
X146669Y53574D01*
X148929Y48650D02*
Y53334D01*
X148689Y53574D02*
X148929Y53334D01*
X153929Y48650D02*
Y53334D01*
X154169Y53574D01*
X138929Y23150D02*
Y27834D01*
X139169Y28074D01*
Y32340D01*
X141429Y23150D02*
Y27834D01*
X141189Y28074D02*
X141429Y27834D01*
X141189Y28074D02*
Y32340D01*
X138609Y32900D02*
X139169Y32340D01*
X141189D02*
X141749Y32900D01*
X146429Y23150D02*
Y27834D01*
X146669Y28074D01*
Y28640D01*
X148929Y23150D02*
Y27834D01*
X148689Y28074D02*
X148929Y27834D01*
X148689Y28074D02*
Y28640D01*
X146109Y29200D02*
X146669Y28640D01*
X148689D02*
X149249Y29200D01*
X153929Y23150D02*
Y27834D01*
X154169Y28074D01*
Y32440D01*
X156429Y23150D02*
Y27834D01*
X156189Y28074D02*
X156429Y27834D01*
X156189Y28074D02*
Y32440D01*
X153609Y33000D02*
X154169Y32440D01*
X156189D02*
X156749Y33000D01*
X138929Y53334D02*
X139169Y53574D01*
X138929Y48650D02*
Y53334D01*
X141189Y53574D02*
X141429Y53334D01*
Y48650D02*
Y53334D01*
X156429Y48650D02*
Y53334D01*
X156189Y53574D02*
X156429Y53334D01*
X108689Y53574D02*
Y56600D01*
Y53574D02*
X108929Y53334D01*
Y48650D02*
Y53334D01*
X106429Y48650D02*
Y53334D01*
X106669Y53574D01*
Y57437D01*
X131429Y48650D02*
Y53071D01*
X131200Y53300D02*
X131429Y53071D01*
X128929Y48650D02*
Y53029D01*
X129200Y53300D01*
X69929Y53399D02*
X70169Y53639D01*
X69929Y48650D02*
Y53399D01*
X70200Y53671D01*
X72429Y48650D02*
Y53399D01*
X64929Y48650D02*
Y53399D01*
X64689Y53639D02*
X64929Y53399D01*
X62429Y48650D02*
Y53399D01*
X62669Y53639D01*
X57429Y48650D02*
Y53399D01*
X57189Y53639D02*
X57429Y53399D01*
X72189Y53639D02*
X72429Y53399D01*
X54929Y48650D02*
Y53229D01*
X55200Y53500D01*
X37429Y53399D02*
X37669Y53639D01*
X37429Y48650D02*
Y53399D01*
X44929Y48650D02*
Y53334D01*
X45169Y53574D01*
X47429Y48650D02*
Y53334D01*
X47189Y53574D02*
X47429Y53334D01*
X68898Y110236D02*
X68900Y110234D01*
X116142Y108342D02*
Y110236D01*
X22669Y53639D02*
Y57769D01*
X68900Y104000D01*
Y110234D01*
X24689Y53492D02*
Y57385D01*
X72835Y105531D01*
Y110236D01*
X30169Y53639D02*
Y57069D01*
X76772Y103672D01*
Y110236D01*
X32189Y53639D02*
Y56685D01*
X80709Y105204D01*
Y110236D01*
X37669Y53639D02*
Y56469D01*
X85039Y103839D01*
Y110236D01*
X39689Y53639D02*
Y56085D01*
X88976Y105372D01*
Y110236D01*
X47189Y53574D02*
Y56589D01*
X96850Y106250D01*
Y110236D01*
X92913Y104718D02*
Y110236D01*
X45169Y56973D02*
X92913Y104718D01*
X45169Y53574D02*
Y56973D01*
X57189Y53639D02*
Y59289D01*
X108136Y110236D01*
X108268D01*
X104331Y108835D02*
Y110236D01*
X55200Y59704D02*
X104331Y108835D01*
X55200Y53500D02*
Y59704D01*
X62669Y53639D02*
Y55869D01*
X112205Y105405D01*
Y110236D01*
X64689Y53639D02*
Y55485D01*
X113905Y104701D01*
Y106105D01*
X116142Y108342D01*
X124016Y107918D02*
Y110236D01*
X70200Y53671D02*
Y55300D01*
X120079Y105179D01*
Y110236D01*
X72189Y53639D02*
Y54885D01*
X121779Y104475D01*
Y105681D01*
X124016Y107918D01*
X144882Y106299D02*
Y110236D01*
X106680Y57600D02*
Y68780D01*
X140945Y103045D01*
Y110236D01*
X108700Y56611D02*
Y68396D01*
X142645Y102341D01*
Y104062D01*
X144882Y106299D01*
X152756Y105512D02*
Y110236D01*
X116189Y53574D02*
Y68945D01*
X152756Y105512D01*
X148819Y104724D02*
Y110236D01*
X114169Y53574D02*
Y70074D01*
X148819Y104724D01*
X160630Y101969D02*
Y110236D01*
X123689Y53574D02*
Y65027D01*
X160630Y101969D01*
X156693Y101181D02*
Y110236D01*
X121669Y53574D02*
Y66157D01*
X156693Y101181D01*
X131200Y53300D02*
Y65200D01*
X168504Y102504D01*
Y110236D01*
X164567Y100971D02*
Y110236D01*
X129200Y65604D02*
X164567Y100971D01*
X129200Y53300D02*
Y65604D01*
X141189Y53574D02*
Y65789D01*
X179921Y104521D01*
Y110236D01*
X175984Y102988D02*
Y110236D01*
X139169Y66173D02*
X175984Y102988D01*
X139169Y53574D02*
Y66173D01*
X148689Y53574D02*
Y64789D01*
X187795Y103895D01*
Y110236D01*
X183858Y102362D02*
Y110236D01*
X146669Y65173D02*
X183858Y102362D01*
X146669Y53574D02*
Y65173D01*
X156189Y53574D02*
Y63789D01*
X195669Y103269D01*
Y110236D01*
X191732Y101736D02*
Y110236D01*
X154169Y64173D02*
X191732Y101736D01*
X154169Y53574D02*
Y64173D01*
X68898Y114173D02*
Y115634D01*
X70016Y116753D01*
X72835Y114173D02*
Y115634D01*
X71716Y116753D02*
X72835Y115634D01*
X87276Y116410D02*
Y127980D01*
X85039Y114173D02*
X87276Y116410D01*
X88976Y114173D02*
Y127276D01*
X108200Y146500D01*
X76772Y114173D02*
Y115634D01*
X77890Y116753D01*
X80709Y114173D02*
Y115634D01*
X79590Y116753D02*
X80709Y115634D01*
X79590Y116753D02*
Y129200D01*
X104400Y154010D01*
X77890Y116753D02*
Y129904D01*
X70016Y116753D02*
Y136420D01*
X71716Y116753D02*
Y135716D01*
X100600Y164600D01*
Y180896D01*
X100394Y181102D02*
X100600Y180896D01*
X104400Y154010D02*
Y181033D01*
X104331Y181102D02*
X104400Y181033D01*
X108200Y146500D02*
Y181035D01*
X108268Y181102D01*
X112100Y180998D02*
X112205Y181102D01*
X110400Y183235D02*
X112205Y185039D01*
X143701Y196850D02*
X145851Y199000D01*
X143701Y192913D02*
X145688Y194900D01*
X143701Y188976D02*
X145725Y191000D01*
X143701Y185039D02*
X145762Y187100D01*
X145688Y194900D02*
X154904D01*
X145725Y191000D02*
X152604D01*
X145762Y187100D02*
X150000D01*
X106568Y116410D02*
Y124772D01*
X104331Y114173D02*
X106568Y116410D01*
Y124772D02*
X152000Y170204D01*
X108268Y114173D02*
Y124068D01*
X153700Y169500D01*
X112205Y114173D02*
Y115634D01*
X113323Y116753D01*
X116142Y114173D02*
Y115634D01*
X115023Y116753D02*
X116142Y115634D01*
X113323Y116753D02*
Y123227D01*
X157800Y167704D01*
X115023Y116753D02*
Y122523D01*
X159500Y167000D01*
X120079Y114173D02*
Y115634D01*
X121197Y116753D01*
X124016Y114173D02*
Y115634D01*
X122897Y116753D02*
X124016Y115634D01*
X122897Y116753D02*
Y121700D01*
X165400Y164203D01*
X121197Y122404D02*
X163700Y164907D01*
X121197Y116753D02*
Y122404D01*
X127953Y114173D02*
Y115634D01*
X129071Y116753D01*
X131890Y114173D02*
Y115634D01*
X130771Y116753D02*
X131890Y115634D01*
X130771Y116753D02*
Y121000D01*
X173100Y163329D01*
X129071Y121704D02*
X171400Y164033D01*
X129071Y116753D02*
Y121704D01*
X171400Y164033D02*
Y182800D01*
X173100Y163329D02*
Y183504D01*
X163700Y164907D02*
Y183700D01*
X165400Y164203D02*
Y184404D01*
X154904Y194900D02*
X165400Y184404D01*
X152604Y191000D02*
X159500Y184104D01*
X157800Y167704D02*
Y183400D01*
X159500Y167000D02*
Y184104D01*
X147638Y185039D02*
X149561D01*
X152000Y170204D02*
Y182600D01*
X149561Y185039D02*
X152000Y182600D01*
X150000Y187100D02*
X153700Y183400D01*
Y169500D02*
Y183400D01*
X152224Y188976D02*
X157800Y183400D01*
X147638Y188976D02*
X152224D01*
X154487Y192913D02*
X163700Y183700D01*
X147638Y192913D02*
X154487D01*
X157350Y196850D02*
X171400Y182800D01*
X147638Y196850D02*
X157350D01*
X145851Y199000D02*
X157604D01*
X173100Y183504D01*
X140945Y114173D02*
Y115634D01*
X142063Y116753D01*
X144882Y114173D02*
Y115634D01*
X143763Y116753D02*
X144882Y115634D01*
X143763Y116753D02*
Y122100D01*
X191863Y170200D01*
X142063Y122804D02*
X191159Y171900D01*
X142063Y116753D02*
Y122804D01*
X152756Y114173D02*
X154013Y115430D01*
Y121813D01*
X152313Y117667D02*
Y122517D01*
X193796Y164000D02*
X205500D01*
X154013Y121813D02*
X194500Y162300D01*
X148819Y114173D02*
X152313Y117667D01*
Y122517D02*
X193796Y164000D01*
X160630Y114173D02*
Y115634D01*
X163100Y118104D01*
Y121900D01*
X196300Y155100D01*
X161400Y122604D02*
X195596Y156800D01*
X156693Y114173D02*
X161400Y118880D01*
Y122604D01*
X171700Y117369D02*
Y121800D01*
X198100Y148200D01*
X170000Y122504D02*
X197396Y149900D01*
X168504Y114173D02*
X171700Y117369D01*
X164567Y114173D02*
X170000Y119606D01*
Y122504D01*
X179921Y114173D02*
Y115634D01*
X182800Y118513D01*
Y124600D01*
X197100Y138900D01*
X181100Y125304D02*
X196396Y140600D01*
X175984Y114173D02*
X181100Y119289D01*
Y125304D01*
X196396Y140600D02*
X236700D01*
X197100Y138900D02*
X237404D01*
X187795Y114173D02*
X189113Y115491D01*
Y121013D01*
X187413Y117728D02*
Y121717D01*
X183858Y114173D02*
X187413Y117728D01*
Y121717D02*
X199196Y133500D01*
X245300D01*
X189113Y121013D02*
X199900Y131800D01*
X246004D01*
X195669Y120569D02*
X200000Y124900D01*
X193969Y116410D02*
Y121274D01*
X195669Y114173D02*
Y120569D01*
X191732Y114173D02*
X193969Y116410D01*
Y121274D02*
X199296Y126600D01*
X269887Y192913D02*
X275100Y187700D01*
X266824Y188976D02*
X270700Y185100D01*
X245300Y133500D02*
X270700Y158900D01*
Y185100D01*
X246004Y131800D02*
X272400Y158196D01*
Y185804D01*
X236700Y140600D02*
X266700Y170600D01*
X237404Y138900D02*
X268400Y169896D01*
X195596Y156800D02*
X210000D01*
X196300Y155100D02*
X210704D01*
X194500Y162300D02*
X206204D01*
X266700Y170600D02*
Y180150D01*
X261811Y185039D02*
X266700Y180150D01*
X268400Y169896D02*
Y182300D01*
X261811Y188976D02*
X266824D01*
X267304Y190900D02*
X272400Y185804D01*
X257874Y188976D02*
X259798Y190900D01*
X267304D01*
X261811Y192913D02*
X269887D01*
X214567Y179367D02*
Y181102D01*
X212500Y182972D02*
X214567Y185039D01*
X206204Y162300D02*
X218504Y174600D01*
Y181102D01*
X205500Y164000D02*
X216400Y174900D01*
Y182935D02*
X218504Y185039D01*
X216400Y174900D02*
Y182935D01*
X210704Y155100D02*
X222441Y166837D01*
Y181102D01*
X210000Y156800D02*
X220400Y167200D01*
Y182998D02*
X222441Y185039D01*
X220400Y167200D02*
Y182998D01*
X226202Y180927D02*
X226378Y181102D01*
D13*
X295636Y231882D02*
D03*
Y242709D02*
D03*
X242987Y165262D02*
D03*
Y154435D02*
D03*
X177139Y231160D02*
D03*
Y241987D02*
D03*
D15*
X200000Y210630D02*
D03*
X203937D02*
D03*
D17*
X344488Y374016D02*
D03*
X246063Y66929D02*
D03*
X21654Y118110D02*
D03*
X45276Y364961D02*
D03*
X336221Y115354D02*
D03*
X300394Y73228D02*
D03*
X168300Y202100D02*
D03*
X283071Y223622D02*
D03*
X268504Y94095D02*
D03*
X4519Y361417D02*
D03*
X287795Y277165D02*
D03*
X297793Y194147D02*
D03*
Y200053D02*
D03*
X292446Y215200D02*
D03*
X291253Y258782D02*
D03*
X278286Y251720D02*
D03*
X279175Y238148D02*
D03*
Y232242D02*
D03*
X229889Y146347D02*
D03*
Y152253D02*
D03*
X236676Y158996D02*
D03*
X236716Y164862D02*
D03*
X169300Y223824D02*
D03*
X190972Y217447D02*
D03*
Y223353D02*
D03*
X190414Y241399D02*
D03*
Y235494D02*
D03*
X163871Y231194D02*
D03*
Y237099D02*
D03*
X133267Y159555D02*
D03*
X121791Y163758D02*
D03*
X109055Y141339D02*
D03*
X115354Y152756D02*
D03*
X304528Y185630D02*
D03*
Y175000D02*
D03*
X317323Y139567D02*
D03*
X347638D02*
D03*
Y128937D02*
D03*
X317323D02*
D03*
X306693Y72047D02*
D03*
X294094D02*
D03*
X285039Y91339D02*
D03*
X271457Y68701D02*
D03*
X260827D02*
D03*
X273000Y131500D02*
D03*
X273076Y121176D02*
D03*
X265945Y116339D02*
D03*
X255315D02*
D03*
X228740Y108661D02*
D03*
X218307Y108465D02*
D03*
D18*
X196457Y234252D02*
D03*
Y238189D02*
D03*
X92520Y311417D02*
D03*
Y315354D02*
D03*
X97638Y311417D02*
D03*
Y315354D02*
D03*
X148819Y311811D02*
D03*
Y315748D02*
D03*
X153937Y311811D02*
D03*
Y315748D02*
D03*
X266142Y311811D02*
D03*
Y315748D02*
D03*
X260630Y311811D02*
D03*
Y315748D02*
D03*
X203543Y312205D02*
D03*
Y316142D02*
D03*
X209842Y312205D02*
D03*
Y316142D02*
D03*
X264765Y280866D02*
D03*
Y284803D02*
D03*
X207574Y280866D02*
D03*
Y284803D02*
D03*
X152466Y280866D02*
D03*
Y284803D02*
D03*
X95279Y280759D02*
D03*
Y284696D02*
D03*
X101969D02*
D03*
Y280759D02*
D03*
X257482Y280866D02*
D03*
Y284803D02*
D03*
X192800Y280866D02*
D03*
Y284803D02*
D03*
X250200Y280759D02*
D03*
Y284696D02*
D03*
X214961Y284803D02*
D03*
Y280866D02*
D03*
X272047Y284803D02*
D03*
Y280866D02*
D03*
X88590Y280759D02*
D03*
Y284696D02*
D03*
X138500Y280866D02*
D03*
Y284803D02*
D03*
X81900Y280759D02*
D03*
Y284696D02*
D03*
X159449Y284803D02*
D03*
Y280866D02*
D03*
X200187Y280866D02*
D03*
Y284803D02*
D03*
X145483Y280866D02*
D03*
Y284803D02*
D03*
D21*
X81890Y246457D02*
D03*
X77953D02*
D03*
X81890Y242126D02*
D03*
X77953D02*
D03*
X81890Y237795D02*
D03*
X77953D02*
D03*
X46457Y195669D02*
D03*
X42520D02*
D03*
X46457Y192126D02*
D03*
X42520D02*
D03*
X46457Y188583D02*
D03*
X42520D02*
D03*
X46457Y184646D02*
D03*
X42520D02*
D03*
X168042Y252200D02*
D03*
X164105D02*
D03*
X168042Y247869D02*
D03*
X164105D02*
D03*
X193701Y207087D02*
D03*
X189764D02*
D03*
X193701Y194488D02*
D03*
X189764D02*
D03*
X193701Y198819D02*
D03*
X189764D02*
D03*
X193701Y203150D02*
D03*
X189764D02*
D03*
X187008Y211417D02*
D03*
X190945D02*
D03*
X70473Y248306D02*
D03*
X66535D02*
D03*
X66535Y242350D02*
D03*
X70472D02*
D03*
D23*
X199600Y114300D02*
D03*
Y110363D02*
D03*
X203543Y114173D02*
D03*
Y110236D02*
D03*
X87386Y237008D02*
D03*
Y233071D02*
D03*
X114100Y226269D02*
D03*
Y222332D02*
D03*
X118600Y224468D02*
D03*
Y220532D02*
D03*
X121600Y224468D02*
D03*
Y220532D02*
D03*
X129900Y226468D02*
D03*
Y222532D02*
D03*
X118400Y212531D02*
D03*
Y216469D02*
D03*
X110200Y210631D02*
D03*
Y214568D02*
D03*
X114100Y202731D02*
D03*
Y206668D02*
D03*
X118500Y200832D02*
D03*
Y204768D02*
D03*
X121600Y212531D02*
D03*
Y216469D02*
D03*
X151484Y206368D02*
D03*
Y202432D02*
D03*
X129900Y210631D02*
D03*
Y214568D02*
D03*
X126032Y202803D02*
D03*
Y206740D02*
D03*
X122000Y202803D02*
D03*
Y198866D02*
D03*
X114160Y190931D02*
D03*
Y194869D02*
D03*
X129900Y190931D02*
D03*
Y194869D02*
D03*
X126008Y187031D02*
D03*
Y190969D02*
D03*
X118300Y186932D02*
D03*
Y190868D02*
D03*
X122000Y186932D02*
D03*
Y190868D02*
D03*
X201575Y237008D02*
D03*
Y233071D02*
D03*
X211811Y199213D02*
D03*
Y203150D02*
D03*
X228273Y226269D02*
D03*
Y222332D02*
D03*
X232873Y224468D02*
D03*
Y220532D02*
D03*
X235873Y224468D02*
D03*
Y220532D02*
D03*
X244073Y226468D02*
D03*
Y222532D02*
D03*
X244073Y210631D02*
D03*
Y214568D02*
D03*
X235773Y212531D02*
D03*
Y216469D02*
D03*
X232773Y212531D02*
D03*
Y216469D02*
D03*
X224373Y210631D02*
D03*
Y214568D02*
D03*
X228300Y202663D02*
D03*
Y206600D02*
D03*
X232773Y200832D02*
D03*
Y204768D02*
D03*
X240133Y202731D02*
D03*
Y206668D02*
D03*
X236433Y202432D02*
D03*
Y198495D02*
D03*
X228300Y190931D02*
D03*
Y194869D02*
D03*
X244073Y190931D02*
D03*
Y194869D02*
D03*
X240173Y187031D02*
D03*
Y190969D02*
D03*
X236173Y186932D02*
D03*
Y190868D02*
D03*
X232473Y186932D02*
D03*
Y190868D02*
D03*
X265400Y206437D02*
D03*
Y202500D02*
D03*
X258268Y235433D02*
D03*
Y231496D02*
D03*
X97727Y199032D02*
D03*
Y202969D02*
D03*
X143701Y235433D02*
D03*
Y231496D02*
D03*
X79038Y217913D02*
D03*
Y213976D02*
D03*
X68898Y110236D02*
D03*
Y114173D02*
D03*
X72835Y110236D02*
D03*
Y114173D02*
D03*
X76772Y110236D02*
D03*
Y114173D02*
D03*
X80709Y110236D02*
D03*
Y114173D02*
D03*
X85039Y110236D02*
D03*
Y114173D02*
D03*
X88976Y110236D02*
D03*
Y114173D02*
D03*
X92913Y110236D02*
D03*
Y114173D02*
D03*
X96850Y110236D02*
D03*
Y114173D02*
D03*
X104331Y110236D02*
D03*
Y114173D02*
D03*
X108268Y110236D02*
D03*
Y114173D02*
D03*
X112205Y110236D02*
D03*
Y114173D02*
D03*
X116142Y110236D02*
D03*
Y114173D02*
D03*
X120079Y110236D02*
D03*
Y114173D02*
D03*
X124016Y110236D02*
D03*
Y114173D02*
D03*
X127953Y110236D02*
D03*
Y114173D02*
D03*
X131890Y110236D02*
D03*
Y114173D02*
D03*
X140945Y110236D02*
D03*
Y114173D02*
D03*
X144882Y110236D02*
D03*
Y114173D02*
D03*
X148819Y110236D02*
D03*
Y114173D02*
D03*
X152756Y110236D02*
D03*
Y114173D02*
D03*
X156693Y110236D02*
D03*
Y114173D02*
D03*
X160630Y110236D02*
D03*
Y114173D02*
D03*
X164567Y110236D02*
D03*
Y114173D02*
D03*
X168504Y110236D02*
D03*
Y114173D02*
D03*
X175984Y110236D02*
D03*
Y114173D02*
D03*
X179921Y110236D02*
D03*
Y114173D02*
D03*
X183858Y110236D02*
D03*
Y114173D02*
D03*
X187795Y110236D02*
D03*
Y114173D02*
D03*
X191732Y110236D02*
D03*
Y114173D02*
D03*
X195669Y110236D02*
D03*
Y114173D02*
D03*
D33*
X184942Y241399D02*
D03*
Y235494D02*
D03*
X169343Y231194D02*
D03*
Y237099D02*
D03*
X224100Y152253D02*
D03*
Y146347D02*
D03*
X230887Y164902D02*
D03*
Y158996D02*
D03*
X85433Y182874D02*
D03*
Y188779D02*
D03*
X134646Y247047D02*
D03*
Y241142D02*
D03*
X156299Y237992D02*
D03*
Y232087D02*
D03*
X86221Y216732D02*
D03*
Y222638D02*
D03*
X155905Y215551D02*
D03*
Y221457D02*
D03*
X121260Y255709D02*
D03*
Y249803D02*
D03*
X72441Y262134D02*
D03*
Y268039D02*
D03*
X286236Y232242D02*
D03*
Y238148D02*
D03*
X199606Y182874D02*
D03*
Y188779D02*
D03*
X249213Y246654D02*
D03*
Y240748D02*
D03*
X270472Y237992D02*
D03*
Y232087D02*
D03*
X200394Y216732D02*
D03*
Y222638D02*
D03*
X270079Y215551D02*
D03*
Y221457D02*
D03*
D34*
X127370Y165000D02*
D03*
X133276D02*
D03*
X139961Y175197D02*
D03*
X134055D02*
D03*
X115551Y241339D02*
D03*
X121457D02*
D03*
X184843Y256063D02*
D03*
X178937D02*
D03*
X237598Y266693D02*
D03*
X231693D02*
D03*
X291253Y251720D02*
D03*
X285347D02*
D03*
X254134Y175197D02*
D03*
X248228D02*
D03*
X234842Y242520D02*
D03*
X228937D02*
D03*
D35*
X174409Y251969D02*
X184646D01*
X184843Y256063D02*
X185039Y255866D01*
Y252362D02*
Y255866D01*
X184646Y251969D02*
X185039Y252362D01*
X172147Y254231D02*
X174409Y251969D01*
X166508Y254231D02*
X172147D01*
X164477Y252200D02*
X166508Y254231D01*
X164105Y252200D02*
X164477D01*
X164105Y247869D02*
Y252200D01*
X75197Y236221D02*
Y251757D01*
Y236221D02*
X79921Y231496D01*
X80281Y254970D02*
X82529Y252722D01*
X75624Y254970D02*
X80281D01*
X81890Y246457D02*
X82529Y247096D01*
Y252722D01*
X74558Y253904D02*
X75624Y254970D01*
X74558Y252396D02*
Y253904D01*
Y252396D02*
X75197Y251757D01*
X79921Y225984D02*
Y231496D01*
X86614Y242126D02*
X88976Y244488D01*
X81890Y242126D02*
X86614D01*
X88976Y244488D02*
X102756D01*
X106648Y240597D01*
Y233510D02*
Y240597D01*
X161024Y222441D02*
X172047Y211417D01*
X161024Y222441D02*
Y240551D01*
X156299Y245276D02*
X161024Y240551D01*
X145669Y245276D02*
X156299D01*
X172047Y211417D02*
X187008D01*
X139764Y251181D02*
X145669Y245276D01*
X131102Y251181D02*
X139764D01*
X125984Y246063D02*
X131102Y251181D01*
X170242Y250000D02*
X201575D01*
X205118Y238189D02*
X216929D01*
X168042Y252200D02*
X170242Y250000D01*
X201575D02*
X203543Y248031D01*
Y239764D02*
Y248031D01*
Y239764D02*
X205118Y238189D01*
X216929D02*
X218504Y236614D01*
X193701Y245669D02*
X196457Y242913D01*
Y238189D02*
Y242913D01*
X192520Y245669D02*
X193701D01*
X193233Y234326D02*
Y240083D01*
X194488Y241339D01*
X193035Y234129D02*
X193233Y234326D01*
X195276Y233071D02*
X196457Y234252D01*
X193035Y234129D02*
X193233Y234326D01*
X187008Y228101D02*
X193035Y234129D01*
X166305Y245669D02*
X192520D01*
X164105Y247869D02*
X166305Y245669D01*
X121260Y249803D02*
X126772D01*
X261417Y235433D02*
X262205Y236221D01*
X258268Y235433D02*
X261417D01*
X140157Y236221D02*
X140945Y235433D01*
X143701D01*
X244488Y237795D02*
Y244094D01*
X247244Y246850D01*
X244488Y237795D02*
X246063Y236221D01*
X248031Y238976D02*
X249213Y240158D01*
X248031Y236543D02*
Y238976D01*
X133858Y240945D02*
X134252Y241339D01*
X133858Y226378D02*
Y240945D01*
X227559Y240945D02*
Y241339D01*
X224758Y238144D02*
X227559Y240945D01*
X110236Y226378D02*
Y229528D01*
X108268Y224410D02*
X110236Y226378D01*
Y229528D02*
X111024Y230315D01*
X117717D01*
X121457Y234055D01*
Y241339D01*
X167717Y248031D02*
X195669D01*
X200000Y243701D01*
Y243307D02*
Y243701D01*
Y239370D02*
Y243307D01*
X18110Y241732D02*
Y258347D01*
X21260Y213779D02*
X29921Y205118D01*
Y177953D02*
Y205118D01*
Y177953D02*
X40945Y166929D01*
Y142480D02*
Y166929D01*
X15610Y260846D02*
X18110Y258347D01*
Y241732D02*
X21260Y238583D01*
Y213779D02*
Y238583D01*
X35433Y136969D02*
X40945Y142480D01*
X3543Y143268D02*
Y253780D01*
X10610Y260846D01*
X3543Y143268D02*
X9843Y136969D01*
X18110Y165236D02*
Y203543D01*
X10216Y211437D02*
X18110Y203543D01*
X9843Y156968D02*
X18110Y165236D01*
X10216Y211437D02*
Y218721D01*
X34370Y156968D02*
X35433D01*
X25984Y165354D02*
X34370Y156968D01*
X25984Y165354D02*
Y201575D01*
X15216Y212343D02*
X25984Y201575D01*
X15216Y212343D02*
Y218721D01*
X187008Y211417D02*
Y228101D01*
X194882Y215354D02*
X195276Y215748D01*
Y233071D01*
X148819Y294496D02*
X150145Y293169D01*
X148819Y294496D02*
Y311811D01*
X153937Y308661D02*
Y311811D01*
X153295Y308019D02*
X153937Y308661D01*
X153295Y305571D02*
Y308019D01*
X259200Y290368D02*
Y305571D01*
Y290368D02*
X264765Y284803D01*
X203098Y293478D02*
X207574Y289003D01*
X203098Y293478D02*
Y305571D01*
X207574Y284803D02*
Y289003D01*
X146996Y290273D02*
Y305571D01*
Y290273D02*
X152466Y284803D01*
X97638Y315354D02*
X97638Y315354D01*
X94882Y315354D02*
X97638D01*
X92520Y315354D02*
X94882D01*
X94882Y300394D02*
Y315354D01*
Y300394D02*
X98425Y296850D01*
X94882Y315354D02*
X94882Y315354D01*
X98425Y281890D02*
Y296850D01*
X97294Y280759D02*
X98425Y281890D01*
X95279Y280759D02*
X97294D01*
X90893Y290997D02*
X95279Y286611D01*
X90893Y290997D02*
Y305571D01*
X95279Y284696D02*
Y286611D01*
X92713Y294499D02*
Y311224D01*
Y294499D02*
X94043Y293169D01*
X92520Y311417D02*
X92713Y311224D01*
X97193Y310972D02*
X97638Y311417D01*
X97193Y305571D02*
Y310972D01*
X250200Y280759D02*
X264658D01*
X263386Y294882D02*
Y312992D01*
Y294882D02*
X268504Y289764D01*
X260630Y315748D02*
X266142D01*
X263386Y312992D02*
X266142Y315748D01*
X268504Y283071D02*
Y289764D01*
X266299Y280866D02*
X268504Y283071D01*
X264765Y280866D02*
X266299D01*
X261020Y294499D02*
Y311421D01*
Y294499D02*
X262350Y293169D01*
X260630Y311811D02*
X261020Y311421D01*
X265500Y308413D02*
X266142Y309055D01*
X265500Y305571D02*
Y308413D01*
X266142Y309055D02*
Y311811D01*
X207480Y304331D02*
Y313779D01*
Y304331D02*
X210236Y301575D01*
X207480Y313779D02*
X209842Y316142D01*
X210236Y281890D02*
Y301575D01*
X209213Y280866D02*
X210236Y281890D01*
X207574Y280866D02*
X209213D01*
X203543Y312205D02*
X206248Y309500D01*
Y293169D02*
Y309500D01*
X209397Y311759D02*
X209842Y312205D01*
X209397Y305571D02*
Y311759D01*
X203543Y316142D02*
X209842D01*
X151575Y315748D02*
X151575Y315748D01*
X148819Y315748D02*
X151575D01*
X150394Y304331D02*
X155118Y299606D01*
X151575Y315748D02*
X153937D01*
X151575Y315748D02*
X151575Y315748D01*
X151575Y308268D02*
Y315748D01*
X150394Y307087D02*
X151575Y308268D01*
X150394Y304331D02*
Y307087D01*
X155118Y283465D02*
Y299606D01*
X152520Y280866D02*
X155118Y283465D01*
X152466Y280866D02*
X152520D01*
X282677Y221260D02*
Y223622D01*
X271717Y210300D02*
X282677Y221260D01*
X160236Y202756D02*
X164173Y198819D01*
X173228D01*
X177559Y203150D01*
X154331Y202756D02*
X160236D01*
X177559Y203150D02*
X189764D01*
X66535Y213976D02*
Y242350D01*
X189764Y203150D02*
Y207087D01*
Y198819D02*
Y203150D01*
Y194488D02*
Y198819D01*
X70472Y242350D02*
X73228Y245106D01*
X70473Y248306D02*
X73228Y251061D01*
X63779D02*
X66535Y248306D01*
X77953Y246457D02*
Y251575D01*
Y242126D02*
Y246457D01*
Y237795D02*
Y242126D01*
X76378Y253150D02*
X77953Y251575D01*
X42520Y192126D02*
Y195669D01*
Y188583D02*
Y192126D01*
Y184646D02*
Y188583D01*
X104379Y207432D02*
X106299Y205512D01*
X83246Y204900D02*
X95155D01*
X62992Y184646D02*
X83246Y204900D01*
X108268Y200787D02*
Y200787D01*
X106299Y202756D02*
X108268Y200787D01*
X106299Y202756D02*
Y205512D01*
X97686Y207432D02*
X104379D01*
X95155Y204900D02*
X97686Y207432D01*
X81978Y206781D02*
X94576D01*
X63779Y188583D02*
X81978Y206781D01*
X46457Y188583D02*
X63779D01*
X79921Y208662D02*
X92520D01*
X63386Y192126D02*
X79921Y208662D01*
X46457Y192126D02*
X63386D01*
X77165Y210630D02*
X98425D01*
X62205Y195669D02*
X77165Y210630D01*
X46457Y195669D02*
X62205D01*
X94576Y206781D02*
X96457Y208662D01*
X81890Y230709D02*
Y237795D01*
Y242126D02*
X81890Y242126D01*
X106648Y222093D02*
Y233510D01*
Y222093D02*
X108268Y220473D01*
X86221Y226378D02*
X100787D01*
X102362Y224803D01*
Y222441D02*
Y224803D01*
X81890Y230709D02*
X86221Y226378D01*
X100394Y220473D02*
X102362Y222441D01*
X98425Y210630D02*
X100394Y212598D01*
X87402Y233071D02*
X89809Y230664D01*
X209449Y218504D02*
X212598D01*
X203937Y213386D02*
X205118Y214567D01*
X196063Y213386D02*
X203937D01*
X193701Y211024D02*
X196063Y213386D01*
X212598Y218504D02*
X214567Y220473D01*
X208661Y217717D02*
X209449Y218504D01*
X208661Y216142D02*
Y217717D01*
X207087Y214567D02*
X208661Y216142D01*
X205118Y214567D02*
X207087D01*
X193701Y207087D02*
Y211024D01*
Y203150D02*
X199213Y208662D01*
X220472Y222441D02*
Y231102D01*
X218504Y233071D02*
X220472Y231102D01*
X218504Y233071D02*
Y236614D01*
X220472Y222441D02*
X222441Y220473D01*
X198819Y230315D02*
Y238189D01*
Y230315D02*
X203150Y225984D01*
X215309Y226029D02*
X216535Y224803D01*
Y222441D02*
Y224803D01*
X198819Y238189D02*
X200000Y239370D01*
X203150Y225984D02*
X205977D01*
X206022Y226029D01*
X215309D01*
X216535Y222441D02*
X218504Y220473D01*
X212205Y207087D02*
X220079D01*
X209720Y204602D02*
X212205Y207087D01*
X205389Y204602D02*
X209720D01*
X196063Y195276D02*
X205389Y204602D01*
X220472Y202756D02*
X222441Y200787D01*
X220472Y202756D02*
Y206693D01*
X220079Y207087D02*
X220472Y206693D01*
X193701Y195276D02*
X196063D01*
X207874Y205906D02*
X210630Y208662D01*
X200000Y205906D02*
X207874D01*
X193701Y199606D02*
X200000Y205906D01*
X199213Y208662D02*
X206693D01*
X197246Y210402D02*
X197277Y210433D01*
X46457Y184646D02*
X62992D01*
X35433Y186969D02*
X37756Y184646D01*
X42520D01*
X186614Y206693D02*
X187008Y207087D01*
Y211417D01*
X190945Y217421D02*
X190972Y217447D01*
X190945Y211417D02*
Y217421D01*
X190972Y217447D02*
X191339Y217080D01*
X268168Y206637D02*
X268200Y206668D01*
X240133Y202731D02*
X240182D01*
X154269Y206368D02*
X154300Y206400D01*
X264764Y215551D02*
X270079D01*
X261811Y212598D02*
X264764Y215551D01*
X269443Y222093D02*
X270079Y221457D01*
X256254Y222093D02*
X269443D01*
X253937Y224410D02*
X256254Y222093D01*
X261811Y224410D02*
X262205D01*
X269882Y232087D01*
X263583Y237992D02*
X270472D01*
X261811Y236221D02*
X263583Y237992D01*
X259842Y226378D02*
Y229134D01*
X257874Y224410D02*
X259842Y226378D01*
X257874Y231102D02*
X259842Y229134D01*
X253937Y236221D02*
X253937Y236221D01*
X248031Y226378D02*
X250000Y224410D01*
X248031Y226378D02*
Y236543D01*
X230315Y236221D02*
X235630Y241536D01*
X222441Y224410D02*
X224758Y226727D01*
Y238144D01*
X201575Y237008D02*
X205906D01*
X206693Y236221D01*
X201575Y233071D02*
X203982Y230664D01*
X215006D01*
X216535Y229134D01*
X200394Y222638D02*
X212795D01*
X214567Y224410D01*
X200394Y216732D02*
X206496D01*
X206693Y216535D01*
X199606Y182874D02*
X204921D01*
X206693Y181102D01*
X199606Y188779D02*
X214370D01*
X214567Y188976D01*
X254134Y175197D02*
Y180905D01*
X253937Y181102D02*
X254134Y180905D01*
X248228Y175197D02*
Y183267D01*
X253937Y188976D01*
X230315Y181102D02*
X230315Y181102D01*
X116142Y181102D02*
X116142Y181102D01*
X134055Y183267D02*
X139764Y188976D01*
X134055Y175197D02*
Y183267D01*
X139764Y181102D02*
X139961Y180905D01*
Y175197D02*
Y180905D01*
X100197Y188779D02*
X100394Y188976D01*
X85433Y188779D02*
X100197D01*
X90748Y182874D02*
X92520Y181102D01*
X85433Y182874D02*
X90748D01*
X92323Y216732D02*
X92520Y216535D01*
X86221Y216732D02*
X92323D01*
X98622Y222638D02*
X100394Y224410D01*
X86221Y222638D02*
X98622D01*
X100832Y230664D02*
X102362Y229134D01*
X89809Y230664D02*
X100832D01*
X91732Y237008D02*
X92520Y236221D01*
X87402Y237008D02*
X91732D01*
X133858Y226378D02*
X135827Y224410D01*
X139764Y236221D02*
X139764Y236221D01*
X143701Y231102D02*
X145669Y229134D01*
X143701Y224410D02*
X145669Y226378D01*
Y229134D01*
X147638Y236221D02*
X149409Y237992D01*
X156299D01*
X148032Y224410D02*
X155709Y232087D01*
X147638Y224410D02*
X148032D01*
X155709Y232087D02*
X156299D01*
X139764Y224410D02*
X142081Y222093D01*
X155270D01*
X155905Y221457D01*
X147638Y212598D02*
X150591Y215551D01*
X155905D01*
X81900Y284696D02*
Y292714D01*
X81445Y293169D02*
X81900Y292714D01*
Y280759D02*
X88590D01*
X95279D01*
Y273626D02*
Y280759D01*
Y273626D02*
X95618Y273287D01*
X88590Y284696D02*
Y288733D01*
X87744Y289579D02*
Y293169D01*
Y289579D02*
X88590Y288733D01*
X101969Y284696D02*
Y288740D01*
X100342Y290367D02*
Y305571D01*
Y290367D02*
X101969Y288740D01*
Y280759D02*
X108216Y274511D01*
Y273287D02*
Y274511D01*
X138500Y280866D02*
X145483D01*
X152466D01*
X151720Y273287D02*
Y275795D01*
X152466Y276541D02*
Y280866D01*
X151720Y275795D02*
X152466Y276541D01*
X138500Y284803D02*
Y292216D01*
X137547Y293169D02*
X138500Y292216D01*
X143846Y286440D02*
X145483Y284803D01*
X143846Y286440D02*
Y293169D01*
X159449Y284803D02*
Y288937D01*
X156445Y291941D02*
Y305571D01*
Y291941D02*
X159449Y288937D01*
Y280866D02*
X164319Y275996D01*
Y273287D02*
Y275996D01*
X192800Y284803D02*
Y292320D01*
X193649Y293169D01*
X200187Y284803D02*
Y292931D01*
X199948Y293169D02*
X200187Y292931D01*
X192800Y280866D02*
X200187D01*
X207574D01*
X212547Y287217D02*
Y305571D01*
Y287217D02*
X214961Y284803D01*
Y280866D02*
X217815D01*
X220421Y273287D02*
Y278260D01*
X217815Y280866D02*
X220421Y278260D01*
X250200Y284696D02*
Y292721D01*
X249752Y293169D02*
X250200Y292721D01*
X264658Y280759D02*
X264765Y280866D01*
Y274127D02*
Y280866D01*
X263925Y273287D02*
X264765Y274127D01*
X272047Y280866D02*
X276523Y276390D01*
Y273287D02*
Y276390D01*
X257482Y284803D02*
Y287360D01*
X256051Y288792D02*
Y293169D01*
Y288792D02*
X257482Y287360D01*
X268649Y292729D02*
Y305571D01*
Y292729D02*
X272047Y289331D01*
Y284803D02*
Y289331D01*
X102362Y227938D02*
Y229134D01*
Y227938D02*
X104331Y225969D01*
Y224410D02*
Y225969D01*
X218504Y224410D02*
Y226596D01*
X217833Y226727D02*
X218373D01*
X218504Y226596D01*
X216535Y228024D02*
X217833Y226727D01*
X216535Y228024D02*
Y229134D01*
X207574Y273536D02*
Y280866D01*
Y273536D02*
X207822Y273287D01*
X160100Y210300D02*
X168300Y202100D01*
X138100Y211400D02*
X139200Y210300D01*
X138100Y211400D02*
Y218809D01*
X139764Y220473D01*
X139200Y210300D02*
X160100D01*
X253000D02*
X271717D01*
X252100Y211200D02*
X253000Y210300D01*
X252100Y211200D02*
Y218635D01*
X253937Y220473D01*
D36*
X130709Y237402D02*
X131890Y236221D01*
X130709Y237402D02*
Y243701D01*
X134055Y247047D01*
X134646D01*
X115551Y236811D02*
X116142Y236221D01*
X115551Y236811D02*
Y241339D01*
X121260Y255709D02*
Y260039D01*
X255850Y202700D02*
X277600D01*
X286165D02*
X297441Y213976D01*
X277600Y202700D02*
X286165D01*
X66535Y213976D02*
X79038D01*
X50787D02*
X66535D01*
X190354Y186023D02*
X207299Y202969D01*
X179600Y175269D02*
X190354Y186023D01*
X79547Y213467D02*
X89451D01*
X79038Y213976D02*
X79547Y213467D01*
X98425Y214567D02*
X100394Y216535D01*
X90551Y214567D02*
X98425D01*
X102264Y212021D02*
Y214666D01*
X100394Y216535D02*
X102264Y214666D01*
X89451Y213467D02*
X90551Y214567D01*
X207299Y202969D02*
X211900D01*
X179600Y169800D02*
Y175269D01*
X249789Y208479D02*
X252067Y206201D01*
X225947Y209055D02*
X241943D01*
X253937Y200787D02*
Y200984D01*
X252067Y202854D02*
X253937Y200984D01*
X252067Y202854D02*
Y206201D01*
X242520Y208479D02*
X249789D01*
X241943Y209055D02*
X242520Y208479D01*
X215773Y208550D02*
X225442D01*
X212500Y211824D02*
X215773Y208550D01*
X225442D02*
X225947Y209055D01*
X211306Y210630D02*
X212500Y211824D01*
Y214469D01*
X214567Y216535D01*
X203937Y210630D02*
X211306D01*
X197231D02*
X200000D01*
X112205Y208268D02*
X112992Y209055D01*
X106017Y208268D02*
X112205D01*
X102264Y212021D02*
X106017Y208268D01*
X265446Y206440D02*
X268214D01*
X112992Y209055D02*
X127559D01*
X128740Y207874D01*
X137126D01*
X127953Y200787D02*
Y200882D01*
X126032Y202803D02*
X127953Y200882D01*
X124016Y204724D02*
X126032Y206740D01*
X122000Y198866D02*
X124016Y196850D01*
X122000Y202803D02*
X124016Y200787D01*
X240182Y202731D02*
X242126Y200787D01*
X236433Y198495D02*
X238077Y196850D01*
X236433Y202432D02*
X238077Y200787D01*
X238189Y204724D02*
X239833Y206368D01*
X295636Y242709D02*
Y247337D01*
X291253Y251720D02*
X295636Y247337D01*
X291253Y251720D02*
Y258782D01*
X278286Y251720D02*
X285347D01*
X279175Y238148D02*
X286236D01*
X279175Y232242D02*
X286236D01*
X295276D02*
X295636Y231882D01*
X286236Y232242D02*
X295276D01*
X234536Y152253D02*
X236719Y154435D01*
X242987D01*
X229889Y152253D02*
X234536D01*
X224100Y146347D02*
X229889D01*
X224100Y152253D02*
X229889D01*
X230887Y158996D02*
X236676D01*
X230887Y164902D02*
X230927Y164862D01*
X236716D01*
X242187D01*
X184942Y241399D02*
X190414D01*
X184942Y235494D02*
X190414D01*
X163871Y231194D02*
X169343D01*
X163871Y237099D02*
X169343D01*
X184355Y241987D02*
X184942Y241399D01*
X177139Y241987D02*
X184355D01*
X237468Y262504D02*
Y266834D01*
X75700Y169800D02*
Y193600D01*
X277600Y202700D02*
X277619Y202719D01*
X154269Y202432D02*
X154300Y202463D01*
X151500Y202432D02*
X154269D01*
X151500Y206368D02*
X154269D01*
X72300Y267909D02*
X76630D01*
X72441Y262134D02*
X76772D01*
X179067Y255922D02*
Y260252D01*
X184843Y256063D02*
Y260394D01*
X231693Y262362D02*
Y266693D01*
X100394Y204725D02*
Y204726D01*
X99483Y204725D02*
X100394D01*
X97727Y202969D02*
X99483Y204725D01*
X97727Y199032D02*
X99908Y196851D01*
X214081Y196850D02*
X214567D01*
X211900Y199031D02*
X214081Y196850D01*
X211900Y202969D02*
X213656Y204724D01*
X214567D01*
X244185Y226468D02*
X246063Y228346D01*
X244073Y226468D02*
X244185D01*
X130012D02*
X131890Y228346D01*
X129900Y226468D02*
X130012D01*
X230374Y220532D02*
X232873D01*
X230315Y220473D02*
X230374Y220532D01*
Y224468D02*
X232873D01*
X230315Y224410D02*
X230374Y224468D01*
X235773D02*
X238130D01*
X238189Y224410D01*
X235773Y220532D02*
X238130D01*
X238189Y220473D01*
X242126D02*
Y220584D01*
X244073Y222532D01*
X242126Y216535D02*
X244073Y214588D01*
Y214568D02*
Y214588D01*
X242126Y212579D02*
Y212598D01*
Y212579D02*
X244073Y210631D01*
X226378Y228164D02*
X228273Y226269D01*
X226378Y228164D02*
Y228346D01*
X226414Y220473D02*
X228273Y222332D01*
X226378Y220473D02*
X226414D01*
X224373Y214568D02*
X224411D01*
X226378Y216535D01*
X224373Y210631D02*
X224411D01*
X226378Y212598D01*
X230581Y185039D02*
X232473Y186932D01*
X230315Y185039D02*
X230581D01*
X232360Y190868D02*
X232473D01*
X230315Y192913D02*
X232360Y190868D01*
X228373Y190972D02*
Y191032D01*
X226378Y188976D02*
X228373Y190972D01*
X236173Y190868D02*
X238189Y192884D01*
Y192913D01*
X236173Y186932D02*
X238189Y188947D01*
Y188976D01*
X240173Y187031D02*
X240181D01*
X242126Y188976D01*
X240173Y190969D02*
X240181D01*
X242126Y192913D01*
X244073Y190931D02*
X246028Y188976D01*
X246063D01*
X242126Y196816D02*
X244073Y194869D01*
X242126Y196816D02*
Y196850D01*
X238133Y200731D02*
X238189Y200787D01*
X238133Y204668D02*
X238189Y204724D01*
X230359Y204768D02*
X232773D01*
X230315Y204724D02*
X230359Y204768D01*
Y200832D02*
X232773D01*
X230315Y200787D02*
X230359Y200832D01*
X226629Y200787D02*
X228273Y202432D01*
X226378Y200787D02*
X226629D01*
Y204724D02*
X228273Y206368D01*
X226378Y204724D02*
X226629D01*
X228373Y194968D02*
X228433D01*
X230315Y196850D01*
X214567Y204724D02*
Y204725D01*
X235773Y216469D02*
X238122D01*
X230382D02*
X232773D01*
X230382Y212531D02*
X232773D01*
X235773D02*
X238122D01*
X123949D02*
X124016Y212598D01*
X121600Y212531D02*
X123949D01*
X116142Y212598D02*
X116209Y212531D01*
X118600D01*
X116142Y216535D02*
X116209Y216469D01*
X118600D01*
X123949D02*
X124016Y216535D01*
X121600Y216469D02*
X123949D01*
X100394Y212475D02*
Y212598D01*
Y204724D02*
Y204725D01*
X114260Y194968D02*
X116142Y196850D01*
X114200Y194968D02*
X114260D01*
X112205Y204724D02*
X112456D01*
X114100Y206368D01*
X112205Y200787D02*
X112456D01*
X114100Y202432D01*
X116142Y200787D02*
X116186Y200832D01*
X118600D01*
X116142Y204724D02*
X116186Y204768D01*
X118600D01*
X123960Y204668D02*
X124016Y204724D01*
X123960Y200731D02*
X124016Y200787D01*
X127953Y196816D02*
Y196850D01*
Y196816D02*
X129900Y194869D01*
X131855Y188976D02*
X131890D01*
X129900Y190931D02*
X131855Y188976D01*
X126008Y190969D02*
X127953Y192913D01*
X126000Y190969D02*
X126008D01*
Y187031D02*
X127953Y188976D01*
X126000Y187031D02*
X126008D01*
X124016Y188947D02*
Y188976D01*
X122000Y186932D02*
X124016Y188947D01*
Y192884D02*
Y192913D01*
X122000Y190868D02*
X124016Y192884D01*
X112205Y188976D02*
X114200Y190972D01*
Y191032D01*
X116142Y192913D02*
X118186Y190868D01*
X118300D01*
X116142Y185039D02*
X116408D01*
X118300Y186932D01*
X110238Y210631D02*
X112205Y212598D01*
X110200Y210631D02*
X110238D01*
Y214568D02*
X112205Y216535D01*
X110200Y214568D02*
X110238D01*
X112205Y220473D02*
X112241D01*
X114100Y222332D01*
X112205Y228164D02*
Y228346D01*
Y228164D02*
X114100Y226269D01*
X127953Y212579D02*
X129900Y210631D01*
X127953Y212579D02*
Y212598D01*
X129900Y214568D02*
Y214588D01*
X127953Y216535D02*
X129900Y214588D01*
X127953Y220584D02*
X129900Y222532D01*
X127953Y220473D02*
Y220584D01*
X123957Y220532D02*
X124016Y220473D01*
X121600Y220532D02*
X123957D01*
Y224468D02*
X124016Y224410D01*
X121600Y224468D02*
X123957D01*
X116142Y224410D02*
X116201Y224468D01*
X118700D01*
X116142Y220473D02*
X116201Y220532D01*
X118700D01*
X92519Y208661D02*
X92520Y208662D01*
X261563Y258819D02*
X280460D01*
X205460D02*
X224358D01*
X149358D02*
X168255D01*
X93256D02*
X112153D01*
X253937Y200787D02*
X255850Y202700D01*
X25216Y218721D02*
X34137Y209800D01*
X46611D02*
X50787Y213976D01*
X34137Y209800D02*
X46611D01*
X137697Y202854D02*
X139764Y200787D01*
X137697Y202854D02*
Y207303D01*
X137126Y207874D02*
X137697Y207303D01*
X85168Y203068D02*
X97600D01*
X75700Y193600D02*
X85168Y203068D01*
X139764Y200787D02*
X139961D01*
X141831Y202657D01*
X151274D02*
X151500Y202432D01*
X141831Y202657D02*
X151274D01*
D38*
X133276Y159555D02*
Y165000D01*
D39*
X169343Y231194D02*
X169376Y231160D01*
X177139D01*
X121791Y163758D02*
X123033Y165000D01*
X127370D01*
X329429Y13529D02*
Y23150D01*
X331929D01*
X314429Y13529D02*
Y23150D01*
X316929D01*
X296900Y13500D02*
X296929Y13529D01*
Y23150D01*
X299429D01*
X281929Y13529D02*
Y23150D01*
X284429D01*
X245300Y13500D02*
Y23021D01*
X245429Y23150D01*
X247929D01*
X230429Y13571D02*
X230500Y13500D01*
X230429Y13571D02*
Y23150D01*
X232929D01*
X212929Y13571D02*
Y23150D01*
X215429D01*
X197929Y13571D02*
Y23150D01*
Y13571D02*
X198000Y13500D01*
X197929Y23150D02*
X200429D01*
D40*
X205429Y42829D02*
Y48650D01*
X200429Y42829D02*
Y48650D01*
X197929Y42829D02*
Y48650D01*
X192929Y42829D02*
Y48650D01*
X190429Y42829D02*
Y48650D01*
X299429D02*
Y53334D01*
X118929Y48650D02*
Y54471D01*
X19929Y17471D02*
Y23150D01*
X27429Y17429D02*
Y23150D01*
X34929Y17529D02*
Y23150D01*
X42429Y17429D02*
Y23150D01*
X49929Y17429D02*
Y23150D01*
X59929Y17471D02*
Y23150D01*
X67429Y17471D02*
Y23150D01*
X74929Y17429D02*
Y23150D01*
X82429Y17429D02*
Y23150D01*
X49929Y37071D02*
X51100Y35900D01*
X82429Y48650D02*
Y54471D01*
X74929Y48650D02*
Y54429D01*
X59929Y48650D02*
Y54471D01*
X42429Y48650D02*
Y54429D01*
X34929Y48650D02*
Y54429D01*
X27429Y48650D02*
Y54429D01*
X19900Y54500D02*
X19929Y54471D01*
Y48650D02*
Y54471D01*
X103929Y48650D02*
Y54429D01*
X111429Y48650D02*
Y54471D01*
X126429Y48650D02*
Y54429D01*
X136429Y48650D02*
Y54471D01*
X143929Y48650D02*
Y54471D01*
X151429Y48650D02*
Y54471D01*
X158929Y48650D02*
Y54471D01*
X166429Y48650D02*
Y54429D01*
X103929Y17471D02*
Y23150D01*
X111429Y17429D02*
Y23150D01*
X118929Y17429D02*
Y23150D01*
X126429Y17429D02*
Y23150D01*
X133929Y17471D02*
Y23150D01*
X143929Y17429D02*
Y23150D01*
X151429Y17429D02*
Y23150D01*
X158929Y17471D02*
Y23150D01*
X166429Y17429D02*
Y23150D01*
X187929Y48650D02*
Y54471D01*
X195429Y48650D02*
Y54471D01*
X202929Y48650D02*
Y54471D01*
X210429Y48650D02*
Y54471D01*
X217929Y48650D02*
Y54471D01*
X227929Y48650D02*
Y54471D01*
X235429Y48650D02*
Y54471D01*
X187929Y17429D02*
Y23150D01*
X202929Y17471D02*
Y23150D01*
X217929Y17429D02*
Y23150D01*
X225429Y42929D02*
Y48650D01*
X237929Y42929D02*
Y48650D01*
X190429Y23150D02*
Y28929D01*
X205429Y23150D02*
Y28929D01*
X136429Y23150D02*
Y28929D01*
X133929Y43029D02*
Y48650D01*
X220429Y42929D02*
Y48650D01*
X222929D02*
Y54471D01*
X240429Y48650D02*
Y54471D01*
X242929Y42929D02*
Y48650D01*
X52429Y23150D02*
Y28971D01*
X49929Y42900D02*
Y48650D01*
X192929Y17429D02*
Y23150D01*
X195429D02*
Y28871D01*
X207929Y17429D02*
Y23150D01*
X210429D02*
Y28871D01*
X220429Y23150D02*
Y28829D01*
X222929Y17429D02*
Y23150D01*
X225429D02*
Y28871D01*
X227929Y17571D02*
Y23150D01*
X235429Y17471D02*
Y23150D01*
X237929D02*
Y28871D01*
X240429Y17429D02*
Y23150D01*
X242929D02*
Y28829D01*
X250429Y17471D02*
Y23150D01*
X271929Y48650D02*
Y54471D01*
X274429Y42929D02*
Y48650D01*
X279429D02*
Y54429D01*
X286929Y48650D02*
Y54429D01*
X294429Y48650D02*
Y54429D01*
X301929Y48650D02*
Y54471D01*
X304429Y42929D02*
Y48650D01*
X306929D02*
Y54471D01*
X309429Y42929D02*
Y48650D01*
X311929D02*
Y54471D01*
X319429Y48650D02*
Y54471D01*
X321929Y42929D02*
Y48650D01*
X324429D02*
Y54471D01*
X326929Y42929D02*
Y48650D01*
X271929Y17429D02*
Y23150D01*
X274429D02*
Y28871D01*
X276929Y17429D02*
Y23150D01*
X279429D02*
Y28871D01*
X286929Y17429D02*
Y23150D01*
X289429D02*
Y28871D01*
X291929Y17529D02*
Y23150D01*
X294429D02*
Y28871D01*
X301929Y17471D02*
Y23150D01*
X304429D02*
Y28871D01*
X306929Y17429D02*
Y23150D01*
X309429D02*
Y28871D01*
X311929Y17429D02*
Y23150D01*
X319429Y17471D02*
Y23150D01*
X321929D02*
Y28871D01*
X324429Y17429D02*
Y23150D01*
X326929D02*
Y28871D01*
X334429Y17429D02*
Y23150D01*
X67429Y48650D02*
Y54429D01*
X52429Y48650D02*
Y54371D01*
X220429Y37229D02*
Y42929D01*
X219100Y35900D02*
X220429Y37229D01*
X133929Y37071D02*
Y43029D01*
Y37071D02*
X135100Y35900D01*
X165500D01*
X166429Y36829D01*
Y48650D01*
X49929Y37071D02*
Y42900D01*
X21200Y35900D02*
X51100D01*
X19929Y37171D02*
X21200Y35900D01*
X19929Y37171D02*
Y48650D01*
X51100Y35900D02*
X81300D01*
X82429Y37029D01*
Y48650D01*
X105300Y35900D02*
X135100D01*
X103929Y37271D02*
X105300Y35900D01*
X103929Y37271D02*
Y48650D01*
X189800Y35900D02*
X219100D01*
X188900D02*
X219100D01*
X187929Y36871D02*
X188900Y35900D01*
X187929Y36871D02*
Y48650D01*
X219100Y35900D02*
X248900D01*
X250429Y37429D01*
Y48650D01*
X303100Y35900D02*
X304429Y37229D01*
Y42929D01*
X273300Y35900D02*
X303100D01*
X271929Y37271D02*
X273300Y35900D01*
X271929Y37271D02*
Y48650D01*
X303100Y35900D02*
X333600D01*
X334429Y36729D01*
Y48650D01*
X230429Y42829D02*
Y48650D01*
X232929Y42829D02*
Y48650D01*
X245429D02*
Y54471D01*
X247929Y48650D02*
Y54471D01*
X316929Y42829D02*
Y48650D01*
X314429Y42829D02*
Y48650D01*
X329429D02*
Y54471D01*
X331929Y48650D02*
Y54471D01*
X334429Y48650D02*
X340250D01*
D42*
X261563Y258819D02*
D03*
X280460D02*
D03*
X224358D02*
D03*
X205460D02*
D03*
X168255D02*
D03*
X149358D02*
D03*
X93256D02*
D03*
X112153D02*
D03*
X65224Y315118D02*
D03*
X121326D02*
D03*
X233531D02*
D03*
X289633Y315118D02*
D03*
D43*
X65224Y404882D02*
D03*
Y365512D02*
D03*
X65224Y326142D02*
D03*
Y296614D02*
D03*
X65224Y276929D02*
D03*
X233531Y404882D02*
D03*
Y365512D02*
D03*
X233531Y326142D02*
D03*
Y296614D02*
D03*
X233531Y276929D02*
D03*
X121326Y385197D02*
D03*
X289633Y267087D02*
D03*
X289633Y306457D02*
D03*
X289633Y345827D02*
D03*
Y385197D02*
D03*
X177429Y267087D02*
D03*
Y306457D02*
D03*
Y345827D02*
D03*
Y385197D02*
D03*
X121326Y345827D02*
D03*
X121326Y306457D02*
D03*
X121326Y267087D02*
D03*
D44*
X24829Y347150D02*
D03*
X329514D02*
D03*
X24829Y87450D02*
D03*
X329514D02*
D03*
D45*
X130460Y283228D02*
D03*
X168255D02*
D03*
X74358D02*
D03*
X112153D02*
D03*
X242665D02*
D03*
X280460D02*
D03*
X186563D02*
D03*
X224358D02*
D03*
D46*
X38189Y403071D02*
D03*
Y393071D02*
D03*
X334646Y403071D02*
D03*
Y393071D02*
D03*
D47*
X126378Y252756D02*
D03*
X125984Y246063D02*
D03*
X129921Y247244D02*
D03*
X138976Y242126D02*
D03*
X194488Y241339D02*
D03*
X214567Y245669D02*
D03*
X236221Y250787D02*
D03*
X254331Y253150D02*
D03*
X253937Y246063D02*
D03*
X101575Y251181D02*
D03*
X144882D02*
D03*
X78740Y257874D02*
D03*
X133858Y259842D02*
D03*
X200787D02*
D03*
X191732Y258268D02*
D03*
X244094Y255906D02*
D03*
X275590D02*
D03*
X269685Y248031D02*
D03*
X263779Y242126D02*
D03*
X255906Y255906D02*
D03*
X265748D02*
D03*
X253937Y250000D02*
D03*
Y242126D02*
D03*
X244094Y250000D02*
D03*
X242126Y242126D02*
D03*
X226378Y250000D02*
D03*
X224410Y242126D02*
D03*
X214567Y251969D02*
D03*
X210630Y250000D02*
D03*
X215354Y241732D02*
D03*
X194882Y251969D02*
D03*
X200787Y246063D02*
D03*
X206693Y240158D02*
D03*
X161417Y253937D02*
D03*
X155512Y248031D02*
D03*
X149606Y242126D02*
D03*
X140551Y253937D02*
D03*
X139764Y248031D02*
D03*
X129921Y253937D02*
D03*
X121260Y260039D02*
D03*
X126772Y249606D02*
D03*
X127953Y242126D02*
D03*
X80709Y251969D02*
D03*
X86614Y246063D02*
D03*
X90551Y242126D02*
D03*
X112205Y253937D02*
D03*
Y248031D02*
D03*
X110236Y242126D02*
D03*
X98425Y253937D02*
D03*
X100394Y248031D02*
D03*
X101181Y242126D02*
D03*
X334429Y17429D02*
D03*
X69685Y209055D02*
D03*
X79921Y225984D02*
D03*
X41732Y414567D02*
D03*
X59055Y210236D02*
D03*
X65748Y207087D02*
D03*
X182677Y205512D02*
D03*
X42913Y382283D02*
D03*
X164567Y209055D02*
D03*
X194882Y215354D02*
D03*
X176772Y197244D02*
D03*
X180315Y198031D02*
D03*
X339370Y383071D02*
D03*
X343307Y414567D02*
D03*
X265748Y232284D02*
D03*
X252901Y305571D02*
D03*
X218504Y192913D02*
D03*
X250000Y200787D02*
D03*
Y196850D02*
D03*
Y192913D02*
D03*
X135827D02*
D03*
Y196850D02*
D03*
Y200787D02*
D03*
X305315Y369685D02*
D03*
X97193Y305571D02*
D03*
X94043Y293169D02*
D03*
X90893Y305571D02*
D03*
X265500D02*
D03*
X262350Y293169D02*
D03*
X259200Y305571D02*
D03*
X209397D02*
D03*
X206248Y293169D02*
D03*
X203098Y305571D02*
D03*
X153295D02*
D03*
X150145Y293169D02*
D03*
X146996Y305571D02*
D03*
X73228Y245106D02*
D03*
X73228Y251061D02*
D03*
X63779D02*
D03*
X76378Y253150D02*
D03*
X197200Y210598D02*
D03*
X222441Y200787D02*
D03*
X218504Y220473D02*
D03*
X222441D02*
D03*
X214567D02*
D03*
Y212598D02*
D03*
X206693Y208662D02*
D03*
X210630D02*
D03*
X186614Y206693D02*
D03*
X250000Y220473D02*
D03*
X253937Y216535D02*
D03*
X139764D02*
D03*
X135827Y220473D02*
D03*
X268246Y206472D02*
D03*
X76160Y217929D02*
D03*
X74743Y228724D02*
D03*
X74546Y233500D02*
D03*
X275654Y241900D02*
D03*
Y246000D02*
D03*
X261811Y196850D02*
D03*
X257874D02*
D03*
X200429Y42829D02*
D03*
X261811Y192913D02*
D03*
X76630Y267909D02*
D03*
X76772Y262134D02*
D03*
X179067Y260252D02*
D03*
X184842Y260394D02*
D03*
X231693Y262362D02*
D03*
X237468Y262504D02*
D03*
X306299Y322505D02*
D03*
X154300Y206400D02*
D03*
Y202463D02*
D03*
X96457Y208662D02*
D03*
X92520D02*
D03*
X87744Y293169D02*
D03*
X84594Y305571D02*
D03*
X81445Y293169D02*
D03*
X78295Y305571D02*
D03*
X100342D02*
D03*
X103492Y293169D02*
D03*
X106641Y305571D02*
D03*
X248177Y273287D02*
D03*
X257626D02*
D03*
X260775D02*
D03*
X263925D02*
D03*
X267074D02*
D03*
X276523D02*
D03*
X79870D02*
D03*
X89319D02*
D03*
X92468D02*
D03*
X95618D02*
D03*
X98767D02*
D03*
X108216D02*
D03*
X274948Y305571D02*
D03*
X271799Y293169D02*
D03*
X268649Y305571D02*
D03*
X246602D02*
D03*
X249752Y293169D02*
D03*
X256051D02*
D03*
X162744Y305571D02*
D03*
X159594Y293169D02*
D03*
X156445Y305571D02*
D03*
X134397D02*
D03*
X137547Y293169D02*
D03*
X140697Y305571D02*
D03*
X143846Y293169D02*
D03*
X199948D02*
D03*
X196799Y305571D02*
D03*
X193649Y293169D02*
D03*
X190500Y305571D02*
D03*
X212547D02*
D03*
X215697Y293169D02*
D03*
X218846Y305571D02*
D03*
X220421Y273287D02*
D03*
X210972D02*
D03*
X207822D02*
D03*
X204673D02*
D03*
X201523D02*
D03*
X192074D02*
D03*
X164319D02*
D03*
X154870D02*
D03*
X151720D02*
D03*
X148571D02*
D03*
X145421D02*
D03*
X135972D02*
D03*
X180206Y69096D02*
D03*
X203150Y88709D02*
D03*
X188868Y80939D02*
D03*
X210941Y75197D02*
D03*
X179921Y62894D02*
D03*
X175984D02*
D03*
X205429Y42829D02*
D03*
X197929Y42129D02*
D03*
X192929Y42829D02*
D03*
X190429Y41729D02*
D03*
X275590Y104331D02*
D03*
X31102Y220098D02*
D03*
Y261831D02*
D03*
X10610Y260846D02*
D03*
X15610D02*
D03*
X20610D02*
D03*
X25610D02*
D03*
X10610Y295059D02*
D03*
X15610D02*
D03*
X20610D02*
D03*
X20216Y252933D02*
D03*
X15216D02*
D03*
X10216D02*
D03*
X25216Y218721D02*
D03*
X15216D02*
D03*
X10216D02*
D03*
X35433Y196968D02*
D03*
Y186969D02*
D03*
Y176969D02*
D03*
Y166969D02*
D03*
Y156968D02*
D03*
Y146968D02*
D03*
Y136969D02*
D03*
X9843D02*
D03*
Y146968D02*
D03*
Y156968D02*
D03*
Y166969D02*
D03*
Y176969D02*
D03*
Y186969D02*
D03*
Y196968D02*
D03*
X297441Y213976D02*
D03*
X301575D02*
D03*
X50787D02*
D03*
X46654D02*
D03*
X325689Y118898D02*
D03*
X296949Y63779D02*
D03*
X311811Y143602D02*
D03*
X342174Y154144D02*
D03*
X334646Y171260D02*
D03*
X309300Y106900D02*
D03*
X309400Y100600D02*
D03*
X309900Y122200D02*
D03*
X329429Y13529D02*
D03*
X314429D02*
D03*
X296900Y13500D02*
D03*
X281929Y13529D02*
D03*
X245300Y13500D02*
D03*
X230500D02*
D03*
X212929Y13571D02*
D03*
X198000Y13500D02*
D03*
X118929Y54471D02*
D03*
X19929Y17471D02*
D03*
X27429Y17429D02*
D03*
X34929Y17529D02*
D03*
X42429Y17429D02*
D03*
X49929D02*
D03*
X59929Y17471D02*
D03*
X67429D02*
D03*
X74929Y17429D02*
D03*
X82429D02*
D03*
Y54471D02*
D03*
X42429Y54429D02*
D03*
X34929D02*
D03*
X27429D02*
D03*
X19900Y54500D02*
D03*
X25249Y29300D02*
D03*
X22109D02*
D03*
X29609Y33000D02*
D03*
X40249Y29300D02*
D03*
X37109D02*
D03*
X80249D02*
D03*
X77109D02*
D03*
X72749Y33000D02*
D03*
X69609D02*
D03*
X65249Y29300D02*
D03*
X57749Y33100D02*
D03*
X54609D02*
D03*
X106109Y29300D02*
D03*
X109249D02*
D03*
X113609Y33000D02*
D03*
X116749D02*
D03*
X121109Y29300D02*
D03*
X124249D02*
D03*
X128609Y33000D02*
D03*
X131749D02*
D03*
X32749D02*
D03*
X44609Y33100D02*
D03*
X47749D02*
D03*
X161109Y29200D02*
D03*
X164249D02*
D03*
X138609Y32900D02*
D03*
X141749D02*
D03*
X146109Y29200D02*
D03*
X149249D02*
D03*
X153609Y33000D02*
D03*
X156749D02*
D03*
X103929Y54429D02*
D03*
X111429Y54471D02*
D03*
X126429Y54429D02*
D03*
X136429Y54471D02*
D03*
X143929D02*
D03*
X158929D02*
D03*
X166429Y54429D02*
D03*
X103929Y17471D02*
D03*
X111429Y17429D02*
D03*
X118929D02*
D03*
X126429D02*
D03*
X133929Y17471D02*
D03*
X143929Y17429D02*
D03*
X151429D02*
D03*
X158929Y17471D02*
D03*
X166429Y17429D02*
D03*
X187929Y54471D02*
D03*
X195429D02*
D03*
X202929D02*
D03*
X210429D02*
D03*
X217929D02*
D03*
X227929D02*
D03*
X235429D02*
D03*
X187929Y17429D02*
D03*
X202929Y17471D02*
D03*
X217929Y17429D02*
D03*
X225429Y42929D02*
D03*
X237929D02*
D03*
X190429Y28929D02*
D03*
X205429D02*
D03*
X136429D02*
D03*
X133929Y43029D02*
D03*
X220429Y42929D02*
D03*
X222929Y54471D02*
D03*
X240429D02*
D03*
X242929Y42929D02*
D03*
X52429Y28971D02*
D03*
X49929Y42900D02*
D03*
X192929Y17429D02*
D03*
X195429Y28871D02*
D03*
X207929Y17429D02*
D03*
X210429Y28871D02*
D03*
X220429Y28829D02*
D03*
X222929Y17429D02*
D03*
X225429Y28871D02*
D03*
X227929Y17571D02*
D03*
X235429Y17471D02*
D03*
X237929Y28871D02*
D03*
X240429Y17429D02*
D03*
X242929Y28829D02*
D03*
X250429Y17471D02*
D03*
X271929Y54471D02*
D03*
X274429Y42929D02*
D03*
X279429Y54429D02*
D03*
X286929D02*
D03*
X294429D02*
D03*
X301929Y54471D02*
D03*
X304429Y42929D02*
D03*
X306929Y54471D02*
D03*
X309429Y42929D02*
D03*
X311929Y54471D02*
D03*
X319429D02*
D03*
X321929Y42929D02*
D03*
X324429Y54471D02*
D03*
X326929Y42929D02*
D03*
X271929Y17429D02*
D03*
X274429Y28871D02*
D03*
X276929Y17429D02*
D03*
X279429Y28871D02*
D03*
X286929Y17429D02*
D03*
X289429Y28871D02*
D03*
X291929Y17529D02*
D03*
X294429Y28871D02*
D03*
X301929Y17471D02*
D03*
X304429Y28871D02*
D03*
X306929Y17429D02*
D03*
X309429Y28871D02*
D03*
X311929Y17429D02*
D03*
X319429Y17471D02*
D03*
X321929Y28871D02*
D03*
X324429Y17429D02*
D03*
X326929Y28871D02*
D03*
X151429Y54471D02*
D03*
X74929Y54429D02*
D03*
X67429D02*
D03*
X59929Y54471D02*
D03*
X52429Y54371D02*
D03*
X116142Y204724D02*
D03*
X124016D02*
D03*
X116142Y212598D02*
D03*
X124016D02*
D03*
X116142Y200787D02*
D03*
X112205Y204724D02*
D03*
X124016Y200787D02*
D03*
X127953Y204724D02*
D03*
X112205Y212598D02*
D03*
X116142Y216535D02*
D03*
X127953Y212598D02*
D03*
X124016Y216535D02*
D03*
X112205Y200787D02*
D03*
X127953D02*
D03*
X112205Y216535D02*
D03*
X127953D02*
D03*
X116142Y196850D02*
D03*
X124016D02*
D03*
X108268Y204724D02*
D03*
Y212598D02*
D03*
X131890Y204724D02*
D03*
Y212598D02*
D03*
X116142Y220473D02*
D03*
X124016D02*
D03*
X112205Y196850D02*
D03*
X108268Y200787D02*
D03*
X127953Y196850D02*
D03*
X131890Y200787D02*
D03*
X108268Y216535D02*
D03*
X112205Y220473D02*
D03*
X131890Y216535D02*
D03*
X127953Y220473D02*
D03*
X108268Y196850D02*
D03*
X116142Y192913D02*
D03*
X124016D02*
D03*
X131890Y196850D02*
D03*
X104331Y204724D02*
D03*
Y212598D02*
D03*
X108268Y220473D02*
D03*
X135827Y204724D02*
D03*
Y212598D02*
D03*
X131890Y220473D02*
D03*
X116142Y224410D02*
D03*
X124016D02*
D03*
X112205Y192913D02*
D03*
X104331Y200787D02*
D03*
X127953Y192913D02*
D03*
X104331Y216535D02*
D03*
X135827D02*
D03*
X112205Y224410D02*
D03*
X127953D02*
D03*
X108268Y192913D02*
D03*
X104331Y196850D02*
D03*
X131890Y192913D02*
D03*
X104331Y220473D02*
D03*
X108268Y224410D02*
D03*
X131890D02*
D03*
X116142Y188976D02*
D03*
X124016D02*
D03*
X100394Y204724D02*
D03*
Y212598D02*
D03*
X139764Y204724D02*
D03*
Y212598D02*
D03*
X116142Y228346D02*
D03*
X124016D02*
D03*
X112205Y188976D02*
D03*
X100394Y200787D02*
D03*
X127953Y188976D02*
D03*
X139764Y200787D02*
D03*
X100394Y216535D02*
D03*
X112205Y228346D02*
D03*
X127953D02*
D03*
X104331Y192913D02*
D03*
Y224410D02*
D03*
X135827D02*
D03*
X108268Y188976D02*
D03*
X131890D02*
D03*
X100394Y196850D02*
D03*
Y220473D02*
D03*
X139764Y196850D02*
D03*
Y220473D02*
D03*
X108268Y228346D02*
D03*
X131890D02*
D03*
X116142Y185039D02*
D03*
X96457Y212598D02*
D03*
X143701Y204724D02*
D03*
Y212598D02*
D03*
X116142Y232284D02*
D03*
X124016D02*
D03*
X104331Y188976D02*
D03*
X100394Y192913D02*
D03*
X135827Y188976D02*
D03*
X139764Y192913D02*
D03*
X143701Y200787D02*
D03*
X96457Y216535D02*
D03*
X100394Y224410D02*
D03*
X139764D02*
D03*
X104331Y228346D02*
D03*
X135827D02*
D03*
X112205Y232284D02*
D03*
X143701Y216535D02*
D03*
X127953Y232284D02*
D03*
X96457Y220473D02*
D03*
X143701Y196850D02*
D03*
Y220473D02*
D03*
X108268Y232284D02*
D03*
X131890D02*
D03*
X100394Y188976D02*
D03*
X139764D02*
D03*
X100394Y228346D02*
D03*
X139764D02*
D03*
X116142Y181102D02*
D03*
X143701Y192913D02*
D03*
X92520Y212598D02*
D03*
X96457Y224410D02*
D03*
X147638Y204724D02*
D03*
Y212598D02*
D03*
X143701Y224410D02*
D03*
X116142Y236221D02*
D03*
X124016D02*
D03*
X92520Y216535D02*
D03*
X147638Y200787D02*
D03*
Y216535D02*
D03*
X112205Y236221D02*
D03*
X127953D02*
D03*
X147638Y196850D02*
D03*
X92520Y220473D02*
D03*
X108268Y236221D02*
D03*
X147638Y220473D02*
D03*
X131890Y236221D02*
D03*
X100394Y185039D02*
D03*
X139764D02*
D03*
X143701Y188976D02*
D03*
X96457Y228346D02*
D03*
X143701D02*
D03*
X139764Y232284D02*
D03*
X92520Y224410D02*
D03*
X147638Y192913D02*
D03*
Y224410D02*
D03*
X96457Y185039D02*
D03*
X143701D02*
D03*
X139764Y181102D02*
D03*
X147638Y188976D02*
D03*
X92520Y228346D02*
D03*
X147638D02*
D03*
X139764Y236221D02*
D03*
X96457Y181102D02*
D03*
X92520Y185039D02*
D03*
X143701Y181102D02*
D03*
X147638Y185039D02*
D03*
X92520Y232284D02*
D03*
X147638D02*
D03*
X92520Y181102D02*
D03*
X147638D02*
D03*
X92520Y236221D02*
D03*
X147638D02*
D03*
X238189Y204724D02*
D03*
X230315D02*
D03*
Y212598D02*
D03*
X238189D02*
D03*
Y200787D02*
D03*
X242126Y204724D02*
D03*
X230315Y200787D02*
D03*
X226378Y204724D02*
D03*
X242126Y212598D02*
D03*
X238189Y216535D02*
D03*
X226378Y212598D02*
D03*
X230315Y216535D02*
D03*
X242126Y200787D02*
D03*
X226378D02*
D03*
X242126Y216535D02*
D03*
X226378D02*
D03*
X230315Y196850D02*
D03*
X238189D02*
D03*
X246063Y204724D02*
D03*
Y212598D02*
D03*
X222441Y204724D02*
D03*
Y212598D02*
D03*
X230315Y220473D02*
D03*
X238189D02*
D03*
X242126Y196850D02*
D03*
X246063Y200787D02*
D03*
X226378Y196850D02*
D03*
X246063Y216535D02*
D03*
X242126Y220473D02*
D03*
X222441Y216535D02*
D03*
X226378Y220473D02*
D03*
X246063Y196850D02*
D03*
X230315Y192913D02*
D03*
X238189D02*
D03*
X222441Y196850D02*
D03*
X250000Y204724D02*
D03*
Y212598D02*
D03*
X246063Y220473D02*
D03*
X218504Y204724D02*
D03*
Y212598D02*
D03*
X230315Y224410D02*
D03*
X238189D02*
D03*
X242126Y192913D02*
D03*
X226378D02*
D03*
X218504Y200787D02*
D03*
Y216535D02*
D03*
X250000D02*
D03*
X226378Y224410D02*
D03*
X242126D02*
D03*
X246063Y192913D02*
D03*
X222441D02*
D03*
X218504Y196850D02*
D03*
X222441Y224410D02*
D03*
X246063D02*
D03*
X230315Y188976D02*
D03*
X238189D02*
D03*
X253937Y204724D02*
D03*
Y212598D02*
D03*
X214567Y204724D02*
D03*
X230315Y228346D02*
D03*
X238189D02*
D03*
X242126Y188976D02*
D03*
X253937Y200787D02*
D03*
X226378Y188976D02*
D03*
X214567Y200787D02*
D03*
Y216535D02*
D03*
X226378Y228346D02*
D03*
X242126D02*
D03*
X250000Y224410D02*
D03*
X218504D02*
D03*
X222441Y188976D02*
D03*
X246063D02*
D03*
X253937Y196850D02*
D03*
Y220473D02*
D03*
X214567Y196850D02*
D03*
X222441Y228346D02*
D03*
X246063D02*
D03*
X230315Y185039D02*
D03*
X257874Y204724D02*
D03*
Y212598D02*
D03*
X210630D02*
D03*
X230315Y232284D02*
D03*
X238189D02*
D03*
X250000Y188976D02*
D03*
X253937Y192913D02*
D03*
X257874Y200787D02*
D03*
X226378Y185039D02*
D03*
X218504Y188976D02*
D03*
X214567Y192913D02*
D03*
X257874Y216535D02*
D03*
X214567Y224410D02*
D03*
X253937D02*
D03*
X218504Y228346D02*
D03*
X250000D02*
D03*
X242126Y232284D02*
D03*
X210630Y216535D02*
D03*
X226378Y232284D02*
D03*
X222441Y185039D02*
D03*
X257874Y220473D02*
D03*
X210630D02*
D03*
X222441Y232284D02*
D03*
X246063D02*
D03*
X214567Y188976D02*
D03*
X253937D02*
D03*
Y228346D02*
D03*
X214567D02*
D03*
X257874Y192913D02*
D03*
X230315Y181102D02*
D03*
X218504Y185039D02*
D03*
X261811Y204724D02*
D03*
Y212598D02*
D03*
X257874Y224410D02*
D03*
X206693Y212598D02*
D03*
X210630Y224410D02*
D03*
X230315Y236221D02*
D03*
X238189D02*
D03*
X226378Y181102D02*
D03*
X261811Y200787D02*
D03*
Y216535D02*
D03*
X206693D02*
D03*
X226378Y236221D02*
D03*
X242126D02*
D03*
X222441Y181102D02*
D03*
X261811Y220473D02*
D03*
X246063Y236221D02*
D03*
X206693Y220473D02*
D03*
X222441Y236221D02*
D03*
X253937Y185039D02*
D03*
X257874Y188976D02*
D03*
X214567Y185039D02*
D03*
X257874Y228346D02*
D03*
X253937Y232284D02*
D03*
X210630Y228346D02*
D03*
X214567Y232284D02*
D03*
X218504Y181102D02*
D03*
X261811Y224410D02*
D03*
X206693D02*
D03*
X257874Y185039D02*
D03*
X210630D02*
D03*
X214567Y181102D02*
D03*
X253937D02*
D03*
X261811Y188976D02*
D03*
Y228346D02*
D03*
X253937Y236221D02*
D03*
X206693Y228346D02*
D03*
X214567Y236221D02*
D03*
X257874Y181102D02*
D03*
X261811Y185039D02*
D03*
X210630Y181102D02*
D03*
X206693Y185039D02*
D03*
X261811Y232284D02*
D03*
X206693D02*
D03*
X261811Y181102D02*
D03*
X206693D02*
D03*
X261811Y236221D02*
D03*
X206693D02*
D03*
X112205Y185039D02*
D03*
Y181102D02*
D03*
X108268Y185039D02*
D03*
Y181102D02*
D03*
X104331Y185039D02*
D03*
Y181102D02*
D03*
X100394D02*
D03*
X62109Y29300D02*
D03*
X100394Y232284D02*
D03*
Y236221D02*
D03*
X249213Y109449D02*
D03*
X248425Y104724D02*
D03*
X270472Y85433D02*
D03*
X279134Y96063D02*
D03*
X230429Y42829D02*
D03*
X232929D02*
D03*
X245429Y54471D02*
D03*
X247929D02*
D03*
X316929Y42829D02*
D03*
X314429D02*
D03*
X329429Y54471D02*
D03*
X331929D02*
D03*
X340250Y48650D02*
D03*
X75800Y169800D02*
D03*
X179500Y169900D02*
D03*
X251400Y169800D02*
D03*
X184900Y72800D02*
D03*
X183600Y77500D02*
D03*
X209400Y90100D02*
D03*
X213700Y95900D02*
D03*
D48*
X306299Y96457D02*
D03*
D49*
X324213Y161417D02*
D03*
X328937D02*
D03*
X333661D02*
D03*
X324213Y156693D02*
D03*
X328937D02*
D03*
X333661D02*
D03*
X324213Y151969D02*
D03*
X328937D02*
D03*
X333661D02*
D03*
X240945Y85827D02*
D03*
Y90551D02*
D03*
Y95276D02*
D03*
X245669Y85827D02*
D03*
Y90551D02*
D03*
Y95276D02*
D03*
X250394Y85827D02*
D03*
Y90551D02*
D03*
Y95276D02*
D03*
X291339Y114173D02*
D03*
X296063D02*
D03*
X300787D02*
D03*
X291339Y109449D02*
D03*
X296063D02*
D03*
X300787D02*
D03*
X291339Y104724D02*
D03*
X296063D02*
D03*
X300787D02*
D03*
D64*
X22429Y23150D02*
D03*
X24929D02*
D03*
X29929D02*
D03*
X32429D02*
D03*
X37429D02*
D03*
X39929D02*
D03*
X44929D02*
D03*
X47429D02*
D03*
X54929D02*
D03*
X57429D02*
D03*
X62429D02*
D03*
X64929D02*
D03*
X69929D02*
D03*
X72429D02*
D03*
X77429D02*
D03*
X79929D02*
D03*
X22429Y48650D02*
D03*
X24929D02*
D03*
X29929D02*
D03*
X32429D02*
D03*
X37429D02*
D03*
X39929D02*
D03*
X44929D02*
D03*
X47429D02*
D03*
X54929D02*
D03*
X57429D02*
D03*
X62429D02*
D03*
X64929D02*
D03*
X69929D02*
D03*
X72429D02*
D03*
X77429D02*
D03*
X79929D02*
D03*
X106429Y23150D02*
D03*
X108929D02*
D03*
X113929D02*
D03*
X116429D02*
D03*
X121429D02*
D03*
X123929D02*
D03*
X128929D02*
D03*
X131429D02*
D03*
X138929D02*
D03*
X141429D02*
D03*
X146429D02*
D03*
X148929D02*
D03*
X153929D02*
D03*
X156429D02*
D03*
X161429D02*
D03*
X163929D02*
D03*
X106429Y48650D02*
D03*
X108929D02*
D03*
X113929D02*
D03*
X116429D02*
D03*
X121429D02*
D03*
X123929D02*
D03*
X128929D02*
D03*
X131429D02*
D03*
X138929D02*
D03*
X141429D02*
D03*
X146429D02*
D03*
X148929D02*
D03*
X153929D02*
D03*
X156429D02*
D03*
X161429D02*
D03*
X163929D02*
D03*
X190429Y23150D02*
D03*
X192929D02*
D03*
X197929D02*
D03*
X200429D02*
D03*
X205429D02*
D03*
X207929D02*
D03*
X212929D02*
D03*
X215429D02*
D03*
X222929D02*
D03*
X225429D02*
D03*
X230429D02*
D03*
X232929D02*
D03*
X237929D02*
D03*
X245429D02*
D03*
X247929D02*
D03*
X190429Y48650D02*
D03*
X192929D02*
D03*
X197929D02*
D03*
X205429D02*
D03*
X212929D02*
D03*
X215429D02*
D03*
X222929D02*
D03*
X225429D02*
D03*
X230429D02*
D03*
X232929D02*
D03*
X237929D02*
D03*
X240429D02*
D03*
X245429D02*
D03*
X247929D02*
D03*
X274429Y23150D02*
D03*
X276929D02*
D03*
X281929D02*
D03*
X284429D02*
D03*
X289429D02*
D03*
X291929D02*
D03*
X296929D02*
D03*
X299429D02*
D03*
X306929D02*
D03*
X309429D02*
D03*
X314429D02*
D03*
X316929D02*
D03*
X321929D02*
D03*
X324429D02*
D03*
X329429D02*
D03*
X331929D02*
D03*
X274429Y48650D02*
D03*
X276929D02*
D03*
X281929D02*
D03*
X284429D02*
D03*
X289429D02*
D03*
X291929D02*
D03*
X296929D02*
D03*
X299429D02*
D03*
X306929D02*
D03*
X309429D02*
D03*
X314429D02*
D03*
X316929D02*
D03*
X321929D02*
D03*
X324429D02*
D03*
X329429D02*
D03*
X331929D02*
D03*
X82429D02*
D03*
X74929D02*
D03*
X67429D02*
D03*
X59929D02*
D03*
X52429D02*
D03*
X49929D02*
D03*
X42429D02*
D03*
X34929D02*
D03*
X27429D02*
D03*
X19929D02*
D03*
X103929D02*
D03*
X111429D02*
D03*
X118929D02*
D03*
X126429D02*
D03*
X133929D02*
D03*
X136429D02*
D03*
X143929D02*
D03*
X151429D02*
D03*
X158929D02*
D03*
X166429D02*
D03*
Y23150D02*
D03*
X158929D02*
D03*
X151429D02*
D03*
X143929D02*
D03*
X136429D02*
D03*
X133929D02*
D03*
X126429D02*
D03*
X118929D02*
D03*
X111429D02*
D03*
X103929D02*
D03*
X19929D02*
D03*
X27429D02*
D03*
X34929D02*
D03*
X42429D02*
D03*
X49929D02*
D03*
X52429D02*
D03*
X59929D02*
D03*
X67429D02*
D03*
X74929D02*
D03*
X82429D02*
D03*
X187929Y48650D02*
D03*
X195429D02*
D03*
X202929D02*
D03*
X210429D02*
D03*
X217929D02*
D03*
X220429D02*
D03*
X227929D02*
D03*
X235429D02*
D03*
X242929D02*
D03*
X250429D02*
D03*
X187929Y23150D02*
D03*
X195429D02*
D03*
X202929D02*
D03*
X210429D02*
D03*
X217929D02*
D03*
X220429D02*
D03*
X227929D02*
D03*
X235429D02*
D03*
X242929D02*
D03*
X250429D02*
D03*
X334429D02*
D03*
X326929D02*
D03*
X319429D02*
D03*
X311929D02*
D03*
X304429D02*
D03*
X301929D02*
D03*
X294429D02*
D03*
X286929D02*
D03*
X279429D02*
D03*
X271929D02*
D03*
X334429Y48650D02*
D03*
X326929D02*
D03*
X319429D02*
D03*
X311929D02*
D03*
X304429D02*
D03*
X301929D02*
D03*
X294429D02*
D03*
X286929D02*
D03*
X279429D02*
D03*
X271929D02*
D03*
X240429Y23150D02*
D03*
X207929Y48650D02*
D03*
X200429D02*
D03*
D65*
X303100Y35900D02*
D03*
X219100D02*
D03*
X135100D02*
D03*
X51100D02*
D03*
M02*
