%FSLAX25Y25*%
%MOIN*%
G70*
G01*
G75*
G04 Layer_Color=8421504*
%ADD10R,0.06693X0.04528*%
%ADD11R,0.07087X0.07087*%
G04:AMPARAMS|DCode=12|XSize=19.69mil|YSize=23.62mil|CornerRadius=4.92mil|HoleSize=0mil|Usage=FLASHONLY|Rotation=90.000|XOffset=0mil|YOffset=0mil|HoleType=Round|Shape=RoundedRectangle|*
%AMROUNDEDRECTD12*
21,1,0.01969,0.01378,0,0,90.0*
21,1,0.00984,0.02362,0,0,90.0*
1,1,0.00984,0.00689,0.00492*
1,1,0.00984,0.00689,-0.00492*
1,1,0.00984,-0.00689,-0.00492*
1,1,0.00984,-0.00689,0.00492*
%
%ADD12ROUNDEDRECTD12*%
%ADD13R,0.04528X0.06693*%
%ADD14C,0.07874*%
%ADD15R,0.02362X0.02362*%
%ADD16R,0.08661X0.05709*%
%ADD17C,0.03937*%
%ADD18C,0.01772*%
%ADD19R,0.47441X0.07874*%
%ADD20R,0.02362X0.02362*%
%ADD21R,0.02362X0.07087*%
G04:AMPARAMS|DCode=22|XSize=19.69mil|YSize=23.62mil|CornerRadius=4.92mil|HoleSize=0mil|Usage=FLASHONLY|Rotation=180.000|XOffset=0mil|YOffset=0mil|HoleType=Round|Shape=RoundedRectangle|*
%AMROUNDEDRECTD22*
21,1,0.01969,0.01378,0,0,180.0*
21,1,0.00984,0.02362,0,0,180.0*
1,1,0.00984,-0.00492,0.00689*
1,1,0.00984,0.00492,0.00689*
1,1,0.00984,0.00492,-0.00689*
1,1,0.00984,-0.00492,-0.00689*
%
%ADD22ROUNDEDRECTD22*%
%ADD23R,0.03740X0.01378*%
%ADD24R,0.01378X0.03740*%
%ADD25R,0.12992X0.12992*%
%ADD26R,0.04528X0.07087*%
%ADD27R,0.01969X0.07874*%
%ADD28R,0.14488X0.05000*%
%ADD29R,0.05512X0.03937*%
%ADD30R,0.03937X0.05512*%
%ADD31R,0.05709X0.08661*%
%ADD32R,0.12992X0.12992*%
%ADD33R,0.04331X0.10236*%
%ADD34R,0.10236X0.04331*%
%ADD35R,0.05512X0.04331*%
%ADD36R,0.04331X0.05512*%
%ADD37C,0.00500*%
%ADD38C,0.01000*%
%ADD39C,0.00800*%
%ADD40C,0.01969*%
%ADD41C,0.01500*%
%ADD42C,0.01200*%
%ADD43C,0.00600*%
%ADD44C,0.02000*%
%ADD45C,0.03740*%
%ADD46R,0.07874X0.07874*%
%ADD47C,0.31496*%
%ADD48C,0.06496*%
%ADD49C,0.05800*%
%ADD50C,0.01940*%
%ADD51C,0.05000*%
%ADD52C,0.02598*%
%ADD53C,0.04000*%
%ADD54C,0.05740*%
%ADD55C,0.06134*%
%ADD56C,0.17000*%
%ADD57C,0.06600*%
%ADD58C,0.08102*%
%ADD59C,0.08000*%
%ADD60C,0.03969*%
%ADD61C,0.03000*%
%ADD62C,0.04800*%
%ADD63C,0.00394*%
%ADD64C,0.00400*%
%ADD65C,0.03299*%
%ADD66C,0.05000*%
%ADD67R,0.01600X0.08500*%
%ADD68R,0.71000X0.02000*%
%ADD69C,0.00984*%
%ADD70C,0.02362*%
%ADD71C,0.00787*%
%ADD72R,0.09095X0.09095*%
%ADD73R,0.09095X0.09095*%
D10*
X121800Y158313D02*
D03*
Y147487D02*
D03*
X177200Y212387D02*
D03*
Y223213D02*
D03*
D11*
X306594Y226220D02*
D03*
Y236221D02*
D03*
Y246220D02*
D03*
X291831D02*
D03*
Y236221D02*
D03*
Y226220D02*
D03*
X41043Y246220D02*
D03*
Y236221D02*
D03*
Y226220D02*
D03*
X55807D02*
D03*
Y236221D02*
D03*
Y246220D02*
D03*
D12*
X278532Y241900D02*
D03*
X282469D02*
D03*
X278532Y246000D02*
D03*
X282469D02*
D03*
X71668Y233500D02*
D03*
X67731D02*
D03*
X71668Y228800D02*
D03*
X67731D02*
D03*
X297638Y217323D02*
D03*
X301575D02*
D03*
X50787Y216535D02*
D03*
X46850D02*
D03*
X315748Y146457D02*
D03*
X311811D02*
D03*
X242913Y106693D02*
D03*
X246850D02*
D03*
X262992Y85433D02*
D03*
X266929D02*
D03*
X286614Y96063D02*
D03*
X282677D02*
D03*
D13*
X281187Y207500D02*
D03*
X292013D02*
D03*
D14*
X21654Y118110D02*
D03*
X246063Y66929D02*
D03*
X344488Y374016D02*
D03*
X45276Y364961D02*
D03*
D15*
X306300Y325832D02*
D03*
Y329768D02*
D03*
X206299Y67716D02*
D03*
Y63779D02*
D03*
X210236Y67716D02*
D03*
Y63779D02*
D03*
X195669Y67716D02*
D03*
Y63779D02*
D03*
X200000Y67716D02*
D03*
Y63779D02*
D03*
X31102Y227165D02*
D03*
Y223228D02*
D03*
Y268898D02*
D03*
Y264961D02*
D03*
X300000Y63779D02*
D03*
Y67716D02*
D03*
X272047Y104331D02*
D03*
Y100394D02*
D03*
X237795Y105118D02*
D03*
Y109055D02*
D03*
X234252Y109055D02*
D03*
Y105118D02*
D03*
D16*
X326575Y185433D02*
D03*
Y175197D02*
D03*
X293307Y136614D02*
D03*
Y126378D02*
D03*
D18*
X208661Y183071D02*
D03*
Y187008D02*
D03*
Y190945D02*
D03*
Y194882D02*
D03*
Y198819D02*
D03*
Y202756D02*
D03*
Y206693D02*
D03*
Y210630D02*
D03*
Y214567D02*
D03*
Y218504D02*
D03*
Y222441D02*
D03*
Y226378D02*
D03*
Y230315D02*
D03*
Y234252D02*
D03*
X212598Y183071D02*
D03*
Y187008D02*
D03*
Y190945D02*
D03*
Y194882D02*
D03*
Y198819D02*
D03*
Y202756D02*
D03*
Y206693D02*
D03*
Y210630D02*
D03*
Y214567D02*
D03*
Y218504D02*
D03*
Y222441D02*
D03*
Y226378D02*
D03*
Y230315D02*
D03*
Y234252D02*
D03*
X216535Y183071D02*
D03*
Y187008D02*
D03*
Y190945D02*
D03*
Y194882D02*
D03*
Y198819D02*
D03*
Y202756D02*
D03*
Y206693D02*
D03*
Y210630D02*
D03*
Y214567D02*
D03*
Y218504D02*
D03*
Y222441D02*
D03*
Y226378D02*
D03*
Y230315D02*
D03*
Y234252D02*
D03*
X220472Y183071D02*
D03*
Y187008D02*
D03*
Y190945D02*
D03*
Y194882D02*
D03*
Y198819D02*
D03*
Y202756D02*
D03*
Y206693D02*
D03*
Y210630D02*
D03*
Y214567D02*
D03*
Y218504D02*
D03*
Y222441D02*
D03*
Y226378D02*
D03*
Y230315D02*
D03*
Y234252D02*
D03*
X224410Y183071D02*
D03*
Y187008D02*
D03*
Y190945D02*
D03*
Y194882D02*
D03*
Y198819D02*
D03*
Y202756D02*
D03*
Y206693D02*
D03*
Y210630D02*
D03*
Y214567D02*
D03*
Y218504D02*
D03*
Y222441D02*
D03*
Y226378D02*
D03*
Y230315D02*
D03*
Y234252D02*
D03*
X228346Y183071D02*
D03*
Y187008D02*
D03*
Y190945D02*
D03*
Y194882D02*
D03*
Y198819D02*
D03*
Y202756D02*
D03*
Y206693D02*
D03*
Y210630D02*
D03*
Y214567D02*
D03*
Y218504D02*
D03*
Y222441D02*
D03*
Y226378D02*
D03*
Y230315D02*
D03*
Y234252D02*
D03*
X232283Y183071D02*
D03*
Y187008D02*
D03*
Y190945D02*
D03*
Y194882D02*
D03*
Y198819D02*
D03*
Y202756D02*
D03*
Y206693D02*
D03*
Y210630D02*
D03*
Y214567D02*
D03*
Y218504D02*
D03*
Y222441D02*
D03*
Y226378D02*
D03*
Y230315D02*
D03*
Y234252D02*
D03*
X236221Y183071D02*
D03*
Y187008D02*
D03*
Y190945D02*
D03*
Y194882D02*
D03*
Y198819D02*
D03*
Y202756D02*
D03*
Y206693D02*
D03*
Y210630D02*
D03*
Y214567D02*
D03*
Y218504D02*
D03*
Y222441D02*
D03*
Y226378D02*
D03*
Y230315D02*
D03*
Y234252D02*
D03*
X240158Y183071D02*
D03*
Y187008D02*
D03*
Y190945D02*
D03*
Y194882D02*
D03*
Y198819D02*
D03*
Y202756D02*
D03*
Y206693D02*
D03*
Y210630D02*
D03*
Y214567D02*
D03*
Y218504D02*
D03*
Y222441D02*
D03*
Y226378D02*
D03*
Y230315D02*
D03*
Y234252D02*
D03*
X244094Y183071D02*
D03*
Y187008D02*
D03*
Y190945D02*
D03*
Y194882D02*
D03*
Y198819D02*
D03*
Y202756D02*
D03*
Y206693D02*
D03*
Y210630D02*
D03*
Y214567D02*
D03*
Y218504D02*
D03*
Y222441D02*
D03*
Y226378D02*
D03*
Y230315D02*
D03*
Y234252D02*
D03*
X248031Y183071D02*
D03*
Y187008D02*
D03*
Y190945D02*
D03*
Y194882D02*
D03*
Y198819D02*
D03*
Y202756D02*
D03*
Y206693D02*
D03*
Y210630D02*
D03*
Y214567D02*
D03*
Y218504D02*
D03*
Y222441D02*
D03*
Y226378D02*
D03*
Y230315D02*
D03*
Y234252D02*
D03*
X251969Y183071D02*
D03*
Y187008D02*
D03*
Y190945D02*
D03*
Y194882D02*
D03*
Y198819D02*
D03*
Y202756D02*
D03*
Y206693D02*
D03*
Y210630D02*
D03*
Y214567D02*
D03*
Y218504D02*
D03*
Y222441D02*
D03*
Y226378D02*
D03*
Y230315D02*
D03*
Y234252D02*
D03*
X255906Y183071D02*
D03*
Y187008D02*
D03*
Y190945D02*
D03*
Y194882D02*
D03*
Y198819D02*
D03*
Y202756D02*
D03*
Y206693D02*
D03*
Y210630D02*
D03*
Y214567D02*
D03*
Y218504D02*
D03*
Y222441D02*
D03*
Y226378D02*
D03*
Y230315D02*
D03*
Y234252D02*
D03*
X259842Y183071D02*
D03*
Y187008D02*
D03*
Y190945D02*
D03*
Y194882D02*
D03*
Y198819D02*
D03*
Y202756D02*
D03*
Y206693D02*
D03*
Y210630D02*
D03*
Y214567D02*
D03*
Y218504D02*
D03*
Y222441D02*
D03*
Y226378D02*
D03*
Y230315D02*
D03*
Y234252D02*
D03*
X94488Y183071D02*
D03*
Y187008D02*
D03*
Y190945D02*
D03*
Y194882D02*
D03*
Y198819D02*
D03*
Y202756D02*
D03*
Y206693D02*
D03*
Y210630D02*
D03*
Y214567D02*
D03*
Y218504D02*
D03*
Y222441D02*
D03*
Y226378D02*
D03*
Y230315D02*
D03*
Y234252D02*
D03*
X98425Y183071D02*
D03*
Y187008D02*
D03*
Y190945D02*
D03*
Y194882D02*
D03*
Y198819D02*
D03*
Y202756D02*
D03*
Y206693D02*
D03*
Y210630D02*
D03*
Y214567D02*
D03*
Y218504D02*
D03*
Y222441D02*
D03*
Y226378D02*
D03*
Y230315D02*
D03*
Y234252D02*
D03*
X102362Y183071D02*
D03*
Y187008D02*
D03*
Y190945D02*
D03*
Y194882D02*
D03*
Y198819D02*
D03*
Y202756D02*
D03*
Y206693D02*
D03*
Y210630D02*
D03*
Y214567D02*
D03*
Y218504D02*
D03*
Y222441D02*
D03*
Y226378D02*
D03*
Y230315D02*
D03*
Y234252D02*
D03*
X106299Y183071D02*
D03*
Y187008D02*
D03*
Y190945D02*
D03*
Y194882D02*
D03*
Y198819D02*
D03*
Y202756D02*
D03*
Y206693D02*
D03*
Y210630D02*
D03*
Y214567D02*
D03*
Y218504D02*
D03*
Y222441D02*
D03*
Y226378D02*
D03*
Y230315D02*
D03*
Y234252D02*
D03*
X110236Y183071D02*
D03*
Y187008D02*
D03*
Y190945D02*
D03*
Y194882D02*
D03*
Y198819D02*
D03*
Y202756D02*
D03*
Y206693D02*
D03*
Y210630D02*
D03*
Y214567D02*
D03*
Y218504D02*
D03*
Y222441D02*
D03*
Y226378D02*
D03*
Y230315D02*
D03*
Y234252D02*
D03*
X114173Y183071D02*
D03*
Y187008D02*
D03*
Y190945D02*
D03*
Y194882D02*
D03*
Y198819D02*
D03*
Y202756D02*
D03*
Y206693D02*
D03*
Y210630D02*
D03*
Y214567D02*
D03*
Y218504D02*
D03*
Y222441D02*
D03*
Y226378D02*
D03*
Y230315D02*
D03*
Y234252D02*
D03*
X118110Y183071D02*
D03*
Y187008D02*
D03*
Y190945D02*
D03*
Y194882D02*
D03*
Y198819D02*
D03*
Y202756D02*
D03*
Y206693D02*
D03*
Y210630D02*
D03*
Y214567D02*
D03*
Y218504D02*
D03*
Y222441D02*
D03*
Y226378D02*
D03*
Y230315D02*
D03*
Y234252D02*
D03*
X122047Y183071D02*
D03*
Y187008D02*
D03*
Y190945D02*
D03*
Y194882D02*
D03*
Y198819D02*
D03*
Y202756D02*
D03*
Y206693D02*
D03*
Y210630D02*
D03*
Y214567D02*
D03*
Y218504D02*
D03*
Y222441D02*
D03*
Y226378D02*
D03*
Y230315D02*
D03*
Y234252D02*
D03*
X125984Y183071D02*
D03*
Y187008D02*
D03*
Y190945D02*
D03*
Y194882D02*
D03*
Y198819D02*
D03*
Y202756D02*
D03*
Y206693D02*
D03*
Y210630D02*
D03*
Y214567D02*
D03*
Y218504D02*
D03*
Y222441D02*
D03*
Y226378D02*
D03*
Y230315D02*
D03*
Y234252D02*
D03*
X129921Y183071D02*
D03*
Y187008D02*
D03*
Y190945D02*
D03*
Y194882D02*
D03*
Y198819D02*
D03*
Y202756D02*
D03*
Y206693D02*
D03*
Y210630D02*
D03*
Y214567D02*
D03*
Y218504D02*
D03*
Y222441D02*
D03*
Y226378D02*
D03*
Y230315D02*
D03*
Y234252D02*
D03*
X133858Y183071D02*
D03*
Y187008D02*
D03*
Y190945D02*
D03*
Y194882D02*
D03*
Y198819D02*
D03*
Y202756D02*
D03*
Y206693D02*
D03*
Y210630D02*
D03*
Y214567D02*
D03*
Y218504D02*
D03*
Y222441D02*
D03*
Y226378D02*
D03*
Y230315D02*
D03*
Y234252D02*
D03*
X137795Y183071D02*
D03*
Y187008D02*
D03*
Y190945D02*
D03*
Y194882D02*
D03*
Y198819D02*
D03*
Y202756D02*
D03*
Y206693D02*
D03*
Y210630D02*
D03*
Y214567D02*
D03*
Y218504D02*
D03*
Y222441D02*
D03*
Y226378D02*
D03*
Y230315D02*
D03*
Y234252D02*
D03*
X141732Y183071D02*
D03*
Y187008D02*
D03*
Y190945D02*
D03*
Y194882D02*
D03*
Y198819D02*
D03*
Y202756D02*
D03*
Y206693D02*
D03*
Y210630D02*
D03*
Y214567D02*
D03*
Y218504D02*
D03*
Y222441D02*
D03*
Y226378D02*
D03*
Y230315D02*
D03*
Y234252D02*
D03*
X145669Y183071D02*
D03*
Y187008D02*
D03*
Y190945D02*
D03*
Y194882D02*
D03*
Y198819D02*
D03*
Y202756D02*
D03*
Y206693D02*
D03*
Y210630D02*
D03*
Y214567D02*
D03*
Y218504D02*
D03*
Y222441D02*
D03*
Y226378D02*
D03*
Y230315D02*
D03*
Y234252D02*
D03*
D19*
X261602Y333622D02*
D03*
X205500D02*
D03*
X149397D02*
D03*
X93275D02*
D03*
D20*
X181496Y29921D02*
D03*
X185433D02*
D03*
X179921Y59842D02*
D03*
X175984D02*
D03*
X328740Y118898D02*
D03*
X332677D02*
D03*
X338189Y178740D02*
D03*
X342126D02*
D03*
X342126Y174803D02*
D03*
X338189D02*
D03*
X309842Y129528D02*
D03*
X305906D02*
D03*
X305906Y125591D02*
D03*
X309842D02*
D03*
X12992Y381653D02*
D03*
X9055D02*
D03*
X12992Y411575D02*
D03*
X9055D02*
D03*
X309055D02*
D03*
X305118D02*
D03*
X309055Y383228D02*
D03*
X305118D02*
D03*
D21*
X10610Y267717D02*
D03*
X15610D02*
D03*
X20610D02*
D03*
X25610D02*
D03*
X10610Y288189D02*
D03*
X15610D02*
D03*
X20610D02*
D03*
X25610D02*
D03*
X10216Y225590D02*
D03*
X15216D02*
D03*
X20216D02*
D03*
X25216D02*
D03*
X10216Y246063D02*
D03*
X15216D02*
D03*
X20216D02*
D03*
X25216D02*
D03*
D22*
X345669Y161024D02*
D03*
Y157087D02*
D03*
X310236Y114567D02*
D03*
Y118504D02*
D03*
D23*
X319390Y161811D02*
D03*
Y159252D02*
D03*
Y156693D02*
D03*
Y154134D02*
D03*
Y151575D02*
D03*
X338484D02*
D03*
Y154134D02*
D03*
Y156693D02*
D03*
Y159252D02*
D03*
Y161811D02*
D03*
X255217Y85433D02*
D03*
Y87992D02*
D03*
Y90551D02*
D03*
Y93110D02*
D03*
Y95669D02*
D03*
X236122D02*
D03*
Y93110D02*
D03*
Y90551D02*
D03*
Y87992D02*
D03*
Y85433D02*
D03*
X286516Y114567D02*
D03*
Y112008D02*
D03*
Y109449D02*
D03*
Y106890D02*
D03*
Y104331D02*
D03*
X305610D02*
D03*
Y106890D02*
D03*
Y109449D02*
D03*
Y112008D02*
D03*
Y114567D02*
D03*
D24*
X323819Y147146D02*
D03*
X326378D02*
D03*
X328937D02*
D03*
X331496D02*
D03*
X334055D02*
D03*
Y166240D02*
D03*
X331496D02*
D03*
X328937D02*
D03*
X326378D02*
D03*
X323819D02*
D03*
X240551Y81004D02*
D03*
X243110D02*
D03*
X245669D02*
D03*
X248228D02*
D03*
X250787D02*
D03*
Y100098D02*
D03*
X248228D02*
D03*
X245669D02*
D03*
X243110D02*
D03*
X240551D02*
D03*
X290945Y99902D02*
D03*
X293504D02*
D03*
X296063D02*
D03*
X298622D02*
D03*
X301181D02*
D03*
Y118996D02*
D03*
X298622D02*
D03*
X296063D02*
D03*
X293504D02*
D03*
X290945D02*
D03*
D26*
X23622Y382441D02*
D03*
X35433D02*
D03*
X23622Y414724D02*
D03*
X35433D02*
D03*
X320079Y382835D02*
D03*
X331890D02*
D03*
X320079Y414724D02*
D03*
X331890D02*
D03*
D27*
X164319Y267087D02*
D03*
X135972D02*
D03*
X139122D02*
D03*
X142271D02*
D03*
X145421D02*
D03*
X148571D02*
D03*
X151720D02*
D03*
X154870D02*
D03*
X158019D02*
D03*
X161169D02*
D03*
X159594Y299370D02*
D03*
X156445D02*
D03*
X153295D02*
D03*
X150145D02*
D03*
X146996D02*
D03*
X143846D02*
D03*
X140697D02*
D03*
X137547D02*
D03*
X134397D02*
D03*
X162744Y299370D02*
D03*
X108216Y267087D02*
D03*
X79870D02*
D03*
X83019D02*
D03*
X86169D02*
D03*
X89319D02*
D03*
X92468D02*
D03*
X95618D02*
D03*
X98767D02*
D03*
X101917D02*
D03*
X105067D02*
D03*
X103492Y299370D02*
D03*
X100342D02*
D03*
X97193D02*
D03*
X94043D02*
D03*
X90893D02*
D03*
X87744D02*
D03*
X84594D02*
D03*
X81445D02*
D03*
X78295D02*
D03*
X106641Y299370D02*
D03*
X276523Y267087D02*
D03*
X248177D02*
D03*
X251326D02*
D03*
X254476D02*
D03*
X257626D02*
D03*
X260775D02*
D03*
X263925D02*
D03*
X267074D02*
D03*
X270224D02*
D03*
X273374D02*
D03*
X271799Y299370D02*
D03*
X268649D02*
D03*
X265500D02*
D03*
X262350D02*
D03*
X259200D02*
D03*
X256051D02*
D03*
X252901D02*
D03*
X249752D02*
D03*
X246602D02*
D03*
X274948Y299370D02*
D03*
X220421Y267087D02*
D03*
X192074D02*
D03*
X195224D02*
D03*
X198374D02*
D03*
X201523D02*
D03*
X204673D02*
D03*
X207822D02*
D03*
X210972D02*
D03*
X214122D02*
D03*
X217271D02*
D03*
X215697Y299370D02*
D03*
X212547D02*
D03*
X209397D02*
D03*
X206248D02*
D03*
X203098D02*
D03*
X199948D02*
D03*
X196799D02*
D03*
X193649D02*
D03*
X190500D02*
D03*
X218846Y299370D02*
D03*
D28*
X30217Y161653D02*
D03*
Y151654D02*
D03*
Y141654D02*
D03*
Y191654D02*
D03*
Y181653D02*
D03*
Y171653D02*
D03*
Y201654D02*
D03*
X10728D02*
D03*
Y171653D02*
D03*
Y181653D02*
D03*
Y191654D02*
D03*
Y141654D02*
D03*
Y151654D02*
D03*
Y161653D02*
D03*
D29*
X181496Y39173D02*
D03*
Y46654D02*
D03*
X172835Y42913D02*
D03*
X188868Y69407D02*
D03*
Y76887D02*
D03*
X180206Y73147D02*
D03*
D30*
X199409Y75197D02*
D03*
X206890D02*
D03*
X203150Y83858D02*
D03*
D31*
X218504Y87402D02*
D03*
X228740D02*
D03*
D33*
X271457Y77165D02*
D03*
X260827D02*
D03*
X218285Y100600D02*
D03*
X228915D02*
D03*
X265945Y107874D02*
D03*
X255315D02*
D03*
D34*
X325590Y128937D02*
D03*
Y139567D02*
D03*
X339370Y128937D02*
D03*
Y139567D02*
D03*
X313583Y185630D02*
D03*
Y175000D02*
D03*
X294094Y80512D02*
D03*
Y91142D02*
D03*
X280315Y136024D02*
D03*
Y125394D02*
D03*
X306693Y80512D02*
D03*
Y91142D02*
D03*
D35*
X114500Y147253D02*
D03*
Y141347D02*
D03*
X185500Y223353D02*
D03*
Y217447D02*
D03*
X169300Y212447D02*
D03*
Y218353D02*
D03*
X292700Y200053D02*
D03*
Y194147D02*
D03*
D36*
X281447Y215200D02*
D03*
X287353D02*
D03*
D72*
X328937Y156693D02*
D03*
X296063Y109449D02*
D03*
D73*
X245669Y90551D02*
D03*
M02*
