%FSLAX25Y25*%
%MOIN*%
G70*
G01*
G75*
G04 Layer_Color=128*
%ADD10C,0.00800*%
%ADD11R,0.10236X0.04331*%
%ADD12R,0.04331X0.10236*%
%ADD13R,0.06693X0.04528*%
%ADD14R,0.07087X0.07087*%
G04:AMPARAMS|DCode=15|XSize=19.69mil|YSize=23.62mil|CornerRadius=4.92mil|HoleSize=0mil|Usage=FLASHONLY|Rotation=90.000|XOffset=0mil|YOffset=0mil|HoleType=Round|Shape=RoundedRectangle|*
%AMROUNDEDRECTD15*
21,1,0.01969,0.01378,0,0,90.0*
21,1,0.00984,0.02362,0,0,90.0*
1,1,0.00984,0.00689,0.00492*
1,1,0.00984,0.00689,-0.00492*
1,1,0.00984,-0.00689,-0.00492*
1,1,0.00984,-0.00689,0.00492*
%
%ADD15ROUNDEDRECTD15*%
%ADD16R,0.04528X0.06693*%
%ADD17C,0.03937*%
%ADD18R,0.02362X0.02362*%
%ADD19C,0.01772*%
%ADD20R,0.47441X0.07874*%
%ADD21R,0.02362X0.02362*%
%ADD22R,0.02362X0.07087*%
G04:AMPARAMS|DCode=23|XSize=19.69mil|YSize=23.62mil|CornerRadius=4.92mil|HoleSize=0mil|Usage=FLASHONLY|Rotation=180.000|XOffset=0mil|YOffset=0mil|HoleType=Round|Shape=RoundedRectangle|*
%AMROUNDEDRECTD23*
21,1,0.01969,0.01378,0,0,180.0*
21,1,0.00984,0.02362,0,0,180.0*
1,1,0.00984,-0.00492,0.00689*
1,1,0.00984,0.00492,0.00689*
1,1,0.00984,0.00492,-0.00689*
1,1,0.00984,-0.00492,-0.00689*
%
%ADD23ROUNDEDRECTD23*%
%ADD24R,0.03740X0.01378*%
%ADD25R,0.01378X0.03740*%
%ADD26R,0.12992X0.12992*%
%ADD27R,0.04528X0.07087*%
%ADD28R,0.01969X0.07874*%
%ADD29R,0.14488X0.05000*%
%ADD30R,0.05512X0.03937*%
%ADD31R,0.03937X0.05512*%
%ADD32R,0.12992X0.12992*%
%ADD33R,0.05512X0.04331*%
%ADD34R,0.04331X0.05512*%
%ADD35C,0.00500*%
%ADD36C,0.01000*%
%ADD37C,0.01969*%
%ADD38C,0.01500*%
%ADD39C,0.01200*%
%ADD40C,0.00600*%
%ADD41C,0.02000*%
%ADD42C,0.03740*%
%ADD43R,0.07874X0.07874*%
%ADD44C,0.31496*%
%ADD45C,0.06496*%
%ADD46C,0.05800*%
%ADD47C,0.01940*%
%ADD48C,0.05000*%
%ADD49C,0.02598*%
%ADD50C,0.04000*%
%ADD51C,0.05740*%
%ADD52C,0.06134*%
%ADD53C,0.17000*%
%ADD54C,0.06600*%
%ADD55C,0.08102*%
%ADD56C,0.08000*%
%ADD57C,0.03969*%
%ADD58C,0.03000*%
%ADD59C,0.04800*%
%ADD60C,0.00394*%
%ADD61C,0.00400*%
%ADD62C,0.03299*%
%ADD63C,0.05000*%
%ADD64R,0.01600X0.08500*%
%ADD65R,0.71000X0.02000*%
%ADD66C,0.00984*%
%ADD67C,0.02362*%
%ADD68C,0.00787*%
%ADD69C,0.00591*%
%ADD70R,0.09095X0.09095*%
%ADD71R,0.09095X0.09095*%
%ADD72R,0.10436X0.04531*%
%ADD73R,0.04531X0.10436*%
%ADD74R,0.06893X0.04728*%
%ADD75R,0.07287X0.07287*%
G04:AMPARAMS|DCode=76|XSize=21.69mil|YSize=25.62mil|CornerRadius=5.42mil|HoleSize=0mil|Usage=FLASHONLY|Rotation=90.000|XOffset=0mil|YOffset=0mil|HoleType=Round|Shape=RoundedRectangle|*
%AMROUNDEDRECTD76*
21,1,0.02169,0.01478,0,0,90.0*
21,1,0.01084,0.02562,0,0,90.0*
1,1,0.01084,0.00739,0.00542*
1,1,0.01084,0.00739,-0.00542*
1,1,0.01084,-0.00739,-0.00542*
1,1,0.01084,-0.00739,0.00542*
%
%ADD76ROUNDEDRECTD76*%
%ADD77R,0.04728X0.06893*%
%ADD78C,0.07874*%
%ADD79R,0.02562X0.02562*%
%ADD80C,0.01972*%
%ADD81R,0.47241X0.07674*%
%ADD82R,0.02562X0.02562*%
%ADD83R,0.02562X0.07287*%
G04:AMPARAMS|DCode=84|XSize=21.69mil|YSize=25.62mil|CornerRadius=5.42mil|HoleSize=0mil|Usage=FLASHONLY|Rotation=180.000|XOffset=0mil|YOffset=0mil|HoleType=Round|Shape=RoundedRectangle|*
%AMROUNDEDRECTD84*
21,1,0.02169,0.01478,0,0,180.0*
21,1,0.01084,0.02562,0,0,180.0*
1,1,0.01084,-0.00542,0.00739*
1,1,0.01084,0.00542,0.00739*
1,1,0.01084,0.00542,-0.00739*
1,1,0.01084,-0.00542,-0.00739*
%
%ADD84ROUNDEDRECTD84*%
%ADD85R,0.03940X0.01578*%
%ADD86R,0.01578X0.03940*%
%ADD87R,0.13192X0.13192*%
%ADD88R,0.04728X0.07287*%
%ADD89R,0.02169X0.08074*%
%ADD90R,0.14688X0.05200*%
%ADD91R,0.05712X0.04137*%
%ADD92R,0.04137X0.05712*%
%ADD93R,0.13192X0.13192*%
%ADD94R,0.05712X0.04531*%
%ADD95R,0.04531X0.05712*%
%ADD96C,0.31696*%
%ADD97C,0.00200*%
%ADD98C,0.06696*%
%ADD99C,0.06000*%
%ADD100C,0.04137*%
%ADD101R,0.01800X0.08700*%
%ADD102R,0.71200X0.02200*%
D13*
X295636Y231882D02*
D03*
Y242709D02*
D03*
X242987Y165262D02*
D03*
Y154435D02*
D03*
X177139Y231160D02*
D03*
Y241987D02*
D03*
D15*
X200000Y210630D02*
D03*
X203937D02*
D03*
D17*
X344488Y374016D02*
D03*
X246063Y66929D02*
D03*
X21654Y118110D02*
D03*
X45276Y364961D02*
D03*
D18*
X196457Y234252D02*
D03*
Y238189D02*
D03*
X92520Y311417D02*
D03*
Y315354D02*
D03*
X97638Y311417D02*
D03*
Y315354D02*
D03*
X148819Y311811D02*
D03*
Y315748D02*
D03*
X153937Y311811D02*
D03*
Y315748D02*
D03*
X266142Y311811D02*
D03*
Y315748D02*
D03*
X260630Y311811D02*
D03*
Y315748D02*
D03*
X203543Y312205D02*
D03*
Y316142D02*
D03*
X209842Y312205D02*
D03*
Y316142D02*
D03*
X264765Y280866D02*
D03*
Y284803D02*
D03*
X207574Y280866D02*
D03*
Y284803D02*
D03*
X152466Y280866D02*
D03*
Y284803D02*
D03*
X95279Y280759D02*
D03*
Y284696D02*
D03*
X101969D02*
D03*
Y280759D02*
D03*
X257482Y280866D02*
D03*
Y284803D02*
D03*
X192800Y280866D02*
D03*
Y284803D02*
D03*
X250200Y280759D02*
D03*
Y284696D02*
D03*
X214961Y284803D02*
D03*
Y280866D02*
D03*
X272047Y284803D02*
D03*
Y280866D02*
D03*
X88590Y280759D02*
D03*
Y284696D02*
D03*
X138500Y280866D02*
D03*
Y284803D02*
D03*
X81900Y280759D02*
D03*
Y284696D02*
D03*
X159449Y284803D02*
D03*
Y280866D02*
D03*
X200187Y280866D02*
D03*
Y284803D02*
D03*
X145483Y280866D02*
D03*
Y284803D02*
D03*
D21*
X81890Y246457D02*
D03*
X77953D02*
D03*
X81890Y242126D02*
D03*
X77953D02*
D03*
X81890Y237795D02*
D03*
X77953D02*
D03*
X46457Y195669D02*
D03*
X42520D02*
D03*
X46457Y192126D02*
D03*
X42520D02*
D03*
X46457Y188583D02*
D03*
X42520D02*
D03*
X46457Y184646D02*
D03*
X42520D02*
D03*
X168042Y252200D02*
D03*
X164105D02*
D03*
X168042Y247869D02*
D03*
X164105D02*
D03*
X193701Y207087D02*
D03*
X189764D02*
D03*
X193701Y194488D02*
D03*
X189764D02*
D03*
X193701Y198819D02*
D03*
X189764D02*
D03*
X193701Y203150D02*
D03*
X189764D02*
D03*
X187008Y211417D02*
D03*
X190945D02*
D03*
X70473Y248306D02*
D03*
X66535D02*
D03*
X66535Y242350D02*
D03*
X70472D02*
D03*
D23*
X199600Y114300D02*
D03*
Y110363D02*
D03*
X203543Y114173D02*
D03*
Y110236D02*
D03*
X87386Y237008D02*
D03*
Y233071D02*
D03*
X114100Y226269D02*
D03*
Y222332D02*
D03*
X118600Y224468D02*
D03*
Y220532D02*
D03*
X121600Y224468D02*
D03*
Y220532D02*
D03*
X129900Y226468D02*
D03*
Y222532D02*
D03*
X118400Y212531D02*
D03*
Y216469D02*
D03*
X110200Y210631D02*
D03*
Y214568D02*
D03*
X114100Y202731D02*
D03*
Y206668D02*
D03*
X118500Y200832D02*
D03*
Y204768D02*
D03*
X121600Y212531D02*
D03*
Y216469D02*
D03*
X151484Y206368D02*
D03*
Y202432D02*
D03*
X129900Y210631D02*
D03*
Y214568D02*
D03*
X126032Y202803D02*
D03*
Y206740D02*
D03*
X122000Y202803D02*
D03*
Y198866D02*
D03*
X114160Y190931D02*
D03*
Y194869D02*
D03*
X129900Y190931D02*
D03*
Y194869D02*
D03*
X126008Y187031D02*
D03*
Y190969D02*
D03*
X118300Y186932D02*
D03*
Y190868D02*
D03*
X122000Y186932D02*
D03*
Y190868D02*
D03*
X201575Y237008D02*
D03*
Y233071D02*
D03*
X211811Y199213D02*
D03*
Y203150D02*
D03*
X228273Y226269D02*
D03*
Y222332D02*
D03*
X232873Y224468D02*
D03*
Y220532D02*
D03*
X235873Y224468D02*
D03*
Y220532D02*
D03*
X244073Y226468D02*
D03*
Y222532D02*
D03*
X244073Y210631D02*
D03*
Y214568D02*
D03*
X235773Y212531D02*
D03*
Y216469D02*
D03*
X232773Y212531D02*
D03*
Y216469D02*
D03*
X224373Y210631D02*
D03*
Y214568D02*
D03*
X228300Y202663D02*
D03*
Y206600D02*
D03*
X232773Y200832D02*
D03*
Y204768D02*
D03*
X240133Y202731D02*
D03*
Y206668D02*
D03*
X236433Y202432D02*
D03*
Y198495D02*
D03*
X228300Y190931D02*
D03*
Y194869D02*
D03*
X244073Y190931D02*
D03*
Y194869D02*
D03*
X240173Y187031D02*
D03*
Y190969D02*
D03*
X236173Y186932D02*
D03*
Y190868D02*
D03*
X232473Y186932D02*
D03*
Y190868D02*
D03*
X265400Y206437D02*
D03*
Y202500D02*
D03*
X258268Y235433D02*
D03*
Y231496D02*
D03*
X97727Y199032D02*
D03*
Y202969D02*
D03*
X143701Y235433D02*
D03*
Y231496D02*
D03*
X79038Y217913D02*
D03*
Y213976D02*
D03*
X68898Y110236D02*
D03*
Y114173D02*
D03*
X72835Y110236D02*
D03*
Y114173D02*
D03*
X76772Y110236D02*
D03*
Y114173D02*
D03*
X80709Y110236D02*
D03*
Y114173D02*
D03*
X85039Y110236D02*
D03*
Y114173D02*
D03*
X88976Y110236D02*
D03*
Y114173D02*
D03*
X92913Y110236D02*
D03*
Y114173D02*
D03*
X96850Y110236D02*
D03*
Y114173D02*
D03*
X104331Y110236D02*
D03*
Y114173D02*
D03*
X108268Y110236D02*
D03*
Y114173D02*
D03*
X112205Y110236D02*
D03*
Y114173D02*
D03*
X116142Y110236D02*
D03*
Y114173D02*
D03*
X120079Y110236D02*
D03*
Y114173D02*
D03*
X124016Y110236D02*
D03*
Y114173D02*
D03*
X127953Y110236D02*
D03*
Y114173D02*
D03*
X131890Y110236D02*
D03*
Y114173D02*
D03*
X140945Y110236D02*
D03*
Y114173D02*
D03*
X144882Y110236D02*
D03*
Y114173D02*
D03*
X148819Y110236D02*
D03*
Y114173D02*
D03*
X152756Y110236D02*
D03*
Y114173D02*
D03*
X156693Y110236D02*
D03*
Y114173D02*
D03*
X160630Y110236D02*
D03*
Y114173D02*
D03*
X164567Y110236D02*
D03*
Y114173D02*
D03*
X168504Y110236D02*
D03*
Y114173D02*
D03*
X175984Y110236D02*
D03*
Y114173D02*
D03*
X179921Y110236D02*
D03*
Y114173D02*
D03*
X183858Y110236D02*
D03*
Y114173D02*
D03*
X187795Y110236D02*
D03*
Y114173D02*
D03*
X191732Y110236D02*
D03*
Y114173D02*
D03*
X195669Y110236D02*
D03*
Y114173D02*
D03*
D33*
X184942Y241399D02*
D03*
Y235494D02*
D03*
X169343Y231194D02*
D03*
Y237099D02*
D03*
X224100Y152253D02*
D03*
Y146347D02*
D03*
X230887Y164902D02*
D03*
Y158996D02*
D03*
X85433Y182874D02*
D03*
Y188779D02*
D03*
X134646Y247047D02*
D03*
Y241142D02*
D03*
X156299Y237992D02*
D03*
Y232087D02*
D03*
X86221Y216732D02*
D03*
Y222638D02*
D03*
X155905Y215551D02*
D03*
Y221457D02*
D03*
X121260Y255709D02*
D03*
Y249803D02*
D03*
X72441Y262134D02*
D03*
Y268039D02*
D03*
X286236Y232242D02*
D03*
Y238148D02*
D03*
X199606Y182874D02*
D03*
Y188779D02*
D03*
X249213Y246654D02*
D03*
Y240748D02*
D03*
X270472Y237992D02*
D03*
Y232087D02*
D03*
X200394Y216732D02*
D03*
Y222638D02*
D03*
X270079Y215551D02*
D03*
Y221457D02*
D03*
D34*
X127370Y165000D02*
D03*
X133276D02*
D03*
X139961Y175197D02*
D03*
X134055D02*
D03*
X115551Y241339D02*
D03*
X121457D02*
D03*
X184843Y256063D02*
D03*
X178937D02*
D03*
X237598Y266693D02*
D03*
X231693D02*
D03*
X291253Y251720D02*
D03*
X285347D02*
D03*
X254134Y175197D02*
D03*
X248228D02*
D03*
X234842Y242520D02*
D03*
X228937D02*
D03*
D64*
X22429Y23150D02*
D03*
X24929D02*
D03*
X29929D02*
D03*
X32429D02*
D03*
X37429D02*
D03*
X39929D02*
D03*
X44929D02*
D03*
X47429D02*
D03*
X54929D02*
D03*
X57429D02*
D03*
X62429D02*
D03*
X64929D02*
D03*
X69929D02*
D03*
X72429D02*
D03*
X77429D02*
D03*
X79929D02*
D03*
X22429Y48650D02*
D03*
X24929D02*
D03*
X29929D02*
D03*
X32429D02*
D03*
X37429D02*
D03*
X39929D02*
D03*
X44929D02*
D03*
X47429D02*
D03*
X54929D02*
D03*
X57429D02*
D03*
X62429D02*
D03*
X64929D02*
D03*
X69929D02*
D03*
X72429D02*
D03*
X77429D02*
D03*
X79929D02*
D03*
X106429Y23150D02*
D03*
X108929D02*
D03*
X113929D02*
D03*
X116429D02*
D03*
X121429D02*
D03*
X123929D02*
D03*
X128929D02*
D03*
X131429D02*
D03*
X138929D02*
D03*
X141429D02*
D03*
X146429D02*
D03*
X148929D02*
D03*
X153929D02*
D03*
X156429D02*
D03*
X161429D02*
D03*
X163929D02*
D03*
X106429Y48650D02*
D03*
X108929D02*
D03*
X113929D02*
D03*
X116429D02*
D03*
X121429D02*
D03*
X123929D02*
D03*
X128929D02*
D03*
X131429D02*
D03*
X138929D02*
D03*
X141429D02*
D03*
X146429D02*
D03*
X148929D02*
D03*
X153929D02*
D03*
X156429D02*
D03*
X161429D02*
D03*
X163929D02*
D03*
X190429Y23150D02*
D03*
X192929D02*
D03*
X197929D02*
D03*
X200429D02*
D03*
X205429D02*
D03*
X207929D02*
D03*
X212929D02*
D03*
X215429D02*
D03*
X222929D02*
D03*
X225429D02*
D03*
X230429D02*
D03*
X232929D02*
D03*
X237929D02*
D03*
X245429D02*
D03*
X247929D02*
D03*
X190429Y48650D02*
D03*
X192929D02*
D03*
X197929D02*
D03*
X205429D02*
D03*
X212929D02*
D03*
X215429D02*
D03*
X222929D02*
D03*
X225429D02*
D03*
X230429D02*
D03*
X232929D02*
D03*
X237929D02*
D03*
X240429D02*
D03*
X245429D02*
D03*
X247929D02*
D03*
X274429Y23150D02*
D03*
X276929D02*
D03*
X281929D02*
D03*
X284429D02*
D03*
X289429D02*
D03*
X291929D02*
D03*
X296929D02*
D03*
X299429D02*
D03*
X306929D02*
D03*
X309429D02*
D03*
X314429D02*
D03*
X316929D02*
D03*
X321929D02*
D03*
X324429D02*
D03*
X329429D02*
D03*
X331929D02*
D03*
X274429Y48650D02*
D03*
X276929D02*
D03*
X281929D02*
D03*
X284429D02*
D03*
X289429D02*
D03*
X291929D02*
D03*
X296929D02*
D03*
X299429D02*
D03*
X306929D02*
D03*
X309429D02*
D03*
X314429D02*
D03*
X316929D02*
D03*
X321929D02*
D03*
X324429D02*
D03*
X329429D02*
D03*
X331929D02*
D03*
X82429D02*
D03*
X74929D02*
D03*
X67429D02*
D03*
X59929D02*
D03*
X52429D02*
D03*
X49929D02*
D03*
X42429D02*
D03*
X34929D02*
D03*
X27429D02*
D03*
X19929D02*
D03*
X103929D02*
D03*
X111429D02*
D03*
X118929D02*
D03*
X126429D02*
D03*
X133929D02*
D03*
X136429D02*
D03*
X143929D02*
D03*
X151429D02*
D03*
X158929D02*
D03*
X166429D02*
D03*
Y23150D02*
D03*
X158929D02*
D03*
X151429D02*
D03*
X143929D02*
D03*
X136429D02*
D03*
X133929D02*
D03*
X126429D02*
D03*
X118929D02*
D03*
X111429D02*
D03*
X103929D02*
D03*
X19929D02*
D03*
X27429D02*
D03*
X34929D02*
D03*
X42429D02*
D03*
X49929D02*
D03*
X52429D02*
D03*
X59929D02*
D03*
X67429D02*
D03*
X74929D02*
D03*
X82429D02*
D03*
X187929Y48650D02*
D03*
X195429D02*
D03*
X202929D02*
D03*
X210429D02*
D03*
X217929D02*
D03*
X220429D02*
D03*
X227929D02*
D03*
X235429D02*
D03*
X242929D02*
D03*
X250429D02*
D03*
X187929Y23150D02*
D03*
X195429D02*
D03*
X202929D02*
D03*
X210429D02*
D03*
X217929D02*
D03*
X220429D02*
D03*
X227929D02*
D03*
X235429D02*
D03*
X242929D02*
D03*
X250429D02*
D03*
X334429D02*
D03*
X326929D02*
D03*
X319429D02*
D03*
X311929D02*
D03*
X304429D02*
D03*
X301929D02*
D03*
X294429D02*
D03*
X286929D02*
D03*
X279429D02*
D03*
X271929D02*
D03*
X334429Y48650D02*
D03*
X326929D02*
D03*
X319429D02*
D03*
X311929D02*
D03*
X304429D02*
D03*
X301929D02*
D03*
X294429D02*
D03*
X286929D02*
D03*
X279429D02*
D03*
X271929D02*
D03*
X240429Y23150D02*
D03*
X207929Y48650D02*
D03*
X200429D02*
D03*
D65*
X303100Y35900D02*
D03*
X219100D02*
D03*
X135100D02*
D03*
X51100D02*
D03*
M02*
