M48
;Layer_Color=9474304
;FILE_FORMAT=4:4
METRIC,LZ
;TYPE=PLATED
T1F00S00C0.2540
T2F00S00C0.3300
T3F00S00C0.5000
T4F00S00C0.7112
T5F00S00C0.9500
T6F00S00C1.0500
T7F00S00C1.5500
T8F00S00C3.8100
%
T01
X00050619Y00044377
X00069669Y00044269
X00064132Y00074422
X00056156
X00094256
X00102232
X00133169Y00073587
X00157756Y00074422
X00165732
X00195856
X00203832
X00209369Y00044269
X00190319
X00171269Y00044377
X00152219
X00126819Y00044269
X00107769
X00088719Y00044523
X00263979Y00044377
X00283029Y00044269
X00302079
X00321129
X00340179Y00044377
X00365579Y00044269
X00384629
X00403679Y00044377
X00422729Y00044269
X00417192Y00074168
X00409216
X00379092
X00371116
X00346529Y00073479
X00315592Y00074422
X00307616
X00277492
X00269516
X00477339Y00044269
X00490039
X0050292Y0003429
X00515439Y00044377
X00528139Y00044269
X00540839Y00034471
X00553539Y00044269
X00566239
X00578939Y00044631
X0058547Y0003429
X00597989Y00044377
X00610689Y00044269
X00623062Y0003429
X00636089Y00044377
X00617039Y00073225
X00604339Y00073333
X00572589
X00559889Y00073225
X00534489Y00073333
X00521789Y00073479
X00496389Y00073333
X00483689Y00073479
X00697049Y00073333
X00709749
X00735149
X00747849
X00773249
X00785949
X00817699
X00830399
X00824049Y00044269
X00811349Y00044377
X00792299Y00044269
X00779599
X00766899Y00044377
X00754126Y0003429
X00741499Y00044523
X00728799Y00044269
X00716099Y00034363
X00703399Y00044269
X00690699
X00798649Y00034363
X00836749
X00849449Y00044269
X00830399Y00109039
X00817699
X00804999Y00108785
X00798649
X00785949Y00109039
X00773249
X00766899Y00138357
X00779599
X00792299
X00811349
X00824049
X00836749
X00843099
X00864235Y00123571
X00747849Y00138249
X00728799
X00709749
X00690699Y00138357
X00697049Y00109039
X00617039
X00604339
X00591639Y00108785
X00585289
X00572589Y00109039
X00559889
X00553539Y00138357
X00566239
X00578939
X00597989
X00610689
X00623389
X00629739
X00534489
X00515439
X00496389
X00490039Y00108785
X00483689Y00105991
X00502739Y00107007
X00509089Y00108785
X00521789
X0053579Y00191
X00531876Y00228854
X00516Y00225322
X00542798Y00243586
X00479724Y00205584
X00631Y00266
X00633Y00278
X007Y00265
X00709Y00244
X00687Y00217
X0075425Y00162
X00785876Y00255524
X00785622Y00271526
X00787146Y00310388
X0082725Y00302
X00792Y0036475
X00869122Y00391526
X0085Y00435
X00665Y0046
X00655
Y0047
X00645
Y0046
X00665Y0047
X00638556Y00431292
X00585Y0046
Y0047
X00575
X00565
X00555
X00545
X00535
Y0046
X00545
X00555
X00565
X00575
X00525
Y0047
X0045593Y00431546
X00375Y0046
X00365
Y0047
X00355
Y0046
X00375Y0047
X00295
Y0046
X00285
X00275
Y0047
X00285
X00265
X00255
X00245
Y0046
X00235
Y0047
X00255Y0046
X00265
X00192532Y00431292
X0009Y004241
Y004495
Y004749
Y003987
Y003733
Y003479
X00088719Y00138249
X00107769
X00133169Y00138103
X00152219Y00138357
X00171269Y00138249
X00190319
X00209369Y00138357
X00263979Y00138249
X00283029Y00138357
X00302079
X00321129Y00138249
X00346529Y00138357
X00365579
X00384629
X00403679
X00422729Y00138249
X00447Y0015975
X00457
X00457724Y00175504
X00469646Y00184912
X00466344Y0019685
X00477339Y00138357
X00398142Y0008382
X00390166
X00360042Y00083566
X00352066
X00334642Y0008382
X00326666
X00296542
X00288566
X00340179Y00109293
X00184782Y0008382
X00176806
X00146682Y00084074
X00138706
X00121282
X00113306
X00083182Y0008382
X00126819Y00108966
X00075206Y0008382
X00069669Y00138249
X00050546Y0013843
X00025Y003479
Y003733
Y003987
Y004241
Y004495
Y004749
Y005003
X0002595Y0055555
X0003865
X0006405
X00079Y0055905
Y0066505
X0006505Y0066255
X0005235
X0003965
X0002695
X0002595Y0064245
X0003865
X0005135
X0005235Y0074945
X0003965
X0002695
X00206869Y0074465
X00222869
X00238869
X00262869
X00254869Y0077615
X00246869
X00230869
X00214869
X00198869
X00270869Y0077615
X00341369Y0077615
X00357369
X00373369
X00389369
X00397369
X00413369Y0077615
X00405369Y0074465
X00381369
X00365369
X00349369
X00345369Y0069415
X00369369
X00377369
X00385369
X00393369
X00417369
X00454831Y00661041
X004695Y006614
X00345Y00648
Y0064
Y0063
X00335Y006
X00325
Y0059
X00335
Y0058
X00325
Y0057
X00335
Y0056
Y0055
X00325
Y0056
X00315
Y0055
Y0054
X00325
X00335
X00345
Y0055
Y0056
Y0057
X00355
Y0056
Y0055
Y0054
X00365
Y0055
Y0056
Y0057
Y0058
X00355
X00345
X00355Y0059
Y006
X00375
Y0059
Y0058
Y0057
Y0056
Y0055
Y0054
Y0052
X00365
X00355
X00345
Y0051
Y005
Y0049
X00335
X00325
Y005
Y0051
X00335
Y005
X00315
Y0051
Y0052
X00325
X00335
X00355Y0051
Y005
Y0049
Y0048
X00345
X00335
X00325
X00315
Y0049
X00295
Y005
Y0051
Y0052
X00285
X00275
Y0051
X00285
Y005
X00275
Y0049
X00285
Y0048
X00275
X00265
Y0049
Y005
Y0051
Y0052
X00255
Y0051
Y005
Y0049
Y0048
X00295
Y0054
X00285
X00275
Y0055
X00285
Y0056
X00275
X00265
Y0055
Y0054
X00255
Y0055
Y0056
Y0057
X00265
X00275
X00285
X00295
Y0056
Y0055
Y0058
X00285
X00275
X00265
X00255
X00245
Y0057
Y0056
Y0055
Y0054
Y0053
X00235
Y0054
Y0055
Y0056
Y0057
Y0058
Y0059
Y006
X00255
Y0059
X00275
X00285
X00295
Y006
X00285
X00275
X00315
Y0059
Y0058
Y0057
X00315831Y00661041
X003305Y006614
X00274869Y0069415
X00250869
X00242869
X00234869
X00226869
X00202869
X00194641Y00680489
X00195Y0066582
X00194Y00643
X00186Y00637696
X00186Y0062257
X00189348Y0059309
X00189848Y0058096
X00203Y00574
X00193446Y0055354
X00177Y00531
X00167Y00526
X0015Y00534
X00129Y005435
X001185
X0009Y005003
X00162Y00637696
X00215Y00633
X00247Y00639
X00365Y0051
Y005
Y0049
Y0048
X00375
Y0049
Y005
Y0051
X00391922Y00514256
Y00524256
X00418Y00531
X00464Y00522
X00474Y00525
X00458Y00503
X00449Y00501
X00500888Y0053492
X00495Y00547
X00525Y0055
Y0056
X00535
Y0055
X00545
Y0056
X00555
Y0055
X00565
Y0056
X00575
Y0055
Y0054
X00565
X00555
X00545
X00535
Y0053
X00525
Y0054
Y0057
X00535
X00545
X00555
X00565
X00575
X00585
Y0056
Y0055
Y0054
Y0052
Y0051
Y005
X00575
Y0051
X00565
Y005
Y0049
X00575
X00585
Y0048
X00575
X00565
X00555
Y0049
Y005
Y0051
Y0052
X00565
X00575
X00545
Y0051
Y005
Y0049
Y0048
X00605
Y0049
Y005
Y0051
Y0052
X00615
X00625
Y0051
X00615
Y005
X00625
X00635
Y0051
Y0052
X00645
Y0051
Y005
X00655
Y0051
Y0052
X00665
Y0051
Y005
Y0049
X00655
X00645
X00635
X00625
X00615
Y0048
X00625
X00635
X00645
X00655
X00665
Y0054
X00655
X00645
Y0055
Y0056
X00635
Y0055
X00625
X00615
Y0056
X00625
Y0057
X00615
X00605
Y0056
Y0055
Y0054
X00615
X00625
X00635
Y0057
X00645
Y0058
X00635
X00625
X00615
X00605
Y0059
X00615
X00625
Y006
X00615
X00605
X00585
Y0059
Y0058
X00575
X00565
X00555
X00545
X00535
X00525
Y0059
Y006
X00545
Y0059
X00565
X00575
Y006
X00565
X00559Y00645
X00559869Y0069415
X00535869
X00527869
X00519869
X00511869
X00487869
X00491869Y0074465
X00507869
X00523869
X00547869
X00539869Y0077615
X00531869
X00515869
X00499869
X00483869
X00555869Y0077615
X00626369Y0077615
X00642369
X00658369
X00674369
X00682369
X00698369Y0077615
X00690369Y0074465
X00666369
X00650369
X00634369
X00630369Y0069415
X00654369
X00662369
X00670369
X00678369
X00702369
X0070016Y0062484
Y00614426
X00675Y0059
X00665
Y0058
X00655
Y0057
Y0056
Y0055
X00665
Y0056
Y0057
Y006
X00645
Y0059
X00645Y00635
X00655Y00636
X00604Y00637
X00603169Y00666759
X005885Y006664
X0049Y00637
X00681344Y00524438
X007555Y005435
X00766
X00778Y00819162
X007755Y00939
X00862Y00973
X00872Y01053
X00106
X00109Y00971
T02
X00612Y00218
Y0023
Y00242
X00624
Y0023
Y00218
X00636
Y0023
Y00242
X0074Y00266
Y00278
Y0029
X00752
X00764
Y00278
X00752
Y00266
X00764
X008235Y00386
Y00398
Y0041
X008355
X008475
Y00398
X008355
Y00386
X008475
T03
X00883Y003275
Y003545
X00806
Y003275
X00854Y00293
X00693614Y00307788
X0069342Y0033401
X006755Y002955
X006485
X00581Y00276
X005545Y002755
X00583918Y00371722
Y00386722
X00601158Y0040385
X00601258Y0041875
X007735Y004445
Y004715
X00724Y00232
X00682Y00239
X006895Y001745
X006625
X00747Y00183
X00763Y00186
X00779Y00183
X00338498Y0040527
X0030935Y00415946
X00293Y00388
X00277Y00359
X00427482Y00513334
X00430022Y00568514
X00416232Y00587232
Y00602232
X00483652Y00598154
Y00613154
X00485068Y00567316
Y00552316
X00719Y00568
X00709104Y00589896
Y00604896
X00706846Y0063937
X00739782Y00657306
X00731Y00704
X00742812Y00546608
X00756394Y00508134
Y00493134
X00011478Y00918
T04
X00778Y00245
T05
X00165669Y007034
X00165669Y007534
X00165669Y008004
X00308169
X00450669Y007784
Y006784
X00427369Y006574
X00379369
X00284869
X00236869
X00521869
X00569869
X00593169Y007034
X00593169Y007534
Y008004
X00735669Y008004
X00712369Y006574
X00664369
X00450669Y008784
Y009784
T06
X00308169Y006784
X00308169Y007784
X00165669Y008284
X00593169Y008284
X00735669Y007784
X00735669Y006784
X00735669Y008784
Y009784
X00593169Y009284
Y010284
X00308169Y009784
X00308169Y008784
X00165669Y009284
Y010284
T07
X00188869Y007194
X00284869
X00331369
X00427369
X00473869
X00569869
X00616369
X00712369
T08
X00836965Y00222123
X00063065
X00836965Y00881761
X00063065
M30
