%FSLAX44Y44*%
%MOMM*%
G71*
G01*
G75*
G04 Layer_Physical_Order=6*
G04 Layer_Color=16440176*
%ADD10C,0.2032*%
G04:AMPARAMS|DCode=11|XSize=0.5mm|YSize=0.6mm|CornerRadius=0.125mm|HoleSize=0mm|Usage=FLASHONLY|Rotation=0.000|XOffset=0mm|YOffset=0mm|HoleType=Round|Shape=RoundedRectangle|*
%AMROUNDEDRECTD11*
21,1,0.5000,0.3500,0,0,0.0*
21,1,0.2500,0.6000,0,0,0.0*
1,1,0.2500,0.1250,-0.1750*
1,1,0.2500,-0.1250,-0.1750*
1,1,0.2500,-0.1250,0.1750*
1,1,0.2500,0.1250,0.1750*
%
%ADD11ROUNDEDRECTD11*%
%ADD12R,2.6000X1.1000*%
%ADD13R,0.6000X0.6000*%
G04:AMPARAMS|DCode=14|XSize=0.5mm|YSize=0.6mm|CornerRadius=0.125mm|HoleSize=0mm|Usage=FLASHONLY|Rotation=270.000|XOffset=0mm|YOffset=0mm|HoleType=Round|Shape=RoundedRectangle|*
%AMROUNDEDRECTD14*
21,1,0.5000,0.3500,0,0,270.0*
21,1,0.2500,0.6000,0,0,270.0*
1,1,0.2500,-0.1750,-0.1250*
1,1,0.2500,-0.1750,0.1250*
1,1,0.2500,0.1750,0.1250*
1,1,0.2500,0.1750,-0.1250*
%
%ADD14ROUNDEDRECTD14*%
%ADD15R,1.1000X1.3500*%
%ADD16R,0.6000X0.6000*%
%ADD17R,1.0000X1.4000*%
%ADD18R,1.4000X1.0000*%
%ADD19R,1.4000X1.1000*%
%ADD20R,1.1500X1.8000*%
%ADD21R,0.9500X0.3500*%
%ADD22R,0.3500X0.9500*%
%ADD23R,3.3000X3.3000*%
%ADD24R,0.6000X1.8000*%
%ADD25R,0.5000X2.0000*%
%ADD26R,1.6000X1.6000*%
%ADD27R,0.2800X0.8000*%
%ADD28R,0.8000X0.2800*%
%ADD29R,1.1000X1.4000*%
%ADD30R,1.1500X1.7000*%
%ADD31R,3.3000X3.3000*%
%ADD32R,1.1000X2.6000*%
%ADD33R,1.7000X1.1500*%
%ADD34C,0.4500*%
%ADD35C,1.0000*%
%ADD36R,12.0500X2.0000*%
%ADD37R,1.8000X1.8000*%
%ADD38R,3.6800X1.2700*%
%ADD39C,0.1270*%
%ADD40C,0.2540*%
%ADD41C,0.5080*%
%ADD42C,0.1524*%
%ADD43C,0.3048*%
%ADD44C,0.5000*%
%ADD45C,0.3810*%
%ADD46C,1.6500*%
%ADD47C,1.4732*%
%ADD48C,0.9500*%
%ADD49R,2.0000X2.0000*%
%ADD50C,8.0000*%
%ADD51C,0.4928*%
%ADD52C,0.6600*%
%ADD53C,0.5080*%
%ADD54C,1.0160*%
%ADD55C,1.0080*%
%ADD56C,2.0580*%
%ADD57C,2.0320*%
%ADD58C,1.4580*%
%ADD59C,1.5580*%
%ADD60C,1.6764*%
%ADD61C,4.3180*%
%ADD62C,0.7620*%
%ADD63C,0.1000*%
%ADD64C,0.1016*%
%ADD65C,0.8380*%
%ADD66C,1.2700*%
G36*
X330000Y475000D02*
Y425000D01*
X315000Y410000D01*
X300000D01*
Y435416D01*
Y445000D01*
X290000Y455000D01*
X290000Y455000D01*
Y515000D01*
X280000D01*
Y555000D01*
X330000D01*
Y475000D01*
D02*
G37*
G36*
X620000Y425000D02*
X605000Y410000D01*
X590000D01*
Y445000D01*
X580000Y455000D01*
Y515000D01*
X570000D01*
Y555000D01*
X620000D01*
Y425000D01*
D02*
G37*
G36*
X895086Y734866D02*
X895000Y734780D01*
Y25254D01*
X885000Y15254D01*
X460000D01*
X450000Y25254D01*
Y65254D01*
X485000Y100254D01*
X645000D01*
Y395254D01*
X745000Y495254D01*
Y539923D01*
X745852Y540276D01*
X747427Y541484D01*
X748636Y543059D01*
X749396Y544894D01*
X749655Y546862D01*
X749396Y548830D01*
X748636Y550664D01*
X747427Y552240D01*
X745852Y553448D01*
X745000Y553801D01*
Y652060D01*
X745160Y652182D01*
X746368Y653757D01*
X747128Y655591D01*
X747387Y657560D01*
X747128Y659528D01*
X746368Y661362D01*
X745160Y662937D01*
X745000Y663060D01*
Y666114D01*
X748209D01*
Y691194D01*
X745000D01*
Y735254D01*
X786120D01*
Y792501D01*
X787430Y793044D01*
X789006Y794252D01*
X790214Y795827D01*
X790974Y797662D01*
X791233Y799630D01*
X790974Y801598D01*
X790214Y803432D01*
X789006Y805008D01*
X787430Y806216D01*
X786120Y806759D01*
Y818920D01*
X786120Y818920D01*
X786120D01*
X787136Y819936D01*
X837325D01*
X838156Y818852D01*
X839732Y817644D01*
X841566Y816884D01*
X843534Y816625D01*
X845502Y816884D01*
X847337Y817644D01*
X848912Y818852D01*
X849743Y819936D01*
X895086D01*
Y734866D01*
D02*
G37*
%LPC*%
G36*
X709749Y143605D02*
X707797Y143216D01*
X706142Y142111D01*
X705035Y140455D01*
X704647Y138503D01*
X705035Y136551D01*
X706142Y134895D01*
X707797Y133790D01*
X709749Y133401D01*
X711701Y133790D01*
X713356Y134895D01*
X714463Y136551D01*
X714851Y138503D01*
X714463Y140455D01*
X713356Y142111D01*
X711701Y143216D01*
X709749Y143605D01*
D02*
G37*
G36*
X864235Y128927D02*
X862283Y128539D01*
X860628Y127432D01*
X859521Y125777D01*
X859133Y123825D01*
X859521Y121873D01*
X860628Y120218D01*
X862283Y119111D01*
X864235Y118723D01*
X866187Y119111D01*
X867842Y120218D01*
X868949Y121873D01*
X869337Y123825D01*
X868949Y125777D01*
X867842Y127432D01*
X866187Y128539D01*
X864235Y128927D01*
D02*
G37*
G36*
X728799Y143605D02*
X726847Y143216D01*
X725191Y142111D01*
X724085Y140455D01*
X723697Y138503D01*
X724085Y136551D01*
X725191Y134895D01*
X726847Y133790D01*
X728799Y133401D01*
X730751Y133790D01*
X732406Y134895D01*
X733512Y136551D01*
X733901Y138503D01*
X733512Y140455D01*
X732406Y142111D01*
X730751Y143216D01*
X728799Y143605D01*
D02*
G37*
G36*
X766899Y143713D02*
X764947Y143324D01*
X763291Y142219D01*
X762186Y140563D01*
X761797Y138611D01*
X762186Y136659D01*
X763291Y135003D01*
X764947Y133897D01*
X766899Y133509D01*
X768851Y133897D01*
X770507Y135003D01*
X771612Y136659D01*
X772001Y138611D01*
X771612Y140563D01*
X770507Y142219D01*
X768851Y143324D01*
X766899Y143713D01*
D02*
G37*
G36*
X779599D02*
X777647Y143324D01*
X775992Y142219D01*
X774885Y140563D01*
X774497Y138611D01*
X774885Y136659D01*
X775992Y135003D01*
X777647Y133897D01*
X779599Y133509D01*
X781551Y133897D01*
X783206Y135003D01*
X784313Y136659D01*
X784701Y138611D01*
X784313Y140563D01*
X783206Y142219D01*
X781551Y143324D01*
X779599Y143713D01*
D02*
G37*
G36*
X747849Y143605D02*
X745897Y143216D01*
X744241Y142111D01*
X743136Y140455D01*
X742747Y138503D01*
X743136Y136551D01*
X744241Y134895D01*
X745897Y133790D01*
X747849Y133401D01*
X749801Y133790D01*
X751457Y134895D01*
X752562Y136551D01*
X752951Y138503D01*
X752562Y140455D01*
X751457Y142111D01*
X749801Y143216D01*
X747849Y143605D01*
D02*
G37*
G36*
X690699Y143713D02*
X688747Y143324D01*
X687092Y142219D01*
X685985Y140563D01*
X685597Y138611D01*
X685985Y136659D01*
X687092Y135003D01*
X688747Y133897D01*
X690699Y133509D01*
X692651Y133897D01*
X694306Y135003D01*
X695413Y136659D01*
X695801Y138611D01*
X695413Y140563D01*
X694306Y142219D01*
X692651Y143324D01*
X690699Y143713D01*
D02*
G37*
G36*
X521789Y78835D02*
X519837Y78446D01*
X518181Y77340D01*
X517076Y75685D01*
X516687Y73733D01*
X517076Y71781D01*
X518181Y70125D01*
X519837Y69019D01*
X521789Y68631D01*
X523741Y69019D01*
X525396Y70125D01*
X526502Y71781D01*
X526891Y73733D01*
X526502Y75685D01*
X525396Y77340D01*
X523741Y78446D01*
X521789Y78835D01*
D02*
G37*
G36*
X697049Y114395D02*
X695097Y114007D01*
X693441Y112900D01*
X692336Y111245D01*
X691947Y109293D01*
X692336Y107341D01*
X693441Y105686D01*
X695097Y104579D01*
X697049Y104191D01*
X699001Y104579D01*
X700657Y105686D01*
X701762Y107341D01*
X702151Y109293D01*
X701762Y111245D01*
X700657Y112900D01*
X699001Y114007D01*
X697049Y114395D01*
D02*
G37*
G36*
X830399Y78689D02*
X828447Y78300D01*
X826792Y77194D01*
X825686Y75539D01*
X825297Y73587D01*
X825686Y71635D01*
X826792Y69980D01*
X828447Y68874D01*
X830399Y68485D01*
X832351Y68874D01*
X834007Y69980D01*
X835113Y71635D01*
X835501Y73587D01*
X835113Y75539D01*
X834007Y77194D01*
X832351Y78300D01*
X830399Y78689D01*
D02*
G37*
G36*
X483689Y78835D02*
X481737Y78446D01*
X480081Y77340D01*
X478975Y75685D01*
X478587Y73733D01*
X478975Y71781D01*
X480081Y70125D01*
X481737Y69019D01*
X483689Y68631D01*
X485641Y69019D01*
X487296Y70125D01*
X488402Y71781D01*
X488791Y73733D01*
X488402Y75685D01*
X487296Y77340D01*
X485641Y78446D01*
X483689Y78835D01*
D02*
G37*
G36*
X773249Y114395D02*
X771297Y114007D01*
X769641Y112900D01*
X768536Y111245D01*
X768147Y109293D01*
X768536Y107341D01*
X769641Y105686D01*
X771297Y104579D01*
X773249Y104191D01*
X775201Y104579D01*
X776857Y105686D01*
X777962Y107341D01*
X778351Y109293D01*
X777962Y111245D01*
X776857Y112900D01*
X775201Y114007D01*
X773249Y114395D01*
D02*
G37*
G36*
X830399D02*
X828447Y114007D01*
X826792Y112900D01*
X825686Y111245D01*
X825297Y109293D01*
X825686Y107341D01*
X826792Y105686D01*
X828447Y104579D01*
X830399Y104191D01*
X832351Y104579D01*
X834007Y105686D01*
X835113Y107341D01*
X835501Y109293D01*
X835113Y111245D01*
X834007Y112900D01*
X832351Y114007D01*
X830399Y114395D01*
D02*
G37*
G36*
X804999Y114141D02*
X803047Y113752D01*
X801824Y112935D01*
X800601Y113752D01*
X798649Y114141D01*
X796697Y113752D01*
X795042Y112647D01*
X793935Y110991D01*
X793547Y109039D01*
X793935Y107087D01*
X795042Y105431D01*
X796697Y104326D01*
X798649Y103937D01*
X800601Y104326D01*
X801824Y105142D01*
X803047Y104326D01*
X804999Y103937D01*
X806951Y104326D01*
X808606Y105431D01*
X809713Y107087D01*
X810101Y109039D01*
X809713Y110991D01*
X808606Y112647D01*
X806951Y113752D01*
X804999Y114141D01*
D02*
G37*
G36*
X785949Y114395D02*
X783997Y114007D01*
X782342Y112900D01*
X781236Y111245D01*
X780847Y109293D01*
X781236Y107341D01*
X782342Y105686D01*
X783997Y104579D01*
X785949Y104191D01*
X787901Y104579D01*
X789557Y105686D01*
X790663Y107341D01*
X791051Y109293D01*
X790663Y111245D01*
X789557Y112900D01*
X787901Y114007D01*
X785949Y114395D01*
D02*
G37*
G36*
X817699D02*
X815747Y114007D01*
X814091Y112900D01*
X812986Y111245D01*
X812597Y109293D01*
X812986Y107341D01*
X814091Y105686D01*
X815747Y104579D01*
X817699Y104191D01*
X819651Y104579D01*
X821307Y105686D01*
X822412Y107341D01*
X822801Y109293D01*
X822412Y111245D01*
X821307Y112900D01*
X819651Y114007D01*
X817699Y114395D01*
D02*
G37*
G36*
X687000Y222356D02*
X685048Y221968D01*
X683392Y220861D01*
X682287Y219206D01*
X681898Y217254D01*
X682287Y215302D01*
X683392Y213647D01*
X685048Y212540D01*
X687000Y212152D01*
X688952Y212540D01*
X690608Y213647D01*
X691713Y215302D01*
X692102Y217254D01*
X691713Y219206D01*
X690608Y220861D01*
X688952Y221968D01*
X687000Y222356D01*
D02*
G37*
G36*
X724000Y239859D02*
X722032Y239600D01*
X720198Y238840D01*
X718622Y237632D01*
X717414Y236056D01*
X716654Y234222D01*
X716395Y232254D01*
X716654Y230286D01*
X717414Y228451D01*
X718622Y226876D01*
X720198Y225668D01*
X722032Y224908D01*
X724000Y224649D01*
X725968Y224908D01*
X727803Y225668D01*
X729378Y226876D01*
X730586Y228451D01*
X731346Y230286D01*
X731605Y232254D01*
X731346Y234222D01*
X730586Y236056D01*
X729378Y237632D01*
X727803Y238840D01*
X725968Y239600D01*
X724000Y239859D01*
D02*
G37*
G36*
X779000Y190859D02*
X777032Y190600D01*
X775197Y189840D01*
X773622Y188632D01*
X772414Y187057D01*
X771654Y185222D01*
X771395Y183254D01*
X771654Y181286D01*
X772414Y179452D01*
X773622Y177876D01*
X775197Y176668D01*
X777032Y175908D01*
X779000Y175649D01*
X780968Y175908D01*
X782803Y176668D01*
X784378Y177876D01*
X785586Y179452D01*
X786346Y181286D01*
X786605Y183254D01*
X786346Y185222D01*
X785586Y187057D01*
X784378Y188632D01*
X782803Y189840D01*
X780968Y190600D01*
X779000Y190859D01*
D02*
G37*
G36*
X836965Y265008D02*
X831401Y264644D01*
X825931Y263556D01*
X820651Y261763D01*
X815649Y259297D01*
X811013Y256199D01*
X806820Y252522D01*
X803143Y248329D01*
X800045Y243693D01*
X797579Y238691D01*
X795786Y233411D01*
X794698Y227941D01*
X794334Y222377D01*
X794698Y216812D01*
X795786Y211343D01*
X797579Y206063D01*
X800045Y201061D01*
X803143Y196425D01*
X806820Y192232D01*
X811013Y188555D01*
X815649Y185457D01*
X820651Y182991D01*
X825931Y181198D01*
X831401Y180110D01*
X836965Y179746D01*
X842530Y180110D01*
X847999Y181198D01*
X853279Y182991D01*
X858281Y185457D01*
X862917Y188555D01*
X867110Y192232D01*
X870787Y196425D01*
X873885Y201061D01*
X876351Y206063D01*
X878144Y211343D01*
X879232Y216812D01*
X879596Y222377D01*
X879232Y227941D01*
X878144Y233411D01*
X876351Y238691D01*
X873885Y243693D01*
X870787Y248329D01*
X867110Y252522D01*
X862917Y256199D01*
X858281Y259297D01*
X853279Y261763D01*
X847999Y263556D01*
X842530Y264644D01*
X836965Y265008D01*
D02*
G37*
G36*
X715678Y274880D02*
X713726Y274492D01*
X712070Y273386D01*
X710965Y271730D01*
X710576Y269778D01*
X710965Y267826D01*
X712070Y266171D01*
X713726Y265065D01*
X715678Y264676D01*
X717630Y265065D01*
X719286Y266171D01*
X720391Y267826D01*
X720780Y269778D01*
X720391Y271730D01*
X719286Y273386D01*
X717630Y274492D01*
X715678Y274880D01*
D02*
G37*
G36*
X785622Y276882D02*
X783670Y276493D01*
X782014Y275387D01*
X780909Y273732D01*
X780520Y271780D01*
X780909Y269828D01*
X782014Y268172D01*
X783670Y267066D01*
X785622Y266678D01*
X787574Y267066D01*
X789230Y268172D01*
X790335Y269828D01*
X790724Y271780D01*
X790335Y273732D01*
X789230Y275387D01*
X787574Y276493D01*
X785622Y276882D01*
D02*
G37*
G36*
X682000Y246859D02*
X680032Y246600D01*
X678197Y245840D01*
X676622Y244632D01*
X675414Y243057D01*
X674654Y241222D01*
X674395Y239254D01*
X674654Y237286D01*
X675414Y235452D01*
X676622Y233876D01*
X678197Y232668D01*
X680032Y231908D01*
X682000Y231649D01*
X683968Y231908D01*
X685803Y232668D01*
X687378Y233876D01*
X688586Y235452D01*
X689346Y237286D01*
X689605Y239254D01*
X689346Y241222D01*
X688586Y243057D01*
X687378Y244632D01*
X685803Y245840D01*
X683968Y246600D01*
X682000Y246859D01*
D02*
G37*
G36*
X785876Y260880D02*
X783924Y260492D01*
X782268Y259386D01*
X781162Y257730D01*
X780774Y255778D01*
X781162Y253826D01*
X782268Y252170D01*
X783924Y251064D01*
X785876Y250676D01*
X787828Y251064D01*
X789483Y252170D01*
X790590Y253826D01*
X790978Y255778D01*
X790590Y257730D01*
X789483Y259386D01*
X787828Y260492D01*
X785876Y260880D01*
D02*
G37*
G36*
X824049Y143713D02*
X822097Y143324D01*
X820442Y142219D01*
X819335Y140563D01*
X818947Y138611D01*
X819335Y136659D01*
X820442Y135003D01*
X822097Y133897D01*
X824049Y133509D01*
X826001Y133897D01*
X827656Y135003D01*
X828763Y136659D01*
X829151Y138611D01*
X828763Y140563D01*
X827656Y142219D01*
X826001Y143324D01*
X824049Y143713D01*
D02*
G37*
G36*
X843099D02*
X841147Y143324D01*
X839924Y142507D01*
X838701Y143324D01*
X836749Y143713D01*
X834797Y143324D01*
X833141Y142219D01*
X832036Y140563D01*
X831647Y138611D01*
X832036Y136659D01*
X833141Y135003D01*
X834797Y133897D01*
X836749Y133509D01*
X838701Y133897D01*
X839924Y134714D01*
X841147Y133897D01*
X843099Y133509D01*
X845051Y133897D01*
X846706Y135003D01*
X847812Y136659D01*
X848201Y138611D01*
X847812Y140563D01*
X846706Y142219D01*
X845051Y143324D01*
X843099Y143713D01*
D02*
G37*
G36*
X792299D02*
X790347Y143324D01*
X788691Y142219D01*
X787586Y140563D01*
X787197Y138611D01*
X787586Y136659D01*
X788691Y135003D01*
X790347Y133897D01*
X792299Y133509D01*
X794251Y133897D01*
X795907Y135003D01*
X797012Y136659D01*
X797401Y138611D01*
X797012Y140563D01*
X795907Y142219D01*
X794251Y143324D01*
X792299Y143713D01*
D02*
G37*
G36*
X811349D02*
X809397Y143324D01*
X807741Y142219D01*
X806636Y140563D01*
X806247Y138611D01*
X806636Y136659D01*
X807741Y135003D01*
X809397Y133897D01*
X811349Y133509D01*
X813301Y133897D01*
X814957Y135003D01*
X816062Y136659D01*
X816451Y138611D01*
X816062Y140563D01*
X814957Y142219D01*
X813301Y143324D01*
X811349Y143713D01*
D02*
G37*
G36*
X689500Y182359D02*
X687532Y182100D01*
X685697Y181340D01*
X684122Y180132D01*
X682914Y178556D01*
X682154Y176722D01*
X681895Y174754D01*
X682154Y172786D01*
X682914Y170951D01*
X684122Y169376D01*
X685697Y168168D01*
X687532Y167408D01*
X689500Y167149D01*
X691468Y167408D01*
X693303Y168168D01*
X694878Y169376D01*
X696086Y170951D01*
X696846Y172786D01*
X697105Y174754D01*
X696846Y176722D01*
X696086Y178556D01*
X694878Y180132D01*
X693303Y181340D01*
X691468Y182100D01*
X689500Y182359D01*
D02*
G37*
G36*
X747000Y190859D02*
X745032Y190600D01*
X743197Y189840D01*
X741622Y188632D01*
X740414Y187057D01*
X739654Y185222D01*
X739395Y183254D01*
X739654Y181286D01*
X740414Y179452D01*
X741622Y177876D01*
X743197Y176668D01*
X745032Y175908D01*
X747000Y175649D01*
X748968Y175908D01*
X750803Y176668D01*
X752378Y177876D01*
X753586Y179452D01*
X754346Y181286D01*
X754605Y183254D01*
X754346Y185222D01*
X753586Y187057D01*
X752378Y188632D01*
X750803Y189840D01*
X748968Y190600D01*
X747000Y190859D01*
D02*
G37*
G36*
X775716Y171689D02*
X773748Y171430D01*
X771914Y170670D01*
X770338Y169462D01*
X769130Y167887D01*
X768370Y166052D01*
X768111Y164084D01*
X768370Y162116D01*
X769130Y160282D01*
X770338Y158706D01*
X771914Y157498D01*
X773748Y156738D01*
X775716Y156479D01*
X777684Y156738D01*
X779519Y157498D01*
X781094Y158706D01*
X782302Y160282D01*
X783062Y162116D01*
X783321Y164084D01*
X783062Y166052D01*
X782302Y167887D01*
X781094Y169462D01*
X779519Y170670D01*
X777684Y171430D01*
X775716Y171689D01*
D02*
G37*
G36*
X662500Y182359D02*
X660532Y182100D01*
X658698Y181340D01*
X657122Y180132D01*
X655914Y178556D01*
X655154Y176722D01*
X654895Y174754D01*
X655154Y172786D01*
X655914Y170951D01*
X657122Y169376D01*
X658698Y168168D01*
X660532Y167408D01*
X662500Y167149D01*
X664468Y167408D01*
X666302Y168168D01*
X667878Y169376D01*
X669086Y170951D01*
X669846Y172786D01*
X670105Y174754D01*
X669846Y176722D01*
X669086Y178556D01*
X667878Y180132D01*
X666302Y181340D01*
X664468Y182100D01*
X662500Y182359D01*
D02*
G37*
G36*
X824049Y49625D02*
X822097Y49236D01*
X820442Y48130D01*
X819335Y46475D01*
X818947Y44523D01*
X819335Y42571D01*
X820442Y40915D01*
X822097Y39810D01*
X824049Y39421D01*
X826001Y39810D01*
X827656Y40915D01*
X828763Y42571D01*
X829151Y44523D01*
X828763Y46475D01*
X827656Y48130D01*
X826001Y49236D01*
X824049Y49625D01*
D02*
G37*
G36*
X849449D02*
X847497Y49236D01*
X845842Y48130D01*
X844735Y46475D01*
X844347Y44523D01*
X844735Y42571D01*
X845842Y40915D01*
X847497Y39810D01*
X849449Y39421D01*
X851401Y39810D01*
X853056Y40915D01*
X854163Y42571D01*
X854551Y44523D01*
X854163Y46475D01*
X853056Y48130D01*
X851401Y49236D01*
X849449Y49625D01*
D02*
G37*
G36*
X779599D02*
X777647Y49236D01*
X775992Y48130D01*
X774885Y46475D01*
X774497Y44523D01*
X774885Y42571D01*
X775992Y40915D01*
X777647Y39810D01*
X779599Y39421D01*
X781551Y39810D01*
X783206Y40915D01*
X784313Y42571D01*
X784701Y44523D01*
X784313Y46475D01*
X783206Y48130D01*
X781551Y49236D01*
X779599Y49625D01*
D02*
G37*
G36*
X792299D02*
X790347Y49236D01*
X788691Y48130D01*
X787586Y46475D01*
X787197Y44523D01*
X787586Y42571D01*
X788691Y40915D01*
X790347Y39810D01*
X792299Y39421D01*
X794251Y39810D01*
X795907Y40915D01*
X797012Y42571D01*
X797401Y44523D01*
X797012Y46475D01*
X795907Y48130D01*
X794251Y49236D01*
X792299Y49625D01*
D02*
G37*
G36*
X636089Y49733D02*
X634137Y49345D01*
X632481Y48239D01*
X631376Y46583D01*
X630987Y44631D01*
X631376Y42679D01*
X632481Y41024D01*
X634137Y39918D01*
X636089Y39529D01*
X638041Y39918D01*
X639697Y41024D01*
X640803Y42679D01*
X641191Y44631D01*
X640803Y46583D01*
X639697Y48239D01*
X638041Y49345D01*
X636089Y49733D01*
D02*
G37*
G36*
X766899D02*
X764947Y49345D01*
X763291Y48239D01*
X762186Y46583D01*
X761797Y44631D01*
X762186Y42679D01*
X763291Y41024D01*
X764947Y39918D01*
X766899Y39529D01*
X768851Y39918D01*
X770507Y41024D01*
X771612Y42679D01*
X772001Y44631D01*
X771612Y46583D01*
X770507Y48239D01*
X768851Y49345D01*
X766899Y49733D01*
D02*
G37*
G36*
X515439D02*
X513487Y49345D01*
X511832Y48239D01*
X510726Y46583D01*
X510337Y44631D01*
X510726Y42679D01*
X511832Y41024D01*
X513487Y39918D01*
X515439Y39529D01*
X517391Y39918D01*
X519047Y41024D01*
X520153Y42679D01*
X520541Y44631D01*
X520153Y46583D01*
X519047Y48239D01*
X517391Y49345D01*
X515439Y49733D01*
D02*
G37*
G36*
X597989D02*
X596037Y49345D01*
X594381Y48239D01*
X593275Y46583D01*
X592887Y44631D01*
X593275Y42679D01*
X594381Y41024D01*
X596037Y39918D01*
X597989Y39529D01*
X599941Y39918D01*
X601596Y41024D01*
X602702Y42679D01*
X603091Y44631D01*
X602702Y46583D01*
X601596Y48239D01*
X599941Y49345D01*
X597989Y49733D01*
D02*
G37*
G36*
X728799Y49625D02*
X726847Y49236D01*
X725191Y48130D01*
X724085Y46475D01*
X723697Y44523D01*
X724085Y42571D01*
X725191Y40915D01*
X726847Y39810D01*
X728799Y39421D01*
X730751Y39810D01*
X732406Y40915D01*
X733512Y42571D01*
X733901Y44523D01*
X733512Y46475D01*
X732406Y48130D01*
X730751Y49236D01*
X728799Y49625D01*
D02*
G37*
G36*
X528139D02*
X526187Y49236D01*
X524532Y48130D01*
X523425Y46475D01*
X523037Y44523D01*
X523425Y42571D01*
X524532Y40915D01*
X526187Y39810D01*
X528139Y39421D01*
X530091Y39810D01*
X531746Y40915D01*
X532853Y42571D01*
X533241Y44523D01*
X532853Y46475D01*
X531746Y48130D01*
X530091Y49236D01*
X528139Y49625D01*
D02*
G37*
G36*
X553539D02*
X551587Y49236D01*
X549931Y48130D01*
X548825Y46475D01*
X548437Y44523D01*
X548825Y42571D01*
X549931Y40915D01*
X551587Y39810D01*
X553539Y39421D01*
X555491Y39810D01*
X557146Y40915D01*
X558252Y42571D01*
X558641Y44523D01*
X558252Y46475D01*
X557146Y48130D01*
X555491Y49236D01*
X553539Y49625D01*
D02*
G37*
G36*
X477339D02*
X475387Y49236D01*
X473731Y48130D01*
X472626Y46475D01*
X472237Y44523D01*
X472626Y42571D01*
X473731Y40915D01*
X475387Y39810D01*
X477339Y39421D01*
X479291Y39810D01*
X480947Y40915D01*
X482052Y42571D01*
X482441Y44523D01*
X482052Y46475D01*
X480947Y48130D01*
X479291Y49236D01*
X477339Y49625D01*
D02*
G37*
G36*
X490039D02*
X488087Y49236D01*
X486432Y48130D01*
X485326Y46475D01*
X484937Y44523D01*
X485326Y42571D01*
X486432Y40915D01*
X488087Y39810D01*
X490039Y39421D01*
X491991Y39810D01*
X493647Y40915D01*
X494753Y42571D01*
X495141Y44523D01*
X494753Y46475D01*
X493647Y48130D01*
X491991Y49236D01*
X490039Y49625D01*
D02*
G37*
G36*
X690699D02*
X688747Y49236D01*
X687092Y48130D01*
X685985Y46475D01*
X685597Y44523D01*
X685985Y42571D01*
X687092Y40915D01*
X688747Y39810D01*
X690699Y39421D01*
X692651Y39810D01*
X694306Y40915D01*
X695413Y42571D01*
X695801Y44523D01*
X695413Y46475D01*
X694306Y48130D01*
X692651Y49236D01*
X690699Y49625D01*
D02*
G37*
G36*
X703399D02*
X701447Y49236D01*
X699791Y48130D01*
X698686Y46475D01*
X698297Y44523D01*
X698686Y42571D01*
X699791Y40915D01*
X701447Y39810D01*
X703399Y39421D01*
X705351Y39810D01*
X707007Y40915D01*
X708112Y42571D01*
X708501Y44523D01*
X708112Y46475D01*
X707007Y48130D01*
X705351Y49236D01*
X703399Y49625D01*
D02*
G37*
G36*
X566239D02*
X564287Y49236D01*
X562631Y48130D01*
X561525Y46475D01*
X561137Y44523D01*
X561525Y42571D01*
X562631Y40915D01*
X564287Y39810D01*
X566239Y39421D01*
X568191Y39810D01*
X569846Y40915D01*
X570952Y42571D01*
X571341Y44523D01*
X570952Y46475D01*
X569846Y48130D01*
X568191Y49236D01*
X566239Y49625D01*
D02*
G37*
G36*
X610689D02*
X608737Y49236D01*
X607081Y48130D01*
X605975Y46475D01*
X605587Y44523D01*
X605975Y42571D01*
X607081Y40915D01*
X608737Y39810D01*
X610689Y39421D01*
X612641Y39810D01*
X614296Y40915D01*
X615402Y42571D01*
X615791Y44523D01*
X615402Y46475D01*
X614296Y48130D01*
X612641Y49236D01*
X610689Y49625D01*
D02*
G37*
G36*
X709749Y78689D02*
X707797Y78300D01*
X706142Y77194D01*
X705035Y75539D01*
X704647Y73587D01*
X705035Y71635D01*
X706142Y69980D01*
X707797Y68874D01*
X709749Y68485D01*
X711701Y68874D01*
X713356Y69980D01*
X714463Y71635D01*
X714851Y73587D01*
X714463Y75539D01*
X713356Y77194D01*
X711701Y78300D01*
X709749Y78689D01*
D02*
G37*
G36*
X735149D02*
X733197Y78300D01*
X731542Y77194D01*
X730435Y75539D01*
X730047Y73587D01*
X730435Y71635D01*
X731542Y69980D01*
X733197Y68874D01*
X735149Y68485D01*
X737101Y68874D01*
X738756Y69980D01*
X739863Y71635D01*
X740251Y73587D01*
X739863Y75539D01*
X738756Y77194D01*
X737101Y78300D01*
X735149Y78689D01*
D02*
G37*
G36*
X604339D02*
X602387Y78300D01*
X600732Y77194D01*
X599626Y75539D01*
X599237Y73587D01*
X599626Y71635D01*
X600732Y69980D01*
X602387Y68874D01*
X604339Y68485D01*
X606291Y68874D01*
X607947Y69980D01*
X609053Y71635D01*
X609441Y73587D01*
X609053Y75539D01*
X607947Y77194D01*
X606291Y78300D01*
X604339Y78689D01*
D02*
G37*
G36*
X697049D02*
X695097Y78300D01*
X693441Y77194D01*
X692336Y75539D01*
X691947Y73587D01*
X692336Y71635D01*
X693441Y69980D01*
X695097Y68874D01*
X697049Y68485D01*
X699001Y68874D01*
X700657Y69980D01*
X701762Y71635D01*
X702151Y73587D01*
X701762Y75539D01*
X700657Y77194D01*
X699001Y78300D01*
X697049Y78689D01*
D02*
G37*
G36*
X785949D02*
X783997Y78300D01*
X782342Y77194D01*
X781236Y75539D01*
X780847Y73587D01*
X781236Y71635D01*
X782342Y69980D01*
X783997Y68874D01*
X785949Y68485D01*
X787901Y68874D01*
X789557Y69980D01*
X790663Y71635D01*
X791051Y73587D01*
X790663Y75539D01*
X789557Y77194D01*
X787901Y78300D01*
X785949Y78689D01*
D02*
G37*
G36*
X817699D02*
X815747Y78300D01*
X814091Y77194D01*
X812986Y75539D01*
X812597Y73587D01*
X812986Y71635D01*
X814091Y69980D01*
X815747Y68874D01*
X817699Y68485D01*
X819651Y68874D01*
X821307Y69980D01*
X822412Y71635D01*
X822801Y73587D01*
X822412Y75539D01*
X821307Y77194D01*
X819651Y78300D01*
X817699Y78689D01*
D02*
G37*
G36*
X747849D02*
X745897Y78300D01*
X744241Y77194D01*
X743136Y75539D01*
X742747Y73587D01*
X743136Y71635D01*
X744241Y69980D01*
X745897Y68874D01*
X747849Y68485D01*
X749801Y68874D01*
X751457Y69980D01*
X752562Y71635D01*
X752951Y73587D01*
X752562Y75539D01*
X751457Y77194D01*
X749801Y78300D01*
X747849Y78689D01*
D02*
G37*
G36*
X773249D02*
X771297Y78300D01*
X769641Y77194D01*
X768536Y75539D01*
X768147Y73587D01*
X768536Y71635D01*
X769641Y69980D01*
X771297Y68874D01*
X773249Y68485D01*
X775201Y68874D01*
X776857Y69980D01*
X777962Y71635D01*
X778351Y73587D01*
X777962Y75539D01*
X776857Y77194D01*
X775201Y78300D01*
X773249Y78689D01*
D02*
G37*
G36*
X572589D02*
X570637Y78300D01*
X568982Y77194D01*
X567876Y75539D01*
X567487Y73587D01*
X567876Y71635D01*
X568982Y69980D01*
X570637Y68874D01*
X572589Y68485D01*
X574541Y68874D01*
X576197Y69980D01*
X577303Y71635D01*
X577691Y73587D01*
X577303Y75539D01*
X576197Y77194D01*
X574541Y78300D01*
X572589Y78689D01*
D02*
G37*
G36*
X578939Y49987D02*
X576987Y49598D01*
X575331Y48492D01*
X574226Y46837D01*
X573837Y44885D01*
X574226Y42933D01*
X575331Y41277D01*
X576987Y40171D01*
X578939Y39783D01*
X580891Y40171D01*
X582547Y41277D01*
X583652Y42933D01*
X584041Y44885D01*
X583652Y46837D01*
X582547Y48492D01*
X580891Y49598D01*
X578939Y49987D01*
D02*
G37*
G36*
X872744Y79574D02*
X870556Y79286D01*
X868517Y78442D01*
X866766Y77098D01*
X865422Y75347D01*
X864578Y73308D01*
X864290Y71120D01*
X864578Y68932D01*
X865422Y66893D01*
X866766Y65142D01*
X868517Y63798D01*
X870556Y62954D01*
X872744Y62666D01*
X874932Y62954D01*
X876971Y63798D01*
X878722Y65142D01*
X880066Y66893D01*
X880910Y68932D01*
X881198Y71120D01*
X880910Y73308D01*
X880066Y75347D01*
X878722Y77098D01*
X876971Y78442D01*
X874932Y79286D01*
X872744Y79574D01*
D02*
G37*
G36*
X811349Y49733D02*
X809397Y49345D01*
X807741Y48239D01*
X806636Y46583D01*
X806247Y44631D01*
X806636Y42679D01*
X807741Y41024D01*
X809397Y39918D01*
X811349Y39529D01*
X813301Y39918D01*
X814957Y41024D01*
X816062Y42679D01*
X816451Y44631D01*
X816062Y46583D01*
X814957Y48239D01*
X813301Y49345D01*
X811349Y49733D01*
D02*
G37*
G36*
X741499Y49879D02*
X739547Y49490D01*
X737891Y48384D01*
X736786Y46729D01*
X736397Y44777D01*
X736786Y42825D01*
X737891Y41170D01*
X739547Y40064D01*
X741499Y39675D01*
X743451Y40064D01*
X745107Y41170D01*
X746212Y42825D01*
X746601Y44777D01*
X746212Y46729D01*
X745107Y48384D01*
X743451Y49490D01*
X741499Y49879D01*
D02*
G37*
G36*
X496389Y78689D02*
X494437Y78300D01*
X492781Y77194D01*
X491675Y75539D01*
X491287Y73587D01*
X491675Y71635D01*
X492781Y69980D01*
X494437Y68874D01*
X496389Y68485D01*
X498341Y68874D01*
X499996Y69980D01*
X501102Y71635D01*
X501491Y73587D01*
X501102Y75539D01*
X499996Y77194D01*
X498341Y78300D01*
X496389Y78689D01*
D02*
G37*
G36*
X534489D02*
X532537Y78300D01*
X530882Y77194D01*
X529776Y75539D01*
X529387Y73587D01*
X529776Y71635D01*
X530882Y69980D01*
X532537Y68874D01*
X534489Y68485D01*
X536441Y68874D01*
X538097Y69980D01*
X539202Y71635D01*
X539591Y73587D01*
X539202Y75539D01*
X538097Y77194D01*
X536441Y78300D01*
X534489Y78689D01*
D02*
G37*
G36*
X559889Y78581D02*
X557937Y78193D01*
X556282Y77087D01*
X555176Y75431D01*
X554787Y73479D01*
X555176Y71527D01*
X556282Y69872D01*
X557937Y68766D01*
X559889Y68377D01*
X561841Y68766D01*
X563497Y69872D01*
X564603Y71527D01*
X564991Y73479D01*
X564603Y75431D01*
X563497Y77087D01*
X561841Y78193D01*
X559889Y78581D01*
D02*
G37*
G36*
X617039D02*
X615087Y78193D01*
X613432Y77087D01*
X612326Y75431D01*
X611937Y73479D01*
X612326Y71527D01*
X613432Y69872D01*
X615087Y68766D01*
X617039Y68377D01*
X618991Y68766D01*
X620647Y69872D01*
X621753Y71527D01*
X622141Y73479D01*
X621753Y75431D01*
X620647Y77087D01*
X618991Y78193D01*
X617039Y78581D01*
D02*
G37*
G36*
X806422Y545896D02*
X804470Y545507D01*
X802814Y544402D01*
X801709Y542746D01*
X801320Y540794D01*
X801709Y538842D01*
X802814Y537186D01*
X804470Y536081D01*
X806422Y535692D01*
X808374Y536081D01*
X810030Y537186D01*
X811135Y538842D01*
X811524Y540794D01*
X811135Y542746D01*
X810030Y544402D01*
X808374Y545507D01*
X806422Y545896D01*
D02*
G37*
G36*
X285000Y543548D02*
X283642Y543278D01*
X282491Y542509D01*
X281722Y541358D01*
X281452Y540000D01*
X281722Y538643D01*
X282491Y537491D01*
X283642Y536722D01*
X285000Y536452D01*
X286357Y536722D01*
X287509Y537491D01*
X288278Y538643D01*
X288548Y540000D01*
X288278Y541358D01*
X287509Y542509D01*
X286357Y543278D01*
X285000Y543548D01*
D02*
G37*
G36*
X806186Y532396D02*
X804234Y532007D01*
X802579Y530901D01*
X801472Y529246D01*
X801084Y527294D01*
X801472Y525342D01*
X802579Y523686D01*
X804234Y522580D01*
X806186Y522192D01*
X808138Y522580D01*
X809793Y523686D01*
X810900Y525342D01*
X811288Y527294D01*
X810900Y529246D01*
X809793Y530901D01*
X808138Y532007D01*
X806186Y532396D01*
D02*
G37*
G36*
X780170Y545496D02*
X778218Y545107D01*
X776562Y544002D01*
X775456Y542346D01*
X775068Y540394D01*
X775456Y538442D01*
X776562Y536786D01*
X778218Y535681D01*
X780170Y535292D01*
X782122Y535681D01*
X783778Y536786D01*
X784883Y538442D01*
X785272Y540394D01*
X784883Y542346D01*
X783778Y544002D01*
X782122Y545107D01*
X780170Y545496D01*
D02*
G37*
G36*
X325000Y543548D02*
X323643Y543278D01*
X322491Y542509D01*
X321722Y541358D01*
X321452Y540000D01*
X321722Y538643D01*
X322491Y537491D01*
X323643Y536722D01*
X325000Y536452D01*
X326358Y536722D01*
X327509Y537491D01*
X328278Y538643D01*
X328548Y540000D01*
X328278Y541358D01*
X327509Y542509D01*
X326358Y543278D01*
X325000Y543548D01*
D02*
G37*
G36*
X575000D02*
X573642Y543278D01*
X572491Y542509D01*
X571722Y541358D01*
X571452Y540000D01*
X571722Y538643D01*
X572491Y537491D01*
X573642Y536722D01*
X575000Y536452D01*
X576357Y536722D01*
X577509Y537491D01*
X578278Y538643D01*
X578548Y540000D01*
X578278Y541358D01*
X577509Y542509D01*
X576357Y543278D01*
X575000Y543548D01*
D02*
G37*
G36*
X295000D02*
X293642Y543278D01*
X292491Y542509D01*
X291722Y541358D01*
X291452Y540000D01*
X291722Y538643D01*
X292491Y537491D01*
X293642Y536722D01*
X295000Y536452D01*
X296357Y536722D01*
X297509Y537491D01*
X298278Y538643D01*
X298548Y540000D01*
X298278Y541358D01*
X297509Y542509D01*
X296357Y543278D01*
X295000Y543548D01*
D02*
G37*
G36*
X315000D02*
X313643Y543278D01*
X312491Y542509D01*
X311722Y541358D01*
X311452Y540000D01*
X311722Y538643D01*
X312491Y537491D01*
X313643Y536722D01*
X315000Y536452D01*
X316358Y536722D01*
X317509Y537491D01*
X318278Y538643D01*
X318548Y540000D01*
X318278Y541358D01*
X317509Y542509D01*
X316358Y543278D01*
X315000Y543548D01*
D02*
G37*
G36*
X818388Y525294D02*
X816436Y524906D01*
X814781Y523800D01*
X813674Y522144D01*
X813286Y520192D01*
X813674Y518240D01*
X814781Y516585D01*
X816436Y515479D01*
X818388Y515090D01*
X820340Y515479D01*
X821995Y516585D01*
X823102Y518240D01*
X823490Y520192D01*
X823102Y522144D01*
X821995Y523800D01*
X820340Y524906D01*
X818388Y525294D01*
D02*
G37*
G36*
X844477D02*
X842525Y524906D01*
X840870Y523800D01*
X839763Y522144D01*
X839375Y520192D01*
X839763Y518240D01*
X840870Y516585D01*
X842525Y515479D01*
X844477Y515090D01*
X846429Y515479D01*
X848085Y516585D01*
X849191Y518240D01*
X849579Y520192D01*
X849191Y522144D01*
X848085Y523800D01*
X846429Y524906D01*
X844477Y525294D01*
D02*
G37*
G36*
X605000Y513548D02*
X603643Y513278D01*
X602491Y512509D01*
X601722Y511357D01*
X601452Y510000D01*
X601722Y508642D01*
X602491Y507491D01*
X603643Y506722D01*
X605000Y506452D01*
X606358Y506722D01*
X607509Y507491D01*
X608278Y508642D01*
X608548Y510000D01*
X608278Y511357D01*
X607509Y512509D01*
X606358Y513278D01*
X605000Y513548D01*
D02*
G37*
G36*
X615000D02*
X613643Y513278D01*
X612491Y512509D01*
X611722Y511357D01*
X611452Y510000D01*
X611722Y508642D01*
X612491Y507491D01*
X613643Y506722D01*
X615000Y506452D01*
X616358Y506722D01*
X617509Y507491D01*
X618278Y508642D01*
X618548Y510000D01*
X618278Y511357D01*
X617509Y512509D01*
X616358Y513278D01*
X615000Y513548D01*
D02*
G37*
G36*
X585000Y523548D02*
X583642Y523278D01*
X582491Y522509D01*
X581722Y521357D01*
X581452Y520000D01*
X581722Y518642D01*
X582491Y517491D01*
X583642Y516722D01*
X585000Y516452D01*
X586357Y516722D01*
X587509Y517491D01*
X588278Y518642D01*
X588548Y520000D01*
X588278Y521357D01*
X587509Y522509D01*
X586357Y523278D01*
X585000Y523548D01*
D02*
G37*
G36*
X605000D02*
X603643Y523278D01*
X602491Y522509D01*
X601722Y521357D01*
X601452Y520000D01*
X601722Y518642D01*
X602491Y517491D01*
X603643Y516722D01*
X605000Y516452D01*
X606358Y516722D01*
X607509Y517491D01*
X608278Y518642D01*
X608548Y520000D01*
X608278Y521357D01*
X607509Y522509D01*
X606358Y523278D01*
X605000Y523548D01*
D02*
G37*
G36*
X295000D02*
X293642Y523278D01*
X292491Y522509D01*
X291722Y521357D01*
X291452Y520000D01*
X291722Y518642D01*
X292491Y517491D01*
X293642Y516722D01*
X295000Y516452D01*
X296357Y516722D01*
X297509Y517491D01*
X298278Y518642D01*
X298548Y520000D01*
X298278Y521357D01*
X297509Y522509D01*
X296357Y523278D01*
X295000Y523548D01*
D02*
G37*
G36*
X315000D02*
X313643Y523278D01*
X312491Y522509D01*
X311722Y521357D01*
X311452Y520000D01*
X311722Y518642D01*
X312491Y517491D01*
X313643Y516722D01*
X315000Y516452D01*
X316358Y516722D01*
X317509Y517491D01*
X318278Y518642D01*
X318548Y520000D01*
X318278Y521357D01*
X317509Y522509D01*
X316358Y523278D01*
X315000Y523548D01*
D02*
G37*
G36*
X585000Y543548D02*
X583642Y543278D01*
X582491Y542509D01*
X581722Y541358D01*
X581452Y540000D01*
X581722Y538643D01*
X582491Y537491D01*
X583642Y536722D01*
X585000Y536452D01*
X586357Y536722D01*
X587509Y537491D01*
X588278Y538643D01*
X588548Y540000D01*
X588278Y541358D01*
X587509Y542509D01*
X586357Y543278D01*
X585000Y543548D01*
D02*
G37*
G36*
X865416Y664919D02*
X863448Y664660D01*
X861613Y663900D01*
X860038Y662692D01*
X858830Y661116D01*
X858070Y659282D01*
X857811Y657314D01*
X858070Y655346D01*
X858830Y653512D01*
X860038Y651936D01*
X861613Y650728D01*
X863448Y649968D01*
X865416Y649709D01*
X867384Y649968D01*
X869219Y650728D01*
X870794Y651936D01*
X872002Y653512D01*
X872762Y655346D01*
X873021Y657314D01*
X872762Y659282D01*
X872002Y661116D01*
X870794Y662692D01*
X869219Y663900D01*
X867384Y664660D01*
X865416Y664919D01*
D02*
G37*
G36*
X865162Y691919D02*
X863194Y691660D01*
X861359Y690900D01*
X859784Y689692D01*
X858576Y688117D01*
X857816Y686282D01*
X857557Y684314D01*
X857816Y682346D01*
X858576Y680511D01*
X859784Y678936D01*
X861359Y677728D01*
X863194Y676968D01*
X865162Y676709D01*
X867130Y676968D01*
X868964Y677728D01*
X870540Y678936D01*
X871748Y680511D01*
X872508Y682346D01*
X872767Y684314D01*
X872508Y686282D01*
X871748Y688117D01*
X870540Y689692D01*
X868964Y690900D01*
X867130Y691660D01*
X865162Y691919D01*
D02*
G37*
G36*
X794274Y628910D02*
X792322Y628521D01*
X790667Y627416D01*
X789560Y625760D01*
X789172Y623808D01*
X789560Y621856D01*
X790667Y620201D01*
X792322Y619095D01*
X794274Y618706D01*
X796226Y619095D01*
X797881Y620201D01*
X798988Y621856D01*
X799376Y623808D01*
X798988Y625760D01*
X797881Y627416D01*
X796226Y628521D01*
X794274Y628910D01*
D02*
G37*
G36*
X783641Y634006D02*
X781688Y633618D01*
X780033Y632511D01*
X779273D01*
X777618Y633618D01*
X775665Y634006D01*
X773713Y633618D01*
X772058Y632511D01*
X770952Y630856D01*
X770563Y628904D01*
X770952Y626952D01*
X772058Y625297D01*
X773713Y624190D01*
X775665Y623802D01*
X777618Y624190D01*
X779273Y625297D01*
X780033D01*
X781688Y624190D01*
X783641Y623802D01*
X785593Y624190D01*
X787248Y625297D01*
X788354Y626952D01*
X788743Y628904D01*
X788354Y630856D01*
X787248Y632511D01*
X785593Y633618D01*
X783641Y634006D01*
D02*
G37*
G36*
X843930Y745664D02*
X841651Y745211D01*
X839720Y743920D01*
X838565Y742192D01*
X837295D01*
X836140Y743920D01*
X834209Y745211D01*
X831930Y745664D01*
X829651Y745211D01*
X827720Y743920D01*
X826565Y742192D01*
X825295D01*
X824140Y743920D01*
X822209Y745211D01*
X819930Y745664D01*
X817651Y745211D01*
X815720Y743920D01*
X814429Y741989D01*
X813976Y739710D01*
X814429Y737431D01*
X815720Y735500D01*
X816019Y735300D01*
X816005Y735254D01*
X816467D01*
X817448Y734599D01*
Y733329D01*
X815720Y732174D01*
X814429Y730243D01*
X813976Y727964D01*
X814429Y725685D01*
X815720Y723754D01*
X817448Y722599D01*
Y721329D01*
X815720Y720174D01*
X814429Y718243D01*
X813976Y715964D01*
X814429Y713685D01*
X815720Y711754D01*
X817651Y710463D01*
X819930Y710010D01*
X822209Y710463D01*
X824140Y711754D01*
X825295Y713482D01*
X826565D01*
X827720Y711754D01*
X829651Y710463D01*
X831930Y710010D01*
X834209Y710463D01*
X836140Y711754D01*
X837295Y713482D01*
X838565D01*
X839720Y711754D01*
X841651Y710463D01*
X843930Y710010D01*
X846209Y710463D01*
X848140Y711754D01*
X849431Y713685D01*
X849884Y715964D01*
X849431Y718243D01*
X848140Y720174D01*
X846412Y721329D01*
Y722599D01*
X848140Y723754D01*
X849431Y725685D01*
X849884Y727964D01*
X849431Y730243D01*
X848140Y732174D01*
X846412Y733329D01*
Y734599D01*
X847393Y735254D01*
X847855D01*
X847841Y735300D01*
X848140Y735500D01*
X849431Y737431D01*
X849884Y739710D01*
X849431Y741989D01*
X848140Y743920D01*
X846209Y745211D01*
X843930Y745664D01*
D02*
G37*
G36*
X863388Y807155D02*
X861420Y806896D01*
X859585Y806136D01*
X858010Y804928D01*
X856802Y803353D01*
X856042Y801518D01*
X855783Y799550D01*
X856042Y797582D01*
X856802Y795748D01*
X858010Y794172D01*
X859585Y792964D01*
X861420Y792204D01*
X863388Y791945D01*
X865356Y792204D01*
X867190Y792964D01*
X868766Y794172D01*
X869974Y795748D01*
X870734Y797582D01*
X870993Y799550D01*
X870734Y801518D01*
X869974Y803353D01*
X868766Y804928D01*
X867190Y806136D01*
X865356Y806896D01*
X863388Y807155D01*
D02*
G37*
G36*
X869696Y739162D02*
X867744Y738773D01*
X866088Y737668D01*
X864983Y736012D01*
X864619Y734187D01*
X864983Y732362D01*
X866088Y730706D01*
X867744Y729601D01*
X869696Y729212D01*
X871648Y729601D01*
X873304Y730706D01*
X874409Y732362D01*
X874772Y734187D01*
X874409Y736012D01*
X873304Y737668D01*
X871648Y738773D01*
X869696Y739162D01*
D02*
G37*
G36*
X795274Y739416D02*
X793322Y739027D01*
X791666Y737922D01*
X790561Y736266D01*
X790198Y734441D01*
X790561Y732616D01*
X791666Y730960D01*
X793322Y729855D01*
X795274Y729466D01*
X797226Y729855D01*
X798882Y730960D01*
X799987Y732616D01*
X800350Y734441D01*
X799987Y736266D01*
X798882Y737922D01*
X797226Y739027D01*
X795274Y739416D01*
D02*
G37*
G36*
X285000Y553548D02*
X283642Y553278D01*
X282491Y552509D01*
X281722Y551358D01*
X281452Y550000D01*
X281722Y548643D01*
X282491Y547491D01*
X283642Y546722D01*
X285000Y546452D01*
X286357Y546722D01*
X287509Y547491D01*
X288278Y548643D01*
X288548Y550000D01*
X288278Y551358D01*
X287509Y552509D01*
X286357Y553278D01*
X285000Y553548D01*
D02*
G37*
G36*
X325000D02*
X323643Y553278D01*
X322491Y552509D01*
X321722Y551358D01*
X321452Y550000D01*
X321722Y548643D01*
X322491Y547491D01*
X323643Y546722D01*
X325000Y546452D01*
X326358Y546722D01*
X327509Y547491D01*
X328278Y548643D01*
X328548Y550000D01*
X328278Y551358D01*
X327509Y552509D01*
X326358Y553278D01*
X325000Y553548D01*
D02*
G37*
G36*
X605000Y543548D02*
X603643Y543278D01*
X602491Y542509D01*
X601722Y541358D01*
X601452Y540000D01*
X601722Y538643D01*
X602491Y537491D01*
X603643Y536722D01*
X605000Y536452D01*
X606358Y536722D01*
X607509Y537491D01*
X608278Y538643D01*
X608548Y540000D01*
X608278Y541358D01*
X607509Y542509D01*
X606358Y543278D01*
X605000Y543548D01*
D02*
G37*
G36*
X615000D02*
X613643Y543278D01*
X612491Y542509D01*
X611722Y541358D01*
X611452Y540000D01*
X611722Y538643D01*
X612491Y537491D01*
X613643Y536722D01*
X615000Y536452D01*
X616358Y536722D01*
X617509Y537491D01*
X618278Y538643D01*
X618548Y540000D01*
X618278Y541358D01*
X617509Y542509D01*
X616358Y543278D01*
X615000Y543548D01*
D02*
G37*
G36*
X788670Y587473D02*
X786688Y587079D01*
X785007Y585956D01*
X784333D01*
X782652Y587079D01*
X780670Y587473D01*
X778688Y587079D01*
X777008Y585956D01*
X775885Y584276D01*
X775490Y582294D01*
X775885Y580312D01*
X777008Y578632D01*
Y577957D01*
X775885Y576276D01*
X775490Y574294D01*
X775885Y572312D01*
X777008Y570631D01*
X778688Y569509D01*
X780670Y569114D01*
X782652Y569509D01*
X784333Y570631D01*
X785007D01*
X786688Y569509D01*
X788670Y569114D01*
X790652Y569509D01*
X792333Y570631D01*
X793455Y572312D01*
X793849Y574294D01*
X793455Y576276D01*
X792333Y577957D01*
Y578632D01*
X793455Y580312D01*
X793849Y582294D01*
X793455Y584276D01*
X792333Y585956D01*
X790652Y587079D01*
X788670Y587473D01*
D02*
G37*
G36*
X812710Y621650D02*
X810758Y621261D01*
X809102Y620155D01*
X807997Y618500D01*
X807608Y616548D01*
X807997Y614596D01*
X809102Y612940D01*
X810758Y611834D01*
X812710Y611446D01*
X814662Y611834D01*
X816318Y612940D01*
X817423Y614596D01*
X817812Y616548D01*
X817423Y618500D01*
X816318Y620155D01*
X814662Y621261D01*
X812710Y621650D01*
D02*
G37*
G36*
X575000Y553548D02*
X573642Y553278D01*
X572491Y552509D01*
X571722Y551358D01*
X571452Y550000D01*
X571722Y548643D01*
X572491Y547491D01*
X573642Y546722D01*
X575000Y546452D01*
X576357Y546722D01*
X577509Y547491D01*
X578278Y548643D01*
X578548Y550000D01*
X578278Y551358D01*
X577509Y552509D01*
X576357Y553278D01*
X575000Y553548D01*
D02*
G37*
G36*
X615000D02*
X613643Y553278D01*
X612491Y552509D01*
X611722Y551358D01*
X611452Y550000D01*
X611722Y548643D01*
X612491Y547491D01*
X613643Y546722D01*
X615000Y546452D01*
X616358Y546722D01*
X617509Y547491D01*
X618278Y548643D01*
X618548Y550000D01*
X618278Y551358D01*
X617509Y552509D01*
X616358Y553278D01*
X615000Y553548D01*
D02*
G37*
G36*
X847500Y416208D02*
X845221Y415755D01*
X843290Y414464D01*
X842135Y412736D01*
X840865D01*
X839710Y414464D01*
X837779Y415755D01*
X835500Y416208D01*
X833221Y415755D01*
X831290Y414464D01*
X830135Y412736D01*
X828865D01*
X827710Y414464D01*
X825779Y415755D01*
X823500Y416208D01*
X821221Y415755D01*
X819290Y414464D01*
X817999Y412533D01*
X817546Y410254D01*
X817999Y407975D01*
X819290Y406044D01*
X821018Y404889D01*
Y403619D01*
X819290Y402464D01*
X817999Y400533D01*
X817546Y398254D01*
X817999Y395975D01*
X819290Y394044D01*
X821018Y392889D01*
Y391619D01*
X819290Y390464D01*
X817999Y388533D01*
X817546Y386254D01*
X817999Y383975D01*
X819290Y382044D01*
X821221Y380753D01*
X823500Y380300D01*
X825779Y380753D01*
X827710Y382044D01*
X828865Y383772D01*
X830135D01*
X831290Y382044D01*
X833221Y380753D01*
X835500Y380300D01*
X837779Y380753D01*
X839710Y382044D01*
X840865Y383772D01*
X842135D01*
X843290Y382044D01*
X845221Y380753D01*
X847500Y380300D01*
X849779Y380753D01*
X851710Y382044D01*
X853001Y383975D01*
X853454Y386254D01*
X853001Y388533D01*
X851710Y390464D01*
X849982Y391619D01*
Y392889D01*
X851710Y394044D01*
X853001Y395975D01*
X853454Y398254D01*
X853001Y400533D01*
X851710Y402464D01*
X849982Y403619D01*
Y404889D01*
X851710Y406044D01*
X853001Y407975D01*
X853454Y410254D01*
X853001Y412533D01*
X851710Y414464D01*
X849779Y415755D01*
X847500Y416208D01*
D02*
G37*
G36*
X850000Y440356D02*
X848048Y439967D01*
X846392Y438862D01*
X845286Y437206D01*
X844898Y435254D01*
X845286Y433302D01*
X846392Y431646D01*
X848048Y430541D01*
X850000Y430152D01*
X851952Y430541D01*
X853607Y431646D01*
X854714Y433302D01*
X855102Y435254D01*
X854714Y437206D01*
X853607Y438862D01*
X851952Y439967D01*
X850000Y440356D01*
D02*
G37*
G36*
X788952Y370216D02*
X787000Y369827D01*
X785344Y368722D01*
X784239Y367066D01*
X783850Y365114D01*
X784239Y363162D01*
X785344Y361507D01*
X787000Y360401D01*
X788952Y360012D01*
X790904Y360401D01*
X792560Y361507D01*
X793665Y363162D01*
X794054Y365114D01*
X793665Y367066D01*
X792560Y368722D01*
X790904Y369827D01*
X788952Y370216D01*
D02*
G37*
G36*
X869122Y396882D02*
X867170Y396493D01*
X865515Y395388D01*
X864408Y393732D01*
X864020Y391780D01*
X864408Y389828D01*
X865515Y388172D01*
X867170Y387066D01*
X869122Y386678D01*
X871074Y387066D01*
X872729Y388172D01*
X873836Y389828D01*
X874224Y391780D01*
X873836Y393732D01*
X872729Y395388D01*
X871074Y396493D01*
X869122Y396882D01*
D02*
G37*
G36*
X585000Y463548D02*
X583642Y463278D01*
X582491Y462509D01*
X581722Y461357D01*
X581452Y460000D01*
X581722Y458642D01*
X582491Y457491D01*
X583642Y456722D01*
X585000Y456452D01*
X586357Y456722D01*
X587509Y457491D01*
X588278Y458642D01*
X588548Y460000D01*
X588278Y461357D01*
X587509Y462509D01*
X586357Y463278D01*
X585000Y463548D01*
D02*
G37*
G36*
X773500Y479359D02*
X771532Y479100D01*
X769697Y478340D01*
X768122Y477132D01*
X766914Y475557D01*
X766154Y473722D01*
X765895Y471754D01*
X766154Y469786D01*
X766914Y467952D01*
X768122Y466376D01*
X769697Y465168D01*
X771532Y464408D01*
X773500Y464149D01*
X775468Y464408D01*
X777302Y465168D01*
X778878Y466376D01*
X780086Y467952D01*
X780846Y469786D01*
X781105Y471754D01*
X780846Y473722D01*
X780086Y475557D01*
X778878Y477132D01*
X777302Y478340D01*
X775468Y479100D01*
X773500Y479359D01*
D02*
G37*
G36*
Y452359D02*
X771532Y452100D01*
X769697Y451340D01*
X768122Y450132D01*
X766914Y448557D01*
X766154Y446722D01*
X765895Y444754D01*
X766154Y442786D01*
X766914Y440951D01*
X768122Y439376D01*
X769697Y438168D01*
X771532Y437408D01*
X773500Y437149D01*
X775468Y437408D01*
X777302Y438168D01*
X778878Y439376D01*
X780086Y440951D01*
X780846Y442786D01*
X781105Y444754D01*
X780846Y446722D01*
X780086Y448557D01*
X778878Y450132D01*
X777302Y451340D01*
X775468Y452100D01*
X773500Y452359D01*
D02*
G37*
G36*
X295000Y463548D02*
X293642Y463278D01*
X292491Y462509D01*
X291722Y461357D01*
X291452Y460000D01*
X291722Y458642D01*
X292491Y457491D01*
X293642Y456722D01*
X295000Y456452D01*
X296357Y456722D01*
X297509Y457491D01*
X298278Y458642D01*
X298548Y460000D01*
X298278Y461357D01*
X297509Y462509D01*
X296357Y463278D01*
X295000Y463548D01*
D02*
G37*
G36*
X860298Y309865D02*
X858330Y309606D01*
X856496Y308846D01*
X854920Y307638D01*
X853712Y306063D01*
X852952Y304228D01*
X852693Y302260D01*
X852952Y300292D01*
X853712Y298458D01*
X854920Y296882D01*
X856496Y295674D01*
X858330Y294914D01*
X860298Y294655D01*
X862266Y294914D01*
X864100Y295674D01*
X865676Y296882D01*
X866884Y298458D01*
X867644Y300292D01*
X867903Y302260D01*
X867644Y304228D01*
X866884Y306063D01*
X865676Y307638D01*
X864100Y308846D01*
X862266Y309606D01*
X860298Y309865D01*
D02*
G37*
G36*
X693614Y315647D02*
X691646Y315388D01*
X689811Y314628D01*
X688236Y313420D01*
X687028Y311845D01*
X686268Y310010D01*
X686009Y308042D01*
X686268Y306074D01*
X687028Y304240D01*
X688236Y302664D01*
X689811Y301456D01*
X691646Y300696D01*
X693614Y300437D01*
X695582Y300696D01*
X697417Y301456D01*
X698992Y302664D01*
X700200Y304240D01*
X700960Y306074D01*
X701219Y308042D01*
X700960Y310010D01*
X700200Y311845D01*
X698992Y313420D01*
X697417Y314628D01*
X695582Y315388D01*
X693614Y315647D01*
D02*
G37*
G36*
X675500Y305965D02*
X673532Y305706D01*
X671697Y304946D01*
X670122Y303738D01*
X668914Y302162D01*
X668154Y300328D01*
X667895Y298360D01*
X668154Y296392D01*
X668914Y294557D01*
X670122Y292982D01*
X671697Y291774D01*
X673532Y291014D01*
X675500Y290755D01*
X677468Y291014D01*
X679303Y291774D01*
X680878Y292982D01*
X682086Y294557D01*
X682846Y296392D01*
X683105Y298360D01*
X682846Y300328D01*
X682086Y302162D01*
X680878Y303738D01*
X679303Y304946D01*
X677468Y305706D01*
X675500Y305965D01*
D02*
G37*
G36*
X764000Y296208D02*
X761721Y295755D01*
X759790Y294464D01*
X758635Y292736D01*
X757365D01*
X756210Y294464D01*
X754279Y295755D01*
X752000Y296208D01*
X749721Y295755D01*
X747790Y294464D01*
X746635Y292736D01*
X745365D01*
X744210Y294464D01*
X742279Y295755D01*
X740000Y296208D01*
X737721Y295755D01*
X735790Y294464D01*
X734499Y292533D01*
X734046Y290254D01*
X734499Y287975D01*
X735790Y286044D01*
X737518Y284889D01*
Y283619D01*
X735790Y282464D01*
X734499Y280533D01*
X734046Y278254D01*
X734499Y275975D01*
X735790Y274044D01*
X737518Y272889D01*
Y271619D01*
X735790Y270464D01*
X734499Y268533D01*
X734046Y266254D01*
X734499Y263975D01*
X735790Y262044D01*
X737721Y260753D01*
X740000Y260300D01*
X742279Y260753D01*
X744210Y262044D01*
X745365Y263772D01*
X746635D01*
X747790Y262044D01*
X749721Y260753D01*
X752000Y260300D01*
X754279Y260753D01*
X756210Y262044D01*
X757365Y263772D01*
X758635D01*
X759790Y262044D01*
X761721Y260753D01*
X764000Y260300D01*
X766279Y260753D01*
X768210Y262044D01*
X769501Y263975D01*
X769954Y266254D01*
X769501Y268533D01*
X768210Y270464D01*
X766482Y271619D01*
Y272889D01*
X768210Y274044D01*
X769501Y275975D01*
X769954Y278254D01*
X769501Y280533D01*
X768210Y282464D01*
X766482Y283619D01*
Y284889D01*
X768210Y286044D01*
X769501Y287975D01*
X769954Y290254D01*
X769501Y292533D01*
X768210Y294464D01*
X766279Y295755D01*
X764000Y296208D01*
D02*
G37*
G36*
X883000Y335359D02*
X881032Y335100D01*
X879197Y334340D01*
X877622Y333132D01*
X876414Y331557D01*
X875654Y329722D01*
X875395Y327754D01*
X875654Y325786D01*
X876414Y323951D01*
X877622Y322376D01*
X879197Y321168D01*
X881032Y320408D01*
X883000Y320149D01*
X884968Y320408D01*
X886803Y321168D01*
X888378Y322376D01*
X889586Y323951D01*
X890346Y325786D01*
X890605Y327754D01*
X890346Y329722D01*
X889586Y331557D01*
X888378Y333132D01*
X886803Y334340D01*
X884968Y335100D01*
X883000Y335359D01*
D02*
G37*
G36*
X693420Y341869D02*
X691452Y341610D01*
X689617Y340850D01*
X688042Y339642D01*
X686834Y338066D01*
X686074Y336232D01*
X685815Y334264D01*
X686074Y332296D01*
X686834Y330462D01*
X688042Y328886D01*
X689617Y327678D01*
X691452Y326918D01*
X693420Y326659D01*
X695388Y326918D01*
X697223Y327678D01*
X698798Y328886D01*
X700006Y330462D01*
X700766Y332296D01*
X701025Y334264D01*
X700766Y336232D01*
X700006Y338066D01*
X698798Y339642D01*
X697223Y340850D01*
X695388Y341610D01*
X693420Y341869D01*
D02*
G37*
G36*
X787146Y315744D02*
X785194Y315355D01*
X783538Y314249D01*
X782432Y312594D01*
X782044Y310642D01*
X782432Y308690D01*
X783538Y307034D01*
X785194Y305928D01*
X787146Y305540D01*
X789098Y305928D01*
X790753Y307034D01*
X791860Y308690D01*
X792248Y310642D01*
X791860Y312594D01*
X790753Y314249D01*
X789098Y315355D01*
X787146Y315744D01*
D02*
G37*
G36*
X806000Y335359D02*
X804032Y335100D01*
X802197Y334340D01*
X800622Y333132D01*
X799414Y331557D01*
X798654Y329722D01*
X798395Y327754D01*
X798654Y325786D01*
X799414Y323951D01*
X800622Y322376D01*
X802197Y321168D01*
X804032Y320408D01*
X806000Y320149D01*
X807968Y320408D01*
X809802Y321168D01*
X811377Y322376D01*
X812586Y323951D01*
X813346Y325786D01*
X813605Y327754D01*
X813346Y329722D01*
X812586Y331557D01*
X811377Y333132D01*
X809802Y334340D01*
X807968Y335100D01*
X806000Y335359D01*
D02*
G37*
G36*
X295000Y473548D02*
X293642Y473278D01*
X292491Y472509D01*
X291722Y471357D01*
X291452Y470000D01*
X291722Y468642D01*
X292491Y467491D01*
X293642Y466722D01*
X295000Y466452D01*
X296357Y466722D01*
X297509Y467491D01*
X298278Y468642D01*
X298548Y470000D01*
X298278Y471357D01*
X297509Y472509D01*
X296357Y473278D01*
X295000Y473548D01*
D02*
G37*
G36*
X315000Y503548D02*
X313643Y503278D01*
X312491Y502509D01*
X311722Y501357D01*
X311452Y500000D01*
X311722Y498642D01*
X312491Y497491D01*
X313643Y496722D01*
X315000Y496452D01*
X316358Y496722D01*
X317509Y497491D01*
X318278Y498642D01*
X318548Y500000D01*
X318278Y501357D01*
X317509Y502509D01*
X316358Y503278D01*
X315000Y503548D01*
D02*
G37*
G36*
X605000D02*
X603643Y503278D01*
X602491Y502509D01*
X601722Y501357D01*
X601452Y500000D01*
X601722Y498642D01*
X602491Y497491D01*
X603643Y496722D01*
X605000Y496452D01*
X606358Y496722D01*
X607509Y497491D01*
X608278Y498642D01*
X608548Y500000D01*
X608278Y501357D01*
X607509Y502509D01*
X606358Y503278D01*
X605000Y503548D01*
D02*
G37*
G36*
Y493548D02*
X603643Y493278D01*
X602491Y492509D01*
X601722Y491357D01*
X601452Y490000D01*
X601722Y488642D01*
X602491Y487491D01*
X603643Y486722D01*
X605000Y486452D01*
X606358Y486722D01*
X607509Y487491D01*
X608278Y488642D01*
X608548Y490000D01*
X608278Y491357D01*
X607509Y492509D01*
X606358Y493278D01*
X605000Y493548D01*
D02*
G37*
G36*
X754770Y517009D02*
X752802Y516750D01*
X750967Y515990D01*
X749392Y514782D01*
X748184Y513207D01*
X747424Y511372D01*
X747165Y509404D01*
X747424Y507436D01*
X748184Y505602D01*
X749392Y504026D01*
X750967Y502818D01*
X751640Y502539D01*
Y501269D01*
X750967Y500990D01*
X749392Y499782D01*
X748184Y498207D01*
X747424Y496372D01*
X747165Y494404D01*
X747424Y492436D01*
X748184Y490602D01*
X749392Y489026D01*
X750967Y487818D01*
X752802Y487058D01*
X754770Y486799D01*
X756738Y487058D01*
X758572Y487818D01*
X760147Y489026D01*
X761356Y490602D01*
X762116Y492436D01*
X762375Y494404D01*
X762116Y496372D01*
X761356Y498207D01*
X760147Y499782D01*
X758572Y500990D01*
X757899Y501269D01*
Y502539D01*
X758572Y502818D01*
X760147Y504026D01*
X761356Y505602D01*
X762116Y507436D01*
X762375Y509404D01*
X762116Y511372D01*
X761356Y513207D01*
X760147Y514782D01*
X758572Y515990D01*
X756738Y516750D01*
X754770Y517009D01*
D02*
G37*
G36*
X325000Y513548D02*
X323643Y513278D01*
X322491Y512509D01*
X321722Y511357D01*
X321452Y510000D01*
X321722Y508642D01*
X322491Y507491D01*
X323643Y506722D01*
X325000Y506452D01*
X326358Y506722D01*
X327509Y507491D01*
X328278Y508642D01*
X328548Y510000D01*
X328278Y511357D01*
X327509Y512509D01*
X326358Y513278D01*
X325000Y513548D01*
D02*
G37*
G36*
X585000D02*
X583642Y513278D01*
X582491Y512509D01*
X581722Y511357D01*
X581452Y510000D01*
X581722Y508642D01*
X582491Y507491D01*
X583642Y506722D01*
X585000Y506452D01*
X586357Y506722D01*
X587509Y507491D01*
X588278Y508642D01*
X588548Y510000D01*
X588278Y511357D01*
X587509Y512509D01*
X586357Y513278D01*
X585000Y513548D01*
D02*
G37*
G36*
X295000D02*
X293642Y513278D01*
X292491Y512509D01*
X291722Y511357D01*
X291452Y510000D01*
X291722Y508642D01*
X292491Y507491D01*
X293642Y506722D01*
X295000Y506452D01*
X296357Y506722D01*
X297509Y507491D01*
X298278Y508642D01*
X298548Y510000D01*
X298278Y511357D01*
X297509Y512509D01*
X296357Y513278D01*
X295000Y513548D01*
D02*
G37*
G36*
X315000D02*
X313643Y513278D01*
X312491Y512509D01*
X311722Y511357D01*
X311452Y510000D01*
X311722Y508642D01*
X312491Y507491D01*
X313643Y506722D01*
X315000Y506452D01*
X316358Y506722D01*
X317509Y507491D01*
X318278Y508642D01*
X318548Y510000D01*
X318278Y511357D01*
X317509Y512509D01*
X316358Y513278D01*
X315000Y513548D01*
D02*
G37*
G36*
Y483548D02*
X313643Y483278D01*
X312491Y482509D01*
X311722Y481357D01*
X311452Y480000D01*
X311722Y478642D01*
X312491Y477491D01*
X313643Y476722D01*
X315000Y476452D01*
X316358Y476722D01*
X317509Y477491D01*
X318278Y478642D01*
X318548Y480000D01*
X318278Y481357D01*
X317509Y482509D01*
X316358Y483278D01*
X315000Y483548D01*
D02*
G37*
G36*
X325000D02*
X323643Y483278D01*
X322491Y482509D01*
X321722Y481357D01*
X321452Y480000D01*
X321722Y478642D01*
X322491Y477491D01*
X323643Y476722D01*
X325000Y476452D01*
X326358Y476722D01*
X327509Y477491D01*
X328278Y478642D01*
X328548Y480000D01*
X328278Y481357D01*
X327509Y482509D01*
X326358Y483278D01*
X325000Y483548D01*
D02*
G37*
G36*
X585000Y473548D02*
X583642Y473278D01*
X582491Y472509D01*
X581722Y471357D01*
X581452Y470000D01*
X581722Y468642D01*
X582491Y467491D01*
X583642Y466722D01*
X585000Y466452D01*
X586357Y466722D01*
X587509Y467491D01*
X588278Y468642D01*
X588548Y470000D01*
X588278Y471357D01*
X587509Y472509D01*
X586357Y473278D01*
X585000Y473548D01*
D02*
G37*
G36*
X295000Y483548D02*
X293642Y483278D01*
X292491Y482509D01*
X291722Y481357D01*
X291452Y480000D01*
X291722Y478642D01*
X292491Y477491D01*
X293642Y476722D01*
X295000Y476452D01*
X296357Y476722D01*
X297509Y477491D01*
X298278Y478642D01*
X298548Y480000D01*
X298278Y481357D01*
X297509Y482509D01*
X296357Y483278D01*
X295000Y483548D01*
D02*
G37*
G36*
X615000D02*
X613643Y483278D01*
X612491Y482509D01*
X611722Y481357D01*
X611452Y480000D01*
X611722Y478642D01*
X612491Y477491D01*
X613643Y476722D01*
X615000Y476452D01*
X616358Y476722D01*
X617509Y477491D01*
X618278Y478642D01*
X618548Y480000D01*
X618278Y481357D01*
X617509Y482509D01*
X616358Y483278D01*
X615000Y483548D01*
D02*
G37*
G36*
X315000Y493548D02*
X313643Y493278D01*
X312491Y492509D01*
X311722Y491357D01*
X311452Y490000D01*
X311722Y488642D01*
X312491Y487491D01*
X313643Y486722D01*
X315000Y486452D01*
X316358Y486722D01*
X317509Y487491D01*
X318278Y488642D01*
X318548Y490000D01*
X318278Y491357D01*
X317509Y492509D01*
X316358Y493278D01*
X315000Y493548D01*
D02*
G37*
G36*
X585000Y483548D02*
X583642Y483278D01*
X582491Y482509D01*
X581722Y481357D01*
X581452Y480000D01*
X581722Y478642D01*
X582491Y477491D01*
X583642Y476722D01*
X585000Y476452D01*
X586357Y476722D01*
X587509Y477491D01*
X588278Y478642D01*
X588548Y480000D01*
X588278Y481357D01*
X587509Y482509D01*
X586357Y483278D01*
X585000Y483548D01*
D02*
G37*
G36*
X605000D02*
X603643Y483278D01*
X602491Y482509D01*
X601722Y481357D01*
X601452Y480000D01*
X601722Y478642D01*
X602491Y477491D01*
X603643Y476722D01*
X605000Y476452D01*
X606358Y476722D01*
X607509Y477491D01*
X608278Y478642D01*
X608548Y480000D01*
X608278Y481357D01*
X607509Y482509D01*
X606358Y483278D01*
X605000Y483548D01*
D02*
G37*
%LPD*%
D35*
X783628Y772630D02*
D03*
X863482Y772550D02*
D03*
X11478Y918000D02*
D03*
X601258Y418750D02*
D03*
X309350Y415946D02*
D03*
X806000Y354500D02*
D03*
X883000D02*
D03*
X648500Y298106D02*
D03*
X778000Y245000D02*
D03*
X748902Y758604D02*
D03*
D39*
X555244Y747764D02*
Y757174D01*
Y747764D02*
X555286Y747722D01*
Y741578D02*
Y747722D01*
X555244Y741536D02*
X555286Y741578D01*
X555244Y674244D02*
Y741536D01*
X552450Y746607D02*
Y758331D01*
Y746607D02*
X552492Y746565D01*
Y742735D02*
Y746565D01*
X552450Y742693D02*
X552492Y742735D01*
Y758373D02*
Y772990D01*
X552450Y758331D02*
X552492Y758373D01*
X555244Y757174D02*
X565000Y766930D01*
Y773557D01*
X552450Y688450D02*
Y742693D01*
X530000Y666000D02*
X552450Y688450D01*
X552000Y671000D02*
X555244Y674244D01*
X544709Y780773D02*
X552492Y772990D01*
X361442Y716280D02*
X389369Y744207D01*
X361442Y606442D02*
Y716280D01*
X361020Y606020D02*
X361442Y606442D01*
X389284Y784000D02*
X401000D01*
X376284Y771000D02*
X389284Y784000D01*
X362519Y771000D02*
X376284D01*
X368980Y621980D02*
X400304Y653304D01*
Y750304D02*
X404000Y754000D01*
X400304Y653304D02*
Y750304D01*
X350377Y713658D02*
X381369Y744650D01*
X371856Y616856D02*
X408000Y653000D01*
X371856Y604856D02*
Y616856D01*
X368980Y616020D02*
Y621980D01*
X551434Y217678D02*
X556768D01*
X455422D02*
X551434D01*
Y157734D02*
Y217678D01*
X546608Y152908D02*
X551434Y157734D01*
X528828Y152908D02*
X546608D01*
X515366Y166370D02*
X528828Y152908D01*
X453620Y166370D02*
X515366D01*
X447000Y159750D02*
X453620Y166370D01*
X541782Y162052D02*
X542798Y163068D01*
Y203454D01*
X535432Y210820D02*
X542798Y203454D01*
X407924Y210820D02*
X535432D01*
X288000Y330744D02*
X407924Y210820D01*
X268979Y342646D02*
Y422980D01*
X348000Y325100D02*
X455422Y217678D01*
X556768D02*
X625000Y285910D01*
X276000Y386000D02*
Y440000D01*
Y386000D02*
X288000Y374000D01*
X564642Y303530D02*
Y452358D01*
X542798Y281686D02*
X564642Y303530D01*
X542798Y243586D02*
Y281686D01*
X348000Y325100D02*
Y454000D01*
X135128Y520954D02*
Y1033272D01*
X115400Y1053000D02*
X135128Y1033272D01*
X646000Y643000D02*
X649488Y639512D01*
X530000Y500380D02*
Y666000D01*
Y500380D02*
X535588Y494792D01*
X550207D01*
X555000Y490000D01*
X540000Y508000D02*
X543048Y504952D01*
X550047D01*
X555000Y500000D01*
X610000Y568000D02*
Y622916D01*
X600000Y632916D02*
X610000Y622916D01*
X600000Y632916D02*
Y637000D01*
X608076Y629412D02*
Y635000D01*
X612020Y630040D02*
Y684664D01*
X619760Y627634D02*
X620776D01*
X457962Y498856D02*
X458000Y498894D01*
X457962Y652272D02*
X458000Y652310D01*
X449000Y482164D02*
Y647261D01*
Y482164D02*
X455422Y475742D01*
X666369Y739013D02*
Y744650D01*
X612020Y684664D02*
X666369Y739013D01*
X608076Y684784D02*
X658369Y735077D01*
X608076Y635000D02*
Y684784D01*
X474218Y694999D02*
X523869Y744650D01*
X474218Y668528D02*
Y694999D01*
X458000Y652310D02*
X474218Y668528D01*
X471424Y698424D02*
X516000Y743000D01*
X471424Y669685D02*
Y698424D01*
X449000Y647261D02*
X471424Y669685D01*
X458000Y498894D02*
Y652310D01*
X109000Y971000D02*
X126238Y953762D01*
Y555752D02*
Y953762D01*
X660000Y618000D02*
X686000Y644000D01*
X660000Y614000D02*
Y618000D01*
X660400Y688170D02*
Y700400D01*
X654115Y681885D02*
X660400Y688170D01*
X405140Y175504D02*
X443494D01*
X325120Y255524D02*
X405140Y175504D01*
X215000Y695000D02*
X245302Y664698D01*
Y614698D02*
Y664698D01*
X215000Y695000D02*
Y699000D01*
X245302Y614698D02*
X247000Y613000D01*
X321000Y642000D02*
X326462D01*
X540000Y619000D02*
X545000Y624000D01*
X540000Y508000D02*
Y619000D01*
X550000Y515000D02*
Y584000D01*
X552000Y586000D01*
Y671000D01*
X550000Y515000D02*
X555000Y510000D01*
X654115Y610115D02*
Y681885D01*
X652000Y608000D02*
X654115Y610115D01*
X266000Y693000D02*
X270000Y689000D01*
Y640000D02*
Y689000D01*
X177000Y403644D02*
Y531000D01*
X231000Y728000D02*
Y760019D01*
X214869Y776150D02*
X231000Y760019D01*
Y728000D02*
X259000Y700000D01*
X266000Y693000D01*
X207000Y765000D02*
Y779000D01*
Y765000D02*
X215000Y757000D01*
X224019Y783000D02*
X230869Y776150D01*
X211000Y783000D02*
X224019D01*
X207000Y779000D02*
X211000Y783000D01*
X215000Y699000D02*
Y757000D01*
X246869Y776150D02*
X247000Y776281D01*
Y793000D01*
X230000Y810000D02*
X247000Y793000D01*
X158000Y810000D02*
X230000D01*
X141000Y793000D02*
X158000Y810000D01*
X141000Y531000D02*
Y793000D01*
Y531000D02*
X146000Y526000D01*
X167000D01*
X231000Y787000D02*
X238869Y779131D01*
X162000Y787000D02*
X231000D01*
X150000Y775000D02*
X162000Y787000D01*
X238869Y744650D02*
Y779131D01*
X150000Y534000D02*
Y775000D01*
X464000Y325684D02*
X516000Y273684D01*
X464000Y325684D02*
Y522000D01*
X558980Y303276D02*
Y445020D01*
X404000Y754000D02*
Y781000D01*
X401000Y784000D02*
X404000Y781000D01*
X357369Y776150D02*
X362519Y771000D01*
X413000Y704000D02*
Y767273D01*
X402000Y791000D02*
X408746Y784254D01*
X408000Y653000D02*
Y699000D01*
X413000Y704000D01*
X408746Y771527D02*
X413000Y767273D01*
X408746Y771527D02*
Y784254D01*
X380000Y791000D02*
X402000D01*
X373369Y784369D02*
X380000Y791000D01*
X373369Y776150D02*
Y784369D01*
X516000Y743000D02*
Y760281D01*
X531869Y776150D01*
X520492Y780773D02*
X544709D01*
X515869Y776150D02*
X520492Y780773D01*
X499869Y776150D02*
X512719Y789000D01*
X625000Y285910D02*
Y427000D01*
X634000Y436000D01*
X664000D01*
X669746Y759254D02*
Y781254D01*
X666000Y785000D02*
X669746Y781254D01*
X647000Y785000D02*
X666000D01*
X642369Y780369D02*
X647000Y785000D01*
X642369Y776150D02*
Y780369D01*
X674369Y764631D02*
Y776150D01*
X288000Y330744D02*
Y374000D01*
X177000Y403644D02*
X325120Y255524D01*
X457000Y92402D02*
X472694Y76708D01*
X457000Y92402D02*
Y159750D01*
X443494Y175504D02*
X457724D01*
X516000Y225322D02*
Y273684D01*
X531876Y276172D02*
X558980Y303276D01*
X531876Y228854D02*
Y276172D01*
X542798Y243332D02*
Y243586D01*
X389369Y744207D02*
Y776150D01*
X549557Y789000D02*
X565000Y773557D01*
X512719Y789000D02*
X549557D01*
X674369Y764631D02*
X680000Y759000D01*
Y746918D02*
Y759000D01*
Y746918D02*
X686000Y740918D01*
Y644000D02*
Y740918D01*
X670992Y710992D02*
Y758008D01*
X660400Y700400D02*
X670992Y710992D01*
X669746Y759254D02*
X670992Y758008D01*
X658369Y735077D02*
Y776150D01*
X421894Y524764D02*
X436118D01*
X348000Y607000D02*
Y620462D01*
X326462Y642000D02*
X348000Y620462D01*
X323000Y635000D02*
X328930D01*
X353177Y622757D02*
X354243D01*
X357000Y620000D01*
X350377Y625557D02*
X353177Y622757D01*
X350377Y625557D02*
Y713658D01*
D40*
X635762Y431292D02*
Y431546D01*
X638302Y429006D01*
X635762Y431292D02*
X636016Y431038D01*
X638302Y283302D02*
Y429006D01*
X633000Y278000D02*
X638302Y283302D01*
X11500Y545500D02*
X54000D01*
X10500D02*
X11500D01*
X39650Y749450D02*
X52350D01*
X65050Y736750D01*
Y662550D02*
Y736750D01*
X54000Y545500D02*
X64050Y555550D01*
X11500Y652500D02*
X55000D01*
X65050Y662550D01*
D41*
X750000Y730000D02*
Y760000D01*
D51*
X733806Y477012D02*
D03*
X636016Y431038D02*
D03*
X268979Y342646D02*
D03*
X541782Y162052D02*
D03*
X646000Y643000D02*
D03*
X620776Y627634D02*
D03*
X457962Y498856D02*
D03*
X455422Y475742D02*
D03*
X135128Y520954D02*
D03*
X126238Y555752D02*
D03*
X804420Y819914D02*
D03*
X321000Y642000D02*
D03*
X545000Y624000D02*
D03*
X600000Y637000D02*
D03*
X177000Y531000D02*
D03*
X115400Y1053000D02*
D03*
X150000Y534000D02*
D03*
X167000Y526000D02*
D03*
X464000Y522000D02*
D03*
X109000Y971000D02*
D03*
X675000Y590000D02*
D03*
X642369Y776150D02*
D03*
X555000Y490000D02*
D03*
X635000Y510000D02*
D03*
Y500000D02*
D03*
Y490000D02*
D03*
X345000D02*
D03*
Y500000D02*
D03*
Y510000D02*
D03*
X775500Y939000D02*
D03*
X246869Y776150D02*
D03*
X238869Y744650D02*
D03*
X230869Y776150D02*
D03*
X674369D02*
D03*
X666369Y744650D02*
D03*
X658369Y776150D02*
D03*
X531869D02*
D03*
X523869Y744650D02*
D03*
X515869Y776150D02*
D03*
X389369D02*
D03*
X381369Y744650D02*
D03*
X373369Y776150D02*
D03*
X635000Y560000D02*
D03*
X645000Y550000D02*
D03*
X355000D02*
D03*
X345000Y560000D02*
D03*
X214869Y776150D02*
D03*
X357369D02*
D03*
X499869D02*
D03*
X457724Y175504D02*
D03*
X516000Y225322D02*
D03*
X457000Y159750D02*
D03*
X447000D02*
D03*
X700000Y265000D02*
D03*
X65050Y662550D02*
D03*
X39650Y749450D02*
D03*
X52350D02*
D03*
X64050Y555550D02*
D03*
X827250Y302000D02*
D03*
X737362Y163830D02*
D03*
X836749Y34363D02*
D03*
X798649D02*
D03*
X754126Y34290D02*
D03*
X716099Y34363D02*
D03*
X623062Y34290D02*
D03*
X585470D02*
D03*
X540839Y34471D02*
D03*
X502920Y34290D02*
D03*
X285000Y520000D02*
D03*
X325000D02*
D03*
X295000Y550000D02*
D03*
X315000D02*
D03*
X295000Y500000D02*
D03*
X275000Y520000D02*
D03*
X325000Y500000D02*
D03*
X295000Y490000D02*
D03*
X265000Y520000D02*
D03*
X335000Y560000D02*
D03*
X265000Y510000D02*
D03*
X325000Y490000D02*
D03*
X335000Y570000D02*
D03*
X355000Y520000D02*
D03*
X265000Y490000D02*
D03*
X615000Y520000D02*
D03*
X575000D02*
D03*
X605000Y550000D02*
D03*
X585000D02*
D03*
Y500000D02*
D03*
X565000Y520000D02*
D03*
X615000Y500000D02*
D03*
X585000Y490000D02*
D03*
X625000Y560000D02*
D03*
X555000Y520000D02*
D03*
X615000Y490000D02*
D03*
X555000Y510000D02*
D03*
Y500000D02*
D03*
X645000Y520000D02*
D03*
X633000Y278000D02*
D03*
X531876Y228854D02*
D03*
X542798Y243586D02*
D03*
X323000Y635000D02*
D03*
X436118Y524764D02*
D03*
D63*
X345000Y606958D02*
X347109Y604849D01*
X347143D02*
X349000Y602992D01*
X347109Y604849D02*
X347143D01*
X349000Y564000D02*
Y602992D01*
X371020Y604021D02*
X371856Y604856D01*
X368980Y533980D02*
Y616020D01*
X371020Y532020D02*
Y604021D01*
X359918Y497586D02*
Y520918D01*
X357332Y495000D02*
X359918Y497586D01*
X350000Y495000D02*
X357332D01*
X359918Y520918D02*
X371020Y532020D01*
X271020Y444980D02*
X276000Y440000D01*
X268979Y422980D02*
Y511648D01*
X271020Y444980D02*
Y511648D01*
X275000Y515628D01*
X619760Y627634D02*
X638980Y608414D01*
X608076Y629412D02*
X628980Y608508D01*
Y496020D02*
Y608508D01*
X631020Y513979D02*
Y611040D01*
X612020Y630040D02*
X631020Y611040D01*
X638980Y563980D02*
Y608414D01*
X660000Y516000D02*
Y614000D01*
Y507600D02*
Y516000D01*
X647952Y504952D02*
X657352D01*
X639953D02*
X647952D01*
X638980Y503980D02*
X639953Y504952D01*
X657352D02*
X660000Y507600D01*
X357000Y620000D02*
X358869Y618131D01*
Y605130D02*
Y618131D01*
X247000Y613000D02*
X251020Y608980D01*
Y596138D02*
Y608980D01*
X348000Y607000D02*
X351020Y603980D01*
Y553980D02*
Y603980D01*
X358869Y605130D02*
X358980Y605019D01*
Y538352D02*
Y605019D01*
X641020Y603020D02*
X649488Y611488D01*
Y639512D01*
X641020Y553980D02*
Y603020D01*
X648980Y604980D02*
X652000Y608000D01*
X648980Y523979D02*
Y604980D01*
X265000Y515628D02*
X268979Y511648D01*
X265000Y515628D02*
Y520000D01*
X251020Y498351D02*
Y596138D01*
Y498351D02*
X253351Y496020D01*
X258979D01*
X265000Y490000D01*
X275000Y515628D02*
Y520000D01*
X355000D02*
X368980Y533980D01*
X345000Y490000D02*
X350000Y495000D01*
X351000Y505999D02*
Y527521D01*
X361020Y537541D02*
Y606020D01*
X345000Y500000D02*
X351000Y505999D01*
X348980Y528352D02*
X358980Y538352D01*
X348980Y513979D02*
Y528352D01*
X345000Y510000D02*
X348980Y513979D01*
X331020Y557980D02*
X334000Y555000D01*
X331020Y557980D02*
Y566020D01*
X351020Y553980D02*
X355000Y550000D01*
X345000Y560000D02*
X349000Y564000D01*
X664000Y436000D02*
X675000Y447000D01*
Y590000D01*
X561020Y455980D02*
X564642Y452358D01*
X561020Y455980D02*
Y511648D01*
X565000Y515628D01*
Y520000D01*
X558980Y445020D02*
Y516020D01*
Y445020D02*
X559000Y445000D01*
X555000Y520000D02*
X558980Y516020D01*
X613000Y565000D02*
X620000D01*
X610000Y568000D02*
X613000Y565000D01*
X620000D02*
X625000Y560000D01*
X641020Y553980D02*
X645000Y550000D01*
X635000Y560000D02*
X638980Y563980D01*
X628980Y496020D02*
X635000Y490000D01*
X645000Y520000D02*
X648980Y523979D01*
X631020Y513979D02*
X635000Y510000D01*
Y500000D02*
X638980Y503980D01*
X331020Y566020D02*
X335000Y570000D01*
X334000Y555000D02*
X337000D01*
X343662Y485140D02*
X382270D01*
X421894Y524764D01*
X328930Y635000D02*
X345000Y618930D01*
Y606958D02*
Y618930D01*
X351000Y527521D02*
X361020Y537541D01*
X335000Y560000D02*
X341020Y553980D01*
Y487782D02*
X343662Y485140D01*
X341020Y487782D02*
Y553980D01*
X339000Y463000D02*
X348000Y454000D01*
X337000Y555000D02*
X339000Y553000D01*
Y463000D02*
Y553000D01*
D64*
X270000Y600300D02*
Y640000D01*
X261012Y591312D02*
X270000Y600300D01*
X261012Y513988D02*
Y591312D01*
Y513988D02*
X265000Y510000D01*
D66*
X808228Y807974D02*
Y832104D01*
X775500Y864832D02*
X808228Y832104D01*
X775500Y864832D02*
Y939000D01*
X11500Y652500D02*
Y918000D01*
Y545500D02*
Y652500D01*
Y42500D02*
Y545500D01*
Y42500D02*
X25500Y28500D01*
X454500D01*
M02*
