%FSLAX44Y44*%
%MOMM*%
G71*
G01*
G75*
G04 Layer_Color=128*
%ADD10C,0.2032*%
G04:AMPARAMS|DCode=11|XSize=0.5mm|YSize=0.6mm|CornerRadius=0.125mm|HoleSize=0mm|Usage=FLASHONLY|Rotation=0.000|XOffset=0mm|YOffset=0mm|HoleType=Round|Shape=RoundedRectangle|*
%AMROUNDEDRECTD11*
21,1,0.5000,0.3500,0,0,0.0*
21,1,0.2500,0.6000,0,0,0.0*
1,1,0.2500,0.1250,-0.1750*
1,1,0.2500,-0.1250,-0.1750*
1,1,0.2500,-0.1250,0.1750*
1,1,0.2500,0.1250,0.1750*
%
%ADD11ROUNDEDRECTD11*%
%ADD12R,2.6000X1.1000*%
%ADD13R,0.6000X0.6000*%
G04:AMPARAMS|DCode=14|XSize=0.5mm|YSize=0.6mm|CornerRadius=0.125mm|HoleSize=0mm|Usage=FLASHONLY|Rotation=270.000|XOffset=0mm|YOffset=0mm|HoleType=Round|Shape=RoundedRectangle|*
%AMROUNDEDRECTD14*
21,1,0.5000,0.3500,0,0,270.0*
21,1,0.2500,0.6000,0,0,270.0*
1,1,0.2500,-0.1750,-0.1250*
1,1,0.2500,-0.1750,0.1250*
1,1,0.2500,0.1750,0.1250*
1,1,0.2500,0.1750,-0.1250*
%
%ADD14ROUNDEDRECTD14*%
%ADD15R,1.1000X1.3500*%
%ADD16R,0.6000X0.6000*%
%ADD17R,1.0000X1.4000*%
%ADD18R,1.4000X1.0000*%
%ADD19R,1.4000X1.1000*%
%ADD20R,1.1500X1.8000*%
%ADD21R,0.9500X0.3500*%
%ADD22R,0.3500X0.9500*%
%ADD23R,3.3000X3.3000*%
%ADD24R,0.6000X1.8000*%
%ADD25R,0.5000X2.0000*%
%ADD26R,1.6000X1.6000*%
%ADD27R,0.2800X0.8000*%
%ADD28R,0.8000X0.2800*%
%ADD29R,1.1000X1.4000*%
%ADD30R,1.1500X1.7000*%
%ADD31R,3.3000X3.3000*%
%ADD32R,1.1000X2.6000*%
%ADD33R,1.7000X1.1500*%
%ADD34C,0.4500*%
%ADD35C,1.0000*%
%ADD36R,12.0500X2.0000*%
%ADD37R,1.8000X1.8000*%
%ADD38R,3.6800X1.2700*%
%ADD39C,0.1270*%
%ADD40C,0.2540*%
%ADD41C,0.5080*%
%ADD42C,0.1524*%
%ADD43C,0.3048*%
%ADD44C,0.5000*%
%ADD45C,0.3810*%
%ADD46C,1.6500*%
%ADD47C,1.4732*%
%ADD48C,0.9500*%
%ADD49R,2.0000X2.0000*%
%ADD50C,8.0000*%
%ADD51C,0.4928*%
%ADD52C,0.6600*%
%ADD53C,0.5080*%
%ADD54C,1.0160*%
%ADD55C,1.0080*%
%ADD56C,2.0580*%
%ADD57C,2.0320*%
%ADD58C,1.4580*%
%ADD59C,1.5580*%
%ADD60C,1.6764*%
%ADD61C,4.3180*%
%ADD62C,0.7620*%
%ADD63C,0.1000*%
%ADD64C,0.1016*%
%ADD65C,0.8380*%
%ADD66C,1.2700*%
%ADD67R,0.4064X2.1590*%
%ADD68R,18.0340X0.5080*%
%ADD69C,0.2500*%
%ADD70C,0.6000*%
%ADD71C,0.2000*%
%ADD72R,2.3100X2.3100*%
%ADD73R,1.1200X1.1200*%
%ADD74R,2.3100X2.3100*%
G04:AMPARAMS|DCode=75|XSize=0.5508mm|YSize=0.6508mm|CornerRadius=0.1504mm|HoleSize=0mm|Usage=FLASHONLY|Rotation=0.000|XOffset=0mm|YOffset=0mm|HoleType=Round|Shape=RoundedRectangle|*
%AMROUNDEDRECTD75*
21,1,0.5508,0.3500,0,0,0.0*
21,1,0.2500,0.6508,0,0,0.0*
1,1,0.3008,0.1250,-0.1750*
1,1,0.3008,-0.1250,-0.1750*
1,1,0.3008,-0.1250,0.1750*
1,1,0.3008,0.1250,0.1750*
%
%ADD75ROUNDEDRECTD75*%
%ADD76R,2.6508X1.1508*%
%ADD77R,0.6508X0.6508*%
G04:AMPARAMS|DCode=78|XSize=0.5508mm|YSize=0.6508mm|CornerRadius=0.1504mm|HoleSize=0mm|Usage=FLASHONLY|Rotation=270.000|XOffset=0mm|YOffset=0mm|HoleType=Round|Shape=RoundedRectangle|*
%AMROUNDEDRECTD78*
21,1,0.5508,0.3500,0,0,270.0*
21,1,0.2500,0.6508,0,0,270.0*
1,1,0.3008,-0.1750,-0.1250*
1,1,0.3008,-0.1750,0.1250*
1,1,0.3008,0.1750,0.1250*
1,1,0.3008,0.1750,-0.1250*
%
%ADD78ROUNDEDRECTD78*%
%ADD79R,1.1508X1.4008*%
%ADD80R,0.6508X0.6508*%
%ADD81R,1.0508X1.4508*%
%ADD82R,1.4508X1.0508*%
%ADD83R,1.4508X1.1508*%
%ADD84R,1.2008X1.8508*%
%ADD85R,1.0008X0.4008*%
%ADD86R,0.4008X1.0008*%
%ADD87R,3.3508X3.3508*%
%ADD88R,0.6508X1.8508*%
%ADD89R,0.5508X2.0508*%
%ADD90R,1.6508X1.6508*%
%ADD91R,0.3308X0.8508*%
%ADD92R,0.8508X0.3308*%
%ADD93R,1.1508X1.4508*%
%ADD94R,1.2008X1.7508*%
%ADD95R,3.3508X3.3508*%
%ADD96R,1.1508X2.6508*%
%ADD97R,1.7508X1.2008*%
%ADD98C,0.5008*%
%ADD99C,2.0000*%
%ADD100R,11.9992X1.9492*%
%ADD101R,1.8508X1.8508*%
%ADD102R,3.7308X1.3208*%
%ADD103C,1.0508*%
%ADD104C,1.7008*%
%ADD105C,1.5240*%
%ADD106C,0.0508*%
%ADD107C,8.0508*%
%ADD108R,0.4572X2.2098*%
%ADD109R,18.0848X0.5588*%
D11*
X591244Y539830D02*
D03*
Y549830D02*
D03*
X619946Y484966D02*
D03*
Y494966D02*
D03*
X418000Y280000D02*
D03*
Y290000D02*
D03*
X408000Y280000D02*
D03*
Y290000D02*
D03*
X236000Y280000D02*
D03*
Y290000D02*
D03*
X398000Y280000D02*
D03*
Y290000D02*
D03*
X279908Y535004D02*
D03*
Y545004D02*
D03*
X185000Y280000D02*
D03*
Y290000D02*
D03*
X447000Y280000D02*
D03*
Y290000D02*
D03*
X579882Y484966D02*
D03*
Y494966D02*
D03*
X384770Y524176D02*
D03*
Y514176D02*
D03*
X598864Y539830D02*
D03*
Y549830D02*
D03*
X315000Y280000D02*
D03*
Y290000D02*
D03*
X487000Y280000D02*
D03*
Y290000D02*
D03*
X512000Y602000D02*
D03*
Y592000D02*
D03*
X289814Y514938D02*
D03*
Y524938D02*
D03*
X590482Y474806D02*
D03*
Y484806D02*
D03*
X467000Y280000D02*
D03*
Y290000D02*
D03*
X320061Y475060D02*
D03*
Y485060D02*
D03*
X329946Y484966D02*
D03*
Y494966D02*
D03*
X265000Y280000D02*
D03*
Y290000D02*
D03*
X579814Y574722D02*
D03*
Y564722D02*
D03*
X329946Y535004D02*
D03*
Y545004D02*
D03*
X378000Y280000D02*
D03*
Y290000D02*
D03*
X289966Y484966D02*
D03*
Y494966D02*
D03*
X305000Y280000D02*
D03*
Y290000D02*
D03*
X308864Y539830D02*
D03*
Y549830D02*
D03*
X517000Y290000D02*
D03*
Y280000D02*
D03*
X506984Y290322D02*
D03*
Y280322D02*
D03*
X308864Y570150D02*
D03*
Y560150D02*
D03*
X538000Y506000D02*
D03*
Y516000D02*
D03*
X591498Y570150D02*
D03*
Y560150D02*
D03*
X226000Y280000D02*
D03*
Y290000D02*
D03*
X221960Y602000D02*
D03*
Y592000D02*
D03*
X289814Y574722D02*
D03*
Y564722D02*
D03*
X301244Y570150D02*
D03*
Y560150D02*
D03*
X325000Y280000D02*
D03*
Y290000D02*
D03*
X388000Y280000D02*
D03*
Y290000D02*
D03*
X368000Y280000D02*
D03*
Y290000D02*
D03*
X335000Y280000D02*
D03*
Y290000D02*
D03*
X609939Y514938D02*
D03*
Y524938D02*
D03*
X320120Y515120D02*
D03*
Y525120D02*
D03*
X275000Y280000D02*
D03*
Y290000D02*
D03*
X610040Y475060D02*
D03*
Y485060D02*
D03*
X246000Y280000D02*
D03*
Y290000D02*
D03*
X358000Y280000D02*
D03*
Y290000D02*
D03*
X497000Y280000D02*
D03*
Y290000D02*
D03*
X216000Y280000D02*
D03*
Y290000D02*
D03*
X569908Y535004D02*
D03*
Y545004D02*
D03*
X619946Y575230D02*
D03*
Y565230D02*
D03*
X309880Y474806D02*
D03*
Y484806D02*
D03*
X579882Y514764D02*
D03*
Y524764D02*
D03*
X619946Y535004D02*
D03*
Y545004D02*
D03*
X300482Y474806D02*
D03*
Y484806D02*
D03*
X285000Y280000D02*
D03*
Y290000D02*
D03*
X300736Y539830D02*
D03*
Y549830D02*
D03*
X674116Y524350D02*
D03*
Y514350D02*
D03*
X600541Y514176D02*
D03*
Y504176D02*
D03*
X195000Y280000D02*
D03*
Y290000D02*
D03*
X457000Y280000D02*
D03*
Y290000D02*
D03*
X599118Y570150D02*
D03*
Y560150D02*
D03*
X309880Y515120D02*
D03*
Y505120D02*
D03*
X329946Y575230D02*
D03*
Y565230D02*
D03*
X591244Y510112D02*
D03*
Y520112D02*
D03*
X205000Y280000D02*
D03*
Y290000D02*
D03*
X300990Y510112D02*
D03*
Y520112D02*
D03*
X428000Y280000D02*
D03*
Y290000D02*
D03*
X477000Y280000D02*
D03*
Y290000D02*
D03*
X295000Y280000D02*
D03*
Y290000D02*
D03*
X599880Y474806D02*
D03*
Y484806D02*
D03*
X175000Y280000D02*
D03*
Y290000D02*
D03*
X656000Y598000D02*
D03*
Y588000D02*
D03*
X200756Y553500D02*
D03*
Y543500D02*
D03*
X248226Y505542D02*
D03*
Y515542D02*
D03*
X365000Y598000D02*
D03*
Y588000D02*
D03*
D13*
X118000Y497000D02*
D03*
X108000D02*
D03*
X482000Y505000D02*
D03*
X492000D02*
D03*
X482000Y526000D02*
D03*
X492000D02*
D03*
Y516000D02*
D03*
X482000D02*
D03*
X118000Y469000D02*
D03*
X108000D02*
D03*
X198000Y615000D02*
D03*
X208000D02*
D03*
X198000Y626000D02*
D03*
X208000D02*
D03*
X426826Y640588D02*
D03*
X416826D02*
D03*
X426826Y629588D02*
D03*
X416826D02*
D03*
X553000Y768000D02*
D03*
X543000D02*
D03*
X475000Y537000D02*
D03*
X485000D02*
D03*
X169000Y630696D02*
D03*
X179000D02*
D03*
X411000Y769000D02*
D03*
X401000D02*
D03*
X208000Y604000D02*
D03*
X198000D02*
D03*
X108000Y488000D02*
D03*
X118000D02*
D03*
Y479000D02*
D03*
X108000D02*
D03*
X685000Y767000D02*
D03*
X695000D02*
D03*
X169000Y615570D02*
D03*
X179000D02*
D03*
X482000Y494000D02*
D03*
X492000D02*
D03*
X259000Y768000D02*
D03*
X269000D02*
D03*
D14*
X382000Y708000D02*
D03*
X372000D02*
D03*
X666000Y707000D02*
D03*
X656000D02*
D03*
X508000Y535000D02*
D03*
X518000D02*
D03*
X239000Y707000D02*
D03*
X229000D02*
D03*
X524000D02*
D03*
X514000D02*
D03*
D16*
X499000Y605000D02*
D03*
Y595000D02*
D03*
X207000Y737000D02*
D03*
Y727000D02*
D03*
X361000D02*
D03*
Y737000D02*
D03*
X644000Y727000D02*
D03*
Y737000D02*
D03*
X503000Y727000D02*
D03*
Y737000D02*
D03*
X655000Y727000D02*
D03*
Y737000D02*
D03*
X676000Y792000D02*
D03*
Y802000D02*
D03*
X491000Y737000D02*
D03*
Y727000D02*
D03*
X662000Y802000D02*
D03*
Y792000D02*
D03*
X349000Y737000D02*
D03*
Y727000D02*
D03*
X373000Y738000D02*
D03*
Y728000D02*
D03*
X514000Y737000D02*
D03*
Y727000D02*
D03*
X634000Y737000D02*
D03*
Y727000D02*
D03*
X391000Y792000D02*
D03*
Y802000D02*
D03*
X378000D02*
D03*
Y792000D02*
D03*
X533000Y793000D02*
D03*
Y803000D02*
D03*
X235000Y801000D02*
D03*
Y791000D02*
D03*
X219000Y727000D02*
D03*
Y737000D02*
D03*
X248000Y791000D02*
D03*
Y801000D02*
D03*
X231000Y727000D02*
D03*
Y737000D02*
D03*
X517000Y803000D02*
D03*
Y793000D02*
D03*
D19*
X469754Y613154D02*
D03*
Y598154D02*
D03*
X569214Y386722D02*
D03*
Y371722D02*
D03*
X507000Y464500D02*
D03*
Y479500D02*
D03*
X219000Y550500D02*
D03*
Y565500D02*
D03*
X576000Y785500D02*
D03*
Y800500D02*
D03*
X217000Y464500D02*
D03*
Y479500D02*
D03*
X342000Y627500D02*
D03*
Y612500D02*
D03*
X396000Y547500D02*
D03*
Y562500D02*
D03*
X397000Y604500D02*
D03*
Y589500D02*
D03*
X727040Y589896D02*
D03*
Y604896D02*
D03*
X686000Y547500D02*
D03*
Y562500D02*
D03*
X509000Y550500D02*
D03*
Y565500D02*
D03*
X633000Y626500D02*
D03*
Y611500D02*
D03*
X586454Y418850D02*
D03*
Y403850D02*
D03*
X430130Y587232D02*
D03*
Y602232D02*
D03*
X687000Y604500D02*
D03*
Y589500D02*
D03*
D29*
X596500Y616000D02*
D03*
X581500D02*
D03*
X293500Y613000D02*
D03*
X308500D02*
D03*
X407500Y721000D02*
D03*
X392500D02*
D03*
X323520Y419100D02*
D03*
X338520D02*
D03*
X264500Y722000D02*
D03*
X249500D02*
D03*
X355500Y445000D02*
D03*
X340500D02*
D03*
X549500Y722000D02*
D03*
X534500D02*
D03*
X308500Y758000D02*
D03*
X293500D02*
D03*
X693500Y723000D02*
D03*
X678500D02*
D03*
X450500Y758000D02*
D03*
X435500D02*
D03*
X734500D02*
D03*
X719500D02*
D03*
X739782Y639370D02*
D03*
X724782D02*
D03*
X645500Y445000D02*
D03*
X630500D02*
D03*
D30*
X707250Y740000D02*
D03*
X734750D02*
D03*
X281250D02*
D03*
X308750D02*
D03*
X423250D02*
D03*
X450750D02*
D03*
D33*
X449933Y587147D02*
D03*
Y614647D02*
D03*
X750916Y588980D02*
D03*
Y616480D02*
D03*
X617188Y419766D02*
D03*
Y392266D02*
D03*
X570000Y741250D02*
D03*
Y768750D02*
D03*
D35*
X875000Y950000D02*
D03*
X625000Y170000D02*
D03*
X55000Y300000D02*
D03*
X115000Y927000D02*
D03*
D67*
X56969Y58801D02*
D03*
X63319D02*
D03*
X76019D02*
D03*
X82369D02*
D03*
X95069D02*
D03*
X101419D02*
D03*
X114119D02*
D03*
X120469D02*
D03*
X139519D02*
D03*
X145869D02*
D03*
X158569D02*
D03*
X164919D02*
D03*
X177619D02*
D03*
X183969D02*
D03*
X196669D02*
D03*
X203019D02*
D03*
X56969Y123571D02*
D03*
X63319D02*
D03*
X76019D02*
D03*
X82369D02*
D03*
X95069D02*
D03*
X101419D02*
D03*
X114119D02*
D03*
X120469D02*
D03*
X139519D02*
D03*
X145869D02*
D03*
X158569D02*
D03*
X164919D02*
D03*
X177619D02*
D03*
X183969D02*
D03*
X196669D02*
D03*
X203019D02*
D03*
X270329Y58801D02*
D03*
X276679D02*
D03*
X289379D02*
D03*
X295729D02*
D03*
X308429D02*
D03*
X314779D02*
D03*
X327479D02*
D03*
X333829D02*
D03*
X352879D02*
D03*
X359229D02*
D03*
X371929D02*
D03*
X378279D02*
D03*
X390979D02*
D03*
X397329D02*
D03*
X410029D02*
D03*
X416379D02*
D03*
X270329Y123571D02*
D03*
X276679D02*
D03*
X289379D02*
D03*
X295729D02*
D03*
X308429D02*
D03*
X314779D02*
D03*
X327479D02*
D03*
X333829D02*
D03*
X352879D02*
D03*
X359229D02*
D03*
X371929D02*
D03*
X378279D02*
D03*
X390979D02*
D03*
X397329D02*
D03*
X410029D02*
D03*
X416379D02*
D03*
X483689Y58801D02*
D03*
X490039D02*
D03*
X502739D02*
D03*
X509089D02*
D03*
X521789D02*
D03*
X528139D02*
D03*
X540839D02*
D03*
X547189D02*
D03*
X566239D02*
D03*
X572589D02*
D03*
X585289D02*
D03*
X591639D02*
D03*
X604339D02*
D03*
X623389D02*
D03*
X629739D02*
D03*
X483689Y123571D02*
D03*
X490039D02*
D03*
X502739D02*
D03*
X521789D02*
D03*
X540839D02*
D03*
X547189D02*
D03*
X566239D02*
D03*
X572589D02*
D03*
X585289D02*
D03*
X591639D02*
D03*
X604339D02*
D03*
X610689D02*
D03*
X623389D02*
D03*
X629739D02*
D03*
X697049Y58801D02*
D03*
X703399D02*
D03*
X716099D02*
D03*
X722449D02*
D03*
X735149D02*
D03*
X741499D02*
D03*
X754199D02*
D03*
X760549D02*
D03*
X779599D02*
D03*
X785949D02*
D03*
X798649D02*
D03*
X804999D02*
D03*
X817699D02*
D03*
X824049D02*
D03*
X836749D02*
D03*
X843099D02*
D03*
X697049Y123571D02*
D03*
X703399D02*
D03*
X716099D02*
D03*
X722449D02*
D03*
X735149D02*
D03*
X741499D02*
D03*
X754199D02*
D03*
X760549D02*
D03*
X779599D02*
D03*
X785949D02*
D03*
X798649D02*
D03*
X804999D02*
D03*
X817699D02*
D03*
X824049D02*
D03*
X836749D02*
D03*
X843099D02*
D03*
X209369D02*
D03*
X190319D02*
D03*
X171269D02*
D03*
X152219D02*
D03*
X133169D02*
D03*
X126819D02*
D03*
X107769D02*
D03*
X88719D02*
D03*
X69669D02*
D03*
X50619D02*
D03*
X263979D02*
D03*
X283029D02*
D03*
X302079D02*
D03*
X321129D02*
D03*
X340179D02*
D03*
X346529D02*
D03*
X365579D02*
D03*
X384629D02*
D03*
X403679D02*
D03*
X422729D02*
D03*
Y58801D02*
D03*
X403679D02*
D03*
X384629D02*
D03*
X365579D02*
D03*
X346529D02*
D03*
X340179D02*
D03*
X321129D02*
D03*
X302079D02*
D03*
X283029D02*
D03*
X263979D02*
D03*
X50619D02*
D03*
X69669D02*
D03*
X88719D02*
D03*
X107769D02*
D03*
X126819D02*
D03*
X133169D02*
D03*
X152219D02*
D03*
X171269D02*
D03*
X190319D02*
D03*
X209369D02*
D03*
X477339Y123571D02*
D03*
X496389D02*
D03*
X515439D02*
D03*
X534489D02*
D03*
X553539D02*
D03*
X559889D02*
D03*
X578939D02*
D03*
X597989D02*
D03*
X617039D02*
D03*
X636089D02*
D03*
X477339Y58801D02*
D03*
X496389D02*
D03*
X515439D02*
D03*
X534489D02*
D03*
X553539D02*
D03*
X559889D02*
D03*
X578939D02*
D03*
X597989D02*
D03*
X617039D02*
D03*
X636089D02*
D03*
X849449D02*
D03*
X830399D02*
D03*
X811349D02*
D03*
X792299D02*
D03*
X773249D02*
D03*
X766899D02*
D03*
X747849D02*
D03*
X728799D02*
D03*
X709749D02*
D03*
X690699D02*
D03*
X849449Y123571D02*
D03*
X830399D02*
D03*
X811349D02*
D03*
X792299D02*
D03*
X773249D02*
D03*
X766899D02*
D03*
X747849D02*
D03*
X728799D02*
D03*
X709749D02*
D03*
X690699D02*
D03*
X610689Y58801D02*
D03*
X528139Y123571D02*
D03*
X509089D02*
D03*
D68*
X769874Y91186D02*
D03*
X556514D02*
D03*
X343154D02*
D03*
X129794D02*
D03*
M02*
